<?xml version="1.0" encoding="utf-8"?>
<svg xmlns="http://www.w3.org/2000/svg" xmlns:xlink="http://www.w3.org/1999/xlink" width="600" height="400" viewBox="0 0 2400 1600">
<defs>
  <clipPath id="clip690">
    <rect x="0" y="0" width="2400" height="1600"/>
  </clipPath>
</defs>
<path clip-path="url(#clip690)" d="M0 1600 L2400 1600 L2400 0 L0 0  Z" fill="#ffffff" fill-rule="evenodd" fill-opacity="1"/>
<defs>
  <clipPath id="clip691">
    <rect x="480" y="0" width="1681" height="1600"/>
  </clipPath>
</defs>
<path clip-path="url(#clip690)" d="M224.098 1423.18 L2352.76 1423.18 L2352.76 47.2441 L224.098 47.2441  Z" fill="#ffffff" fill-rule="evenodd" fill-opacity="1"/>
<defs>
  <clipPath id="clip692">
    <rect x="224" y="47" width="2130" height="1377"/>
  </clipPath>
</defs>
<polyline clip-path="url(#clip692)" style="stroke:#000000; stroke-linecap:round; stroke-linejoin:round; stroke-width:2; stroke-opacity:0.1; fill:none" points="284.343,1423.18 284.343,47.2441 "/>
<polyline clip-path="url(#clip692)" style="stroke:#000000; stroke-linecap:round; stroke-linejoin:round; stroke-width:2; stroke-opacity:0.1; fill:none" points="953.732,1423.18 953.732,47.2441 "/>
<polyline clip-path="url(#clip692)" style="stroke:#000000; stroke-linecap:round; stroke-linejoin:round; stroke-width:2; stroke-opacity:0.1; fill:none" points="1623.12,1423.18 1623.12,47.2441 "/>
<polyline clip-path="url(#clip692)" style="stroke:#000000; stroke-linecap:round; stroke-linejoin:round; stroke-width:2; stroke-opacity:0.1; fill:none" points="2292.51,1423.18 2292.51,47.2441 "/>
<polyline clip-path="url(#clip692)" style="stroke:#000000; stroke-linecap:round; stroke-linejoin:round; stroke-width:2; stroke-opacity:0.1; fill:none" points="224.098,1395.77 2352.76,1395.77 "/>
<polyline clip-path="url(#clip692)" style="stroke:#000000; stroke-linecap:round; stroke-linejoin:round; stroke-width:2; stroke-opacity:0.1; fill:none" points="224.098,1128.95 2352.76,1128.95 "/>
<polyline clip-path="url(#clip692)" style="stroke:#000000; stroke-linecap:round; stroke-linejoin:round; stroke-width:2; stroke-opacity:0.1; fill:none" points="224.098,862.134 2352.76,862.134 "/>
<polyline clip-path="url(#clip692)" style="stroke:#000000; stroke-linecap:round; stroke-linejoin:round; stroke-width:2; stroke-opacity:0.1; fill:none" points="224.098,595.317 2352.76,595.317 "/>
<polyline clip-path="url(#clip692)" style="stroke:#000000; stroke-linecap:round; stroke-linejoin:round; stroke-width:2; stroke-opacity:0.1; fill:none" points="224.098,328.5 2352.76,328.5 "/>
<polyline clip-path="url(#clip692)" style="stroke:#000000; stroke-linecap:round; stroke-linejoin:round; stroke-width:2; stroke-opacity:0.1; fill:none" points="224.098,61.683 2352.76,61.683 "/>
<polyline clip-path="url(#clip690)" style="stroke:#000000; stroke-linecap:round; stroke-linejoin:round; stroke-width:4; stroke-opacity:1; fill:none" points="224.098,1423.18 2352.76,1423.18 "/>
<polyline clip-path="url(#clip690)" style="stroke:#000000; stroke-linecap:round; stroke-linejoin:round; stroke-width:4; stroke-opacity:1; fill:none" points="284.343,1423.18 284.343,1404.28 "/>
<polyline clip-path="url(#clip690)" style="stroke:#000000; stroke-linecap:round; stroke-linejoin:round; stroke-width:4; stroke-opacity:1; fill:none" points="953.732,1423.18 953.732,1404.28 "/>
<polyline clip-path="url(#clip690)" style="stroke:#000000; stroke-linecap:round; stroke-linejoin:round; stroke-width:4; stroke-opacity:1; fill:none" points="1623.12,1423.18 1623.12,1404.28 "/>
<polyline clip-path="url(#clip690)" style="stroke:#000000; stroke-linecap:round; stroke-linejoin:round; stroke-width:4; stroke-opacity:1; fill:none" points="2292.51,1423.18 2292.51,1404.28 "/>
<path clip-path="url(#clip690)" d="M284.343 1454.1 Q280.732 1454.1 278.903 1457.66 Q277.098 1461.2 277.098 1468.33 Q277.098 1475.44 278.903 1479.01 Q280.732 1482.55 284.343 1482.55 Q287.977 1482.55 289.783 1479.01 Q291.611 1475.44 291.611 1468.33 Q291.611 1461.2 289.783 1457.66 Q287.977 1454.1 284.343 1454.1 M284.343 1450.39 Q290.153 1450.39 293.209 1455 Q296.287 1459.58 296.287 1468.33 Q296.287 1477.06 293.209 1481.67 Q290.153 1486.25 284.343 1486.25 Q278.533 1486.25 275.454 1481.67 Q272.399 1477.06 272.399 1468.33 Q272.399 1459.58 275.454 1455 Q278.533 1450.39 284.343 1450.39 Z" fill="#000000" fill-rule="nonzero" fill-opacity="1" /><path clip-path="url(#clip690)" d="M944.114 1481.64 L951.753 1481.64 L951.753 1455.28 L943.443 1456.95 L943.443 1452.69 L951.707 1451.02 L956.383 1451.02 L956.383 1481.64 L964.022 1481.64 L964.022 1485.58 L944.114 1485.58 L944.114 1481.64 Z" fill="#000000" fill-rule="nonzero" fill-opacity="1" /><path clip-path="url(#clip690)" d="M1617.77 1481.64 L1634.09 1481.64 L1634.09 1485.58 L1612.15 1485.58 L1612.15 1481.64 Q1614.81 1478.89 1619.39 1474.26 Q1624 1469.61 1625.18 1468.27 Q1627.43 1465.74 1628.31 1464.01 Q1629.21 1462.25 1629.21 1460.56 Q1629.21 1457.8 1627.27 1456.07 Q1625.34 1454.33 1622.24 1454.33 Q1620.04 1454.33 1617.59 1455.09 Q1615.16 1455.86 1612.38 1457.41 L1612.38 1452.69 Q1615.2 1451.55 1617.66 1450.97 Q1620.11 1450.39 1622.15 1450.39 Q1627.52 1450.39 1630.71 1453.08 Q1633.91 1455.77 1633.91 1460.26 Q1633.91 1462.39 1633.1 1464.31 Q1632.31 1466.2 1630.2 1468.8 Q1629.63 1469.47 1626.52 1472.69 Q1623.42 1475.88 1617.77 1481.64 Z" fill="#000000" fill-rule="nonzero" fill-opacity="1" /><path clip-path="url(#clip690)" d="M2296.76 1466.95 Q2300.11 1467.66 2301.99 1469.93 Q2303.89 1472.2 2303.89 1475.53 Q2303.89 1480.65 2300.37 1483.45 Q2296.85 1486.25 2290.37 1486.25 Q2288.19 1486.25 2285.88 1485.81 Q2283.59 1485.39 2281.13 1484.54 L2281.13 1480.02 Q2283.08 1481.16 2285.39 1481.74 Q2287.71 1482.32 2290.23 1482.32 Q2294.63 1482.32 2296.92 1480.58 Q2299.24 1478.84 2299.24 1475.53 Q2299.24 1472.48 2297.08 1470.77 Q2294.95 1469.03 2291.13 1469.03 L2287.11 1469.03 L2287.11 1465.19 L2291.32 1465.19 Q2294.77 1465.19 2296.6 1463.82 Q2298.43 1462.43 2298.43 1459.84 Q2298.43 1457.18 2296.53 1455.77 Q2294.65 1454.33 2291.13 1454.33 Q2289.21 1454.33 2287.01 1454.75 Q2284.81 1455.16 2282.18 1456.04 L2282.18 1451.88 Q2284.84 1451.14 2287.15 1450.77 Q2289.49 1450.39 2291.55 1450.39 Q2296.87 1450.39 2299.98 1452.83 Q2303.08 1455.23 2303.08 1459.35 Q2303.08 1462.22 2301.43 1464.21 Q2299.79 1466.18 2296.76 1466.95 Z" fill="#000000" fill-rule="nonzero" fill-opacity="1" /><path clip-path="url(#clip690)" d="M1287.49 1522.27 L1287.49 1532.4 L1299.55 1532.4 L1299.55 1536.95 L1287.49 1536.95 L1287.49 1556.3 Q1287.49 1560.66 1288.67 1561.9 Q1289.88 1563.14 1293.54 1563.14 L1299.55 1563.14 L1299.55 1568.04 L1293.54 1568.04 Q1286.76 1568.04 1284.18 1565.53 Q1281.6 1562.98 1281.6 1556.3 L1281.6 1536.95 L1277.3 1536.95 L1277.3 1532.4 L1281.6 1532.4 L1281.6 1522.27 L1287.49 1522.27 Z" fill="#000000" fill-rule="nonzero" fill-opacity="1" /><polyline clip-path="url(#clip690)" style="stroke:#000000; stroke-linecap:round; stroke-linejoin:round; stroke-width:4; stroke-opacity:1; fill:none" points="224.098,1423.18 224.098,47.2441 "/>
<polyline clip-path="url(#clip690)" style="stroke:#000000; stroke-linecap:round; stroke-linejoin:round; stroke-width:4; stroke-opacity:1; fill:none" points="224.098,1395.77 242.996,1395.77 "/>
<polyline clip-path="url(#clip690)" style="stroke:#000000; stroke-linecap:round; stroke-linejoin:round; stroke-width:4; stroke-opacity:1; fill:none" points="224.098,1128.95 242.996,1128.95 "/>
<polyline clip-path="url(#clip690)" style="stroke:#000000; stroke-linecap:round; stroke-linejoin:round; stroke-width:4; stroke-opacity:1; fill:none" points="224.098,862.134 242.996,862.134 "/>
<polyline clip-path="url(#clip690)" style="stroke:#000000; stroke-linecap:round; stroke-linejoin:round; stroke-width:4; stroke-opacity:1; fill:none" points="224.098,595.317 242.996,595.317 "/>
<polyline clip-path="url(#clip690)" style="stroke:#000000; stroke-linecap:round; stroke-linejoin:round; stroke-width:4; stroke-opacity:1; fill:none" points="224.098,328.5 242.996,328.5 "/>
<polyline clip-path="url(#clip690)" style="stroke:#000000; stroke-linecap:round; stroke-linejoin:round; stroke-width:4; stroke-opacity:1; fill:none" points="224.098,61.683 242.996,61.683 "/>
<path clip-path="url(#clip690)" d="M51.9875 1396.22 L81.6633 1396.22 L81.6633 1400.15 L51.9875 1400.15 L51.9875 1396.22 Z" fill="#000000" fill-rule="nonzero" fill-opacity="1" /><path clip-path="url(#clip690)" d="M101.756 1381.57 Q98.1447 1381.57 96.316 1385.13 Q94.5104 1388.67 94.5104 1395.8 Q94.5104 1402.91 96.316 1406.47 Q98.1447 1410.02 101.756 1410.02 Q105.39 1410.02 107.196 1406.47 Q109.024 1402.91 109.024 1395.8 Q109.024 1388.67 107.196 1385.13 Q105.39 1381.57 101.756 1381.57 M101.756 1377.86 Q107.566 1377.86 110.621 1382.47 Q113.7 1387.05 113.7 1395.8 Q113.7 1404.53 110.621 1409.14 Q107.566 1413.72 101.756 1413.72 Q95.9456 1413.72 92.8669 1409.14 Q89.8114 1404.53 89.8114 1395.8 Q89.8114 1387.05 92.8669 1382.47 Q95.9456 1377.86 101.756 1377.86 Z" fill="#000000" fill-rule="nonzero" fill-opacity="1" /><path clip-path="url(#clip690)" d="M121.918 1407.17 L126.802 1407.17 L126.802 1413.05 L121.918 1413.05 L121.918 1407.17 Z" fill="#000000" fill-rule="nonzero" fill-opacity="1" /><path clip-path="url(#clip690)" d="M137.797 1409.11 L145.436 1409.11 L145.436 1382.75 L137.126 1384.41 L137.126 1380.15 L145.39 1378.49 L150.066 1378.49 L150.066 1409.11 L157.705 1409.11 L157.705 1413.05 L137.797 1413.05 L137.797 1409.11 Z" fill="#000000" fill-rule="nonzero" fill-opacity="1" /><path clip-path="url(#clip690)" d="M167.195 1378.49 L185.552 1378.49 L185.552 1382.42 L171.478 1382.42 L171.478 1390.9 Q172.496 1390.55 173.515 1390.39 Q174.533 1390.2 175.552 1390.2 Q181.339 1390.2 184.718 1393.37 Q188.098 1396.54 188.098 1401.96 Q188.098 1407.54 184.626 1410.64 Q181.153 1413.72 174.834 1413.72 Q172.658 1413.72 170.39 1413.35 Q168.144 1412.98 165.737 1412.24 L165.737 1407.54 Q167.82 1408.67 170.042 1409.23 Q172.265 1409.78 174.741 1409.78 Q178.746 1409.78 181.084 1407.68 Q183.422 1405.57 183.422 1401.96 Q183.422 1398.35 181.084 1396.24 Q178.746 1394.14 174.741 1394.14 Q172.866 1394.14 170.991 1394.55 Q169.14 1394.97 167.195 1395.85 L167.195 1378.49 Z" fill="#000000" fill-rule="nonzero" fill-opacity="1" /><path clip-path="url(#clip690)" d="M50.9921 1129.4 L80.6679 1129.4 L80.6679 1133.34 L50.9921 1133.34 L50.9921 1129.4 Z" fill="#000000" fill-rule="nonzero" fill-opacity="1" /><path clip-path="url(#clip690)" d="M100.76 1114.75 Q97.1493 1114.75 95.3206 1118.31 Q93.515 1121.86 93.515 1128.99 Q93.515 1136.09 95.3206 1139.66 Q97.1493 1143.2 100.76 1143.2 Q104.395 1143.2 106.2 1139.66 Q108.029 1136.09 108.029 1128.99 Q108.029 1121.86 106.2 1118.31 Q104.395 1114.75 100.76 1114.75 M100.76 1111.05 Q106.571 1111.05 109.626 1115.65 Q112.705 1120.24 112.705 1128.99 Q112.705 1137.71 109.626 1142.32 Q106.571 1146.9 100.76 1146.9 Q94.9502 1146.9 91.8715 1142.32 Q88.816 1137.71 88.816 1128.99 Q88.816 1120.24 91.8715 1115.65 Q94.9502 1111.05 100.76 1111.05 Z" fill="#000000" fill-rule="nonzero" fill-opacity="1" /><path clip-path="url(#clip690)" d="M120.922 1140.35 L125.807 1140.35 L125.807 1146.23 L120.922 1146.23 L120.922 1140.35 Z" fill="#000000" fill-rule="nonzero" fill-opacity="1" /><path clip-path="url(#clip690)" d="M136.802 1142.3 L144.441 1142.3 L144.441 1115.93 L136.131 1117.6 L136.131 1113.34 L144.394 1111.67 L149.07 1111.67 L149.07 1142.3 L156.709 1142.3 L156.709 1146.23 L136.802 1146.23 L136.802 1142.3 Z" fill="#000000" fill-rule="nonzero" fill-opacity="1" /><path clip-path="url(#clip690)" d="M176.153 1114.75 Q172.542 1114.75 170.714 1118.31 Q168.908 1121.86 168.908 1128.99 Q168.908 1136.09 170.714 1139.66 Q172.542 1143.2 176.153 1143.2 Q179.788 1143.2 181.593 1139.66 Q183.422 1136.09 183.422 1128.99 Q183.422 1121.86 181.593 1118.31 Q179.788 1114.75 176.153 1114.75 M176.153 1111.05 Q181.964 1111.05 185.019 1115.65 Q188.098 1120.24 188.098 1128.99 Q188.098 1137.71 185.019 1142.32 Q181.964 1146.9 176.153 1146.9 Q170.343 1146.9 167.265 1142.32 Q164.209 1137.71 164.209 1128.99 Q164.209 1120.24 167.265 1115.65 Q170.343 1111.05 176.153 1111.05 Z" fill="#000000" fill-rule="nonzero" fill-opacity="1" /><path clip-path="url(#clip690)" d="M51.9875 862.585 L81.6633 862.585 L81.6633 866.52 L51.9875 866.52 L51.9875 862.585 Z" fill="#000000" fill-rule="nonzero" fill-opacity="1" /><path clip-path="url(#clip690)" d="M101.756 847.933 Q98.1447 847.933 96.316 851.497 Q94.5104 855.039 94.5104 862.169 Q94.5104 869.275 96.316 872.84 Q98.1447 876.381 101.756 876.381 Q105.39 876.381 107.196 872.84 Q109.024 869.275 109.024 862.169 Q109.024 855.039 107.196 851.497 Q105.39 847.933 101.756 847.933 M101.756 844.229 Q107.566 844.229 110.621 848.835 Q113.7 853.419 113.7 862.169 Q113.7 870.895 110.621 875.502 Q107.566 880.085 101.756 880.085 Q95.9456 880.085 92.8669 875.502 Q89.8114 870.895 89.8114 862.169 Q89.8114 853.419 92.8669 848.835 Q95.9456 844.229 101.756 844.229 Z" fill="#000000" fill-rule="nonzero" fill-opacity="1" /><path clip-path="url(#clip690)" d="M121.918 873.534 L126.802 873.534 L126.802 879.414 L121.918 879.414 L121.918 873.534 Z" fill="#000000" fill-rule="nonzero" fill-opacity="1" /><path clip-path="url(#clip690)" d="M146.987 847.933 Q143.376 847.933 141.547 851.497 Q139.742 855.039 139.742 862.169 Q139.742 869.275 141.547 872.84 Q143.376 876.381 146.987 876.381 Q150.621 876.381 152.427 872.84 Q154.255 869.275 154.255 862.169 Q154.255 855.039 152.427 851.497 Q150.621 847.933 146.987 847.933 M146.987 844.229 Q152.797 844.229 155.853 848.835 Q158.931 853.419 158.931 862.169 Q158.931 870.895 155.853 875.502 Q152.797 880.085 146.987 880.085 Q141.177 880.085 138.098 875.502 Q135.043 870.895 135.043 862.169 Q135.043 853.419 138.098 848.835 Q141.177 844.229 146.987 844.229 Z" fill="#000000" fill-rule="nonzero" fill-opacity="1" /><path clip-path="url(#clip690)" d="M167.195 844.854 L185.552 844.854 L185.552 848.789 L171.478 848.789 L171.478 857.261 Q172.496 856.914 173.515 856.752 Q174.533 856.567 175.552 856.567 Q181.339 856.567 184.718 859.738 Q188.098 862.909 188.098 868.326 Q188.098 873.905 184.626 877.006 Q181.153 880.085 174.834 880.085 Q172.658 880.085 170.39 879.715 Q168.144 879.344 165.737 878.604 L165.737 873.905 Q167.82 875.039 170.042 875.594 Q172.265 876.15 174.741 876.15 Q178.746 876.15 181.084 874.043 Q183.422 871.937 183.422 868.326 Q183.422 864.715 181.084 862.608 Q178.746 860.502 174.741 860.502 Q172.866 860.502 170.991 860.919 Q169.14 861.335 167.195 862.215 L167.195 844.854 Z" fill="#000000" fill-rule="nonzero" fill-opacity="1" /><path clip-path="url(#clip690)" d="M100.76 581.116 Q97.1493 581.116 95.3206 584.68 Q93.515 588.222 93.515 595.352 Q93.515 602.458 95.3206 606.023 Q97.1493 609.564 100.76 609.564 Q104.395 609.564 106.2 606.023 Q108.029 602.458 108.029 595.352 Q108.029 588.222 106.2 584.68 Q104.395 581.116 100.76 581.116 M100.76 577.412 Q106.571 577.412 109.626 582.018 Q112.705 586.602 112.705 595.352 Q112.705 604.078 109.626 608.685 Q106.571 613.268 100.76 613.268 Q94.9502 613.268 91.8715 608.685 Q88.816 604.078 88.816 595.352 Q88.816 586.602 91.8715 582.018 Q94.9502 577.412 100.76 577.412 Z" fill="#000000" fill-rule="nonzero" fill-opacity="1" /><path clip-path="url(#clip690)" d="M120.922 606.717 L125.807 606.717 L125.807 612.597 L120.922 612.597 L120.922 606.717 Z" fill="#000000" fill-rule="nonzero" fill-opacity="1" /><path clip-path="url(#clip690)" d="M145.992 581.116 Q142.381 581.116 140.552 584.68 Q138.746 588.222 138.746 595.352 Q138.746 602.458 140.552 606.023 Q142.381 609.564 145.992 609.564 Q149.626 609.564 151.431 606.023 Q153.26 602.458 153.26 595.352 Q153.26 588.222 151.431 584.68 Q149.626 581.116 145.992 581.116 M145.992 577.412 Q151.802 577.412 154.857 582.018 Q157.936 586.602 157.936 595.352 Q157.936 604.078 154.857 608.685 Q151.802 613.268 145.992 613.268 Q140.181 613.268 137.103 608.685 Q134.047 604.078 134.047 595.352 Q134.047 586.602 137.103 582.018 Q140.181 577.412 145.992 577.412 Z" fill="#000000" fill-rule="nonzero" fill-opacity="1" /><path clip-path="url(#clip690)" d="M176.153 581.116 Q172.542 581.116 170.714 584.68 Q168.908 588.222 168.908 595.352 Q168.908 602.458 170.714 606.023 Q172.542 609.564 176.153 609.564 Q179.788 609.564 181.593 606.023 Q183.422 602.458 183.422 595.352 Q183.422 588.222 181.593 584.68 Q179.788 581.116 176.153 581.116 M176.153 577.412 Q181.964 577.412 185.019 582.018 Q188.098 586.602 188.098 595.352 Q188.098 604.078 185.019 608.685 Q181.964 613.268 176.153 613.268 Q170.343 613.268 167.265 608.685 Q164.209 604.078 164.209 595.352 Q164.209 586.602 167.265 582.018 Q170.343 577.412 176.153 577.412 Z" fill="#000000" fill-rule="nonzero" fill-opacity="1" /><path clip-path="url(#clip690)" d="M101.756 314.299 Q98.1447 314.299 96.316 317.863 Q94.5104 321.405 94.5104 328.535 Q94.5104 335.641 96.316 339.206 Q98.1447 342.748 101.756 342.748 Q105.39 342.748 107.196 339.206 Q109.024 335.641 109.024 328.535 Q109.024 321.405 107.196 317.863 Q105.39 314.299 101.756 314.299 M101.756 310.595 Q107.566 310.595 110.621 315.201 Q113.7 319.785 113.7 328.535 Q113.7 337.261 110.621 341.868 Q107.566 346.451 101.756 346.451 Q95.9456 346.451 92.8669 341.868 Q89.8114 337.261 89.8114 328.535 Q89.8114 319.785 92.8669 315.201 Q95.9456 310.595 101.756 310.595 Z" fill="#000000" fill-rule="nonzero" fill-opacity="1" /><path clip-path="url(#clip690)" d="M121.918 339.9 L126.802 339.9 L126.802 345.78 L121.918 345.78 L121.918 339.9 Z" fill="#000000" fill-rule="nonzero" fill-opacity="1" /><path clip-path="url(#clip690)" d="M146.987 314.299 Q143.376 314.299 141.547 317.863 Q139.742 321.405 139.742 328.535 Q139.742 335.641 141.547 339.206 Q143.376 342.748 146.987 342.748 Q150.621 342.748 152.427 339.206 Q154.255 335.641 154.255 328.535 Q154.255 321.405 152.427 317.863 Q150.621 314.299 146.987 314.299 M146.987 310.595 Q152.797 310.595 155.853 315.201 Q158.931 319.785 158.931 328.535 Q158.931 337.261 155.853 341.868 Q152.797 346.451 146.987 346.451 Q141.177 346.451 138.098 341.868 Q135.043 337.261 135.043 328.535 Q135.043 319.785 138.098 315.201 Q141.177 310.595 146.987 310.595 Z" fill="#000000" fill-rule="nonzero" fill-opacity="1" /><path clip-path="url(#clip690)" d="M167.195 311.22 L185.552 311.22 L185.552 315.155 L171.478 315.155 L171.478 323.627 Q172.496 323.28 173.515 323.118 Q174.533 322.933 175.552 322.933 Q181.339 322.933 184.718 326.104 Q188.098 329.275 188.098 334.692 Q188.098 340.271 184.626 343.373 Q181.153 346.451 174.834 346.451 Q172.658 346.451 170.39 346.081 Q168.144 345.71 165.737 344.97 L165.737 340.271 Q167.82 341.405 170.042 341.96 Q172.265 342.516 174.741 342.516 Q178.746 342.516 181.084 340.41 Q183.422 338.303 183.422 334.692 Q183.422 331.081 181.084 328.974 Q178.746 326.868 174.741 326.868 Q172.866 326.868 170.991 327.285 Q169.14 327.701 167.195 328.581 L167.195 311.22 Z" fill="#000000" fill-rule="nonzero" fill-opacity="1" /><path clip-path="url(#clip690)" d="M100.76 47.4817 Q97.1493 47.4817 95.3206 51.0464 Q93.515 54.5881 93.515 61.7177 Q93.515 68.8241 95.3206 72.3889 Q97.1493 75.9306 100.76 75.9306 Q104.395 75.9306 106.2 72.3889 Q108.029 68.8241 108.029 61.7177 Q108.029 54.5881 106.2 51.0464 Q104.395 47.4817 100.76 47.4817 M100.76 43.778 Q106.571 43.778 109.626 48.3844 Q112.705 52.9677 112.705 61.7177 Q112.705 70.4445 109.626 75.0509 Q106.571 79.6343 100.76 79.6343 Q94.9502 79.6343 91.8715 75.0509 Q88.816 70.4445 88.816 61.7177 Q88.816 52.9677 91.8715 48.3844 Q94.9502 43.778 100.76 43.778 Z" fill="#000000" fill-rule="nonzero" fill-opacity="1" /><path clip-path="url(#clip690)" d="M120.922 73.0834 L125.807 73.0834 L125.807 78.963 L120.922 78.963 L120.922 73.0834 Z" fill="#000000" fill-rule="nonzero" fill-opacity="1" /><path clip-path="url(#clip690)" d="M136.802 75.0278 L144.441 75.0278 L144.441 48.6622 L136.131 50.3289 L136.131 46.0696 L144.394 44.403 L149.07 44.403 L149.07 75.0278 L156.709 75.0278 L156.709 78.963 L136.802 78.963 L136.802 75.0278 Z" fill="#000000" fill-rule="nonzero" fill-opacity="1" /><path clip-path="url(#clip690)" d="M176.153 47.4817 Q172.542 47.4817 170.714 51.0464 Q168.908 54.5881 168.908 61.7177 Q168.908 68.8241 170.714 72.3889 Q172.542 75.9306 176.153 75.9306 Q179.788 75.9306 181.593 72.3889 Q183.422 68.8241 183.422 61.7177 Q183.422 54.5881 181.593 51.0464 Q179.788 47.4817 176.153 47.4817 M176.153 43.778 Q181.964 43.778 185.019 48.3844 Q188.098 52.9677 188.098 61.7177 Q188.098 70.4445 185.019 75.0509 Q181.964 79.6343 176.153 79.6343 Q170.343 79.6343 167.265 75.0509 Q164.209 70.4445 164.209 61.7177 Q164.209 52.9677 167.265 48.3844 Q170.343 43.778 176.153 43.778 Z" fill="#000000" fill-rule="nonzero" fill-opacity="1" /><polyline clip-path="url(#clip692)" style="stroke:#009af9; stroke-linecap:round; stroke-linejoin:round; stroke-width:4; stroke-opacity:1; fill:none" points="284.343,595.317 291.037,594.744 297.731,593.952 304.425,592.698 311.118,592.173 317.812,591.934 324.506,591.688 331.2,592.029 337.894,592.65 344.588,593.211 351.282,592.904 357.976,592.291 364.67,591.374 371.364,589.906 378.057,588.464 384.751,586.909 391.445,585.352 398.139,583.627 404.833,581.344 411.527,578.724 418.221,575.797 424.915,572.742 431.609,570.075 438.302,567.155 444.996,563.788 451.69,560.742 458.384,558.211 465.078,555.948 471.772,552.929 478.466,549.597 485.16,546.233 491.854,542.648 498.547,539.59 505.241,535.778 511.935,531.523 518.629,527.082 525.323,523.334 532.017,520.221 538.711,516.567 545.405,512.37 552.099,507.835 558.793,503.728 565.486,499.783 572.18,496.464 578.874,493.085 585.568,490.495 592.262,489.75 598.956,488.535 605.65,487.19 612.344,487.124 619.038,487.618 625.731,488.019 632.425,488.276 639.119,488.712 645.813,488.672 652.507,488.426 659.201,487.161 665.895,485.085 672.589,482.514 679.283,480.021 685.977,477.942 692.67,475.336 699.364,472.481 706.058,469.606 712.752,466.593 719.446,463.981 726.14,462.417 732.834,461.015 739.528,459.593 746.222,457.901 752.915,455.665 759.609,453.497 766.303,450.218 772.997,446.404 779.691,441.822 786.385,437.464 793.079,432.681 799.773,428.718 806.467,424.218 813.16,419.878 819.854,415.874 826.548,412.412 833.242,409.219 839.936,406.687 846.63,403.44 853.324,399.399 860.018,395.676 866.712,392.74 873.406,389.577 880.099,387.54 886.793,385.153 893.487,382.722 900.181,380.511 906.875,377.404 913.569,374.346 920.263,371.75 926.957,368.121 933.651,364.01 940.344,359.794 947.038,355.156 953.732,350.84 960.426,347.333 967.12,344.198 973.814,341.356 980.508,337.982 987.202,334.389 993.896,330.343 1000.59,325.966 1007.28,320.874 1013.98,316.221 1020.67,312.462 1027.37,309.244 1034.06,306.445 1040.75,303.824 1047.45,301.656 1054.14,299.858 1060.83,298.203 1067.53,296.686 1074.22,295.185 1080.92,293.12 1087.61,289.866 1094.3,286.944 1101,283.708 1107.69,280.068 1114.39,277.472 1121.08,275.157 1127.77,271.991 1134.47,268.605 1141.16,266.117 1147.86,263.389 1154.55,260.934 1161.24,259.335 1167.94,257.396 1174.63,255.722 1181.32,253.458 1188.02,251.96 1194.71,250.483 1201.41,249.958 1208.1,250.216 1214.79,251.224 1221.49,251.627 1228.18,252.205 1234.88,252.914 1241.57,254.151 1248.26,256.332 1254.96,258.835 1261.65,260.941 1268.35,262.51 1275.04,263.825 1281.73,264.473 1288.43,264.855 1295.12,265.663 1301.81,266.946 1308.51,268.373 1315.2,270.57 1321.9,273.525 1328.59,277.431 1335.28,280.908 1341.98,284.181 1348.67,287.354 1355.37,290.996 1362.06,294.156 1368.75,296.483 1375.45,299.766 1382.14,301.812 1388.84,304.483 1395.53,306.96 1402.22,309.276 1408.92,311.654 1415.61,313.716 1422.3,316.372 1429,318.847 1435.69,321.128 1442.39,322.85 1449.08,324.387 1455.77,326.059 1462.47,328.493 1469.16,330.503 1475.86,331.869 1482.55,333.128 1489.24,334.837 1495.94,336.544 1502.63,338.164 1509.33,339.835 1516.02,340.622 1522.71,342.94 1529.41,346.149 1536.1,348.362 1542.79,350.834 1549.49,353.351 1556.18,356.068 1562.88,357.823 1569.57,358.424 1576.26,359.716 1582.96,360.897 1589.65,361.35 1596.35,361.735 1603.04,363.389 1609.73,365.042 1616.43,366.591 1623.12,367.922 1629.82,369.349 1636.51,371.634 1643.2,374.42 1649.9,376.405 1656.59,379.374 1663.28,382.213 1669.98,384.33 1676.67,386.593 1683.37,389.271 1690.06,392.093 1696.75,394.999 1703.45,397.337 1710.14,399.628 1716.84,402.332 1723.53,404.629 1730.22,406.824 1736.92,409.665 1743.61,413.024 1750.31,416.605 1757,419.937 1763.69,424.054 1770.39,428.589 1777.08,432.405 1783.77,435.861 1790.47,439.892 1797.16,444.618 1803.86,448.306 1810.55,452.124 1817.24,454.881 1823.94,458.056 1830.63,460.965 1837.33,463.878 1844.02,467.687 1850.71,471.101 1857.41,474.238 1864.1,478.855 1870.8,483.332 1877.49,487.948 1884.18,492.912 1890.88,498.078 1897.57,503.196 1904.27,508.687 1910.96,514.162 1917.65,519.588 1924.35,524.649 1931.04,530.109 1937.73,536.075 1944.43,542.095 1951.12,548.034 1957.82,554.01 1964.51,559.637 1971.2,564.929 1977.9,570.28 1984.59,575.931 1991.29,581.901 1997.98,588.098 2004.67,594.505 2011.37,601.968 2018.06,608.64 2024.76,615.548 2031.45,623.228 2038.14,629.859 2044.84,637.139 2051.53,644.235 2058.22,651.03 2064.92,658.338 2071.61,666.227 2078.31,673.687 2085,680.56 2091.69,686.95 2098.39,694.204 2105.08,701.031 2111.78,708.095 2118.47,714.947 2125.16,721.82 2131.86,728.772 2138.55,735.627 2145.25,742.258 2151.94,748.426 2158.63,753.824 2165.33,758.706 2172.02,763.988 2178.71,770.042 2185.41,775.744 2192.1,780.707 2198.8,785.739 2205.49,789.814 2212.18,794.334 2218.88,798.748 2225.57,803.122 2232.27,807.379 2238.96,811.92 2245.65,816.038 2252.35,820.189 2259.04,824.989 2265.74,830.53 2272.43,836.38 2279.12,841.906 2285.82,847.56 2292.51,853.616 "/>
<polyline clip-path="url(#clip692)" style="stroke:#e26f46; stroke-linecap:round; stroke-linejoin:round; stroke-width:4; stroke-opacity:1; fill:none" points="284.343,538.032 291.037,516.08 297.731,469.915 304.425,542.841 311.118,571.447 317.812,570.712 324.506,629.425 331.2,657.424 337.894,651.354 344.588,564.667 351.282,534.009 357.976,503.641 364.67,448.471 371.364,451.102 378.057,439.803 384.751,439.655 391.445,422.843 398.139,366.959 404.833,333.333 411.527,302.661 418.221,289.78 424.915,328.635 431.609,303.305 438.302,258.656 444.996,290.656 451.69,342.227 458.384,369.062 465.078,293.406 471.772,262.08 478.466,258.963 485.16,236.787 491.854,289.552 498.547,214.106 505.241,169.78 511.935,151.252 518.629,220.499 525.323,284.048 532.017,229.91 538.711,175.625 545.405,141.784 552.099,184.635 558.793,200.801 565.486,263.424 572.18,257.407 578.874,336.305 585.568,520.795 592.262,473.86 598.956,460.765 605.65,588.791 612.344,644.683 619.038,635.417 625.731,621.005 632.425,638.939 639.119,591.277 645.813,570.713 652.507,468.891 659.201,387.722 665.895,338.19 672.589,345.983 679.283,387.454 685.977,334.691 692.67,309.792 699.364,307.823 706.058,294.074 712.752,334.115 719.446,438.883 726.14,455.161 732.834,453.033 739.528,426.172 746.222,371.689 752.915,378.575 759.609,267.379 766.303,213.954 772.997,137.082 779.691,159.541 786.385,116.941 793.079,199.019 799.773,145.349 806.467,161.358 813.16,194.871 819.854,249.132 826.548,275.996 833.242,342.155 839.936,270.559 846.63,191.218 853.324,223.057 860.018,301.691 866.712,279.004 873.406,391.611 880.099,356.637 886.793,352.253 893.487,374.234 900.181,284.619 906.875,289.46 913.569,335.696 920.263,232.46 926.957,184.234 933.651,173.66 940.344,131.543 947.038,163.73 953.732,244.643 960.426,281.77 967.12,311.139 973.814,257.953 980.508,235.941 987.202,190.775 993.896,157.571 1000.59,86.1857 1007.28,130.008 1013.98,219.405 1020.67,273.52 1027.37,315.385 1034.06,333.221 1040.75,378.509 1047.45,415.522 1054.14,429.827 1060.83,443.66 1067.53,445.136 1074.22,388.879 1080.92,269.854 1087.61,303.119 1094.3,271.755 1101,231.286 1107.69,335.701 1114.39,363.86 1121.08,278.748 1127.77,256.638 1134.47,346.614 1141.16,322.456 1147.86,349.855 1154.55,435.423 1161.24,401.399 1167.94,427.91 1174.63,368.891 1181.32,445.551 1188.02,447.556 1194.71,542.89 1201.41,621.118 1208.1,696.055 1214.79,635.616 1221.49,653.172 1228.18,666.176 1234.88,719.051 1241.57,813.446 1248.26,845.575 1254.96,805.887 1261.65,752.21 1268.35,726.834 1275.04,660.179 1281.73,633.431 1288.43,676.18 1295.12,723.55 1301.81,738.099 1308.51,814.942 1315.2,890.814 1321.9,986.003 1328.59,942.954 1335.28,922.604 1341.98,912.681 1348.67,959.496 1355.37,911.3 1362.06,828.069 1368.75,923.555 1375.45,799.957 1382.14,862.398 1388.84,843.023 1395.53,826.868 1402.22,833.159 1408.92,801.507 1415.61,860.947 1422.3,842.839 1429,823.396 1435.69,767.52 1442.39,748.965 1449.08,762.553 1455.77,838.677 1462.47,796.335 1469.16,731.966 1475.86,721.178 1482.55,766.194 1489.24,766.037 1495.94,757.305 1502.63,762.407 1509.33,674.011 1516.02,827.134 1522.71,916.203 1529.41,816.608 1536.1,842.554 1542.79,847.005 1549.49,867.043 1556.18,770.828 1562.88,655.369 1569.57,724.577 1576.26,713.339 1582.96,640.673 1589.65,633.763 1596.35,760.716 1603.04,760.665 1609.73,750.188 1616.43,728.429 1623.12,738.043 1629.82,823.811 1636.51,873.95 1643.2,793.745 1649.9,892.24 1656.59,879.255 1663.28,807.005 1669.98,821.557 1676.67,863.151 1683.37,877.525 1690.06,885.88 1696.75,829.103 1703.45,824.41 1710.14,865.732 1716.84,825.073 1723.53,814.834 1730.22,879.391 1736.92,931.171 1743.61,953.443 1750.31,928.506 1757,1007.04 1763.69,1048.79 1770.39,976.921 1777.08,940.913 1783.77,998.439 1790.47,1067.95 1797.16,964.051 1803.86,977.145 1810.55,871.07 1817.24,912.774 1823.94,886.265 1830.63,886.595 1837.33,976.225 1844.02,936.658 1850.71,909.09 1857.41,1057.01 1864.1,1042.99 1870.8,1056.87 1877.49,1091.75 1884.18,1111.88 1890.88,1107.17 1897.57,1144.44 1904.27,1142.8 1910.96,1137.88 1917.65,1101.41 1924.35,1141.35 1931.04,1191.94 1937.73,1197.29 1944.43,1189.18 1951.12,1192.97 1957.82,1157.95 1964.51,1124.59 1971.2,1130.42 1977.9,1160.39 1984.59,1192.28 1991.29,1215.1 1997.98,1235.93 2004.67,1341.64 2011.37,1262.53 2018.06,1286.15 2024.76,1363.28 2031.45,1258.47 2038.14,1323.27 2044.84,1304.9 2051.53,1274.86 2058.22,1326.09 2064.92,1384.24 2071.61,1341.3 2078.31,1282.6 2085,1234.38 2091.69,1320.65 2098.39,1278.02 2105.08,1301.73 2111.78,1280.5 2118.47,1282.63 2125.16,1290.5 2131.86,1280.82 2138.55,1258.41 2145.25,1212.15 2151.94,1135.13 2158.63,1083.49 2165.33,1123.57 2172.02,1200.62 2178.71,1165.56 2185.41,1091.57 2192.1,1098.57 2198.8,1002.83 2205.49,1047.24 2212.18,1036.74 2218.88,1032.71 2225.57,1021.07 2232.27,1049.44 2238.96,1007.09 2245.65,1010.36 2252.35,1075.38 2259.04,1149.39 2265.74,1180.34 2272.43,1147.89 2279.12,1160.78 2285.82,1200.82 2292.51,1141.03 "/>
<path clip-path="url(#clip690)" d="M1843.36 248.629 L2281.8 248.629 L2281.8 93.1086 L1843.36 93.1086  Z" fill="#ffffff" fill-rule="evenodd" fill-opacity="1"/>
<polyline clip-path="url(#clip690)" style="stroke:#000000; stroke-linecap:round; stroke-linejoin:round; stroke-width:4; stroke-opacity:1; fill:none" points="1843.36,248.629 2281.8,248.629 2281.8,93.1086 1843.36,93.1086 1843.36,248.629 "/>
<polyline clip-path="url(#clip690)" style="stroke:#009af9; stroke-linecap:round; stroke-linejoin:round; stroke-width:4; stroke-opacity:1; fill:none" points="1867.01,144.949 2008.92,144.949 "/>
<path clip-path="url(#clip690)" d="M2046.41 164.636 Q2044.61 169.266 2042.9 170.678 Q2041.18 172.09 2038.31 172.09 L2034.91 172.09 L2034.91 168.525 L2037.41 168.525 Q2039.17 168.525 2040.14 167.692 Q2041.11 166.858 2042.29 163.756 L2043.06 161.812 L2032.57 136.303 L2037.09 136.303 L2045.19 156.581 L2053.29 136.303 L2057.8 136.303 L2046.41 164.636 Z" fill="#000000" fill-rule="nonzero" fill-opacity="1" /><path clip-path="url(#clip690)" d="M2082.87 158.34 L2082.87 172.09 L2078.59 172.09 L2078.59 136.303 L2082.87 136.303 L2082.87 140.238 Q2084.21 137.923 2086.25 136.812 Q2088.31 135.678 2091.16 135.678 Q2095.88 135.678 2098.82 139.428 Q2101.78 143.178 2101.78 149.289 Q2101.78 155.4 2098.82 159.15 Q2095.88 162.9 2091.16 162.9 Q2088.31 162.9 2086.25 161.789 Q2084.21 160.655 2082.87 158.34 M2097.36 149.289 Q2097.36 144.59 2095.42 141.928 Q2093.5 139.243 2090.12 139.243 Q2086.74 139.243 2084.79 141.928 Q2082.87 144.59 2082.87 149.289 Q2082.87 153.988 2084.79 156.673 Q2086.74 159.335 2090.12 159.335 Q2093.5 159.335 2095.42 156.673 Q2097.36 153.988 2097.36 149.289 Z" fill="#000000" fill-rule="nonzero" fill-opacity="1" /><path clip-path="url(#clip690)" d="M2118.89 139.289 Q2115.46 139.289 2113.47 141.974 Q2111.48 144.636 2111.48 149.289 Q2111.48 153.942 2113.45 156.627 Q2115.44 159.289 2118.89 159.289 Q2122.29 159.289 2124.28 156.604 Q2126.27 153.918 2126.27 149.289 Q2126.27 144.682 2124.28 141.997 Q2122.29 139.289 2118.89 139.289 M2118.89 135.678 Q2124.45 135.678 2127.62 139.289 Q2130.79 142.9 2130.79 149.289 Q2130.79 155.655 2127.62 159.289 Q2124.45 162.9 2118.89 162.9 Q2113.31 162.9 2110.14 159.289 Q2106.99 155.655 2106.99 149.289 Q2106.99 142.9 2110.14 139.289 Q2113.31 135.678 2118.89 135.678 Z" fill="#000000" fill-rule="nonzero" fill-opacity="1" /><path clip-path="url(#clip690)" d="M2154.38 137.067 L2154.38 141.094 Q2152.57 140.169 2150.63 139.706 Q2148.68 139.243 2146.6 139.243 Q2143.43 139.243 2141.83 140.215 Q2140.26 141.187 2140.26 143.131 Q2140.26 144.613 2141.39 145.469 Q2142.52 146.303 2145.95 147.067 L2147.41 147.391 Q2151.95 148.363 2153.84 150.145 Q2155.77 151.905 2155.77 155.076 Q2155.77 158.687 2152.89 160.793 Q2150.05 162.9 2145.05 162.9 Q2142.96 162.9 2140.7 162.483 Q2138.45 162.09 2135.95 161.28 L2135.95 156.881 Q2138.31 158.108 2140.6 158.733 Q2142.89 159.335 2145.14 159.335 Q2148.15 159.335 2149.77 158.317 Q2151.39 157.275 2151.39 155.4 Q2151.39 153.664 2150.21 152.738 Q2149.05 151.812 2145.09 150.956 L2143.61 150.608 Q2139.65 149.775 2137.89 148.062 Q2136.14 146.326 2136.14 143.317 Q2136.14 139.659 2138.73 137.669 Q2141.32 135.678 2146.09 135.678 Q2148.45 135.678 2150.53 136.025 Q2152.62 136.372 2154.38 137.067 Z" fill="#000000" fill-rule="nonzero" fill-opacity="1" /><path clip-path="url(#clip690)" d="M2162.55 136.303 L2166.81 136.303 L2166.81 162.229 L2162.55 162.229 L2162.55 136.303 M2162.55 126.21 L2166.81 126.21 L2166.81 131.604 L2162.55 131.604 L2162.55 126.21 Z" fill="#000000" fill-rule="nonzero" fill-opacity="1" /><path clip-path="url(#clip690)" d="M2179.93 128.942 L2179.93 136.303 L2188.7 136.303 L2188.7 139.613 L2179.93 139.613 L2179.93 153.687 Q2179.93 156.858 2180.79 157.761 Q2181.67 158.664 2184.33 158.664 L2188.7 158.664 L2188.7 162.229 L2184.33 162.229 Q2179.4 162.229 2177.52 160.4 Q2175.65 158.548 2175.65 153.687 L2175.65 139.613 L2172.52 139.613 L2172.52 136.303 L2175.65 136.303 L2175.65 128.942 L2179.93 128.942 Z" fill="#000000" fill-rule="nonzero" fill-opacity="1" /><path clip-path="url(#clip690)" d="M2194.31 136.303 L2198.57 136.303 L2198.57 162.229 L2194.31 162.229 L2194.31 136.303 M2194.31 126.21 L2198.57 126.21 L2198.57 131.604 L2194.31 131.604 L2194.31 126.21 Z" fill="#000000" fill-rule="nonzero" fill-opacity="1" /><path clip-path="url(#clip690)" d="M2217.52 139.289 Q2214.1 139.289 2212.11 141.974 Q2210.12 144.636 2210.12 149.289 Q2210.12 153.942 2212.08 156.627 Q2214.08 159.289 2217.52 159.289 Q2220.93 159.289 2222.92 156.604 Q2224.91 153.918 2224.91 149.289 Q2224.91 144.682 2222.92 141.997 Q2220.93 139.289 2217.52 139.289 M2217.52 135.678 Q2223.08 135.678 2226.25 139.289 Q2229.42 142.9 2229.42 149.289 Q2229.42 155.655 2226.25 159.289 Q2223.08 162.9 2217.52 162.9 Q2211.95 162.9 2208.77 159.289 Q2205.63 155.655 2205.63 149.289 Q2205.63 142.9 2208.77 139.289 Q2211.95 135.678 2217.52 135.678 Z" fill="#000000" fill-rule="nonzero" fill-opacity="1" /><path clip-path="url(#clip690)" d="M2258.03 146.581 L2258.03 162.229 L2253.77 162.229 L2253.77 146.719 Q2253.77 143.039 2252.34 141.21 Q2250.9 139.382 2248.03 139.382 Q2244.58 139.382 2242.59 141.581 Q2240.6 143.78 2240.6 147.576 L2240.6 162.229 L2236.32 162.229 L2236.32 136.303 L2240.6 136.303 L2240.6 140.331 Q2242.13 137.993 2244.19 136.835 Q2246.27 135.678 2248.98 135.678 Q2253.45 135.678 2255.74 138.456 Q2258.03 141.21 2258.03 146.581 Z" fill="#000000" fill-rule="nonzero" fill-opacity="1" /><polyline clip-path="url(#clip690)" style="stroke:#e26f46; stroke-linecap:round; stroke-linejoin:round; stroke-width:4; stroke-opacity:1; fill:none" points="1867.01,196.789 2008.92,196.789 "/>
<path clip-path="url(#clip690)" d="M2046.41 216.476 Q2044.61 221.106 2042.9 222.518 Q2041.18 223.93 2038.31 223.93 L2034.91 223.93 L2034.91 220.365 L2037.41 220.365 Q2039.17 220.365 2040.14 219.532 Q2041.11 218.698 2042.29 215.596 L2043.06 213.652 L2032.57 188.143 L2037.09 188.143 L2045.19 208.421 L2053.29 188.143 L2057.8 188.143 L2046.41 216.476 Z" fill="#000000" fill-rule="nonzero" fill-opacity="1" /><path clip-path="url(#clip690)" d="M2075.7 188.143 L2080.21 188.143 L2088.31 209.902 L2096.41 188.143 L2100.93 188.143 L2091.21 214.069 L2085.42 214.069 L2075.7 188.143 Z" fill="#000000" fill-rule="nonzero" fill-opacity="1" /><path clip-path="url(#clip690)" d="M2128.98 200.041 L2128.98 202.124 L2109.4 202.124 Q2109.68 206.522 2112.04 208.837 Q2114.42 211.129 2118.66 211.129 Q2121.11 211.129 2123.4 210.527 Q2125.72 209.925 2127.99 208.721 L2127.99 212.749 Q2125.7 213.721 2123.29 214.231 Q2120.88 214.74 2118.4 214.74 Q2112.2 214.74 2108.57 211.129 Q2104.96 207.518 2104.96 201.36 Q2104.96 194.995 2108.38 191.268 Q2111.83 187.518 2117.66 187.518 Q2122.89 187.518 2125.93 190.897 Q2128.98 194.254 2128.98 200.041 M2124.72 198.791 Q2124.68 195.296 2122.76 193.212 Q2120.86 191.129 2117.71 191.129 Q2114.15 191.129 2111.99 193.143 Q2109.86 195.157 2109.54 198.814 L2124.72 198.791 Z" fill="#000000" fill-rule="nonzero" fill-opacity="1" /><path clip-path="url(#clip690)" d="M2135.97 178.05 L2140.23 178.05 L2140.23 214.069 L2135.97 214.069 L2135.97 178.05 Z" fill="#000000" fill-rule="nonzero" fill-opacity="1" /><path clip-path="url(#clip690)" d="M2159.19 191.129 Q2155.77 191.129 2153.77 193.814 Q2151.78 196.476 2151.78 201.129 Q2151.78 205.782 2153.75 208.467 Q2155.74 211.129 2159.19 211.129 Q2162.59 211.129 2164.58 208.444 Q2166.58 205.758 2166.58 201.129 Q2166.58 196.522 2164.58 193.837 Q2162.59 191.129 2159.19 191.129 M2159.19 187.518 Q2164.75 187.518 2167.92 191.129 Q2171.09 194.74 2171.09 201.129 Q2171.09 207.495 2167.92 211.129 Q2164.75 214.74 2159.19 214.74 Q2153.61 214.74 2150.44 211.129 Q2147.29 207.495 2147.29 201.129 Q2147.29 194.74 2150.44 191.129 Q2153.61 187.518 2159.19 187.518 Z" fill="#000000" fill-rule="nonzero" fill-opacity="1" /><path clip-path="url(#clip690)" d="M2196.81 189.138 L2196.81 193.12 Q2195 192.124 2193.17 191.638 Q2191.37 191.129 2189.51 191.129 Q2185.37 191.129 2183.08 193.768 Q2180.79 196.384 2180.79 201.129 Q2180.79 205.874 2183.08 208.513 Q2185.37 211.129 2189.51 211.129 Q2191.37 211.129 2193.17 210.643 Q2195 210.133 2196.81 209.138 L2196.81 213.073 Q2195.02 213.907 2193.1 214.323 Q2191.2 214.74 2189.05 214.74 Q2183.2 214.74 2179.75 211.059 Q2176.3 207.379 2176.3 201.129 Q2176.3 194.786 2179.77 191.152 Q2183.27 187.518 2189.33 187.518 Q2191.3 187.518 2193.17 187.935 Q2195.05 188.328 2196.81 189.138 Z" fill="#000000" fill-rule="nonzero" fill-opacity="1" /><path clip-path="url(#clip690)" d="M2204.21 188.143 L2208.47 188.143 L2208.47 214.069 L2204.21 214.069 L2204.21 188.143 M2204.21 178.05 L2208.47 178.05 L2208.47 183.444 L2204.21 183.444 L2204.21 178.05 Z" fill="#000000" fill-rule="nonzero" fill-opacity="1" /><path clip-path="url(#clip690)" d="M2221.6 180.782 L2221.6 188.143 L2230.37 188.143 L2230.37 191.453 L2221.6 191.453 L2221.6 205.527 Q2221.6 208.698 2222.45 209.601 Q2223.33 210.504 2226 210.504 L2230.37 210.504 L2230.37 214.069 L2226 214.069 Q2221.07 214.069 2219.19 212.24 Q2217.32 210.388 2217.32 205.527 L2217.32 191.453 L2214.19 191.453 L2214.19 188.143 L2217.32 188.143 L2217.32 180.782 L2221.6 180.782 Z" fill="#000000" fill-rule="nonzero" fill-opacity="1" /><path clip-path="url(#clip690)" d="M2246.76 216.476 Q2244.95 221.106 2243.24 222.518 Q2241.53 223.93 2238.66 223.93 L2235.26 223.93 L2235.26 220.365 L2237.76 220.365 Q2239.51 220.365 2240.49 219.532 Q2241.46 218.698 2242.64 215.596 L2243.4 213.652 L2232.92 188.143 L2237.43 188.143 L2245.53 208.421 L2253.64 188.143 L2258.15 188.143 L2246.76 216.476 Z" fill="#000000" fill-rule="nonzero" fill-opacity="1" /></svg>
