<?xml version="1.0" encoding="utf-8"?>
<svg xmlns="http://www.w3.org/2000/svg" xmlns:xlink="http://www.w3.org/1999/xlink" width="600" height="400" viewBox="0 0 2400 1600">
<defs>
  <clipPath id="clip680">
    <rect x="0" y="0" width="2400" height="1600"/>
  </clipPath>
</defs>
<path clip-path="url(#clip680)" d="M0 1600 L2400 1600 L2400 0 L0 0  Z" fill="#ffffff" fill-rule="evenodd" fill-opacity="1"/>
<defs>
  <clipPath id="clip681">
    <rect x="480" y="0" width="1681" height="1600"/>
  </clipPath>
</defs>
<path clip-path="url(#clip680)" d="M224.098 1423.18 L2352.76 1423.18 L2352.76 47.2441 L224.098 47.2441  Z" fill="#ffffff" fill-rule="evenodd" fill-opacity="1"/>
<defs>
  <clipPath id="clip682">
    <rect x="224" y="47" width="2130" height="1377"/>
  </clipPath>
</defs>
<polyline clip-path="url(#clip682)" style="stroke:#000000; stroke-linecap:round; stroke-linejoin:round; stroke-width:2; stroke-opacity:0.1; fill:none" points="284.343,1423.18 284.343,47.2441 "/>
<polyline clip-path="url(#clip682)" style="stroke:#000000; stroke-linecap:round; stroke-linejoin:round; stroke-width:2; stroke-opacity:0.1; fill:none" points="953.732,1423.18 953.732,47.2441 "/>
<polyline clip-path="url(#clip682)" style="stroke:#000000; stroke-linecap:round; stroke-linejoin:round; stroke-width:2; stroke-opacity:0.1; fill:none" points="1623.12,1423.18 1623.12,47.2441 "/>
<polyline clip-path="url(#clip682)" style="stroke:#000000; stroke-linecap:round; stroke-linejoin:round; stroke-width:2; stroke-opacity:0.1; fill:none" points="2292.51,1423.18 2292.51,47.2441 "/>
<polyline clip-path="url(#clip680)" style="stroke:#000000; stroke-linecap:round; stroke-linejoin:round; stroke-width:4; stroke-opacity:1; fill:none" points="224.098,1423.18 2352.76,1423.18 "/>
<polyline clip-path="url(#clip680)" style="stroke:#000000; stroke-linecap:round; stroke-linejoin:round; stroke-width:4; stroke-opacity:1; fill:none" points="284.343,1423.18 284.343,1404.28 "/>
<polyline clip-path="url(#clip680)" style="stroke:#000000; stroke-linecap:round; stroke-linejoin:round; stroke-width:4; stroke-opacity:1; fill:none" points="953.732,1423.18 953.732,1404.28 "/>
<polyline clip-path="url(#clip680)" style="stroke:#000000; stroke-linecap:round; stroke-linejoin:round; stroke-width:4; stroke-opacity:1; fill:none" points="1623.12,1423.18 1623.12,1404.28 "/>
<polyline clip-path="url(#clip680)" style="stroke:#000000; stroke-linecap:round; stroke-linejoin:round; stroke-width:4; stroke-opacity:1; fill:none" points="2292.51,1423.18 2292.51,1404.28 "/>
<path clip-path="url(#clip680)" d="M284.343 1454.1 Q280.732 1454.1 278.903 1457.66 Q277.098 1461.2 277.098 1468.33 Q277.098 1475.44 278.903 1479.01 Q280.732 1482.55 284.343 1482.55 Q287.977 1482.55 289.783 1479.01 Q291.611 1475.44 291.611 1468.33 Q291.611 1461.2 289.783 1457.66 Q287.977 1454.1 284.343 1454.1 M284.343 1450.39 Q290.153 1450.39 293.209 1455 Q296.287 1459.58 296.287 1468.33 Q296.287 1477.06 293.209 1481.67 Q290.153 1486.25 284.343 1486.25 Q278.533 1486.25 275.454 1481.67 Q272.399 1477.06 272.399 1468.33 Q272.399 1459.58 275.454 1455 Q278.533 1450.39 284.343 1450.39 Z" fill="#000000" fill-rule="nonzero" fill-opacity="1" /><path clip-path="url(#clip680)" d="M944.114 1481.64 L951.753 1481.64 L951.753 1455.28 L943.443 1456.95 L943.443 1452.69 L951.707 1451.02 L956.383 1451.02 L956.383 1481.64 L964.022 1481.64 L964.022 1485.58 L944.114 1485.58 L944.114 1481.64 Z" fill="#000000" fill-rule="nonzero" fill-opacity="1" /><path clip-path="url(#clip680)" d="M1617.77 1481.64 L1634.09 1481.64 L1634.09 1485.58 L1612.15 1485.58 L1612.15 1481.64 Q1614.81 1478.89 1619.39 1474.26 Q1624 1469.61 1625.18 1468.27 Q1627.43 1465.74 1628.31 1464.01 Q1629.21 1462.25 1629.21 1460.56 Q1629.21 1457.8 1627.27 1456.07 Q1625.34 1454.33 1622.24 1454.33 Q1620.04 1454.33 1617.59 1455.09 Q1615.16 1455.86 1612.38 1457.41 L1612.38 1452.69 Q1615.2 1451.55 1617.66 1450.97 Q1620.11 1450.39 1622.15 1450.39 Q1627.52 1450.39 1630.71 1453.08 Q1633.91 1455.77 1633.91 1460.26 Q1633.91 1462.39 1633.1 1464.31 Q1632.31 1466.2 1630.2 1468.8 Q1629.63 1469.47 1626.52 1472.69 Q1623.42 1475.88 1617.77 1481.64 Z" fill="#000000" fill-rule="nonzero" fill-opacity="1" /><path clip-path="url(#clip680)" d="M2296.76 1466.95 Q2300.11 1467.66 2301.99 1469.93 Q2303.89 1472.2 2303.89 1475.53 Q2303.89 1480.65 2300.37 1483.45 Q2296.85 1486.25 2290.37 1486.25 Q2288.19 1486.25 2285.88 1485.81 Q2283.59 1485.39 2281.13 1484.54 L2281.13 1480.02 Q2283.08 1481.16 2285.39 1481.74 Q2287.71 1482.32 2290.23 1482.32 Q2294.63 1482.32 2296.92 1480.58 Q2299.24 1478.84 2299.24 1475.53 Q2299.24 1472.48 2297.08 1470.77 Q2294.95 1469.03 2291.13 1469.03 L2287.11 1469.03 L2287.11 1465.19 L2291.32 1465.19 Q2294.77 1465.19 2296.6 1463.82 Q2298.43 1462.43 2298.43 1459.84 Q2298.43 1457.18 2296.53 1455.77 Q2294.65 1454.33 2291.13 1454.33 Q2289.21 1454.33 2287.01 1454.75 Q2284.81 1455.16 2282.18 1456.04 L2282.18 1451.88 Q2284.84 1451.14 2287.15 1450.77 Q2289.49 1450.39 2291.55 1450.39 Q2296.87 1450.39 2299.98 1452.83 Q2303.08 1455.23 2303.08 1459.35 Q2303.08 1462.22 2301.43 1464.21 Q2299.79 1466.18 2296.76 1466.95 Z" fill="#000000" fill-rule="nonzero" fill-opacity="1" /><path clip-path="url(#clip680)" d="M1287.49 1522.27 L1287.49 1532.4 L1299.55 1532.4 L1299.55 1536.95 L1287.49 1536.95 L1287.49 1556.3 Q1287.49 1560.66 1288.67 1561.9 Q1289.88 1563.14 1293.54 1563.14 L1299.55 1563.14 L1299.55 1568.04 L1293.54 1568.04 Q1286.76 1568.04 1284.18 1565.53 Q1281.6 1562.98 1281.6 1556.3 L1281.6 1536.95 L1277.3 1536.95 L1277.3 1532.4 L1281.6 1532.4 L1281.6 1522.27 L1287.49 1522.27 Z" fill="#000000" fill-rule="nonzero" fill-opacity="1" /><polyline clip-path="url(#clip682)" style="stroke:#000000; stroke-linecap:round; stroke-linejoin:round; stroke-width:2; stroke-opacity:0.1; fill:none" points="224.098,1267.07 2352.76,1267.07 "/>
<polyline clip-path="url(#clip682)" style="stroke:#000000; stroke-linecap:round; stroke-linejoin:round; stroke-width:2; stroke-opacity:0.1; fill:none" points="224.098,1086.34 2352.76,1086.34 "/>
<polyline clip-path="url(#clip682)" style="stroke:#000000; stroke-linecap:round; stroke-linejoin:round; stroke-width:2; stroke-opacity:0.1; fill:none" points="224.098,905.611 2352.76,905.611 "/>
<polyline clip-path="url(#clip682)" style="stroke:#000000; stroke-linecap:round; stroke-linejoin:round; stroke-width:2; stroke-opacity:0.1; fill:none" points="224.098,724.882 2352.76,724.882 "/>
<polyline clip-path="url(#clip682)" style="stroke:#000000; stroke-linecap:round; stroke-linejoin:round; stroke-width:2; stroke-opacity:0.1; fill:none" points="224.098,544.152 2352.76,544.152 "/>
<polyline clip-path="url(#clip682)" style="stroke:#000000; stroke-linecap:round; stroke-linejoin:round; stroke-width:2; stroke-opacity:0.1; fill:none" points="224.098,363.422 2352.76,363.422 "/>
<polyline clip-path="url(#clip682)" style="stroke:#000000; stroke-linecap:round; stroke-linejoin:round; stroke-width:2; stroke-opacity:0.1; fill:none" points="224.098,182.693 2352.76,182.693 "/>
<polyline clip-path="url(#clip680)" style="stroke:#000000; stroke-linecap:round; stroke-linejoin:round; stroke-width:4; stroke-opacity:1; fill:none" points="224.098,1423.18 224.098,47.2441 "/>
<polyline clip-path="url(#clip680)" style="stroke:#000000; stroke-linecap:round; stroke-linejoin:round; stroke-width:4; stroke-opacity:1; fill:none" points="224.098,1267.07 242.996,1267.07 "/>
<polyline clip-path="url(#clip680)" style="stroke:#000000; stroke-linecap:round; stroke-linejoin:round; stroke-width:4; stroke-opacity:1; fill:none" points="224.098,1086.34 242.996,1086.34 "/>
<polyline clip-path="url(#clip680)" style="stroke:#000000; stroke-linecap:round; stroke-linejoin:round; stroke-width:4; stroke-opacity:1; fill:none" points="224.098,905.611 242.996,905.611 "/>
<polyline clip-path="url(#clip680)" style="stroke:#000000; stroke-linecap:round; stroke-linejoin:round; stroke-width:4; stroke-opacity:1; fill:none" points="224.098,724.882 242.996,724.882 "/>
<polyline clip-path="url(#clip680)" style="stroke:#000000; stroke-linecap:round; stroke-linejoin:round; stroke-width:4; stroke-opacity:1; fill:none" points="224.098,544.152 242.996,544.152 "/>
<polyline clip-path="url(#clip680)" style="stroke:#000000; stroke-linecap:round; stroke-linejoin:round; stroke-width:4; stroke-opacity:1; fill:none" points="224.098,363.422 242.996,363.422 "/>
<polyline clip-path="url(#clip680)" style="stroke:#000000; stroke-linecap:round; stroke-linejoin:round; stroke-width:4; stroke-opacity:1; fill:none" points="224.098,182.693 242.996,182.693 "/>
<path clip-path="url(#clip680)" d="M51.9875 1267.52 L81.6633 1267.52 L81.6633 1271.46 L51.9875 1271.46 L51.9875 1267.52 Z" fill="#000000" fill-rule="nonzero" fill-opacity="1" /><path clip-path="url(#clip680)" d="M101.756 1252.87 Q98.1447 1252.87 96.316 1256.43 Q94.5104 1259.98 94.5104 1267.11 Q94.5104 1274.21 96.316 1277.78 Q98.1447 1281.32 101.756 1281.32 Q105.39 1281.32 107.196 1277.78 Q109.024 1274.21 109.024 1267.11 Q109.024 1259.98 107.196 1256.43 Q105.39 1252.87 101.756 1252.87 M101.756 1249.17 Q107.566 1249.17 110.621 1253.77 Q113.7 1258.36 113.7 1267.11 Q113.7 1275.83 110.621 1280.44 Q107.566 1285.02 101.756 1285.02 Q95.9456 1285.02 92.8669 1280.44 Q89.8114 1275.83 89.8114 1267.11 Q89.8114 1258.36 92.8669 1253.77 Q95.9456 1249.17 101.756 1249.17 Z" fill="#000000" fill-rule="nonzero" fill-opacity="1" /><path clip-path="url(#clip680)" d="M121.918 1278.47 L126.802 1278.47 L126.802 1284.35 L121.918 1284.35 L121.918 1278.47 Z" fill="#000000" fill-rule="nonzero" fill-opacity="1" /><path clip-path="url(#clip680)" d="M141.015 1280.42 L157.334 1280.42 L157.334 1284.35 L135.39 1284.35 L135.39 1280.42 Q138.052 1277.66 142.635 1273.03 Q147.242 1268.38 148.422 1267.04 Q150.668 1264.51 151.547 1262.78 Q152.45 1261.02 152.45 1259.33 Q152.45 1256.57 150.505 1254.84 Q148.584 1253.1 145.482 1253.1 Q143.283 1253.1 140.83 1253.86 Q138.399 1254.63 135.621 1256.18 L135.621 1251.46 Q138.445 1250.32 140.899 1249.74 Q143.353 1249.17 145.39 1249.17 Q150.76 1249.17 153.955 1251.85 Q157.149 1254.54 157.149 1259.03 Q157.149 1261.16 156.339 1263.08 Q155.552 1264.98 153.445 1267.57 Q152.867 1268.24 149.765 1271.46 Q146.663 1274.65 141.015 1280.42 Z" fill="#000000" fill-rule="nonzero" fill-opacity="1" /><path clip-path="url(#clip680)" d="M167.195 1249.79 L185.552 1249.79 L185.552 1253.73 L171.478 1253.73 L171.478 1262.2 Q172.496 1261.85 173.515 1261.69 Q174.533 1261.5 175.552 1261.5 Q181.339 1261.5 184.718 1264.67 Q188.098 1267.85 188.098 1273.26 Q188.098 1278.84 184.626 1281.94 Q181.153 1285.02 174.834 1285.02 Q172.658 1285.02 170.39 1284.65 Q168.144 1284.28 165.737 1283.54 L165.737 1278.84 Q167.82 1279.98 170.042 1280.53 Q172.265 1281.09 174.741 1281.09 Q178.746 1281.09 181.084 1278.98 Q183.422 1276.87 183.422 1273.26 Q183.422 1269.65 181.084 1267.55 Q178.746 1265.44 174.741 1265.44 Q172.866 1265.44 170.991 1265.86 Q169.14 1266.27 167.195 1267.15 L167.195 1249.79 Z" fill="#000000" fill-rule="nonzero" fill-opacity="1" /><path clip-path="url(#clip680)" d="M50.9921 1086.79 L80.6679 1086.79 L80.6679 1090.73 L50.9921 1090.73 L50.9921 1086.79 Z" fill="#000000" fill-rule="nonzero" fill-opacity="1" /><path clip-path="url(#clip680)" d="M100.76 1072.14 Q97.1493 1072.14 95.3206 1075.7 Q93.515 1079.25 93.515 1086.38 Q93.515 1093.48 95.3206 1097.05 Q97.1493 1100.59 100.76 1100.59 Q104.395 1100.59 106.2 1097.05 Q108.029 1093.48 108.029 1086.38 Q108.029 1079.25 106.2 1075.7 Q104.395 1072.14 100.76 1072.14 M100.76 1068.44 Q106.571 1068.44 109.626 1073.04 Q112.705 1077.63 112.705 1086.38 Q112.705 1095.1 109.626 1099.71 Q106.571 1104.29 100.76 1104.29 Q94.9502 1104.29 91.8715 1099.71 Q88.816 1095.1 88.816 1086.38 Q88.816 1077.63 91.8715 1073.04 Q94.9502 1068.44 100.76 1068.44 Z" fill="#000000" fill-rule="nonzero" fill-opacity="1" /><path clip-path="url(#clip680)" d="M120.922 1097.74 L125.807 1097.74 L125.807 1103.62 L120.922 1103.62 L120.922 1097.74 Z" fill="#000000" fill-rule="nonzero" fill-opacity="1" /><path clip-path="url(#clip680)" d="M140.019 1099.69 L156.339 1099.69 L156.339 1103.62 L134.394 1103.62 L134.394 1099.69 Q137.056 1096.93 141.64 1092.3 Q146.246 1087.65 147.427 1086.31 Q149.672 1083.78 150.552 1082.05 Q151.455 1080.29 151.455 1078.6 Q151.455 1075.84 149.51 1074.11 Q147.589 1072.37 144.487 1072.37 Q142.288 1072.37 139.834 1073.14 Q137.404 1073.9 134.626 1075.45 L134.626 1070.73 Q137.45 1069.59 139.904 1069.01 Q142.357 1068.44 144.394 1068.44 Q149.765 1068.44 152.959 1071.12 Q156.154 1073.81 156.154 1078.3 Q156.154 1080.43 155.343 1082.35 Q154.556 1084.25 152.45 1086.84 Q151.871 1087.51 148.769 1090.73 Q145.668 1093.92 140.019 1099.69 Z" fill="#000000" fill-rule="nonzero" fill-opacity="1" /><path clip-path="url(#clip680)" d="M176.153 1072.14 Q172.542 1072.14 170.714 1075.7 Q168.908 1079.25 168.908 1086.38 Q168.908 1093.48 170.714 1097.05 Q172.542 1100.59 176.153 1100.59 Q179.788 1100.59 181.593 1097.05 Q183.422 1093.48 183.422 1086.38 Q183.422 1079.25 181.593 1075.7 Q179.788 1072.14 176.153 1072.14 M176.153 1068.44 Q181.964 1068.44 185.019 1073.04 Q188.098 1077.63 188.098 1086.38 Q188.098 1095.1 185.019 1099.71 Q181.964 1104.29 176.153 1104.29 Q170.343 1104.29 167.265 1099.71 Q164.209 1095.1 164.209 1086.38 Q164.209 1077.63 167.265 1073.04 Q170.343 1068.44 176.153 1068.44 Z" fill="#000000" fill-rule="nonzero" fill-opacity="1" /><path clip-path="url(#clip680)" d="M51.9875 906.063 L81.6633 906.063 L81.6633 909.998 L51.9875 909.998 L51.9875 906.063 Z" fill="#000000" fill-rule="nonzero" fill-opacity="1" /><path clip-path="url(#clip680)" d="M101.756 891.41 Q98.1447 891.41 96.316 894.975 Q94.5104 898.516 94.5104 905.646 Q94.5104 912.752 96.316 916.317 Q98.1447 919.859 101.756 919.859 Q105.39 919.859 107.196 916.317 Q109.024 912.752 109.024 905.646 Q109.024 898.516 107.196 894.975 Q105.39 891.41 101.756 891.41 M101.756 887.706 Q107.566 887.706 110.621 892.313 Q113.7 896.896 113.7 905.646 Q113.7 914.373 110.621 918.979 Q107.566 923.563 101.756 923.563 Q95.9456 923.563 92.8669 918.979 Q89.8114 914.373 89.8114 905.646 Q89.8114 896.896 92.8669 892.313 Q95.9456 887.706 101.756 887.706 Z" fill="#000000" fill-rule="nonzero" fill-opacity="1" /><path clip-path="url(#clip680)" d="M121.918 917.012 L126.802 917.012 L126.802 922.891 L121.918 922.891 L121.918 917.012 Z" fill="#000000" fill-rule="nonzero" fill-opacity="1" /><path clip-path="url(#clip680)" d="M137.797 918.956 L145.436 918.956 L145.436 892.591 L137.126 894.257 L137.126 889.998 L145.39 888.331 L150.066 888.331 L150.066 918.956 L157.705 918.956 L157.705 922.891 L137.797 922.891 L137.797 918.956 Z" fill="#000000" fill-rule="nonzero" fill-opacity="1" /><path clip-path="url(#clip680)" d="M167.195 888.331 L185.552 888.331 L185.552 892.266 L171.478 892.266 L171.478 900.739 Q172.496 900.391 173.515 900.229 Q174.533 900.044 175.552 900.044 Q181.339 900.044 184.718 903.215 Q188.098 906.387 188.098 911.803 Q188.098 917.382 184.626 920.484 Q181.153 923.563 174.834 923.563 Q172.658 923.563 170.39 923.192 Q168.144 922.822 165.737 922.081 L165.737 917.382 Q167.82 918.516 170.042 919.072 Q172.265 919.627 174.741 919.627 Q178.746 919.627 181.084 917.521 Q183.422 915.415 183.422 911.803 Q183.422 908.192 181.084 906.086 Q178.746 903.979 174.741 903.979 Q172.866 903.979 170.991 904.396 Q169.14 904.813 167.195 905.692 L167.195 888.331 Z" fill="#000000" fill-rule="nonzero" fill-opacity="1" /><path clip-path="url(#clip680)" d="M50.9921 725.333 L80.6679 725.333 L80.6679 729.268 L50.9921 729.268 L50.9921 725.333 Z" fill="#000000" fill-rule="nonzero" fill-opacity="1" /><path clip-path="url(#clip680)" d="M100.76 710.68 Q97.1493 710.68 95.3206 714.245 Q93.515 717.787 93.515 724.916 Q93.515 732.023 95.3206 735.588 Q97.1493 739.129 100.76 739.129 Q104.395 739.129 106.2 735.588 Q108.029 732.023 108.029 724.916 Q108.029 717.787 106.2 714.245 Q104.395 710.68 100.76 710.68 M100.76 706.977 Q106.571 706.977 109.626 711.583 Q112.705 716.166 112.705 724.916 Q112.705 733.643 109.626 738.25 Q106.571 742.833 100.76 742.833 Q94.9502 742.833 91.8715 738.25 Q88.816 733.643 88.816 724.916 Q88.816 716.166 91.8715 711.583 Q94.9502 706.977 100.76 706.977 Z" fill="#000000" fill-rule="nonzero" fill-opacity="1" /><path clip-path="url(#clip680)" d="M120.922 736.282 L125.807 736.282 L125.807 742.162 L120.922 742.162 L120.922 736.282 Z" fill="#000000" fill-rule="nonzero" fill-opacity="1" /><path clip-path="url(#clip680)" d="M136.802 738.226 L144.441 738.226 L144.441 711.861 L136.131 713.528 L136.131 709.268 L144.394 707.602 L149.07 707.602 L149.07 738.226 L156.709 738.226 L156.709 742.162 L136.802 742.162 L136.802 738.226 Z" fill="#000000" fill-rule="nonzero" fill-opacity="1" /><path clip-path="url(#clip680)" d="M176.153 710.68 Q172.542 710.68 170.714 714.245 Q168.908 717.787 168.908 724.916 Q168.908 732.023 170.714 735.588 Q172.542 739.129 176.153 739.129 Q179.788 739.129 181.593 735.588 Q183.422 732.023 183.422 724.916 Q183.422 717.787 181.593 714.245 Q179.788 710.68 176.153 710.68 M176.153 706.977 Q181.964 706.977 185.019 711.583 Q188.098 716.166 188.098 724.916 Q188.098 733.643 185.019 738.25 Q181.964 742.833 176.153 742.833 Q170.343 742.833 167.265 738.25 Q164.209 733.643 164.209 724.916 Q164.209 716.166 167.265 711.583 Q170.343 706.977 176.153 706.977 Z" fill="#000000" fill-rule="nonzero" fill-opacity="1" /><path clip-path="url(#clip680)" d="M51.9875 544.603 L81.6633 544.603 L81.6633 548.539 L51.9875 548.539 L51.9875 544.603 Z" fill="#000000" fill-rule="nonzero" fill-opacity="1" /><path clip-path="url(#clip680)" d="M101.756 529.951 Q98.1447 529.951 96.316 533.515 Q94.5104 537.057 94.5104 544.187 Q94.5104 551.293 96.316 554.858 Q98.1447 558.4 101.756 558.4 Q105.39 558.4 107.196 554.858 Q109.024 551.293 109.024 544.187 Q109.024 537.057 107.196 533.515 Q105.39 529.951 101.756 529.951 M101.756 526.247 Q107.566 526.247 110.621 530.853 Q113.7 535.437 113.7 544.187 Q113.7 552.913 110.621 557.52 Q107.566 562.103 101.756 562.103 Q95.9456 562.103 92.8669 557.52 Q89.8114 552.913 89.8114 544.187 Q89.8114 535.437 92.8669 530.853 Q95.9456 526.247 101.756 526.247 Z" fill="#000000" fill-rule="nonzero" fill-opacity="1" /><path clip-path="url(#clip680)" d="M121.918 555.552 L126.802 555.552 L126.802 561.432 L121.918 561.432 L121.918 555.552 Z" fill="#000000" fill-rule="nonzero" fill-opacity="1" /><path clip-path="url(#clip680)" d="M146.987 529.951 Q143.376 529.951 141.547 533.515 Q139.742 537.057 139.742 544.187 Q139.742 551.293 141.547 554.858 Q143.376 558.4 146.987 558.4 Q150.621 558.4 152.427 554.858 Q154.255 551.293 154.255 544.187 Q154.255 537.057 152.427 533.515 Q150.621 529.951 146.987 529.951 M146.987 526.247 Q152.797 526.247 155.853 530.853 Q158.931 535.437 158.931 544.187 Q158.931 552.913 155.853 557.52 Q152.797 562.103 146.987 562.103 Q141.177 562.103 138.098 557.52 Q135.043 552.913 135.043 544.187 Q135.043 535.437 138.098 530.853 Q141.177 526.247 146.987 526.247 Z" fill="#000000" fill-rule="nonzero" fill-opacity="1" /><path clip-path="url(#clip680)" d="M167.195 526.872 L185.552 526.872 L185.552 530.807 L171.478 530.807 L171.478 539.279 Q172.496 538.932 173.515 538.77 Q174.533 538.585 175.552 538.585 Q181.339 538.585 184.718 541.756 Q188.098 544.927 188.098 550.344 Q188.098 555.923 184.626 559.025 Q181.153 562.103 174.834 562.103 Q172.658 562.103 170.39 561.733 Q168.144 561.363 165.737 560.622 L165.737 555.923 Q167.82 557.057 170.042 557.613 Q172.265 558.168 174.741 558.168 Q178.746 558.168 181.084 556.062 Q183.422 553.955 183.422 550.344 Q183.422 546.733 181.084 544.626 Q178.746 542.52 174.741 542.52 Q172.866 542.52 170.991 542.937 Q169.14 543.353 167.195 544.233 L167.195 526.872 Z" fill="#000000" fill-rule="nonzero" fill-opacity="1" /><path clip-path="url(#clip680)" d="M100.76 349.221 Q97.1493 349.221 95.3206 352.786 Q93.515 356.327 93.515 363.457 Q93.515 370.563 95.3206 374.128 Q97.1493 377.67 100.76 377.67 Q104.395 377.67 106.2 374.128 Q108.029 370.563 108.029 363.457 Q108.029 356.327 106.2 352.786 Q104.395 349.221 100.76 349.221 M100.76 345.517 Q106.571 345.517 109.626 350.124 Q112.705 354.707 112.705 363.457 Q112.705 372.184 109.626 376.79 Q106.571 381.374 100.76 381.374 Q94.9502 381.374 91.8715 376.79 Q88.816 372.184 88.816 363.457 Q88.816 354.707 91.8715 350.124 Q94.9502 345.517 100.76 345.517 Z" fill="#000000" fill-rule="nonzero" fill-opacity="1" /><path clip-path="url(#clip680)" d="M120.922 374.823 L125.807 374.823 L125.807 380.702 L120.922 380.702 L120.922 374.823 Z" fill="#000000" fill-rule="nonzero" fill-opacity="1" /><path clip-path="url(#clip680)" d="M145.992 349.221 Q142.381 349.221 140.552 352.786 Q138.746 356.327 138.746 363.457 Q138.746 370.563 140.552 374.128 Q142.381 377.67 145.992 377.67 Q149.626 377.67 151.431 374.128 Q153.26 370.563 153.26 363.457 Q153.26 356.327 151.431 352.786 Q149.626 349.221 145.992 349.221 M145.992 345.517 Q151.802 345.517 154.857 350.124 Q157.936 354.707 157.936 363.457 Q157.936 372.184 154.857 376.79 Q151.802 381.374 145.992 381.374 Q140.181 381.374 137.103 376.79 Q134.047 372.184 134.047 363.457 Q134.047 354.707 137.103 350.124 Q140.181 345.517 145.992 345.517 Z" fill="#000000" fill-rule="nonzero" fill-opacity="1" /><path clip-path="url(#clip680)" d="M176.153 349.221 Q172.542 349.221 170.714 352.786 Q168.908 356.327 168.908 363.457 Q168.908 370.563 170.714 374.128 Q172.542 377.67 176.153 377.67 Q179.788 377.67 181.593 374.128 Q183.422 370.563 183.422 363.457 Q183.422 356.327 181.593 352.786 Q179.788 349.221 176.153 349.221 M176.153 345.517 Q181.964 345.517 185.019 350.124 Q188.098 354.707 188.098 363.457 Q188.098 372.184 185.019 376.79 Q181.964 381.374 176.153 381.374 Q170.343 381.374 167.265 376.79 Q164.209 372.184 164.209 363.457 Q164.209 354.707 167.265 350.124 Q170.343 345.517 176.153 345.517 Z" fill="#000000" fill-rule="nonzero" fill-opacity="1" /><path clip-path="url(#clip680)" d="M101.756 168.491 Q98.1447 168.491 96.316 172.056 Q94.5104 175.598 94.5104 182.727 Q94.5104 189.834 96.316 193.399 Q98.1447 196.94 101.756 196.94 Q105.39 196.94 107.196 193.399 Q109.024 189.834 109.024 182.727 Q109.024 175.598 107.196 172.056 Q105.39 168.491 101.756 168.491 M101.756 164.788 Q107.566 164.788 110.621 169.394 Q113.7 173.977 113.7 182.727 Q113.7 191.454 110.621 196.061 Q107.566 200.644 101.756 200.644 Q95.9456 200.644 92.8669 196.061 Q89.8114 191.454 89.8114 182.727 Q89.8114 173.977 92.8669 169.394 Q95.9456 164.788 101.756 164.788 Z" fill="#000000" fill-rule="nonzero" fill-opacity="1" /><path clip-path="url(#clip680)" d="M121.918 194.093 L126.802 194.093 L126.802 199.973 L121.918 199.973 L121.918 194.093 Z" fill="#000000" fill-rule="nonzero" fill-opacity="1" /><path clip-path="url(#clip680)" d="M146.987 168.491 Q143.376 168.491 141.547 172.056 Q139.742 175.598 139.742 182.727 Q139.742 189.834 141.547 193.399 Q143.376 196.94 146.987 196.94 Q150.621 196.94 152.427 193.399 Q154.255 189.834 154.255 182.727 Q154.255 175.598 152.427 172.056 Q150.621 168.491 146.987 168.491 M146.987 164.788 Q152.797 164.788 155.853 169.394 Q158.931 173.977 158.931 182.727 Q158.931 191.454 155.853 196.061 Q152.797 200.644 146.987 200.644 Q141.177 200.644 138.098 196.061 Q135.043 191.454 135.043 182.727 Q135.043 173.977 138.098 169.394 Q141.177 164.788 146.987 164.788 Z" fill="#000000" fill-rule="nonzero" fill-opacity="1" /><path clip-path="url(#clip680)" d="M167.195 165.413 L185.552 165.413 L185.552 169.348 L171.478 169.348 L171.478 177.82 Q172.496 177.473 173.515 177.311 Q174.533 177.125 175.552 177.125 Q181.339 177.125 184.718 180.297 Q188.098 183.468 188.098 188.885 Q188.098 194.463 184.626 197.565 Q181.153 200.644 174.834 200.644 Q172.658 200.644 170.39 200.274 Q168.144 199.903 165.737 199.162 L165.737 194.463 Q167.82 195.598 170.042 196.153 Q172.265 196.709 174.741 196.709 Q178.746 196.709 181.084 194.602 Q183.422 192.496 183.422 188.885 Q183.422 185.274 181.084 183.167 Q178.746 181.061 174.741 181.061 Q172.866 181.061 170.991 181.477 Q169.14 181.894 167.195 182.774 L167.195 165.413 Z" fill="#000000" fill-rule="nonzero" fill-opacity="1" /><polyline clip-path="url(#clip682)" style="stroke:#009af9; stroke-linecap:round; stroke-linejoin:round; stroke-width:4; stroke-opacity:1; fill:none" points="284.343,363.422 291.037,363.452 297.731,363.683 304.425,363.783 311.118,363.422 317.812,363.819 324.506,364 331.2,364.329 337.894,364.386 344.588,364.388 351.282,364.367 357.976,364.516 364.67,365.15 371.364,365.41 378.057,365.644 384.751,366.793 391.445,367.823 398.139,368.701 404.833,369.535 411.527,370.296 418.221,371.034 424.915,371.997 431.609,373.186 438.302,373.982 444.996,374.097 451.69,373.764 458.384,373.207 465.078,372.753 471.772,372.754 478.466,372.77 485.16,372.417 491.854,371.659 498.547,371.117 505.241,370.624 511.935,369.39 518.629,368.068 525.323,366.967 532.017,365.601 538.711,363.989 545.405,362.875 552.099,361.837 558.793,360.914 565.486,359.727 572.18,358.295 578.874,357.244 585.568,356.609 592.262,355.943 598.956,355.991 605.65,355.806 612.344,355.251 619.038,354.402 625.731,353.261 632.425,351.491 639.119,349.653 645.813,347.883 652.507,346.161 659.201,344.115 665.895,342 672.589,340.154 679.283,338.808 685.977,337.334 692.67,335.261 699.364,333.436 706.058,332.041 712.752,330.671 719.446,328.926 726.14,327.331 732.834,325.736 739.528,323.965 746.222,322.825 752.915,320.976 759.609,319.072 766.303,316.3 772.997,314.109 779.691,311.623 786.385,309.664 793.079,307.09 799.773,304.808 806.467,302.486 813.16,300.604 819.854,298.932 826.548,297.544 833.242,295.911 839.936,294.697 846.63,293.58 853.324,292.411 860.018,291.063 866.712,289.398 873.406,287.591 880.099,286.295 886.793,284.895 893.487,284.188 900.181,283.282 906.875,282.66 913.569,281.808 920.263,281.107 926.957,280.006 933.651,279.61 940.344,278.578 947.038,277.98 953.732,277.172 960.426,276.604 967.12,276.272 973.814,275.611 980.508,275.039 987.202,274.414 993.896,274.039 1000.59,273.785 1007.28,273.614 1013.98,273.902 1020.67,273.671 1027.37,273.031 1034.06,272.066 1040.75,271.519 1047.45,270.956 1054.14,270.735 1060.83,271.012 1067.53,271.26 1074.22,271.066 1080.92,271.297 1087.61,271.716 1094.3,272.263 1101,272.676 1107.69,273.595 1114.39,274.294 1121.08,274.76 1127.77,274.576 1134.47,273.818 1141.16,273.723 1147.86,274.135 1154.55,274.957 1161.24,276.654 1167.94,278.103 1174.63,278.686 1181.32,278.636 1188.02,278.342 1194.71,277.485 1201.41,276.701 1208.1,275.869 1214.79,274.58 1221.49,273.794 1228.18,273.083 1234.88,272.018 1241.57,270.306 1248.26,269.013 1254.96,267.158 1261.65,265.263 1268.35,263.972 1275.04,262.437 1281.73,261.607 1288.43,261.281 1295.12,261.119 1301.81,261.594 1308.51,262.946 1315.2,265.042 1321.9,266.453 1328.59,268.249 1335.28,269.906 1341.98,271.262 1348.67,272.686 1355.37,274.092 1362.06,275.322 1368.75,276.981 1375.45,278.519 1382.14,279.859 1388.84,281.229 1395.53,282.926 1402.22,285.026 1408.92,287.53 1415.61,289.535 1422.3,291.808 1429,294.517 1435.69,297.013 1442.39,299.485 1449.08,301.877 1455.77,304.239 1462.47,306.782 1469.16,309.141 1475.86,311.242 1482.55,312.847 1489.24,315.022 1495.94,317.025 1502.63,319.578 1509.33,322.141 1516.02,324.086 1522.71,326.657 1529.41,328.979 1536.1,331.605 1542.79,334.458 1549.49,337.647 1556.18,341.425 1562.88,345.095 1569.57,348.837 1576.26,352.694 1582.96,356.46 1589.65,360.181 1596.35,363.789 1603.04,367.125 1609.73,370.415 1616.43,373.972 1623.12,378.173 1629.82,382.539 1636.51,386.513 1643.2,390.101 1649.9,393.657 1656.59,397.278 1663.28,401.134 1669.98,404.859 1676.67,408.438 1683.37,411.204 1690.06,414.301 1696.75,417.8 1703.45,421.633 1710.14,426.026 1716.84,431.013 1723.53,435.742 1730.22,440.277 1736.92,444.867 1743.61,449.105 1750.31,453.523 1757,458.293 1763.69,463.113 1770.39,468.231 1777.08,472.76 1783.77,477.366 1790.47,482.135 1797.16,486.811 1803.86,491.861 1810.55,496.961 1817.24,502.456 1823.94,508.2 1830.63,514.064 1837.33,520.06 1844.02,526.611 1850.71,533.413 1857.41,540.018 1864.1,546.685 1870.8,553.651 1877.49,560.383 1884.18,566.634 1890.88,572.862 1897.57,579.566 1904.27,586.521 1910.96,593.565 1917.65,600.51 1924.35,608.092 1931.04,615.639 1937.73,622.633 1944.43,629.134 1951.12,635.75 1957.82,642.524 1964.51,650.09 1971.2,658.06 1977.9,666.006 1984.59,673.705 1991.29,681.314 1997.98,688.693 2004.67,696.492 2011.37,704.709 2018.06,712.699 2024.76,720.663 2031.45,729.095 2038.14,737.783 2044.84,746.117 2051.53,754.035 2058.22,762.145 2064.92,769.821 2071.61,777.207 2078.31,784.917 2085,792.88 2091.69,801.101 2098.39,808.711 2105.08,816.523 2111.78,824.749 2118.47,832.789 2125.16,841.122 2131.86,849.681 2138.55,858.099 2145.25,867.015 2151.94,875.674 2158.63,884.189 2165.33,892.731 2172.02,901.522 2178.71,910.315 2185.41,919.329 2192.1,928.282 2198.8,937.722 2205.49,947.327 2212.18,956.67 2218.88,965.857 2225.57,974.925 2232.27,984.214 2238.96,993.554 2245.65,1003.38 2252.35,1013.59 2259.04,1023.43 2265.74,1033.18 2272.43,1042.22 2279.12,1051.43 2285.82,1060.63 2292.51,1069.67 "/>
<polyline clip-path="url(#clip682)" style="stroke:#e26f46; stroke-linecap:round; stroke-linejoin:round; stroke-width:4; stroke-opacity:1; fill:none" points="284.343,366.421 291.037,386.495 297.731,373.382 304.425,327.369 311.118,403.119 317.812,381.539 324.506,396.263 331.2,369.191 337.894,363.613 344.588,361.342 351.282,378.321 357.976,426.787 364.67,389.385 371.364,386.885 378.057,478.269 384.751,466.476 391.445,451.152 398.139,446.878 404.833,439.504 411.527,437.239 418.221,459.745 424.915,482.336 431.609,443.018 438.302,374.895 444.996,330.058 451.69,307.757 458.384,317.996 465.078,363.556 471.772,365.027 478.466,328.095 485.16,287.68 491.854,309.152 498.547,314.16 505.241,239.977 511.935,231.317 518.629,253.244 525.323,226.837 532.017,202.201 538.711,252.11 545.405,259.526 552.099,271.151 558.793,244.76 565.486,220.194 572.18,258.333 578.874,299.896 585.568,296.813 592.262,368.267 598.956,344.939 605.65,307.856 612.344,278.58 619.038,249.315 625.731,186.421 632.425,179.573 639.119,186.442 645.813,191.23 652.507,158.844 659.201,151.91 665.895,178.809 672.589,228.869 679.283,215.954 685.977,156.196 692.67,180.868 699.364,223.954 706.058,226.369 712.752,188.924 719.446,203.917 726.14,203.964 732.834,186.286 739.528,249.414 746.222,178.532 752.915,173.069 759.609,86.1857 766.303,144.362 772.997,114.842 779.691,167.472 786.385,106.026 793.079,135.204 799.773,131.256 806.467,175.201 813.16,196.217 819.854,224.632 826.548,200.138 833.242,241.989 839.936,251.735 846.63,246.551 853.324,228.615 860.018,196.899 866.712,182.773 873.406,233.809 880.099,223.375 886.793,292.755 893.487,272.838 900.181,301.185 906.875,278.193 913.569,293.335 920.263,253.35 926.957,323.846 933.651,260.246 940.344,303.558 947.038,282.634 953.732,306.633 960.426,330.186 967.12,297.31 973.814,306.305 980.508,300.88 987.202,325.905 993.896,338.084 1000.59,346.267 1007.28,392.254 1013.98,340.3 1020.67,299.424 1027.37,266.975 1034.06,308.641 1040.75,307.181 1047.45,341.325 1054.14,391.065 1060.83,388.209 1067.53,344.112 1074.22,386.45 1080.92,405.318 1087.61,418.141 1094.3,404.735 1101,455.288 1107.69,433.337 1114.39,410.085 1121.08,345.009 1127.77,287.551 1134.47,353.984 1141.16,404.59 1147.86,445.64 1154.55,533.137 1161.24,508.323 1167.94,421.719 1174.63,358.419 1181.32,333.978 1188.02,277.733 1194.71,285.063 1201.41,280.164 1208.1,234.587 1214.79,284.78 1221.49,292.3 1228.18,257.006 1234.88,192.182 1241.57,234.098 1248.26,177.905 1254.96,173.972 1261.65,234.316 1268.35,209.942 1275.04,280.362 1281.73,330.856 1288.43,347.19 1295.12,410.946 1301.81,498.668 1308.51,572.948 1315.2,504.527 1321.9,543.008 1328.59,529.187 1335.28,499.031 1341.98,505.817 1348.67,504.018 1355.37,486.378 1362.06,529.321 1368.75,517.261 1375.45,497.382 1382.14,500.486 1388.84,533.127 1395.53,573.362 1402.22,613.791 1408.92,563.969 1415.61,590.744 1422.3,634.285 1429,613.032 1435.69,610.585 1442.39,602.687 1449.08,599.558 1455.77,617.8 1462.47,599.279 1469.16,573.52 1475.86,523.912 1482.55,580.988 1489.24,563.721 1495.94,618.676 1502.63,619.715 1509.33,557.955 1516.02,620.522 1522.71,595.613 1529.41,626.033 1536.1,648.73 1542.79,682.289 1549.49,741.183 1556.18,730.462 1562.88,737.638 1569.57,749.118 1576.26,740.002 1582.96,735.534 1589.65,724.262 1596.35,696.971 1603.04,692.384 1609.73,719.197 1616.43,783.508 1623.12,800.017 1629.82,760.856 1636.51,722.148 1643.2,719.034 1649.9,725.53 1656.59,749.034 1663.28,735.879 1669.98,721.409 1676.67,639.941 1683.37,673.175 1690.06,713.353 1696.75,746.671 1703.45,802.701 1710.14,862.104 1716.84,836.33 1723.53,816.989 1730.22,822.397 1736.92,787.233 1743.61,805.188 1750.31,840.448 1757,845.394 1763.69,875.268 1770.39,816.341 1777.08,823.985 1783.77,840.287 1790.47,831.045 1797.16,868.42 1803.86,873.404 1810.55,912.923 1817.24,937.882 1823.94,949.81 1830.63,962.959 1837.33,1018.59 1844.02,1043.62 1850.71,1023.87 1857.41,1030.12 1864.1,1060.07 1870.8,1036.6 1877.49,988.543 1884.18,986.258 1890.88,1033.79 1897.57,1058.89 1904.27,1067.87 1910.96,1057.92 1917.65,1121.61 1924.35,1118.13 1931.04,1062.79 1937.73,1013.57 1944.43,1024.96 1951.12,1040.81 1957.82,1120.07 1964.51,1160.37 1971.2,1158.05 1977.9,1133.32 1984.59,1124.32 1991.29,1101.35 1997.98,1143.28 2004.67,1185.16 2011.37,1162.39 2018.06,1159.86 2024.76,1206.65 2031.45,1232.15 2038.14,1196.81 2044.84,1155.28 2051.53,1174.43 2058.22,1131.03 2064.92,1101.96 2071.61,1134.47 2078.31,1159.71 2085,1185.49 2091.69,1124.5 2098.39,1144.58 2105.08,1186 2111.78,1167.46 2118.47,1196.67 2125.16,1219.33 2131.86,1205.21 2138.55,1255.09 2145.25,1229.32 2151.94,1214.9 2158.63,1217.67 2165.33,1242.48 2172.02,1242.76 2178.71,1264.75 2185.41,1258.75 2192.1,1307.39 2198.8,1323.95 2205.49,1297.68 2212.18,1282.17 2218.88,1270.2 2225.57,1292.34 2232.27,1297.42 2238.96,1345.87 2245.65,1384.24 2252.35,1347.67 2259.04,1338.67 2265.74,1267.25 2272.43,1284.75 2279.12,1283.13 2285.82,1267.34 2292.51,1291.66 "/>
<path clip-path="url(#clip680)" d="M1843.36 248.629 L2281.8 248.629 L2281.8 93.1086 L1843.36 93.1086  Z" fill="#ffffff" fill-rule="evenodd" fill-opacity="1"/>
<polyline clip-path="url(#clip680)" style="stroke:#000000; stroke-linecap:round; stroke-linejoin:round; stroke-width:4; stroke-opacity:1; fill:none" points="1843.36,248.629 2281.8,248.629 2281.8,93.1086 1843.36,93.1086 1843.36,248.629 "/>
<polyline clip-path="url(#clip680)" style="stroke:#009af9; stroke-linecap:round; stroke-linejoin:round; stroke-width:4; stroke-opacity:1; fill:none" points="1867.01,144.949 2008.92,144.949 "/>
<path clip-path="url(#clip680)" d="M2046.41 164.636 Q2044.61 169.266 2042.9 170.678 Q2041.18 172.09 2038.31 172.09 L2034.91 172.09 L2034.91 168.525 L2037.41 168.525 Q2039.17 168.525 2040.14 167.692 Q2041.11 166.858 2042.29 163.756 L2043.06 161.812 L2032.57 136.303 L2037.09 136.303 L2045.19 156.581 L2053.29 136.303 L2057.8 136.303 L2046.41 164.636 Z" fill="#000000" fill-rule="nonzero" fill-opacity="1" /><path clip-path="url(#clip680)" d="M2082.87 158.34 L2082.87 172.09 L2078.59 172.09 L2078.59 136.303 L2082.87 136.303 L2082.87 140.238 Q2084.21 137.923 2086.25 136.812 Q2088.31 135.678 2091.16 135.678 Q2095.88 135.678 2098.82 139.428 Q2101.78 143.178 2101.78 149.289 Q2101.78 155.4 2098.82 159.15 Q2095.88 162.9 2091.16 162.9 Q2088.31 162.9 2086.25 161.789 Q2084.21 160.655 2082.87 158.34 M2097.36 149.289 Q2097.36 144.59 2095.42 141.928 Q2093.5 139.243 2090.12 139.243 Q2086.74 139.243 2084.79 141.928 Q2082.87 144.59 2082.87 149.289 Q2082.87 153.988 2084.79 156.673 Q2086.74 159.335 2090.12 159.335 Q2093.5 159.335 2095.42 156.673 Q2097.36 153.988 2097.36 149.289 Z" fill="#000000" fill-rule="nonzero" fill-opacity="1" /><path clip-path="url(#clip680)" d="M2118.89 139.289 Q2115.46 139.289 2113.47 141.974 Q2111.48 144.636 2111.48 149.289 Q2111.48 153.942 2113.45 156.627 Q2115.44 159.289 2118.89 159.289 Q2122.29 159.289 2124.28 156.604 Q2126.27 153.918 2126.27 149.289 Q2126.27 144.682 2124.28 141.997 Q2122.29 139.289 2118.89 139.289 M2118.89 135.678 Q2124.45 135.678 2127.62 139.289 Q2130.79 142.9 2130.79 149.289 Q2130.79 155.655 2127.62 159.289 Q2124.45 162.9 2118.89 162.9 Q2113.31 162.9 2110.14 159.289 Q2106.99 155.655 2106.99 149.289 Q2106.99 142.9 2110.14 139.289 Q2113.31 135.678 2118.89 135.678 Z" fill="#000000" fill-rule="nonzero" fill-opacity="1" /><path clip-path="url(#clip680)" d="M2154.38 137.067 L2154.38 141.094 Q2152.57 140.169 2150.63 139.706 Q2148.68 139.243 2146.6 139.243 Q2143.43 139.243 2141.83 140.215 Q2140.26 141.187 2140.26 143.131 Q2140.26 144.613 2141.39 145.469 Q2142.52 146.303 2145.95 147.067 L2147.41 147.391 Q2151.95 148.363 2153.84 150.145 Q2155.77 151.905 2155.77 155.076 Q2155.77 158.687 2152.89 160.793 Q2150.05 162.9 2145.05 162.9 Q2142.96 162.9 2140.7 162.483 Q2138.45 162.09 2135.95 161.28 L2135.95 156.881 Q2138.31 158.108 2140.6 158.733 Q2142.89 159.335 2145.14 159.335 Q2148.15 159.335 2149.77 158.317 Q2151.39 157.275 2151.39 155.4 Q2151.39 153.664 2150.21 152.738 Q2149.05 151.812 2145.09 150.956 L2143.61 150.608 Q2139.65 149.775 2137.89 148.062 Q2136.14 146.326 2136.14 143.317 Q2136.14 139.659 2138.73 137.669 Q2141.32 135.678 2146.09 135.678 Q2148.45 135.678 2150.53 136.025 Q2152.62 136.372 2154.38 137.067 Z" fill="#000000" fill-rule="nonzero" fill-opacity="1" /><path clip-path="url(#clip680)" d="M2162.55 136.303 L2166.81 136.303 L2166.81 162.229 L2162.55 162.229 L2162.55 136.303 M2162.55 126.21 L2166.81 126.21 L2166.81 131.604 L2162.55 131.604 L2162.55 126.21 Z" fill="#000000" fill-rule="nonzero" fill-opacity="1" /><path clip-path="url(#clip680)" d="M2179.93 128.942 L2179.93 136.303 L2188.7 136.303 L2188.7 139.613 L2179.93 139.613 L2179.93 153.687 Q2179.93 156.858 2180.79 157.761 Q2181.67 158.664 2184.33 158.664 L2188.7 158.664 L2188.7 162.229 L2184.33 162.229 Q2179.4 162.229 2177.52 160.4 Q2175.65 158.548 2175.65 153.687 L2175.65 139.613 L2172.52 139.613 L2172.52 136.303 L2175.65 136.303 L2175.65 128.942 L2179.93 128.942 Z" fill="#000000" fill-rule="nonzero" fill-opacity="1" /><path clip-path="url(#clip680)" d="M2194.31 136.303 L2198.57 136.303 L2198.57 162.229 L2194.31 162.229 L2194.31 136.303 M2194.31 126.21 L2198.57 126.21 L2198.57 131.604 L2194.31 131.604 L2194.31 126.21 Z" fill="#000000" fill-rule="nonzero" fill-opacity="1" /><path clip-path="url(#clip680)" d="M2217.52 139.289 Q2214.1 139.289 2212.11 141.974 Q2210.12 144.636 2210.12 149.289 Q2210.12 153.942 2212.08 156.627 Q2214.08 159.289 2217.52 159.289 Q2220.93 159.289 2222.92 156.604 Q2224.91 153.918 2224.91 149.289 Q2224.91 144.682 2222.92 141.997 Q2220.93 139.289 2217.52 139.289 M2217.52 135.678 Q2223.08 135.678 2226.25 139.289 Q2229.42 142.9 2229.42 149.289 Q2229.42 155.655 2226.25 159.289 Q2223.08 162.9 2217.52 162.9 Q2211.95 162.9 2208.77 159.289 Q2205.63 155.655 2205.63 149.289 Q2205.63 142.9 2208.77 139.289 Q2211.95 135.678 2217.52 135.678 Z" fill="#000000" fill-rule="nonzero" fill-opacity="1" /><path clip-path="url(#clip680)" d="M2258.03 146.581 L2258.03 162.229 L2253.77 162.229 L2253.77 146.719 Q2253.77 143.039 2252.34 141.21 Q2250.9 139.382 2248.03 139.382 Q2244.58 139.382 2242.59 141.581 Q2240.6 143.78 2240.6 147.576 L2240.6 162.229 L2236.32 162.229 L2236.32 136.303 L2240.6 136.303 L2240.6 140.331 Q2242.13 137.993 2244.19 136.835 Q2246.27 135.678 2248.98 135.678 Q2253.45 135.678 2255.74 138.456 Q2258.03 141.21 2258.03 146.581 Z" fill="#000000" fill-rule="nonzero" fill-opacity="1" /><polyline clip-path="url(#clip680)" style="stroke:#e26f46; stroke-linecap:round; stroke-linejoin:round; stroke-width:4; stroke-opacity:1; fill:none" points="1867.01,196.789 2008.92,196.789 "/>
<path clip-path="url(#clip680)" d="M2046.41 216.476 Q2044.61 221.106 2042.9 222.518 Q2041.18 223.93 2038.31 223.93 L2034.91 223.93 L2034.91 220.365 L2037.41 220.365 Q2039.17 220.365 2040.14 219.532 Q2041.11 218.698 2042.29 215.596 L2043.06 213.652 L2032.57 188.143 L2037.09 188.143 L2045.19 208.421 L2053.29 188.143 L2057.8 188.143 L2046.41 216.476 Z" fill="#000000" fill-rule="nonzero" fill-opacity="1" /><path clip-path="url(#clip680)" d="M2075.7 188.143 L2080.21 188.143 L2088.31 209.902 L2096.41 188.143 L2100.93 188.143 L2091.21 214.069 L2085.42 214.069 L2075.7 188.143 Z" fill="#000000" fill-rule="nonzero" fill-opacity="1" /><path clip-path="url(#clip680)" d="M2128.98 200.041 L2128.98 202.124 L2109.4 202.124 Q2109.68 206.522 2112.04 208.837 Q2114.42 211.129 2118.66 211.129 Q2121.11 211.129 2123.4 210.527 Q2125.72 209.925 2127.99 208.721 L2127.99 212.749 Q2125.7 213.721 2123.29 214.231 Q2120.88 214.74 2118.4 214.74 Q2112.2 214.74 2108.57 211.129 Q2104.96 207.518 2104.96 201.36 Q2104.96 194.995 2108.38 191.268 Q2111.83 187.518 2117.66 187.518 Q2122.89 187.518 2125.93 190.897 Q2128.98 194.254 2128.98 200.041 M2124.72 198.791 Q2124.68 195.296 2122.76 193.212 Q2120.86 191.129 2117.71 191.129 Q2114.15 191.129 2111.99 193.143 Q2109.86 195.157 2109.54 198.814 L2124.72 198.791 Z" fill="#000000" fill-rule="nonzero" fill-opacity="1" /><path clip-path="url(#clip680)" d="M2135.97 178.05 L2140.23 178.05 L2140.23 214.069 L2135.97 214.069 L2135.97 178.05 Z" fill="#000000" fill-rule="nonzero" fill-opacity="1" /><path clip-path="url(#clip680)" d="M2159.19 191.129 Q2155.77 191.129 2153.77 193.814 Q2151.78 196.476 2151.78 201.129 Q2151.78 205.782 2153.75 208.467 Q2155.74 211.129 2159.19 211.129 Q2162.59 211.129 2164.58 208.444 Q2166.58 205.758 2166.58 201.129 Q2166.58 196.522 2164.58 193.837 Q2162.59 191.129 2159.19 191.129 M2159.19 187.518 Q2164.75 187.518 2167.92 191.129 Q2171.09 194.74 2171.09 201.129 Q2171.09 207.495 2167.92 211.129 Q2164.75 214.74 2159.19 214.74 Q2153.61 214.74 2150.44 211.129 Q2147.29 207.495 2147.29 201.129 Q2147.29 194.74 2150.44 191.129 Q2153.61 187.518 2159.19 187.518 Z" fill="#000000" fill-rule="nonzero" fill-opacity="1" /><path clip-path="url(#clip680)" d="M2196.81 189.138 L2196.81 193.12 Q2195 192.124 2193.17 191.638 Q2191.37 191.129 2189.51 191.129 Q2185.37 191.129 2183.08 193.768 Q2180.79 196.384 2180.79 201.129 Q2180.79 205.874 2183.08 208.513 Q2185.37 211.129 2189.51 211.129 Q2191.37 211.129 2193.17 210.643 Q2195 210.133 2196.81 209.138 L2196.81 213.073 Q2195.02 213.907 2193.1 214.323 Q2191.2 214.74 2189.05 214.74 Q2183.2 214.74 2179.75 211.059 Q2176.3 207.379 2176.3 201.129 Q2176.3 194.786 2179.77 191.152 Q2183.27 187.518 2189.33 187.518 Q2191.3 187.518 2193.17 187.935 Q2195.05 188.328 2196.81 189.138 Z" fill="#000000" fill-rule="nonzero" fill-opacity="1" /><path clip-path="url(#clip680)" d="M2204.21 188.143 L2208.47 188.143 L2208.47 214.069 L2204.21 214.069 L2204.21 188.143 M2204.21 178.05 L2208.47 178.05 L2208.47 183.444 L2204.21 183.444 L2204.21 178.05 Z" fill="#000000" fill-rule="nonzero" fill-opacity="1" /><path clip-path="url(#clip680)" d="M2221.6 180.782 L2221.6 188.143 L2230.37 188.143 L2230.37 191.453 L2221.6 191.453 L2221.6 205.527 Q2221.6 208.698 2222.45 209.601 Q2223.33 210.504 2226 210.504 L2230.37 210.504 L2230.37 214.069 L2226 214.069 Q2221.07 214.069 2219.19 212.24 Q2217.32 210.388 2217.32 205.527 L2217.32 191.453 L2214.19 191.453 L2214.19 188.143 L2217.32 188.143 L2217.32 180.782 L2221.6 180.782 Z" fill="#000000" fill-rule="nonzero" fill-opacity="1" /><path clip-path="url(#clip680)" d="M2246.76 216.476 Q2244.95 221.106 2243.24 222.518 Q2241.53 223.93 2238.66 223.93 L2235.26 223.93 L2235.26 220.365 L2237.76 220.365 Q2239.51 220.365 2240.49 219.532 Q2241.46 218.698 2242.64 215.596 L2243.4 213.652 L2232.92 188.143 L2237.43 188.143 L2245.53 208.421 L2253.64 188.143 L2258.15 188.143 L2246.76 216.476 Z" fill="#000000" fill-rule="nonzero" fill-opacity="1" /></svg>
