<?xml version="1.0" encoding="utf-8"?>
<svg xmlns="http://www.w3.org/2000/svg" xmlns:xlink="http://www.w3.org/1999/xlink" width="600" height="400" viewBox="0 0 2400 1600">
<defs>
  <clipPath id="clip850">
    <rect x="0" y="0" width="2400" height="1600"/>
  </clipPath>
</defs>
<path clip-path="url(#clip850)" d="M0 1600 L2400 1600 L2400 0 L0 0  Z" fill="#ffffff" fill-rule="evenodd" fill-opacity="1"/>
<defs>
  <clipPath id="clip851">
    <rect x="480" y="0" width="1681" height="1600"/>
  </clipPath>
</defs>
<path clip-path="url(#clip850)" d="M193.936 1486.45 L1137.67 1486.45 L1137.67 47.2441 L193.936 47.2441  Z" fill="#ffffff" fill-rule="evenodd" fill-opacity="1"/>
<defs>
  <clipPath id="clip852">
    <rect x="193" y="47" width="945" height="1440"/>
  </clipPath>
</defs>
<polyline clip-path="url(#clip850)" style="stroke:#000000; stroke-linecap:round; stroke-linejoin:round; stroke-width:4; stroke-opacity:1; fill:none" points="193.936,1486.45 1137.67,1486.45 "/>
<polyline clip-path="url(#clip850)" style="stroke:#000000; stroke-linecap:round; stroke-linejoin:round; stroke-width:4; stroke-opacity:1; fill:none" points="220.646,1486.45 220.646,1467.55 "/>
<polyline clip-path="url(#clip850)" style="stroke:#000000; stroke-linecap:round; stroke-linejoin:round; stroke-width:4; stroke-opacity:1; fill:none" points="443.226,1486.45 443.226,1467.55 "/>
<polyline clip-path="url(#clip850)" style="stroke:#000000; stroke-linecap:round; stroke-linejoin:round; stroke-width:4; stroke-opacity:1; fill:none" points="665.805,1486.45 665.805,1467.55 "/>
<polyline clip-path="url(#clip850)" style="stroke:#000000; stroke-linecap:round; stroke-linejoin:round; stroke-width:4; stroke-opacity:1; fill:none" points="888.385,1486.45 888.385,1467.55 "/>
<polyline clip-path="url(#clip850)" style="stroke:#000000; stroke-linecap:round; stroke-linejoin:round; stroke-width:4; stroke-opacity:1; fill:none" points="1110.97,1486.45 1110.97,1467.55 "/>
<path clip-path="url(#clip850)" d="M167.174 1532.02 L196.849 1532.02 L196.849 1535.95 L167.174 1535.95 L167.174 1532.02 Z" fill="#000000" fill-rule="nonzero" fill-opacity="1" /><path clip-path="url(#clip850)" d="M207.752 1544.91 L215.391 1544.91 L215.391 1518.55 L207.081 1520.21 L207.081 1515.95 L215.345 1514.29 L220.021 1514.29 L220.021 1544.91 L227.659 1544.91 L227.659 1548.85 L207.752 1548.85 L207.752 1544.91 Z" fill="#000000" fill-rule="nonzero" fill-opacity="1" /><path clip-path="url(#clip850)" d="M237.104 1542.97 L241.988 1542.97 L241.988 1548.85 L237.104 1548.85 L237.104 1542.97 Z" fill="#000000" fill-rule="nonzero" fill-opacity="1" /><path clip-path="url(#clip850)" d="M262.173 1517.37 Q258.562 1517.37 256.733 1520.93 Q254.928 1524.47 254.928 1531.6 Q254.928 1538.71 256.733 1542.27 Q258.562 1545.82 262.173 1545.82 Q265.807 1545.82 267.613 1542.27 Q269.442 1538.71 269.442 1531.6 Q269.442 1524.47 267.613 1520.93 Q265.807 1517.37 262.173 1517.37 M262.173 1513.66 Q267.983 1513.66 271.039 1518.27 Q274.118 1522.85 274.118 1531.6 Q274.118 1540.33 271.039 1544.94 Q267.983 1549.52 262.173 1549.52 Q256.363 1549.52 253.284 1544.94 Q250.229 1540.33 250.229 1531.6 Q250.229 1522.85 253.284 1518.27 Q256.363 1513.66 262.173 1513.66 Z" fill="#000000" fill-rule="nonzero" fill-opacity="1" /><path clip-path="url(#clip850)" d="M390.251 1532.02 L419.927 1532.02 L419.927 1535.95 L390.251 1535.95 L390.251 1532.02 Z" fill="#000000" fill-rule="nonzero" fill-opacity="1" /><path clip-path="url(#clip850)" d="M440.02 1517.37 Q436.408 1517.37 434.58 1520.93 Q432.774 1524.47 432.774 1531.6 Q432.774 1538.71 434.58 1542.27 Q436.408 1545.82 440.02 1545.82 Q443.654 1545.82 445.459 1542.27 Q447.288 1538.71 447.288 1531.6 Q447.288 1524.47 445.459 1520.93 Q443.654 1517.37 440.02 1517.37 M440.02 1513.66 Q445.83 1513.66 448.885 1518.27 Q451.964 1522.85 451.964 1531.6 Q451.964 1540.33 448.885 1544.94 Q445.83 1549.52 440.02 1549.52 Q434.209 1549.52 431.131 1544.94 Q428.075 1540.33 428.075 1531.6 Q428.075 1522.85 431.131 1518.27 Q434.209 1513.66 440.02 1513.66 Z" fill="#000000" fill-rule="nonzero" fill-opacity="1" /><path clip-path="url(#clip850)" d="M460.181 1542.97 L465.066 1542.97 L465.066 1548.85 L460.181 1548.85 L460.181 1542.97 Z" fill="#000000" fill-rule="nonzero" fill-opacity="1" /><path clip-path="url(#clip850)" d="M475.297 1514.29 L493.654 1514.29 L493.654 1518.22 L479.58 1518.22 L479.58 1526.7 Q480.598 1526.35 481.617 1526.19 Q482.635 1526 483.654 1526 Q489.441 1526 492.82 1529.17 Q496.2 1532.34 496.2 1537.76 Q496.2 1543.34 492.728 1546.44 Q489.255 1549.52 482.936 1549.52 Q480.76 1549.52 478.492 1549.15 Q476.246 1548.78 473.839 1548.04 L473.839 1543.34 Q475.922 1544.47 478.144 1545.03 Q480.367 1545.58 482.843 1545.58 Q486.848 1545.58 489.186 1543.48 Q491.524 1541.37 491.524 1537.76 Q491.524 1534.15 489.186 1532.04 Q486.848 1529.94 482.843 1529.94 Q480.968 1529.94 479.093 1530.35 Q477.242 1530.77 475.297 1531.65 L475.297 1514.29 Z" fill="#000000" fill-rule="nonzero" fill-opacity="1" /><path clip-path="url(#clip850)" d="M643.19 1517.37 Q639.579 1517.37 637.75 1520.93 Q635.945 1524.47 635.945 1531.6 Q635.945 1538.71 637.75 1542.27 Q639.579 1545.82 643.19 1545.82 Q646.824 1545.82 648.63 1542.27 Q650.458 1538.71 650.458 1531.6 Q650.458 1524.47 648.63 1520.93 Q646.824 1517.37 643.19 1517.37 M643.19 1513.66 Q649 1513.66 652.056 1518.27 Q655.134 1522.85 655.134 1531.6 Q655.134 1540.33 652.056 1544.94 Q649 1549.52 643.19 1549.52 Q637.38 1549.52 634.301 1544.94 Q631.245 1540.33 631.245 1531.6 Q631.245 1522.85 634.301 1518.27 Q637.38 1513.66 643.19 1513.66 Z" fill="#000000" fill-rule="nonzero" fill-opacity="1" /><path clip-path="url(#clip850)" d="M663.352 1542.97 L668.236 1542.97 L668.236 1548.85 L663.352 1548.85 L663.352 1542.97 Z" fill="#000000" fill-rule="nonzero" fill-opacity="1" /><path clip-path="url(#clip850)" d="M688.421 1517.37 Q684.81 1517.37 682.981 1520.93 Q681.176 1524.47 681.176 1531.6 Q681.176 1538.71 682.981 1542.27 Q684.81 1545.82 688.421 1545.82 Q692.055 1545.82 693.861 1542.27 Q695.69 1538.71 695.69 1531.6 Q695.69 1524.47 693.861 1520.93 Q692.055 1517.37 688.421 1517.37 M688.421 1513.66 Q694.231 1513.66 697.287 1518.27 Q700.365 1522.85 700.365 1531.6 Q700.365 1540.33 697.287 1544.94 Q694.231 1549.52 688.421 1549.52 Q682.611 1549.52 679.532 1544.94 Q676.477 1540.33 676.477 1531.6 Q676.477 1522.85 679.532 1518.27 Q682.611 1513.66 688.421 1513.66 Z" fill="#000000" fill-rule="nonzero" fill-opacity="1" /><path clip-path="url(#clip850)" d="M866.267 1517.37 Q862.656 1517.37 860.828 1520.93 Q859.022 1524.47 859.022 1531.6 Q859.022 1538.71 860.828 1542.27 Q862.656 1545.82 866.267 1545.82 Q869.902 1545.82 871.707 1542.27 Q873.536 1538.71 873.536 1531.6 Q873.536 1524.47 871.707 1520.93 Q869.902 1517.37 866.267 1517.37 M866.267 1513.66 Q872.078 1513.66 875.133 1518.27 Q878.212 1522.85 878.212 1531.6 Q878.212 1540.33 875.133 1544.94 Q872.078 1549.52 866.267 1549.52 Q860.457 1549.52 857.379 1544.94 Q854.323 1540.33 854.323 1531.6 Q854.323 1522.85 857.379 1518.27 Q860.457 1513.66 866.267 1513.66 Z" fill="#000000" fill-rule="nonzero" fill-opacity="1" /><path clip-path="url(#clip850)" d="M886.429 1542.97 L891.314 1542.97 L891.314 1548.85 L886.429 1548.85 L886.429 1542.97 Z" fill="#000000" fill-rule="nonzero" fill-opacity="1" /><path clip-path="url(#clip850)" d="M901.545 1514.29 L919.901 1514.29 L919.901 1518.22 L905.827 1518.22 L905.827 1526.7 Q906.846 1526.35 907.864 1526.19 Q908.883 1526 909.902 1526 Q915.689 1526 919.068 1529.17 Q922.448 1532.34 922.448 1537.76 Q922.448 1543.34 918.976 1546.44 Q915.503 1549.52 909.184 1549.52 Q907.008 1549.52 904.74 1549.15 Q902.494 1548.78 900.087 1548.04 L900.087 1543.34 Q902.17 1544.47 904.392 1545.03 Q906.614 1545.58 909.091 1545.58 Q913.096 1545.58 915.434 1543.48 Q917.772 1541.37 917.772 1537.76 Q917.772 1534.15 915.434 1532.04 Q913.096 1529.94 909.091 1529.94 Q907.216 1529.94 905.341 1530.35 Q903.49 1530.77 901.545 1531.65 L901.545 1514.29 Z" fill="#000000" fill-rule="nonzero" fill-opacity="1" /><path clip-path="url(#clip850)" d="M1078.12 1544.91 L1085.76 1544.91 L1085.76 1518.55 L1077.45 1520.21 L1077.45 1515.95 L1085.71 1514.29 L1090.39 1514.29 L1090.39 1544.91 L1098.03 1544.91 L1098.03 1548.85 L1078.12 1548.85 L1078.12 1544.91 Z" fill="#000000" fill-rule="nonzero" fill-opacity="1" /><path clip-path="url(#clip850)" d="M1107.47 1542.97 L1112.35 1542.97 L1112.35 1548.85 L1107.47 1548.85 L1107.47 1542.97 Z" fill="#000000" fill-rule="nonzero" fill-opacity="1" /><path clip-path="url(#clip850)" d="M1132.54 1517.37 Q1128.93 1517.37 1127.1 1520.93 Q1125.29 1524.47 1125.29 1531.6 Q1125.29 1538.71 1127.1 1542.27 Q1128.93 1545.82 1132.54 1545.82 Q1136.17 1545.82 1137.98 1542.27 Q1139.81 1538.71 1139.81 1531.6 Q1139.81 1524.47 1137.98 1520.93 Q1136.17 1517.37 1132.54 1517.37 M1132.54 1513.66 Q1138.35 1513.66 1141.41 1518.27 Q1144.48 1522.85 1144.48 1531.6 Q1144.48 1540.33 1141.41 1544.94 Q1138.35 1549.52 1132.54 1549.52 Q1126.73 1549.52 1123.65 1544.94 Q1120.59 1540.33 1120.59 1531.6 Q1120.59 1522.85 1123.65 1518.27 Q1126.73 1513.66 1132.54 1513.66 Z" fill="#000000" fill-rule="nonzero" fill-opacity="1" /><polyline clip-path="url(#clip850)" style="stroke:#000000; stroke-linecap:round; stroke-linejoin:round; stroke-width:4; stroke-opacity:1; fill:none" points="193.936,1486.45 193.936,47.2441 "/>
<polyline clip-path="url(#clip850)" style="stroke:#000000; stroke-linecap:round; stroke-linejoin:round; stroke-width:4; stroke-opacity:1; fill:none" points="193.936,1434.59 212.834,1434.59 "/>
<polyline clip-path="url(#clip850)" style="stroke:#000000; stroke-linecap:round; stroke-linejoin:round; stroke-width:4; stroke-opacity:1; fill:none" points="193.936,1212.01 212.834,1212.01 "/>
<polyline clip-path="url(#clip850)" style="stroke:#000000; stroke-linecap:round; stroke-linejoin:round; stroke-width:4; stroke-opacity:1; fill:none" points="193.936,989.426 212.834,989.426 "/>
<polyline clip-path="url(#clip850)" style="stroke:#000000; stroke-linecap:round; stroke-linejoin:round; stroke-width:4; stroke-opacity:1; fill:none" points="193.936,766.846 212.834,766.846 "/>
<polyline clip-path="url(#clip850)" style="stroke:#000000; stroke-linecap:round; stroke-linejoin:round; stroke-width:4; stroke-opacity:1; fill:none" points="193.936,544.266 212.834,544.266 "/>
<polyline clip-path="url(#clip850)" style="stroke:#000000; stroke-linecap:round; stroke-linejoin:round; stroke-width:4; stroke-opacity:1; fill:none" points="193.936,321.686 212.834,321.686 "/>
<polyline clip-path="url(#clip850)" style="stroke:#000000; stroke-linecap:round; stroke-linejoin:round; stroke-width:4; stroke-opacity:1; fill:none" points="193.936,99.1061 212.834,99.1061 "/>
<path clip-path="url(#clip850)" d="M51.9875 1435.04 L81.6633 1435.04 L81.6633 1438.97 L51.9875 1438.97 L51.9875 1435.04 Z" fill="#000000" fill-rule="nonzero" fill-opacity="1" /><path clip-path="url(#clip850)" d="M92.566 1447.93 L100.205 1447.93 L100.205 1421.57 L91.8947 1423.23 L91.8947 1418.97 L100.159 1417.31 L104.834 1417.31 L104.834 1447.93 L112.473 1447.93 L112.473 1451.87 L92.566 1451.87 L92.566 1447.93 Z" fill="#000000" fill-rule="nonzero" fill-opacity="1" /><path clip-path="url(#clip850)" d="M121.918 1445.99 L126.802 1445.99 L126.802 1451.87 L121.918 1451.87 L121.918 1445.99 Z" fill="#000000" fill-rule="nonzero" fill-opacity="1" /><path clip-path="url(#clip850)" d="M137.033 1417.31 L155.39 1417.31 L155.39 1421.24 L141.316 1421.24 L141.316 1429.71 Q142.334 1429.37 143.353 1429.2 Q144.371 1429.02 145.39 1429.02 Q151.177 1429.02 154.556 1432.19 Q157.936 1435.36 157.936 1440.78 Q157.936 1446.36 154.464 1449.46 Q150.992 1452.54 144.672 1452.54 Q142.496 1452.54 140.228 1452.17 Q137.982 1451.8 135.575 1451.06 L135.575 1446.36 Q137.658 1447.49 139.881 1448.05 Q142.103 1448.6 144.58 1448.6 Q148.584 1448.6 150.922 1446.5 Q153.26 1444.39 153.26 1440.78 Q153.26 1437.17 150.922 1435.06 Q148.584 1432.95 144.58 1432.95 Q142.705 1432.95 140.83 1433.37 Q138.978 1433.79 137.033 1434.67 L137.033 1417.31 Z" fill="#000000" fill-rule="nonzero" fill-opacity="1" /><path clip-path="url(#clip850)" d="M50.9921 1212.46 L80.6679 1212.46 L80.6679 1216.39 L50.9921 1216.39 L50.9921 1212.46 Z" fill="#000000" fill-rule="nonzero" fill-opacity="1" /><path clip-path="url(#clip850)" d="M91.5706 1225.35 L99.2095 1225.35 L99.2095 1198.99 L90.8993 1200.65 L90.8993 1196.39 L99.1632 1194.73 L103.839 1194.73 L103.839 1225.35 L111.478 1225.35 L111.478 1229.29 L91.5706 1229.29 L91.5706 1225.35 Z" fill="#000000" fill-rule="nonzero" fill-opacity="1" /><path clip-path="url(#clip850)" d="M120.922 1223.41 L125.807 1223.41 L125.807 1229.29 L120.922 1229.29 L120.922 1223.41 Z" fill="#000000" fill-rule="nonzero" fill-opacity="1" /><path clip-path="url(#clip850)" d="M145.992 1197.8 Q142.381 1197.8 140.552 1201.37 Q138.746 1204.91 138.746 1212.04 Q138.746 1219.15 140.552 1222.71 Q142.381 1226.25 145.992 1226.25 Q149.626 1226.25 151.431 1222.71 Q153.26 1219.15 153.26 1212.04 Q153.26 1204.91 151.431 1201.37 Q149.626 1197.8 145.992 1197.8 M145.992 1194.1 Q151.802 1194.1 154.857 1198.71 Q157.936 1203.29 157.936 1212.04 Q157.936 1220.77 154.857 1225.37 Q151.802 1229.96 145.992 1229.96 Q140.181 1229.96 137.103 1225.37 Q134.047 1220.77 134.047 1212.04 Q134.047 1203.29 137.103 1198.71 Q140.181 1194.1 145.992 1194.1 Z" fill="#000000" fill-rule="nonzero" fill-opacity="1" /><path clip-path="url(#clip850)" d="M51.9875 989.877 L81.6633 989.877 L81.6633 993.812 L51.9875 993.812 L51.9875 989.877 Z" fill="#000000" fill-rule="nonzero" fill-opacity="1" /><path clip-path="url(#clip850)" d="M101.756 975.225 Q98.1447 975.225 96.316 978.789 Q94.5104 982.331 94.5104 989.461 Q94.5104 996.567 96.316 1000.13 Q98.1447 1003.67 101.756 1003.67 Q105.39 1003.67 107.196 1000.13 Q109.024 996.567 109.024 989.461 Q109.024 982.331 107.196 978.789 Q105.39 975.225 101.756 975.225 M101.756 971.521 Q107.566 971.521 110.621 976.127 Q113.7 980.711 113.7 989.461 Q113.7 998.187 110.621 1002.79 Q107.566 1007.38 101.756 1007.38 Q95.9456 1007.38 92.8669 1002.79 Q89.8114 998.187 89.8114 989.461 Q89.8114 980.711 92.8669 976.127 Q95.9456 971.521 101.756 971.521 Z" fill="#000000" fill-rule="nonzero" fill-opacity="1" /><path clip-path="url(#clip850)" d="M121.918 1000.83 L126.802 1000.83 L126.802 1006.71 L121.918 1006.71 L121.918 1000.83 Z" fill="#000000" fill-rule="nonzero" fill-opacity="1" /><path clip-path="url(#clip850)" d="M137.033 972.146 L155.39 972.146 L155.39 976.081 L141.316 976.081 L141.316 984.553 Q142.334 984.206 143.353 984.044 Q144.371 983.859 145.39 983.859 Q151.177 983.859 154.556 987.03 Q157.936 990.201 157.936 995.618 Q157.936 1001.2 154.464 1004.3 Q150.992 1007.38 144.672 1007.38 Q142.496 1007.38 140.228 1007.01 Q137.982 1006.64 135.575 1005.9 L135.575 1001.2 Q137.658 1002.33 139.881 1002.89 Q142.103 1003.44 144.58 1003.44 Q148.584 1003.44 150.922 1001.34 Q153.26 999.229 153.26 995.618 Q153.26 992.007 150.922 989.9 Q148.584 987.794 144.58 987.794 Q142.705 987.794 140.83 988.211 Q138.978 988.627 137.033 989.507 L137.033 972.146 Z" fill="#000000" fill-rule="nonzero" fill-opacity="1" /><path clip-path="url(#clip850)" d="M100.76 752.645 Q97.1493 752.645 95.3206 756.209 Q93.515 759.751 93.515 766.881 Q93.515 773.987 95.3206 777.552 Q97.1493 781.094 100.76 781.094 Q104.395 781.094 106.2 777.552 Q108.029 773.987 108.029 766.881 Q108.029 759.751 106.2 756.209 Q104.395 752.645 100.76 752.645 M100.76 748.941 Q106.571 748.941 109.626 753.547 Q112.705 758.131 112.705 766.881 Q112.705 775.608 109.626 780.214 Q106.571 784.797 100.76 784.797 Q94.9502 784.797 91.8715 780.214 Q88.816 775.608 88.816 766.881 Q88.816 758.131 91.8715 753.547 Q94.9502 748.941 100.76 748.941 Z" fill="#000000" fill-rule="nonzero" fill-opacity="1" /><path clip-path="url(#clip850)" d="M120.922 778.246 L125.807 778.246 L125.807 784.126 L120.922 784.126 L120.922 778.246 Z" fill="#000000" fill-rule="nonzero" fill-opacity="1" /><path clip-path="url(#clip850)" d="M145.992 752.645 Q142.381 752.645 140.552 756.209 Q138.746 759.751 138.746 766.881 Q138.746 773.987 140.552 777.552 Q142.381 781.094 145.992 781.094 Q149.626 781.094 151.431 777.552 Q153.26 773.987 153.26 766.881 Q153.26 759.751 151.431 756.209 Q149.626 752.645 145.992 752.645 M145.992 748.941 Q151.802 748.941 154.857 753.547 Q157.936 758.131 157.936 766.881 Q157.936 775.608 154.857 780.214 Q151.802 784.797 145.992 784.797 Q140.181 784.797 137.103 780.214 Q134.047 775.608 134.047 766.881 Q134.047 758.131 137.103 753.547 Q140.181 748.941 145.992 748.941 Z" fill="#000000" fill-rule="nonzero" fill-opacity="1" /><path clip-path="url(#clip850)" d="M101.756 530.065 Q98.1447 530.065 96.316 533.63 Q94.5104 537.171 94.5104 544.301 Q94.5104 551.407 96.316 554.972 Q98.1447 558.514 101.756 558.514 Q105.39 558.514 107.196 554.972 Q109.024 551.407 109.024 544.301 Q109.024 537.171 107.196 533.63 Q105.39 530.065 101.756 530.065 M101.756 526.361 Q107.566 526.361 110.621 530.967 Q113.7 535.551 113.7 544.301 Q113.7 553.028 110.621 557.634 Q107.566 562.217 101.756 562.217 Q95.9456 562.217 92.8669 557.634 Q89.8114 553.028 89.8114 544.301 Q89.8114 535.551 92.8669 530.967 Q95.9456 526.361 101.756 526.361 Z" fill="#000000" fill-rule="nonzero" fill-opacity="1" /><path clip-path="url(#clip850)" d="M121.918 555.666 L126.802 555.666 L126.802 561.546 L121.918 561.546 L121.918 555.666 Z" fill="#000000" fill-rule="nonzero" fill-opacity="1" /><path clip-path="url(#clip850)" d="M137.033 526.986 L155.39 526.986 L155.39 530.921 L141.316 530.921 L141.316 539.393 Q142.334 539.046 143.353 538.884 Q144.371 538.699 145.39 538.699 Q151.177 538.699 154.556 541.87 Q157.936 545.041 157.936 550.458 Q157.936 556.037 154.464 559.139 Q150.992 562.217 144.672 562.217 Q142.496 562.217 140.228 561.847 Q137.982 561.477 135.575 560.736 L135.575 556.037 Q137.658 557.171 139.881 557.727 Q142.103 558.282 144.58 558.282 Q148.584 558.282 150.922 556.176 Q153.26 554.069 153.26 550.458 Q153.26 546.847 150.922 544.741 Q148.584 542.634 144.58 542.634 Q142.705 542.634 140.83 543.051 Q138.978 543.467 137.033 544.347 L137.033 526.986 Z" fill="#000000" fill-rule="nonzero" fill-opacity="1" /><path clip-path="url(#clip850)" d="M91.5706 335.031 L99.2095 335.031 L99.2095 308.665 L90.8993 310.332 L90.8993 306.073 L99.1632 304.406 L103.839 304.406 L103.839 335.031 L111.478 335.031 L111.478 338.966 L91.5706 338.966 L91.5706 335.031 Z" fill="#000000" fill-rule="nonzero" fill-opacity="1" /><path clip-path="url(#clip850)" d="M120.922 333.086 L125.807 333.086 L125.807 338.966 L120.922 338.966 L120.922 333.086 Z" fill="#000000" fill-rule="nonzero" fill-opacity="1" /><path clip-path="url(#clip850)" d="M145.992 307.485 Q142.381 307.485 140.552 311.05 Q138.746 314.591 138.746 321.721 Q138.746 328.827 140.552 332.392 Q142.381 335.934 145.992 335.934 Q149.626 335.934 151.431 332.392 Q153.26 328.827 153.26 321.721 Q153.26 314.591 151.431 311.05 Q149.626 307.485 145.992 307.485 M145.992 303.781 Q151.802 303.781 154.857 308.388 Q157.936 312.971 157.936 321.721 Q157.936 330.448 154.857 335.054 Q151.802 339.637 145.992 339.637 Q140.181 339.637 137.103 335.054 Q134.047 330.448 134.047 321.721 Q134.047 312.971 137.103 308.388 Q140.181 303.781 145.992 303.781 Z" fill="#000000" fill-rule="nonzero" fill-opacity="1" /><path clip-path="url(#clip850)" d="M92.566 112.451 L100.205 112.451 L100.205 86.0854 L91.8947 87.752 L91.8947 83.4928 L100.159 81.8261 L104.834 81.8261 L104.834 112.451 L112.473 112.451 L112.473 116.386 L92.566 116.386 L92.566 112.451 Z" fill="#000000" fill-rule="nonzero" fill-opacity="1" /><path clip-path="url(#clip850)" d="M121.918 110.507 L126.802 110.507 L126.802 116.386 L121.918 116.386 L121.918 110.507 Z" fill="#000000" fill-rule="nonzero" fill-opacity="1" /><path clip-path="url(#clip850)" d="M137.033 81.8261 L155.39 81.8261 L155.39 85.7613 L141.316 85.7613 L141.316 94.2335 Q142.334 93.8863 143.353 93.7242 Q144.371 93.539 145.39 93.539 Q151.177 93.539 154.556 96.7103 Q157.936 99.8816 157.936 105.298 Q157.936 110.877 154.464 113.979 Q150.992 117.057 144.672 117.057 Q142.496 117.057 140.228 116.687 Q137.982 116.317 135.575 115.576 L135.575 110.877 Q137.658 112.011 139.881 112.567 Q142.103 113.122 144.58 113.122 Q148.584 113.122 150.922 111.016 Q153.26 108.909 153.26 105.298 Q153.26 101.687 150.922 99.5807 Q148.584 97.4742 144.58 97.4742 Q142.705 97.4742 140.83 97.8909 Q138.978 98.3075 137.033 99.1872 L137.033 81.8261 Z" fill="#000000" fill-rule="nonzero" fill-opacity="1" /><path clip-path="url(#clip852)" d="M225.097 1212.01 L234 1212.01 L242.904 1212.01 L251.807 1212.01 L260.71 1212.01 L269.613 1212.01 L278.516 1212.01 L287.42 1212.01 L296.323 1212.01 L305.226 1212.01 L314.129 1212.01 L323.032 1212.01 L331.936 1212.01 L340.839 1212.01 L349.742 1212.01 L358.645 1212.01 L367.548 1212.01 L376.452 1212.01 L385.355 1212.01 L394.258 1212.01 L403.161 1212.01 L412.064 1212.01 L420.968 1212.01 L429.871 1212.01 L438.774 1212.01 L447.677 1212.01 L456.58 1212.01 L465.484 1212.01 L474.387 1212.01 L483.29 1212.01 L492.193 1212.01 L501.096 1212.01 L510 1212.01 L518.903 1212.01 L527.806 1212.01 L536.709 1212.01 L545.612 1212.01 L554.516 1212.01 L563.419 1212.01 L572.322 1212.01 L581.225 1212.01 L590.128 1212.01 L599.031 1212.01 L607.935 1212.01 L616.838 1212.01 L625.741 1212.01 L634.644 1212.01 L643.547 1212.01 L652.451 1212.01 L661.354 1212.01 L670.257 1212.01 L679.16 1212.01 L688.063 1212.01 L696.967 1212.01 L705.87 1212.01 L714.773 1212.01 L723.676 1212.01 L732.579 1212.01 L741.483 1212.01 L750.386 1212.01 L759.289 1212.01 L768.192 1212.01 L777.095 1212.01 L785.999 1212.01 L794.902 1212.01 L803.805 1212.01 L812.708 1212.01 L821.611 1212.01 L830.515 1212.01 L839.418 1212.01 L848.321 1212.01 L857.224 1212.01 L866.127 1212.01 L875.031 1212.01 L883.934 1212.01 L892.837 1212.01 L901.74 1212.01 L910.643 1212.01 L919.547 1212.01 L928.45 1212.01 L937.353 1212.01 L946.256 1212.01 L955.159 1212.01 L964.063 1212.01 L972.966 1212.01 L981.869 1212.01 L990.772 1212.01 L999.675 1212.01 L1008.58 1212.01 L1017.48 1212.01 L1026.38 1212.01 L1035.29 1212.01 L1044.19 1212.01 L1053.09 1212.01 L1062 1212.01 L1070.9 1212.01 L1079.8 1212.01 L1088.71 1212.01 L1097.61 1212.01 L1106.51 1212.01 L1110.97 1207.55 L1110.97 1198.65 L1110.97 1189.75 L1110.97 1180.84 L1110.97 1171.94 L1110.97 1163.04 L1110.97 1154.14 L1110.97 1145.23 L1110.97 1136.33 L1110.97 1127.43 L1110.97 1118.52 L1110.97 1109.62 L1110.97 1100.72 L1110.97 1091.81 L1110.97 1082.91 L1110.97 1074.01 L1110.97 1065.1 L1110.97 1056.2 L1110.97 1047.3 L1110.97 1038.39 L1110.97 1029.49 L1110.97 1020.59 L1110.97 1011.68 L1110.97 1002.78 L1110.97 993.878 L1110.97 984.974 L1110.97 976.071 L1110.97 967.168 L1110.97 958.265 L1110.97 949.362 L1110.97 940.458 L1110.97 931.555 L1110.97 922.652 L1110.97 913.749 L1110.97 904.846 L1110.97 895.942 L1110.97 887.039 L1110.97 878.136 L1110.97 869.233 L1110.97 860.33 L1110.97 851.426 L1110.97 842.523 L1110.97 833.62 L1110.97 824.717 L1110.97 815.814 L1110.97 806.91 L1110.97 798.007 L1110.97 789.104 L1110.97 780.201 L1110.97 771.298 L1110.97 762.394 L1110.97 753.491 L1110.97 744.588 L1110.97 735.685 L1110.97 726.782 L1110.97 717.878 L1110.97 708.975 L1110.97 700.072 L1110.97 691.169 L1110.97 682.266 L1110.97 673.362 L1110.97 664.459 L1110.97 655.556 L1110.97 646.653 L1110.97 637.75 L1110.97 628.846 L1110.97 619.943 L1110.97 611.04 L1110.97 602.137 L1110.97 593.234 L1110.97 584.33 L1110.97 575.427 L1110.97 566.524 L1110.97 557.621 L1110.97 548.718 L1110.97 539.814 L1110.97 530.911 L1110.97 522.008 L1110.97 513.105 L1110.97 504.202 L1110.97 495.298 L1110.97 486.395 L1110.97 477.492 L1110.97 468.589 L1110.97 459.686 L1110.97 450.782 L1110.97 441.879 L1110.97 432.976 L1110.97 424.073 L1110.97 415.17 L1110.97 406.266 L1110.97 397.363 L1110.97 388.46 L1110.97 379.557 L1110.97 370.654 L1110.97 361.75 L1110.97 352.847 L1110.97 343.944 L1110.97 335.041 L1110.97 326.138 L1106.51 321.686 L1097.61 321.686 L1088.71 321.686 L1079.8 321.686 L1070.9 321.686 L1062 321.686 L1053.09 321.686 L1044.19 321.686 L1035.29 321.686 L1026.38 321.686 L1017.48 321.686 L1008.58 321.686 L999.675 321.686 L990.772 321.686 L981.869 321.686 L972.966 321.686 L964.063 321.686 L955.159 321.686 L946.256 321.686 L937.353 321.686 L928.45 321.686 L919.547 321.686 L910.643 321.686 L901.74 321.686 L892.837 321.686 L883.934 321.686 L875.031 321.686 L866.127 321.686 L857.224 321.686 L848.321 321.686 L839.418 321.686 L830.515 321.686 L821.611 321.686 L812.708 321.686 L803.805 321.686 L794.902 321.686 L785.999 321.686 L777.095 321.686 L768.192 321.686 L759.289 321.686 L750.386 321.686 L741.483 321.686 L732.579 321.686 L723.676 321.686 L714.773 321.686 L705.87 321.686 L696.967 321.686 L688.063 321.686 L679.16 321.686 L670.257 321.686 L661.354 321.686 L652.451 321.686 L643.547 321.686 L634.644 321.686 L625.741 321.686 L616.838 321.686 L607.935 321.686 L599.031 321.686 L590.128 321.686 L581.225 321.686 L572.322 321.686 L563.419 321.686 L554.516 321.686 L545.612 321.686 L536.709 321.686 L527.806 321.686 L518.903 321.686 L510 321.686 L501.096 321.686 L492.193 321.686 L483.29 321.686 L474.387 321.686 L465.484 321.686 L456.58 321.686 L447.677 321.686 L438.774 321.686 L429.871 321.686 L420.968 321.686 L412.064 321.686 L403.161 321.686 L394.258 321.686 L385.355 321.686 L376.452 321.686 L367.548 321.686 L358.645 321.686 L349.742 321.686 L340.839 321.686 L331.936 321.686 L323.032 321.686 L314.129 321.686 L305.226 321.686 L296.323 321.686 L287.42 321.686 L278.516 321.686 L269.613 321.686 L260.71 321.686 L251.807 321.686 L242.904 321.686 L234 321.686 L225.097 321.686 L220.646 326.138 L220.646 335.041 L220.646 343.944 L220.646 352.847 L220.646 361.75 L220.646 370.654 L220.646 379.557 L220.646 388.46 L220.646 397.363 L220.646 406.266 L220.646 415.17 L220.646 424.073 L220.646 432.976 L220.646 441.879 L220.646 450.782 L220.646 459.686 L220.646 468.589 L220.646 477.492 L220.646 486.395 L220.646 495.298 L220.646 504.202 L220.646 513.105 L220.646 522.008 L220.646 530.911 L220.646 539.814 L220.646 548.718 L220.646 557.621 L220.646 566.524 L220.646 575.427 L220.646 584.33 L220.646 593.234 L220.646 602.137 L220.646 611.04 L220.646 619.943 L220.646 628.846 L220.646 637.75 L220.646 646.653 L220.646 655.556 L220.646 664.459 L220.646 673.362 L220.646 682.266 L220.646 691.169 L220.646 700.072 L220.646 708.975 L220.646 717.878 L220.646 726.782 L220.646 735.685 L220.646 744.588 L220.646 753.491 L220.646 762.394 L220.646 771.298 L220.646 780.201 L220.646 789.104 L220.646 798.007 L220.646 806.91 L220.646 815.814 L220.646 824.717 L220.646 833.62 L220.646 842.523 L220.646 851.426 L220.646 860.33 L220.646 869.233 L220.646 878.136 L220.646 887.039 L220.646 895.942 L220.646 904.846 L220.646 913.749 L220.646 922.652 L220.646 931.555 L220.646 940.458 L220.646 949.362 L220.646 958.265 L220.646 967.168 L220.646 976.071 L220.646 984.974 L220.646 993.878 L220.646 1002.78 L220.646 1011.68 L220.646 1020.59 L220.646 1029.49 L220.646 1038.39 L220.646 1047.3 L220.646 1056.2 L220.646 1065.1 L220.646 1074.01 L220.646 1082.91 L220.646 1091.81 L220.646 1100.72 L220.646 1109.62 L220.646 1118.52 L220.646 1127.43 L220.646 1136.33 L220.646 1145.23 L220.646 1154.14 L220.646 1163.04 L220.646 1171.94 L220.646 1180.84 L220.646 1189.75 L220.646 1198.65 L220.646 1207.55 L225.097 1212.01 L225.097 766.846 L220.646 766.846 L220.646 766.846 L220.646 766.846 L220.646 766.846 L220.646 766.846 L220.646 766.846 L220.646 766.846 L220.646 766.846 L220.646 766.846 L220.646 766.846 L220.646 766.846 L220.646 766.846 L220.646 766.846 L220.646 766.846 L220.646 766.846 L220.646 766.846 L220.646 766.846 L220.646 766.846 L220.646 766.846 L220.646 766.846 L220.646 766.846 L220.646 766.846 L220.646 766.846 L220.646 766.846 L220.646 766.846 L220.646 766.846 L220.646 766.846 L220.646 766.846 L220.646 766.846 L220.646 766.846 L220.646 766.846 L220.646 766.846 L220.646 766.846 L220.646 766.846 L220.646 766.846 L220.646 766.846 L220.646 766.846 L220.646 766.846 L220.646 766.846 L220.646 766.846 L220.646 766.846 L220.646 766.846 L220.646 766.846 L220.646 766.846 L220.646 766.846 L220.646 766.846 L220.646 766.846 L220.646 766.846 L220.646 766.846 L220.646 766.846 L220.646 766.846 L220.646 766.846 L220.646 766.846 L220.646 766.846 L220.646 766.846 L220.646 766.846 L220.646 766.846 L220.646 766.846 L220.646 766.846 L220.646 766.846 L220.646 766.846 L220.646 766.846 L220.646 766.846 L220.646 766.846 L220.646 766.846 L220.646 766.846 L220.646 766.846 L220.646 766.846 L220.646 766.846 L220.646 766.846 L220.646 766.846 L220.646 766.846 L220.646 766.846 L220.646 766.846 L220.646 766.846 L220.646 766.846 L220.646 766.846 L220.646 766.846 L220.646 766.846 L220.646 766.846 L220.646 766.846 L220.646 766.846 L220.646 766.846 L220.646 766.846 L220.646 766.846 L220.646 766.846 L220.646 766.846 L220.646 766.846 L220.646 766.846 L220.646 766.846 L220.646 766.846 L220.646 766.846 L220.646 766.846 L220.646 766.846 L220.646 766.846 L220.646 766.846 L220.646 766.846 L220.646 766.846 L220.646 766.846 L220.646 766.846 L225.097 766.846 L234 766.846 L242.904 766.846 L251.807 766.846 L260.71 766.846 L269.613 766.846 L278.516 766.846 L287.42 766.846 L296.323 766.846 L305.226 766.846 L314.129 766.846 L323.032 766.846 L331.936 766.846 L340.839 766.846 L349.742 766.846 L358.645 766.846 L367.548 766.846 L376.452 766.846 L385.355 766.846 L394.258 766.846 L403.161 766.846 L412.064 766.846 L420.968 766.846 L429.871 766.846 L438.774 766.846 L447.677 766.846 L456.58 766.846 L465.484 766.846 L474.387 766.846 L483.29 766.846 L492.193 766.846 L501.096 766.846 L510 766.846 L518.903 766.846 L527.806 766.846 L536.709 766.846 L545.612 766.846 L554.516 766.846 L563.419 766.846 L572.322 766.846 L581.225 766.846 L590.128 766.846 L599.031 766.846 L607.935 766.846 L616.838 766.846 L625.741 766.846 L634.644 766.846 L643.547 766.846 L652.451 766.846 L661.354 766.846 L670.257 766.846 L679.16 766.846 L688.063 766.846 L696.967 766.846 L705.87 766.846 L714.773 766.846 L723.676 766.846 L732.579 766.846 L741.483 766.846 L750.386 766.846 L759.289 766.846 L768.192 766.846 L777.095 766.846 L785.999 766.846 L794.902 766.846 L803.805 766.846 L812.708 766.846 L821.611 766.846 L830.515 766.846 L839.418 766.846 L848.321 766.846 L857.224 766.846 L866.127 766.846 L875.031 766.846 L883.934 766.846 L892.837 766.846 L901.74 766.846 L910.643 766.846 L919.547 766.846 L928.45 766.846 L937.353 766.846 L946.256 766.846 L955.159 766.846 L964.063 766.846 L972.966 766.846 L981.869 766.846 L990.772 766.846 L999.675 766.846 L1008.58 766.846 L1017.48 766.846 L1026.38 766.846 L1035.29 766.846 L1044.19 766.846 L1053.09 766.846 L1062 766.846 L1070.9 766.846 L1079.8 766.846 L1088.71 766.846 L1097.61 766.846 L1106.51 766.846 L1110.97 766.846 L1110.97 766.846 L1110.97 766.846 L1110.97 766.846 L1110.97 766.846 L1110.97 766.846 L1110.97 766.846 L1110.97 766.846 L1110.97 766.846 L1110.97 766.846 L1110.97 766.846 L1110.97 766.846 L1110.97 766.846 L1110.97 766.846 L1110.97 766.846 L1110.97 766.846 L1110.97 766.846 L1110.97 766.846 L1110.97 766.846 L1110.97 766.846 L1110.97 766.846 L1110.97 766.846 L1110.97 766.846 L1110.97 766.846 L1110.97 766.846 L1110.97 766.846 L1110.97 766.846 L1110.97 766.846 L1110.97 766.846 L1110.97 766.846 L1110.97 766.846 L1110.97 766.846 L1110.97 766.846 L1110.97 766.846 L1110.97 766.846 L1110.97 766.846 L1110.97 766.846 L1110.97 766.846 L1110.97 766.846 L1110.97 766.846 L1110.97 766.846 L1110.97 766.846 L1110.97 766.846 L1110.97 766.846 L1110.97 766.846 L1110.97 766.846 L1110.97 766.846 L1110.97 766.846 L1110.97 766.846 L1110.97 766.846 L1110.97 766.846 L1110.97 766.846 L1110.97 766.846 L1110.97 766.846 L1110.97 766.846 L1110.97 766.846 L1110.97 766.846 L1110.97 766.846 L1110.97 766.846 L1110.97 766.846 L1110.97 766.846 L1110.97 766.846 L1110.97 766.846 L1110.97 766.846 L1110.97 766.846 L1110.97 766.846 L1110.97 766.846 L1110.97 766.846 L1110.97 766.846 L1110.97 766.846 L1110.97 766.846 L1110.97 766.846 L1110.97 766.846 L1110.97 766.846 L1110.97 766.846 L1110.97 766.846 L1110.97 766.846 L1110.97 766.846 L1110.97 766.846 L1110.97 766.846 L1110.97 766.846 L1110.97 766.846 L1110.97 766.846 L1110.97 766.846 L1110.97 766.846 L1110.97 766.846 L1110.97 766.846 L1110.97 766.846 L1110.97 766.846 L1110.97 766.846 L1110.97 766.846 L1110.97 766.846 L1110.97 766.846 L1110.97 766.846 L1110.97 766.846 L1110.97 766.846 L1110.97 766.846 L1110.97 766.846 L1110.97 766.846 L1110.97 766.846 L1106.51 766.846 L1097.61 766.846 L1088.71 766.846 L1079.8 766.846 L1070.9 766.846 L1062 766.846 L1053.09 766.846 L1044.19 766.846 L1035.29 766.846 L1026.38 766.846 L1017.48 766.846 L1008.58 766.846 L999.675 766.846 L990.772 766.846 L981.869 766.846 L972.966 766.846 L964.063 766.846 L955.159 766.846 L946.256 766.846 L937.353 766.846 L928.45 766.846 L919.547 766.846 L910.643 766.846 L901.74 766.846 L892.837 766.846 L883.934 766.846 L875.031 766.846 L866.127 766.846 L857.224 766.846 L848.321 766.846 L839.418 766.846 L830.515 766.846 L821.611 766.846 L812.708 766.846 L803.805 766.846 L794.902 766.846 L785.999 766.846 L777.095 766.846 L768.192 766.846 L759.289 766.846 L750.386 766.846 L741.483 766.846 L732.579 766.846 L723.676 766.846 L714.773 766.846 L705.87 766.846 L696.967 766.846 L688.063 766.846 L679.16 766.846 L670.257 766.846 L661.354 766.846 L652.451 766.846 L643.547 766.846 L634.644 766.846 L625.741 766.846 L616.838 766.846 L607.935 766.846 L599.031 766.846 L590.128 766.846 L581.225 766.846 L572.322 766.846 L563.419 766.846 L554.516 766.846 L545.612 766.846 L536.709 766.846 L527.806 766.846 L518.903 766.846 L510 766.846 L501.096 766.846 L492.193 766.846 L483.29 766.846 L474.387 766.846 L465.484 766.846 L456.58 766.846 L447.677 766.846 L438.774 766.846 L429.871 766.846 L420.968 766.846 L412.064 766.846 L403.161 766.846 L394.258 766.846 L385.355 766.846 L376.452 766.846 L367.548 766.846 L358.645 766.846 L349.742 766.846 L340.839 766.846 L331.936 766.846 L323.032 766.846 L314.129 766.846 L305.226 766.846 L296.323 766.846 L287.42 766.846 L278.516 766.846 L269.613 766.846 L260.71 766.846 L251.807 766.846 L242.904 766.846 L234 766.846 L225.097 766.846  Z" fill="#97b476" fill-rule="evenodd" fill-opacity="1"/>
<polyline clip-path="url(#clip852)" style="stroke:#97b476; stroke-linecap:round; stroke-linejoin:round; stroke-width:4; stroke-opacity:1; fill:none" points="225.097,1212.01 234,1212.01 242.904,1212.01 251.807,1212.01 260.71,1212.01 269.613,1212.01 278.516,1212.01 287.42,1212.01 296.323,1212.01 305.226,1212.01 314.129,1212.01 323.032,1212.01 331.936,1212.01 340.839,1212.01 349.742,1212.01 358.645,1212.01 367.548,1212.01 376.452,1212.01 385.355,1212.01 394.258,1212.01 403.161,1212.01 412.064,1212.01 420.968,1212.01 429.871,1212.01 438.774,1212.01 447.677,1212.01 456.58,1212.01 465.484,1212.01 474.387,1212.01 483.29,1212.01 492.193,1212.01 501.096,1212.01 510,1212.01 518.903,1212.01 527.806,1212.01 536.709,1212.01 545.612,1212.01 554.516,1212.01 563.419,1212.01 572.322,1212.01 581.225,1212.01 590.128,1212.01 599.031,1212.01 607.935,1212.01 616.838,1212.01 625.741,1212.01 634.644,1212.01 643.547,1212.01 652.451,1212.01 661.354,1212.01 670.257,1212.01 679.16,1212.01 688.063,1212.01 696.967,1212.01 705.87,1212.01 714.773,1212.01 723.676,1212.01 732.579,1212.01 741.483,1212.01 750.386,1212.01 759.289,1212.01 768.192,1212.01 777.095,1212.01 785.999,1212.01 794.902,1212.01 803.805,1212.01 812.708,1212.01 821.611,1212.01 830.515,1212.01 839.418,1212.01 848.321,1212.01 857.224,1212.01 866.127,1212.01 875.031,1212.01 883.934,1212.01 892.837,1212.01 901.74,1212.01 910.643,1212.01 919.547,1212.01 928.45,1212.01 937.353,1212.01 946.256,1212.01 955.159,1212.01 964.063,1212.01 972.966,1212.01 981.869,1212.01 990.772,1212.01 999.675,1212.01 1008.58,1212.01 1017.48,1212.01 1026.38,1212.01 1035.29,1212.01 1044.19,1212.01 1053.09,1212.01 1062,1212.01 1070.9,1212.01 1079.8,1212.01 1088.71,1212.01 1097.61,1212.01 1106.51,1212.01 1110.97,1207.55 1110.97,1198.65 1110.97,1189.75 1110.97,1180.84 1110.97,1171.94 1110.97,1163.04 1110.97,1154.14 1110.97,1145.23 1110.97,1136.33 1110.97,1127.43 1110.97,1118.52 1110.97,1109.62 1110.97,1100.72 1110.97,1091.81 1110.97,1082.91 1110.97,1074.01 1110.97,1065.1 1110.97,1056.2 1110.97,1047.3 1110.97,1038.39 1110.97,1029.49 1110.97,1020.59 1110.97,1011.68 1110.97,1002.78 1110.97,993.878 1110.97,984.974 1110.97,976.071 1110.97,967.168 1110.97,958.265 1110.97,949.362 1110.97,940.458 1110.97,931.555 1110.97,922.652 1110.97,913.749 1110.97,904.846 1110.97,895.942 1110.97,887.039 1110.97,878.136 1110.97,869.233 1110.97,860.33 1110.97,851.426 1110.97,842.523 1110.97,833.62 1110.97,824.717 1110.97,815.814 1110.97,806.91 1110.97,798.007 1110.97,789.104 1110.97,780.201 1110.97,771.298 1110.97,762.394 1110.97,753.491 1110.97,744.588 1110.97,735.685 1110.97,726.782 1110.97,717.878 1110.97,708.975 1110.97,700.072 1110.97,691.169 1110.97,682.266 1110.97,673.362 1110.97,664.459 1110.97,655.556 1110.97,646.653 1110.97,637.75 1110.97,628.846 1110.97,619.943 1110.97,611.04 1110.97,602.137 1110.97,593.234 1110.97,584.33 1110.97,575.427 1110.97,566.524 1110.97,557.621 1110.97,548.718 1110.97,539.814 1110.97,530.911 1110.97,522.008 1110.97,513.105 1110.97,504.202 1110.97,495.298 1110.97,486.395 1110.97,477.492 1110.97,468.589 1110.97,459.686 1110.97,450.782 1110.97,441.879 1110.97,432.976 1110.97,424.073 1110.97,415.17 1110.97,406.266 1110.97,397.363 1110.97,388.46 1110.97,379.557 1110.97,370.654 1110.97,361.75 1110.97,352.847 1110.97,343.944 1110.97,335.041 1110.97,326.138 1106.51,321.686 1097.61,321.686 1088.71,321.686 1079.8,321.686 1070.9,321.686 1062,321.686 1053.09,321.686 1044.19,321.686 1035.29,321.686 1026.38,321.686 1017.48,321.686 1008.58,321.686 999.675,321.686 990.772,321.686 981.869,321.686 972.966,321.686 964.063,321.686 955.159,321.686 946.256,321.686 937.353,321.686 928.45,321.686 919.547,321.686 910.643,321.686 901.74,321.686 892.837,321.686 883.934,321.686 875.031,321.686 866.127,321.686 857.224,321.686 848.321,321.686 839.418,321.686 830.515,321.686 821.611,321.686 812.708,321.686 803.805,321.686 794.902,321.686 785.999,321.686 777.095,321.686 768.192,321.686 759.289,321.686 750.386,321.686 741.483,321.686 732.579,321.686 723.676,321.686 714.773,321.686 705.87,321.686 696.967,321.686 688.063,321.686 679.16,321.686 670.257,321.686 661.354,321.686 652.451,321.686 643.547,321.686 634.644,321.686 625.741,321.686 616.838,321.686 607.935,321.686 599.031,321.686 590.128,321.686 581.225,321.686 572.322,321.686 563.419,321.686 554.516,321.686 545.612,321.686 536.709,321.686 527.806,321.686 518.903,321.686 510,321.686 501.096,321.686 492.193,321.686 483.29,321.686 474.387,321.686 465.484,321.686 456.58,321.686 447.677,321.686 438.774,321.686 429.871,321.686 420.968,321.686 412.064,321.686 403.161,321.686 394.258,321.686 385.355,321.686 376.452,321.686 367.548,321.686 358.645,321.686 349.742,321.686 340.839,321.686 331.936,321.686 323.032,321.686 314.129,321.686 305.226,321.686 296.323,321.686 287.42,321.686 278.516,321.686 269.613,321.686 260.71,321.686 251.807,321.686 242.904,321.686 234,321.686 225.097,321.686 220.646,326.138 220.646,335.041 220.646,343.944 220.646,352.847 220.646,361.75 220.646,370.654 220.646,379.557 220.646,388.46 220.646,397.363 220.646,406.266 220.646,415.17 220.646,424.073 220.646,432.976 220.646,441.879 220.646,450.782 220.646,459.686 220.646,468.589 220.646,477.492 220.646,486.395 220.646,495.298 220.646,504.202 220.646,513.105 220.646,522.008 220.646,530.911 220.646,539.814 220.646,548.718 220.646,557.621 220.646,566.524 220.646,575.427 220.646,584.33 220.646,593.234 220.646,602.137 220.646,611.04 220.646,619.943 220.646,628.846 220.646,637.75 220.646,646.653 220.646,655.556 220.646,664.459 220.646,673.362 220.646,682.266 220.646,691.169 220.646,700.072 220.646,708.975 220.646,717.878 220.646,726.782 220.646,735.685 220.646,744.588 220.646,753.491 220.646,762.394 220.646,771.298 220.646,780.201 220.646,789.104 220.646,798.007 220.646,806.91 220.646,815.814 220.646,824.717 220.646,833.62 220.646,842.523 220.646,851.426 220.646,860.33 220.646,869.233 220.646,878.136 220.646,887.039 220.646,895.942 220.646,904.846 220.646,913.749 220.646,922.652 220.646,931.555 220.646,940.458 220.646,949.362 220.646,958.265 220.646,967.168 220.646,976.071 220.646,984.974 220.646,993.878 220.646,1002.78 220.646,1011.68 220.646,1020.59 220.646,1029.49 220.646,1038.39 220.646,1047.3 220.646,1056.2 220.646,1065.1 220.646,1074.01 220.646,1082.91 220.646,1091.81 220.646,1100.72 220.646,1109.62 220.646,1118.52 220.646,1127.43 220.646,1136.33 220.646,1145.23 220.646,1154.14 220.646,1163.04 220.646,1171.94 220.646,1180.84 220.646,1189.75 220.646,1198.65 220.646,1207.55 225.097,1212.01 "/>
<path clip-path="url(#clip850)" d="M1409.02 1486.45 L2352.76 1486.45 L2352.76 47.2441 L1409.02 47.2441  Z" fill="#ffffff" fill-rule="evenodd" fill-opacity="1"/>
<defs>
  <clipPath id="clip853">
    <rect x="1409" y="47" width="945" height="1440"/>
  </clipPath>
</defs>
<polyline clip-path="url(#clip850)" style="stroke:#000000; stroke-linecap:round; stroke-linejoin:round; stroke-width:4; stroke-opacity:1; fill:none" points="1409.02,1486.45 2352.76,1486.45 "/>
<polyline clip-path="url(#clip850)" style="stroke:#000000; stroke-linecap:round; stroke-linejoin:round; stroke-width:4; stroke-opacity:1; fill:none" points="1509.92,1486.45 1509.92,1467.55 "/>
<polyline clip-path="url(#clip850)" style="stroke:#000000; stroke-linecap:round; stroke-linejoin:round; stroke-width:4; stroke-opacity:1; fill:none" points="1695.4,1486.45 1695.4,1467.55 "/>
<polyline clip-path="url(#clip850)" style="stroke:#000000; stroke-linecap:round; stroke-linejoin:round; stroke-width:4; stroke-opacity:1; fill:none" points="1880.89,1486.45 1880.89,1467.55 "/>
<polyline clip-path="url(#clip850)" style="stroke:#000000; stroke-linecap:round; stroke-linejoin:round; stroke-width:4; stroke-opacity:1; fill:none" points="2066.37,1486.45 2066.37,1467.55 "/>
<polyline clip-path="url(#clip850)" style="stroke:#000000; stroke-linecap:round; stroke-linejoin:round; stroke-width:4; stroke-opacity:1; fill:none" points="2251.85,1486.45 2251.85,1467.55 "/>
<path clip-path="url(#clip850)" d="M1441.37 1532.02 L1471.04 1532.02 L1471.04 1535.95 L1441.37 1535.95 L1441.37 1532.02 Z" fill="#000000" fill-rule="nonzero" fill-opacity="1" /><path clip-path="url(#clip850)" d="M1491.14 1517.37 Q1487.52 1517.37 1485.7 1520.93 Q1483.89 1524.47 1483.89 1531.6 Q1483.89 1538.71 1485.7 1542.27 Q1487.52 1545.82 1491.14 1545.82 Q1494.77 1545.82 1496.58 1542.27 Q1498.4 1538.71 1498.4 1531.6 Q1498.4 1524.47 1496.58 1520.93 Q1494.77 1517.37 1491.14 1517.37 M1491.14 1513.66 Q1496.95 1513.66 1500 1518.27 Q1503.08 1522.85 1503.08 1531.6 Q1503.08 1540.33 1500 1544.94 Q1496.95 1549.52 1491.14 1549.52 Q1485.33 1549.52 1482.25 1544.94 Q1479.19 1540.33 1479.19 1531.6 Q1479.19 1522.85 1482.25 1518.27 Q1485.33 1513.66 1491.14 1513.66 Z" fill="#000000" fill-rule="nonzero" fill-opacity="1" /><path clip-path="url(#clip850)" d="M1511.3 1542.97 L1516.18 1542.97 L1516.18 1548.85 L1511.3 1548.85 L1511.3 1542.97 Z" fill="#000000" fill-rule="nonzero" fill-opacity="1" /><path clip-path="url(#clip850)" d="M1526.41 1514.29 L1544.77 1514.29 L1544.77 1518.22 L1530.7 1518.22 L1530.7 1526.7 Q1531.71 1526.35 1532.73 1526.19 Q1533.75 1526 1534.77 1526 Q1540.56 1526 1543.94 1529.17 Q1547.32 1532.34 1547.32 1537.76 Q1547.32 1543.34 1543.84 1546.44 Q1540.37 1549.52 1534.05 1549.52 Q1531.88 1549.52 1529.61 1549.15 Q1527.36 1548.78 1524.95 1548.04 L1524.95 1543.34 Q1527.04 1544.47 1529.26 1545.03 Q1531.48 1545.58 1533.96 1545.58 Q1537.96 1545.58 1540.3 1543.48 Q1542.64 1541.37 1542.64 1537.76 Q1542.64 1534.15 1540.3 1532.04 Q1537.96 1529.94 1533.96 1529.94 Q1532.08 1529.94 1530.21 1530.35 Q1528.36 1530.77 1526.41 1531.65 L1526.41 1514.29 Z" fill="#000000" fill-rule="nonzero" fill-opacity="1" /><path clip-path="url(#clip850)" d="M1566.53 1517.37 Q1562.92 1517.37 1561.09 1520.93 Q1559.28 1524.47 1559.28 1531.6 Q1559.28 1538.71 1561.09 1542.27 Q1562.92 1545.82 1566.53 1545.82 Q1570.16 1545.82 1571.97 1542.27 Q1573.8 1538.71 1573.8 1531.6 Q1573.8 1524.47 1571.97 1520.93 Q1570.16 1517.37 1566.53 1517.37 M1566.53 1513.66 Q1572.34 1513.66 1575.39 1518.27 Q1578.47 1522.85 1578.47 1531.6 Q1578.47 1540.33 1575.39 1544.94 Q1572.34 1549.52 1566.53 1549.52 Q1560.72 1549.52 1557.64 1544.94 Q1554.58 1540.33 1554.58 1531.6 Q1554.58 1522.85 1557.64 1518.27 Q1560.72 1513.66 1566.53 1513.66 Z" fill="#000000" fill-rule="nonzero" fill-opacity="1" /><path clip-path="url(#clip850)" d="M1627.35 1532.02 L1657.02 1532.02 L1657.02 1535.95 L1627.35 1535.95 L1627.35 1532.02 Z" fill="#000000" fill-rule="nonzero" fill-opacity="1" /><path clip-path="url(#clip850)" d="M1677.12 1517.37 Q1673.51 1517.37 1671.68 1520.93 Q1669.87 1524.47 1669.87 1531.6 Q1669.87 1538.71 1671.68 1542.27 Q1673.51 1545.82 1677.12 1545.82 Q1680.75 1545.82 1682.56 1542.27 Q1684.38 1538.71 1684.38 1531.6 Q1684.38 1524.47 1682.56 1520.93 Q1680.75 1517.37 1677.12 1517.37 M1677.12 1513.66 Q1682.93 1513.66 1685.98 1518.27 Q1689.06 1522.85 1689.06 1531.6 Q1689.06 1540.33 1685.98 1544.94 Q1682.93 1549.52 1677.12 1549.52 Q1671.31 1549.52 1668.23 1544.94 Q1665.17 1540.33 1665.17 1531.6 Q1665.17 1522.85 1668.23 1518.27 Q1671.31 1513.66 1677.12 1513.66 Z" fill="#000000" fill-rule="nonzero" fill-opacity="1" /><path clip-path="url(#clip850)" d="M1697.28 1542.97 L1702.16 1542.97 L1702.16 1548.85 L1697.28 1548.85 L1697.28 1542.97 Z" fill="#000000" fill-rule="nonzero" fill-opacity="1" /><path clip-path="url(#clip850)" d="M1716.38 1544.91 L1732.69 1544.91 L1732.69 1548.85 L1710.75 1548.85 L1710.75 1544.91 Q1713.41 1542.16 1718 1537.53 Q1722.6 1532.88 1723.78 1531.53 Q1726.03 1529.01 1726.91 1527.27 Q1727.81 1525.51 1727.81 1523.82 Q1727.81 1521.07 1725.87 1519.33 Q1723.94 1517.6 1720.84 1517.6 Q1718.64 1517.6 1716.19 1518.36 Q1713.76 1519.13 1710.98 1520.68 L1710.98 1515.95 Q1713.81 1514.82 1716.26 1514.24 Q1718.71 1513.66 1720.75 1513.66 Q1726.12 1513.66 1729.31 1516.35 Q1732.51 1519.03 1732.51 1523.52 Q1732.51 1525.65 1731.7 1527.57 Q1730.91 1529.47 1728.81 1532.07 Q1728.23 1532.74 1725.13 1535.95 Q1722.02 1539.15 1716.38 1544.91 Z" fill="#000000" fill-rule="nonzero" fill-opacity="1" /><path clip-path="url(#clip850)" d="M1742.56 1514.29 L1760.91 1514.29 L1760.91 1518.22 L1746.84 1518.22 L1746.84 1526.7 Q1747.86 1526.35 1748.88 1526.19 Q1749.89 1526 1750.91 1526 Q1756.7 1526 1760.08 1529.17 Q1763.46 1532.34 1763.46 1537.76 Q1763.46 1543.34 1759.99 1546.44 Q1756.51 1549.52 1750.19 1549.52 Q1748.02 1549.52 1745.75 1549.15 Q1743.5 1548.78 1741.1 1548.04 L1741.1 1543.34 Q1743.18 1544.47 1745.4 1545.03 Q1747.63 1545.58 1750.1 1545.58 Q1754.11 1545.58 1756.44 1543.48 Q1758.78 1541.37 1758.78 1537.76 Q1758.78 1534.15 1756.44 1532.04 Q1754.11 1529.94 1750.1 1529.94 Q1748.23 1529.94 1746.35 1530.35 Q1744.5 1530.77 1742.56 1531.65 L1742.56 1514.29 Z" fill="#000000" fill-rule="nonzero" fill-opacity="1" /><path clip-path="url(#clip850)" d="M1843.19 1517.37 Q1839.58 1517.37 1837.75 1520.93 Q1835.94 1524.47 1835.94 1531.6 Q1835.94 1538.71 1837.75 1542.27 Q1839.58 1545.82 1843.19 1545.82 Q1846.82 1545.82 1848.63 1542.27 Q1850.46 1538.71 1850.46 1531.6 Q1850.46 1524.47 1848.63 1520.93 Q1846.82 1517.37 1843.19 1517.37 M1843.19 1513.66 Q1849 1513.66 1852.06 1518.27 Q1855.13 1522.85 1855.13 1531.6 Q1855.13 1540.33 1852.06 1544.94 Q1849 1549.52 1843.19 1549.52 Q1837.38 1549.52 1834.3 1544.94 Q1831.25 1540.33 1831.25 1531.6 Q1831.25 1522.85 1834.3 1518.27 Q1837.38 1513.66 1843.19 1513.66 Z" fill="#000000" fill-rule="nonzero" fill-opacity="1" /><path clip-path="url(#clip850)" d="M1863.35 1542.97 L1868.24 1542.97 L1868.24 1548.85 L1863.35 1548.85 L1863.35 1542.97 Z" fill="#000000" fill-rule="nonzero" fill-opacity="1" /><path clip-path="url(#clip850)" d="M1888.42 1517.37 Q1884.81 1517.37 1882.98 1520.93 Q1881.18 1524.47 1881.18 1531.6 Q1881.18 1538.71 1882.98 1542.27 Q1884.81 1545.82 1888.42 1545.82 Q1892.06 1545.82 1893.86 1542.27 Q1895.69 1538.71 1895.69 1531.6 Q1895.69 1524.47 1893.86 1520.93 Q1892.06 1517.37 1888.42 1517.37 M1888.42 1513.66 Q1894.23 1513.66 1897.29 1518.27 Q1900.37 1522.85 1900.37 1531.6 Q1900.37 1540.33 1897.29 1544.94 Q1894.23 1549.52 1888.42 1549.52 Q1882.61 1549.52 1879.53 1544.94 Q1876.48 1540.33 1876.48 1531.6 Q1876.48 1522.85 1879.53 1518.27 Q1882.61 1513.66 1888.42 1513.66 Z" fill="#000000" fill-rule="nonzero" fill-opacity="1" /><path clip-path="url(#clip850)" d="M1918.58 1517.37 Q1914.97 1517.37 1913.14 1520.93 Q1911.34 1524.47 1911.34 1531.6 Q1911.34 1538.71 1913.14 1542.27 Q1914.97 1545.82 1918.58 1545.82 Q1922.22 1545.82 1924.02 1542.27 Q1925.85 1538.71 1925.85 1531.6 Q1925.85 1524.47 1924.02 1520.93 Q1922.22 1517.37 1918.58 1517.37 M1918.58 1513.66 Q1924.39 1513.66 1927.45 1518.27 Q1930.53 1522.85 1930.53 1531.6 Q1930.53 1540.33 1927.45 1544.94 Q1924.39 1549.52 1918.58 1549.52 Q1912.77 1549.52 1909.69 1544.94 Q1906.64 1540.33 1906.64 1531.6 Q1906.64 1522.85 1909.69 1518.27 Q1912.77 1513.66 1918.58 1513.66 Z" fill="#000000" fill-rule="nonzero" fill-opacity="1" /><path clip-path="url(#clip850)" d="M2029.17 1517.37 Q2025.56 1517.37 2023.73 1520.93 Q2021.93 1524.47 2021.93 1531.6 Q2021.93 1538.71 2023.73 1542.27 Q2025.56 1545.82 2029.17 1545.82 Q2032.81 1545.82 2034.61 1542.27 Q2036.44 1538.71 2036.44 1531.6 Q2036.44 1524.47 2034.61 1520.93 Q2032.81 1517.37 2029.17 1517.37 M2029.17 1513.66 Q2034.98 1513.66 2038.04 1518.27 Q2041.12 1522.85 2041.12 1531.6 Q2041.12 1540.33 2038.04 1544.94 Q2034.98 1549.52 2029.17 1549.52 Q2023.36 1549.52 2020.28 1544.94 Q2017.23 1540.33 2017.23 1531.6 Q2017.23 1522.85 2020.28 1518.27 Q2023.36 1513.66 2029.17 1513.66 Z" fill="#000000" fill-rule="nonzero" fill-opacity="1" /><path clip-path="url(#clip850)" d="M2049.33 1542.97 L2054.22 1542.97 L2054.22 1548.85 L2049.33 1548.85 L2049.33 1542.97 Z" fill="#000000" fill-rule="nonzero" fill-opacity="1" /><path clip-path="url(#clip850)" d="M2068.43 1544.91 L2084.75 1544.91 L2084.75 1548.85 L2062.8 1548.85 L2062.8 1544.91 Q2065.47 1542.16 2070.05 1537.53 Q2074.66 1532.88 2075.84 1531.53 Q2078.08 1529.01 2078.96 1527.27 Q2079.87 1525.51 2079.87 1523.82 Q2079.87 1521.07 2077.92 1519.33 Q2076 1517.6 2072.9 1517.6 Q2070.7 1517.6 2068.24 1518.36 Q2065.81 1519.13 2063.04 1520.68 L2063.04 1515.95 Q2065.86 1514.82 2068.31 1514.24 Q2070.77 1513.66 2072.8 1513.66 Q2078.18 1513.66 2081.37 1516.35 Q2084.56 1519.03 2084.56 1523.52 Q2084.56 1525.65 2083.75 1527.57 Q2082.97 1529.47 2080.86 1532.07 Q2080.28 1532.74 2077.18 1535.95 Q2074.08 1539.15 2068.43 1544.91 Z" fill="#000000" fill-rule="nonzero" fill-opacity="1" /><path clip-path="url(#clip850)" d="M2094.61 1514.29 L2112.97 1514.29 L2112.97 1518.22 L2098.89 1518.22 L2098.89 1526.7 Q2099.91 1526.35 2100.93 1526.19 Q2101.95 1526 2102.97 1526 Q2108.75 1526 2112.13 1529.17 Q2115.51 1532.34 2115.51 1537.76 Q2115.51 1543.34 2112.04 1546.44 Q2108.57 1549.52 2102.25 1549.52 Q2100.07 1549.52 2097.8 1549.15 Q2095.56 1548.78 2093.15 1548.04 L2093.15 1543.34 Q2095.24 1544.47 2097.46 1545.03 Q2099.68 1545.58 2102.16 1545.58 Q2106.16 1545.58 2108.5 1543.48 Q2110.84 1541.37 2110.84 1537.76 Q2110.84 1534.15 2108.5 1532.04 Q2106.16 1529.94 2102.16 1529.94 Q2100.28 1529.94 2098.41 1530.35 Q2096.55 1530.77 2094.61 1531.65 L2094.61 1514.29 Z" fill="#000000" fill-rule="nonzero" fill-opacity="1" /><path clip-path="url(#clip850)" d="M2214.16 1517.37 Q2210.55 1517.37 2208.72 1520.93 Q2206.91 1524.47 2206.91 1531.6 Q2206.91 1538.71 2208.72 1542.27 Q2210.55 1545.82 2214.16 1545.82 Q2217.79 1545.82 2219.6 1542.27 Q2221.42 1538.71 2221.42 1531.6 Q2221.42 1524.47 2219.6 1520.93 Q2217.79 1517.37 2214.16 1517.37 M2214.16 1513.66 Q2219.97 1513.66 2223.02 1518.27 Q2226.1 1522.85 2226.1 1531.6 Q2226.1 1540.33 2223.02 1544.94 Q2219.97 1549.52 2214.16 1549.52 Q2208.35 1549.52 2205.27 1544.94 Q2202.21 1540.33 2202.21 1531.6 Q2202.21 1522.85 2205.27 1518.27 Q2208.35 1513.66 2214.16 1513.66 Z" fill="#000000" fill-rule="nonzero" fill-opacity="1" /><path clip-path="url(#clip850)" d="M2234.32 1542.97 L2239.2 1542.97 L2239.2 1548.85 L2234.32 1548.85 L2234.32 1542.97 Z" fill="#000000" fill-rule="nonzero" fill-opacity="1" /><path clip-path="url(#clip850)" d="M2249.43 1514.29 L2267.79 1514.29 L2267.79 1518.22 L2253.72 1518.22 L2253.72 1526.7 Q2254.73 1526.35 2255.75 1526.19 Q2256.77 1526 2257.79 1526 Q2263.58 1526 2266.96 1529.17 Q2270.34 1532.34 2270.34 1537.76 Q2270.34 1543.34 2266.86 1546.44 Q2263.39 1549.52 2257.07 1549.52 Q2254.9 1549.52 2252.63 1549.15 Q2250.38 1548.78 2247.98 1548.04 L2247.98 1543.34 Q2250.06 1544.47 2252.28 1545.03 Q2254.5 1545.58 2256.98 1545.58 Q2260.98 1545.58 2263.32 1543.48 Q2265.66 1541.37 2265.66 1537.76 Q2265.66 1534.15 2263.32 1532.04 Q2260.98 1529.94 2256.98 1529.94 Q2255.11 1529.94 2253.23 1530.35 Q2251.38 1530.77 2249.43 1531.65 L2249.43 1514.29 Z" fill="#000000" fill-rule="nonzero" fill-opacity="1" /><path clip-path="url(#clip850)" d="M2289.55 1517.37 Q2285.94 1517.37 2284.11 1520.93 Q2282.3 1524.47 2282.3 1531.6 Q2282.3 1538.71 2284.11 1542.27 Q2285.94 1545.82 2289.55 1545.82 Q2293.18 1545.82 2294.99 1542.27 Q2296.82 1538.71 2296.82 1531.6 Q2296.82 1524.47 2294.99 1520.93 Q2293.18 1517.37 2289.55 1517.37 M2289.55 1513.66 Q2295.36 1513.66 2298.42 1518.27 Q2301.49 1522.85 2301.49 1531.6 Q2301.49 1540.33 2298.42 1544.94 Q2295.36 1549.52 2289.55 1549.52 Q2283.74 1549.52 2280.66 1544.94 Q2277.61 1540.33 2277.61 1531.6 Q2277.61 1522.85 2280.66 1518.27 Q2283.74 1513.66 2289.55 1513.66 Z" fill="#000000" fill-rule="nonzero" fill-opacity="1" /><polyline clip-path="url(#clip850)" style="stroke:#000000; stroke-linecap:round; stroke-linejoin:round; stroke-width:4; stroke-opacity:1; fill:none" points="1409.02,1486.45 1409.02,47.2441 "/>
<polyline clip-path="url(#clip850)" style="stroke:#000000; stroke-linecap:round; stroke-linejoin:round; stroke-width:4; stroke-opacity:1; fill:none" points="1409.02,1323.3 1427.91,1323.3 "/>
<polyline clip-path="url(#clip850)" style="stroke:#000000; stroke-linecap:round; stroke-linejoin:round; stroke-width:4; stroke-opacity:1; fill:none" points="1409.02,1137.81 1427.91,1137.81 "/>
<polyline clip-path="url(#clip850)" style="stroke:#000000; stroke-linecap:round; stroke-linejoin:round; stroke-width:4; stroke-opacity:1; fill:none" points="1409.02,952.329 1427.91,952.329 "/>
<polyline clip-path="url(#clip850)" style="stroke:#000000; stroke-linecap:round; stroke-linejoin:round; stroke-width:4; stroke-opacity:1; fill:none" points="1409.02,766.846 1427.91,766.846 "/>
<polyline clip-path="url(#clip850)" style="stroke:#000000; stroke-linecap:round; stroke-linejoin:round; stroke-width:4; stroke-opacity:1; fill:none" points="1409.02,581.363 1427.91,581.363 "/>
<polyline clip-path="url(#clip850)" style="stroke:#000000; stroke-linecap:round; stroke-linejoin:round; stroke-width:4; stroke-opacity:1; fill:none" points="1409.02,395.879 1427.91,395.879 "/>
<polyline clip-path="url(#clip850)" style="stroke:#000000; stroke-linecap:round; stroke-linejoin:round; stroke-width:4; stroke-opacity:1; fill:none" points="1409.02,210.396 1427.91,210.396 "/>
<path clip-path="url(#clip850)" d="M1236.91 1323.75 L1266.58 1323.75 L1266.58 1327.68 L1236.91 1327.68 L1236.91 1323.75 Z" fill="#000000" fill-rule="nonzero" fill-opacity="1" /><path clip-path="url(#clip850)" d="M1286.67 1309.09 Q1283.06 1309.09 1281.24 1312.66 Q1279.43 1316.2 1279.43 1323.33 Q1279.43 1330.44 1281.24 1334 Q1283.06 1337.54 1286.67 1337.54 Q1290.31 1337.54 1292.11 1334 Q1293.94 1330.44 1293.94 1323.33 Q1293.94 1316.2 1292.11 1312.66 Q1290.31 1309.09 1286.67 1309.09 M1286.67 1305.39 Q1292.48 1305.39 1295.54 1310 Q1298.62 1314.58 1298.62 1323.33 Q1298.62 1332.06 1295.54 1336.66 Q1292.48 1341.25 1286.67 1341.25 Q1280.86 1341.25 1277.79 1336.66 Q1274.73 1332.06 1274.73 1323.33 Q1274.73 1314.58 1277.79 1310 Q1280.86 1305.39 1286.67 1305.39 Z" fill="#000000" fill-rule="nonzero" fill-opacity="1" /><path clip-path="url(#clip850)" d="M1306.84 1334.7 L1311.72 1334.7 L1311.72 1340.58 L1306.84 1340.58 L1306.84 1334.7 Z" fill="#000000" fill-rule="nonzero" fill-opacity="1" /><path clip-path="url(#clip850)" d="M1320.73 1306.02 L1342.95 1306.02 L1342.95 1308.01 L1330.4 1340.58 L1325.52 1340.58 L1337.32 1309.95 L1320.73 1309.95 L1320.73 1306.02 Z" fill="#000000" fill-rule="nonzero" fill-opacity="1" /><path clip-path="url(#clip850)" d="M1352.11 1306.02 L1370.47 1306.02 L1370.47 1309.95 L1356.4 1309.95 L1356.4 1318.42 Q1357.42 1318.08 1358.43 1317.91 Q1359.45 1317.73 1360.47 1317.73 Q1366.26 1317.73 1369.64 1320.9 Q1373.02 1324.07 1373.02 1329.49 Q1373.02 1335.07 1369.54 1338.17 Q1366.07 1341.25 1359.75 1341.25 Q1357.58 1341.25 1355.31 1340.88 Q1353.06 1340.51 1350.66 1339.77 L1350.66 1335.07 Q1352.74 1336.2 1354.96 1336.76 Q1357.18 1337.31 1359.66 1337.31 Q1363.67 1337.31 1366 1335.21 Q1368.34 1333.1 1368.34 1329.49 Q1368.34 1325.88 1366 1323.77 Q1363.67 1321.66 1359.66 1321.66 Q1357.79 1321.66 1355.91 1322.08 Q1354.06 1322.5 1352.11 1323.38 L1352.11 1306.02 Z" fill="#000000" fill-rule="nonzero" fill-opacity="1" /><path clip-path="url(#clip850)" d="M1235.91 1138.26 L1265.59 1138.26 L1265.59 1142.2 L1235.91 1142.2 L1235.91 1138.26 Z" fill="#000000" fill-rule="nonzero" fill-opacity="1" /><path clip-path="url(#clip850)" d="M1285.68 1123.61 Q1282.07 1123.61 1280.24 1127.18 Q1278.43 1130.72 1278.43 1137.85 Q1278.43 1144.95 1280.24 1148.52 Q1282.07 1152.06 1285.68 1152.06 Q1289.31 1152.06 1291.12 1148.52 Q1292.95 1144.95 1292.95 1137.85 Q1292.95 1130.72 1291.12 1127.18 Q1289.31 1123.61 1285.68 1123.61 M1285.68 1119.91 Q1291.49 1119.91 1294.55 1124.51 Q1297.62 1129.1 1297.62 1137.85 Q1297.62 1146.57 1294.55 1151.18 Q1291.49 1155.76 1285.68 1155.76 Q1279.87 1155.76 1276.79 1151.18 Q1273.74 1146.57 1273.74 1137.85 Q1273.74 1129.1 1276.79 1124.51 Q1279.87 1119.91 1285.68 1119.91 Z" fill="#000000" fill-rule="nonzero" fill-opacity="1" /><path clip-path="url(#clip850)" d="M1305.84 1149.21 L1310.73 1149.21 L1310.73 1155.09 L1305.84 1155.09 L1305.84 1149.21 Z" fill="#000000" fill-rule="nonzero" fill-opacity="1" /><path clip-path="url(#clip850)" d="M1320.96 1120.53 L1339.31 1120.53 L1339.31 1124.47 L1325.24 1124.47 L1325.24 1132.94 Q1326.26 1132.59 1327.28 1132.43 Q1328.29 1132.25 1329.31 1132.25 Q1335.1 1132.25 1338.48 1135.42 Q1341.86 1138.59 1341.86 1144 Q1341.86 1149.58 1338.39 1152.69 Q1334.92 1155.76 1328.6 1155.76 Q1326.42 1155.76 1324.15 1155.39 Q1321.91 1155.02 1319.5 1154.28 L1319.5 1149.58 Q1321.58 1150.72 1323.8 1151.27 Q1326.03 1151.83 1328.5 1151.83 Q1332.51 1151.83 1334.85 1149.72 Q1337.18 1147.62 1337.18 1144 Q1337.18 1140.39 1334.85 1138.29 Q1332.51 1136.18 1328.5 1136.18 Q1326.63 1136.18 1324.75 1136.6 Q1322.9 1137.01 1320.96 1137.89 L1320.96 1120.53 Z" fill="#000000" fill-rule="nonzero" fill-opacity="1" /><path clip-path="url(#clip850)" d="M1361.07 1123.61 Q1357.46 1123.61 1355.63 1127.18 Q1353.83 1130.72 1353.83 1137.85 Q1353.83 1144.95 1355.63 1148.52 Q1357.46 1152.06 1361.07 1152.06 Q1364.71 1152.06 1366.51 1148.52 Q1368.34 1144.95 1368.34 1137.85 Q1368.34 1130.72 1366.51 1127.18 Q1364.71 1123.61 1361.07 1123.61 M1361.07 1119.91 Q1366.88 1119.91 1369.94 1124.51 Q1373.02 1129.1 1373.02 1137.85 Q1373.02 1146.57 1369.94 1151.18 Q1366.88 1155.76 1361.07 1155.76 Q1355.26 1155.76 1352.18 1151.18 Q1349.13 1146.57 1349.13 1137.85 Q1349.13 1129.1 1352.18 1124.51 Q1355.26 1119.91 1361.07 1119.91 Z" fill="#000000" fill-rule="nonzero" fill-opacity="1" /><path clip-path="url(#clip850)" d="M1236.91 952.781 L1266.58 952.781 L1266.58 956.716 L1236.91 956.716 L1236.91 952.781 Z" fill="#000000" fill-rule="nonzero" fill-opacity="1" /><path clip-path="url(#clip850)" d="M1286.67 938.128 Q1283.06 938.128 1281.24 941.693 Q1279.43 945.234 1279.43 952.364 Q1279.43 959.47 1281.24 963.035 Q1283.06 966.577 1286.67 966.577 Q1290.31 966.577 1292.11 963.035 Q1293.94 959.47 1293.94 952.364 Q1293.94 945.234 1292.11 941.693 Q1290.31 938.128 1286.67 938.128 M1286.67 934.424 Q1292.48 934.424 1295.54 939.031 Q1298.62 943.614 1298.62 952.364 Q1298.62 961.091 1295.54 965.697 Q1292.48 970.281 1286.67 970.281 Q1280.86 970.281 1277.79 965.697 Q1274.73 961.091 1274.73 952.364 Q1274.73 943.614 1277.79 939.031 Q1280.86 934.424 1286.67 934.424 Z" fill="#000000" fill-rule="nonzero" fill-opacity="1" /><path clip-path="url(#clip850)" d="M1306.84 963.73 L1311.72 963.73 L1311.72 969.609 L1306.84 969.609 L1306.84 963.73 Z" fill="#000000" fill-rule="nonzero" fill-opacity="1" /><path clip-path="url(#clip850)" d="M1325.93 965.674 L1342.25 965.674 L1342.25 969.609 L1320.31 969.609 L1320.31 965.674 Q1322.97 962.919 1327.55 958.29 Q1332.16 953.637 1333.34 952.295 Q1335.59 949.771 1336.47 948.035 Q1337.37 946.276 1337.37 944.586 Q1337.37 941.832 1335.42 940.096 Q1333.5 938.359 1330.4 938.359 Q1328.2 938.359 1325.75 939.123 Q1323.32 939.887 1320.54 941.438 L1320.54 936.716 Q1323.36 935.582 1325.82 935.003 Q1328.27 934.424 1330.31 934.424 Q1335.68 934.424 1338.87 937.109 Q1342.07 939.795 1342.07 944.285 Q1342.07 946.415 1341.26 948.336 Q1340.47 950.234 1338.36 952.827 Q1337.79 953.498 1334.68 956.716 Q1331.58 959.91 1325.93 965.674 Z" fill="#000000" fill-rule="nonzero" fill-opacity="1" /><path clip-path="url(#clip850)" d="M1352.11 935.049 L1370.47 935.049 L1370.47 938.984 L1356.4 938.984 L1356.4 947.457 Q1357.42 947.109 1358.43 946.947 Q1359.45 946.762 1360.47 946.762 Q1366.26 946.762 1369.64 949.933 Q1373.02 953.105 1373.02 958.521 Q1373.02 964.1 1369.54 967.202 Q1366.07 970.281 1359.75 970.281 Q1357.58 970.281 1355.31 969.91 Q1353.06 969.54 1350.66 968.799 L1350.66 964.1 Q1352.74 965.234 1354.96 965.79 Q1357.18 966.345 1359.66 966.345 Q1363.67 966.345 1366 964.239 Q1368.34 962.132 1368.34 958.521 Q1368.34 954.91 1366 952.804 Q1363.67 950.697 1359.66 950.697 Q1357.79 950.697 1355.91 951.114 Q1354.06 951.531 1352.11 952.41 L1352.11 935.049 Z" fill="#000000" fill-rule="nonzero" fill-opacity="1" /><path clip-path="url(#clip850)" d="M1285.68 752.645 Q1282.07 752.645 1280.24 756.209 Q1278.43 759.751 1278.43 766.881 Q1278.43 773.987 1280.24 777.552 Q1282.07 781.094 1285.68 781.094 Q1289.31 781.094 1291.12 777.552 Q1292.95 773.987 1292.95 766.881 Q1292.95 759.751 1291.12 756.209 Q1289.31 752.645 1285.68 752.645 M1285.68 748.941 Q1291.49 748.941 1294.55 753.547 Q1297.62 758.131 1297.62 766.881 Q1297.62 775.608 1294.55 780.214 Q1291.49 784.797 1285.68 784.797 Q1279.87 784.797 1276.79 780.214 Q1273.74 775.608 1273.74 766.881 Q1273.74 758.131 1276.79 753.547 Q1279.87 748.941 1285.68 748.941 Z" fill="#000000" fill-rule="nonzero" fill-opacity="1" /><path clip-path="url(#clip850)" d="M1305.84 778.246 L1310.73 778.246 L1310.73 784.126 L1305.84 784.126 L1305.84 778.246 Z" fill="#000000" fill-rule="nonzero" fill-opacity="1" /><path clip-path="url(#clip850)" d="M1330.91 752.645 Q1327.3 752.645 1325.47 756.209 Q1323.67 759.751 1323.67 766.881 Q1323.67 773.987 1325.47 777.552 Q1327.3 781.094 1330.91 781.094 Q1334.54 781.094 1336.35 777.552 Q1338.18 773.987 1338.18 766.881 Q1338.18 759.751 1336.35 756.209 Q1334.54 752.645 1330.91 752.645 M1330.91 748.941 Q1336.72 748.941 1339.78 753.547 Q1342.86 758.131 1342.86 766.881 Q1342.86 775.608 1339.78 780.214 Q1336.72 784.797 1330.91 784.797 Q1325.1 784.797 1322.02 780.214 Q1318.97 775.608 1318.97 766.881 Q1318.97 758.131 1322.02 753.547 Q1325.1 748.941 1330.91 748.941 Z" fill="#000000" fill-rule="nonzero" fill-opacity="1" /><path clip-path="url(#clip850)" d="M1361.07 752.645 Q1357.46 752.645 1355.63 756.209 Q1353.83 759.751 1353.83 766.881 Q1353.83 773.987 1355.63 777.552 Q1357.46 781.094 1361.07 781.094 Q1364.71 781.094 1366.51 777.552 Q1368.34 773.987 1368.34 766.881 Q1368.34 759.751 1366.51 756.209 Q1364.71 752.645 1361.07 752.645 M1361.07 748.941 Q1366.88 748.941 1369.94 753.547 Q1373.02 758.131 1373.02 766.881 Q1373.02 775.608 1369.94 780.214 Q1366.88 784.797 1361.07 784.797 Q1355.26 784.797 1352.18 780.214 Q1349.13 775.608 1349.13 766.881 Q1349.13 758.131 1352.18 753.547 Q1355.26 748.941 1361.07 748.941 Z" fill="#000000" fill-rule="nonzero" fill-opacity="1" /><path clip-path="url(#clip850)" d="M1286.67 567.161 Q1283.06 567.161 1281.24 570.726 Q1279.43 574.268 1279.43 581.397 Q1279.43 588.504 1281.24 592.069 Q1283.06 595.61 1286.67 595.61 Q1290.31 595.61 1292.11 592.069 Q1293.94 588.504 1293.94 581.397 Q1293.94 574.268 1292.11 570.726 Q1290.31 567.161 1286.67 567.161 M1286.67 563.458 Q1292.48 563.458 1295.54 568.064 Q1298.62 572.647 1298.62 581.397 Q1298.62 590.124 1295.54 594.731 Q1292.48 599.314 1286.67 599.314 Q1280.86 599.314 1277.79 594.731 Q1274.73 590.124 1274.73 581.397 Q1274.73 572.647 1277.79 568.064 Q1280.86 563.458 1286.67 563.458 Z" fill="#000000" fill-rule="nonzero" fill-opacity="1" /><path clip-path="url(#clip850)" d="M1306.84 592.763 L1311.72 592.763 L1311.72 598.643 L1306.84 598.643 L1306.84 592.763 Z" fill="#000000" fill-rule="nonzero" fill-opacity="1" /><path clip-path="url(#clip850)" d="M1325.93 594.708 L1342.25 594.708 L1342.25 598.643 L1320.31 598.643 L1320.31 594.708 Q1322.97 591.953 1327.55 587.323 Q1332.16 582.671 1333.34 581.328 Q1335.59 578.805 1336.47 577.069 Q1337.37 575.309 1337.37 573.62 Q1337.37 570.865 1335.42 569.129 Q1333.5 567.393 1330.4 567.393 Q1328.2 567.393 1325.75 568.157 Q1323.32 568.921 1320.54 570.472 L1320.54 565.749 Q1323.36 564.615 1325.82 564.036 Q1328.27 563.458 1330.31 563.458 Q1335.68 563.458 1338.87 566.143 Q1342.07 568.828 1342.07 573.319 Q1342.07 575.448 1341.26 577.37 Q1340.47 579.268 1338.36 581.86 Q1337.79 582.532 1334.68 585.749 Q1331.58 588.944 1325.93 594.708 Z" fill="#000000" fill-rule="nonzero" fill-opacity="1" /><path clip-path="url(#clip850)" d="M1352.11 564.083 L1370.47 564.083 L1370.47 568.018 L1356.4 568.018 L1356.4 576.49 Q1357.42 576.143 1358.43 575.981 Q1359.45 575.796 1360.47 575.796 Q1366.26 575.796 1369.64 578.967 Q1373.02 582.138 1373.02 587.555 Q1373.02 593.133 1369.54 596.235 Q1366.07 599.314 1359.75 599.314 Q1357.58 599.314 1355.31 598.944 Q1353.06 598.573 1350.66 597.833 L1350.66 593.133 Q1352.74 594.268 1354.96 594.823 Q1357.18 595.379 1359.66 595.379 Q1363.67 595.379 1366 593.272 Q1368.34 591.166 1368.34 587.555 Q1368.34 583.944 1366 581.837 Q1363.67 579.731 1359.66 579.731 Q1357.79 579.731 1355.91 580.147 Q1354.06 580.564 1352.11 581.444 L1352.11 564.083 Z" fill="#000000" fill-rule="nonzero" fill-opacity="1" /><path clip-path="url(#clip850)" d="M1285.68 381.678 Q1282.07 381.678 1280.24 385.243 Q1278.43 388.785 1278.43 395.914 Q1278.43 403.021 1280.24 406.585 Q1282.07 410.127 1285.68 410.127 Q1289.31 410.127 1291.12 406.585 Q1292.95 403.021 1292.95 395.914 Q1292.95 388.785 1291.12 385.243 Q1289.31 381.678 1285.68 381.678 M1285.68 377.974 Q1291.49 377.974 1294.55 382.581 Q1297.62 387.164 1297.62 395.914 Q1297.62 404.641 1294.55 409.247 Q1291.49 413.831 1285.68 413.831 Q1279.87 413.831 1276.79 409.247 Q1273.74 404.641 1273.74 395.914 Q1273.74 387.164 1276.79 382.581 Q1279.87 377.974 1285.68 377.974 Z" fill="#000000" fill-rule="nonzero" fill-opacity="1" /><path clip-path="url(#clip850)" d="M1305.84 407.28 L1310.73 407.28 L1310.73 413.159 L1305.84 413.159 L1305.84 407.28 Z" fill="#000000" fill-rule="nonzero" fill-opacity="1" /><path clip-path="url(#clip850)" d="M1320.96 378.599 L1339.31 378.599 L1339.31 382.535 L1325.24 382.535 L1325.24 391.007 Q1326.26 390.66 1327.28 390.497 Q1328.29 390.312 1329.31 390.312 Q1335.1 390.312 1338.48 393.484 Q1341.86 396.655 1341.86 402.072 Q1341.86 407.65 1338.39 410.752 Q1334.92 413.831 1328.6 413.831 Q1326.42 413.831 1324.15 413.46 Q1321.91 413.09 1319.5 412.349 L1319.5 407.65 Q1321.58 408.784 1323.8 409.34 Q1326.03 409.896 1328.5 409.896 Q1332.51 409.896 1334.85 407.789 Q1337.18 405.683 1337.18 402.072 Q1337.18 398.46 1334.85 396.354 Q1332.51 394.247 1328.5 394.247 Q1326.63 394.247 1324.75 394.664 Q1322.9 395.081 1320.96 395.96 L1320.96 378.599 Z" fill="#000000" fill-rule="nonzero" fill-opacity="1" /><path clip-path="url(#clip850)" d="M1361.07 381.678 Q1357.46 381.678 1355.63 385.243 Q1353.83 388.785 1353.83 395.914 Q1353.83 403.021 1355.63 406.585 Q1357.46 410.127 1361.07 410.127 Q1364.71 410.127 1366.51 406.585 Q1368.34 403.021 1368.34 395.914 Q1368.34 388.785 1366.51 385.243 Q1364.71 381.678 1361.07 381.678 M1361.07 377.974 Q1366.88 377.974 1369.94 382.581 Q1373.02 387.164 1373.02 395.914 Q1373.02 404.641 1369.94 409.247 Q1366.88 413.831 1361.07 413.831 Q1355.26 413.831 1352.18 409.247 Q1349.13 404.641 1349.13 395.914 Q1349.13 387.164 1352.18 382.581 Q1355.26 377.974 1361.07 377.974 Z" fill="#000000" fill-rule="nonzero" fill-opacity="1" /><path clip-path="url(#clip850)" d="M1286.67 196.195 Q1283.06 196.195 1281.24 199.76 Q1279.43 203.301 1279.43 210.431 Q1279.43 217.537 1281.24 221.102 Q1283.06 224.644 1286.67 224.644 Q1290.31 224.644 1292.11 221.102 Q1293.94 217.537 1293.94 210.431 Q1293.94 203.301 1292.11 199.76 Q1290.31 196.195 1286.67 196.195 M1286.67 192.491 Q1292.48 192.491 1295.54 197.098 Q1298.62 201.681 1298.62 210.431 Q1298.62 219.158 1295.54 223.764 Q1292.48 228.347 1286.67 228.347 Q1280.86 228.347 1277.79 223.764 Q1274.73 219.158 1274.73 210.431 Q1274.73 201.681 1277.79 197.098 Q1280.86 192.491 1286.67 192.491 Z" fill="#000000" fill-rule="nonzero" fill-opacity="1" /><path clip-path="url(#clip850)" d="M1306.84 221.797 L1311.72 221.797 L1311.72 227.676 L1306.84 227.676 L1306.84 221.797 Z" fill="#000000" fill-rule="nonzero" fill-opacity="1" /><path clip-path="url(#clip850)" d="M1320.73 193.116 L1342.95 193.116 L1342.95 195.107 L1330.4 227.676 L1325.52 227.676 L1337.32 197.051 L1320.73 197.051 L1320.73 193.116 Z" fill="#000000" fill-rule="nonzero" fill-opacity="1" /><path clip-path="url(#clip850)" d="M1352.11 193.116 L1370.47 193.116 L1370.47 197.051 L1356.4 197.051 L1356.4 205.523 Q1357.42 205.176 1358.43 205.014 Q1359.45 204.829 1360.47 204.829 Q1366.26 204.829 1369.64 208 Q1373.02 211.172 1373.02 216.588 Q1373.02 222.167 1369.54 225.269 Q1366.07 228.347 1359.75 228.347 Q1357.58 228.347 1355.31 227.977 Q1353.06 227.607 1350.66 226.866 L1350.66 222.167 Q1352.74 223.301 1354.96 223.857 Q1357.18 224.412 1359.66 224.412 Q1363.67 224.412 1366 222.306 Q1368.34 220.199 1368.34 216.588 Q1368.34 212.977 1366 210.871 Q1363.67 208.764 1359.66 208.764 Q1357.79 208.764 1355.91 209.181 Q1354.06 209.598 1352.11 210.477 L1352.11 193.116 Z" fill="#000000" fill-rule="nonzero" fill-opacity="1" /><path clip-path="url(#clip853)" d="M2326.05 766.846 L2319.33 754.009 L2307.17 745.47 L2293.72 739.088 L2279.75 733.901 L2265.52 729.495 L2251.13 725.653 L2236.63 722.244 L2222.05 719.185 L2207.41 716.417 L2192.72 713.898 L2178 711.597 L2163.25 709.488 L2148.48 707.554 L2133.69 705.777 L2118.88 704.146 L2104.06 702.65 L2089.22 701.279 L2074.38 700.028 L2059.52 698.888 L2044.66 697.856 L2029.79 696.926 L2014.91 696.095 L2000.03 695.36 L1985.15 694.716 L1970.26 694.163 L1955.37 693.699 L1940.48 693.32 L1925.58 693.028 L1910.68 692.819 L1895.78 692.694 L1880.89 692.653 L1865.99 692.694 L1851.09 692.819 L1836.19 693.028 L1821.3 693.32 L1806.4 693.699 L1791.51 694.163 L1776.62 694.716 L1761.74 695.36 L1746.86 696.095 L1731.98 696.926 L1717.11 697.856 L1702.25 698.888 L1687.4 700.028 L1672.55 701.279 L1657.72 702.65 L1642.89 704.146 L1628.08 705.777 L1613.29 707.554 L1598.52 709.488 L1583.77 711.597 L1569.05 713.898 L1554.37 716.417 L1539.73 719.185 L1525.15 722.244 L1510.64 725.653 L1496.25 729.495 L1482.02 733.901 L1468.06 739.088 L1454.6 745.47 L1442.44 754.009 L1435.73 766.846 L1442.44 779.683 L1454.6 788.222 L1468.06 794.604 L1482.02 799.791 L1496.25 804.197 L1510.64 808.039 L1525.15 811.448 L1539.73 814.507 L1554.37 817.275 L1569.05 819.794 L1583.77 822.095 L1598.52 824.204 L1613.29 826.138 L1628.08 827.915 L1642.89 829.546 L1657.72 831.042 L1672.55 832.413 L1687.4 833.664 L1702.25 834.804 L1717.11 835.836 L1731.98 836.766 L1746.86 837.597 L1761.74 838.332 L1776.62 838.976 L1791.51 839.529 L1806.4 839.993 L1821.3 840.372 L1836.19 840.664 L1851.09 840.873 L1865.99 840.998 L1880.89 841.039 L1895.78 840.998 L1910.68 840.873 L1925.58 840.664 L1940.48 840.372 L1955.37 839.993 L1970.26 839.529 L1985.15 838.976 L2000.03 838.332 L2014.91 837.597 L2029.79 836.766 L2044.66 835.836 L2059.52 834.804 L2074.38 833.664 L2089.22 832.413 L2104.06 831.042 L2118.88 829.546 L2133.69 827.915 L2148.48 826.138 L2163.25 824.204 L2178 822.095 L2192.72 819.794 L2207.41 817.275 L2222.05 814.507 L2236.63 811.448 L2251.13 808.039 L2265.52 804.197 L2279.75 799.791 L2293.72 794.604 L2307.17 788.222 L2319.33 779.683 L2326.05 766.846 L2326.05 766.846 L2319.33 766.846 L2307.17 766.846 L2293.72 766.846 L2279.75 766.846 L2265.52 766.846 L2251.13 766.846 L2236.63 766.846 L2222.05 766.846 L2207.41 766.846 L2192.72 766.846 L2178 766.846 L2163.25 766.846 L2148.48 766.846 L2133.69 766.846 L2118.88 766.846 L2104.06 766.846 L2089.22 766.846 L2074.38 766.846 L2059.52 766.846 L2044.66 766.846 L2029.79 766.846 L2014.91 766.846 L2000.03 766.846 L1985.15 766.846 L1970.26 766.846 L1955.37 766.846 L1940.48 766.846 L1925.58 766.846 L1910.68 766.846 L1895.78 766.846 L1880.89 766.846 L1865.99 766.846 L1851.09 766.846 L1836.19 766.846 L1821.3 766.846 L1806.4 766.846 L1791.51 766.846 L1776.62 766.846 L1761.74 766.846 L1746.86 766.846 L1731.98 766.846 L1717.11 766.846 L1702.25 766.846 L1687.4 766.846 L1672.55 766.846 L1657.72 766.846 L1642.89 766.846 L1628.08 766.846 L1613.29 766.846 L1598.52 766.846 L1583.77 766.846 L1569.05 766.846 L1554.37 766.846 L1539.73 766.846 L1525.15 766.846 L1510.64 766.846 L1496.25 766.846 L1482.02 766.846 L1468.06 766.846 L1454.6 766.846 L1442.44 766.846 L1435.73 766.846 L1442.44 766.846 L1454.6 766.846 L1468.06 766.846 L1482.02 766.846 L1496.25 766.846 L1510.64 766.846 L1525.15 766.846 L1539.73 766.846 L1554.37 766.846 L1569.05 766.846 L1583.77 766.846 L1598.52 766.846 L1613.29 766.846 L1628.08 766.846 L1642.89 766.846 L1657.72 766.846 L1672.55 766.846 L1687.4 766.846 L1702.25 766.846 L1717.11 766.846 L1731.98 766.846 L1746.86 766.846 L1761.74 766.846 L1776.62 766.846 L1791.51 766.846 L1806.4 766.846 L1821.3 766.846 L1836.19 766.846 L1851.09 766.846 L1865.99 766.846 L1880.89 766.846 L1895.78 766.846 L1910.68 766.846 L1925.58 766.846 L1940.48 766.846 L1955.37 766.846 L1970.26 766.846 L1985.15 766.846 L2000.03 766.846 L2014.91 766.846 L2029.79 766.846 L2044.66 766.846 L2059.52 766.846 L2074.38 766.846 L2089.22 766.846 L2104.06 766.846 L2118.88 766.846 L2133.69 766.846 L2148.48 766.846 L2163.25 766.846 L2178 766.846 L2192.72 766.846 L2207.41 766.846 L2222.05 766.846 L2236.63 766.846 L2251.13 766.846 L2265.52 766.846 L2279.75 766.846 L2293.72 766.846 L2307.17 766.846 L2319.33 766.846 L2326.05 766.846  Z" fill="#97b476" fill-rule="evenodd" fill-opacity="1"/>
<polyline clip-path="url(#clip853)" style="stroke:#97b476; stroke-linecap:round; stroke-linejoin:round; stroke-width:4; stroke-opacity:1; fill:none" points="2326.05,766.846 2319.33,754.009 2307.17,745.47 2293.72,739.088 2279.75,733.901 2265.52,729.495 2251.13,725.653 2236.63,722.244 2222.05,719.185 2207.41,716.417 2192.72,713.898 2178,711.597 2163.25,709.488 2148.48,707.554 2133.69,705.777 2118.88,704.146 2104.06,702.65 2089.22,701.279 2074.38,700.028 2059.52,698.888 2044.66,697.856 2029.79,696.926 2014.91,696.095 2000.03,695.36 1985.15,694.716 1970.26,694.163 1955.37,693.699 1940.48,693.32 1925.58,693.028 1910.68,692.819 1895.78,692.694 1880.89,692.653 1865.99,692.694 1851.09,692.819 1836.19,693.028 1821.3,693.32 1806.4,693.699 1791.51,694.163 1776.62,694.716 1761.74,695.36 1746.86,696.095 1731.98,696.926 1717.11,697.856 1702.25,698.888 1687.4,700.028 1672.55,701.279 1657.72,702.65 1642.89,704.146 1628.08,705.777 1613.29,707.554 1598.52,709.488 1583.77,711.597 1569.05,713.898 1554.37,716.417 1539.73,719.185 1525.15,722.244 1510.64,725.653 1496.25,729.495 1482.02,733.901 1468.06,739.088 1454.6,745.47 1442.44,754.009 1435.73,766.846 1442.44,779.683 1454.6,788.222 1468.06,794.604 1482.02,799.791 1496.25,804.197 1510.64,808.039 1525.15,811.448 1539.73,814.507 1554.37,817.275 1569.05,819.794 1583.77,822.095 1598.52,824.204 1613.29,826.138 1628.08,827.915 1642.89,829.546 1657.72,831.042 1672.55,832.413 1687.4,833.664 1702.25,834.804 1717.11,835.836 1731.98,836.766 1746.86,837.597 1761.74,838.332 1776.62,838.976 1791.51,839.529 1806.4,839.993 1821.3,840.372 1836.19,840.664 1851.09,840.873 1865.99,840.998 1880.89,841.039 1895.78,840.998 1910.68,840.873 1925.58,840.664 1940.48,840.372 1955.37,839.993 1970.26,839.529 1985.15,838.976 2000.03,838.332 2014.91,837.597 2029.79,836.766 2044.66,835.836 2059.52,834.804 2074.38,833.664 2089.22,832.413 2104.06,831.042 2118.88,829.546 2133.69,827.915 2148.48,826.138 2163.25,824.204 2178,822.095 2192.72,819.794 2207.41,817.275 2222.05,814.507 2236.63,811.448 2251.13,808.039 2265.52,804.197 2279.75,799.791 2293.72,794.604 2307.17,788.222 2319.33,779.683 2326.05,766.846 "/>
</svg>
