<?xml version="1.0" encoding="utf-8"?>
<svg xmlns="http://www.w3.org/2000/svg" xmlns:xlink="http://www.w3.org/1999/xlink" width="600" height="400" viewBox="0 0 2400 1600">
<defs>
  <clipPath id="clip170">
    <rect x="0" y="0" width="2400" height="1600"/>
  </clipPath>
</defs>
<path clip-path="url(#clip170)" d="M0 1600 L2400 1600 L2400 0 L0 0  Z" fill="#ffffff" fill-rule="evenodd" fill-opacity="1"/>
<defs>
  <clipPath id="clip171">
    <rect x="480" y="0" width="1681" height="1600"/>
  </clipPath>
</defs>
<path clip-path="url(#clip170)" d="M156.112 1423.18 L2352.76 1423.18 L2352.76 47.2441 L156.112 47.2441  Z" fill="#ffffff" fill-rule="evenodd" fill-opacity="1"/>
<defs>
  <clipPath id="clip172">
    <rect x="156" y="47" width="2198" height="1377"/>
  </clipPath>
</defs>
<polyline clip-path="url(#clip172)" style="stroke:#000000; stroke-linecap:round; stroke-linejoin:round; stroke-width:2; stroke-opacity:0.1; fill:none" points="218.281,1423.18 218.281,47.2441 "/>
<polyline clip-path="url(#clip172)" style="stroke:#000000; stroke-linecap:round; stroke-linejoin:round; stroke-width:2; stroke-opacity:0.1; fill:none" points="909.05,1423.18 909.05,47.2441 "/>
<polyline clip-path="url(#clip172)" style="stroke:#000000; stroke-linecap:round; stroke-linejoin:round; stroke-width:2; stroke-opacity:0.1; fill:none" points="1599.82,1423.18 1599.82,47.2441 "/>
<polyline clip-path="url(#clip172)" style="stroke:#000000; stroke-linecap:round; stroke-linejoin:round; stroke-width:2; stroke-opacity:0.1; fill:none" points="2290.59,1423.18 2290.59,47.2441 "/>
<polyline clip-path="url(#clip172)" style="stroke:#000000; stroke-linecap:round; stroke-linejoin:round; stroke-width:2; stroke-opacity:0.1; fill:none" points="156.112,1233.97 2352.76,1233.97 "/>
<polyline clip-path="url(#clip172)" style="stroke:#000000; stroke-linecap:round; stroke-linejoin:round; stroke-width:2; stroke-opacity:0.1; fill:none" points="156.112,883.95 2352.76,883.95 "/>
<polyline clip-path="url(#clip172)" style="stroke:#000000; stroke-linecap:round; stroke-linejoin:round; stroke-width:2; stroke-opacity:0.1; fill:none" points="156.112,533.929 2352.76,533.929 "/>
<polyline clip-path="url(#clip172)" style="stroke:#000000; stroke-linecap:round; stroke-linejoin:round; stroke-width:2; stroke-opacity:0.1; fill:none" points="156.112,183.908 2352.76,183.908 "/>
<polyline clip-path="url(#clip170)" style="stroke:#000000; stroke-linecap:round; stroke-linejoin:round; stroke-width:4; stroke-opacity:1; fill:none" points="156.112,1423.18 2352.76,1423.18 "/>
<polyline clip-path="url(#clip170)" style="stroke:#000000; stroke-linecap:round; stroke-linejoin:round; stroke-width:4; stroke-opacity:1; fill:none" points="218.281,1423.18 218.281,1404.28 "/>
<polyline clip-path="url(#clip170)" style="stroke:#000000; stroke-linecap:round; stroke-linejoin:round; stroke-width:4; stroke-opacity:1; fill:none" points="909.05,1423.18 909.05,1404.28 "/>
<polyline clip-path="url(#clip170)" style="stroke:#000000; stroke-linecap:round; stroke-linejoin:round; stroke-width:4; stroke-opacity:1; fill:none" points="1599.82,1423.18 1599.82,1404.28 "/>
<polyline clip-path="url(#clip170)" style="stroke:#000000; stroke-linecap:round; stroke-linejoin:round; stroke-width:4; stroke-opacity:1; fill:none" points="2290.59,1423.18 2290.59,1404.28 "/>
<path clip-path="url(#clip170)" d="M218.281 1454.1 Q214.67 1454.1 212.842 1457.66 Q211.036 1461.2 211.036 1468.33 Q211.036 1475.44 212.842 1479.01 Q214.67 1482.55 218.281 1482.55 Q221.916 1482.55 223.721 1479.01 Q225.55 1475.44 225.55 1468.33 Q225.55 1461.2 223.721 1457.66 Q221.916 1454.1 218.281 1454.1 M218.281 1450.39 Q224.091 1450.39 227.147 1455 Q230.226 1459.58 230.226 1468.33 Q230.226 1477.06 227.147 1481.67 Q224.091 1486.25 218.281 1486.25 Q212.471 1486.25 209.392 1481.67 Q206.337 1477.06 206.337 1468.33 Q206.337 1459.58 209.392 1455 Q212.471 1450.39 218.281 1450.39 Z" fill="#000000" fill-rule="nonzero" fill-opacity="1" /><path clip-path="url(#clip170)" d="M899.432 1481.64 L907.071 1481.64 L907.071 1455.28 L898.76 1456.95 L898.76 1452.69 L907.024 1451.02 L911.7 1451.02 L911.7 1481.64 L919.339 1481.64 L919.339 1485.58 L899.432 1485.58 L899.432 1481.64 Z" fill="#000000" fill-rule="nonzero" fill-opacity="1" /><path clip-path="url(#clip170)" d="M1594.47 1481.64 L1610.79 1481.64 L1610.79 1485.58 L1588.85 1485.58 L1588.85 1481.64 Q1591.51 1478.89 1596.09 1474.26 Q1600.7 1469.61 1601.88 1468.27 Q1604.12 1465.74 1605 1464.01 Q1605.91 1462.25 1605.91 1460.56 Q1605.91 1457.8 1603.96 1456.07 Q1602.04 1454.33 1598.94 1454.33 Q1596.74 1454.33 1594.29 1455.09 Q1591.86 1455.86 1589.08 1457.41 L1589.08 1452.69 Q1591.9 1451.55 1594.36 1450.97 Q1596.81 1450.39 1598.85 1450.39 Q1604.22 1450.39 1607.41 1453.08 Q1610.61 1455.77 1610.61 1460.26 Q1610.61 1462.39 1609.8 1464.31 Q1609.01 1466.2 1606.9 1468.8 Q1606.32 1469.47 1603.22 1472.69 Q1600.12 1475.88 1594.47 1481.64 Z" fill="#000000" fill-rule="nonzero" fill-opacity="1" /><path clip-path="url(#clip170)" d="M2294.83 1466.95 Q2298.19 1467.66 2300.07 1469.93 Q2301.96 1472.2 2301.96 1475.53 Q2301.96 1480.65 2298.45 1483.45 Q2294.93 1486.25 2288.45 1486.25 Q2286.27 1486.25 2283.95 1485.81 Q2281.66 1485.39 2279.21 1484.54 L2279.21 1480.02 Q2281.15 1481.16 2283.47 1481.74 Q2285.78 1482.32 2288.31 1482.32 Q2292.7 1482.32 2295 1480.58 Q2297.31 1478.84 2297.31 1475.53 Q2297.31 1472.48 2295.16 1470.77 Q2293.03 1469.03 2289.21 1469.03 L2285.18 1469.03 L2285.18 1465.19 L2289.39 1465.19 Q2292.84 1465.19 2294.67 1463.82 Q2296.5 1462.43 2296.5 1459.84 Q2296.5 1457.18 2294.6 1455.77 Q2292.73 1454.33 2289.21 1454.33 Q2287.29 1454.33 2285.09 1454.75 Q2282.89 1455.16 2280.25 1456.04 L2280.25 1451.88 Q2282.91 1451.14 2285.23 1450.77 Q2287.57 1450.39 2289.63 1450.39 Q2294.95 1450.39 2298.05 1452.83 Q2301.15 1455.23 2301.15 1459.35 Q2301.15 1462.22 2299.51 1464.21 Q2297.87 1466.18 2294.83 1466.95 Z" fill="#000000" fill-rule="nonzero" fill-opacity="1" /><path clip-path="url(#clip170)" d="M1253.5 1522.27 L1253.5 1532.4 L1265.56 1532.4 L1265.56 1536.95 L1253.5 1536.95 L1253.5 1556.3 Q1253.5 1560.66 1254.67 1561.9 Q1255.88 1563.14 1259.54 1563.14 L1265.56 1563.14 L1265.56 1568.04 L1259.54 1568.04 Q1252.76 1568.04 1250.18 1565.53 Q1247.61 1562.98 1247.61 1556.3 L1247.61 1536.95 L1243.31 1536.95 L1243.31 1532.4 L1247.61 1532.4 L1247.61 1522.27 L1253.5 1522.27 Z" fill="#000000" fill-rule="nonzero" fill-opacity="1" /><polyline clip-path="url(#clip170)" style="stroke:#000000; stroke-linecap:round; stroke-linejoin:round; stroke-width:4; stroke-opacity:1; fill:none" points="156.112,1423.18 156.112,47.2441 "/>
<polyline clip-path="url(#clip170)" style="stroke:#000000; stroke-linecap:round; stroke-linejoin:round; stroke-width:4; stroke-opacity:1; fill:none" points="156.112,1233.97 175.01,1233.97 "/>
<polyline clip-path="url(#clip170)" style="stroke:#000000; stroke-linecap:round; stroke-linejoin:round; stroke-width:4; stroke-opacity:1; fill:none" points="156.112,883.95 175.01,883.95 "/>
<polyline clip-path="url(#clip170)" style="stroke:#000000; stroke-linecap:round; stroke-linejoin:round; stroke-width:4; stroke-opacity:1; fill:none" points="156.112,533.929 175.01,533.929 "/>
<polyline clip-path="url(#clip170)" style="stroke:#000000; stroke-linecap:round; stroke-linejoin:round; stroke-width:4; stroke-opacity:1; fill:none" points="156.112,183.908 175.01,183.908 "/>
<path clip-path="url(#clip170)" d="M62.9365 1219.77 Q59.3254 1219.77 57.4967 1223.34 Q55.6912 1226.88 55.6912 1234.01 Q55.6912 1241.11 57.4967 1244.68 Q59.3254 1248.22 62.9365 1248.22 Q66.5707 1248.22 68.3763 1244.68 Q70.205 1241.11 70.205 1234.01 Q70.205 1226.88 68.3763 1223.34 Q66.5707 1219.77 62.9365 1219.77 M62.9365 1216.07 Q68.7467 1216.07 71.8022 1220.67 Q74.8809 1225.26 74.8809 1234.01 Q74.8809 1242.73 71.8022 1247.34 Q68.7467 1251.92 62.9365 1251.92 Q57.1264 1251.92 54.0477 1247.34 Q50.9921 1242.73 50.9921 1234.01 Q50.9921 1225.26 54.0477 1220.67 Q57.1264 1216.07 62.9365 1216.07 Z" fill="#000000" fill-rule="nonzero" fill-opacity="1" /><path clip-path="url(#clip170)" d="M83.0984 1245.37 L87.9827 1245.37 L87.9827 1251.25 L83.0984 1251.25 L83.0984 1245.37 Z" fill="#000000" fill-rule="nonzero" fill-opacity="1" /><path clip-path="url(#clip170)" d="M108.168 1219.77 Q104.557 1219.77 102.728 1223.34 Q100.922 1226.88 100.922 1234.01 Q100.922 1241.11 102.728 1244.68 Q104.557 1248.22 108.168 1248.22 Q111.802 1248.22 113.608 1244.68 Q115.436 1241.11 115.436 1234.01 Q115.436 1226.88 113.608 1223.34 Q111.802 1219.77 108.168 1219.77 M108.168 1216.07 Q113.978 1216.07 117.033 1220.67 Q120.112 1225.26 120.112 1234.01 Q120.112 1242.73 117.033 1247.34 Q113.978 1251.92 108.168 1251.92 Q102.358 1251.92 99.2789 1247.34 Q96.2234 1242.73 96.2234 1234.01 Q96.2234 1225.26 99.2789 1220.67 Q102.358 1216.07 108.168 1216.07 Z" fill="#000000" fill-rule="nonzero" fill-opacity="1" /><path clip-path="url(#clip170)" d="M64.1634 869.749 Q60.5523 869.749 58.7236 873.314 Q56.918 876.856 56.918 883.985 Q56.918 891.092 58.7236 894.656 Q60.5523 898.198 64.1634 898.198 Q67.7976 898.198 69.6031 894.656 Q71.4318 891.092 71.4318 883.985 Q71.4318 876.856 69.6031 873.314 Q67.7976 869.749 64.1634 869.749 M64.1634 866.045 Q69.9735 866.045 73.029 870.652 Q76.1077 875.235 76.1077 883.985 Q76.1077 892.712 73.029 897.318 Q69.9735 901.902 64.1634 901.902 Q58.3532 901.902 55.2745 897.318 Q52.219 892.712 52.219 883.985 Q52.219 875.235 55.2745 870.652 Q58.3532 866.045 64.1634 866.045 Z" fill="#000000" fill-rule="nonzero" fill-opacity="1" /><path clip-path="url(#clip170)" d="M84.3253 895.351 L89.2095 895.351 L89.2095 901.23 L84.3253 901.23 L84.3253 895.351 Z" fill="#000000" fill-rule="nonzero" fill-opacity="1" /><path clip-path="url(#clip170)" d="M100.205 897.295 L107.844 897.295 L107.844 870.93 L99.5335 872.596 L99.5335 868.337 L107.797 866.67 L112.473 866.67 L112.473 897.295 L120.112 897.295 L120.112 901.23 L100.205 901.23 L100.205 897.295 Z" fill="#000000" fill-rule="nonzero" fill-opacity="1" /><path clip-path="url(#clip170)" d="M64.5337 519.728 Q60.9226 519.728 59.0939 523.293 Q57.2884 526.834 57.2884 533.964 Q57.2884 541.071 59.0939 544.635 Q60.9226 548.177 64.5337 548.177 Q68.168 548.177 69.9735 544.635 Q71.8022 541.071 71.8022 533.964 Q71.8022 526.834 69.9735 523.293 Q68.168 519.728 64.5337 519.728 M64.5337 516.024 Q70.3439 516.024 73.3994 520.631 Q76.4781 525.214 76.4781 533.964 Q76.4781 542.691 73.3994 547.297 Q70.3439 551.881 64.5337 551.881 Q58.7236 551.881 55.6449 547.297 Q52.5893 542.691 52.5893 533.964 Q52.5893 525.214 55.6449 520.631 Q58.7236 516.024 64.5337 516.024 Z" fill="#000000" fill-rule="nonzero" fill-opacity="1" /><path clip-path="url(#clip170)" d="M84.6956 545.33 L89.5799 545.33 L89.5799 551.209 L84.6956 551.209 L84.6956 545.33 Z" fill="#000000" fill-rule="nonzero" fill-opacity="1" /><path clip-path="url(#clip170)" d="M103.793 547.274 L120.112 547.274 L120.112 551.209 L98.1678 551.209 L98.1678 547.274 Q100.83 544.52 105.413 539.89 Q110.02 535.237 111.2 533.895 Q113.445 531.372 114.325 529.635 Q115.228 527.876 115.228 526.186 Q115.228 523.432 113.283 521.696 Q111.362 519.96 108.26 519.96 Q106.061 519.96 103.608 520.723 Q101.177 521.487 98.3993 523.038 L98.3993 518.316 Q101.223 517.182 103.677 516.603 Q106.131 516.024 108.168 516.024 Q113.538 516.024 116.733 518.71 Q119.927 521.395 119.927 525.885 Q119.927 528.015 119.117 529.936 Q118.33 531.834 116.223 534.427 Q115.645 535.098 112.543 538.316 Q109.441 541.51 103.793 547.274 Z" fill="#000000" fill-rule="nonzero" fill-opacity="1" /><path clip-path="url(#clip170)" d="M63.5847 169.707 Q59.9736 169.707 58.1449 173.272 Q56.3393 176.813 56.3393 183.943 Q56.3393 191.049 58.1449 194.614 Q59.9736 198.156 63.5847 198.156 Q67.2189 198.156 69.0244 194.614 Q70.8531 191.049 70.8531 183.943 Q70.8531 176.813 69.0244 173.272 Q67.2189 169.707 63.5847 169.707 M63.5847 166.003 Q69.3948 166.003 72.4503 170.61 Q75.529 175.193 75.529 183.943 Q75.529 192.67 72.4503 197.276 Q69.3948 201.86 63.5847 201.86 Q57.7745 201.86 54.6958 197.276 Q51.6403 192.67 51.6403 183.943 Q51.6403 175.193 54.6958 170.61 Q57.7745 166.003 63.5847 166.003 Z" fill="#000000" fill-rule="nonzero" fill-opacity="1" /><path clip-path="url(#clip170)" d="M83.7466 195.309 L88.6308 195.309 L88.6308 201.188 L83.7466 201.188 L83.7466 195.309 Z" fill="#000000" fill-rule="nonzero" fill-opacity="1" /><path clip-path="url(#clip170)" d="M112.983 182.554 Q116.339 183.272 118.214 185.54 Q120.112 187.809 120.112 191.142 Q120.112 196.258 116.594 199.059 Q113.075 201.86 106.594 201.86 Q104.418 201.86 102.103 201.42 Q99.8113 201.003 97.3576 200.147 L97.3576 195.633 Q99.3021 196.767 101.617 197.346 Q103.932 197.924 106.455 197.924 Q110.853 197.924 113.145 196.188 Q115.459 194.452 115.459 191.142 Q115.459 188.086 113.307 186.374 Q111.177 184.637 107.358 184.637 L103.33 184.637 L103.33 180.795 L107.543 180.795 Q110.992 180.795 112.82 179.429 Q114.649 178.04 114.649 175.448 Q114.649 172.786 112.751 171.374 Q110.876 169.938 107.358 169.938 Q105.436 169.938 103.237 170.355 Q101.038 170.772 98.3993 171.651 L98.3993 167.485 Q101.061 166.744 103.376 166.374 Q105.714 166.003 107.774 166.003 Q113.098 166.003 116.2 168.434 Q119.302 170.841 119.302 174.962 Q119.302 177.832 117.658 179.823 Q116.015 181.79 112.983 182.554 Z" fill="#000000" fill-rule="nonzero" fill-opacity="1" /><polyline clip-path="url(#clip172)" style="stroke:#009af9; stroke-linecap:round; stroke-linejoin:round; stroke-width:4; stroke-opacity:1; fill:none" points="218.281,1233.97 225.189,1234.01 232.097,1234.37 239.004,1234.31 245.912,1234.42 252.82,1234.49 259.727,1234.12 266.635,1233.78 273.543,1233.08 280.45,1232.37 287.358,1232.14 294.266,1231.27 301.174,1230.53 308.081,1230.01 314.989,1229.7 321.897,1229.84 328.804,1230.18 335.712,1230.02 342.62,1229.76 349.527,1229.05 356.435,1228.81 363.343,1228.7 370.25,1229.01 377.158,1229.22 384.066,1229.74 390.973,1230.53 397.881,1230.88 404.789,1231.31 411.696,1231.25 418.604,1231.59 425.512,1231.36 432.42,1231.44 439.327,1231.06 446.235,1230.81 453.143,1230.09 460.05,1229.63 466.958,1228.91 473.866,1228.29 480.773,1228.23 487.681,1227.89 494.589,1227.39 501.496,1227.19 508.404,1226.67 515.312,1226.42 522.219,1225.99 529.127,1225.89 536.035,1225.88 542.942,1226.03 549.85,1226.71 556.758,1226.89 563.666,1226.96 570.573,1226.99 577.481,1227.07 584.389,1227.31 591.296,1227.77 598.204,1227.69 605.112,1227.94 612.019,1228.1 618.927,1228.37 625.835,1229.24 632.742,1230.36 639.65,1231.55 646.558,1232.68 653.465,1233.82 660.373,1235.19 667.281,1236.16 674.188,1237.52 681.096,1239.03 688.004,1240.17 694.912,1240.97 701.819,1241.11 708.727,1241.16 715.635,1241.23 722.542,1241.07 729.45,1240.58 736.358,1240.12 743.265,1239.1 750.173,1238.06 757.081,1237.64 763.988,1237.08 770.896,1236.17 777.804,1235.2 784.711,1234.04 791.619,1233.36 798.527,1232.07 805.435,1230.44 812.342,1228.82 819.25,1227.08 826.158,1225.13 833.065,1223.06 839.973,1220.94 846.881,1219.38 853.788,1217.4 860.696,1215.12 867.604,1213.12 874.511,1211.12 881.419,1208.96 888.327,1206.98 895.234,1204.55 902.142,1201.75 909.05,1198.58 915.957,1195.48 922.865,1192.2 929.773,1188.79 936.681,1185.15 943.588,1180.99 950.496,1176.85 957.404,1172.54 964.311,1167.77 971.219,1162.61 978.127,1157.29 985.034,1151.98 991.942,1147.17 998.85,1143.08 1005.76,1139.25 1012.67,1135.31 1019.57,1130.78 1026.48,1126.32 1033.39,1121.57 1040.3,1117.19 1047.2,1112.63 1054.11,1108.6 1061.02,1104.03 1067.93,1099 1074.83,1093.94 1081.74,1088.82 1088.65,1083.05 1095.56,1078.1 1102.46,1073.38 1109.37,1068.76 1116.28,1064.44 1123.19,1060.5 1130.1,1056.68 1137,1052.94 1143.91,1048.88 1150.82,1044.11 1157.73,1039.22 1164.63,1034.36 1171.54,1029.97 1178.45,1025.12 1185.36,1020.68 1192.26,1015.7 1199.17,1011.11 1206.08,1006.42 1212.99,1001.66 1219.9,996.882 1226.8,991.869 1233.71,986.552 1240.62,981.669 1247.53,976.703 1254.43,971.666 1261.34,966.58 1268.25,961.654 1275.16,957.199 1282.06,952.554 1288.97,947.745 1295.88,943.436 1302.79,938.794 1309.7,933.99 1316.6,929.542 1323.51,925.031 1330.42,920.255 1337.33,915.392 1344.23,910.758 1351.14,906.126 1358.05,901.261 1364.96,896.511 1371.86,891.958 1378.77,887.416 1385.68,882.649 1392.59,877.651 1399.5,872.589 1406.4,867.031 1413.31,861.149 1420.22,854.77 1427.13,848.748 1434.03,842.138 1440.94,835.525 1447.85,828.416 1454.76,821.945 1461.66,815.748 1468.57,809.877 1475.48,803.696 1482.39,797.121 1489.3,789.529 1496.2,781.925 1503.11,774.434 1510.02,766.966 1516.93,758.74 1523.83,750.332 1530.74,741.959 1537.65,733.761 1544.56,725.511 1551.46,717.121 1558.37,709.075 1565.28,700.727 1572.19,692.68 1579.1,684.513 1586,676.953 1592.91,669.637 1599.82,662.429 1606.73,655.027 1613.63,647.777 1620.54,639.886 1627.45,631.935 1634.36,623.48 1641.26,614.958 1648.17,606.282 1655.08,597.312 1661.99,588.706 1668.9,580.215 1675.8,571.335 1682.71,562.514 1689.62,553.223 1696.53,544.046 1703.43,535.607 1710.34,527.24 1717.25,519.124 1724.16,511.168 1731.06,503.123 1737.97,494.97 1744.88,486.856 1751.79,478.859 1758.7,471.074 1765.6,463.412 1772.51,455.376 1779.42,447.89 1786.33,440.588 1793.23,433.137 1800.14,425.543 1807.05,418.361 1813.96,411.082 1820.86,404.15 1827.77,397.098 1834.68,389.938 1841.59,382.737 1848.49,375.3 1855.4,368.224 1862.31,360.966 1869.22,354.095 1876.13,347.766 1883.03,341.357 1889.94,335.157 1896.85,328.677 1903.76,322.261 1910.66,316.069 1917.57,309.719 1924.48,303.712 1931.39,297.299 1938.29,291.3 1945.2,285.344 1952.11,279.909 1959.02,274.314 1965.93,268.926 1972.83,263.545 1979.74,258.468 1986.65,253.744 1993.56,249.186 2000.46,244.795 2007.37,239.959 2014.28,235.474 2021.19,230.944 2028.09,226.443 2035,221.975 2041.91,217.901 2048.82,213.549 2055.73,209.7 2062.63,205.983 2069.54,202.625 2076.45,199.035 2083.36,195.091 2090.26,191.597 2097.17,188.383 2104.08,185.354 2110.99,182.615 2117.89,180.094 2124.8,177.628 2131.71,175.291 2138.62,172.608 2145.53,169.589 2152.43,166.583 2159.34,162.927 2166.25,159.395 2173.16,156.233 2180.06,152.841 2186.97,149.479 2193.88,145.729 2200.79,141.555 2207.69,137.45 2214.6,133.49 2221.51,130.079 2228.42,126.322 2235.33,122.04 2242.23,117.474 2249.14,112.961 2256.05,108.682 2262.96,103.959 2269.86,99.7146 2276.77,95.1884 2283.68,90.7993 2290.59,86.1857 "/>
<polyline clip-path="url(#clip172)" style="stroke:#e26f46; stroke-linecap:round; stroke-linejoin:round; stroke-width:4; stroke-opacity:1; fill:none" points="218.281,1237.58 225.189,1270.42 232.097,1227.68 239.004,1244.57 245.912,1241.5 252.82,1196.68 259.727,1200.53 266.635,1163.47 273.543,1163.52 280.45,1210.99 287.358,1146.2 294.266,1160.46 301.174,1181.96 308.081,1203 314.989,1247.39 321.897,1268.13 328.804,1218.34 335.712,1208.24 342.62,1162.45 349.527,1209.83 356.435,1223.04 363.343,1265.59 370.25,1254.41 377.158,1286.43 384.066,1312.77 390.973,1269.3 397.881,1276.2 404.789,1228.36 411.696,1267.64 418.604,1211.34 425.512,1241.85 432.42,1196.08 439.327,1208.96 446.235,1162.02 453.143,1187.86 460.05,1162.42 466.958,1171.48 473.866,1227.98 480.773,1199.87 487.681,1184.32 494.589,1214.3 501.496,1181.23 508.404,1209.17 515.312,1191.24 522.219,1223.92 529.127,1232.53 536.035,1248.92 542.942,1302.3 549.85,1251.49 556.758,1241.27 563.666,1237.09 570.573,1241.73 577.481,1258.56 584.389,1279.22 591.296,1226.88 598.204,1258.71 605.112,1249.58 612.019,1261.04 618.927,1320.81 625.835,1346.61 632.742,1352.36 639.65,1347.04 646.558,1347.83 653.465,1371.42 660.373,1330.48 667.281,1370.67 674.188,1384.24 681.096,1348.35 688.004,1313.97 694.912,1248.54 701.819,1238.53 708.727,1240.56 715.635,1218.8 722.542,1184.57 729.45,1187.48 736.358,1132.06 743.265,1130.5 750.173,1191.4 757.081,1177.98 763.988,1143.84 770.896,1136.21 777.804,1117.8 784.711,1166.61 791.619,1104.59 798.527,1071.12 805.435,1071.78 812.342,1060.15 819.25,1038.88 826.158,1027.04 833.065,1021.79 839.973,1078.17 846.881,1036.23 853.788,1006.04 860.696,1034.17 867.604,1033.63 874.511,1017.72 881.419,1035.82 888.327,991.58 895.234,953.805 902.142,916.63 909.05,924.406 915.957,905.59 922.865,893.385 929.773,869.994 936.681,817.83 943.588,820.137 950.496,802.389 957.404,757.735 964.311,717.512 971.219,701.46 978.127,703.333 985.034,753.173 991.942,824.684 998.85,850.774 1005.76,839.913 1012.67,781.249 1019.57,788.024 1026.48,758.661 1033.39,796.4 1040.3,778.406 1047.2,830.925 1054.11,776.625 1061.02,730.817 1067.93,727.861 1074.83,721.757 1081.74,657.912 1088.65,738.908 1095.56,761.542 1102.46,772.382 1109.37,801.493 1116.28,839.773 1123.19,851.988 1130.1,860.724 1137,827.359 1143.91,756.751 1150.82,745.609 1157.73,747.446 1164.63,795.301 1171.54,749.141 1178.45,789.717 1185.36,735.726 1192.26,775.048 1199.17,765.415 1206.08,757.938 1212.99,755.94 1219.9,732.632 1226.8,702.325 1233.71,745.658 1240.62,737.396 1247.53,730.189 1254.43,725.386 1261.34,741.416 1268.25,788.467 1275.16,769.443 1282.06,753.105 1288.97,803.094 1295.88,769.737 1302.79,753.526 1309.7,789.179 1316.6,782.865 1323.51,756.383 1330.42,747.645 1337.33,770.65 1344.23,770.719 1351.14,747.502 1358.05,758.985 1364.96,778.635 1371.86,779.797 1378.77,757.288 1385.68,734.111 1392.59,727.761 1399.5,678.176 1406.4,645.818 1413.31,596.021 1420.22,631.842 1427.13,572.898 1434.03,572.727 1440.94,523.071 1447.85,586.855 1454.76,614.304 1461.66,646.859 1468.57,615.853 1475.48,576.449 1482.39,474.756 1489.3,473.594 1496.2,484.86 1503.11,487.244 1510.02,411.336 1516.93,393.195 1523.83,396.631 1530.74,414.168 1537.65,408.967 1544.56,395.044 1551.46,429.326 1558.37,399.135 1565.28,429.354 1572.19,417.212 1579.1,477.986 1586,502.34 1592.91,513.23 1599.82,493.784 1606.73,508.961 1613.63,444.842 1620.54,438.887 1627.45,388.458 1634.36,381.765 1641.26,366.351 1648.17,337.009 1655.08,373.372 1661.99,384.834 1668.9,346.034 1675.8,351.826 1682.71,304.847 1689.62,316.354 1696.53,389.996 1703.43,397.258 1710.34,422.383 1717.25,438.356 1724.16,429.48 1731.06,418.672 1737.97,422.626 1744.88,434.221 1751.79,455.491 1758.7,467.768 1765.6,430.341 1772.51,485.444 1779.42,503.739 1786.33,488.848 1793.23,474.648 1800.14,515.719 1807.05,506.061 1813.96,540.836 1820.86,528.698 1827.77,517.998 1834.68,513.844 1841.59,490.286 1848.49,526.341 1855.4,508.213 1862.31,546.911 1869.22,601.052 1876.13,593.057 1883.03,613.927 1889.94,586.034 1896.85,592.308 1903.76,614.772 1910.66,598.992 1917.57,633.275 1924.48,592.699 1931.39,634.023 1938.29,638.4 1945.2,690.49 1952.11,674.499 1959.02,695.121 1965.93,695.93 1972.83,726.241 1979.74,761.515 1986.65,778.189 1993.56,794.926 2000.46,750.374 2007.37,785.49 2014.28,780.97 2021.19,783.863 2028.09,787.134 2035,826.573 2041.91,798.819 2048.82,849.037 2055.73,862.277 2062.63,898.112 2069.54,875.037 2076.45,839.505 2083.36,884.647 2090.26,912.569 2097.17,931.054 2104.08,960.065 2110.99,981.82 2117.89,987.409 2124.8,1000.29 2131.71,965.652 2138.62,932.051 2145.53,933.385 2152.43,868.394 2159.34,880.755 2166.25,917.763 2173.16,894.822 2180.06,897.704 2186.97,858.982 2193.88,816.627 2200.79,823.388 2207.69,838.032 2214.6,892.832 2221.51,858.337 2228.42,805.75 2235.33,777.35 2242.23,782.635 2249.14,806.119 2256.05,761.654 2262.96,809.546 2269.86,781.346 2276.77,795.069 2283.68,772.606 2290.59,756.243 "/>
<path clip-path="url(#clip170)" d="M229.334 248.629 L674.575 248.629 L674.575 93.1086 L229.334 93.1086  Z" fill="#ffffff" fill-rule="evenodd" fill-opacity="1"/>
<polyline clip-path="url(#clip170)" style="stroke:#000000; stroke-linecap:round; stroke-linejoin:round; stroke-width:4; stroke-opacity:1; fill:none" points="229.334,248.629 674.575,248.629 674.575,93.1086 229.334,93.1086 229.334,248.629 "/>
<polyline clip-path="url(#clip170)" style="stroke:#009af9; stroke-linecap:round; stroke-linejoin:round; stroke-width:4; stroke-opacity:1; fill:none" points="253.741,144.949 400.184,144.949 "/>
<path clip-path="url(#clip170)" d="M438.433 164.636 Q436.628 169.266 434.915 170.678 Q433.202 172.09 430.332 172.09 L426.929 172.09 L426.929 168.525 L429.429 168.525 Q431.188 168.525 432.16 167.692 Q433.132 166.858 434.313 163.756 L435.077 161.812 L424.591 136.303 L429.105 136.303 L437.206 156.581 L445.308 136.303 L449.822 136.303 L438.433 164.636 Z" fill="#000000" fill-rule="nonzero" fill-opacity="1" /><path clip-path="url(#clip170)" d="M474.891 158.34 L474.891 172.09 L470.609 172.09 L470.609 136.303 L474.891 136.303 L474.891 140.238 Q476.234 137.923 478.271 136.812 Q480.331 135.678 483.178 135.678 Q487.901 135.678 490.84 139.428 Q493.803 143.178 493.803 149.289 Q493.803 155.4 490.84 159.15 Q487.901 162.9 483.178 162.9 Q480.331 162.9 478.271 161.789 Q476.234 160.655 474.891 158.34 M489.382 149.289 Q489.382 144.59 487.438 141.928 Q485.516 139.243 482.137 139.243 Q478.757 139.243 476.813 141.928 Q474.891 144.59 474.891 149.289 Q474.891 153.988 476.813 156.673 Q478.757 159.335 482.137 159.335 Q485.516 159.335 487.438 156.673 Q489.382 153.988 489.382 149.289 Z" fill="#000000" fill-rule="nonzero" fill-opacity="1" /><path clip-path="url(#clip170)" d="M510.91 139.289 Q507.484 139.289 505.493 141.974 Q503.502 144.636 503.502 149.289 Q503.502 153.942 505.47 156.627 Q507.461 159.289 510.91 159.289 Q514.313 159.289 516.303 156.604 Q518.294 153.918 518.294 149.289 Q518.294 144.682 516.303 141.997 Q514.313 139.289 510.91 139.289 M510.91 135.678 Q516.465 135.678 519.637 139.289 Q522.808 142.9 522.808 149.289 Q522.808 155.655 519.637 159.289 Q516.465 162.9 510.91 162.9 Q505.331 162.9 502.16 159.289 Q499.012 155.655 499.012 149.289 Q499.012 142.9 502.16 139.289 Q505.331 135.678 510.91 135.678 Z" fill="#000000" fill-rule="nonzero" fill-opacity="1" /><path clip-path="url(#clip170)" d="M546.396 137.067 L546.396 141.094 Q544.59 140.169 542.646 139.706 Q540.701 139.243 538.618 139.243 Q535.447 139.243 533.849 140.215 Q532.275 141.187 532.275 143.131 Q532.275 144.613 533.41 145.469 Q534.544 146.303 537.97 147.067 L539.428 147.391 Q543.965 148.363 545.863 150.145 Q547.785 151.905 547.785 155.076 Q547.785 158.687 544.914 160.793 Q542.067 162.9 537.067 162.9 Q534.984 162.9 532.715 162.483 Q530.47 162.09 527.97 161.28 L527.97 156.881 Q530.331 158.108 532.623 158.733 Q534.914 159.335 537.16 159.335 Q540.169 159.335 541.789 158.317 Q543.41 157.275 543.41 155.4 Q543.41 153.664 542.229 152.738 Q541.072 151.812 537.113 150.956 L535.632 150.608 Q531.674 149.775 529.914 148.062 Q528.155 146.326 528.155 143.317 Q528.155 139.659 530.748 137.669 Q533.34 135.678 538.109 135.678 Q540.47 135.678 542.553 136.025 Q544.636 136.372 546.396 137.067 Z" fill="#000000" fill-rule="nonzero" fill-opacity="1" /><path clip-path="url(#clip170)" d="M554.567 136.303 L558.826 136.303 L558.826 162.229 L554.567 162.229 L554.567 136.303 M554.567 126.21 L558.826 126.21 L558.826 131.604 L554.567 131.604 L554.567 126.21 Z" fill="#000000" fill-rule="nonzero" fill-opacity="1" /><path clip-path="url(#clip170)" d="M571.951 128.942 L571.951 136.303 L580.724 136.303 L580.724 139.613 L571.951 139.613 L571.951 153.687 Q571.951 156.858 572.808 157.761 Q573.687 158.664 576.349 158.664 L580.724 158.664 L580.724 162.229 L576.349 162.229 Q571.419 162.229 569.544 160.4 Q567.669 158.548 567.669 153.687 L567.669 139.613 L564.544 139.613 L564.544 136.303 L567.669 136.303 L567.669 128.942 L571.951 128.942 Z" fill="#000000" fill-rule="nonzero" fill-opacity="1" /><path clip-path="url(#clip170)" d="M586.326 136.303 L590.585 136.303 L590.585 162.229 L586.326 162.229 L586.326 136.303 M586.326 126.21 L590.585 126.21 L590.585 131.604 L586.326 131.604 L586.326 126.21 Z" fill="#000000" fill-rule="nonzero" fill-opacity="1" /><path clip-path="url(#clip170)" d="M609.544 139.289 Q606.118 139.289 604.127 141.974 Q602.136 144.636 602.136 149.289 Q602.136 153.942 604.104 156.627 Q606.094 159.289 609.544 159.289 Q612.946 159.289 614.937 156.604 Q616.928 153.918 616.928 149.289 Q616.928 144.682 614.937 141.997 Q612.946 139.289 609.544 139.289 M609.544 135.678 Q615.099 135.678 618.27 139.289 Q621.442 142.9 621.442 149.289 Q621.442 155.655 618.27 159.289 Q615.099 162.9 609.544 162.9 Q603.965 162.9 600.794 159.289 Q597.645 155.655 597.645 149.289 Q597.645 142.9 600.794 139.289 Q603.965 135.678 609.544 135.678 Z" fill="#000000" fill-rule="nonzero" fill-opacity="1" /><path clip-path="url(#clip170)" d="M650.053 146.581 L650.053 162.229 L645.793 162.229 L645.793 146.719 Q645.793 143.039 644.358 141.21 Q642.923 139.382 640.053 139.382 Q636.604 139.382 634.613 141.581 Q632.622 143.78 632.622 147.576 L632.622 162.229 L628.34 162.229 L628.34 136.303 L632.622 136.303 L632.622 140.331 Q634.15 137.993 636.21 136.835 Q638.293 135.678 641.002 135.678 Q645.469 135.678 647.761 138.456 Q650.053 141.21 650.053 146.581 Z" fill="#000000" fill-rule="nonzero" fill-opacity="1" /><polyline clip-path="url(#clip170)" style="stroke:#e26f46; stroke-linecap:round; stroke-linejoin:round; stroke-width:4; stroke-opacity:1; fill:none" points="253.741,196.789 400.184,196.789 "/>
<path clip-path="url(#clip170)" d="M438.433 216.476 Q436.628 221.106 434.915 222.518 Q433.202 223.93 430.332 223.93 L426.929 223.93 L426.929 220.365 L429.429 220.365 Q431.188 220.365 432.16 219.532 Q433.132 218.698 434.313 215.596 L435.077 213.652 L424.591 188.143 L429.105 188.143 L437.206 208.421 L445.308 188.143 L449.822 188.143 L438.433 216.476 Z" fill="#000000" fill-rule="nonzero" fill-opacity="1" /><path clip-path="url(#clip170)" d="M467.716 188.143 L472.229 188.143 L480.331 209.902 L488.433 188.143 L492.947 188.143 L483.225 214.069 L477.438 214.069 L467.716 188.143 Z" fill="#000000" fill-rule="nonzero" fill-opacity="1" /><path clip-path="url(#clip170)" d="M521.002 200.041 L521.002 202.124 L501.419 202.124 Q501.697 206.522 504.058 208.837 Q506.442 211.129 510.678 211.129 Q513.132 211.129 515.424 210.527 Q517.738 209.925 520.007 208.721 L520.007 212.749 Q517.715 213.721 515.308 214.231 Q512.901 214.74 510.424 214.74 Q504.22 214.74 500.586 211.129 Q496.975 207.518 496.975 201.36 Q496.975 194.995 500.401 191.268 Q503.85 187.518 509.683 187.518 Q514.914 187.518 517.947 190.897 Q521.002 194.254 521.002 200.041 M516.743 198.791 Q516.697 195.296 514.776 193.212 Q512.877 191.129 509.729 191.129 Q506.164 191.129 504.012 193.143 Q501.882 195.157 501.558 198.814 L516.743 198.791 Z" fill="#000000" fill-rule="nonzero" fill-opacity="1" /><path clip-path="url(#clip170)" d="M527.993 178.05 L532.252 178.05 L532.252 214.069 L527.993 214.069 L527.993 178.05 Z" fill="#000000" fill-rule="nonzero" fill-opacity="1" /><path clip-path="url(#clip170)" d="M551.211 191.129 Q547.785 191.129 545.794 193.814 Q543.803 196.476 543.803 201.129 Q543.803 205.782 545.771 208.467 Q547.761 211.129 551.211 211.129 Q554.613 211.129 556.604 208.444 Q558.595 205.758 558.595 201.129 Q558.595 196.522 556.604 193.837 Q554.613 191.129 551.211 191.129 M551.211 187.518 Q556.766 187.518 559.937 191.129 Q563.109 194.74 563.109 201.129 Q563.109 207.495 559.937 211.129 Q556.766 214.74 551.211 214.74 Q545.632 214.74 542.461 211.129 Q539.312 207.495 539.312 201.129 Q539.312 194.74 542.461 191.129 Q545.632 187.518 551.211 187.518 Z" fill="#000000" fill-rule="nonzero" fill-opacity="1" /><path clip-path="url(#clip170)" d="M588.826 189.138 L588.826 193.12 Q587.02 192.124 585.192 191.638 Q583.386 191.129 581.534 191.129 Q577.391 191.129 575.099 193.768 Q572.808 196.384 572.808 201.129 Q572.808 205.874 575.099 208.513 Q577.391 211.129 581.534 211.129 Q583.386 211.129 585.192 210.643 Q587.02 210.133 588.826 209.138 L588.826 213.073 Q587.044 213.907 585.122 214.323 Q583.224 214.74 581.071 214.74 Q575.215 214.74 571.766 211.059 Q568.317 207.379 568.317 201.129 Q568.317 194.786 571.789 191.152 Q575.284 187.518 581.349 187.518 Q583.317 187.518 585.192 187.935 Q587.067 188.328 588.826 189.138 Z" fill="#000000" fill-rule="nonzero" fill-opacity="1" /><path clip-path="url(#clip170)" d="M596.233 188.143 L600.493 188.143 L600.493 214.069 L596.233 214.069 L596.233 188.143 M596.233 178.05 L600.493 178.05 L600.493 183.444 L596.233 183.444 L596.233 178.05 Z" fill="#000000" fill-rule="nonzero" fill-opacity="1" /><path clip-path="url(#clip170)" d="M613.618 180.782 L613.618 188.143 L622.391 188.143 L622.391 191.453 L613.618 191.453 L613.618 205.527 Q613.618 208.698 614.474 209.601 Q615.354 210.504 618.016 210.504 L622.391 210.504 L622.391 214.069 L618.016 214.069 Q613.085 214.069 611.21 212.24 Q609.335 210.388 609.335 205.527 L609.335 191.453 L606.21 191.453 L606.21 188.143 L609.335 188.143 L609.335 180.782 L613.618 180.782 Z" fill="#000000" fill-rule="nonzero" fill-opacity="1" /><path clip-path="url(#clip170)" d="M638.779 216.476 Q636.974 221.106 635.261 222.518 Q633.548 223.93 630.678 223.93 L627.275 223.93 L627.275 220.365 L629.775 220.365 Q631.534 220.365 632.506 219.532 Q633.479 218.698 634.659 215.596 L635.423 213.652 L624.937 188.143 L629.451 188.143 L637.553 208.421 L645.654 188.143 L650.168 188.143 L638.779 216.476 Z" fill="#000000" fill-rule="nonzero" fill-opacity="1" /></svg>
