<?xml version="1.0" encoding="utf-8"?>
<svg xmlns="http://www.w3.org/2000/svg" xmlns:xlink="http://www.w3.org/1999/xlink" width="600" height="400" viewBox="0 0 2400 1600">
<defs>
  <clipPath id="clip610">
    <rect x="0" y="0" width="2400" height="1600"/>
  </clipPath>
</defs>
<path clip-path="url(#clip610)" d="M0 1600 L2400 1600 L2400 0 L0 0  Z" fill="#ffffff" fill-rule="evenodd" fill-opacity="1"/>
<defs>
  <clipPath id="clip611">
    <rect x="480" y="0" width="1681" height="1600"/>
  </clipPath>
</defs>
<path clip-path="url(#clip610)" d="M224.098 1423.18 L2352.76 1423.18 L2352.76 47.2441 L224.098 47.2441  Z" fill="#ffffff" fill-rule="evenodd" fill-opacity="1"/>
<defs>
  <clipPath id="clip612">
    <rect x="224" y="47" width="2130" height="1377"/>
  </clipPath>
</defs>
<polyline clip-path="url(#clip612)" style="stroke:#000000; stroke-linecap:round; stroke-linejoin:round; stroke-width:2; stroke-opacity:0.1; fill:none" points="284.343,1423.18 284.343,47.2441 "/>
<polyline clip-path="url(#clip612)" style="stroke:#000000; stroke-linecap:round; stroke-linejoin:round; stroke-width:2; stroke-opacity:0.1; fill:none" points="953.732,1423.18 953.732,47.2441 "/>
<polyline clip-path="url(#clip612)" style="stroke:#000000; stroke-linecap:round; stroke-linejoin:round; stroke-width:2; stroke-opacity:0.1; fill:none" points="1623.12,1423.18 1623.12,47.2441 "/>
<polyline clip-path="url(#clip612)" style="stroke:#000000; stroke-linecap:round; stroke-linejoin:round; stroke-width:2; stroke-opacity:0.1; fill:none" points="2292.51,1423.18 2292.51,47.2441 "/>
<polyline clip-path="url(#clip610)" style="stroke:#000000; stroke-linecap:round; stroke-linejoin:round; stroke-width:4; stroke-opacity:1; fill:none" points="224.098,1423.18 2352.76,1423.18 "/>
<polyline clip-path="url(#clip610)" style="stroke:#000000; stroke-linecap:round; stroke-linejoin:round; stroke-width:4; stroke-opacity:1; fill:none" points="284.343,1423.18 284.343,1404.28 "/>
<polyline clip-path="url(#clip610)" style="stroke:#000000; stroke-linecap:round; stroke-linejoin:round; stroke-width:4; stroke-opacity:1; fill:none" points="953.732,1423.18 953.732,1404.28 "/>
<polyline clip-path="url(#clip610)" style="stroke:#000000; stroke-linecap:round; stroke-linejoin:round; stroke-width:4; stroke-opacity:1; fill:none" points="1623.12,1423.18 1623.12,1404.28 "/>
<polyline clip-path="url(#clip610)" style="stroke:#000000; stroke-linecap:round; stroke-linejoin:round; stroke-width:4; stroke-opacity:1; fill:none" points="2292.51,1423.18 2292.51,1404.28 "/>
<path clip-path="url(#clip610)" d="M284.343 1454.1 Q280.732 1454.1 278.903 1457.66 Q277.098 1461.2 277.098 1468.33 Q277.098 1475.44 278.903 1479.01 Q280.732 1482.55 284.343 1482.55 Q287.977 1482.55 289.783 1479.01 Q291.611 1475.44 291.611 1468.33 Q291.611 1461.2 289.783 1457.66 Q287.977 1454.1 284.343 1454.1 M284.343 1450.39 Q290.153 1450.39 293.209 1455 Q296.287 1459.58 296.287 1468.33 Q296.287 1477.06 293.209 1481.67 Q290.153 1486.25 284.343 1486.25 Q278.533 1486.25 275.454 1481.67 Q272.399 1477.06 272.399 1468.33 Q272.399 1459.58 275.454 1455 Q278.533 1450.39 284.343 1450.39 Z" fill="#000000" fill-rule="nonzero" fill-opacity="1" /><path clip-path="url(#clip610)" d="M944.114 1481.64 L951.753 1481.64 L951.753 1455.28 L943.443 1456.95 L943.443 1452.69 L951.707 1451.02 L956.383 1451.02 L956.383 1481.64 L964.022 1481.64 L964.022 1485.58 L944.114 1485.58 L944.114 1481.64 Z" fill="#000000" fill-rule="nonzero" fill-opacity="1" /><path clip-path="url(#clip610)" d="M1617.77 1481.64 L1634.09 1481.64 L1634.09 1485.58 L1612.15 1485.58 L1612.15 1481.64 Q1614.81 1478.89 1619.39 1474.26 Q1624 1469.61 1625.18 1468.27 Q1627.43 1465.74 1628.31 1464.01 Q1629.21 1462.25 1629.21 1460.56 Q1629.21 1457.8 1627.27 1456.07 Q1625.34 1454.33 1622.24 1454.33 Q1620.04 1454.33 1617.59 1455.09 Q1615.16 1455.86 1612.38 1457.41 L1612.38 1452.69 Q1615.2 1451.55 1617.66 1450.97 Q1620.11 1450.39 1622.15 1450.39 Q1627.52 1450.39 1630.71 1453.08 Q1633.91 1455.77 1633.91 1460.26 Q1633.91 1462.39 1633.1 1464.31 Q1632.31 1466.2 1630.2 1468.8 Q1629.63 1469.47 1626.52 1472.69 Q1623.42 1475.88 1617.77 1481.64 Z" fill="#000000" fill-rule="nonzero" fill-opacity="1" /><path clip-path="url(#clip610)" d="M2296.76 1466.95 Q2300.11 1467.66 2301.99 1469.93 Q2303.89 1472.2 2303.89 1475.53 Q2303.89 1480.65 2300.37 1483.45 Q2296.85 1486.25 2290.37 1486.25 Q2288.19 1486.25 2285.88 1485.81 Q2283.59 1485.39 2281.13 1484.54 L2281.13 1480.02 Q2283.08 1481.16 2285.39 1481.74 Q2287.71 1482.32 2290.23 1482.32 Q2294.63 1482.32 2296.92 1480.58 Q2299.24 1478.84 2299.24 1475.53 Q2299.24 1472.48 2297.08 1470.77 Q2294.95 1469.03 2291.13 1469.03 L2287.11 1469.03 L2287.11 1465.19 L2291.32 1465.19 Q2294.77 1465.19 2296.6 1463.82 Q2298.43 1462.43 2298.43 1459.84 Q2298.43 1457.18 2296.53 1455.77 Q2294.65 1454.33 2291.13 1454.33 Q2289.21 1454.33 2287.01 1454.75 Q2284.81 1455.16 2282.18 1456.04 L2282.18 1451.88 Q2284.84 1451.14 2287.15 1450.77 Q2289.49 1450.39 2291.55 1450.39 Q2296.87 1450.39 2299.98 1452.83 Q2303.08 1455.23 2303.08 1459.35 Q2303.08 1462.22 2301.43 1464.21 Q2299.79 1466.18 2296.76 1466.95 Z" fill="#000000" fill-rule="nonzero" fill-opacity="1" /><path clip-path="url(#clip610)" d="M1287.49 1522.27 L1287.49 1532.4 L1299.55 1532.4 L1299.55 1536.95 L1287.49 1536.95 L1287.49 1556.3 Q1287.49 1560.66 1288.67 1561.9 Q1289.88 1563.14 1293.54 1563.14 L1299.55 1563.14 L1299.55 1568.04 L1293.54 1568.04 Q1286.76 1568.04 1284.18 1565.53 Q1281.6 1562.98 1281.6 1556.3 L1281.6 1536.95 L1277.3 1536.95 L1277.3 1532.4 L1281.6 1532.4 L1281.6 1522.27 L1287.49 1522.27 Z" fill="#000000" fill-rule="nonzero" fill-opacity="1" /><polyline clip-path="url(#clip612)" style="stroke:#000000; stroke-linecap:round; stroke-linejoin:round; stroke-width:2; stroke-opacity:0.1; fill:none" points="224.098,1378.6 2352.76,1378.6 "/>
<polyline clip-path="url(#clip612)" style="stroke:#000000; stroke-linecap:round; stroke-linejoin:round; stroke-width:2; stroke-opacity:0.1; fill:none" points="224.098,1165.62 2352.76,1165.62 "/>
<polyline clip-path="url(#clip612)" style="stroke:#000000; stroke-linecap:round; stroke-linejoin:round; stroke-width:2; stroke-opacity:0.1; fill:none" points="224.098,952.649 2352.76,952.649 "/>
<polyline clip-path="url(#clip612)" style="stroke:#000000; stroke-linecap:round; stroke-linejoin:round; stroke-width:2; stroke-opacity:0.1; fill:none" points="224.098,739.675 2352.76,739.675 "/>
<polyline clip-path="url(#clip612)" style="stroke:#000000; stroke-linecap:round; stroke-linejoin:round; stroke-width:2; stroke-opacity:0.1; fill:none" points="224.098,526.701 2352.76,526.701 "/>
<polyline clip-path="url(#clip612)" style="stroke:#000000; stroke-linecap:round; stroke-linejoin:round; stroke-width:2; stroke-opacity:0.1; fill:none" points="224.098,313.727 2352.76,313.727 "/>
<polyline clip-path="url(#clip612)" style="stroke:#000000; stroke-linecap:round; stroke-linejoin:round; stroke-width:2; stroke-opacity:0.1; fill:none" points="224.098,100.753 2352.76,100.753 "/>
<polyline clip-path="url(#clip610)" style="stroke:#000000; stroke-linecap:round; stroke-linejoin:round; stroke-width:4; stroke-opacity:1; fill:none" points="224.098,1423.18 224.098,47.2441 "/>
<polyline clip-path="url(#clip610)" style="stroke:#000000; stroke-linecap:round; stroke-linejoin:round; stroke-width:4; stroke-opacity:1; fill:none" points="224.098,1378.6 242.996,1378.6 "/>
<polyline clip-path="url(#clip610)" style="stroke:#000000; stroke-linecap:round; stroke-linejoin:round; stroke-width:4; stroke-opacity:1; fill:none" points="224.098,1165.62 242.996,1165.62 "/>
<polyline clip-path="url(#clip610)" style="stroke:#000000; stroke-linecap:round; stroke-linejoin:round; stroke-width:4; stroke-opacity:1; fill:none" points="224.098,952.649 242.996,952.649 "/>
<polyline clip-path="url(#clip610)" style="stroke:#000000; stroke-linecap:round; stroke-linejoin:round; stroke-width:4; stroke-opacity:1; fill:none" points="224.098,739.675 242.996,739.675 "/>
<polyline clip-path="url(#clip610)" style="stroke:#000000; stroke-linecap:round; stroke-linejoin:round; stroke-width:4; stroke-opacity:1; fill:none" points="224.098,526.701 242.996,526.701 "/>
<polyline clip-path="url(#clip610)" style="stroke:#000000; stroke-linecap:round; stroke-linejoin:round; stroke-width:4; stroke-opacity:1; fill:none" points="224.098,313.727 242.996,313.727 "/>
<polyline clip-path="url(#clip610)" style="stroke:#000000; stroke-linecap:round; stroke-linejoin:round; stroke-width:4; stroke-opacity:1; fill:none" points="224.098,100.753 242.996,100.753 "/>
<path clip-path="url(#clip610)" d="M51.9875 1379.05 L81.6633 1379.05 L81.6633 1382.98 L51.9875 1382.98 L51.9875 1379.05 Z" fill="#000000" fill-rule="nonzero" fill-opacity="1" /><path clip-path="url(#clip610)" d="M101.756 1364.4 Q98.1447 1364.4 96.316 1367.96 Q94.5104 1371.5 94.5104 1378.63 Q94.5104 1385.74 96.316 1389.3 Q98.1447 1392.84 101.756 1392.84 Q105.39 1392.84 107.196 1389.3 Q109.024 1385.74 109.024 1378.63 Q109.024 1371.5 107.196 1367.96 Q105.39 1364.4 101.756 1364.4 M101.756 1360.69 Q107.566 1360.69 110.621 1365.3 Q113.7 1369.88 113.7 1378.63 Q113.7 1387.36 110.621 1391.96 Q107.566 1396.55 101.756 1396.55 Q95.9456 1396.55 92.8669 1391.96 Q89.8114 1387.36 89.8114 1378.63 Q89.8114 1369.88 92.8669 1365.3 Q95.9456 1360.69 101.756 1360.69 Z" fill="#000000" fill-rule="nonzero" fill-opacity="1" /><path clip-path="url(#clip610)" d="M121.918 1390 L126.802 1390 L126.802 1395.88 L121.918 1395.88 L121.918 1390 Z" fill="#000000" fill-rule="nonzero" fill-opacity="1" /><path clip-path="url(#clip610)" d="M141.015 1391.94 L157.334 1391.94 L157.334 1395.88 L135.39 1395.88 L135.39 1391.94 Q138.052 1389.19 142.635 1384.56 Q147.242 1379.9 148.422 1378.56 Q150.668 1376.04 151.547 1374.3 Q152.45 1372.54 152.45 1370.85 Q152.45 1368.1 150.505 1366.36 Q148.584 1364.63 145.482 1364.63 Q143.283 1364.63 140.83 1365.39 Q138.399 1366.15 135.621 1367.71 L135.621 1362.98 Q138.445 1361.85 140.899 1361.27 Q143.353 1360.69 145.39 1360.69 Q150.76 1360.69 153.955 1363.38 Q157.149 1366.06 157.149 1370.55 Q157.149 1372.68 156.339 1374.6 Q155.552 1376.5 153.445 1379.09 Q152.867 1379.77 149.765 1382.98 Q146.663 1386.18 141.015 1391.94 Z" fill="#000000" fill-rule="nonzero" fill-opacity="1" /><path clip-path="url(#clip610)" d="M167.195 1361.32 L185.552 1361.32 L185.552 1365.25 L171.478 1365.25 L171.478 1373.72 Q172.496 1373.38 173.515 1373.21 Q174.533 1373.03 175.552 1373.03 Q181.339 1373.03 184.718 1376.2 Q188.098 1379.37 188.098 1384.79 Q188.098 1390.37 184.626 1393.47 Q181.153 1396.55 174.834 1396.55 Q172.658 1396.55 170.39 1396.18 Q168.144 1395.81 165.737 1395.07 L165.737 1390.37 Q167.82 1391.5 170.042 1392.06 Q172.265 1392.61 174.741 1392.61 Q178.746 1392.61 181.084 1390.51 Q183.422 1388.4 183.422 1384.79 Q183.422 1381.18 181.084 1379.07 Q178.746 1376.96 174.741 1376.96 Q172.866 1376.96 170.991 1377.38 Q169.14 1377.8 167.195 1378.68 L167.195 1361.32 Z" fill="#000000" fill-rule="nonzero" fill-opacity="1" /><path clip-path="url(#clip610)" d="M50.9921 1166.07 L80.6679 1166.07 L80.6679 1170.01 L50.9921 1170.01 L50.9921 1166.07 Z" fill="#000000" fill-rule="nonzero" fill-opacity="1" /><path clip-path="url(#clip610)" d="M100.76 1151.42 Q97.1493 1151.42 95.3206 1154.99 Q93.515 1158.53 93.515 1165.66 Q93.515 1172.76 95.3206 1176.33 Q97.1493 1179.87 100.76 1179.87 Q104.395 1179.87 106.2 1176.33 Q108.029 1172.76 108.029 1165.66 Q108.029 1158.53 106.2 1154.99 Q104.395 1151.42 100.76 1151.42 M100.76 1147.72 Q106.571 1147.72 109.626 1152.32 Q112.705 1156.91 112.705 1165.66 Q112.705 1174.38 109.626 1178.99 Q106.571 1183.57 100.76 1183.57 Q94.9502 1183.57 91.8715 1178.99 Q88.816 1174.38 88.816 1165.66 Q88.816 1156.91 91.8715 1152.32 Q94.9502 1147.72 100.76 1147.72 Z" fill="#000000" fill-rule="nonzero" fill-opacity="1" /><path clip-path="url(#clip610)" d="M120.922 1177.02 L125.807 1177.02 L125.807 1182.9 L120.922 1182.9 L120.922 1177.02 Z" fill="#000000" fill-rule="nonzero" fill-opacity="1" /><path clip-path="url(#clip610)" d="M140.019 1178.97 L156.339 1178.97 L156.339 1182.9 L134.394 1182.9 L134.394 1178.97 Q137.056 1176.21 141.64 1171.58 Q146.246 1166.93 147.427 1165.59 Q149.672 1163.06 150.552 1161.33 Q151.455 1159.57 151.455 1157.88 Q151.455 1155.12 149.51 1153.39 Q147.589 1151.65 144.487 1151.65 Q142.288 1151.65 139.834 1152.42 Q137.404 1153.18 134.626 1154.73 L134.626 1150.01 Q137.45 1148.87 139.904 1148.3 Q142.357 1147.72 144.394 1147.72 Q149.765 1147.72 152.959 1150.4 Q156.154 1153.09 156.154 1157.58 Q156.154 1159.71 155.343 1161.63 Q154.556 1163.53 152.45 1166.12 Q151.871 1166.79 148.769 1170.01 Q145.668 1173.2 140.019 1178.97 Z" fill="#000000" fill-rule="nonzero" fill-opacity="1" /><path clip-path="url(#clip610)" d="M176.153 1151.42 Q172.542 1151.42 170.714 1154.99 Q168.908 1158.53 168.908 1165.66 Q168.908 1172.76 170.714 1176.33 Q172.542 1179.87 176.153 1179.87 Q179.788 1179.87 181.593 1176.33 Q183.422 1172.76 183.422 1165.66 Q183.422 1158.53 181.593 1154.99 Q179.788 1151.42 176.153 1151.42 M176.153 1147.72 Q181.964 1147.72 185.019 1152.32 Q188.098 1156.91 188.098 1165.66 Q188.098 1174.38 185.019 1178.99 Q181.964 1183.57 176.153 1183.57 Q170.343 1183.57 167.265 1178.99 Q164.209 1174.38 164.209 1165.66 Q164.209 1156.91 167.265 1152.32 Q170.343 1147.72 176.153 1147.72 Z" fill="#000000" fill-rule="nonzero" fill-opacity="1" /><path clip-path="url(#clip610)" d="M51.9875 953.1 L81.6633 953.1 L81.6633 957.035 L51.9875 957.035 L51.9875 953.1 Z" fill="#000000" fill-rule="nonzero" fill-opacity="1" /><path clip-path="url(#clip610)" d="M101.756 938.447 Q98.1447 938.447 96.316 942.012 Q94.5104 945.554 94.5104 952.683 Q94.5104 959.79 96.316 963.354 Q98.1447 966.896 101.756 966.896 Q105.39 966.896 107.196 963.354 Q109.024 959.79 109.024 952.683 Q109.024 945.554 107.196 942.012 Q105.39 938.447 101.756 938.447 M101.756 934.744 Q107.566 934.744 110.621 939.35 Q113.7 943.933 113.7 952.683 Q113.7 961.41 110.621 966.017 Q107.566 970.6 101.756 970.6 Q95.9456 970.6 92.8669 966.017 Q89.8114 961.41 89.8114 952.683 Q89.8114 943.933 92.8669 939.35 Q95.9456 934.744 101.756 934.744 Z" fill="#000000" fill-rule="nonzero" fill-opacity="1" /><path clip-path="url(#clip610)" d="M121.918 964.049 L126.802 964.049 L126.802 969.929 L121.918 969.929 L121.918 964.049 Z" fill="#000000" fill-rule="nonzero" fill-opacity="1" /><path clip-path="url(#clip610)" d="M137.797 965.993 L145.436 965.993 L145.436 939.628 L137.126 941.294 L137.126 937.035 L145.39 935.369 L150.066 935.369 L150.066 965.993 L157.705 965.993 L157.705 969.929 L137.797 969.929 L137.797 965.993 Z" fill="#000000" fill-rule="nonzero" fill-opacity="1" /><path clip-path="url(#clip610)" d="M167.195 935.369 L185.552 935.369 L185.552 939.304 L171.478 939.304 L171.478 947.776 Q172.496 947.429 173.515 947.267 Q174.533 947.081 175.552 947.081 Q181.339 947.081 184.718 950.253 Q188.098 953.424 188.098 958.841 Q188.098 964.419 184.626 967.521 Q181.153 970.6 174.834 970.6 Q172.658 970.6 170.39 970.229 Q168.144 969.859 165.737 969.118 L165.737 964.419 Q167.82 965.554 170.042 966.109 Q172.265 966.665 174.741 966.665 Q178.746 966.665 181.084 964.558 Q183.422 962.452 183.422 958.841 Q183.422 955.23 181.084 953.123 Q178.746 951.017 174.741 951.017 Q172.866 951.017 170.991 951.433 Q169.14 951.85 167.195 952.73 L167.195 935.369 Z" fill="#000000" fill-rule="nonzero" fill-opacity="1" /><path clip-path="url(#clip610)" d="M50.9921 740.126 L80.6679 740.126 L80.6679 744.061 L50.9921 744.061 L50.9921 740.126 Z" fill="#000000" fill-rule="nonzero" fill-opacity="1" /><path clip-path="url(#clip610)" d="M100.76 725.473 Q97.1493 725.473 95.3206 729.038 Q93.515 732.58 93.515 739.709 Q93.515 746.816 95.3206 750.381 Q97.1493 753.922 100.76 753.922 Q104.395 753.922 106.2 750.381 Q108.029 746.816 108.029 739.709 Q108.029 732.58 106.2 729.038 Q104.395 725.473 100.76 725.473 M100.76 721.77 Q106.571 721.77 109.626 726.376 Q112.705 730.959 112.705 739.709 Q112.705 748.436 109.626 753.043 Q106.571 757.626 100.76 757.626 Q94.9502 757.626 91.8715 753.043 Q88.816 748.436 88.816 739.709 Q88.816 730.959 91.8715 726.376 Q94.9502 721.77 100.76 721.77 Z" fill="#000000" fill-rule="nonzero" fill-opacity="1" /><path clip-path="url(#clip610)" d="M120.922 751.075 L125.807 751.075 L125.807 756.955 L120.922 756.955 L120.922 751.075 Z" fill="#000000" fill-rule="nonzero" fill-opacity="1" /><path clip-path="url(#clip610)" d="M136.802 753.019 L144.441 753.019 L144.441 726.654 L136.131 728.321 L136.131 724.061 L144.394 722.395 L149.07 722.395 L149.07 753.019 L156.709 753.019 L156.709 756.955 L136.802 756.955 L136.802 753.019 Z" fill="#000000" fill-rule="nonzero" fill-opacity="1" /><path clip-path="url(#clip610)" d="M176.153 725.473 Q172.542 725.473 170.714 729.038 Q168.908 732.58 168.908 739.709 Q168.908 746.816 170.714 750.381 Q172.542 753.922 176.153 753.922 Q179.788 753.922 181.593 750.381 Q183.422 746.816 183.422 739.709 Q183.422 732.58 181.593 729.038 Q179.788 725.473 176.153 725.473 M176.153 721.77 Q181.964 721.77 185.019 726.376 Q188.098 730.959 188.098 739.709 Q188.098 748.436 185.019 753.043 Q181.964 757.626 176.153 757.626 Q170.343 757.626 167.265 753.043 Q164.209 748.436 164.209 739.709 Q164.209 730.959 167.265 726.376 Q170.343 721.77 176.153 721.77 Z" fill="#000000" fill-rule="nonzero" fill-opacity="1" /><path clip-path="url(#clip610)" d="M51.9875 527.152 L81.6633 527.152 L81.6633 531.087 L51.9875 531.087 L51.9875 527.152 Z" fill="#000000" fill-rule="nonzero" fill-opacity="1" /><path clip-path="url(#clip610)" d="M101.756 512.499 Q98.1447 512.499 96.316 516.064 Q94.5104 519.606 94.5104 526.735 Q94.5104 533.842 96.316 537.407 Q98.1447 540.948 101.756 540.948 Q105.39 540.948 107.196 537.407 Q109.024 533.842 109.024 526.735 Q109.024 519.606 107.196 516.064 Q105.39 512.499 101.756 512.499 M101.756 508.796 Q107.566 508.796 110.621 513.402 Q113.7 517.986 113.7 526.735 Q113.7 535.462 110.621 540.069 Q107.566 544.652 101.756 544.652 Q95.9456 544.652 92.8669 540.069 Q89.8114 535.462 89.8114 526.735 Q89.8114 517.986 92.8669 513.402 Q95.9456 508.796 101.756 508.796 Z" fill="#000000" fill-rule="nonzero" fill-opacity="1" /><path clip-path="url(#clip610)" d="M121.918 538.101 L126.802 538.101 L126.802 543.981 L121.918 543.981 L121.918 538.101 Z" fill="#000000" fill-rule="nonzero" fill-opacity="1" /><path clip-path="url(#clip610)" d="M146.987 512.499 Q143.376 512.499 141.547 516.064 Q139.742 519.606 139.742 526.735 Q139.742 533.842 141.547 537.407 Q143.376 540.948 146.987 540.948 Q150.621 540.948 152.427 537.407 Q154.255 533.842 154.255 526.735 Q154.255 519.606 152.427 516.064 Q150.621 512.499 146.987 512.499 M146.987 508.796 Q152.797 508.796 155.853 513.402 Q158.931 517.986 158.931 526.735 Q158.931 535.462 155.853 540.069 Q152.797 544.652 146.987 544.652 Q141.177 544.652 138.098 540.069 Q135.043 535.462 135.043 526.735 Q135.043 517.986 138.098 513.402 Q141.177 508.796 146.987 508.796 Z" fill="#000000" fill-rule="nonzero" fill-opacity="1" /><path clip-path="url(#clip610)" d="M167.195 509.421 L185.552 509.421 L185.552 513.356 L171.478 513.356 L171.478 521.828 Q172.496 521.481 173.515 521.319 Q174.533 521.134 175.552 521.134 Q181.339 521.134 184.718 524.305 Q188.098 527.476 188.098 532.893 Q188.098 538.472 184.626 541.573 Q181.153 544.652 174.834 544.652 Q172.658 544.652 170.39 544.282 Q168.144 543.911 165.737 543.171 L165.737 538.472 Q167.82 539.606 170.042 540.161 Q172.265 540.717 174.741 540.717 Q178.746 540.717 181.084 538.61 Q183.422 536.504 183.422 532.893 Q183.422 529.282 181.084 527.175 Q178.746 525.069 174.741 525.069 Q172.866 525.069 170.991 525.485 Q169.14 525.902 167.195 526.782 L167.195 509.421 Z" fill="#000000" fill-rule="nonzero" fill-opacity="1" /><path clip-path="url(#clip610)" d="M100.76 299.526 Q97.1493 299.526 95.3206 303.09 Q93.515 306.632 93.515 313.762 Q93.515 320.868 95.3206 324.433 Q97.1493 327.974 100.76 327.974 Q104.395 327.974 106.2 324.433 Q108.029 320.868 108.029 313.762 Q108.029 306.632 106.2 303.09 Q104.395 299.526 100.76 299.526 M100.76 295.822 Q106.571 295.822 109.626 300.428 Q112.705 305.012 112.705 313.762 Q112.705 322.488 109.626 327.095 Q106.571 331.678 100.76 331.678 Q94.9502 331.678 91.8715 327.095 Q88.816 322.488 88.816 313.762 Q88.816 305.012 91.8715 300.428 Q94.9502 295.822 100.76 295.822 Z" fill="#000000" fill-rule="nonzero" fill-opacity="1" /><path clip-path="url(#clip610)" d="M120.922 325.127 L125.807 325.127 L125.807 331.007 L120.922 331.007 L120.922 325.127 Z" fill="#000000" fill-rule="nonzero" fill-opacity="1" /><path clip-path="url(#clip610)" d="M145.992 299.526 Q142.381 299.526 140.552 303.09 Q138.746 306.632 138.746 313.762 Q138.746 320.868 140.552 324.433 Q142.381 327.974 145.992 327.974 Q149.626 327.974 151.431 324.433 Q153.26 320.868 153.26 313.762 Q153.26 306.632 151.431 303.09 Q149.626 299.526 145.992 299.526 M145.992 295.822 Q151.802 295.822 154.857 300.428 Q157.936 305.012 157.936 313.762 Q157.936 322.488 154.857 327.095 Q151.802 331.678 145.992 331.678 Q140.181 331.678 137.103 327.095 Q134.047 322.488 134.047 313.762 Q134.047 305.012 137.103 300.428 Q140.181 295.822 145.992 295.822 Z" fill="#000000" fill-rule="nonzero" fill-opacity="1" /><path clip-path="url(#clip610)" d="M176.153 299.526 Q172.542 299.526 170.714 303.09 Q168.908 306.632 168.908 313.762 Q168.908 320.868 170.714 324.433 Q172.542 327.974 176.153 327.974 Q179.788 327.974 181.593 324.433 Q183.422 320.868 183.422 313.762 Q183.422 306.632 181.593 303.09 Q179.788 299.526 176.153 299.526 M176.153 295.822 Q181.964 295.822 185.019 300.428 Q188.098 305.012 188.098 313.762 Q188.098 322.488 185.019 327.095 Q181.964 331.678 176.153 331.678 Q170.343 331.678 167.265 327.095 Q164.209 322.488 164.209 313.762 Q164.209 305.012 167.265 300.428 Q170.343 295.822 176.153 295.822 Z" fill="#000000" fill-rule="nonzero" fill-opacity="1" /><path clip-path="url(#clip610)" d="M101.756 86.5516 Q98.1447 86.5516 96.316 90.1164 Q94.5104 93.6581 94.5104 100.788 Q94.5104 107.894 96.316 111.459 Q98.1447 115.001 101.756 115.001 Q105.39 115.001 107.196 111.459 Q109.024 107.894 109.024 100.788 Q109.024 93.6581 107.196 90.1164 Q105.39 86.5516 101.756 86.5516 M101.756 82.8479 Q107.566 82.8479 110.621 87.4544 Q113.7 92.0377 113.7 100.788 Q113.7 109.514 110.621 114.121 Q107.566 118.704 101.756 118.704 Q95.9456 118.704 92.8669 114.121 Q89.8114 109.514 89.8114 100.788 Q89.8114 92.0377 92.8669 87.4544 Q95.9456 82.8479 101.756 82.8479 Z" fill="#000000" fill-rule="nonzero" fill-opacity="1" /><path clip-path="url(#clip610)" d="M121.918 112.153 L126.802 112.153 L126.802 118.033 L121.918 118.033 L121.918 112.153 Z" fill="#000000" fill-rule="nonzero" fill-opacity="1" /><path clip-path="url(#clip610)" d="M146.987 86.5516 Q143.376 86.5516 141.547 90.1164 Q139.742 93.6581 139.742 100.788 Q139.742 107.894 141.547 111.459 Q143.376 115.001 146.987 115.001 Q150.621 115.001 152.427 111.459 Q154.255 107.894 154.255 100.788 Q154.255 93.6581 152.427 90.1164 Q150.621 86.5516 146.987 86.5516 M146.987 82.8479 Q152.797 82.8479 155.853 87.4544 Q158.931 92.0377 158.931 100.788 Q158.931 109.514 155.853 114.121 Q152.797 118.704 146.987 118.704 Q141.177 118.704 138.098 114.121 Q135.043 109.514 135.043 100.788 Q135.043 92.0377 138.098 87.4544 Q141.177 82.8479 146.987 82.8479 Z" fill="#000000" fill-rule="nonzero" fill-opacity="1" /><path clip-path="url(#clip610)" d="M167.195 83.4729 L185.552 83.4729 L185.552 87.4081 L171.478 87.4081 L171.478 95.8803 Q172.496 95.5331 173.515 95.371 Q174.533 95.1858 175.552 95.1858 Q181.339 95.1858 184.718 98.3571 Q188.098 101.528 188.098 106.945 Q188.098 112.524 184.626 115.626 Q181.153 118.704 174.834 118.704 Q172.658 118.704 170.39 118.334 Q168.144 117.963 165.737 117.223 L165.737 112.524 Q167.82 113.658 170.042 114.214 Q172.265 114.769 174.741 114.769 Q178.746 114.769 181.084 112.663 Q183.422 110.556 183.422 106.945 Q183.422 103.334 181.084 101.227 Q178.746 99.121 174.741 99.121 Q172.866 99.121 170.991 99.5377 Q169.14 99.9543 167.195 100.834 L167.195 83.4729 Z" fill="#000000" fill-rule="nonzero" fill-opacity="1" /><polyline clip-path="url(#clip612)" style="stroke:#009af9; stroke-linecap:round; stroke-linejoin:round; stroke-width:4; stroke-opacity:1; fill:none" points="284.343,313.727 291.037,313.686 297.731,313.454 304.425,313.005 311.118,312.55 317.812,311.558 324.506,310.266 331.2,308.4 337.894,306.124 344.588,303.976 351.282,301.714 357.976,299.965 364.67,298.997 371.364,297.032 378.057,295.453 384.751,293.407 391.445,291.305 398.139,289.53 404.833,287.883 411.527,285.684 418.221,284.405 424.915,283.921 431.609,283.261 438.302,283.429 444.996,284.088 451.69,285.371 458.384,286.736 465.078,288.885 471.772,291.661 478.466,294.92 485.16,298.009 491.854,301.225 498.547,304.532 505.241,307.705 511.935,311.033 518.629,314.946 525.323,318.292 532.017,321.809 538.711,325.183 545.405,328.634 552.099,332.082 558.793,336.542 565.486,341.947 572.18,346.85 578.874,350.708 585.568,354.296 592.262,357.095 598.956,359.542 605.65,362.189 612.344,364.649 619.038,367.25 625.731,369.113 632.425,370.754 639.119,372.254 645.813,373.475 652.507,374.18 659.201,375.308 665.895,376.052 672.589,376.705 679.283,377.812 685.977,379.04 692.67,380.916 699.364,382.888 706.058,385.118 712.752,388.215 719.446,391.604 726.14,394.82 732.834,398.252 739.528,401.819 746.222,405.028 752.915,408.581 759.609,411.91 766.303,415.134 772.997,418.4 779.691,422.127 786.385,425.82 793.079,429.266 799.773,433.482 806.467,437.219 813.16,441.224 819.854,445.594 826.548,450.964 833.242,456.661 839.936,462.609 846.63,468.826 853.324,474.452 860.018,480.146 866.712,485.86 873.406,491.343 880.099,497.029 886.793,503.157 893.487,509.117 900.181,515.15 906.875,521.748 913.569,528.408 920.263,534.329 926.957,539.969 933.651,544.987 940.344,549.91 947.038,554.661 953.732,559.613 960.426,564.536 967.12,570.067 973.814,575.663 980.508,581.793 987.202,588.004 993.896,594.02 1000.59,600.037 1007.28,606.754 1013.98,614.029 1020.67,620.265 1027.37,626.675 1034.06,633.088 1040.75,639.086 1047.45,644.687 1054.14,650.354 1060.83,655.762 1067.53,660.945 1074.22,665.899 1080.92,671.381 1087.61,677.151 1094.3,682.27 1101,687.623 1107.69,692.851 1114.39,697.953 1121.08,702.898 1127.77,707.302 1134.47,711.375 1141.16,714.711 1147.86,718.249 1154.55,721.882 1161.24,724.616 1167.94,726.937 1174.63,729.166 1181.32,731.508 1188.02,733.314 1194.71,735.223 1201.41,737.106 1208.1,739.482 1214.79,742.703 1221.49,746.842 1228.18,750.689 1234.88,754.455 1241.57,757.31 1248.26,759.922 1254.96,762.42 1261.65,764.666 1268.35,766.774 1275.04,769.39 1281.73,771.613 1288.43,774.357 1295.12,776.74 1301.81,778.686 1308.51,780.752 1315.2,782.254 1321.9,784.148 1328.59,786.926 1335.28,789.537 1341.98,793.496 1348.67,797.973 1355.37,802.43 1362.06,807.147 1368.75,811.922 1375.45,816.704 1382.14,821.451 1388.84,826.149 1395.53,830.948 1402.22,835.249 1408.92,839.302 1415.61,842.832 1422.3,846.485 1429,850.851 1435.69,854.531 1442.39,857.572 1449.08,860.544 1455.77,863.206 1462.47,865.115 1469.16,866.661 1475.86,868.019 1482.55,869.69 1489.24,872.04 1495.94,874.416 1502.63,876.951 1509.33,879.39 1516.02,881.908 1522.71,884.383 1529.41,887.188 1536.1,889.946 1542.79,892.995 1549.49,895.904 1556.18,899.131 1562.88,902.559 1569.57,905.868 1576.26,908.688 1582.96,911.53 1589.65,914.377 1596.35,917.525 1603.04,920.566 1609.73,923.47 1616.43,926.378 1623.12,929.358 1629.82,932.016 1636.51,934.341 1643.2,936.204 1649.9,938.04 1656.59,939.684 1663.28,942.263 1669.98,944.823 1676.67,947.313 1683.37,950.076 1690.06,953.346 1696.75,956.1 1703.45,958.193 1710.14,961.225 1716.84,963.552 1723.53,966.734 1730.22,969.449 1736.92,971.944 1743.61,975.179 1750.31,979.15 1757,983.805 1763.69,988.54 1770.39,993.132 1777.08,997.07 1783.77,1000.56 1790.47,1004.34 1797.16,1008.05 1803.86,1012.09 1810.55,1016.27 1817.24,1020.61 1823.94,1025.37 1830.63,1030.61 1837.33,1035.86 1844.02,1041.72 1850.71,1047.8 1857.41,1053.85 1864.1,1060.47 1870.8,1066.77 1877.49,1072.88 1884.18,1079.55 1890.88,1085.89 1897.57,1091.05 1904.27,1096.95 1910.96,1103.3 1917.65,1109.85 1924.35,1115.84 1931.04,1121.39 1937.73,1127.07 1944.43,1132.69 1951.12,1138.13 1957.82,1143.59 1964.51,1149.22 1971.2,1154.42 1977.9,1158.91 1984.59,1163.45 1991.29,1168.65 1997.98,1173.41 2004.67,1178.43 2011.37,1183.23 2018.06,1187.94 2024.76,1192.3 2031.45,1197.36 2038.14,1202.79 2044.84,1208.15 2051.53,1213.41 2058.22,1218.95 2064.92,1224.59 2071.61,1230.25 2078.31,1236.07 2085,1241.96 2091.69,1248.52 2098.39,1254.72 2105.08,1260.31 2111.78,1266.23 2118.47,1271.64 2125.16,1277.21 2131.86,1283.01 2138.55,1288.16 2145.25,1293.4 2151.94,1298.75 2158.63,1303.16 2165.33,1308.05 2172.02,1312.15 2178.71,1316.56 2185.41,1320.72 2192.1,1324.56 2198.8,1328.6 2205.49,1332.36 2212.18,1336.36 2218.88,1340.19 2225.57,1344.03 2232.27,1348.04 2238.96,1352.23 2245.65,1355.93 2252.35,1359.66 2259.04,1364.06 2265.74,1367.88 2272.43,1371.82 2279.12,1376.32 2285.82,1380.18 2292.51,1384.24 "/>
<polyline clip-path="url(#clip612)" style="stroke:#e26f46; stroke-linecap:round; stroke-linejoin:round; stroke-width:4; stroke-opacity:1; fill:none" points="284.343,309.632 291.037,290.512 297.731,268.858 304.425,268.226 311.118,214.512 317.812,184.539 324.506,127.115 331.2,86.1857 337.894,98.9178 344.588,87.5315 351.282,138.795 357.976,216.908 364.67,117.28 371.364,155.79 378.057,109.138 384.751,103.534 391.445,136.232 398.139,149.006 404.833,93.8423 411.527,185.805 418.221,265.297 424.915,247.769 431.609,330.523 438.302,379.576 444.996,442.093 451.69,450.231 458.384,528.622 465.078,591.337 471.772,639.637 478.466,622.617 485.16,635.283 491.854,644.418 498.547,631 505.241,646.522 511.935,705.059 518.629,648.301 525.323,665.462 532.017,651.158 538.711,658.801 545.405,658.524 552.099,759.763 558.793,854.234 565.486,803.982 572.18,699.574 578.874,672.437 585.568,593.647 592.262,558.471 598.956,578.41 605.65,559.752 612.344,573.768 619.038,500.01 625.731,477.87 632.425,463.75 639.119,435.835 645.813,384.182 652.507,426.497 659.201,388.167 665.895,379.042 672.589,424.424 679.283,436.546 685.977,501.257 692.67,511.004 699.364,536.665 706.058,623.482 712.752,652.598 719.446,635.323 726.14,656.917 732.834,670.422 739.528,634.635 746.222,669.059 752.915,646.564 759.609,636.129 766.303,640.385 772.997,686.409 779.691,683.066 786.385,658.294 793.079,735.347 799.773,687.395 806.467,714.197 813.16,750.745 819.854,850.77 826.548,883.368 833.242,908.531 839.936,935.503 846.63,876.292 853.324,883.089 860.018,885.197 866.712,861.988 873.406,882.362 880.099,926.515 886.793,909.731 893.487,916.964 900.181,973.604 906.875,979.694 913.569,905.848 920.263,877.733 926.957,815.462 933.651,806.079 940.344,788.841 947.038,808.913 953.732,806.029 960.426,866.842 967.12,873.273 973.814,926.77 980.508,934.81 987.202,915.285 993.896,915.416 1000.59,985.485 1007.28,1041.24 1013.98,937.312 1020.67,954.679 1027.37,955.017 1034.06,913.587 1040.75,873.779 1047.45,880.482 1054.14,854.543 1060.83,831.986 1067.53,809.118 1074.22,861.914 1080.92,890.779 1087.61,825.644 1094.3,848.983 1101,836.508 1107.69,823.947 1114.39,808.181 1121.08,754.166 1127.77,721.051 1134.47,647.272 1141.16,667.538 1147.86,677.013 1154.55,587.141 1161.24,545.826 1167.94,536.663 1174.63,547.937 1181.32,494.341 1188.02,504.629 1194.71,502.022 1201.41,551.266 1208.1,635.863 1214.79,727.611 1221.49,698.399 1228.18,690.389 1234.88,599.189 1241.57,574.959 1248.26,563.542 1254.96,538.289 1261.65,524.566 1268.35,575.255 1275.04,536.008 1281.73,588.144 1288.43,552.091 1295.12,508.333 1301.81,520.24 1308.51,463.993 1315.2,503.141 1321.9,591.456 1328.59,574.853 1335.28,709.637 1341.98,761.429 1348.67,759.424 1355.37,785.4 1362.06,791.246 1368.75,791.915 1375.45,788.498 1382.14,783.443 1388.84,793.688 1395.53,743.766 1402.22,719.045 1408.92,666.735 1415.61,679.071 1422.3,750.269 1429,681.787 1435.69,617.758 1442.39,610.965 1449.08,579.94 1455.77,504.645 1462.47,468.302 1469.16,449.516 1475.86,480.856 1482.55,548.722 1489.24,551.275 1495.94,567.23 1502.63,557.635 1509.33,565.528 1516.02,561.232 1522.71,594.228 1529.41,589.489 1536.1,618.653 1542.79,604.655 1549.49,636.46 1556.18,656.48 1562.88,644.68 1569.57,595.644 1576.26,598 1582.96,598.373 1589.65,628.584 1596.35,617.828 1603.04,604.035 1609.73,604.553 1616.43,611.717 1623.12,579.54 1629.82,546.212 1636.51,500.072 1643.2,497.317 1649.9,478.102 1656.59,571.679 1663.28,569.664 1669.98,562.783 1676.67,589.992 1683.37,640.779 1690.06,589.089 1696.75,523.063 1703.45,616.913 1710.14,546.381 1716.84,631.939 1723.53,585.225 1730.22,563.196 1736.92,637.221 1743.61,710.904 1750.31,779.181 1757,787.228 1763.69,772.939 1770.39,707.504 1777.08,662.541 1783.77,692.417 1790.47,683.839 1797.16,717.694 1803.86,732.245 1810.55,747.898 1817.24,789.778 1823.94,837.809 1830.63,838.622 1837.33,899.075 1844.02,921.622 1850.71,919.135 1857.41,976.053 1864.1,943.705 1870.8,924.474 1877.49,981.096 1884.18,947.505 1890.88,829.292 1897.57,903.926 1904.27,948.738 1910.96,969.184 1917.65,912.615 1924.35,868.05 1931.04,882.151 1937.73,875.328 1944.43,858.25 1951.12,860.087 1957.82,876.735 1964.51,833.428 1971.2,762.914 1977.9,766.92 1984.59,834.174 1991.29,789.904 1997.98,815.357 2004.67,793.669 2011.37,785.113 2018.06,749.232 2024.76,820.507 2031.45,856.701 2038.14,849.624 2044.84,839.75 2051.53,867.776 2058.22,877.814 2064.92,878.908 2071.61,896.241 2078.31,902.325 2085,970.281 2091.69,933.727 2098.39,872.367 2105.08,905.892 2111.78,854.698 2118.47,870.319 2125.16,893.984 2131.86,828.401 2138.55,837.986 2145.25,848.445 2151.94,755.471 2158.63,802.048 2165.33,723.957 2172.02,755.2 2178.71,729.711 2185.41,697.861 2192.1,717.536 2198.8,689.212 2205.49,714.428 2212.18,696.092 2218.88,698.272 2225.57,713.931 2232.27,733.386 2238.96,683.761 2245.65,686.349 2252.35,753.498 2259.04,695.77 2265.74,708.344 2272.43,763.078 2279.12,699.975 2285.82,719.622 2292.51,674.28 "/>
<path clip-path="url(#clip610)" d="M1843.36 248.629 L2281.8 248.629 L2281.8 93.1086 L1843.36 93.1086  Z" fill="#ffffff" fill-rule="evenodd" fill-opacity="1"/>
<polyline clip-path="url(#clip610)" style="stroke:#000000; stroke-linecap:round; stroke-linejoin:round; stroke-width:4; stroke-opacity:1; fill:none" points="1843.36,248.629 2281.8,248.629 2281.8,93.1086 1843.36,93.1086 1843.36,248.629 "/>
<polyline clip-path="url(#clip610)" style="stroke:#009af9; stroke-linecap:round; stroke-linejoin:round; stroke-width:4; stroke-opacity:1; fill:none" points="1867.01,144.949 2008.92,144.949 "/>
<path clip-path="url(#clip610)" d="M2046.41 164.636 Q2044.61 169.266 2042.9 170.678 Q2041.18 172.09 2038.31 172.09 L2034.91 172.09 L2034.91 168.525 L2037.41 168.525 Q2039.17 168.525 2040.14 167.692 Q2041.11 166.858 2042.29 163.756 L2043.06 161.812 L2032.57 136.303 L2037.09 136.303 L2045.19 156.581 L2053.29 136.303 L2057.8 136.303 L2046.41 164.636 Z" fill="#000000" fill-rule="nonzero" fill-opacity="1" /><path clip-path="url(#clip610)" d="M2082.87 158.34 L2082.87 172.09 L2078.59 172.09 L2078.59 136.303 L2082.87 136.303 L2082.87 140.238 Q2084.21 137.923 2086.25 136.812 Q2088.31 135.678 2091.16 135.678 Q2095.88 135.678 2098.82 139.428 Q2101.78 143.178 2101.78 149.289 Q2101.78 155.4 2098.82 159.15 Q2095.88 162.9 2091.16 162.9 Q2088.31 162.9 2086.25 161.789 Q2084.21 160.655 2082.87 158.34 M2097.36 149.289 Q2097.36 144.59 2095.42 141.928 Q2093.5 139.243 2090.12 139.243 Q2086.74 139.243 2084.79 141.928 Q2082.87 144.59 2082.87 149.289 Q2082.87 153.988 2084.79 156.673 Q2086.74 159.335 2090.12 159.335 Q2093.5 159.335 2095.42 156.673 Q2097.36 153.988 2097.36 149.289 Z" fill="#000000" fill-rule="nonzero" fill-opacity="1" /><path clip-path="url(#clip610)" d="M2118.89 139.289 Q2115.46 139.289 2113.47 141.974 Q2111.48 144.636 2111.48 149.289 Q2111.48 153.942 2113.45 156.627 Q2115.44 159.289 2118.89 159.289 Q2122.29 159.289 2124.28 156.604 Q2126.27 153.918 2126.27 149.289 Q2126.27 144.682 2124.28 141.997 Q2122.29 139.289 2118.89 139.289 M2118.89 135.678 Q2124.45 135.678 2127.62 139.289 Q2130.79 142.9 2130.79 149.289 Q2130.79 155.655 2127.62 159.289 Q2124.45 162.9 2118.89 162.9 Q2113.31 162.9 2110.14 159.289 Q2106.99 155.655 2106.99 149.289 Q2106.99 142.9 2110.14 139.289 Q2113.31 135.678 2118.89 135.678 Z" fill="#000000" fill-rule="nonzero" fill-opacity="1" /><path clip-path="url(#clip610)" d="M2154.38 137.067 L2154.38 141.094 Q2152.57 140.169 2150.63 139.706 Q2148.68 139.243 2146.6 139.243 Q2143.43 139.243 2141.83 140.215 Q2140.26 141.187 2140.26 143.131 Q2140.26 144.613 2141.39 145.469 Q2142.52 146.303 2145.95 147.067 L2147.41 147.391 Q2151.95 148.363 2153.84 150.145 Q2155.77 151.905 2155.77 155.076 Q2155.77 158.687 2152.89 160.793 Q2150.05 162.9 2145.05 162.9 Q2142.96 162.9 2140.7 162.483 Q2138.45 162.09 2135.95 161.28 L2135.95 156.881 Q2138.31 158.108 2140.6 158.733 Q2142.89 159.335 2145.14 159.335 Q2148.15 159.335 2149.77 158.317 Q2151.39 157.275 2151.39 155.4 Q2151.39 153.664 2150.21 152.738 Q2149.05 151.812 2145.09 150.956 L2143.61 150.608 Q2139.65 149.775 2137.89 148.062 Q2136.14 146.326 2136.14 143.317 Q2136.14 139.659 2138.73 137.669 Q2141.32 135.678 2146.09 135.678 Q2148.45 135.678 2150.53 136.025 Q2152.62 136.372 2154.38 137.067 Z" fill="#000000" fill-rule="nonzero" fill-opacity="1" /><path clip-path="url(#clip610)" d="M2162.55 136.303 L2166.81 136.303 L2166.81 162.229 L2162.55 162.229 L2162.55 136.303 M2162.55 126.21 L2166.81 126.21 L2166.81 131.604 L2162.55 131.604 L2162.55 126.21 Z" fill="#000000" fill-rule="nonzero" fill-opacity="1" /><path clip-path="url(#clip610)" d="M2179.93 128.942 L2179.93 136.303 L2188.7 136.303 L2188.7 139.613 L2179.93 139.613 L2179.93 153.687 Q2179.93 156.858 2180.79 157.761 Q2181.67 158.664 2184.33 158.664 L2188.7 158.664 L2188.7 162.229 L2184.33 162.229 Q2179.4 162.229 2177.52 160.4 Q2175.65 158.548 2175.65 153.687 L2175.65 139.613 L2172.52 139.613 L2172.52 136.303 L2175.65 136.303 L2175.65 128.942 L2179.93 128.942 Z" fill="#000000" fill-rule="nonzero" fill-opacity="1" /><path clip-path="url(#clip610)" d="M2194.31 136.303 L2198.57 136.303 L2198.57 162.229 L2194.31 162.229 L2194.31 136.303 M2194.31 126.21 L2198.57 126.21 L2198.57 131.604 L2194.31 131.604 L2194.31 126.21 Z" fill="#000000" fill-rule="nonzero" fill-opacity="1" /><path clip-path="url(#clip610)" d="M2217.52 139.289 Q2214.1 139.289 2212.11 141.974 Q2210.12 144.636 2210.12 149.289 Q2210.12 153.942 2212.08 156.627 Q2214.08 159.289 2217.52 159.289 Q2220.93 159.289 2222.92 156.604 Q2224.91 153.918 2224.91 149.289 Q2224.91 144.682 2222.92 141.997 Q2220.93 139.289 2217.52 139.289 M2217.52 135.678 Q2223.08 135.678 2226.25 139.289 Q2229.42 142.9 2229.42 149.289 Q2229.42 155.655 2226.25 159.289 Q2223.08 162.9 2217.52 162.9 Q2211.95 162.9 2208.77 159.289 Q2205.63 155.655 2205.63 149.289 Q2205.63 142.9 2208.77 139.289 Q2211.95 135.678 2217.52 135.678 Z" fill="#000000" fill-rule="nonzero" fill-opacity="1" /><path clip-path="url(#clip610)" d="M2258.03 146.581 L2258.03 162.229 L2253.77 162.229 L2253.77 146.719 Q2253.77 143.039 2252.34 141.21 Q2250.9 139.382 2248.03 139.382 Q2244.58 139.382 2242.59 141.581 Q2240.6 143.78 2240.6 147.576 L2240.6 162.229 L2236.32 162.229 L2236.32 136.303 L2240.6 136.303 L2240.6 140.331 Q2242.13 137.993 2244.19 136.835 Q2246.27 135.678 2248.98 135.678 Q2253.45 135.678 2255.74 138.456 Q2258.03 141.21 2258.03 146.581 Z" fill="#000000" fill-rule="nonzero" fill-opacity="1" /><polyline clip-path="url(#clip610)" style="stroke:#e26f46; stroke-linecap:round; stroke-linejoin:round; stroke-width:4; stroke-opacity:1; fill:none" points="1867.01,196.789 2008.92,196.789 "/>
<path clip-path="url(#clip610)" d="M2046.41 216.476 Q2044.61 221.106 2042.9 222.518 Q2041.18 223.93 2038.31 223.93 L2034.91 223.93 L2034.91 220.365 L2037.41 220.365 Q2039.17 220.365 2040.14 219.532 Q2041.11 218.698 2042.29 215.596 L2043.06 213.652 L2032.57 188.143 L2037.09 188.143 L2045.19 208.421 L2053.29 188.143 L2057.8 188.143 L2046.41 216.476 Z" fill="#000000" fill-rule="nonzero" fill-opacity="1" /><path clip-path="url(#clip610)" d="M2075.7 188.143 L2080.21 188.143 L2088.31 209.902 L2096.41 188.143 L2100.93 188.143 L2091.21 214.069 L2085.42 214.069 L2075.7 188.143 Z" fill="#000000" fill-rule="nonzero" fill-opacity="1" /><path clip-path="url(#clip610)" d="M2128.98 200.041 L2128.98 202.124 L2109.4 202.124 Q2109.68 206.522 2112.04 208.837 Q2114.42 211.129 2118.66 211.129 Q2121.11 211.129 2123.4 210.527 Q2125.72 209.925 2127.99 208.721 L2127.99 212.749 Q2125.7 213.721 2123.29 214.231 Q2120.88 214.74 2118.4 214.74 Q2112.2 214.74 2108.57 211.129 Q2104.96 207.518 2104.96 201.36 Q2104.96 194.995 2108.38 191.268 Q2111.83 187.518 2117.66 187.518 Q2122.89 187.518 2125.93 190.897 Q2128.98 194.254 2128.98 200.041 M2124.72 198.791 Q2124.68 195.296 2122.76 193.212 Q2120.86 191.129 2117.71 191.129 Q2114.15 191.129 2111.99 193.143 Q2109.86 195.157 2109.54 198.814 L2124.72 198.791 Z" fill="#000000" fill-rule="nonzero" fill-opacity="1" /><path clip-path="url(#clip610)" d="M2135.97 178.05 L2140.23 178.05 L2140.23 214.069 L2135.97 214.069 L2135.97 178.05 Z" fill="#000000" fill-rule="nonzero" fill-opacity="1" /><path clip-path="url(#clip610)" d="M2159.19 191.129 Q2155.77 191.129 2153.77 193.814 Q2151.78 196.476 2151.78 201.129 Q2151.78 205.782 2153.75 208.467 Q2155.74 211.129 2159.19 211.129 Q2162.59 211.129 2164.58 208.444 Q2166.58 205.758 2166.58 201.129 Q2166.58 196.522 2164.58 193.837 Q2162.59 191.129 2159.19 191.129 M2159.19 187.518 Q2164.75 187.518 2167.92 191.129 Q2171.09 194.74 2171.09 201.129 Q2171.09 207.495 2167.92 211.129 Q2164.75 214.74 2159.19 214.74 Q2153.61 214.74 2150.44 211.129 Q2147.29 207.495 2147.29 201.129 Q2147.29 194.74 2150.44 191.129 Q2153.61 187.518 2159.19 187.518 Z" fill="#000000" fill-rule="nonzero" fill-opacity="1" /><path clip-path="url(#clip610)" d="M2196.81 189.138 L2196.81 193.12 Q2195 192.124 2193.17 191.638 Q2191.37 191.129 2189.51 191.129 Q2185.37 191.129 2183.08 193.768 Q2180.79 196.384 2180.79 201.129 Q2180.79 205.874 2183.08 208.513 Q2185.37 211.129 2189.51 211.129 Q2191.37 211.129 2193.17 210.643 Q2195 210.133 2196.81 209.138 L2196.81 213.073 Q2195.02 213.907 2193.1 214.323 Q2191.2 214.74 2189.05 214.74 Q2183.2 214.74 2179.75 211.059 Q2176.3 207.379 2176.3 201.129 Q2176.3 194.786 2179.77 191.152 Q2183.27 187.518 2189.33 187.518 Q2191.3 187.518 2193.17 187.935 Q2195.05 188.328 2196.81 189.138 Z" fill="#000000" fill-rule="nonzero" fill-opacity="1" /><path clip-path="url(#clip610)" d="M2204.21 188.143 L2208.47 188.143 L2208.47 214.069 L2204.21 214.069 L2204.21 188.143 M2204.21 178.05 L2208.47 178.05 L2208.47 183.444 L2204.21 183.444 L2204.21 178.05 Z" fill="#000000" fill-rule="nonzero" fill-opacity="1" /><path clip-path="url(#clip610)" d="M2221.6 180.782 L2221.6 188.143 L2230.37 188.143 L2230.37 191.453 L2221.6 191.453 L2221.6 205.527 Q2221.6 208.698 2222.45 209.601 Q2223.33 210.504 2226 210.504 L2230.37 210.504 L2230.37 214.069 L2226 214.069 Q2221.07 214.069 2219.19 212.24 Q2217.32 210.388 2217.32 205.527 L2217.32 191.453 L2214.19 191.453 L2214.19 188.143 L2217.32 188.143 L2217.32 180.782 L2221.6 180.782 Z" fill="#000000" fill-rule="nonzero" fill-opacity="1" /><path clip-path="url(#clip610)" d="M2246.76 216.476 Q2244.95 221.106 2243.24 222.518 Q2241.53 223.93 2238.66 223.93 L2235.26 223.93 L2235.26 220.365 L2237.76 220.365 Q2239.51 220.365 2240.49 219.532 Q2241.46 218.698 2242.64 215.596 L2243.4 213.652 L2232.92 188.143 L2237.43 188.143 L2245.53 208.421 L2253.64 188.143 L2258.15 188.143 L2246.76 216.476 Z" fill="#000000" fill-rule="nonzero" fill-opacity="1" /></svg>
