<?xml version="1.0" encoding="utf-8"?>
<svg xmlns="http://www.w3.org/2000/svg" xmlns:xlink="http://www.w3.org/1999/xlink" width="600" height="400" viewBox="0 0 2400 1600">
<defs>
  <clipPath id="clip570">
    <rect x="0" y="0" width="2400" height="1600"/>
  </clipPath>
</defs>
<path clip-path="url(#clip570)" d="M0 1600 L2400 1600 L2400 0 L0 0  Z" fill="#ffffff" fill-rule="evenodd" fill-opacity="1"/>
<defs>
  <clipPath id="clip571">
    <rect x="480" y="0" width="1681" height="1600"/>
  </clipPath>
</defs>
<path clip-path="url(#clip570)" d="M147.478 1486.45 L2352.76 1486.45 L2352.76 47.2441 L147.478 47.2441  Z" fill="#ffffff" fill-rule="evenodd" fill-opacity="1"/>
<defs>
  <clipPath id="clip572">
    <rect x="147" y="47" width="2206" height="1440"/>
  </clipPath>
</defs>
<polyline clip-path="url(#clip570)" style="stroke:#000000; stroke-linecap:round; stroke-linejoin:round; stroke-width:4; stroke-opacity:1; fill:none" points="147.478,1486.45 2352.76,1486.45 "/>
<polyline clip-path="url(#clip570)" style="stroke:#000000; stroke-linecap:round; stroke-linejoin:round; stroke-width:4; stroke-opacity:1; fill:none" points="286.839,1486.45 286.839,1467.55 "/>
<polyline clip-path="url(#clip570)" style="stroke:#000000; stroke-linecap:round; stroke-linejoin:round; stroke-width:4; stroke-opacity:1; fill:none" points="607.932,1486.45 607.932,1467.55 "/>
<polyline clip-path="url(#clip570)" style="stroke:#000000; stroke-linecap:round; stroke-linejoin:round; stroke-width:4; stroke-opacity:1; fill:none" points="929.024,1486.45 929.024,1467.55 "/>
<polyline clip-path="url(#clip570)" style="stroke:#000000; stroke-linecap:round; stroke-linejoin:round; stroke-width:4; stroke-opacity:1; fill:none" points="1250.12,1486.45 1250.12,1467.55 "/>
<polyline clip-path="url(#clip570)" style="stroke:#000000; stroke-linecap:round; stroke-linejoin:round; stroke-width:4; stroke-opacity:1; fill:none" points="1571.21,1486.45 1571.21,1467.55 "/>
<polyline clip-path="url(#clip570)" style="stroke:#000000; stroke-linecap:round; stroke-linejoin:round; stroke-width:4; stroke-opacity:1; fill:none" points="1892.3,1486.45 1892.3,1467.55 "/>
<polyline clip-path="url(#clip570)" style="stroke:#000000; stroke-linecap:round; stroke-linejoin:round; stroke-width:4; stroke-opacity:1; fill:none" points="2213.39,1486.45 2213.39,1467.55 "/>
<path clip-path="url(#clip570)" d="M256.481 1532.02 L286.156 1532.02 L286.156 1535.95 L256.481 1535.95 L256.481 1532.02 Z" fill="#000000" fill-rule="nonzero" fill-opacity="1" /><path clip-path="url(#clip570)" d="M296.295 1514.29 L314.652 1514.29 L314.652 1518.22 L300.578 1518.22 L300.578 1526.7 Q301.596 1526.35 302.615 1526.19 Q303.633 1526 304.652 1526 Q310.439 1526 313.818 1529.17 Q317.198 1532.34 317.198 1537.76 Q317.198 1543.34 313.726 1546.44 Q310.253 1549.52 303.934 1549.52 Q301.758 1549.52 299.49 1549.15 Q297.244 1548.78 294.837 1548.04 L294.837 1543.34 Q296.92 1544.47 299.142 1545.03 Q301.365 1545.58 303.841 1545.58 Q307.846 1545.58 310.184 1543.48 Q312.522 1541.37 312.522 1537.76 Q312.522 1534.15 310.184 1532.04 Q307.846 1529.94 303.841 1529.94 Q301.966 1529.94 300.091 1530.35 Q298.24 1530.77 296.295 1531.65 L296.295 1514.29 Z" fill="#000000" fill-rule="nonzero" fill-opacity="1" /><path clip-path="url(#clip570)" d="M576.832 1532.02 L606.508 1532.02 L606.508 1535.95 L576.832 1535.95 L576.832 1532.02 Z" fill="#000000" fill-rule="nonzero" fill-opacity="1" /><path clip-path="url(#clip570)" d="M629.448 1518.36 L617.642 1536.81 L629.448 1536.81 L629.448 1518.36 M628.221 1514.29 L634.101 1514.29 L634.101 1536.81 L639.031 1536.81 L639.031 1540.7 L634.101 1540.7 L634.101 1548.85 L629.448 1548.85 L629.448 1540.7 L613.846 1540.7 L613.846 1536.19 L628.221 1514.29 Z" fill="#000000" fill-rule="nonzero" fill-opacity="1" /><path clip-path="url(#clip570)" d="M898.492 1532.02 L928.168 1532.02 L928.168 1535.95 L898.492 1535.95 L898.492 1532.02 Z" fill="#000000" fill-rule="nonzero" fill-opacity="1" /><path clip-path="url(#clip570)" d="M952.427 1530.21 Q955.783 1530.93 957.658 1533.2 Q959.557 1535.47 959.557 1538.8 Q959.557 1543.92 956.038 1546.72 Q952.52 1549.52 946.038 1549.52 Q943.862 1549.52 941.547 1549.08 Q939.256 1548.66 936.802 1547.81 L936.802 1543.29 Q938.747 1544.43 941.061 1545.01 Q943.376 1545.58 945.899 1545.58 Q950.297 1545.58 952.589 1543.85 Q954.904 1542.11 954.904 1538.8 Q954.904 1535.75 952.751 1534.03 Q950.621 1532.3 946.802 1532.3 L942.774 1532.3 L942.774 1528.45 L946.987 1528.45 Q950.436 1528.45 952.265 1527.09 Q954.094 1525.7 954.094 1523.11 Q954.094 1520.45 952.196 1519.03 Q950.321 1517.6 946.802 1517.6 Q944.881 1517.6 942.682 1518.01 Q940.483 1518.43 937.844 1519.31 L937.844 1515.14 Q940.506 1514.4 942.821 1514.03 Q945.159 1513.66 947.219 1513.66 Q952.543 1513.66 955.645 1516.09 Q958.746 1518.5 958.746 1522.62 Q958.746 1525.49 957.103 1527.48 Q955.459 1529.45 952.427 1530.21 Z" fill="#000000" fill-rule="nonzero" fill-opacity="1" /><path clip-path="url(#clip570)" d="M1220.06 1532.02 L1249.73 1532.02 L1249.73 1535.95 L1220.06 1535.95 L1220.06 1532.02 Z" fill="#000000" fill-rule="nonzero" fill-opacity="1" /><path clip-path="url(#clip570)" d="M1263.86 1544.91 L1280.17 1544.91 L1280.17 1548.85 L1258.23 1548.85 L1258.23 1544.91 Q1260.89 1542.16 1265.48 1537.53 Q1270.08 1532.88 1271.26 1531.53 Q1273.51 1529.01 1274.39 1527.27 Q1275.29 1525.51 1275.29 1523.82 Q1275.29 1521.07 1273.35 1519.33 Q1271.42 1517.6 1268.32 1517.6 Q1266.12 1517.6 1263.67 1518.36 Q1261.24 1519.13 1258.46 1520.68 L1258.46 1515.95 Q1261.29 1514.82 1263.74 1514.24 Q1266.19 1513.66 1268.23 1513.66 Q1273.6 1513.66 1276.8 1516.35 Q1279.99 1519.03 1279.99 1523.52 Q1279.99 1525.65 1279.18 1527.57 Q1278.39 1529.47 1276.29 1532.07 Q1275.71 1532.74 1272.61 1535.95 Q1269.5 1539.15 1263.86 1544.91 Z" fill="#000000" fill-rule="nonzero" fill-opacity="1" /><path clip-path="url(#clip570)" d="M1540.97 1532.02 L1570.64 1532.02 L1570.64 1535.95 L1540.97 1535.95 L1540.97 1532.02 Z" fill="#000000" fill-rule="nonzero" fill-opacity="1" /><path clip-path="url(#clip570)" d="M1581.55 1544.91 L1589.18 1544.91 L1589.18 1518.55 L1580.87 1520.21 L1580.87 1515.95 L1589.14 1514.29 L1593.81 1514.29 L1593.81 1544.91 L1601.45 1544.91 L1601.45 1548.85 L1581.55 1548.85 L1581.55 1544.91 Z" fill="#000000" fill-rule="nonzero" fill-opacity="1" /><path clip-path="url(#clip570)" d="M1892.3 1517.37 Q1888.69 1517.37 1886.86 1520.93 Q1885.06 1524.47 1885.06 1531.6 Q1885.06 1538.71 1886.86 1542.27 Q1888.69 1545.82 1892.3 1545.82 Q1895.94 1545.82 1897.74 1542.27 Q1899.57 1538.71 1899.57 1531.6 Q1899.57 1524.47 1897.74 1520.93 Q1895.94 1517.37 1892.3 1517.37 M1892.3 1513.66 Q1898.11 1513.66 1901.17 1518.27 Q1904.25 1522.85 1904.25 1531.6 Q1904.25 1540.33 1901.17 1544.94 Q1898.11 1549.52 1892.3 1549.52 Q1886.49 1549.52 1883.41 1544.94 Q1880.36 1540.33 1880.36 1531.6 Q1880.36 1522.85 1883.41 1518.27 Q1886.49 1513.66 1892.3 1513.66 Z" fill="#000000" fill-rule="nonzero" fill-opacity="1" /><path clip-path="url(#clip570)" d="M2203.78 1544.91 L2211.42 1544.91 L2211.42 1518.55 L2203.11 1520.21 L2203.11 1515.95 L2211.37 1514.29 L2216.05 1514.29 L2216.05 1544.91 L2223.68 1544.91 L2223.68 1548.85 L2203.78 1548.85 L2203.78 1544.91 Z" fill="#000000" fill-rule="nonzero" fill-opacity="1" /><polyline clip-path="url(#clip570)" style="stroke:#000000; stroke-linecap:round; stroke-linejoin:round; stroke-width:4; stroke-opacity:1; fill:none" points="147.478,1486.45 147.478,47.2441 "/>
<polyline clip-path="url(#clip570)" style="stroke:#000000; stroke-linecap:round; stroke-linejoin:round; stroke-width:4; stroke-opacity:1; fill:none" points="147.478,1248.48 166.376,1248.48 "/>
<polyline clip-path="url(#clip570)" style="stroke:#000000; stroke-linecap:round; stroke-linejoin:round; stroke-width:4; stroke-opacity:1; fill:none" points="147.478,927.392 166.376,927.392 "/>
<polyline clip-path="url(#clip570)" style="stroke:#000000; stroke-linecap:round; stroke-linejoin:round; stroke-width:4; stroke-opacity:1; fill:none" points="147.478,606.3 166.376,606.3 "/>
<polyline clip-path="url(#clip570)" style="stroke:#000000; stroke-linecap:round; stroke-linejoin:round; stroke-width:4; stroke-opacity:1; fill:none" points="147.478,285.207 166.376,285.207 "/>
<path clip-path="url(#clip570)" d="M51.3625 1248.94 L81.0383 1248.94 L81.0383 1252.87 L51.3625 1252.87 L51.3625 1248.94 Z" fill="#000000" fill-rule="nonzero" fill-opacity="1" /><path clip-path="url(#clip570)" d="M95.1586 1261.83 L111.478 1261.83 L111.478 1265.76 L89.5336 1265.76 L89.5336 1261.83 Q92.1956 1259.08 96.7789 1254.45 Q101.385 1249.79 102.566 1248.45 Q104.811 1245.93 105.691 1244.19 Q106.594 1242.43 106.594 1240.74 Q106.594 1237.99 104.649 1236.25 Q102.728 1234.51 99.6261 1234.51 Q97.4271 1234.51 94.9734 1235.28 Q92.5428 1236.04 89.7651 1237.59 L89.7651 1232.87 Q92.5891 1231.74 95.0428 1231.16 Q97.4965 1230.58 99.5335 1230.58 Q104.904 1230.58 108.098 1233.26 Q111.293 1235.95 111.293 1240.44 Q111.293 1242.57 110.483 1244.49 Q109.696 1246.39 107.589 1248.98 Q107.01 1249.65 103.909 1252.87 Q100.807 1256.07 95.1586 1261.83 Z" fill="#000000" fill-rule="nonzero" fill-opacity="1" /><path clip-path="url(#clip570)" d="M50.9921 927.844 L80.6679 927.844 L80.6679 931.779 L50.9921 931.779 L50.9921 927.844 Z" fill="#000000" fill-rule="nonzero" fill-opacity="1" /><path clip-path="url(#clip570)" d="M91.5706 940.737 L99.2095 940.737 L99.2095 914.371 L90.8993 916.038 L90.8993 911.779 L99.1632 910.112 L103.839 910.112 L103.839 940.737 L111.478 940.737 L111.478 944.672 L91.5706 944.672 L91.5706 940.737 Z" fill="#000000" fill-rule="nonzero" fill-opacity="1" /><path clip-path="url(#clip570)" d="M99.5335 592.098 Q95.9224 592.098 94.0937 595.663 Q92.2882 599.205 92.2882 606.334 Q92.2882 613.441 94.0937 617.006 Q95.9224 620.547 99.5335 620.547 Q103.168 620.547 104.973 617.006 Q106.802 613.441 106.802 606.334 Q106.802 599.205 104.973 595.663 Q103.168 592.098 99.5335 592.098 M99.5335 588.395 Q105.344 588.395 108.399 593.001 Q111.478 597.584 111.478 606.334 Q111.478 615.061 108.399 619.668 Q105.344 624.251 99.5335 624.251 Q93.7234 624.251 90.6447 619.668 Q87.5892 615.061 87.5892 606.334 Q87.5892 597.584 90.6447 593.001 Q93.7234 588.395 99.5335 588.395 Z" fill="#000000" fill-rule="nonzero" fill-opacity="1" /><path clip-path="url(#clip570)" d="M91.5706 298.552 L99.2095 298.552 L99.2095 272.186 L90.8993 273.853 L90.8993 269.594 L99.1632 267.927 L103.839 267.927 L103.839 298.552 L111.478 298.552 L111.478 302.487 L91.5706 302.487 L91.5706 298.552 Z" fill="#000000" fill-rule="nonzero" fill-opacity="1" /><path clip-path="url(#clip572)" d="M1479.43 1445.72 L1483.98 1441.17 L1488.52 1436.63 L1493.06 1432.09 L1497.6 1427.55 L1502.14 1423.01 L1506.68 1418.47 L1511.22 1413.93 L1515.76 1409.39 L1520.3 1404.85 L1524.84 1400.31 L1529.38 1395.77 L1533.93 1391.22 L1538.47 1386.68 L1543.01 1382.14 L1547.55 1377.6 L1552.09 1373.06 L1556.63 1368.52 L1561.17 1363.98 L1565.71 1359.44 L1570.25 1354.9 L1574.79 1350.36 L1579.33 1345.82 L1583.88 1341.27 L1588.42 1336.73 L1592.96 1332.19 L1597.5 1327.65 L1602.04 1323.11 L1606.58 1318.57 L1611.12 1314.03 L1615.66 1309.49 L1620.2 1304.95 L1624.74 1300.41 L1629.28 1295.86 L1633.83 1291.32 L1638.37 1286.78 L1642.91 1282.24 L1647.45 1277.7 L1651.99 1273.16 L1656.53 1268.62 L1661.07 1264.08 L1665.61 1259.54 L1670.15 1255 L1674.69 1250.46 L1679.24 1245.91 L1683.78 1241.37 L1688.32 1236.83 L1692.86 1232.29 L1697.4 1227.75 L1701.94 1223.21 L1706.48 1218.67 L1711.02 1214.13 L1715.56 1209.59 L1720.1 1205.05 L1724.64 1200.51 L1729.19 1195.96 L1733.73 1191.42 L1738.27 1186.88 L1742.81 1182.34 L1747.35 1177.8 L1751.89 1173.26 L1756.43 1168.72 L1760.97 1164.18 L1765.51 1159.64 L1770.05 1155.1 L1774.59 1150.55 L1779.14 1146.01 L1783.68 1141.47 L1788.22 1136.93 L1792.76 1132.39 L1797.3 1127.85 L1801.84 1123.31 L1806.38 1118.77 L1810.92 1114.23 L1815.46 1109.69 L1820 1105.15 L1824.55 1100.6 L1829.09 1096.06 L1833.63 1091.52 L1838.17 1086.98 L1842.71 1082.44 L1847.25 1077.9 L1851.79 1073.36 L1856.33 1068.82 L1860.87 1064.28 L1865.41 1059.74 L1869.95 1055.2 L1874.5 1050.65 L1879.04 1046.11 L1883.58 1041.57 L1888.12 1037.03 L1892.66 1032.49 L1897.2 1027.95 L1901.74 1023.41 L1906.28 1018.87 L1910.82 1014.33 L1915.36 1009.79 L1919.9 1005.25 L1924.45 1000.7 L1928.99 996.163 L1928.99 991.622 L1924.45 987.081 L1919.9 982.54 L1915.36 977.999 L1910.82 973.459 L1906.28 968.918 L1901.74 964.377 L1897.2 959.836 L1892.66 955.295 L1888.12 950.754 L1883.58 946.213 L1879.04 941.672 L1874.5 937.131 L1869.95 932.59 L1865.41 928.049 L1860.87 923.508 L1856.33 918.967 L1851.79 914.426 L1847.25 909.885 L1842.71 905.344 L1838.17 900.804 L1833.63 896.263 L1829.09 891.722 L1824.55 887.181 L1820 882.64 L1815.46 878.099 L1810.92 873.558 L1806.38 869.017 L1801.84 864.476 L1797.3 859.935 L1792.76 855.394 L1788.22 850.853 L1783.68 846.312 L1779.14 841.771 L1774.59 837.23 L1770.05 832.69 L1765.51 828.149 L1760.97 823.608 L1756.43 819.067 L1751.89 814.526 L1747.35 809.985 L1742.81 805.444 L1738.27 800.903 L1733.73 796.362 L1729.19 791.821 L1724.64 787.28 L1720.1 782.739 L1715.56 778.198 L1711.02 773.657 L1706.48 769.116 L1701.94 764.576 L1697.4 760.035 L1692.86 755.494 L1688.32 750.953 L1683.78 746.412 L1679.24 741.871 L1674.69 737.33 L1670.15 732.789 L1665.61 728.248 L1661.07 723.707 L1656.53 719.166 L1651.99 714.625 L1647.45 710.084 L1642.91 705.543 L1638.37 701.002 L1633.83 696.461 L1629.28 691.921 L1624.74 687.38 L1620.2 682.839 L1615.66 678.298 L1611.12 673.757 L1606.58 669.216 L1602.04 664.675 L1597.5 660.134 L1592.96 655.593 L1588.42 651.052 L1583.88 646.511 L1579.33 641.97 L1574.79 637.429 L1570.25 632.888 L1565.71 628.347 L1561.17 623.807 L1556.63 619.266 L1552.09 614.725 L1547.55 610.184 L1543.01 605.643 L1538.47 601.102 L1533.93 596.561 L1529.38 592.02 L1524.84 587.479 L1520.3 582.938 L1515.76 578.397 L1511.22 573.856 L1506.68 569.315 L1502.14 564.774 L1497.6 560.233 L1493.06 555.693 L1488.52 551.152 L1483.98 546.611 L1479.43 542.07 L1474.89 537.529 L1470.35 532.988 L1465.81 528.447 L1461.27 523.906 L1456.73 519.365 L1452.19 514.824 L1447.65 510.283 L1443.11 505.742 L1438.57 501.201 L1434.02 496.66 L1429.48 492.119 L1424.94 487.579 L1420.4 483.038 L1415.86 478.497 L1411.32 473.956 L1406.78 469.415 L1402.24 464.874 L1397.7 460.333 L1393.16 455.792 L1388.62 451.251 L1384.07 446.71 L1379.53 442.169 L1374.99 437.628 L1370.45 433.087 L1365.91 428.546 L1361.37 424.005 L1356.83 419.464 L1352.29 414.924 L1347.75 410.383 L1343.21 405.842 L1338.67 401.301 L1334.12 396.76 L1329.58 392.219 L1325.04 387.678 L1320.5 383.137 L1315.96 378.596 L1311.42 374.055 L1306.88 369.514 L1302.34 364.973 L1297.8 360.432 L1293.26 355.891 L1288.71 351.35 L1284.17 346.81 L1279.63 342.269 L1275.09 337.728 L1270.55 333.187 L1266.01 328.646 L1261.47 324.105 L1256.93 319.564 L1252.39 315.023 L1247.85 310.482 L1243.31 305.941 L1238.76 301.4 L1234.22 296.859 L1229.68 292.318 L1225.14 287.777 L1220.6 283.236 L1216.06 278.696 L1211.52 274.155 L1206.98 269.614 L1202.44 265.073 L1197.9 260.532 L1193.36 255.991 L1188.81 251.45 L1184.27 246.909 L1179.73 242.368 L1175.19 237.827 L1170.65 233.286 L1166.11 228.745 L1161.57 224.204 L1157.03 219.663 L1152.49 215.122 L1147.95 210.582 L1143.4 206.041 L1138.86 201.5 L1134.32 196.959 L1129.78 192.418 L1125.24 187.877 L1120.7 183.336 L1116.16 178.795 L1111.62 174.254 L1107.08 169.713 L1102.54 165.172 L1098 160.631 L1093.45 156.09 L1088.91 151.549 L1084.37 147.008 L1079.83 142.467 L1075.29 137.927 L1070.75 133.386 L1066.21 128.845 L1061.67 124.304 L1057.13 119.763 L1052.59 115.222 L1048.05 110.681 L1043.5 106.14 L1038.96 101.599 L1034.42 97.0581 L1029.88 92.5172 L1025.34 87.9763 L1020.8 87.9763 L1016.26 92.5172 L1011.72 97.0581 L1007.18 101.599 L1002.64 106.14 L998.095 110.681 L993.554 115.222 L989.013 119.763 L984.472 124.304 L979.931 128.845 L975.39 133.386 L970.849 137.927 L966.309 142.467 L961.768 147.008 L957.227 151.549 L952.686 156.09 L948.145 160.631 L943.604 165.172 L939.063 169.713 L934.522 174.254 L929.981 178.795 L925.44 183.336 L920.899 187.877 L916.358 192.418 L911.817 196.959 L907.276 201.5 L902.735 206.041 L898.194 210.582 L893.654 215.122 L889.113 219.663 L884.572 224.204 L880.031 228.745 L875.49 233.286 L870.949 237.827 L866.408 242.368 L861.867 246.909 L857.326 251.45 L852.785 255.991 L848.244 260.532 L843.703 265.073 L839.162 269.614 L834.621 274.155 L830.08 278.696 L825.54 283.236 L820.999 287.777 L816.458 292.318 L811.917 296.859 L807.376 301.4 L802.835 305.941 L798.294 310.482 L793.753 315.023 L789.212 319.564 L784.671 324.105 L780.13 328.646 L775.589 333.187 L771.048 337.728 L766.507 342.269 L761.966 346.81 L757.426 351.35 L752.885 355.891 L748.344 360.432 L743.803 364.973 L739.262 369.514 L734.721 374.055 L730.18 378.596 L725.639 383.137 L721.098 387.678 L716.557 392.219 L712.016 396.76 L707.475 401.301 L702.934 405.842 L698.393 410.383 L693.852 414.924 L689.311 419.464 L684.771 424.005 L680.23 428.546 L675.689 433.087 L671.148 437.628 L666.607 442.169 L662.066 446.71 L657.525 451.251 L652.984 455.792 L648.443 460.333 L643.902 464.874 L639.361 469.415 L634.82 473.956 L630.279 478.497 L625.738 483.038 L621.197 487.579 L616.657 492.119 L612.116 496.66 L607.575 501.201 L603.034 505.742 L598.493 510.283 L593.952 514.824 L589.411 519.365 L584.87 523.906 L580.329 528.447 L575.788 532.988 L571.247 537.529 L571.247 542.07 L575.788 546.611 L580.329 551.152 L584.87 555.693 L589.411 560.233 L593.952 564.774 L598.493 569.315 L603.034 573.856 L607.575 578.397 L612.116 582.938 L616.657 587.479 L621.197 592.02 L625.738 596.561 L630.279 601.102 L634.82 605.643 L639.361 610.184 L643.902 614.725 L648.443 619.266 L652.984 623.807 L657.525 628.347 L662.066 632.888 L666.607 637.429 L671.148 641.97 L675.689 646.511 L680.23 651.052 L684.771 655.593 L689.311 660.134 L693.852 664.675 L698.393 669.216 L702.934 673.757 L707.475 678.298 L712.016 682.839 L716.557 687.38 L721.098 691.921 L725.639 696.461 L730.18 701.002 L734.721 705.543 L739.262 710.084 L743.803 714.625 L748.344 719.166 L752.885 723.707 L757.426 728.248 L761.966 732.789 L766.507 737.33 L771.048 741.871 L775.589 746.412 L780.13 750.953 L784.671 755.494 L789.212 760.035 L793.753 764.576 L798.294 769.116 L802.835 773.657 L807.376 778.198 L811.917 782.739 L816.458 787.28 L820.999 791.821 L825.54 796.362 L830.08 800.903 L834.621 805.444 L839.162 809.985 L843.703 814.526 L848.244 819.067 L852.785 823.608 L857.326 828.149 L861.867 832.69 L866.408 837.23 L870.949 841.771 L875.49 846.312 L880.031 850.853 L884.572 855.394 L889.113 859.935 L893.654 864.476 L898.194 869.017 L902.735 873.558 L907.276 878.099 L911.817 882.64 L916.358 887.181 L920.899 891.722 L925.44 896.263 L929.981 900.804 L934.522 905.344 L939.063 909.885 L943.604 914.426 L948.145 918.967 L952.686 923.508 L957.227 928.049 L961.768 932.59 L966.309 937.131 L970.849 941.672 L975.39 946.213 L979.931 950.754 L984.472 955.295 L989.013 959.836 L993.554 964.377 L998.095 968.918 L1002.64 973.459 L1007.18 977.999 L1011.72 982.54 L1016.26 987.081 L1020.8 991.622 L1025.34 996.163 L1029.88 1000.7 L1034.42 1005.25 L1038.96 1009.79 L1043.5 1014.33 L1048.05 1018.87 L1052.59 1023.41 L1057.13 1027.95 L1061.67 1032.49 L1066.21 1037.03 L1070.75 1041.57 L1075.29 1046.11 L1079.83 1050.65 L1084.37 1055.2 L1088.91 1059.74 L1093.45 1064.28 L1098 1068.82 L1102.54 1073.36 L1107.08 1077.9 L1111.62 1082.44 L1116.16 1086.98 L1120.7 1091.52 L1125.24 1096.06 L1129.78 1100.6 L1134.32 1105.15 L1138.86 1109.69 L1143.4 1114.23 L1147.95 1118.77 L1152.49 1123.31 L1157.03 1127.85 L1161.57 1132.39 L1166.11 1136.93 L1170.65 1141.47 L1175.19 1146.01 L1179.73 1150.55 L1184.27 1155.1 L1188.81 1159.64 L1193.36 1164.18 L1197.9 1168.72 L1202.44 1173.26 L1206.98 1177.8 L1211.52 1182.34 L1216.06 1186.88 L1220.6 1191.42 L1225.14 1195.96 L1229.68 1200.51 L1234.22 1205.05 L1238.76 1209.59 L1243.31 1214.13 L1247.85 1218.67 L1252.39 1223.21 L1256.93 1227.75 L1261.47 1232.29 L1266.01 1236.83 L1270.55 1241.37 L1275.09 1245.91 L1279.63 1250.46 L1284.17 1255 L1288.71 1259.54 L1293.26 1264.08 L1297.8 1268.62 L1302.34 1273.16 L1306.88 1277.7 L1311.42 1282.24 L1315.96 1286.78 L1320.5 1291.32 L1325.04 1295.86 L1329.58 1300.41 L1334.12 1304.95 L1338.67 1309.49 L1343.21 1314.03 L1347.75 1318.57 L1352.29 1323.11 L1356.83 1327.65 L1361.37 1332.19 L1365.91 1336.73 L1370.45 1341.27 L1374.99 1345.82 L1379.53 1350.36 L1384.07 1354.9 L1388.62 1359.44 L1393.16 1363.98 L1397.7 1368.52 L1402.24 1373.06 L1406.78 1377.6 L1411.32 1382.14 L1415.86 1386.68 L1420.4 1391.22 L1424.94 1395.77 L1429.48 1400.31 L1434.02 1404.85 L1438.57 1409.39 L1443.11 1413.93 L1447.65 1418.47 L1452.19 1423.01 L1456.73 1427.55 L1461.27 1432.09 L1465.81 1436.63 L1470.35 1441.17 L1474.89 1445.72 L1479.43 1445.72 L1479.43 606.3 L1474.89 606.3 L1470.35 606.3 L1465.81 606.3 L1461.27 606.3 L1456.73 606.3 L1452.19 606.3 L1447.65 606.3 L1443.11 606.3 L1438.57 606.3 L1434.02 606.3 L1429.48 606.3 L1424.94 606.3 L1420.4 606.3 L1415.86 606.3 L1411.32 606.3 L1406.78 606.3 L1402.24 606.3 L1397.7 606.3 L1393.16 606.3 L1388.62 606.3 L1384.07 606.3 L1379.53 606.3 L1374.99 606.3 L1370.45 606.3 L1365.91 606.3 L1361.37 606.3 L1356.83 606.3 L1352.29 606.3 L1347.75 606.3 L1343.21 606.3 L1338.67 606.3 L1334.12 606.3 L1329.58 606.3 L1325.04 606.3 L1320.5 606.3 L1315.96 606.3 L1311.42 606.3 L1306.88 606.3 L1302.34 606.3 L1297.8 606.3 L1293.26 606.3 L1288.71 606.3 L1284.17 606.3 L1279.63 606.3 L1275.09 606.3 L1270.55 606.3 L1266.01 606.3 L1261.47 606.3 L1256.93 606.3 L1252.39 606.3 L1247.85 606.3 L1243.31 606.3 L1238.76 606.3 L1234.22 606.3 L1229.68 606.3 L1225.14 606.3 L1220.6 606.3 L1216.06 606.3 L1211.52 606.3 L1206.98 606.3 L1202.44 606.3 L1197.9 606.3 L1193.36 606.3 L1188.81 606.3 L1184.27 606.3 L1179.73 606.3 L1175.19 606.3 L1170.65 606.3 L1166.11 606.3 L1161.57 606.3 L1157.03 606.3 L1152.49 606.3 L1147.95 606.3 L1143.4 606.3 L1138.86 606.3 L1134.32 606.3 L1129.78 606.3 L1125.24 606.3 L1120.7 606.3 L1116.16 606.3 L1111.62 606.3 L1107.08 606.3 L1102.54 606.3 L1098 606.3 L1093.45 606.3 L1088.91 606.3 L1084.37 606.3 L1079.83 606.3 L1075.29 606.3 L1070.75 606.3 L1066.21 606.3 L1061.67 606.3 L1057.13 606.3 L1052.59 606.3 L1048.05 606.3 L1043.5 606.3 L1038.96 606.3 L1034.42 606.3 L1029.88 606.3 L1025.34 606.3 L1020.8 606.3 L1016.26 606.3 L1011.72 606.3 L1007.18 606.3 L1002.64 606.3 L998.095 606.3 L993.554 606.3 L989.013 606.3 L984.472 606.3 L979.931 606.3 L975.39 606.3 L970.849 606.3 L966.309 606.3 L961.768 606.3 L957.227 606.3 L952.686 606.3 L948.145 606.3 L943.604 606.3 L939.063 606.3 L934.522 606.3 L929.981 606.3 L925.44 606.3 L920.899 606.3 L916.358 606.3 L911.817 606.3 L907.276 606.3 L902.735 606.3 L898.194 606.3 L893.654 606.3 L889.113 606.3 L884.572 606.3 L880.031 606.3 L875.49 606.3 L870.949 606.3 L866.408 606.3 L861.867 606.3 L857.326 606.3 L852.785 606.3 L848.244 606.3 L843.703 606.3 L839.162 606.3 L834.621 606.3 L830.08 606.3 L825.54 606.3 L820.999 606.3 L816.458 606.3 L811.917 606.3 L807.376 606.3 L802.835 606.3 L798.294 606.3 L793.753 606.3 L789.212 606.3 L784.671 606.3 L780.13 606.3 L775.589 606.3 L771.048 606.3 L766.507 606.3 L761.966 606.3 L757.426 606.3 L752.885 606.3 L748.344 606.3 L743.803 606.3 L739.262 606.3 L734.721 606.3 L730.18 606.3 L725.639 606.3 L721.098 606.3 L716.557 606.3 L712.016 606.3 L707.475 606.3 L702.934 606.3 L698.393 606.3 L693.852 606.3 L689.311 606.3 L684.771 606.3 L680.23 606.3 L675.689 606.3 L671.148 606.3 L666.607 606.3 L662.066 606.3 L657.525 606.3 L652.984 606.3 L648.443 606.3 L643.902 606.3 L639.361 606.3 L634.82 606.3 L630.279 606.3 L625.738 606.3 L621.197 606.3 L616.657 606.3 L612.116 606.3 L607.575 606.3 L603.034 606.3 L598.493 606.3 L593.952 606.3 L589.411 606.3 L584.87 606.3 L580.329 606.3 L575.788 606.3 L571.247 606.3 L571.247 606.3 L575.788 606.3 L580.329 606.3 L584.87 606.3 L589.411 606.3 L593.952 606.3 L598.493 606.3 L603.034 606.3 L607.575 606.3 L612.116 606.3 L616.657 606.3 L621.197 606.3 L625.738 606.3 L630.279 606.3 L634.82 606.3 L639.361 606.3 L643.902 606.3 L648.443 606.3 L652.984 606.3 L657.525 606.3 L662.066 606.3 L666.607 606.3 L671.148 606.3 L675.689 606.3 L680.23 606.3 L684.771 606.3 L689.311 606.3 L693.852 606.3 L698.393 606.3 L702.934 606.3 L707.475 606.3 L712.016 606.3 L716.557 606.3 L721.098 606.3 L725.639 606.3 L730.18 606.3 L734.721 606.3 L739.262 606.3 L743.803 606.3 L748.344 606.3 L752.885 606.3 L757.426 606.3 L761.966 606.3 L766.507 606.3 L771.048 606.3 L775.589 606.3 L780.13 606.3 L784.671 606.3 L789.212 606.3 L793.753 606.3 L798.294 606.3 L802.835 606.3 L807.376 606.3 L811.917 606.3 L816.458 606.3 L820.999 606.3 L825.54 606.3 L830.08 606.3 L834.621 606.3 L839.162 606.3 L843.703 606.3 L848.244 606.3 L852.785 606.3 L857.326 606.3 L861.867 606.3 L866.408 606.3 L870.949 606.3 L875.49 606.3 L880.031 606.3 L884.572 606.3 L889.113 606.3 L893.654 606.3 L898.194 606.3 L902.735 606.3 L907.276 606.3 L911.817 606.3 L916.358 606.3 L920.899 606.3 L925.44 606.3 L929.981 606.3 L934.522 606.3 L939.063 606.3 L943.604 606.3 L948.145 606.3 L952.686 606.3 L957.227 606.3 L961.768 606.3 L966.309 606.3 L970.849 606.3 L975.39 606.3 L979.931 606.3 L984.472 606.3 L989.013 606.3 L993.554 606.3 L998.095 606.3 L1002.64 606.3 L1007.18 606.3 L1011.72 606.3 L1016.26 606.3 L1020.8 606.3 L1025.34 606.3 L1029.88 606.3 L1034.42 606.3 L1038.96 606.3 L1043.5 606.3 L1048.05 606.3 L1052.59 606.3 L1057.13 606.3 L1061.67 606.3 L1066.21 606.3 L1070.75 606.3 L1075.29 606.3 L1079.83 606.3 L1084.37 606.3 L1088.91 606.3 L1093.45 606.3 L1098 606.3 L1102.54 606.3 L1107.08 606.3 L1111.62 606.3 L1116.16 606.3 L1120.7 606.3 L1125.24 606.3 L1129.78 606.3 L1134.32 606.3 L1138.86 606.3 L1143.4 606.3 L1147.95 606.3 L1152.49 606.3 L1157.03 606.3 L1161.57 606.3 L1166.11 606.3 L1170.65 606.3 L1175.19 606.3 L1179.73 606.3 L1184.27 606.3 L1188.81 606.3 L1193.36 606.3 L1197.9 606.3 L1202.44 606.3 L1206.98 606.3 L1211.52 606.3 L1216.06 606.3 L1220.6 606.3 L1225.14 606.3 L1229.68 606.3 L1234.22 606.3 L1238.76 606.3 L1243.31 606.3 L1247.85 606.3 L1252.39 606.3 L1256.93 606.3 L1261.47 606.3 L1266.01 606.3 L1270.55 606.3 L1275.09 606.3 L1279.63 606.3 L1284.17 606.3 L1288.71 606.3 L1293.26 606.3 L1297.8 606.3 L1302.34 606.3 L1306.88 606.3 L1311.42 606.3 L1315.96 606.3 L1320.5 606.3 L1325.04 606.3 L1329.58 606.3 L1334.12 606.3 L1338.67 606.3 L1343.21 606.3 L1347.75 606.3 L1352.29 606.3 L1356.83 606.3 L1361.37 606.3 L1365.91 606.3 L1370.45 606.3 L1374.99 606.3 L1379.53 606.3 L1384.07 606.3 L1388.62 606.3 L1393.16 606.3 L1397.7 606.3 L1402.24 606.3 L1406.78 606.3 L1411.32 606.3 L1415.86 606.3 L1420.4 606.3 L1424.94 606.3 L1429.48 606.3 L1434.02 606.3 L1438.57 606.3 L1443.11 606.3 L1447.65 606.3 L1452.19 606.3 L1456.73 606.3 L1461.27 606.3 L1465.81 606.3 L1470.35 606.3 L1474.89 606.3 L1479.43 606.3 L1483.98 606.3 L1488.52 606.3 L1493.06 606.3 L1497.6 606.3 L1502.14 606.3 L1506.68 606.3 L1511.22 606.3 L1515.76 606.3 L1520.3 606.3 L1524.84 606.3 L1529.38 606.3 L1533.93 606.3 L1538.47 606.3 L1543.01 606.3 L1547.55 606.3 L1552.09 606.3 L1556.63 606.3 L1561.17 606.3 L1565.71 606.3 L1570.25 606.3 L1574.79 606.3 L1579.33 606.3 L1583.88 606.3 L1588.42 606.3 L1592.96 606.3 L1597.5 606.3 L1602.04 606.3 L1606.58 606.3 L1611.12 606.3 L1615.66 606.3 L1620.2 606.3 L1624.74 606.3 L1629.28 606.3 L1633.83 606.3 L1638.37 606.3 L1642.91 606.3 L1647.45 606.3 L1651.99 606.3 L1656.53 606.3 L1661.07 606.3 L1665.61 606.3 L1670.15 606.3 L1674.69 606.3 L1679.24 606.3 L1683.78 606.3 L1688.32 606.3 L1692.86 606.3 L1697.4 606.3 L1701.94 606.3 L1706.48 606.3 L1711.02 606.3 L1715.56 606.3 L1720.1 606.3 L1724.64 606.3 L1729.19 606.3 L1733.73 606.3 L1738.27 606.3 L1742.81 606.3 L1747.35 606.3 L1751.89 606.3 L1756.43 606.3 L1760.97 606.3 L1765.51 606.3 L1770.05 606.3 L1774.59 606.3 L1779.14 606.3 L1783.68 606.3 L1788.22 606.3 L1792.76 606.3 L1797.3 606.3 L1801.84 606.3 L1806.38 606.3 L1810.92 606.3 L1815.46 606.3 L1820 606.3 L1824.55 606.3 L1829.09 606.3 L1833.63 606.3 L1838.17 606.3 L1842.71 606.3 L1847.25 606.3 L1851.79 606.3 L1856.33 606.3 L1860.87 606.3 L1865.41 606.3 L1869.95 606.3 L1874.5 606.3 L1879.04 606.3 L1883.58 606.3 L1888.12 606.3 L1892.66 606.3 L1897.2 606.3 L1901.74 606.3 L1906.28 606.3 L1910.82 606.3 L1915.36 606.3 L1919.9 606.3 L1924.45 606.3 L1928.99 606.3 L1928.99 606.3 L1924.45 606.3 L1919.9 606.3 L1915.36 606.3 L1910.82 606.3 L1906.28 606.3 L1901.74 606.3 L1897.2 606.3 L1892.66 606.3 L1888.12 606.3 L1883.58 606.3 L1879.04 606.3 L1874.5 606.3 L1869.95 606.3 L1865.41 606.3 L1860.87 606.3 L1856.33 606.3 L1851.79 606.3 L1847.25 606.3 L1842.71 606.3 L1838.17 606.3 L1833.63 606.3 L1829.09 606.3 L1824.55 606.3 L1820 606.3 L1815.46 606.3 L1810.92 606.3 L1806.38 606.3 L1801.84 606.3 L1797.3 606.3 L1792.76 606.3 L1788.22 606.3 L1783.68 606.3 L1779.14 606.3 L1774.59 606.3 L1770.05 606.3 L1765.51 606.3 L1760.97 606.3 L1756.43 606.3 L1751.89 606.3 L1747.35 606.3 L1742.81 606.3 L1738.27 606.3 L1733.73 606.3 L1729.19 606.3 L1724.64 606.3 L1720.1 606.3 L1715.56 606.3 L1711.02 606.3 L1706.48 606.3 L1701.94 606.3 L1697.4 606.3 L1692.86 606.3 L1688.32 606.3 L1683.78 606.3 L1679.24 606.3 L1674.69 606.3 L1670.15 606.3 L1665.61 606.3 L1661.07 606.3 L1656.53 606.3 L1651.99 606.3 L1647.45 606.3 L1642.91 606.3 L1638.37 606.3 L1633.83 606.3 L1629.28 606.3 L1624.74 606.3 L1620.2 606.3 L1615.66 606.3 L1611.12 606.3 L1606.58 606.3 L1602.04 606.3 L1597.5 606.3 L1592.96 606.3 L1588.42 606.3 L1583.88 606.3 L1579.33 606.3 L1574.79 606.3 L1570.25 606.3 L1565.71 606.3 L1561.17 606.3 L1556.63 606.3 L1552.09 606.3 L1547.55 606.3 L1543.01 606.3 L1538.47 606.3 L1533.93 606.3 L1529.38 606.3 L1524.84 606.3 L1520.3 606.3 L1515.76 606.3 L1511.22 606.3 L1506.68 606.3 L1502.14 606.3 L1497.6 606.3 L1493.06 606.3 L1488.52 606.3 L1483.98 606.3 L1479.43 606.3  Z" fill="#97b476" fill-rule="evenodd" fill-opacity="1"/>
<polyline clip-path="url(#clip572)" style="stroke:#97b476; stroke-linecap:round; stroke-linejoin:round; stroke-width:4; stroke-opacity:1; fill:none" points="1479.43,1445.72 1483.98,1441.17 1488.52,1436.63 1493.06,1432.09 1497.6,1427.55 1502.14,1423.01 1506.68,1418.47 1511.22,1413.93 1515.76,1409.39 1520.3,1404.85 1524.84,1400.31 1529.38,1395.77 1533.93,1391.22 1538.47,1386.68 1543.01,1382.14 1547.55,1377.6 1552.09,1373.06 1556.63,1368.52 1561.17,1363.98 1565.71,1359.44 1570.25,1354.9 1574.79,1350.36 1579.33,1345.82 1583.88,1341.27 1588.42,1336.73 1592.96,1332.19 1597.5,1327.65 1602.04,1323.11 1606.58,1318.57 1611.12,1314.03 1615.66,1309.49 1620.2,1304.95 1624.74,1300.41 1629.28,1295.86 1633.83,1291.32 1638.37,1286.78 1642.91,1282.24 1647.45,1277.7 1651.99,1273.16 1656.53,1268.62 1661.07,1264.08 1665.61,1259.54 1670.15,1255 1674.69,1250.46 1679.24,1245.91 1683.78,1241.37 1688.32,1236.83 1692.86,1232.29 1697.4,1227.75 1701.94,1223.21 1706.48,1218.67 1711.02,1214.13 1715.56,1209.59 1720.1,1205.05 1724.64,1200.51 1729.19,1195.96 1733.73,1191.42 1738.27,1186.88 1742.81,1182.34 1747.35,1177.8 1751.89,1173.26 1756.43,1168.72 1760.97,1164.18 1765.51,1159.64 1770.05,1155.1 1774.59,1150.55 1779.14,1146.01 1783.68,1141.47 1788.22,1136.93 1792.76,1132.39 1797.3,1127.85 1801.84,1123.31 1806.38,1118.77 1810.92,1114.23 1815.46,1109.69 1820,1105.15 1824.55,1100.6 1829.09,1096.06 1833.63,1091.52 1838.17,1086.98 1842.71,1082.44 1847.25,1077.9 1851.79,1073.36 1856.33,1068.82 1860.87,1064.28 1865.41,1059.74 1869.95,1055.2 1874.5,1050.65 1879.04,1046.11 1883.58,1041.57 1888.12,1037.03 1892.66,1032.49 1897.2,1027.95 1901.74,1023.41 1906.28,1018.87 1910.82,1014.33 1915.36,1009.79 1919.9,1005.25 1924.45,1000.7 1928.99,996.163 1928.99,991.622 1924.45,987.081 1919.9,982.54 1915.36,977.999 1910.82,973.459 1906.28,968.918 1901.74,964.377 1897.2,959.836 1892.66,955.295 1888.12,950.754 1883.58,946.213 1879.04,941.672 1874.5,937.131 1869.95,932.59 1865.41,928.049 1860.87,923.508 1856.33,918.967 1851.79,914.426 1847.25,909.885 1842.71,905.344 1838.17,900.804 1833.63,896.263 1829.09,891.722 1824.55,887.181 1820,882.64 1815.46,878.099 1810.92,873.558 1806.38,869.017 1801.84,864.476 1797.3,859.935 1792.76,855.394 1788.22,850.853 1783.68,846.312 1779.14,841.771 1774.59,837.23 1770.05,832.69 1765.51,828.149 1760.97,823.608 1756.43,819.067 1751.89,814.526 1747.35,809.985 1742.81,805.444 1738.27,800.903 1733.73,796.362 1729.19,791.821 1724.64,787.28 1720.1,782.739 1715.56,778.198 1711.02,773.657 1706.48,769.116 1701.94,764.576 1697.4,760.035 1692.86,755.494 1688.32,750.953 1683.78,746.412 1679.24,741.871 1674.69,737.33 1670.15,732.789 1665.61,728.248 1661.07,723.707 1656.53,719.166 1651.99,714.625 1647.45,710.084 1642.91,705.543 1638.37,701.002 1633.83,696.461 1629.28,691.921 1624.74,687.38 1620.2,682.839 1615.66,678.298 1611.12,673.757 1606.58,669.216 1602.04,664.675 1597.5,660.134 1592.96,655.593 1588.42,651.052 1583.88,646.511 1579.33,641.97 1574.79,637.429 1570.25,632.888 1565.71,628.347 1561.17,623.807 1556.63,619.266 1552.09,614.725 1547.55,610.184 1543.01,605.643 1538.47,601.102 1533.93,596.561 1529.38,592.02 1524.84,587.479 1520.3,582.938 1515.76,578.397 1511.22,573.856 1506.68,569.315 1502.14,564.774 1497.6,560.233 1493.06,555.693 1488.52,551.152 1483.98,546.611 1479.43,542.07 1474.89,537.529 1470.35,532.988 1465.81,528.447 1461.27,523.906 1456.73,519.365 1452.19,514.824 1447.65,510.283 1443.11,505.742 1438.57,501.201 1434.02,496.66 1429.48,492.119 1424.94,487.579 1420.4,483.038 1415.86,478.497 1411.32,473.956 1406.78,469.415 1402.24,464.874 1397.7,460.333 1393.16,455.792 1388.62,451.251 1384.07,446.71 1379.53,442.169 1374.99,437.628 1370.45,433.087 1365.91,428.546 1361.37,424.005 1356.83,419.464 1352.29,414.924 1347.75,410.383 1343.21,405.842 1338.67,401.301 1334.12,396.76 1329.58,392.219 1325.04,387.678 1320.5,383.137 1315.96,378.596 1311.42,374.055 1306.88,369.514 1302.34,364.973 1297.8,360.432 1293.26,355.891 1288.71,351.35 1284.17,346.81 1279.63,342.269 1275.09,337.728 1270.55,333.187 1266.01,328.646 1261.47,324.105 1256.93,319.564 1252.39,315.023 1247.85,310.482 1243.31,305.941 1238.76,301.4 1234.22,296.859 1229.68,292.318 1225.14,287.777 1220.6,283.236 1216.06,278.696 1211.52,274.155 1206.98,269.614 1202.44,265.073 1197.9,260.532 1193.36,255.991 1188.81,251.45 1184.27,246.909 1179.73,242.368 1175.19,237.827 1170.65,233.286 1166.11,228.745 1161.57,224.204 1157.03,219.663 1152.49,215.122 1147.95,210.582 1143.4,206.041 1138.86,201.5 1134.32,196.959 1129.78,192.418 1125.24,187.877 1120.7,183.336 1116.16,178.795 1111.62,174.254 1107.08,169.713 1102.54,165.172 1098,160.631 1093.45,156.09 1088.91,151.549 1084.37,147.008 1079.83,142.467 1075.29,137.927 1070.75,133.386 1066.21,128.845 1061.67,124.304 1057.13,119.763 1052.59,115.222 1048.05,110.681 1043.5,106.14 1038.96,101.599 1034.42,97.0581 1029.88,92.5172 1025.34,87.9763 1020.8,87.9763 1016.26,92.5172 1011.72,97.0581 1007.18,101.599 1002.64,106.14 998.095,110.681 993.554,115.222 989.013,119.763 984.472,124.304 979.931,128.845 975.39,133.386 970.849,137.927 966.309,142.467 961.768,147.008 957.227,151.549 952.686,156.09 948.145,160.631 943.604,165.172 939.063,169.713 934.522,174.254 929.981,178.795 925.44,183.336 920.899,187.877 916.358,192.418 911.817,196.959 907.276,201.5 902.735,206.041 898.194,210.582 893.654,215.122 889.113,219.663 884.572,224.204 880.031,228.745 875.49,233.286 870.949,237.827 866.408,242.368 861.867,246.909 857.326,251.45 852.785,255.991 848.244,260.532 843.703,265.073 839.162,269.614 834.621,274.155 830.08,278.696 825.54,283.236 820.999,287.777 816.458,292.318 811.917,296.859 807.376,301.4 802.835,305.941 798.294,310.482 793.753,315.023 789.212,319.564 784.671,324.105 780.13,328.646 775.589,333.187 771.048,337.728 766.507,342.269 761.966,346.81 757.426,351.35 752.885,355.891 748.344,360.432 743.803,364.973 739.262,369.514 734.721,374.055 730.18,378.596 725.639,383.137 721.098,387.678 716.557,392.219 712.016,396.76 707.475,401.301 702.934,405.842 698.393,410.383 693.852,414.924 689.311,419.464 684.771,424.005 680.23,428.546 675.689,433.087 671.148,437.628 666.607,442.169 662.066,446.71 657.525,451.251 652.984,455.792 648.443,460.333 643.902,464.874 639.361,469.415 634.82,473.956 630.279,478.497 625.738,483.038 621.197,487.579 616.657,492.119 612.116,496.66 607.575,501.201 603.034,505.742 598.493,510.283 593.952,514.824 589.411,519.365 584.87,523.906 580.329,528.447 575.788,532.988 571.247,537.529 571.247,542.07 575.788,546.611 580.329,551.152 584.87,555.693 589.411,560.233 593.952,564.774 598.493,569.315 603.034,573.856 607.575,578.397 612.116,582.938 616.657,587.479 621.197,592.02 625.738,596.561 630.279,601.102 634.82,605.643 639.361,610.184 643.902,614.725 648.443,619.266 652.984,623.807 657.525,628.347 662.066,632.888 666.607,637.429 671.148,641.97 675.689,646.511 680.23,651.052 684.771,655.593 689.311,660.134 693.852,664.675 698.393,669.216 702.934,673.757 707.475,678.298 712.016,682.839 716.557,687.38 721.098,691.921 725.639,696.461 730.18,701.002 734.721,705.543 739.262,710.084 743.803,714.625 748.344,719.166 752.885,723.707 757.426,728.248 761.966,732.789 766.507,737.33 771.048,741.871 775.589,746.412 780.13,750.953 784.671,755.494 789.212,760.035 793.753,764.576 798.294,769.116 802.835,773.657 807.376,778.198 811.917,782.739 816.458,787.28 820.999,791.821 825.54,796.362 830.08,800.903 834.621,805.444 839.162,809.985 843.703,814.526 848.244,819.067 852.785,823.608 857.326,828.149 861.867,832.69 866.408,837.23 870.949,841.771 875.49,846.312 880.031,850.853 884.572,855.394 889.113,859.935 893.654,864.476 898.194,869.017 902.735,873.558 907.276,878.099 911.817,882.64 916.358,887.181 920.899,891.722 925.44,896.263 929.981,900.804 934.522,905.344 939.063,909.885 943.604,914.426 948.145,918.967 952.686,923.508 957.227,928.049 961.768,932.59 966.309,937.131 970.849,941.672 975.39,946.213 979.931,950.754 984.472,955.295 989.013,959.836 993.554,964.377 998.095,968.918 1002.64,973.459 1007.18,977.999 1011.72,982.54 1016.26,987.081 1020.8,991.622 1025.34,996.163 1029.88,1000.7 1034.42,1005.25 1038.96,1009.79 1043.5,1014.33 1048.05,1018.87 1052.59,1023.41 1057.13,1027.95 1061.67,1032.49 1066.21,1037.03 1070.75,1041.57 1075.29,1046.11 1079.83,1050.65 1084.37,1055.2 1088.91,1059.74 1093.45,1064.28 1098,1068.82 1102.54,1073.36 1107.08,1077.9 1111.62,1082.44 1116.16,1086.98 1120.7,1091.52 1125.24,1096.06 1129.78,1100.6 1134.32,1105.15 1138.86,1109.69 1143.4,1114.23 1147.95,1118.77 1152.49,1123.31 1157.03,1127.85 1161.57,1132.39 1166.11,1136.93 1170.65,1141.47 1175.19,1146.01 1179.73,1150.55 1184.27,1155.1 1188.81,1159.64 1193.36,1164.18 1197.9,1168.72 1202.44,1173.26 1206.98,1177.8 1211.52,1182.34 1216.06,1186.88 1220.6,1191.42 1225.14,1195.96 1229.68,1200.51 1234.22,1205.05 1238.76,1209.59 1243.31,1214.13 1247.85,1218.67 1252.39,1223.21 1256.93,1227.75 1261.47,1232.29 1266.01,1236.83 1270.55,1241.37 1275.09,1245.91 1279.63,1250.46 1284.17,1255 1288.71,1259.54 1293.26,1264.08 1297.8,1268.62 1302.34,1273.16 1306.88,1277.7 1311.42,1282.24 1315.96,1286.78 1320.5,1291.32 1325.04,1295.86 1329.58,1300.41 1334.12,1304.95 1338.67,1309.49 1343.21,1314.03 1347.75,1318.57 1352.29,1323.11 1356.83,1327.65 1361.37,1332.19 1365.91,1336.73 1370.45,1341.27 1374.99,1345.82 1379.53,1350.36 1384.07,1354.9 1388.62,1359.44 1393.16,1363.98 1397.7,1368.52 1402.24,1373.06 1406.78,1377.6 1411.32,1382.14 1415.86,1386.68 1420.4,1391.22 1424.94,1395.77 1429.48,1400.31 1434.02,1404.85 1438.57,1409.39 1443.11,1413.93 1447.65,1418.47 1452.19,1423.01 1456.73,1427.55 1461.27,1432.09 1465.81,1436.63 1470.35,1441.17 1474.89,1445.72 1479.43,1445.72 "/>
</svg>
