<?xml version="1.0" encoding="utf-8"?>
<svg xmlns="http://www.w3.org/2000/svg" xmlns:xlink="http://www.w3.org/1999/xlink" width="600" height="400" viewBox="0 0 2400 1600">
<defs>
  <clipPath id="clip460">
    <rect x="0" y="0" width="2400" height="1600"/>
  </clipPath>
</defs>
<path clip-path="url(#clip460)" d="M0 1600 L2400 1600 L2400 0 L0 0  Z" fill="#ffffff" fill-rule="evenodd" fill-opacity="1"/>
<defs>
  <clipPath id="clip461">
    <rect x="480" y="0" width="1681" height="1600"/>
  </clipPath>
</defs>
<path clip-path="url(#clip460)" d="M186.274 1486.45 L2352.76 1486.45 L2352.76 47.2441 L186.274 47.2441  Z" fill="#ffffff" fill-rule="evenodd" fill-opacity="1"/>
<defs>
  <clipPath id="clip462">
    <rect x="186" y="47" width="2167" height="1440"/>
  </clipPath>
</defs>
<polyline clip-path="url(#clip460)" style="stroke:#000000; stroke-linecap:round; stroke-linejoin:round; stroke-width:4; stroke-opacity:1; fill:none" points="186.274,1486.45 2352.76,1486.45 "/>
<polyline clip-path="url(#clip460)" style="stroke:#000000; stroke-linecap:round; stroke-linejoin:round; stroke-width:4; stroke-opacity:1; fill:none" points="454.871,1486.45 454.871,1467.55 "/>
<polyline clip-path="url(#clip460)" style="stroke:#000000; stroke-linecap:round; stroke-linejoin:round; stroke-width:4; stroke-opacity:1; fill:none" points="726.419,1486.45 726.419,1467.55 "/>
<polyline clip-path="url(#clip460)" style="stroke:#000000; stroke-linecap:round; stroke-linejoin:round; stroke-width:4; stroke-opacity:1; fill:none" points="997.967,1486.45 997.967,1467.55 "/>
<polyline clip-path="url(#clip460)" style="stroke:#000000; stroke-linecap:round; stroke-linejoin:round; stroke-width:4; stroke-opacity:1; fill:none" points="1269.51,1486.45 1269.51,1467.55 "/>
<polyline clip-path="url(#clip460)" style="stroke:#000000; stroke-linecap:round; stroke-linejoin:round; stroke-width:4; stroke-opacity:1; fill:none" points="1541.06,1486.45 1541.06,1467.55 "/>
<polyline clip-path="url(#clip460)" style="stroke:#000000; stroke-linecap:round; stroke-linejoin:round; stroke-width:4; stroke-opacity:1; fill:none" points="1812.61,1486.45 1812.61,1467.55 "/>
<polyline clip-path="url(#clip460)" style="stroke:#000000; stroke-linecap:round; stroke-linejoin:round; stroke-width:4; stroke-opacity:1; fill:none" points="2084.16,1486.45 2084.16,1467.55 "/>
<path clip-path="url(#clip460)" d="M401.318 1532.02 L430.994 1532.02 L430.994 1535.95 L401.318 1535.95 L401.318 1532.02 Z" fill="#000000" fill-rule="nonzero" fill-opacity="1" /><path clip-path="url(#clip460)" d="M451.087 1517.37 Q447.476 1517.37 445.647 1520.93 Q443.841 1524.47 443.841 1531.6 Q443.841 1538.71 445.647 1542.27 Q447.476 1545.82 451.087 1545.82 Q454.721 1545.82 456.526 1542.27 Q458.355 1538.71 458.355 1531.6 Q458.355 1524.47 456.526 1520.93 Q454.721 1517.37 451.087 1517.37 M451.087 1513.66 Q456.897 1513.66 459.952 1518.27 Q463.031 1522.85 463.031 1531.6 Q463.031 1540.33 459.952 1544.94 Q456.897 1549.52 451.087 1549.52 Q445.276 1549.52 442.198 1544.94 Q439.142 1540.33 439.142 1531.6 Q439.142 1522.85 442.198 1518.27 Q445.276 1513.66 451.087 1513.66 Z" fill="#000000" fill-rule="nonzero" fill-opacity="1" /><path clip-path="url(#clip460)" d="M471.249 1542.97 L476.133 1542.97 L476.133 1548.85 L471.249 1548.85 L471.249 1542.97 Z" fill="#000000" fill-rule="nonzero" fill-opacity="1" /><path clip-path="url(#clip460)" d="M496.897 1529.7 Q493.748 1529.7 491.897 1531.86 Q490.068 1534.01 490.068 1537.76 Q490.068 1541.49 491.897 1543.66 Q493.748 1545.82 496.897 1545.82 Q500.045 1545.82 501.873 1543.66 Q503.725 1541.49 503.725 1537.76 Q503.725 1534.01 501.873 1531.86 Q500.045 1529.7 496.897 1529.7 M506.179 1515.05 L506.179 1519.31 Q504.42 1518.48 502.614 1518.04 Q500.832 1517.6 499.072 1517.6 Q494.443 1517.6 491.989 1520.72 Q489.559 1523.85 489.211 1530.17 Q490.577 1528.15 492.637 1527.09 Q494.697 1526 497.174 1526 Q502.383 1526 505.392 1529.17 Q508.424 1532.32 508.424 1537.76 Q508.424 1543.08 505.276 1546.3 Q502.128 1549.52 496.897 1549.52 Q490.901 1549.52 487.73 1544.94 Q484.559 1540.33 484.559 1531.6 Q484.559 1523.41 488.448 1518.55 Q492.336 1513.66 498.887 1513.66 Q500.647 1513.66 502.429 1514.01 Q504.234 1514.36 506.179 1515.05 Z" fill="#000000" fill-rule="nonzero" fill-opacity="1" /><path clip-path="url(#clip460)" d="M672.704 1532.02 L702.38 1532.02 L702.38 1535.95 L672.704 1535.95 L672.704 1532.02 Z" fill="#000000" fill-rule="nonzero" fill-opacity="1" /><path clip-path="url(#clip460)" d="M722.472 1517.37 Q718.861 1517.37 717.033 1520.93 Q715.227 1524.47 715.227 1531.6 Q715.227 1538.71 717.033 1542.27 Q718.861 1545.82 722.472 1545.82 Q726.107 1545.82 727.912 1542.27 Q729.741 1538.71 729.741 1531.6 Q729.741 1524.47 727.912 1520.93 Q726.107 1517.37 722.472 1517.37 M722.472 1513.66 Q728.283 1513.66 731.338 1518.27 Q734.417 1522.85 734.417 1531.6 Q734.417 1540.33 731.338 1544.94 Q728.283 1549.52 722.472 1549.52 Q716.662 1549.52 713.584 1544.94 Q710.528 1540.33 710.528 1531.6 Q710.528 1522.85 713.584 1518.27 Q716.662 1513.66 722.472 1513.66 Z" fill="#000000" fill-rule="nonzero" fill-opacity="1" /><path clip-path="url(#clip460)" d="M742.634 1542.97 L747.519 1542.97 L747.519 1548.85 L742.634 1548.85 L742.634 1542.97 Z" fill="#000000" fill-rule="nonzero" fill-opacity="1" /><path clip-path="url(#clip460)" d="M770.551 1518.36 L758.745 1536.81 L770.551 1536.81 L770.551 1518.36 M769.324 1514.29 L775.204 1514.29 L775.204 1536.81 L780.134 1536.81 L780.134 1540.7 L775.204 1540.7 L775.204 1548.85 L770.551 1548.85 L770.551 1540.7 L754.949 1540.7 L754.949 1536.19 L769.324 1514.29 Z" fill="#000000" fill-rule="nonzero" fill-opacity="1" /><path clip-path="url(#clip460)" d="M945.294 1532.02 L974.97 1532.02 L974.97 1535.95 L945.294 1535.95 L945.294 1532.02 Z" fill="#000000" fill-rule="nonzero" fill-opacity="1" /><path clip-path="url(#clip460)" d="M995.062 1517.37 Q991.451 1517.37 989.622 1520.93 Q987.817 1524.47 987.817 1531.6 Q987.817 1538.71 989.622 1542.27 Q991.451 1545.82 995.062 1545.82 Q998.696 1545.82 1000.5 1542.27 Q1002.33 1538.71 1002.33 1531.6 Q1002.33 1524.47 1000.5 1520.93 Q998.696 1517.37 995.062 1517.37 M995.062 1513.66 Q1000.87 1513.66 1003.93 1518.27 Q1007.01 1522.85 1007.01 1531.6 Q1007.01 1540.33 1003.93 1544.94 Q1000.87 1549.52 995.062 1549.52 Q989.252 1549.52 986.173 1544.94 Q983.118 1540.33 983.118 1531.6 Q983.118 1522.85 986.173 1518.27 Q989.252 1513.66 995.062 1513.66 Z" fill="#000000" fill-rule="nonzero" fill-opacity="1" /><path clip-path="url(#clip460)" d="M1015.22 1542.97 L1020.11 1542.97 L1020.11 1548.85 L1015.22 1548.85 L1015.22 1542.97 Z" fill="#000000" fill-rule="nonzero" fill-opacity="1" /><path clip-path="url(#clip460)" d="M1034.32 1544.91 L1050.64 1544.91 L1050.64 1548.85 L1028.7 1548.85 L1028.7 1544.91 Q1031.36 1542.16 1035.94 1537.53 Q1040.55 1532.88 1041.73 1531.53 Q1043.97 1529.01 1044.85 1527.27 Q1045.76 1525.51 1045.76 1523.82 Q1045.76 1521.07 1043.81 1519.33 Q1041.89 1517.6 1038.79 1517.6 Q1036.59 1517.6 1034.14 1518.36 Q1031.71 1519.13 1028.93 1520.68 L1028.93 1515.95 Q1031.75 1514.82 1034.21 1514.24 Q1036.66 1513.66 1038.7 1513.66 Q1044.07 1513.66 1047.26 1516.35 Q1050.46 1519.03 1050.46 1523.52 Q1050.46 1525.65 1049.65 1527.57 Q1048.86 1529.47 1046.75 1532.07 Q1046.17 1532.74 1043.07 1535.95 Q1039.97 1539.15 1034.32 1544.91 Z" fill="#000000" fill-rule="nonzero" fill-opacity="1" /><path clip-path="url(#clip460)" d="M1246.9 1517.37 Q1243.29 1517.37 1241.46 1520.93 Q1239.65 1524.47 1239.65 1531.6 Q1239.65 1538.71 1241.46 1542.27 Q1243.29 1545.82 1246.9 1545.82 Q1250.53 1545.82 1252.34 1542.27 Q1254.17 1538.71 1254.17 1531.6 Q1254.17 1524.47 1252.34 1520.93 Q1250.53 1517.37 1246.9 1517.37 M1246.9 1513.66 Q1252.71 1513.66 1255.77 1518.27 Q1258.84 1522.85 1258.84 1531.6 Q1258.84 1540.33 1255.77 1544.94 Q1252.71 1549.52 1246.9 1549.52 Q1241.09 1549.52 1238.01 1544.94 Q1234.95 1540.33 1234.95 1531.6 Q1234.95 1522.85 1238.01 1518.27 Q1241.09 1513.66 1246.9 1513.66 Z" fill="#000000" fill-rule="nonzero" fill-opacity="1" /><path clip-path="url(#clip460)" d="M1267.06 1542.97 L1271.95 1542.97 L1271.95 1548.85 L1267.06 1548.85 L1267.06 1542.97 Z" fill="#000000" fill-rule="nonzero" fill-opacity="1" /><path clip-path="url(#clip460)" d="M1292.13 1517.37 Q1288.52 1517.37 1286.69 1520.93 Q1284.89 1524.47 1284.89 1531.6 Q1284.89 1538.71 1286.69 1542.27 Q1288.52 1545.82 1292.13 1545.82 Q1295.76 1545.82 1297.57 1542.27 Q1299.4 1538.71 1299.4 1531.6 Q1299.4 1524.47 1297.57 1520.93 Q1295.76 1517.37 1292.13 1517.37 M1292.13 1513.66 Q1297.94 1513.66 1301 1518.27 Q1304.07 1522.85 1304.07 1531.6 Q1304.07 1540.33 1301 1544.94 Q1297.94 1549.52 1292.13 1549.52 Q1286.32 1549.52 1283.24 1544.94 Q1280.19 1540.33 1280.19 1531.6 Q1280.19 1522.85 1283.24 1518.27 Q1286.32 1513.66 1292.13 1513.66 Z" fill="#000000" fill-rule="nonzero" fill-opacity="1" /><path clip-path="url(#clip460)" d="M1519.25 1517.37 Q1515.63 1517.37 1513.81 1520.93 Q1512 1524.47 1512 1531.6 Q1512 1538.71 1513.81 1542.27 Q1515.63 1545.82 1519.25 1545.82 Q1522.88 1545.82 1524.69 1542.27 Q1526.51 1538.71 1526.51 1531.6 Q1526.51 1524.47 1524.69 1520.93 Q1522.88 1517.37 1519.25 1517.37 M1519.25 1513.66 Q1525.06 1513.66 1528.11 1518.27 Q1531.19 1522.85 1531.19 1531.6 Q1531.19 1540.33 1528.11 1544.94 Q1525.06 1549.52 1519.25 1549.52 Q1513.44 1549.52 1510.36 1544.94 Q1507.3 1540.33 1507.3 1531.6 Q1507.3 1522.85 1510.36 1518.27 Q1513.44 1513.66 1519.25 1513.66 Z" fill="#000000" fill-rule="nonzero" fill-opacity="1" /><path clip-path="url(#clip460)" d="M1539.41 1542.97 L1544.29 1542.97 L1544.29 1548.85 L1539.41 1548.85 L1539.41 1542.97 Z" fill="#000000" fill-rule="nonzero" fill-opacity="1" /><path clip-path="url(#clip460)" d="M1558.5 1544.91 L1574.82 1544.91 L1574.82 1548.85 L1552.88 1548.85 L1552.88 1544.91 Q1555.54 1542.16 1560.13 1537.53 Q1564.73 1532.88 1565.91 1531.53 Q1568.16 1529.01 1569.04 1527.27 Q1569.94 1525.51 1569.94 1523.82 Q1569.94 1521.07 1568 1519.33 Q1566.07 1517.6 1562.97 1517.6 Q1560.77 1517.6 1558.32 1518.36 Q1555.89 1519.13 1553.11 1520.68 L1553.11 1515.95 Q1555.94 1514.82 1558.39 1514.24 Q1560.84 1513.66 1562.88 1513.66 Q1568.25 1513.66 1571.44 1516.35 Q1574.64 1519.03 1574.64 1523.52 Q1574.64 1525.65 1573.83 1527.57 Q1573.04 1529.47 1570.94 1532.07 Q1570.36 1532.74 1567.25 1535.95 Q1564.15 1539.15 1558.5 1544.91 Z" fill="#000000" fill-rule="nonzero" fill-opacity="1" /><path clip-path="url(#clip460)" d="M1789.75 1517.37 Q1786.14 1517.37 1784.31 1520.93 Q1782.51 1524.47 1782.51 1531.6 Q1782.51 1538.71 1784.31 1542.27 Q1786.14 1545.82 1789.75 1545.82 Q1793.39 1545.82 1795.19 1542.27 Q1797.02 1538.71 1797.02 1531.6 Q1797.02 1524.47 1795.19 1520.93 Q1793.39 1517.37 1789.75 1517.37 M1789.75 1513.66 Q1795.56 1513.66 1798.62 1518.27 Q1801.7 1522.85 1801.7 1531.6 Q1801.7 1540.33 1798.62 1544.94 Q1795.56 1549.52 1789.75 1549.52 Q1783.94 1549.52 1780.86 1544.94 Q1777.81 1540.33 1777.81 1531.6 Q1777.81 1522.85 1780.86 1518.27 Q1783.94 1513.66 1789.75 1513.66 Z" fill="#000000" fill-rule="nonzero" fill-opacity="1" /><path clip-path="url(#clip460)" d="M1809.91 1542.97 L1814.8 1542.97 L1814.8 1548.85 L1809.91 1548.85 L1809.91 1542.97 Z" fill="#000000" fill-rule="nonzero" fill-opacity="1" /><path clip-path="url(#clip460)" d="M1837.83 1518.36 L1826.02 1536.81 L1837.83 1536.81 L1837.83 1518.36 M1836.6 1514.29 L1842.48 1514.29 L1842.48 1536.81 L1847.41 1536.81 L1847.41 1540.7 L1842.48 1540.7 L1842.48 1548.85 L1837.83 1548.85 L1837.83 1540.7 L1822.23 1540.7 L1822.23 1536.19 L1836.6 1514.29 Z" fill="#000000" fill-rule="nonzero" fill-opacity="1" /><path clip-path="url(#clip460)" d="M2061.46 1517.37 Q2057.85 1517.37 2056.02 1520.93 Q2054.22 1524.47 2054.22 1531.6 Q2054.22 1538.71 2056.02 1542.27 Q2057.85 1545.82 2061.46 1545.82 Q2065.1 1545.82 2066.9 1542.27 Q2068.73 1538.71 2068.73 1531.6 Q2068.73 1524.47 2066.9 1520.93 Q2065.1 1517.37 2061.46 1517.37 M2061.46 1513.66 Q2067.27 1513.66 2070.33 1518.27 Q2073.41 1522.85 2073.41 1531.6 Q2073.41 1540.33 2070.33 1544.94 Q2067.27 1549.52 2061.46 1549.52 Q2055.65 1549.52 2052.57 1544.94 Q2049.52 1540.33 2049.52 1531.6 Q2049.52 1522.85 2052.57 1518.27 Q2055.65 1513.66 2061.46 1513.66 Z" fill="#000000" fill-rule="nonzero" fill-opacity="1" /><path clip-path="url(#clip460)" d="M2081.62 1542.97 L2086.51 1542.97 L2086.51 1548.85 L2081.62 1548.85 L2081.62 1542.97 Z" fill="#000000" fill-rule="nonzero" fill-opacity="1" /><path clip-path="url(#clip460)" d="M2107.27 1529.7 Q2104.12 1529.7 2102.27 1531.86 Q2100.44 1534.01 2100.44 1537.76 Q2100.44 1541.49 2102.27 1543.66 Q2104.12 1545.82 2107.27 1545.82 Q2110.42 1545.82 2112.25 1543.66 Q2114.1 1541.49 2114.1 1537.76 Q2114.1 1534.01 2112.25 1531.86 Q2110.42 1529.7 2107.27 1529.7 M2116.55 1515.05 L2116.55 1519.31 Q2114.8 1518.48 2112.99 1518.04 Q2111.21 1517.6 2109.45 1517.6 Q2104.82 1517.6 2102.36 1520.72 Q2099.93 1523.85 2099.59 1530.17 Q2100.95 1528.15 2103.01 1527.09 Q2105.07 1526 2107.55 1526 Q2112.76 1526 2115.77 1529.17 Q2118.8 1532.32 2118.8 1537.76 Q2118.8 1543.08 2115.65 1546.3 Q2112.5 1549.52 2107.27 1549.52 Q2101.28 1549.52 2098.11 1544.94 Q2094.93 1540.33 2094.93 1531.6 Q2094.93 1523.41 2098.82 1518.55 Q2102.71 1513.66 2109.26 1513.66 Q2111.02 1513.66 2112.8 1514.01 Q2114.61 1514.36 2116.55 1515.05 Z" fill="#000000" fill-rule="nonzero" fill-opacity="1" /><polyline clip-path="url(#clip460)" style="stroke:#000000; stroke-linecap:round; stroke-linejoin:round; stroke-width:4; stroke-opacity:1; fill:none" points="186.274,1486.45 186.274,47.2441 "/>
<polyline clip-path="url(#clip460)" style="stroke:#000000; stroke-linecap:round; stroke-linejoin:round; stroke-width:4; stroke-opacity:1; fill:none" points="186.274,1445.72 205.172,1445.72 "/>
<polyline clip-path="url(#clip460)" style="stroke:#000000; stroke-linecap:round; stroke-linejoin:round; stroke-width:4; stroke-opacity:1; fill:none" points="186.274,1106.28 205.172,1106.28 "/>
<polyline clip-path="url(#clip460)" style="stroke:#000000; stroke-linecap:round; stroke-linejoin:round; stroke-width:4; stroke-opacity:1; fill:none" points="186.274,766.846 205.172,766.846 "/>
<polyline clip-path="url(#clip460)" style="stroke:#000000; stroke-linecap:round; stroke-linejoin:round; stroke-width:4; stroke-opacity:1; fill:none" points="186.274,427.411 205.172,427.411 "/>
<polyline clip-path="url(#clip460)" style="stroke:#000000; stroke-linecap:round; stroke-linejoin:round; stroke-width:4; stroke-opacity:1; fill:none" points="186.274,87.9763 205.172,87.9763 "/>
<path clip-path="url(#clip460)" d="M62.9365 1431.51 Q59.3254 1431.51 57.4967 1435.08 Q55.6912 1438.62 55.6912 1445.75 Q55.6912 1452.86 57.4967 1456.42 Q59.3254 1459.96 62.9365 1459.96 Q66.5707 1459.96 68.3763 1456.42 Q70.205 1452.86 70.205 1445.75 Q70.205 1438.62 68.3763 1435.08 Q66.5707 1431.51 62.9365 1431.51 M62.9365 1427.81 Q68.7467 1427.81 71.8022 1432.42 Q74.8809 1437 74.8809 1445.75 Q74.8809 1454.48 71.8022 1459.08 Q68.7467 1463.67 62.9365 1463.67 Q57.1264 1463.67 54.0477 1459.08 Q50.9921 1454.48 50.9921 1445.75 Q50.9921 1437 54.0477 1432.42 Q57.1264 1427.81 62.9365 1427.81 Z" fill="#000000" fill-rule="nonzero" fill-opacity="1" /><path clip-path="url(#clip460)" d="M83.0984 1457.12 L87.9827 1457.12 L87.9827 1463 L83.0984 1463 L83.0984 1457.12 Z" fill="#000000" fill-rule="nonzero" fill-opacity="1" /><path clip-path="url(#clip460)" d="M108.168 1431.51 Q104.557 1431.51 102.728 1435.08 Q100.922 1438.62 100.922 1445.75 Q100.922 1452.86 102.728 1456.42 Q104.557 1459.96 108.168 1459.96 Q111.802 1459.96 113.608 1456.42 Q115.436 1452.86 115.436 1445.75 Q115.436 1438.62 113.608 1435.08 Q111.802 1431.51 108.168 1431.51 M108.168 1427.81 Q113.978 1427.81 117.033 1432.42 Q120.112 1437 120.112 1445.75 Q120.112 1454.48 117.033 1459.08 Q113.978 1463.67 108.168 1463.67 Q102.358 1463.67 99.2789 1459.08 Q96.2234 1454.48 96.2234 1445.75 Q96.2234 1437 99.2789 1432.42 Q102.358 1427.81 108.168 1427.81 Z" fill="#000000" fill-rule="nonzero" fill-opacity="1" /><path clip-path="url(#clip460)" d="M138.33 1431.51 Q134.719 1431.51 132.89 1435.08 Q131.084 1438.62 131.084 1445.75 Q131.084 1452.86 132.89 1456.42 Q134.719 1459.96 138.33 1459.96 Q141.964 1459.96 143.769 1456.42 Q145.598 1452.86 145.598 1445.75 Q145.598 1438.62 143.769 1435.08 Q141.964 1431.51 138.33 1431.51 M138.33 1427.81 Q144.14 1427.81 147.195 1432.42 Q150.274 1437 150.274 1445.75 Q150.274 1454.48 147.195 1459.08 Q144.14 1463.67 138.33 1463.67 Q132.519 1463.67 129.441 1459.08 Q126.385 1454.48 126.385 1445.75 Q126.385 1437 129.441 1432.42 Q132.519 1427.81 138.33 1427.81 Z" fill="#000000" fill-rule="nonzero" fill-opacity="1" /><path clip-path="url(#clip460)" d="M63.9319 1092.08 Q60.3208 1092.08 58.4921 1095.64 Q56.6865 1099.19 56.6865 1106.32 Q56.6865 1113.42 58.4921 1116.99 Q60.3208 1120.53 63.9319 1120.53 Q67.5661 1120.53 69.3717 1116.99 Q71.2004 1113.42 71.2004 1106.32 Q71.2004 1099.19 69.3717 1095.64 Q67.5661 1092.08 63.9319 1092.08 M63.9319 1088.38 Q69.742 1088.38 72.7976 1092.98 Q75.8763 1097.57 75.8763 1106.32 Q75.8763 1115.04 72.7976 1119.65 Q69.742 1124.23 63.9319 1124.23 Q58.1217 1124.23 55.043 1119.65 Q51.9875 1115.04 51.9875 1106.32 Q51.9875 1097.57 55.043 1092.98 Q58.1217 1088.38 63.9319 1088.38 Z" fill="#000000" fill-rule="nonzero" fill-opacity="1" /><path clip-path="url(#clip460)" d="M84.0938 1117.68 L88.978 1117.68 L88.978 1123.56 L84.0938 1123.56 L84.0938 1117.68 Z" fill="#000000" fill-rule="nonzero" fill-opacity="1" /><path clip-path="url(#clip460)" d="M103.191 1119.63 L119.51 1119.63 L119.51 1123.56 L97.566 1123.56 L97.566 1119.63 Q100.228 1116.87 104.811 1112.24 Q109.418 1107.59 110.598 1106.25 Q112.844 1103.72 113.723 1101.99 Q114.626 1100.23 114.626 1098.54 Q114.626 1095.78 112.682 1094.05 Q110.76 1092.31 107.658 1092.31 Q105.459 1092.31 103.006 1093.07 Q100.575 1093.84 97.7974 1095.39 L97.7974 1090.67 Q100.621 1089.53 103.075 1088.95 Q105.529 1088.38 107.566 1088.38 Q112.936 1088.38 116.131 1091.06 Q119.325 1093.75 119.325 1098.24 Q119.325 1100.37 118.515 1102.29 Q117.728 1104.19 115.621 1106.78 Q115.043 1107.45 111.941 1110.67 Q108.839 1113.86 103.191 1119.63 Z" fill="#000000" fill-rule="nonzero" fill-opacity="1" /><path clip-path="url(#clip460)" d="M129.371 1089 L147.728 1089 L147.728 1092.94 L133.654 1092.94 L133.654 1101.41 Q134.672 1101.06 135.691 1100.9 Q136.709 1100.71 137.728 1100.71 Q143.515 1100.71 146.894 1103.89 Q150.274 1107.06 150.274 1112.47 Q150.274 1118.05 146.802 1121.15 Q143.33 1124.23 137.01 1124.23 Q134.834 1124.23 132.566 1123.86 Q130.32 1123.49 127.913 1122.75 L127.913 1118.05 Q129.996 1119.19 132.219 1119.74 Q134.441 1120.3 136.918 1120.3 Q140.922 1120.3 143.26 1118.19 Q145.598 1116.08 145.598 1112.47 Q145.598 1108.86 143.26 1106.76 Q140.922 1104.65 136.918 1104.65 Q135.043 1104.65 133.168 1105.07 Q131.316 1105.48 129.371 1106.36 L129.371 1089 Z" fill="#000000" fill-rule="nonzero" fill-opacity="1" /><path clip-path="url(#clip460)" d="M62.9365 752.645 Q59.3254 752.645 57.4967 756.209 Q55.6912 759.751 55.6912 766.881 Q55.6912 773.987 57.4967 777.552 Q59.3254 781.094 62.9365 781.094 Q66.5707 781.094 68.3763 777.552 Q70.205 773.987 70.205 766.881 Q70.205 759.751 68.3763 756.209 Q66.5707 752.645 62.9365 752.645 M62.9365 748.941 Q68.7467 748.941 71.8022 753.547 Q74.8809 758.131 74.8809 766.881 Q74.8809 775.608 71.8022 780.214 Q68.7467 784.797 62.9365 784.797 Q57.1264 784.797 54.0477 780.214 Q50.9921 775.608 50.9921 766.881 Q50.9921 758.131 54.0477 753.547 Q57.1264 748.941 62.9365 748.941 Z" fill="#000000" fill-rule="nonzero" fill-opacity="1" /><path clip-path="url(#clip460)" d="M83.0984 778.246 L87.9827 778.246 L87.9827 784.126 L83.0984 784.126 L83.0984 778.246 Z" fill="#000000" fill-rule="nonzero" fill-opacity="1" /><path clip-path="url(#clip460)" d="M98.2141 749.566 L116.57 749.566 L116.57 753.501 L102.496 753.501 L102.496 761.973 Q103.515 761.626 104.534 761.464 Q105.552 761.279 106.571 761.279 Q112.358 761.279 115.737 764.45 Q119.117 767.621 119.117 773.038 Q119.117 778.617 115.645 781.719 Q112.172 784.797 105.853 784.797 Q103.677 784.797 101.409 784.427 Q99.1632 784.057 96.7558 783.316 L96.7558 778.617 Q98.8391 779.751 101.061 780.307 Q103.284 780.862 105.76 780.862 Q109.765 780.862 112.103 778.756 Q114.441 776.649 114.441 773.038 Q114.441 769.427 112.103 767.321 Q109.765 765.214 105.76 765.214 Q103.885 765.214 102.01 765.631 Q100.159 766.047 98.2141 766.927 L98.2141 749.566 Z" fill="#000000" fill-rule="nonzero" fill-opacity="1" /><path clip-path="url(#clip460)" d="M138.33 752.645 Q134.719 752.645 132.89 756.209 Q131.084 759.751 131.084 766.881 Q131.084 773.987 132.89 777.552 Q134.719 781.094 138.33 781.094 Q141.964 781.094 143.769 777.552 Q145.598 773.987 145.598 766.881 Q145.598 759.751 143.769 756.209 Q141.964 752.645 138.33 752.645 M138.33 748.941 Q144.14 748.941 147.195 753.547 Q150.274 758.131 150.274 766.881 Q150.274 775.608 147.195 780.214 Q144.14 784.797 138.33 784.797 Q132.519 784.797 129.441 780.214 Q126.385 775.608 126.385 766.881 Q126.385 758.131 129.441 753.547 Q132.519 748.941 138.33 748.941 Z" fill="#000000" fill-rule="nonzero" fill-opacity="1" /><path clip-path="url(#clip460)" d="M63.9319 413.21 Q60.3208 413.21 58.4921 416.775 Q56.6865 420.316 56.6865 427.446 Q56.6865 434.552 58.4921 438.117 Q60.3208 441.659 63.9319 441.659 Q67.5661 441.659 69.3717 438.117 Q71.2004 434.552 71.2004 427.446 Q71.2004 420.316 69.3717 416.775 Q67.5661 413.21 63.9319 413.21 M63.9319 409.506 Q69.742 409.506 72.7976 414.113 Q75.8763 418.696 75.8763 427.446 Q75.8763 436.173 72.7976 440.779 Q69.742 445.362 63.9319 445.362 Q58.1217 445.362 55.043 440.779 Q51.9875 436.173 51.9875 427.446 Q51.9875 418.696 55.043 414.113 Q58.1217 409.506 63.9319 409.506 Z" fill="#000000" fill-rule="nonzero" fill-opacity="1" /><path clip-path="url(#clip460)" d="M84.0938 438.812 L88.978 438.812 L88.978 444.691 L84.0938 444.691 L84.0938 438.812 Z" fill="#000000" fill-rule="nonzero" fill-opacity="1" /><path clip-path="url(#clip460)" d="M97.9826 410.131 L120.205 410.131 L120.205 412.122 L107.658 444.691 L102.774 444.691 L114.58 414.066 L97.9826 414.066 L97.9826 410.131 Z" fill="#000000" fill-rule="nonzero" fill-opacity="1" /><path clip-path="url(#clip460)" d="M129.371 410.131 L147.728 410.131 L147.728 414.066 L133.654 414.066 L133.654 422.538 Q134.672 422.191 135.691 422.029 Q136.709 421.844 137.728 421.844 Q143.515 421.844 146.894 425.015 Q150.274 428.187 150.274 433.603 Q150.274 439.182 146.802 442.284 Q143.33 445.362 137.01 445.362 Q134.834 445.362 132.566 444.992 Q130.32 444.622 127.913 443.881 L127.913 439.182 Q129.996 440.316 132.219 440.872 Q134.441 441.427 136.918 441.427 Q140.922 441.427 143.26 439.321 Q145.598 437.214 145.598 433.603 Q145.598 429.992 143.26 427.886 Q140.922 425.779 136.918 425.779 Q135.043 425.779 133.168 426.196 Q131.316 426.613 129.371 427.492 L129.371 410.131 Z" fill="#000000" fill-rule="nonzero" fill-opacity="1" /><path clip-path="url(#clip460)" d="M53.7467 101.321 L61.3856 101.321 L61.3856 74.9555 L53.0754 76.6222 L53.0754 72.3629 L61.3393 70.6963 L66.0152 70.6963 L66.0152 101.321 L73.654 101.321 L73.654 105.256 L53.7467 105.256 L53.7467 101.321 Z" fill="#000000" fill-rule="nonzero" fill-opacity="1" /><path clip-path="url(#clip460)" d="M83.0984 99.3767 L87.9827 99.3767 L87.9827 105.256 L83.0984 105.256 L83.0984 99.3767 Z" fill="#000000" fill-rule="nonzero" fill-opacity="1" /><path clip-path="url(#clip460)" d="M108.168 73.775 Q104.557 73.775 102.728 77.3398 Q100.922 80.8814 100.922 88.011 Q100.922 95.1174 102.728 98.6822 Q104.557 102.224 108.168 102.224 Q111.802 102.224 113.608 98.6822 Q115.436 95.1174 115.436 88.011 Q115.436 80.8814 113.608 77.3398 Q111.802 73.775 108.168 73.775 M108.168 70.0713 Q113.978 70.0713 117.033 74.6777 Q120.112 79.261 120.112 88.011 Q120.112 96.7378 117.033 101.344 Q113.978 105.928 108.168 105.928 Q102.358 105.928 99.2789 101.344 Q96.2234 96.7378 96.2234 88.011 Q96.2234 79.261 99.2789 74.6777 Q102.358 70.0713 108.168 70.0713 Z" fill="#000000" fill-rule="nonzero" fill-opacity="1" /><path clip-path="url(#clip460)" d="M138.33 73.775 Q134.719 73.775 132.89 77.3398 Q131.084 80.8814 131.084 88.011 Q131.084 95.1174 132.89 98.6822 Q134.719 102.224 138.33 102.224 Q141.964 102.224 143.769 98.6822 Q145.598 95.1174 145.598 88.011 Q145.598 80.8814 143.769 77.3398 Q141.964 73.775 138.33 73.775 M138.33 70.0713 Q144.14 70.0713 147.195 74.6777 Q150.274 79.261 150.274 88.011 Q150.274 96.7378 147.195 101.344 Q144.14 105.928 138.33 105.928 Q132.519 105.928 129.441 101.344 Q126.385 96.7378 126.385 88.011 Q126.385 79.261 129.441 74.6777 Q132.519 70.0713 138.33 70.0713 Z" fill="#000000" fill-rule="nonzero" fill-opacity="1" /><polyline clip-path="url(#clip462)" style="stroke:#97b476; stroke-linecap:round; stroke-linejoin:round; stroke-width:4; stroke-opacity:1; fill:none" points="604.223,1445.72 631.377,1445.72 658.532,1445.72 685.687,1445.72 712.842,1445.72 739.997,1445.72 767.151,1445.72 794.306,1445.72 821.461,1445.72 848.616,1445.72 875.771,1445.72 902.925,1445.72 930.08,1445.72 957.235,1445.72 984.39,1445.72 1011.54,1445.72 1038.7,1445.72 1065.85,1445.72 1093.01,1445.72 1120.16,1445.72 1147.32,1445.72 1174.47,1445.72 1201.63,1445.72 1228.78,1445.72 1255.94,1445.72 1283.09,1445.72 1310.25,1445.72 1337.4,1445.72 1364.56,1445.72 1391.71,1445.72 1418.87,1445.72 1446.02,1445.72 1473.18,1445.72 1500.33,1445.72 1527.49,1445.72 1554.64,1445.72 1581.8,1445.72 1608.95,1445.72 1636.1,1445.72 1663.26,1445.72 1690.41,1445.72 1717.57,1445.72 1744.72,1445.72 1771.88,1445.72 1799.03,1445.72 1826.19,1445.72 1853.34,1445.72 1880.5,1445.72 1907.65,1445.72 1934.81,1445.72 "/>
</svg>
