<?xml version="1.0" encoding="utf-8"?>
<svg xmlns="http://www.w3.org/2000/svg" xmlns:xlink="http://www.w3.org/1999/xlink" width="600" height="400" viewBox="0 0 2400 1600">
<defs>
  <clipPath id="clip950">
    <rect x="0" y="0" width="2400" height="1600"/>
  </clipPath>
</defs>
<path clip-path="url(#clip950)" d="M0 1600 L2400 1600 L2400 0 L0 0  Z" fill="#ffffff" fill-rule="evenodd" fill-opacity="1"/>
<defs>
  <clipPath id="clip951">
    <rect x="480" y="0" width="1681" height="1600"/>
  </clipPath>
</defs>
<path clip-path="url(#clip950)" d="M156.598 1423.18 L2352.76 1423.18 L2352.76 47.2441 L156.598 47.2441  Z" fill="#ffffff" fill-rule="evenodd" fill-opacity="1"/>
<defs>
  <clipPath id="clip952">
    <rect x="156" y="47" width="2197" height="1377"/>
  </clipPath>
</defs>
<polyline clip-path="url(#clip952)" style="stroke:#000000; stroke-linecap:round; stroke-linejoin:round; stroke-width:2; stroke-opacity:0.1; fill:none" points="218.754,1423.18 218.754,47.2441 "/>
<polyline clip-path="url(#clip952)" style="stroke:#000000; stroke-linecap:round; stroke-linejoin:round; stroke-width:2; stroke-opacity:0.1; fill:none" points="909.369,1423.18 909.369,47.2441 "/>
<polyline clip-path="url(#clip952)" style="stroke:#000000; stroke-linecap:round; stroke-linejoin:round; stroke-width:2; stroke-opacity:0.1; fill:none" points="1599.98,1423.18 1599.98,47.2441 "/>
<polyline clip-path="url(#clip952)" style="stroke:#000000; stroke-linecap:round; stroke-linejoin:round; stroke-width:2; stroke-opacity:0.1; fill:none" points="2290.6,1423.18 2290.6,47.2441 "/>
<polyline clip-path="url(#clip950)" style="stroke:#000000; stroke-linecap:round; stroke-linejoin:round; stroke-width:4; stroke-opacity:1; fill:none" points="156.598,1423.18 2352.76,1423.18 "/>
<polyline clip-path="url(#clip950)" style="stroke:#000000; stroke-linecap:round; stroke-linejoin:round; stroke-width:4; stroke-opacity:1; fill:none" points="218.754,1423.18 218.754,1404.28 "/>
<polyline clip-path="url(#clip950)" style="stroke:#000000; stroke-linecap:round; stroke-linejoin:round; stroke-width:4; stroke-opacity:1; fill:none" points="909.369,1423.18 909.369,1404.28 "/>
<polyline clip-path="url(#clip950)" style="stroke:#000000; stroke-linecap:round; stroke-linejoin:round; stroke-width:4; stroke-opacity:1; fill:none" points="1599.98,1423.18 1599.98,1404.28 "/>
<polyline clip-path="url(#clip950)" style="stroke:#000000; stroke-linecap:round; stroke-linejoin:round; stroke-width:4; stroke-opacity:1; fill:none" points="2290.6,1423.18 2290.6,1404.28 "/>
<path clip-path="url(#clip950)" d="M218.754 1454.1 Q215.143 1454.1 213.314 1457.66 Q211.508 1461.2 211.508 1468.33 Q211.508 1475.44 213.314 1479.01 Q215.143 1482.55 218.754 1482.55 Q222.388 1482.55 224.193 1479.01 Q226.022 1475.44 226.022 1468.33 Q226.022 1461.2 224.193 1457.66 Q222.388 1454.1 218.754 1454.1 M218.754 1450.39 Q224.564 1450.39 227.619 1455 Q230.698 1459.58 230.698 1468.33 Q230.698 1477.06 227.619 1481.67 Q224.564 1486.25 218.754 1486.25 Q212.943 1486.25 209.865 1481.67 Q206.809 1477.06 206.809 1468.33 Q206.809 1459.58 209.865 1455 Q212.943 1450.39 218.754 1450.39 Z" fill="#000000" fill-rule="nonzero" fill-opacity="1" /><path clip-path="url(#clip950)" d="M899.751 1481.64 L907.39 1481.64 L907.39 1455.28 L899.08 1456.95 L899.08 1452.69 L907.344 1451.02 L912.02 1451.02 L912.02 1481.64 L919.659 1481.64 L919.659 1485.58 L899.751 1485.58 L899.751 1481.64 Z" fill="#000000" fill-rule="nonzero" fill-opacity="1" /><path clip-path="url(#clip950)" d="M1594.64 1481.64 L1610.96 1481.64 L1610.96 1485.58 L1589.01 1485.58 L1589.01 1481.64 Q1591.67 1478.89 1596.26 1474.26 Q1600.86 1469.61 1602.05 1468.27 Q1604.29 1465.74 1605.17 1464.01 Q1606.07 1462.25 1606.07 1460.56 Q1606.07 1457.8 1604.13 1456.07 Q1602.21 1454.33 1599.11 1454.33 Q1596.91 1454.33 1594.45 1455.09 Q1592.02 1455.86 1589.24 1457.41 L1589.24 1452.69 Q1592.07 1451.55 1594.52 1450.97 Q1596.98 1450.39 1599.01 1450.39 Q1604.38 1450.39 1607.58 1453.08 Q1610.77 1455.77 1610.77 1460.26 Q1610.77 1462.39 1609.96 1464.31 Q1609.17 1466.2 1607.07 1468.8 Q1606.49 1469.47 1603.39 1472.69 Q1600.29 1475.88 1594.64 1481.64 Z" fill="#000000" fill-rule="nonzero" fill-opacity="1" /><path clip-path="url(#clip950)" d="M2294.85 1466.95 Q2298.2 1467.66 2300.08 1469.93 Q2301.98 1472.2 2301.98 1475.53 Q2301.98 1480.65 2298.46 1483.45 Q2294.94 1486.25 2288.46 1486.25 Q2286.28 1486.25 2283.97 1485.81 Q2281.68 1485.39 2279.22 1484.54 L2279.22 1480.02 Q2281.17 1481.16 2283.48 1481.74 Q2285.8 1482.32 2288.32 1482.32 Q2292.72 1482.32 2295.01 1480.58 Q2297.33 1478.84 2297.33 1475.53 Q2297.33 1472.48 2295.17 1470.77 Q2293.04 1469.03 2289.22 1469.03 L2285.2 1469.03 L2285.2 1465.19 L2289.41 1465.19 Q2292.86 1465.19 2294.69 1463.82 Q2296.51 1462.43 2296.51 1459.84 Q2296.51 1457.18 2294.62 1455.77 Q2292.74 1454.33 2289.22 1454.33 Q2287.3 1454.33 2285.1 1454.75 Q2282.9 1455.16 2280.26 1456.04 L2280.26 1451.88 Q2282.93 1451.14 2285.24 1450.77 Q2287.58 1450.39 2289.64 1450.39 Q2294.96 1450.39 2298.07 1452.83 Q2301.17 1455.23 2301.17 1459.35 Q2301.17 1462.22 2299.52 1464.21 Q2297.88 1466.18 2294.85 1466.95 Z" fill="#000000" fill-rule="nonzero" fill-opacity="1" /><path clip-path="url(#clip950)" d="M1253.74 1522.27 L1253.74 1532.4 L1265.8 1532.4 L1265.8 1536.95 L1253.74 1536.95 L1253.74 1556.3 Q1253.74 1560.66 1254.92 1561.9 Q1256.13 1563.14 1259.79 1563.14 L1265.8 1563.14 L1265.8 1568.04 L1259.79 1568.04 Q1253.01 1568.04 1250.43 1565.53 Q1247.85 1562.98 1247.85 1556.3 L1247.85 1536.95 L1243.55 1536.95 L1243.55 1532.4 L1247.85 1532.4 L1247.85 1522.27 L1253.74 1522.27 Z" fill="#000000" fill-rule="nonzero" fill-opacity="1" /><polyline clip-path="url(#clip952)" style="stroke:#000000; stroke-linecap:round; stroke-linejoin:round; stroke-width:2; stroke-opacity:0.1; fill:none" points="156.598,1379.9 2352.76,1379.9 "/>
<polyline clip-path="url(#clip952)" style="stroke:#000000; stroke-linecap:round; stroke-linejoin:round; stroke-width:2; stroke-opacity:0.1; fill:none" points="156.598,1167.11 2352.76,1167.11 "/>
<polyline clip-path="url(#clip952)" style="stroke:#000000; stroke-linecap:round; stroke-linejoin:round; stroke-width:2; stroke-opacity:0.1; fill:none" points="156.598,954.32 2352.76,954.32 "/>
<polyline clip-path="url(#clip952)" style="stroke:#000000; stroke-linecap:round; stroke-linejoin:round; stroke-width:2; stroke-opacity:0.1; fill:none" points="156.598,741.527 2352.76,741.527 "/>
<polyline clip-path="url(#clip952)" style="stroke:#000000; stroke-linecap:round; stroke-linejoin:round; stroke-width:2; stroke-opacity:0.1; fill:none" points="156.598,528.735 2352.76,528.735 "/>
<polyline clip-path="url(#clip952)" style="stroke:#000000; stroke-linecap:round; stroke-linejoin:round; stroke-width:2; stroke-opacity:0.1; fill:none" points="156.598,315.943 2352.76,315.943 "/>
<polyline clip-path="url(#clip952)" style="stroke:#000000; stroke-linecap:round; stroke-linejoin:round; stroke-width:2; stroke-opacity:0.1; fill:none" points="156.598,103.151 2352.76,103.151 "/>
<polyline clip-path="url(#clip950)" style="stroke:#000000; stroke-linecap:round; stroke-linejoin:round; stroke-width:4; stroke-opacity:1; fill:none" points="156.598,1423.18 156.598,47.2441 "/>
<polyline clip-path="url(#clip950)" style="stroke:#000000; stroke-linecap:round; stroke-linejoin:round; stroke-width:4; stroke-opacity:1; fill:none" points="156.598,1379.9 175.496,1379.9 "/>
<polyline clip-path="url(#clip950)" style="stroke:#000000; stroke-linecap:round; stroke-linejoin:round; stroke-width:4; stroke-opacity:1; fill:none" points="156.598,1167.11 175.496,1167.11 "/>
<polyline clip-path="url(#clip950)" style="stroke:#000000; stroke-linecap:round; stroke-linejoin:round; stroke-width:4; stroke-opacity:1; fill:none" points="156.598,954.32 175.496,954.32 "/>
<polyline clip-path="url(#clip950)" style="stroke:#000000; stroke-linecap:round; stroke-linejoin:round; stroke-width:4; stroke-opacity:1; fill:none" points="156.598,741.527 175.496,741.527 "/>
<polyline clip-path="url(#clip950)" style="stroke:#000000; stroke-linecap:round; stroke-linejoin:round; stroke-width:4; stroke-opacity:1; fill:none" points="156.598,528.735 175.496,528.735 "/>
<polyline clip-path="url(#clip950)" style="stroke:#000000; stroke-linecap:round; stroke-linejoin:round; stroke-width:4; stroke-opacity:1; fill:none" points="156.598,315.943 175.496,315.943 "/>
<polyline clip-path="url(#clip950)" style="stroke:#000000; stroke-linecap:round; stroke-linejoin:round; stroke-width:4; stroke-opacity:1; fill:none" points="156.598,103.151 175.496,103.151 "/>
<path clip-path="url(#clip950)" d="M63.4226 1365.7 Q59.8115 1365.7 57.9828 1369.27 Q56.1773 1372.81 56.1773 1379.94 Q56.1773 1387.05 57.9828 1390.61 Q59.8115 1394.15 63.4226 1394.15 Q67.0569 1394.15 68.8624 1390.61 Q70.6911 1387.05 70.6911 1379.94 Q70.6911 1372.81 68.8624 1369.27 Q67.0569 1365.7 63.4226 1365.7 M63.4226 1362 Q69.2328 1362 72.2883 1366.61 Q75.367 1371.19 75.367 1379.94 Q75.367 1388.67 72.2883 1393.27 Q69.2328 1397.86 63.4226 1397.86 Q57.6125 1397.86 54.5338 1393.27 Q51.4782 1388.67 51.4782 1379.94 Q51.4782 1371.19 54.5338 1366.61 Q57.6125 1362 63.4226 1362 Z" fill="#000000" fill-rule="nonzero" fill-opacity="1" /><path clip-path="url(#clip950)" d="M83.5845 1391.3 L88.4688 1391.3 L88.4688 1397.18 L83.5845 1397.18 L83.5845 1391.3 Z" fill="#000000" fill-rule="nonzero" fill-opacity="1" /><path clip-path="url(#clip950)" d="M108.654 1365.7 Q105.043 1365.7 103.214 1369.27 Q101.409 1372.81 101.409 1379.94 Q101.409 1387.05 103.214 1390.61 Q105.043 1394.15 108.654 1394.15 Q112.288 1394.15 114.094 1390.61 Q115.922 1387.05 115.922 1379.94 Q115.922 1372.81 114.094 1369.27 Q112.288 1365.7 108.654 1365.7 M108.654 1362 Q114.464 1362 117.52 1366.61 Q120.598 1371.19 120.598 1379.94 Q120.598 1388.67 117.52 1393.27 Q114.464 1397.86 108.654 1397.86 Q102.844 1397.86 99.765 1393.27 Q96.7095 1388.67 96.7095 1379.94 Q96.7095 1371.19 99.765 1366.61 Q102.844 1362 108.654 1362 Z" fill="#000000" fill-rule="nonzero" fill-opacity="1" /><path clip-path="url(#clip950)" d="M64.6495 1152.91 Q61.0384 1152.91 59.2097 1156.48 Q57.4041 1160.02 57.4041 1167.15 Q57.4041 1174.25 59.2097 1177.82 Q61.0384 1181.36 64.6495 1181.36 Q68.2837 1181.36 70.0892 1177.82 Q71.9179 1174.25 71.9179 1167.15 Q71.9179 1160.02 70.0892 1156.48 Q68.2837 1152.91 64.6495 1152.91 M64.6495 1149.21 Q70.4596 1149.21 73.5152 1153.81 Q76.5938 1158.4 76.5938 1167.15 Q76.5938 1175.87 73.5152 1180.48 Q70.4596 1185.06 64.6495 1185.06 Q58.8393 1185.06 55.7606 1180.48 Q52.7051 1175.87 52.7051 1167.15 Q52.7051 1158.4 55.7606 1153.81 Q58.8393 1149.21 64.6495 1149.21 Z" fill="#000000" fill-rule="nonzero" fill-opacity="1" /><path clip-path="url(#clip950)" d="M84.8114 1178.51 L89.6956 1178.51 L89.6956 1184.39 L84.8114 1184.39 L84.8114 1178.51 Z" fill="#000000" fill-rule="nonzero" fill-opacity="1" /><path clip-path="url(#clip950)" d="M100.691 1180.46 L108.33 1180.46 L108.33 1154.09 L100.02 1155.76 L100.02 1151.5 L108.283 1149.83 L112.959 1149.83 L112.959 1180.46 L120.598 1180.46 L120.598 1184.39 L100.691 1184.39 L100.691 1180.46 Z" fill="#000000" fill-rule="nonzero" fill-opacity="1" /><path clip-path="url(#clip950)" d="M65.0198 940.118 Q61.4087 940.118 59.58 943.683 Q57.7745 947.225 57.7745 954.354 Q57.7745 961.461 59.58 965.026 Q61.4087 968.567 65.0198 968.567 Q68.6541 968.567 70.4596 965.026 Q72.2883 961.461 72.2883 954.354 Q72.2883 947.225 70.4596 943.683 Q68.6541 940.118 65.0198 940.118 M65.0198 936.415 Q70.83 936.415 73.8855 941.021 Q76.9642 945.604 76.9642 954.354 Q76.9642 963.081 73.8855 967.688 Q70.83 972.271 65.0198 972.271 Q59.2097 972.271 56.131 967.688 Q53.0754 963.081 53.0754 954.354 Q53.0754 945.604 56.131 941.021 Q59.2097 936.415 65.0198 936.415 Z" fill="#000000" fill-rule="nonzero" fill-opacity="1" /><path clip-path="url(#clip950)" d="M85.1818 965.72 L90.066 965.72 L90.066 971.6 L85.1818 971.6 L85.1818 965.72 Z" fill="#000000" fill-rule="nonzero" fill-opacity="1" /><path clip-path="url(#clip950)" d="M104.279 967.664 L120.598 967.664 L120.598 971.6 L98.6539 971.6 L98.6539 967.664 Q101.316 964.91 105.899 960.28 Q110.506 955.628 111.686 954.285 Q113.932 951.762 114.811 950.026 Q115.714 948.266 115.714 946.577 Q115.714 943.822 113.77 942.086 Q111.848 940.35 108.746 940.35 Q106.547 940.35 104.094 941.114 Q101.663 941.878 98.8854 943.429 L98.8854 938.706 Q101.709 937.572 104.163 936.993 Q106.617 936.415 108.654 936.415 Q114.024 936.415 117.219 939.1 Q120.413 941.785 120.413 946.276 Q120.413 948.405 119.603 950.327 Q118.816 952.225 116.709 954.817 Q116.131 955.489 113.029 958.706 Q109.927 961.901 104.279 967.664 Z" fill="#000000" fill-rule="nonzero" fill-opacity="1" /><path clip-path="url(#clip950)" d="M64.0708 727.326 Q60.4597 727.326 58.631 730.891 Q56.8254 734.433 56.8254 741.562 Q56.8254 748.669 58.631 752.233 Q60.4597 755.775 64.0708 755.775 Q67.705 755.775 69.5105 752.233 Q71.3392 748.669 71.3392 741.562 Q71.3392 734.433 69.5105 730.891 Q67.705 727.326 64.0708 727.326 M64.0708 723.622 Q69.8809 723.622 72.9365 728.229 Q76.0151 732.812 76.0151 741.562 Q76.0151 750.289 72.9365 754.895 Q69.8809 759.479 64.0708 759.479 Q58.2606 759.479 55.1819 754.895 Q52.1264 750.289 52.1264 741.562 Q52.1264 732.812 55.1819 728.229 Q58.2606 723.622 64.0708 723.622 Z" fill="#000000" fill-rule="nonzero" fill-opacity="1" /><path clip-path="url(#clip950)" d="M84.2327 752.928 L89.1169 752.928 L89.1169 758.807 L84.2327 758.807 L84.2327 752.928 Z" fill="#000000" fill-rule="nonzero" fill-opacity="1" /><path clip-path="url(#clip950)" d="M113.469 740.173 Q116.825 740.891 118.7 743.159 Q120.598 745.428 120.598 748.761 Q120.598 753.877 117.08 756.678 Q113.561 759.479 107.08 759.479 Q104.904 759.479 102.589 759.039 Q100.297 758.622 97.8437 757.766 L97.8437 753.252 Q99.7882 754.386 102.103 754.965 Q104.418 755.544 106.941 755.544 Q111.339 755.544 113.631 753.807 Q115.945 752.071 115.945 748.761 Q115.945 745.706 113.793 743.993 Q111.663 742.257 107.844 742.257 L103.816 742.257 L103.816 738.414 L108.029 738.414 Q111.478 738.414 113.307 737.048 Q115.135 735.659 115.135 733.067 Q115.135 730.405 113.237 728.993 Q111.362 727.558 107.844 727.558 Q105.922 727.558 103.723 727.974 Q101.524 728.391 98.8854 729.271 L98.8854 725.104 Q101.547 724.363 103.862 723.993 Q106.2 723.622 108.26 723.622 Q113.584 723.622 116.686 726.053 Q119.788 728.46 119.788 732.581 Q119.788 735.451 118.145 737.442 Q116.501 739.409 113.469 740.173 Z" fill="#000000" fill-rule="nonzero" fill-opacity="1" /><path clip-path="url(#clip950)" d="M62.9365 514.534 Q59.3254 514.534 57.4967 518.099 Q55.6912 521.64 55.6912 528.77 Q55.6912 535.876 57.4967 539.441 Q59.3254 542.983 62.9365 542.983 Q66.5707 542.983 68.3763 539.441 Q70.205 535.876 70.205 528.77 Q70.205 521.64 68.3763 518.099 Q66.5707 514.534 62.9365 514.534 M62.9365 510.83 Q68.7467 510.83 71.8022 515.437 Q74.8809 520.02 74.8809 528.77 Q74.8809 537.497 71.8022 542.103 Q68.7467 546.687 62.9365 546.687 Q57.1264 546.687 54.0477 542.103 Q50.9921 537.497 50.9921 528.77 Q50.9921 520.02 54.0477 515.437 Q57.1264 510.83 62.9365 510.83 Z" fill="#000000" fill-rule="nonzero" fill-opacity="1" /><path clip-path="url(#clip950)" d="M83.0984 540.136 L87.9827 540.136 L87.9827 546.015 L83.0984 546.015 L83.0984 540.136 Z" fill="#000000" fill-rule="nonzero" fill-opacity="1" /><path clip-path="url(#clip950)" d="M111.015 515.529 L99.2095 533.978 L111.015 533.978 L111.015 515.529 M109.788 511.455 L115.668 511.455 L115.668 533.978 L120.598 533.978 L120.598 537.867 L115.668 537.867 L115.668 546.015 L111.015 546.015 L111.015 537.867 L95.4132 537.867 L95.4132 533.353 L109.788 511.455 Z" fill="#000000" fill-rule="nonzero" fill-opacity="1" /><path clip-path="url(#clip950)" d="M64.418 301.742 Q60.8069 301.742 58.9782 305.307 Q57.1726 308.848 57.1726 315.978 Q57.1726 323.084 58.9782 326.649 Q60.8069 330.191 64.418 330.191 Q68.0522 330.191 69.8578 326.649 Q71.6865 323.084 71.6865 315.978 Q71.6865 308.848 69.8578 305.307 Q68.0522 301.742 64.418 301.742 M64.418 298.038 Q70.2281 298.038 73.2837 302.644 Q76.3624 307.228 76.3624 315.978 Q76.3624 324.705 73.2837 329.311 Q70.2281 333.894 64.418 333.894 Q58.6078 333.894 55.5291 329.311 Q52.4736 324.705 52.4736 315.978 Q52.4736 307.228 55.5291 302.644 Q58.6078 298.038 64.418 298.038 Z" fill="#000000" fill-rule="nonzero" fill-opacity="1" /><path clip-path="url(#clip950)" d="M84.5799 327.343 L89.4641 327.343 L89.4641 333.223 L84.5799 333.223 L84.5799 327.343 Z" fill="#000000" fill-rule="nonzero" fill-opacity="1" /><path clip-path="url(#clip950)" d="M99.6956 298.663 L118.052 298.663 L118.052 302.598 L103.978 302.598 L103.978 311.07 Q104.996 310.723 106.015 310.561 Q107.033 310.376 108.052 310.376 Q113.839 310.376 117.219 313.547 Q120.598 316.718 120.598 322.135 Q120.598 327.714 117.126 330.816 Q113.654 333.894 107.334 333.894 Q105.159 333.894 102.89 333.524 Q100.645 333.154 98.2372 332.413 L98.2372 327.714 Q100.321 328.848 102.543 329.404 Q104.765 329.959 107.242 329.959 Q111.246 329.959 113.584 327.853 Q115.922 325.746 115.922 322.135 Q115.922 318.524 113.584 316.418 Q111.246 314.311 107.242 314.311 Q105.367 314.311 103.492 314.728 Q101.64 315.144 99.6956 316.024 L99.6956 298.663 Z" fill="#000000" fill-rule="nonzero" fill-opacity="1" /><path clip-path="url(#clip950)" d="M63.2606 88.9495 Q59.6495 88.9495 57.8208 92.5143 Q56.0152 96.056 56.0152 103.186 Q56.0152 110.292 57.8208 113.857 Q59.6495 117.398 63.2606 117.398 Q66.8948 117.398 68.7004 113.857 Q70.5291 110.292 70.5291 103.186 Q70.5291 96.056 68.7004 92.5143 Q66.8948 88.9495 63.2606 88.9495 M63.2606 85.2458 Q69.0707 85.2458 72.1263 89.8523 Q75.205 94.4356 75.205 103.186 Q75.205 111.912 72.1263 116.519 Q69.0707 121.102 63.2606 121.102 Q57.4504 121.102 54.3717 116.519 Q51.3162 111.912 51.3162 103.186 Q51.3162 94.4356 54.3717 89.8523 Q57.4504 85.2458 63.2606 85.2458 Z" fill="#000000" fill-rule="nonzero" fill-opacity="1" /><path clip-path="url(#clip950)" d="M83.4225 114.551 L88.3067 114.551 L88.3067 120.431 L83.4225 120.431 L83.4225 114.551 Z" fill="#000000" fill-rule="nonzero" fill-opacity="1" /><path clip-path="url(#clip950)" d="M109.071 101.287 Q105.922 101.287 104.071 103.44 Q102.242 105.593 102.242 109.343 Q102.242 113.07 104.071 115.246 Q105.922 117.398 109.071 117.398 Q112.219 117.398 114.047 115.246 Q115.899 113.07 115.899 109.343 Q115.899 105.593 114.047 103.44 Q112.219 101.287 109.071 101.287 M118.353 86.6347 L118.353 90.8939 Q116.594 90.0606 114.788 89.6208 Q113.006 89.181 111.246 89.181 Q106.617 89.181 104.163 92.306 Q101.733 95.431 101.385 101.75 Q102.751 99.7365 104.811 98.6717 Q106.871 97.5837 109.348 97.5837 Q114.557 97.5837 117.566 100.755 Q120.598 103.903 120.598 109.343 Q120.598 114.667 117.45 117.885 Q114.302 121.102 109.071 121.102 Q103.075 121.102 99.9039 116.519 Q96.7326 111.912 96.7326 103.186 Q96.7326 94.9911 100.621 90.1301 Q104.51 85.2458 111.061 85.2458 Q112.82 85.2458 114.603 85.593 Q116.408 85.9403 118.353 86.6347 Z" fill="#000000" fill-rule="nonzero" fill-opacity="1" /><polyline clip-path="url(#clip952)" style="stroke:#009af9; stroke-linecap:round; stroke-linejoin:round; stroke-width:4; stroke-opacity:1; fill:none" points="218.754,1379.9 225.66,1379.95 232.566,1379.81 239.472,1379.36 246.378,1378.98 253.284,1378.69 260.191,1378.35 267.097,1377.5 274.003,1376.79 280.909,1376.16 287.815,1375.82 294.721,1375.23 301.628,1374.15 308.534,1373.05 315.44,1372.08 322.346,1371.29 329.252,1370.55 336.158,1369.76 343.064,1369.16 349.971,1368.62 356.877,1368.13 363.783,1367.81 370.689,1367.29 377.595,1366.73 384.501,1365.93 391.408,1365.26 398.314,1364.19 405.22,1363.43 412.126,1362.4 419.032,1361.25 425.938,1360.25 432.844,1359.36 439.751,1358.84 446.657,1358.25 453.563,1357.49 460.469,1356.81 467.375,1355.71 474.281,1354.11 481.188,1352.41 488.094,1350.9 495,1349.39 501.906,1347.88 508.812,1345.87 515.718,1343.94 522.625,1342.22 529.531,1340.82 536.437,1339.08 543.343,1337.16 550.249,1335.06 557.155,1332.85 564.061,1330.43 570.968,1328.17 577.874,1325.97 584.78,1323.96 591.686,1321.8 598.592,1319.67 605.498,1317.63 612.405,1315.77 619.311,1314.18 626.217,1312.51 633.123,1311.04 640.029,1309.47 646.935,1307.6 653.841,1305.47 660.748,1303.35 667.654,1300.82 674.56,1298.14 681.466,1295.42 688.372,1292.4 695.278,1289.27 702.185,1286.27 709.091,1283.3 715.997,1280.37 722.903,1277.62 729.809,1274.89 736.715,1272.1 743.622,1269.5 750.528,1267.28 757.434,1264.93 764.34,1262.57 771.246,1260.22 778.152,1257.53 785.058,1254.64 791.965,1251.12 798.871,1247.58 805.777,1244 812.683,1240.53 819.589,1236.77 826.495,1233.01 833.402,1229.24 840.308,1225.59 847.214,1222.18 854.12,1218.55 861.026,1214.9 867.932,1211.06 874.838,1207.11 881.745,1202.97 888.651,1198.86 895.557,1194.75 902.463,1190.45 909.369,1186.38 916.275,1182.19 923.182,1177.95 930.088,1173.94 936.994,1169.79 943.9,1166.13 950.806,1162.13 957.712,1158.47 964.619,1154.35 971.525,1150.17 978.431,1146.08 985.337,1141.97 992.243,1137.99 999.149,1134.07 1006.06,1129.93 1012.96,1125.95 1019.87,1122.08 1026.77,1117.74 1033.68,1113.68 1040.59,1109.51 1047.49,1105.2 1054.4,1101.05 1061.3,1096.92 1068.21,1092.54 1075.12,1088.02 1082.02,1083.86 1088.93,1079.35 1095.84,1074.81 1102.74,1070.41 1109.65,1065.71 1116.55,1060.68 1123.46,1055.77 1130.37,1050.55 1137.27,1045.31 1144.18,1040.05 1151.08,1034.43 1157.99,1029.1 1164.9,1023.85 1171.8,1018.32 1178.71,1013.2 1185.62,1008.38 1192.52,1003.59 1199.43,998.449 1206.33,993.466 1213.24,988.113 1220.15,982.728 1227.05,977.452 1233.96,972.062 1240.86,966.826 1247.77,961.539 1254.68,956.278 1261.58,950.988 1268.49,945.604 1275.4,940.071 1282.3,934.201 1289.21,928.314 1296.11,922.74 1303.02,916.989 1309.93,911.402 1316.83,905.84 1323.74,900.181 1330.64,894.445 1337.55,888.886 1344.46,882.833 1351.36,876.774 1358.27,870.876 1365.18,864.511 1372.08,858.543 1378.99,852.358 1385.89,846.36 1392.8,840.247 1399.71,833.815 1406.61,827.468 1413.52,821.288 1420.42,815.06 1427.33,808.81 1434.24,802.621 1441.14,796.346 1448.05,789.928 1454.96,783.366 1461.86,776.816 1468.77,770.128 1475.67,763.214 1482.58,756.669 1489.49,750.353 1496.39,744.128 1503.3,738.165 1510.2,732.184 1517.11,726.348 1524.02,720.144 1530.92,714.265 1537.83,708.469 1544.74,702.784 1551.64,697.124 1558.55,691.261 1565.45,685.715 1572.36,680.256 1579.27,674.903 1586.17,669.376 1593.08,663.627 1599.98,657.748 1606.89,652.017 1613.8,646.086 1620.7,640.013 1627.61,633.835 1634.52,627.773 1641.42,621.781 1648.33,615.866 1655.23,610.006 1662.14,604.468 1669.05,598.953 1675.95,593.312 1682.86,587.588 1689.76,582.041 1696.67,576.899 1703.58,571.754 1710.48,566.799 1717.39,561.763 1724.3,557.009 1731.2,552.451 1738.11,547.957 1745.01,543.502 1751.92,538.905 1758.83,534.382 1765.73,529.56 1772.64,524.756 1779.54,519.986 1786.45,515.165 1793.36,510.278 1800.26,505.449 1807.17,500.428 1814.08,495.555 1820.98,490.786 1827.89,485.816 1834.79,480.458 1841.7,474.836 1848.61,469.173 1855.51,463.58 1862.42,457.874 1869.32,452.305 1876.23,446.825 1883.14,441.325 1890.04,435.793 1896.95,430.304 1903.86,424.831 1910.76,419.566 1917.67,414.052 1924.57,408.314 1931.48,402.289 1938.39,396.259 1945.29,390.138 1952.2,384.437 1959.11,378.614 1966.01,372.568 1972.92,366.158 1979.82,360.031 1986.73,354.125 1993.64,348.144 2000.54,341.955 2007.45,336.169 2014.35,330.84 2021.26,325.792 2028.17,320.473 2035.07,315.158 2041.98,310.085 2048.89,304.648 2055.79,298.969 2062.7,293.23 2069.6,287.187 2076.51,280.862 2083.42,274.691 2090.32,268.216 2097.23,261.926 2104.13,255.928 2111.04,249.875 2117.95,243.99 2124.85,238.121 2131.76,232.102 2138.67,226.247 2145.57,220.333 2152.48,214.081 2159.38,208.001 2166.29,202.039 2173.2,195.812 2180.1,189.757 2187.01,183.516 2193.91,177.163 2200.82,171.012 2207.73,164.838 2214.63,158.543 2221.54,152.221 2228.45,145.888 2235.35,139.328 2242.26,132.915 2249.16,126.32 2256.07,119.842 2262.98,113.462 2269.88,106.9 2276.79,100.107 2283.69,93.2793 2290.6,86.1857 "/>
<polyline clip-path="url(#clip952)" style="stroke:#e26f46; stroke-linecap:round; stroke-linejoin:round; stroke-width:4; stroke-opacity:1; fill:none" points="218.754,1384.24 225.66,1365.77 232.566,1335.04 239.472,1342.65 246.378,1350.17 253.284,1345.86 260.191,1295.69 267.097,1308.24 274.003,1317.43 280.909,1345.48 287.815,1321.04 294.721,1271.96 301.628,1270.08 308.534,1282.42 315.44,1301.58 322.346,1305.15 329.252,1301.22 336.158,1319.52 343.064,1326.16 349.971,1331.2 356.877,1347.22 363.783,1328.48 370.689,1324.09 377.595,1300.01 384.501,1313.02 391.408,1272.73 398.314,1303.25 405.22,1277.62 412.126,1264.04 419.032,1280.64 425.938,1290.66 432.844,1328.28 439.751,1320.96 446.657,1303.43 453.563,1311.52 460.469,1270.72 467.375,1219.34 474.281,1209.69 481.188,1229.5 488.094,1228.62 495,1228.55 501.906,1179.55 508.812,1186.6 515.718,1208.24 522.625,1239.77 529.531,1205.88 536.437,1187.76 543.343,1170.44 550.249,1158.74 557.155,1137.22 564.061,1154.44 570.968,1160.16 577.874,1178.73 584.78,1164.11 591.686,1166.67 598.592,1175.43 605.498,1194.54 612.405,1220.95 619.311,1212.79 626.217,1232.39 633.123,1223.47 640.029,1192.66 646.935,1166.94 653.841,1167.29 660.748,1127.64 667.654,1111.3 674.56,1108.73 681.466,1077.85 688.372,1066.47 695.278,1079.86 702.185,1082.8 709.091,1087.52 715.997,1104.38 722.903,1107.41 729.809,1100.26 736.715,1120.49 743.622,1157.96 750.528,1144.81 757.434,1143.75 764.34,1144.25 771.246,1111.19 778.152,1091.36 785.058,1027.59 791.965,1025.92 798.871,1021.67 805.777,1032.81 812.683,1004.41 819.589,1003.87 826.495,1003.17 833.402,1014.93 840.308,1038.52 847.214,1017.28 854.12,1014.52 861.026,995.627 867.932,985.583 874.838,965.653 881.745,968.72 888.651,968.598 895.557,949.855 902.463,973.198 909.369,960.665 916.275,956.376 923.182,978.664 930.088,964.722 936.994,1014.64 943.9,979.247 950.806,1013.93 957.712,967.863 964.619,962.337 971.525,971.128 978.431,968.3 985.337,981.649 992.243,988.248 999.149,966.294 1006.06,981.262 1012.96,992.732 1019.87,946.584 1026.77,973.813 1033.68,963.241 1040.59,948.389 1047.49,964.564 1054.4,967.455 1061.3,941.801 1068.21,928.058 1075.12,963.474 1082.02,928.661 1088.93,926.614 1095.84,939.343 1102.74,910.702 1109.65,876.686 1116.55,888.202 1123.46,858.836 1130.37,855.892 1137.27,853.611 1144.18,817.619 1151.08,846.545 1157.99,855.047 1164.9,827.117 1171.8,868.11 1178.71,897.714 1185.62,901.507 1192.52,865.336 1199.43,881.53 1206.33,844.652 1213.24,841.403 1220.15,852.263 1227.05,840.941 1233.96,856.351 1240.86,851.21 1247.77,853.722 1254.68,850.923 1261.58,841.55 1268.49,826.579 1275.4,792.881 1282.3,791.181 1289.21,822.517 1296.11,804.836 1303.02,821.244 1309.93,823.683 1316.83,813.949 1323.74,806.294 1330.64,824.021 1337.55,774.673 1344.46,773.94 1351.36,790.143 1358.27,743.388 1365.18,783.153 1372.08,761.35 1378.99,780.069 1385.89,768.627 1392.8,736.693 1399.71,745.225 1406.61,761.953 1413.52,757.084 1420.42,754.872 1427.33,761.042 1434.24,752.397 1441.14,738.081 1448.05,723.704 1454.96,724.9 1461.86,711.125 1468.77,688.476 1475.67,725.4 1482.58,748.292 1489.49,757.408 1496.39,783.589 1503.3,781.878 1510.2,796.286 1517.11,759.54 1524.02,792.003 1530.92,800.282 1537.83,811.395 1544.74,813.865 1551.64,793.655 1558.55,825.238 1565.45,834.074 1572.36,844.578 1579.27,827.178 1586.17,804.995 1593.08,792.044 1599.98,806.837 1606.89,786.713 1613.8,772.619 1620.7,762.14 1627.61,773.656 1634.52,780.774 1641.42,788.353 1648.33,793.939 1655.23,826.073 1662.14,828.4 1669.05,815.863 1675.95,807.508 1682.86,825.157 1689.76,865.757 1696.67,865.377 1703.58,884.367 1710.48,876.294 1717.39,904.521 1724.3,924.092 1731.2,930.512 1738.11,934.442 1745.01,920.212 1751.92,927.603 1758.83,897.673 1765.73,899.542 1772.64,902.853 1779.54,897.78 1786.45,891.294 1793.36,897.003 1800.26,877.76 1807.17,892.6 1814.08,903.002 1820.98,882.945 1827.89,844.097 1834.79,817.694 1841.7,813.56 1848.61,820.585 1855.51,809.364 1862.42,822.96 1869.32,831.962 1876.23,829.856 1883.14,826.693 1890.04,831.003 1896.95,832.649 1903.86,853.372 1910.76,828.506 1917.67,806.089 1924.57,777.483 1931.48,776.896 1938.39,767.803 1945.29,809.757 1952.2,797.566 1959.11,775.351 1966.01,738.905 1972.92,767.226 1979.82,789.298 1986.73,781.788 1993.64,761.005 2000.54,801.297 2007.45,847.056 2014.35,875.067 2021.26,847.971 2028.17,848.475 2035.07,872.535 2041.98,836.267 2048.89,811.988 2055.79,806.002 2062.7,775.57 2069.6,747.463 2076.51,762.785 2083.42,732.399 2090.32,750.925 2097.23,780.069 2104.13,774.615 2111.04,791.351 2117.95,793.077 2124.85,777.942 2131.76,794.396 2138.67,788.553 2145.57,754.655 2152.48,771.98 2159.38,783.623 2166.29,757.205 2173.2,774.403 2180.1,755.793 2187.01,744.614 2193.91,764.833 2200.82,762.502 2207.73,750.371 2214.63,747.779 2221.54,746.569 2228.45,723.941 2235.35,738.576 2242.26,720.391 2249.16,732.146 2256.07,741.883 2262.98,723.714 2269.88,700.624 2276.79,697.084 2283.69,670.545 2290.6,663.496 "/>
<path clip-path="url(#clip950)" d="M229.803 248.629 L674.997 248.629 L674.997 93.1086 L229.803 93.1086  Z" fill="#ffffff" fill-rule="evenodd" fill-opacity="1"/>
<polyline clip-path="url(#clip950)" style="stroke:#000000; stroke-linecap:round; stroke-linejoin:round; stroke-width:4; stroke-opacity:1; fill:none" points="229.803,248.629 674.997,248.629 674.997,93.1086 229.803,93.1086 229.803,248.629 "/>
<polyline clip-path="url(#clip950)" style="stroke:#009af9; stroke-linecap:round; stroke-linejoin:round; stroke-width:4; stroke-opacity:1; fill:none" points="254.205,144.949 400.616,144.949 "/>
<path clip-path="url(#clip950)" d="M438.86 164.636 Q437.054 169.266 435.342 170.678 Q433.629 172.09 430.758 172.09 L427.355 172.09 L427.355 168.525 L429.855 168.525 Q431.615 168.525 432.587 167.692 Q433.559 166.858 434.74 163.756 L435.504 161.812 L425.018 136.303 L429.531 136.303 L437.633 156.581 L445.735 136.303 L450.249 136.303 L438.86 164.636 Z" fill="#000000" fill-rule="nonzero" fill-opacity="1" /><path clip-path="url(#clip950)" d="M475.318 158.34 L475.318 172.09 L471.036 172.09 L471.036 136.303 L475.318 136.303 L475.318 140.238 Q476.661 137.923 478.698 136.812 Q480.758 135.678 483.605 135.678 Q488.327 135.678 491.267 139.428 Q494.23 143.178 494.23 149.289 Q494.23 155.4 491.267 159.15 Q488.327 162.9 483.605 162.9 Q480.758 162.9 478.698 161.789 Q476.661 160.655 475.318 158.34 M489.809 149.289 Q489.809 144.59 487.864 141.928 Q485.943 139.243 482.563 139.243 Q479.184 139.243 477.239 141.928 Q475.318 144.59 475.318 149.289 Q475.318 153.988 477.239 156.673 Q479.184 159.335 482.563 159.335 Q485.943 159.335 487.864 156.673 Q489.809 153.988 489.809 149.289 Z" fill="#000000" fill-rule="nonzero" fill-opacity="1" /><path clip-path="url(#clip950)" d="M511.336 139.289 Q507.911 139.289 505.92 141.974 Q503.929 144.636 503.929 149.289 Q503.929 153.942 505.897 156.627 Q507.887 159.289 511.336 159.289 Q514.739 159.289 516.73 156.604 Q518.721 153.918 518.721 149.289 Q518.721 144.682 516.73 141.997 Q514.739 139.289 511.336 139.289 M511.336 135.678 Q516.892 135.678 520.063 139.289 Q523.235 142.9 523.235 149.289 Q523.235 155.655 520.063 159.289 Q516.892 162.9 511.336 162.9 Q505.758 162.9 502.587 159.289 Q499.438 155.655 499.438 149.289 Q499.438 142.9 502.587 139.289 Q505.758 135.678 511.336 135.678 Z" fill="#000000" fill-rule="nonzero" fill-opacity="1" /><path clip-path="url(#clip950)" d="M546.822 137.067 L546.822 141.094 Q545.017 140.169 543.072 139.706 Q541.128 139.243 539.045 139.243 Q535.873 139.243 534.276 140.215 Q532.702 141.187 532.702 143.131 Q532.702 144.613 533.836 145.469 Q534.971 146.303 538.397 147.067 L539.855 147.391 Q544.392 148.363 546.29 150.145 Q548.211 151.905 548.211 155.076 Q548.211 158.687 545.341 160.793 Q542.494 162.9 537.494 162.9 Q535.41 162.9 533.142 162.483 Q530.897 162.09 528.397 161.28 L528.397 156.881 Q530.758 158.108 533.049 158.733 Q535.341 159.335 537.586 159.335 Q540.596 159.335 542.216 158.317 Q543.836 157.275 543.836 155.4 Q543.836 153.664 542.656 152.738 Q541.498 151.812 537.54 150.956 L536.059 150.608 Q532.1 149.775 530.341 148.062 Q528.582 146.326 528.582 143.317 Q528.582 139.659 531.174 137.669 Q533.767 135.678 538.535 135.678 Q540.897 135.678 542.98 136.025 Q545.063 136.372 546.822 137.067 Z" fill="#000000" fill-rule="nonzero" fill-opacity="1" /><path clip-path="url(#clip950)" d="M554.994 136.303 L559.253 136.303 L559.253 162.229 L554.994 162.229 L554.994 136.303 M554.994 126.21 L559.253 126.21 L559.253 131.604 L554.994 131.604 L554.994 126.21 Z" fill="#000000" fill-rule="nonzero" fill-opacity="1" /><path clip-path="url(#clip950)" d="M572.378 128.942 L572.378 136.303 L581.151 136.303 L581.151 139.613 L572.378 139.613 L572.378 153.687 Q572.378 156.858 573.234 157.761 Q574.114 158.664 576.776 158.664 L581.151 158.664 L581.151 162.229 L576.776 162.229 Q571.845 162.229 569.97 160.4 Q568.095 158.548 568.095 153.687 L568.095 139.613 L564.97 139.613 L564.97 136.303 L568.095 136.303 L568.095 128.942 L572.378 128.942 Z" fill="#000000" fill-rule="nonzero" fill-opacity="1" /><path clip-path="url(#clip950)" d="M586.753 136.303 L591.012 136.303 L591.012 162.229 L586.753 162.229 L586.753 136.303 M586.753 126.21 L591.012 126.21 L591.012 131.604 L586.753 131.604 L586.753 126.21 Z" fill="#000000" fill-rule="nonzero" fill-opacity="1" /><path clip-path="url(#clip950)" d="M609.97 139.289 Q606.544 139.289 604.554 141.974 Q602.563 144.636 602.563 149.289 Q602.563 153.942 604.53 156.627 Q606.521 159.289 609.97 159.289 Q613.373 159.289 615.364 156.604 Q617.354 153.918 617.354 149.289 Q617.354 144.682 615.364 141.997 Q613.373 139.289 609.97 139.289 M609.97 135.678 Q615.526 135.678 618.697 139.289 Q621.868 142.9 621.868 149.289 Q621.868 155.655 618.697 159.289 Q615.526 162.9 609.97 162.9 Q604.392 162.9 601.22 159.289 Q598.072 155.655 598.072 149.289 Q598.072 142.9 601.22 139.289 Q604.392 135.678 609.97 135.678 Z" fill="#000000" fill-rule="nonzero" fill-opacity="1" /><path clip-path="url(#clip950)" d="M650.479 146.581 L650.479 162.229 L646.22 162.229 L646.22 146.719 Q646.22 143.039 644.785 141.21 Q643.35 139.382 640.479 139.382 Q637.03 139.382 635.04 141.581 Q633.049 143.78 633.049 147.576 L633.049 162.229 L628.766 162.229 L628.766 136.303 L633.049 136.303 L633.049 140.331 Q634.577 137.993 636.637 136.835 Q638.72 135.678 641.428 135.678 Q645.896 135.678 648.188 138.456 Q650.479 141.21 650.479 146.581 Z" fill="#000000" fill-rule="nonzero" fill-opacity="1" /><polyline clip-path="url(#clip950)" style="stroke:#e26f46; stroke-linecap:round; stroke-linejoin:round; stroke-width:4; stroke-opacity:1; fill:none" points="254.205,196.789 400.616,196.789 "/>
<path clip-path="url(#clip950)" d="M438.86 216.476 Q437.054 221.106 435.342 222.518 Q433.629 223.93 430.758 223.93 L427.355 223.93 L427.355 220.365 L429.855 220.365 Q431.615 220.365 432.587 219.532 Q433.559 218.698 434.74 215.596 L435.504 213.652 L425.018 188.143 L429.531 188.143 L437.633 208.421 L445.735 188.143 L450.249 188.143 L438.86 216.476 Z" fill="#000000" fill-rule="nonzero" fill-opacity="1" /><path clip-path="url(#clip950)" d="M468.142 188.143 L472.656 188.143 L480.758 209.902 L488.86 188.143 L493.374 188.143 L483.651 214.069 L477.864 214.069 L468.142 188.143 Z" fill="#000000" fill-rule="nonzero" fill-opacity="1" /><path clip-path="url(#clip950)" d="M521.429 200.041 L521.429 202.124 L501.846 202.124 Q502.124 206.522 504.485 208.837 Q506.869 211.129 511.105 211.129 Q513.559 211.129 515.85 210.527 Q518.165 209.925 520.434 208.721 L520.434 212.749 Q518.142 213.721 515.735 214.231 Q513.327 214.74 510.85 214.74 Q504.647 214.74 501.012 211.129 Q497.401 207.518 497.401 201.36 Q497.401 194.995 500.827 191.268 Q504.276 187.518 510.11 187.518 Q515.341 187.518 518.373 190.897 Q521.429 194.254 521.429 200.041 M517.17 198.791 Q517.123 195.296 515.202 193.212 Q513.304 191.129 510.156 191.129 Q506.591 191.129 504.438 193.143 Q502.309 195.157 501.985 198.814 L517.17 198.791 Z" fill="#000000" fill-rule="nonzero" fill-opacity="1" /><path clip-path="url(#clip950)" d="M528.42 178.05 L532.679 178.05 L532.679 214.069 L528.42 214.069 L528.42 178.05 Z" fill="#000000" fill-rule="nonzero" fill-opacity="1" /><path clip-path="url(#clip950)" d="M551.637 191.129 Q548.211 191.129 546.221 193.814 Q544.23 196.476 544.23 201.129 Q544.23 205.782 546.197 208.467 Q548.188 211.129 551.637 211.129 Q555.04 211.129 557.031 208.444 Q559.021 205.758 559.021 201.129 Q559.021 196.522 557.031 193.837 Q555.04 191.129 551.637 191.129 M551.637 187.518 Q557.193 187.518 560.364 191.129 Q563.535 194.74 563.535 201.129 Q563.535 207.495 560.364 211.129 Q557.193 214.74 551.637 214.74 Q546.059 214.74 542.887 211.129 Q539.739 207.495 539.739 201.129 Q539.739 194.74 542.887 191.129 Q546.059 187.518 551.637 187.518 Z" fill="#000000" fill-rule="nonzero" fill-opacity="1" /><path clip-path="url(#clip950)" d="M589.253 189.138 L589.253 193.12 Q587.447 192.124 585.618 191.638 Q583.813 191.129 581.961 191.129 Q577.818 191.129 575.526 193.768 Q573.234 196.384 573.234 201.129 Q573.234 205.874 575.526 208.513 Q577.818 211.129 581.961 211.129 Q583.813 211.129 585.618 210.643 Q587.447 210.133 589.253 209.138 L589.253 213.073 Q587.47 213.907 585.549 214.323 Q583.651 214.74 581.498 214.74 Q575.642 214.74 572.193 211.059 Q568.744 207.379 568.744 201.129 Q568.744 194.786 572.216 191.152 Q575.711 187.518 581.776 187.518 Q583.744 187.518 585.618 187.935 Q587.493 188.328 589.253 189.138 Z" fill="#000000" fill-rule="nonzero" fill-opacity="1" /><path clip-path="url(#clip950)" d="M596.66 188.143 L600.919 188.143 L600.919 214.069 L596.66 214.069 L596.66 188.143 M596.66 178.05 L600.919 178.05 L600.919 183.444 L596.66 183.444 L596.66 178.05 Z" fill="#000000" fill-rule="nonzero" fill-opacity="1" /><path clip-path="url(#clip950)" d="M614.044 180.782 L614.044 188.143 L622.817 188.143 L622.817 191.453 L614.044 191.453 L614.044 205.527 Q614.044 208.698 614.901 209.601 Q615.78 210.504 618.442 210.504 L622.817 210.504 L622.817 214.069 L618.442 214.069 Q613.512 214.069 611.637 212.24 Q609.762 210.388 609.762 205.527 L609.762 191.453 L606.637 191.453 L606.637 188.143 L609.762 188.143 L609.762 180.782 L614.044 180.782 Z" fill="#000000" fill-rule="nonzero" fill-opacity="1" /><path clip-path="url(#clip950)" d="M639.206 216.476 Q637.401 221.106 635.688 222.518 Q633.975 223.93 631.104 223.93 L627.702 223.93 L627.702 220.365 L630.202 220.365 Q631.961 220.365 632.933 219.532 Q633.905 218.698 635.086 215.596 L635.85 213.652 L625.364 188.143 L629.878 188.143 L637.979 208.421 L646.081 188.143 L650.595 188.143 L639.206 216.476 Z" fill="#000000" fill-rule="nonzero" fill-opacity="1" /></svg>
