<?xml version="1.0" encoding="utf-8"?>
<svg xmlns="http://www.w3.org/2000/svg" xmlns:xlink="http://www.w3.org/1999/xlink" width="600" height="400" viewBox="0 0 2400 1600">
<defs>
  <clipPath id="clip670">
    <rect x="0" y="0" width="2400" height="1600"/>
  </clipPath>
</defs>
<path clip-path="url(#clip670)" d="M0 1600 L2400 1600 L2400 0 L0 0  Z" fill="#ffffff" fill-rule="evenodd" fill-opacity="1"/>
<defs>
  <clipPath id="clip671">
    <rect x="480" y="0" width="1681" height="1600"/>
  </clipPath>
</defs>
<path clip-path="url(#clip670)" d="M178.867 1486.45 L2352.76 1486.45 L2352.76 47.2441 L178.867 47.2441  Z" fill="#ffffff" fill-rule="evenodd" fill-opacity="1"/>
<defs>
  <clipPath id="clip672">
    <rect x="178" y="47" width="2175" height="1440"/>
  </clipPath>
</defs>
<polyline clip-path="url(#clip672)" style="stroke:#000000; stroke-linecap:round; stroke-linejoin:round; stroke-width:2; stroke-opacity:0.1; fill:none" points="178.867,1486.45 178.867,47.2441 "/>
<polyline clip-path="url(#clip672)" style="stroke:#000000; stroke-linecap:round; stroke-linejoin:round; stroke-width:2; stroke-opacity:0.1; fill:none" points="903.496,1486.45 903.496,47.2441 "/>
<polyline clip-path="url(#clip672)" style="stroke:#000000; stroke-linecap:round; stroke-linejoin:round; stroke-width:2; stroke-opacity:0.1; fill:none" points="1628.13,1486.45 1628.13,47.2441 "/>
<polyline clip-path="url(#clip672)" style="stroke:#000000; stroke-linecap:round; stroke-linejoin:round; stroke-width:2; stroke-opacity:0.1; fill:none" points="2352.76,1486.45 2352.76,47.2441 "/>
<polyline clip-path="url(#clip670)" style="stroke:#000000; stroke-linecap:round; stroke-linejoin:round; stroke-width:4; stroke-opacity:1; fill:none" points="178.867,1486.45 2352.76,1486.45 "/>
<polyline clip-path="url(#clip670)" style="stroke:#000000; stroke-linecap:round; stroke-linejoin:round; stroke-width:4; stroke-opacity:1; fill:none" points="178.867,1486.45 178.867,1467.55 "/>
<polyline clip-path="url(#clip670)" style="stroke:#000000; stroke-linecap:round; stroke-linejoin:round; stroke-width:4; stroke-opacity:1; fill:none" points="903.496,1486.45 903.496,1467.55 "/>
<polyline clip-path="url(#clip670)" style="stroke:#000000; stroke-linecap:round; stroke-linejoin:round; stroke-width:4; stroke-opacity:1; fill:none" points="1628.13,1486.45 1628.13,1467.55 "/>
<polyline clip-path="url(#clip670)" style="stroke:#000000; stroke-linecap:round; stroke-linejoin:round; stroke-width:4; stroke-opacity:1; fill:none" points="2352.76,1486.45 2352.76,1467.55 "/>
<path clip-path="url(#clip670)" d="M178.867 1517.37 Q175.256 1517.37 173.427 1520.93 Q171.621 1524.47 171.621 1531.6 Q171.621 1538.71 173.427 1542.27 Q175.256 1545.82 178.867 1545.82 Q182.501 1545.82 184.306 1542.27 Q186.135 1538.71 186.135 1531.6 Q186.135 1524.47 184.306 1520.93 Q182.501 1517.37 178.867 1517.37 M178.867 1513.66 Q184.677 1513.66 187.732 1518.27 Q190.811 1522.85 190.811 1531.6 Q190.811 1540.33 187.732 1544.94 Q184.677 1549.52 178.867 1549.52 Q173.056 1549.52 169.978 1544.94 Q166.922 1540.33 166.922 1531.6 Q166.922 1522.85 169.978 1518.27 Q173.056 1513.66 178.867 1513.66 Z" fill="#000000" fill-rule="nonzero" fill-opacity="1" /><path clip-path="url(#clip670)" d="M893.878 1544.91 L901.517 1544.91 L901.517 1518.55 L893.207 1520.21 L893.207 1515.95 L901.471 1514.29 L906.147 1514.29 L906.147 1544.91 L913.786 1544.91 L913.786 1548.85 L893.878 1548.85 L893.878 1544.91 Z" fill="#000000" fill-rule="nonzero" fill-opacity="1" /><path clip-path="url(#clip670)" d="M1622.78 1544.91 L1639.1 1544.91 L1639.1 1548.85 L1617.15 1548.85 L1617.15 1544.91 Q1619.82 1542.16 1624.4 1537.53 Q1629.01 1532.88 1630.19 1531.53 Q1632.43 1529.01 1633.31 1527.27 Q1634.21 1525.51 1634.21 1523.82 Q1634.21 1521.07 1632.27 1519.33 Q1630.35 1517.6 1627.25 1517.6 Q1625.05 1517.6 1622.59 1518.36 Q1620.16 1519.13 1617.39 1520.68 L1617.39 1515.95 Q1620.21 1514.82 1622.66 1514.24 Q1625.12 1513.66 1627.15 1513.66 Q1632.52 1513.66 1635.72 1516.35 Q1638.91 1519.03 1638.91 1523.52 Q1638.91 1525.65 1638.1 1527.57 Q1637.32 1529.47 1635.21 1532.07 Q1634.63 1532.74 1631.53 1535.95 Q1628.43 1539.15 1622.78 1544.91 Z" fill="#000000" fill-rule="nonzero" fill-opacity="1" /><path clip-path="url(#clip670)" d="M2357 1530.21 Q2360.36 1530.93 2362.24 1533.2 Q2364.13 1535.47 2364.13 1538.8 Q2364.13 1543.92 2360.61 1546.72 Q2357.1 1549.52 2350.61 1549.52 Q2348.44 1549.52 2346.12 1549.08 Q2343.83 1548.66 2341.38 1547.81 L2341.38 1543.29 Q2343.32 1544.43 2345.64 1545.01 Q2347.95 1545.58 2350.48 1545.58 Q2354.87 1545.58 2357.17 1543.85 Q2359.48 1542.11 2359.48 1538.8 Q2359.48 1535.75 2357.33 1534.03 Q2355.2 1532.3 2351.38 1532.3 L2347.35 1532.3 L2347.35 1528.45 L2351.56 1528.45 Q2355.01 1528.45 2356.84 1527.09 Q2358.67 1525.7 2358.67 1523.11 Q2358.67 1520.45 2356.77 1519.03 Q2354.9 1517.6 2351.38 1517.6 Q2349.46 1517.6 2347.26 1518.01 Q2345.06 1518.43 2342.42 1519.31 L2342.42 1515.14 Q2345.08 1514.4 2347.4 1514.03 Q2349.74 1513.66 2351.8 1513.66 Q2357.12 1513.66 2360.22 1516.09 Q2363.32 1518.5 2363.32 1522.62 Q2363.32 1525.49 2361.68 1527.48 Q2360.04 1529.45 2357 1530.21 Z" fill="#000000" fill-rule="nonzero" fill-opacity="1" /><polyline clip-path="url(#clip672)" style="stroke:#000000; stroke-linecap:round; stroke-linejoin:round; stroke-width:2; stroke-opacity:0.1; fill:none" points="178.867,1454.68 2352.76,1454.68 "/>
<polyline clip-path="url(#clip672)" style="stroke:#000000; stroke-linecap:round; stroke-linejoin:round; stroke-width:2; stroke-opacity:0.1; fill:none" points="178.867,1110.77 2352.76,1110.77 "/>
<polyline clip-path="url(#clip672)" style="stroke:#000000; stroke-linecap:round; stroke-linejoin:round; stroke-width:2; stroke-opacity:0.1; fill:none" points="178.867,766.846 2352.76,766.846 "/>
<polyline clip-path="url(#clip672)" style="stroke:#000000; stroke-linecap:round; stroke-linejoin:round; stroke-width:2; stroke-opacity:0.1; fill:none" points="178.867,422.927 2352.76,422.927 "/>
<polyline clip-path="url(#clip672)" style="stroke:#000000; stroke-linecap:round; stroke-linejoin:round; stroke-width:2; stroke-opacity:0.1; fill:none" points="178.867,79.0072 2352.76,79.0072 "/>
<polyline clip-path="url(#clip670)" style="stroke:#000000; stroke-linecap:round; stroke-linejoin:round; stroke-width:4; stroke-opacity:1; fill:none" points="178.867,1486.45 178.867,47.2441 "/>
<polyline clip-path="url(#clip670)" style="stroke:#000000; stroke-linecap:round; stroke-linejoin:round; stroke-width:4; stroke-opacity:1; fill:none" points="178.867,1454.68 197.764,1454.68 "/>
<polyline clip-path="url(#clip670)" style="stroke:#000000; stroke-linecap:round; stroke-linejoin:round; stroke-width:4; stroke-opacity:1; fill:none" points="178.867,1110.77 197.764,1110.77 "/>
<polyline clip-path="url(#clip670)" style="stroke:#000000; stroke-linecap:round; stroke-linejoin:round; stroke-width:4; stroke-opacity:1; fill:none" points="178.867,766.846 197.764,766.846 "/>
<polyline clip-path="url(#clip670)" style="stroke:#000000; stroke-linecap:round; stroke-linejoin:round; stroke-width:4; stroke-opacity:1; fill:none" points="178.867,422.927 197.764,422.927 "/>
<polyline clip-path="url(#clip670)" style="stroke:#000000; stroke-linecap:round; stroke-linejoin:round; stroke-width:4; stroke-opacity:1; fill:none" points="178.867,79.0072 197.764,79.0072 "/>
<path clip-path="url(#clip670)" d="M50.9921 1455.14 L80.6679 1455.14 L80.6679 1459.07 L50.9921 1459.07 L50.9921 1455.14 Z" fill="#000000" fill-rule="nonzero" fill-opacity="1" /><path clip-path="url(#clip670)" d="M103.608 1441.48 L91.8021 1459.93 L103.608 1459.93 L103.608 1441.48 M102.381 1437.4 L108.26 1437.4 L108.26 1459.93 L113.191 1459.93 L113.191 1463.82 L108.26 1463.82 L108.26 1471.96 L103.608 1471.96 L103.608 1463.82 L88.0058 1463.82 L88.0058 1459.3 L102.381 1437.4 Z" fill="#000000" fill-rule="nonzero" fill-opacity="1" /><path clip-path="url(#clip670)" d="M130.922 1440.48 Q127.311 1440.48 125.482 1444.05 Q123.677 1447.59 123.677 1454.72 Q123.677 1461.83 125.482 1465.39 Q127.311 1468.93 130.922 1468.93 Q134.556 1468.93 136.362 1465.39 Q138.191 1461.83 138.191 1454.72 Q138.191 1447.59 136.362 1444.05 Q134.556 1440.48 130.922 1440.48 M130.922 1436.78 Q136.732 1436.78 139.788 1441.39 Q142.867 1445.97 142.867 1454.72 Q142.867 1463.45 139.788 1468.05 Q136.732 1472.64 130.922 1472.64 Q125.112 1472.64 122.033 1468.05 Q118.978 1463.45 118.978 1454.72 Q118.978 1445.97 122.033 1441.39 Q125.112 1436.78 130.922 1436.78 Z" fill="#000000" fill-rule="nonzero" fill-opacity="1" /><path clip-path="url(#clip670)" d="M50.9921 1111.22 L80.6679 1111.22 L80.6679 1115.15 L50.9921 1115.15 L50.9921 1111.22 Z" fill="#000000" fill-rule="nonzero" fill-opacity="1" /><path clip-path="url(#clip670)" d="M94.7882 1124.11 L111.108 1124.11 L111.108 1128.05 L89.1632 1128.05 L89.1632 1124.11 Q91.8252 1121.36 96.4085 1116.73 Q101.015 1112.07 102.196 1110.73 Q104.441 1108.21 105.321 1106.47 Q106.223 1104.71 106.223 1103.02 Q106.223 1100.27 104.279 1098.53 Q102.358 1096.8 99.2558 1096.8 Q97.0567 1096.8 94.603 1097.56 Q92.1725 1098.32 89.3947 1099.87 L89.3947 1095.15 Q92.2188 1094.02 94.6724 1093.44 Q97.1261 1092.86 99.1632 1092.86 Q104.534 1092.86 107.728 1095.55 Q110.922 1098.23 110.922 1102.72 Q110.922 1104.85 110.112 1106.77 Q109.325 1108.67 107.219 1111.26 Q106.64 1111.93 103.538 1115.15 Q100.436 1118.35 94.7882 1124.11 Z" fill="#000000" fill-rule="nonzero" fill-opacity="1" /><path clip-path="url(#clip670)" d="M130.922 1096.56 Q127.311 1096.56 125.482 1100.13 Q123.677 1103.67 123.677 1110.8 Q123.677 1117.91 125.482 1121.47 Q127.311 1125.01 130.922 1125.01 Q134.556 1125.01 136.362 1121.47 Q138.191 1117.91 138.191 1110.8 Q138.191 1103.67 136.362 1100.13 Q134.556 1096.56 130.922 1096.56 M130.922 1092.86 Q136.732 1092.86 139.788 1097.47 Q142.867 1102.05 142.867 1110.8 Q142.867 1119.53 139.788 1124.13 Q136.732 1128.72 130.922 1128.72 Q125.112 1128.72 122.033 1124.13 Q118.978 1119.53 118.978 1110.8 Q118.978 1102.05 122.033 1097.47 Q125.112 1092.86 130.922 1092.86 Z" fill="#000000" fill-rule="nonzero" fill-opacity="1" /><path clip-path="url(#clip670)" d="M130.922 752.645 Q127.311 752.645 125.482 756.209 Q123.677 759.751 123.677 766.881 Q123.677 773.987 125.482 777.552 Q127.311 781.094 130.922 781.094 Q134.556 781.094 136.362 777.552 Q138.191 773.987 138.191 766.881 Q138.191 759.751 136.362 756.209 Q134.556 752.645 130.922 752.645 M130.922 748.941 Q136.732 748.941 139.788 753.547 Q142.867 758.131 142.867 766.881 Q142.867 775.608 139.788 780.214 Q136.732 784.797 130.922 784.797 Q125.112 784.797 122.033 780.214 Q118.978 775.608 118.978 766.881 Q118.978 758.131 122.033 753.547 Q125.112 748.941 130.922 748.941 Z" fill="#000000" fill-rule="nonzero" fill-opacity="1" /><path clip-path="url(#clip670)" d="M94.7882 436.271 L111.108 436.271 L111.108 440.207 L89.1632 440.207 L89.1632 436.271 Q91.8252 433.517 96.4085 428.887 Q101.015 424.234 102.196 422.892 Q104.441 420.369 105.321 418.633 Q106.223 416.873 106.223 415.184 Q106.223 412.429 104.279 410.693 Q102.358 408.957 99.2558 408.957 Q97.0567 408.957 94.603 409.721 Q92.1725 410.485 89.3947 412.035 L89.3947 407.313 Q92.2188 406.179 94.6724 405.6 Q97.1261 405.022 99.1632 405.022 Q104.534 405.022 107.728 407.707 Q110.922 410.392 110.922 414.883 Q110.922 417.012 110.112 418.934 Q109.325 420.832 107.219 423.424 Q106.64 424.096 103.538 427.313 Q100.436 430.508 94.7882 436.271 Z" fill="#000000" fill-rule="nonzero" fill-opacity="1" /><path clip-path="url(#clip670)" d="M130.922 408.725 Q127.311 408.725 125.482 412.29 Q123.677 415.832 123.677 422.961 Q123.677 430.068 125.482 433.633 Q127.311 437.174 130.922 437.174 Q134.556 437.174 136.362 433.633 Q138.191 430.068 138.191 422.961 Q138.191 415.832 136.362 412.29 Q134.556 408.725 130.922 408.725 M130.922 405.022 Q136.732 405.022 139.788 409.628 Q142.867 414.211 142.867 422.961 Q142.867 431.688 139.788 436.295 Q136.732 440.878 130.922 440.878 Q125.112 440.878 122.033 436.295 Q118.978 431.688 118.978 422.961 Q118.978 414.211 122.033 409.628 Q125.112 405.022 130.922 405.022 Z" fill="#000000" fill-rule="nonzero" fill-opacity="1" /><path clip-path="url(#clip670)" d="M103.608 65.8012 L91.8021 84.2502 L103.608 84.2502 L103.608 65.8012 M102.381 61.7272 L108.26 61.7272 L108.26 84.2502 L113.191 84.2502 L113.191 88.1391 L108.26 88.1391 L108.26 96.2872 L103.608 96.2872 L103.608 88.1391 L88.0058 88.1391 L88.0058 83.6252 L102.381 61.7272 Z" fill="#000000" fill-rule="nonzero" fill-opacity="1" /><path clip-path="url(#clip670)" d="M130.922 64.8058 Q127.311 64.8058 125.482 68.3706 Q123.677 71.9123 123.677 79.0419 Q123.677 86.1483 125.482 89.7131 Q127.311 93.2548 130.922 93.2548 Q134.556 93.2548 136.362 89.7131 Q138.191 86.1483 138.191 79.0419 Q138.191 71.9123 136.362 68.3706 Q134.556 64.8058 130.922 64.8058 M130.922 61.1022 Q136.732 61.1022 139.788 65.7086 Q142.867 70.2919 142.867 79.0419 Q142.867 87.7687 139.788 92.3751 Q136.732 96.9585 130.922 96.9585 Q125.112 96.9585 122.033 92.3751 Q118.978 87.7687 118.978 79.0419 Q118.978 70.2919 122.033 65.7086 Q125.112 61.1022 130.922 61.1022 Z" fill="#000000" fill-rule="nonzero" fill-opacity="1" /><polyline clip-path="url(#clip672)" style="stroke:#009af9; stroke-linecap:round; stroke-linejoin:round; stroke-width:4; stroke-opacity:1; fill:none" points="178.867,784.042 186.113,784.008 193.359,783.906 200.606,783.737 207.852,783.502 215.098,783.2 222.344,782.834 229.591,782.405 236.837,781.915 244.083,781.365 251.33,780.758 258.576,780.096 265.822,779.381 273.069,778.617 280.315,777.807 287.561,776.954 294.807,776.06 302.054,775.13 309.3,774.168 316.546,773.176 323.793,772.16 331.039,771.122 338.285,770.068 345.531,769.001 352.778,767.926 360.024,766.846 367.27,765.766 374.517,764.691 381.763,763.624 389.009,762.57 396.256,761.532 403.502,760.516 410.748,759.524 417.994,758.562 425.241,757.632 432.487,756.738 439.733,755.885 446.98,755.075 454.226,754.311 461.472,753.596 468.719,752.934 475.965,752.327 483.211,751.777 490.457,751.287 497.704,750.858 504.95,750.492 512.196,750.19 519.443,749.955 526.689,749.786 533.935,749.684 541.182,749.65 548.428,749.684 555.674,749.786 562.92,749.955 570.167,750.19 577.413,750.492 584.659,750.858 591.906,751.287 599.152,751.777 606.398,752.327 613.644,752.934 620.891,753.596 628.137,754.311 635.383,755.075 642.63,755.885 649.876,756.738 657.122,757.632 664.369,758.562 671.615,759.524 678.861,760.516 686.107,761.532 693.354,762.57 700.6,763.624 707.846,764.691 715.093,765.766 722.339,766.846 729.585,767.926 736.832,769.001 744.078,770.068 751.324,771.122 758.57,772.16 765.817,773.176 773.063,774.168 780.309,775.13 787.556,776.06 794.802,776.954 802.048,777.807 809.295,778.617 816.541,779.381 823.787,780.096 831.033,780.758 838.28,781.365 845.526,781.915 852.772,782.405 860.019,782.834 867.265,783.2 874.511,783.502 881.757,783.737 889.004,783.906 896.25,784.008 903.496,784.042 910.743,784.008 917.989,783.906 925.235,783.737 932.482,783.502 939.728,783.2 946.974,782.834 954.22,782.405 961.467,781.915 968.713,781.365 975.959,780.758 983.206,780.096 990.452,779.381 997.698,778.617 1004.94,777.807 1012.19,776.954 1019.44,776.06 1026.68,775.13 1033.93,774.168 1041.18,773.176 1048.42,772.16 1055.67,771.122 1062.91,770.068 1070.16,769.001 1077.41,767.926 1084.65,766.846 1091.9,765.766 1099.15,764.691 1106.39,763.624 1113.64,762.57 1120.89,761.532 1128.13,760.516 1135.38,759.524 1142.62,758.562 1149.87,757.632 1157.12,756.738 1164.36,755.885 1171.61,755.075 1178.86,754.311 1186.1,753.596 1193.35,752.934 1200.59,752.327 1207.84,751.777 1215.09,751.287 1222.33,750.858 1229.58,750.492 1236.83,750.19 1244.07,749.955 1251.32,749.786 1258.56,749.684 1265.81,749.65 1273.06,749.684 1280.3,749.786 1287.55,749.955 1294.8,750.19 1302.04,750.492 1309.29,750.858 1316.54,751.287 1323.78,751.777 1331.03,752.327 1338.27,752.934 1345.52,753.596 1352.77,754.311 1360.01,755.075 1367.26,755.885 1374.51,756.738 1381.75,757.632 1389,758.562 1396.24,759.524 1403.49,760.516 1410.74,761.532 1417.98,762.57 1425.23,763.624 1432.48,764.691 1439.72,765.766 1446.97,766.846 1454.22,767.926 1461.46,769.001 1468.71,770.068 1475.95,771.122 1483.2,772.16 1490.45,773.176 1497.69,774.168 1504.94,775.13 1512.19,776.06 1519.43,776.954 1526.68,777.807 1533.92,778.617 1541.17,779.381 1548.42,780.096 1555.66,780.758 1562.91,781.365 1570.16,781.915 1577.4,782.405 1584.65,782.834 1591.89,783.2 1599.14,783.502 1606.39,783.737 1613.63,783.906 1620.88,784.008 1628.13,784.042 1635.37,784.008 1642.62,783.906 1649.87,783.737 1657.11,783.502 1664.36,783.2 1671.6,782.834 1678.85,782.405 1686.1,781.915 1693.34,781.365 1700.59,780.758 1707.84,780.096 1715.08,779.381 1722.33,778.617 1729.57,777.807 1736.82,776.954 1744.07,776.06 1751.31,775.13 1758.56,774.168 1765.81,773.176 1773.05,772.16 1780.3,771.122 1787.54,770.068 1794.79,769.001 1802.04,767.926 1809.28,766.846 1816.53,765.766 1823.78,764.691 1831.02,763.624 1838.27,762.57 1845.52,761.532 1852.76,760.516 1860.01,759.524 1867.25,758.562 1874.5,757.632 1881.75,756.738 1888.99,755.885 1896.24,755.075 1903.49,754.311 1910.73,753.596 1917.98,752.934 1925.22,752.327 1932.47,751.777 1939.72,751.287 1946.96,750.858 1954.21,750.492 1961.46,750.19 1968.7,749.955 1975.95,749.786 1983.19,749.684 1990.44,749.65 1997.69,749.684 2004.93,749.786 2012.18,749.955 2019.43,750.19 2026.67,750.492 2033.92,750.858 2041.17,751.287 2048.41,751.777 2055.66,752.327 2062.9,752.934 2070.15,753.596 2077.4,754.311 2084.64,755.075 2091.89,755.885 2099.14,756.738 2106.38,757.632 2113.63,758.562 2120.87,759.524 2128.12,760.516 2135.37,761.532 2142.61,762.57 2149.86,763.624 2157.11,764.691 2164.35,765.766 2171.6,766.846 2178.84,767.926 2186.09,769.001 2193.34,770.068 2200.58,771.122 2207.83,772.16 2215.08,773.176 2222.32,774.168 2229.57,775.13 2236.82,776.06 2244.06,776.954 2251.31,777.807 2258.55,778.617 2265.8,779.381 2273.05,780.096 2280.29,780.758 2287.54,781.365 2294.79,781.915 2302.03,782.405 2309.28,782.834 2316.52,783.2 2323.77,783.502 2331.02,783.737 2338.26,783.906 2345.51,784.008 2352.76,784.042 "/>
<polyline clip-path="url(#clip672)" style="stroke:#e26f46; stroke-linecap:round; stroke-linejoin:round; stroke-width:4; stroke-opacity:1; fill:none" points="178.867,766.846 186.113,760.062 193.359,753.304 200.606,746.6 207.852,739.976 215.098,733.458 222.344,727.072 229.591,720.842 236.837,714.795 244.083,708.952 251.33,703.338 258.576,697.975 265.822,692.884 273.069,688.084 280.315,683.596 287.561,679.435 294.807,675.62 302.054,672.165 309.3,669.084 316.546,666.388 323.793,664.089 331.039,662.195 338.285,660.714 345.531,659.652 352.778,659.014 360.024,658.801 367.27,659.014 374.517,659.652 381.763,660.714 389.009,662.195 396.256,664.089 403.502,666.388 410.748,669.084 417.994,672.165 425.241,675.62 432.487,679.435 439.733,683.596 446.98,688.084 454.226,692.884 461.472,697.975 468.719,703.338 475.965,708.952 483.211,714.795 490.457,720.842 497.704,727.072 504.95,733.458 512.196,739.976 519.443,746.6 526.689,753.304 533.935,760.062 541.182,766.846 548.428,773.63 555.674,780.388 562.92,787.092 570.167,793.716 577.413,800.234 584.659,806.62 591.906,812.85 599.152,818.897 606.398,824.74 613.644,830.354 620.891,835.717 628.137,840.808 635.383,845.608 642.63,850.096 649.876,854.257 657.122,858.072 664.369,861.527 671.615,864.608 678.861,867.304 686.107,869.603 693.354,871.497 700.6,872.978 707.846,874.039 715.093,874.678 722.339,874.891 729.585,874.678 736.832,874.039 744.078,872.978 751.324,871.497 758.57,869.603 765.817,867.304 773.063,864.608 780.309,861.527 787.556,858.072 794.802,854.257 802.048,850.096 809.295,845.608 816.541,840.808 823.787,835.717 831.033,830.354 838.28,824.74 845.526,818.897 852.772,812.85 860.019,806.62 867.265,800.234 874.511,793.716 881.757,787.092 889.004,780.388 896.25,773.63 903.496,766.846 910.743,760.062 917.989,753.304 925.235,746.6 932.482,739.976 939.728,733.458 946.974,727.072 954.22,720.842 961.467,714.795 968.713,708.952 975.959,703.338 983.206,697.975 990.452,692.884 997.698,688.084 1004.94,683.596 1012.19,679.435 1019.44,675.62 1026.68,672.165 1033.93,669.084 1041.18,666.388 1048.42,664.089 1055.67,662.195 1062.91,660.714 1070.16,659.652 1077.41,659.014 1084.65,658.801 1091.9,659.014 1099.15,659.652 1106.39,660.714 1113.64,662.195 1120.89,664.089 1128.13,666.388 1135.38,669.084 1142.62,672.165 1149.87,675.62 1157.12,679.435 1164.36,683.596 1171.61,688.084 1178.86,692.884 1186.1,697.975 1193.35,703.338 1200.59,708.952 1207.84,714.795 1215.09,720.842 1222.33,727.072 1229.58,733.458 1236.83,739.976 1244.07,746.6 1251.32,753.304 1258.56,760.062 1265.81,766.846 1273.06,773.63 1280.3,780.388 1287.55,787.092 1294.8,793.716 1302.04,800.234 1309.29,806.62 1316.54,812.85 1323.78,818.897 1331.03,824.74 1338.27,830.354 1345.52,835.717 1352.77,840.808 1360.01,845.608 1367.26,850.096 1374.51,854.257 1381.75,858.072 1389,861.527 1396.24,864.608 1403.49,867.304 1410.74,869.603 1417.98,871.497 1425.23,872.978 1432.48,874.039 1439.72,874.678 1446.97,874.891 1454.22,874.678 1461.46,874.039 1468.71,872.978 1475.95,871.497 1483.2,869.603 1490.45,867.304 1497.69,864.608 1504.94,861.527 1512.19,858.072 1519.43,854.257 1526.68,850.096 1533.92,845.608 1541.17,840.808 1548.42,835.717 1555.66,830.354 1562.91,824.74 1570.16,818.897 1577.4,812.85 1584.65,806.62 1591.89,800.234 1599.14,793.716 1606.39,787.092 1613.63,780.388 1620.88,773.63 1628.13,766.846 1635.37,760.062 1642.62,753.304 1649.87,746.6 1657.11,739.976 1664.36,733.458 1671.6,727.072 1678.85,720.842 1686.1,714.795 1693.34,708.952 1700.59,703.338 1707.84,697.975 1715.08,692.884 1722.33,688.084 1729.57,683.596 1736.82,679.435 1744.07,675.62 1751.31,672.165 1758.56,669.084 1765.81,666.388 1773.05,664.089 1780.3,662.195 1787.54,660.714 1794.79,659.652 1802.04,659.014 1809.28,658.801 1816.53,659.014 1823.78,659.652 1831.02,660.714 1838.27,662.195 1845.52,664.089 1852.76,666.388 1860.01,669.084 1867.25,672.165 1874.5,675.62 1881.75,679.435 1888.99,683.596 1896.24,688.084 1903.49,692.884 1910.73,697.975 1917.98,703.338 1925.22,708.952 1932.47,714.795 1939.72,720.842 1946.96,727.072 1954.21,733.458 1961.46,739.976 1968.7,746.6 1975.95,753.304 1983.19,760.062 1990.44,766.846 1997.69,773.63 2004.93,780.388 2012.18,787.092 2019.43,793.716 2026.67,800.234 2033.92,806.62 2041.17,812.85 2048.41,818.897 2055.66,824.74 2062.9,830.354 2070.15,835.717 2077.4,840.808 2084.64,845.608 2091.89,850.096 2099.14,854.257 2106.38,858.072 2113.63,861.527 2120.87,864.608 2128.12,867.304 2135.37,869.603 2142.61,871.497 2149.86,872.978 2157.11,874.039 2164.35,874.678 2171.6,874.891 2178.84,874.678 2186.09,874.039 2193.34,872.978 2200.58,871.497 2207.83,869.603 2215.08,867.304 2222.32,864.608 2229.57,861.527 2236.82,858.072 2244.06,854.257 2251.31,850.096 2258.55,845.608 2265.8,840.808 2273.05,835.717 2280.29,830.354 2287.54,824.74 2294.79,818.897 2302.03,812.85 2309.28,806.62 2316.52,800.234 2323.77,793.716 2331.02,787.092 2338.26,780.388 2345.51,773.63 2352.76,766.846 "/>
<polyline clip-path="url(#clip672)" style="stroke:#3da44d; stroke-linecap:round; stroke-linejoin:round; stroke-width:4; stroke-opacity:1; fill:none" points="178.867,87.9763 186.113,89.3159 193.359,93.3294 200.606,100.001 207.852,109.304 215.098,121.203 222.344,135.649 229.591,152.586 236.837,171.948 244.083,193.657 251.33,217.629 258.576,243.768 265.822,271.971 273.069,302.128 280.315,334.118 287.561,367.816 294.807,403.089 302.054,439.798 309.3,477.797 316.546,516.937 323.793,557.064 331.039,598.018 338.285,639.638 345.531,681.761 352.778,724.219 360.024,766.846 367.27,809.473 374.517,851.931 381.763,894.053 389.009,935.674 396.256,976.628 403.502,1016.75 410.748,1055.89 417.994,1093.89 425.241,1130.6 432.487,1165.88 439.733,1199.57 446.98,1231.56 454.226,1261.72 461.472,1289.92 468.719,1316.06 475.965,1340.03 483.211,1361.74 490.457,1381.11 497.704,1398.04 504.95,1412.49 512.196,1424.39 519.443,1433.69 526.689,1440.36 533.935,1444.38 541.182,1445.72 548.428,1444.38 555.674,1440.36 562.92,1433.69 570.167,1424.39 577.413,1412.49 584.659,1398.04 591.906,1381.11 599.152,1361.74 606.398,1340.03 613.644,1316.06 620.891,1289.92 628.137,1261.72 635.383,1231.56 642.63,1199.57 649.876,1165.88 657.122,1130.6 664.369,1093.89 671.615,1055.89 678.861,1016.75 686.107,976.628 693.354,935.674 700.6,894.053 707.846,851.931 715.093,809.473 722.339,766.846 729.585,724.219 736.832,681.761 744.078,639.638 751.324,598.018 758.57,557.064 765.817,516.937 773.063,477.797 780.309,439.798 787.556,403.089 794.802,367.816 802.048,334.118 809.295,302.128 816.541,271.971 823.787,243.768 831.033,217.629 838.28,193.657 845.526,171.948 852.772,152.586 860.019,135.649 867.265,121.203 874.511,109.304 881.757,100.001 889.004,93.3294 896.25,89.3159 903.496,87.9763 910.743,89.3159 917.989,93.3294 925.235,100.001 932.482,109.304 939.728,121.203 946.974,135.649 954.22,152.586 961.467,171.948 968.713,193.657 975.959,217.629 983.206,243.768 990.452,271.971 997.698,302.128 1004.94,334.118 1012.19,367.816 1019.44,403.089 1026.68,439.798 1033.93,477.797 1041.18,516.937 1048.42,557.064 1055.67,598.018 1062.91,639.638 1070.16,681.761 1077.41,724.219 1084.65,766.846 1091.9,809.473 1099.15,851.931 1106.39,894.053 1113.64,935.674 1120.89,976.628 1128.13,1016.75 1135.38,1055.89 1142.62,1093.89 1149.87,1130.6 1157.12,1165.88 1164.36,1199.57 1171.61,1231.56 1178.86,1261.72 1186.1,1289.92 1193.35,1316.06 1200.59,1340.03 1207.84,1361.74 1215.09,1381.11 1222.33,1398.04 1229.58,1412.49 1236.83,1424.39 1244.07,1433.69 1251.32,1440.36 1258.56,1444.38 1265.81,1445.72 1273.06,1444.38 1280.3,1440.36 1287.55,1433.69 1294.8,1424.39 1302.04,1412.49 1309.29,1398.04 1316.54,1381.11 1323.78,1361.74 1331.03,1340.03 1338.27,1316.06 1345.52,1289.92 1352.77,1261.72 1360.01,1231.56 1367.26,1199.57 1374.51,1165.88 1381.75,1130.6 1389,1093.89 1396.24,1055.89 1403.49,1016.75 1410.74,976.628 1417.98,935.674 1425.23,894.053 1432.48,851.931 1439.72,809.473 1446.97,766.846 1454.22,724.219 1461.46,681.761 1468.71,639.638 1475.95,598.018 1483.2,557.064 1490.45,516.937 1497.69,477.797 1504.94,439.798 1512.19,403.089 1519.43,367.816 1526.68,334.118 1533.92,302.128 1541.17,271.971 1548.42,243.768 1555.66,217.629 1562.91,193.657 1570.16,171.948 1577.4,152.586 1584.65,135.649 1591.89,121.203 1599.14,109.304 1606.39,100.001 1613.63,93.3294 1620.88,89.3159 1628.13,87.9763 1635.37,89.3159 1642.62,93.3294 1649.87,100.001 1657.11,109.304 1664.36,121.203 1671.6,135.649 1678.85,152.586 1686.1,171.948 1693.34,193.657 1700.59,217.629 1707.84,243.768 1715.08,271.971 1722.33,302.128 1729.57,334.118 1736.82,367.816 1744.07,403.089 1751.31,439.798 1758.56,477.797 1765.81,516.937 1773.05,557.064 1780.3,598.018 1787.54,639.638 1794.79,681.761 1802.04,724.219 1809.28,766.846 1816.53,809.473 1823.78,851.931 1831.02,894.053 1838.27,935.674 1845.52,976.628 1852.76,1016.75 1860.01,1055.89 1867.25,1093.89 1874.5,1130.6 1881.75,1165.88 1888.99,1199.57 1896.24,1231.56 1903.49,1261.72 1910.73,1289.92 1917.98,1316.06 1925.22,1340.03 1932.47,1361.74 1939.72,1381.11 1946.96,1398.04 1954.21,1412.49 1961.46,1424.39 1968.7,1433.69 1975.95,1440.36 1983.19,1444.38 1990.44,1445.72 1997.69,1444.38 2004.93,1440.36 2012.18,1433.69 2019.43,1424.39 2026.67,1412.49 2033.92,1398.04 2041.17,1381.11 2048.41,1361.74 2055.66,1340.03 2062.9,1316.06 2070.15,1289.92 2077.4,1261.72 2084.64,1231.56 2091.89,1199.57 2099.14,1165.88 2106.38,1130.6 2113.63,1093.89 2120.87,1055.89 2128.12,1016.75 2135.37,976.628 2142.61,935.674 2149.86,894.053 2157.11,851.931 2164.35,809.473 2171.6,766.846 2178.84,724.219 2186.09,681.761 2193.34,639.638 2200.58,598.018 2207.83,557.064 2215.08,516.937 2222.32,477.797 2229.57,439.798 2236.82,403.089 2244.06,367.816 2251.31,334.118 2258.55,302.128 2265.8,271.971 2273.05,243.768 2280.29,217.629 2287.54,193.657 2294.79,171.948 2302.03,152.586 2309.28,135.649 2316.52,121.203 2323.77,109.304 2331.02,100.001 2338.26,93.3294 2345.51,89.3159 2352.76,87.9763 "/>
<path clip-path="url(#clip670)" d="M2037.77 1438.47 L2280.29 1438.47 L2280.29 1231.11 L2037.77 1231.11  Z" fill="#ffffff" fill-rule="evenodd" fill-opacity="1"/>
<polyline clip-path="url(#clip670)" style="stroke:#000000; stroke-linecap:round; stroke-linejoin:round; stroke-width:4; stroke-opacity:1; fill:none" points="2037.77,1438.47 2280.29,1438.47 2280.29,1231.11 2037.77,1231.11 2037.77,1438.47 "/>
<polyline clip-path="url(#clip670)" style="stroke:#009af9; stroke-linecap:round; stroke-linejoin:round; stroke-width:4; stroke-opacity:1; fill:none" points="2061.92,1282.95 2206.85,1282.95 "/>
<path clip-path="url(#clip670)" d="M2255.65 1274.31 L2246.28 1286.92 L2256.14 1300.23 L2251.12 1300.23 L2243.57 1290.05 L2236.02 1300.23 L2231 1300.23 L2241.07 1286.67 L2231.86 1274.31 L2236.88 1274.31 L2243.75 1283.54 L2250.63 1274.31 L2255.65 1274.31 Z" fill="#000000" fill-rule="nonzero" fill-opacity="1" /><polyline clip-path="url(#clip670)" style="stroke:#e26f46; stroke-linecap:round; stroke-linejoin:round; stroke-width:4; stroke-opacity:1; fill:none" points="2061.92,1334.79 2206.85,1334.79 "/>
<path clip-path="url(#clip670)" d="M2255.65 1326.15 L2246.28 1338.76 L2256.14 1352.07 L2251.12 1352.07 L2243.57 1341.89 L2236.02 1352.07 L2231 1352.07 L2241.07 1338.51 L2231.86 1326.15 L2236.88 1326.15 L2243.75 1335.38 L2250.63 1326.15 L2255.65 1326.15 Z" fill="#000000" fill-rule="nonzero" fill-opacity="1" /><path clip-path="url(#clip670)" d="M2243.66 1316.06 L2247.92 1316.06 L2247.92 1321.45 L2243.66 1321.45 L2243.66 1316.06 M2245.84 1325.52 L2245.84 1325.52 Z" fill="#000000" fill-rule="nonzero" fill-opacity="1" /><polyline clip-path="url(#clip670)" style="stroke:#3da44d; stroke-linecap:round; stroke-linejoin:round; stroke-width:4; stroke-opacity:1; fill:none" points="2061.92,1386.63 2206.85,1386.63 "/>
<path clip-path="url(#clip670)" d="M2255.65 1377.99 L2246.28 1390.6 L2256.14 1403.91 L2251.12 1403.91 L2243.57 1393.73 L2236.02 1403.91 L2231 1403.91 L2241.07 1390.35 L2231.86 1377.99 L2236.88 1377.99 L2243.75 1387.22 L2250.63 1377.99 L2255.65 1377.99 Z" fill="#000000" fill-rule="nonzero" fill-opacity="1" /><path clip-path="url(#clip670)" d="M2248.01 1367.99 L2252.71 1367.99 L2252.71 1372.66 L2248.01 1372.66 L2248.01 1367.99 M2238.96 1367.99 L2243.66 1367.99 L2243.66 1372.66 L2238.96 1372.66 L2238.96 1367.99 M2245.84 1377.36 L2245.84 1377.36 Z" fill="#000000" fill-rule="nonzero" fill-opacity="1" /></svg>
