<?xml version="1.0" encoding="utf-8"?>
<svg xmlns="http://www.w3.org/2000/svg" xmlns:xlink="http://www.w3.org/1999/xlink" width="600" height="400" viewBox="0 0 2400 1600">
<defs>
  <clipPath id="clip100">
    <rect x="0" y="0" width="2400" height="1600"/>
  </clipPath>
</defs>
<path clip-path="url(#clip100)" d="M0 1600 L2400 1600 L2400 0 L0 0  Z" fill="#ffffff" fill-rule="evenodd" fill-opacity="1"/>
<defs>
  <clipPath id="clip101">
    <rect x="480" y="0" width="1681" height="1600"/>
  </clipPath>
</defs>
<path clip-path="url(#clip100)" d="M224.098 1423.18 L2352.76 1423.18 L2352.76 47.2441 L224.098 47.2441  Z" fill="#ffffff" fill-rule="evenodd" fill-opacity="1"/>
<defs>
  <clipPath id="clip102">
    <rect x="224" y="47" width="2130" height="1377"/>
  </clipPath>
</defs>
<polyline clip-path="url(#clip102)" style="stroke:#000000; stroke-linecap:round; stroke-linejoin:round; stroke-width:2; stroke-opacity:0.1; fill:none" points="284.343,1423.18 284.343,47.2441 "/>
<polyline clip-path="url(#clip102)" style="stroke:#000000; stroke-linecap:round; stroke-linejoin:round; stroke-width:2; stroke-opacity:0.1; fill:none" points="953.732,1423.18 953.732,47.2441 "/>
<polyline clip-path="url(#clip102)" style="stroke:#000000; stroke-linecap:round; stroke-linejoin:round; stroke-width:2; stroke-opacity:0.1; fill:none" points="1623.12,1423.18 1623.12,47.2441 "/>
<polyline clip-path="url(#clip102)" style="stroke:#000000; stroke-linecap:round; stroke-linejoin:round; stroke-width:2; stroke-opacity:0.1; fill:none" points="2292.51,1423.18 2292.51,47.2441 "/>
<polyline clip-path="url(#clip102)" style="stroke:#000000; stroke-linecap:round; stroke-linejoin:round; stroke-width:2; stroke-opacity:0.1; fill:none" points="224.098,1414.42 2352.76,1414.42 "/>
<polyline clip-path="url(#clip102)" style="stroke:#000000; stroke-linecap:round; stroke-linejoin:round; stroke-width:2; stroke-opacity:0.1; fill:none" points="224.098,1001.82 2352.76,1001.82 "/>
<polyline clip-path="url(#clip102)" style="stroke:#000000; stroke-linecap:round; stroke-linejoin:round; stroke-width:2; stroke-opacity:0.1; fill:none" points="224.098,589.211 2352.76,589.211 "/>
<polyline clip-path="url(#clip102)" style="stroke:#000000; stroke-linecap:round; stroke-linejoin:round; stroke-width:2; stroke-opacity:0.1; fill:none" points="224.098,176.606 2352.76,176.606 "/>
<polyline clip-path="url(#clip100)" style="stroke:#000000; stroke-linecap:round; stroke-linejoin:round; stroke-width:4; stroke-opacity:1; fill:none" points="224.098,1423.18 2352.76,1423.18 "/>
<polyline clip-path="url(#clip100)" style="stroke:#000000; stroke-linecap:round; stroke-linejoin:round; stroke-width:4; stroke-opacity:1; fill:none" points="284.343,1423.18 284.343,1404.28 "/>
<polyline clip-path="url(#clip100)" style="stroke:#000000; stroke-linecap:round; stroke-linejoin:round; stroke-width:4; stroke-opacity:1; fill:none" points="953.732,1423.18 953.732,1404.28 "/>
<polyline clip-path="url(#clip100)" style="stroke:#000000; stroke-linecap:round; stroke-linejoin:round; stroke-width:4; stroke-opacity:1; fill:none" points="1623.12,1423.18 1623.12,1404.28 "/>
<polyline clip-path="url(#clip100)" style="stroke:#000000; stroke-linecap:round; stroke-linejoin:round; stroke-width:4; stroke-opacity:1; fill:none" points="2292.51,1423.18 2292.51,1404.28 "/>
<path clip-path="url(#clip100)" d="M284.343 1454.1 Q280.732 1454.1 278.903 1457.66 Q277.098 1461.2 277.098 1468.33 Q277.098 1475.44 278.903 1479.01 Q280.732 1482.55 284.343 1482.55 Q287.977 1482.55 289.783 1479.01 Q291.611 1475.44 291.611 1468.33 Q291.611 1461.2 289.783 1457.66 Q287.977 1454.1 284.343 1454.1 M284.343 1450.39 Q290.153 1450.39 293.209 1455 Q296.287 1459.58 296.287 1468.33 Q296.287 1477.06 293.209 1481.67 Q290.153 1486.25 284.343 1486.25 Q278.533 1486.25 275.454 1481.67 Q272.399 1477.06 272.399 1468.33 Q272.399 1459.58 275.454 1455 Q278.533 1450.39 284.343 1450.39 Z" fill="#000000" fill-rule="nonzero" fill-opacity="1" /><path clip-path="url(#clip100)" d="M944.114 1481.64 L951.753 1481.64 L951.753 1455.28 L943.443 1456.95 L943.443 1452.69 L951.707 1451.02 L956.383 1451.02 L956.383 1481.64 L964.022 1481.64 L964.022 1485.58 L944.114 1485.58 L944.114 1481.64 Z" fill="#000000" fill-rule="nonzero" fill-opacity="1" /><path clip-path="url(#clip100)" d="M1617.77 1481.64 L1634.09 1481.64 L1634.09 1485.58 L1612.15 1485.58 L1612.15 1481.64 Q1614.81 1478.89 1619.39 1474.26 Q1624 1469.61 1625.18 1468.27 Q1627.43 1465.74 1628.31 1464.01 Q1629.21 1462.25 1629.21 1460.56 Q1629.21 1457.8 1627.27 1456.07 Q1625.34 1454.33 1622.24 1454.33 Q1620.04 1454.33 1617.59 1455.09 Q1615.16 1455.86 1612.38 1457.41 L1612.38 1452.69 Q1615.2 1451.55 1617.66 1450.97 Q1620.11 1450.39 1622.15 1450.39 Q1627.52 1450.39 1630.71 1453.08 Q1633.91 1455.77 1633.91 1460.26 Q1633.91 1462.39 1633.1 1464.31 Q1632.31 1466.2 1630.2 1468.8 Q1629.63 1469.47 1626.52 1472.69 Q1623.42 1475.88 1617.77 1481.64 Z" fill="#000000" fill-rule="nonzero" fill-opacity="1" /><path clip-path="url(#clip100)" d="M2296.76 1466.95 Q2300.11 1467.66 2301.99 1469.93 Q2303.89 1472.2 2303.89 1475.53 Q2303.89 1480.65 2300.37 1483.45 Q2296.85 1486.25 2290.37 1486.25 Q2288.19 1486.25 2285.88 1485.81 Q2283.59 1485.39 2281.13 1484.54 L2281.13 1480.02 Q2283.08 1481.16 2285.39 1481.74 Q2287.71 1482.32 2290.23 1482.32 Q2294.63 1482.32 2296.92 1480.58 Q2299.24 1478.84 2299.24 1475.53 Q2299.24 1472.48 2297.08 1470.77 Q2294.95 1469.03 2291.13 1469.03 L2287.11 1469.03 L2287.11 1465.19 L2291.32 1465.19 Q2294.77 1465.19 2296.6 1463.82 Q2298.43 1462.43 2298.43 1459.84 Q2298.43 1457.18 2296.53 1455.77 Q2294.65 1454.33 2291.13 1454.33 Q2289.21 1454.33 2287.01 1454.75 Q2284.81 1455.16 2282.18 1456.04 L2282.18 1451.88 Q2284.84 1451.14 2287.15 1450.77 Q2289.49 1450.39 2291.55 1450.39 Q2296.87 1450.39 2299.98 1452.83 Q2303.08 1455.23 2303.08 1459.35 Q2303.08 1462.22 2301.43 1464.21 Q2299.79 1466.18 2296.76 1466.95 Z" fill="#000000" fill-rule="nonzero" fill-opacity="1" /><path clip-path="url(#clip100)" d="M1287.49 1522.27 L1287.49 1532.4 L1299.55 1532.4 L1299.55 1536.95 L1287.49 1536.95 L1287.49 1556.3 Q1287.49 1560.66 1288.67 1561.9 Q1289.88 1563.14 1293.54 1563.14 L1299.55 1563.14 L1299.55 1568.04 L1293.54 1568.04 Q1286.76 1568.04 1284.18 1565.53 Q1281.6 1562.98 1281.6 1556.3 L1281.6 1536.95 L1277.3 1536.95 L1277.3 1532.4 L1281.6 1532.4 L1281.6 1522.27 L1287.49 1522.27 Z" fill="#000000" fill-rule="nonzero" fill-opacity="1" /><polyline clip-path="url(#clip100)" style="stroke:#000000; stroke-linecap:round; stroke-linejoin:round; stroke-width:4; stroke-opacity:1; fill:none" points="224.098,1423.18 224.098,47.2441 "/>
<polyline clip-path="url(#clip100)" style="stroke:#000000; stroke-linecap:round; stroke-linejoin:round; stroke-width:4; stroke-opacity:1; fill:none" points="224.098,1414.42 242.996,1414.42 "/>
<polyline clip-path="url(#clip100)" style="stroke:#000000; stroke-linecap:round; stroke-linejoin:round; stroke-width:4; stroke-opacity:1; fill:none" points="224.098,1001.82 242.996,1001.82 "/>
<polyline clip-path="url(#clip100)" style="stroke:#000000; stroke-linecap:round; stroke-linejoin:round; stroke-width:4; stroke-opacity:1; fill:none" points="224.098,589.211 242.996,589.211 "/>
<polyline clip-path="url(#clip100)" style="stroke:#000000; stroke-linecap:round; stroke-linejoin:round; stroke-width:4; stroke-opacity:1; fill:none" points="224.098,176.606 242.996,176.606 "/>
<path clip-path="url(#clip100)" d="M51.9875 1414.87 L81.6633 1414.87 L81.6633 1418.81 L51.9875 1418.81 L51.9875 1414.87 Z" fill="#000000" fill-rule="nonzero" fill-opacity="1" /><path clip-path="url(#clip100)" d="M101.756 1400.22 Q98.1447 1400.22 96.316 1403.78 Q94.5104 1407.33 94.5104 1414.46 Q94.5104 1421.56 96.316 1425.13 Q98.1447 1428.67 101.756 1428.67 Q105.39 1428.67 107.196 1425.13 Q109.024 1421.56 109.024 1414.46 Q109.024 1407.33 107.196 1403.78 Q105.39 1400.22 101.756 1400.22 M101.756 1396.52 Q107.566 1396.52 110.621 1401.12 Q113.7 1405.71 113.7 1414.46 Q113.7 1423.18 110.621 1427.79 Q107.566 1432.37 101.756 1432.37 Q95.9456 1432.37 92.8669 1427.79 Q89.8114 1423.18 89.8114 1414.46 Q89.8114 1405.71 92.8669 1401.12 Q95.9456 1396.52 101.756 1396.52 Z" fill="#000000" fill-rule="nonzero" fill-opacity="1" /><path clip-path="url(#clip100)" d="M121.918 1425.82 L126.802 1425.82 L126.802 1431.7 L121.918 1431.7 L121.918 1425.82 Z" fill="#000000" fill-rule="nonzero" fill-opacity="1" /><path clip-path="url(#clip100)" d="M137.797 1427.77 L145.436 1427.77 L145.436 1401.4 L137.126 1403.07 L137.126 1398.81 L145.39 1397.14 L150.066 1397.14 L150.066 1427.77 L157.705 1427.77 L157.705 1431.7 L137.797 1431.7 L137.797 1427.77 Z" fill="#000000" fill-rule="nonzero" fill-opacity="1" /><path clip-path="url(#clip100)" d="M167.195 1397.14 L185.552 1397.14 L185.552 1401.08 L171.478 1401.08 L171.478 1409.55 Q172.496 1409.2 173.515 1409.04 Q174.533 1408.85 175.552 1408.85 Q181.339 1408.85 184.718 1412.02 Q188.098 1415.2 188.098 1420.61 Q188.098 1426.19 184.626 1429.29 Q181.153 1432.37 174.834 1432.37 Q172.658 1432.37 170.39 1432 Q168.144 1431.63 165.737 1430.89 L165.737 1426.19 Q167.82 1427.33 170.042 1427.88 Q172.265 1428.44 174.741 1428.44 Q178.746 1428.44 181.084 1426.33 Q183.422 1424.22 183.422 1420.61 Q183.422 1417 181.084 1414.89 Q178.746 1412.79 174.741 1412.79 Q172.866 1412.79 170.991 1413.21 Q169.14 1413.62 167.195 1414.5 L167.195 1397.14 Z" fill="#000000" fill-rule="nonzero" fill-opacity="1" /><path clip-path="url(#clip100)" d="M50.9921 1002.27 L80.6679 1002.27 L80.6679 1006.2 L50.9921 1006.2 L50.9921 1002.27 Z" fill="#000000" fill-rule="nonzero" fill-opacity="1" /><path clip-path="url(#clip100)" d="M100.76 987.614 Q97.1493 987.614 95.3206 991.179 Q93.515 994.721 93.515 1001.85 Q93.515 1008.96 95.3206 1012.52 Q97.1493 1016.06 100.76 1016.06 Q104.395 1016.06 106.2 1012.52 Q108.029 1008.96 108.029 1001.85 Q108.029 994.721 106.2 991.179 Q104.395 987.614 100.76 987.614 M100.76 983.911 Q106.571 983.911 109.626 988.517 Q112.705 993.1 112.705 1001.85 Q112.705 1010.58 109.626 1015.18 Q106.571 1019.77 100.76 1019.77 Q94.9502 1019.77 91.8715 1015.18 Q88.816 1010.58 88.816 1001.85 Q88.816 993.1 91.8715 988.517 Q94.9502 983.911 100.76 983.911 Z" fill="#000000" fill-rule="nonzero" fill-opacity="1" /><path clip-path="url(#clip100)" d="M120.922 1013.22 L125.807 1013.22 L125.807 1019.1 L120.922 1019.1 L120.922 1013.22 Z" fill="#000000" fill-rule="nonzero" fill-opacity="1" /><path clip-path="url(#clip100)" d="M136.802 1015.16 L144.441 1015.16 L144.441 988.795 L136.131 990.461 L136.131 986.202 L144.394 984.536 L149.07 984.536 L149.07 1015.16 L156.709 1015.16 L156.709 1019.1 L136.802 1019.1 L136.802 1015.16 Z" fill="#000000" fill-rule="nonzero" fill-opacity="1" /><path clip-path="url(#clip100)" d="M176.153 987.614 Q172.542 987.614 170.714 991.179 Q168.908 994.721 168.908 1001.85 Q168.908 1008.96 170.714 1012.52 Q172.542 1016.06 176.153 1016.06 Q179.788 1016.06 181.593 1012.52 Q183.422 1008.96 183.422 1001.85 Q183.422 994.721 181.593 991.179 Q179.788 987.614 176.153 987.614 M176.153 983.911 Q181.964 983.911 185.019 988.517 Q188.098 993.1 188.098 1001.85 Q188.098 1010.58 185.019 1015.18 Q181.964 1019.77 176.153 1019.77 Q170.343 1019.77 167.265 1015.18 Q164.209 1010.58 164.209 1001.85 Q164.209 993.1 167.265 988.517 Q170.343 983.911 176.153 983.911 Z" fill="#000000" fill-rule="nonzero" fill-opacity="1" /><path clip-path="url(#clip100)" d="M51.9875 589.662 L81.6633 589.662 L81.6633 593.597 L51.9875 593.597 L51.9875 589.662 Z" fill="#000000" fill-rule="nonzero" fill-opacity="1" /><path clip-path="url(#clip100)" d="M101.756 575.01 Q98.1447 575.01 96.316 578.574 Q94.5104 582.116 94.5104 589.246 Q94.5104 596.352 96.316 599.917 Q98.1447 603.458 101.756 603.458 Q105.39 603.458 107.196 599.917 Q109.024 596.352 109.024 589.246 Q109.024 582.116 107.196 578.574 Q105.39 575.01 101.756 575.01 M101.756 571.306 Q107.566 571.306 110.621 575.912 Q113.7 580.496 113.7 589.246 Q113.7 597.972 110.621 602.579 Q107.566 607.162 101.756 607.162 Q95.9456 607.162 92.8669 602.579 Q89.8114 597.972 89.8114 589.246 Q89.8114 580.496 92.8669 575.912 Q95.9456 571.306 101.756 571.306 Z" fill="#000000" fill-rule="nonzero" fill-opacity="1" /><path clip-path="url(#clip100)" d="M121.918 600.611 L126.802 600.611 L126.802 606.491 L121.918 606.491 L121.918 600.611 Z" fill="#000000" fill-rule="nonzero" fill-opacity="1" /><path clip-path="url(#clip100)" d="M146.987 575.01 Q143.376 575.01 141.547 578.574 Q139.742 582.116 139.742 589.246 Q139.742 596.352 141.547 599.917 Q143.376 603.458 146.987 603.458 Q150.621 603.458 152.427 599.917 Q154.255 596.352 154.255 589.246 Q154.255 582.116 152.427 578.574 Q150.621 575.01 146.987 575.01 M146.987 571.306 Q152.797 571.306 155.853 575.912 Q158.931 580.496 158.931 589.246 Q158.931 597.972 155.853 602.579 Q152.797 607.162 146.987 607.162 Q141.177 607.162 138.098 602.579 Q135.043 597.972 135.043 589.246 Q135.043 580.496 138.098 575.912 Q141.177 571.306 146.987 571.306 Z" fill="#000000" fill-rule="nonzero" fill-opacity="1" /><path clip-path="url(#clip100)" d="M167.195 571.931 L185.552 571.931 L185.552 575.866 L171.478 575.866 L171.478 584.338 Q172.496 583.991 173.515 583.829 Q174.533 583.644 175.552 583.644 Q181.339 583.644 184.718 586.815 Q188.098 589.986 188.098 595.403 Q188.098 600.982 184.626 604.083 Q181.153 607.162 174.834 607.162 Q172.658 607.162 170.39 606.792 Q168.144 606.421 165.737 605.681 L165.737 600.982 Q167.82 602.116 170.042 602.671 Q172.265 603.227 174.741 603.227 Q178.746 603.227 181.084 601.12 Q183.422 599.014 183.422 595.403 Q183.422 591.792 181.084 589.685 Q178.746 587.579 174.741 587.579 Q172.866 587.579 170.991 587.996 Q169.14 588.412 167.195 589.292 L167.195 571.931 Z" fill="#000000" fill-rule="nonzero" fill-opacity="1" /><path clip-path="url(#clip100)" d="M100.76 162.405 Q97.1493 162.405 95.3206 165.97 Q93.515 169.511 93.515 176.641 Q93.515 183.747 95.3206 187.312 Q97.1493 190.854 100.76 190.854 Q104.395 190.854 106.2 187.312 Q108.029 183.747 108.029 176.641 Q108.029 169.511 106.2 165.97 Q104.395 162.405 100.76 162.405 M100.76 158.701 Q106.571 158.701 109.626 163.308 Q112.705 167.891 112.705 176.641 Q112.705 185.368 109.626 189.974 Q106.571 194.557 100.76 194.557 Q94.9502 194.557 91.8715 189.974 Q88.816 185.368 88.816 176.641 Q88.816 167.891 91.8715 163.308 Q94.9502 158.701 100.76 158.701 Z" fill="#000000" fill-rule="nonzero" fill-opacity="1" /><path clip-path="url(#clip100)" d="M120.922 188.006 L125.807 188.006 L125.807 193.886 L120.922 193.886 L120.922 188.006 Z" fill="#000000" fill-rule="nonzero" fill-opacity="1" /><path clip-path="url(#clip100)" d="M145.992 162.405 Q142.381 162.405 140.552 165.97 Q138.746 169.511 138.746 176.641 Q138.746 183.747 140.552 187.312 Q142.381 190.854 145.992 190.854 Q149.626 190.854 151.431 187.312 Q153.26 183.747 153.26 176.641 Q153.26 169.511 151.431 165.97 Q149.626 162.405 145.992 162.405 M145.992 158.701 Q151.802 158.701 154.857 163.308 Q157.936 167.891 157.936 176.641 Q157.936 185.368 154.857 189.974 Q151.802 194.557 145.992 194.557 Q140.181 194.557 137.103 189.974 Q134.047 185.368 134.047 176.641 Q134.047 167.891 137.103 163.308 Q140.181 158.701 145.992 158.701 Z" fill="#000000" fill-rule="nonzero" fill-opacity="1" /><path clip-path="url(#clip100)" d="M176.153 162.405 Q172.542 162.405 170.714 165.97 Q168.908 169.511 168.908 176.641 Q168.908 183.747 170.714 187.312 Q172.542 190.854 176.153 190.854 Q179.788 190.854 181.593 187.312 Q183.422 183.747 183.422 176.641 Q183.422 169.511 181.593 165.97 Q179.788 162.405 176.153 162.405 M176.153 158.701 Q181.964 158.701 185.019 163.308 Q188.098 167.891 188.098 176.641 Q188.098 185.368 185.019 189.974 Q181.964 194.557 176.153 194.557 Q170.343 194.557 167.265 189.974 Q164.209 185.368 164.209 176.641 Q164.209 167.891 167.265 163.308 Q170.343 158.701 176.153 158.701 Z" fill="#000000" fill-rule="nonzero" fill-opacity="1" /><polyline clip-path="url(#clip102)" style="stroke:#009af9; stroke-linecap:round; stroke-linejoin:round; stroke-width:4; stroke-opacity:1; fill:none" points="284.343,176.606 291.037,176.33 297.731,177.294 304.425,177.229 311.118,177.949 317.812,179.071 324.506,180.882 331.2,181.564 337.894,182.156 344.588,182.371 351.282,182.986 357.976,184.981 364.67,187.931 371.364,192.334 378.057,196.072 384.751,198.255 391.445,200.563 398.139,201.973 404.833,202.803 411.527,204.643 418.221,206.207 424.915,208.241 431.609,209.993 438.302,209.933 444.996,209.809 451.69,210.426 458.384,210.266 465.078,210.232 471.772,210.033 478.466,209.659 485.16,209.197 491.854,208.875 498.547,209.095 505.241,210.935 511.935,212.915 518.629,214.268 525.323,216.893 532.017,220.77 538.711,224.412 545.405,228.682 552.099,232.916 558.793,237.251 565.486,240.503 572.18,243.795 578.874,247.323 585.568,251.772 592.262,256.274 598.956,260.627 605.65,265.3 612.344,271.083 619.038,276.843 625.731,282.578 632.425,289.592 639.119,295.49 645.813,301.296 652.507,307.119 659.201,313.678 665.895,319.442 672.589,324.572 679.283,329.677 685.977,335.056 692.67,339.916 699.364,344.678 706.058,349.582 712.752,355.778 719.446,362.476 726.14,367.859 732.834,375.144 739.528,382.696 746.222,389.558 752.915,397.083 759.609,403.933 766.303,410.215 772.997,416.535 779.691,420.743 786.385,423.79 793.079,428.336 799.773,433.788 806.467,438.591 813.16,443.323 819.854,448.008 826.548,452.07 833.242,456.102 839.936,459.307 846.63,462.754 853.324,465.518 860.018,467.933 866.712,469.915 873.406,471.729 880.099,474.156 886.793,476.943 893.487,478.915 900.181,482.118 906.875,486.369 913.569,490.821 920.263,497.013 926.957,503.021 933.651,509.408 940.344,515.092 947.038,520.254 953.732,525.558 960.426,529.49 967.12,533.653 973.814,538.195 980.508,543.259 987.202,547.849 993.896,552.482 1000.59,557.206 1007.28,562.228 1013.98,566.384 1020.67,570.175 1027.37,574.197 1034.06,578.351 1040.75,582.445 1047.45,587.092 1054.14,591.462 1060.83,596.189 1067.53,600.975 1074.22,606.531 1080.92,611.147 1087.61,615.916 1094.3,619.839 1101,623.812 1107.69,628.531 1114.39,634.402 1121.08,639.098 1127.77,643.651 1134.47,649.656 1141.16,655.426 1147.86,660.468 1154.55,665.287 1161.24,671.105 1167.94,676.283 1174.63,680.611 1181.32,684.826 1188.02,689.465 1194.71,692.707 1201.41,695.113 1208.1,697.391 1214.79,699.817 1221.49,702.844 1228.18,705.869 1234.88,709.442 1241.57,711.828 1248.26,715.054 1254.96,717.066 1261.65,719.906 1268.35,722.943 1275.04,724.625 1281.73,726.968 1288.43,730.594 1295.12,733.224 1301.81,735.157 1308.51,735.435 1315.2,735.629 1321.9,736.673 1328.59,738.586 1335.28,740.11 1341.98,740.994 1348.67,742.405 1355.37,744.257 1362.06,746.22 1368.75,747.957 1375.45,749.225 1382.14,749.799 1388.84,751.042 1395.53,752.288 1402.22,753.994 1408.92,756.787 1415.61,760.102 1422.3,763.265 1429,767.467 1435.69,771.964 1442.39,776.286 1449.08,781.145 1455.77,787.077 1462.47,793.095 1469.16,799.692 1475.86,805.733 1482.55,811.523 1489.24,817.05 1495.94,822.473 1502.63,828.9 1509.33,835.58 1516.02,841.645 1522.71,848.099 1529.41,854.666 1536.1,861.956 1542.79,869.695 1549.49,876.249 1556.18,881.973 1562.88,886.878 1569.57,891.763 1576.26,896.733 1582.96,901.284 1589.65,906.143 1596.35,909.304 1603.04,913.958 1609.73,918.474 1616.43,923.831 1623.12,929.49 1629.82,935.129 1636.51,941.369 1643.2,947.556 1649.9,954.265 1656.59,960.387 1663.28,965.787 1669.98,970.94 1676.67,976.662 1683.37,984.124 1690.06,989.716 1696.75,995.841 1703.45,1002.65 1710.14,1009.78 1716.84,1017.09 1723.53,1024 1730.22,1030.49 1736.92,1037.66 1743.61,1044.79 1750.31,1051.42 1757,1059.76 1763.69,1067.48 1770.39,1074.68 1777.08,1082.2 1783.77,1090.31 1790.47,1096.81 1797.16,1104.35 1803.86,1111.67 1810.55,1118.92 1817.24,1125.49 1823.94,1132.72 1830.63,1140.07 1837.33,1146.18 1844.02,1152.1 1850.71,1157.04 1857.41,1161.36 1864.1,1166.07 1870.8,1170.41 1877.49,1174.69 1884.18,1180.33 1890.88,1185.4 1897.57,1190.84 1904.27,1196.8 1910.96,1203.17 1917.65,1207.78 1924.35,1213.1 1931.04,1219.84 1937.73,1227.23 1944.43,1234.02 1951.12,1240.34 1957.82,1246.7 1964.51,1252.65 1971.2,1259.55 1977.9,1265.31 1984.59,1272.42 1991.29,1278.88 1997.98,1285.37 2004.67,1291.22 2011.37,1296.41 2018.06,1301.19 2024.76,1304.88 2031.45,1308.95 2038.14,1311.93 2044.84,1314.29 2051.53,1316.7 2058.22,1319.73 2064.92,1322.75 2071.61,1326.97 2078.31,1331.49 2085,1336.21 2091.69,1340.4 2098.39,1342.01 2105.08,1343.43 2111.78,1345.11 2118.47,1346.8 2125.16,1348.76 2131.86,1350.47 2138.55,1351.49 2145.25,1351.29 2151.94,1350.39 2158.63,1349.87 2165.33,1349.36 2172.02,1349.45 2178.71,1349.12 2185.41,1348.67 2192.1,1348.93 2198.8,1349.23 2205.49,1349.08 2212.18,1348.49 2218.88,1349.25 2225.57,1351.11 2232.27,1353.45 2238.96,1357.58 2245.65,1361.68 2252.35,1364.79 2259.04,1367.1 2265.74,1369.74 2272.43,1373.18 2279.12,1376.8 2285.82,1380.86 2292.51,1384.24 "/>
<polyline clip-path="url(#clip102)" style="stroke:#e26f46; stroke-linecap:round; stroke-linejoin:round; stroke-width:4; stroke-opacity:1; fill:none" points="284.343,148.984 291.037,273.07 297.731,170.091 304.425,248.546 311.118,288.829 317.812,357.694 324.506,244.805 331.2,235.784 337.894,198.107 344.588,238.128 351.282,376.077 357.976,471.696 364.67,616.858 371.364,550.363 378.057,394.932 384.751,407.389 391.445,317.666 398.139,259.556 404.833,360.646 411.527,332.957 418.221,380.024 424.915,351.776 431.609,170.677 438.302,164.23 444.996,238.298 451.69,160.557 458.384,173.234 465.078,156.649 471.772,139.276 478.466,130.375 485.16,144.45 491.854,198.55 498.547,360.593 505.241,374.674 511.935,311.884 518.629,439.041 525.323,564.381 532.017,540.774 538.711,603.574 545.405,600.059 552.099,610.091 558.793,501.785 565.486,505.785 572.18,529.48 578.874,621.492 585.568,626.772 592.262,611.902 598.956,643.943 605.65,754.931 612.344,752.546 619.038,750.136 625.731,878.009 632.425,766.339 639.119,757.256 645.813,758.911 652.507,832.532 659.201,753.008 665.895,689.532 672.589,687.104 679.283,714.509 685.977,662.619 692.67,652.842 699.364,666.949 706.058,796.26 712.752,846.43 719.446,714.92 726.14,905.104 732.834,931.73 739.528,862.847 746.222,929.075 752.915,861.583 759.609,804.891 766.303,808.561 772.997,597.433 779.691,481.243 786.385,631.239 793.079,721.805 799.773,656.956 806.467,649.76 813.16,645.14 819.854,582.794 826.548,579.769 833.242,497.128 839.936,521.326 846.63,452.952 853.324,418.13 860.018,374.842 866.712,357.97 873.406,419.294 880.099,455.334 886.793,373.781 893.487,496.951 900.181,601.634 906.875,621.889 913.569,795.763 920.263,777.388 926.957,815.336 933.651,745.037 940.344,692.762 947.038,706.984 953.732,569.819 960.426,592.921 967.12,630.797 973.814,683.057 980.508,635.546 987.202,639.882 993.896,649.067 1000.59,678.771 1007.28,592.23 1013.98,555.699 1020.67,578.84 1027.37,591.967 1034.06,586.006 1040.75,641.348 1047.45,613.597 1054.14,649.236 1060.83,655.25 1067.53,732.216 1074.22,638.151 1080.92,653.554 1087.61,568.952 1094.3,573.874 1101,648.459 1107.69,763.743 1114.39,646.214 1121.08,631.848 1127.77,777.11 1134.47,753.66 1141.16,680.829 1147.86,658.46 1154.55,758.456 1161.24,694.381 1167.94,609.375 1174.63,598.088 1181.32,640.572 1188.02,500.815 1194.71,417.174 1201.41,404.43 1208.1,419.123 1214.79,479.335 1221.49,479.153 1228.18,533.85 1234.88,415.223 1241.57,499.172 1248.26,377.807 1254.96,460.681 1261.65,480.287 1268.35,344.757 1275.04,410.902 1281.73,539.292 1288.43,439.59 1295.12,369.859 1301.81,204.476 1308.51,195.937 1315.2,280.994 1321.9,367.955 1328.59,329.006 1335.28,265.036 1341.98,317.694 1348.67,361.733 1355.37,372.954 1362.06,350.332 1368.75,303.352 1375.45,234.041 1382.14,300.84 1388.84,301.226 1395.53,347.238 1402.22,455.879 1408.92,508.134 1415.61,492.909 1422.3,596.789 1429,626.269 1435.69,608.875 1442.39,662.491 1449.08,769.829 1455.77,778.403 1462.47,836.303 1469.16,780.715 1475.86,755.53 1482.55,729.376 1489.24,718.831 1495.94,819.325 1502.63,844.629 1509.33,783.115 1516.02,821.991 1522.71,833.334 1529.41,905.619 1536.1,950.497 1542.79,831.986 1549.49,749.027 1556.18,667.132 1562.88,665.066 1569.57,673.572 1576.26,631.752 1582.96,662.47 1589.65,492.705 1596.35,642.028 1603.04,628.236 1609.73,712.294 1616.43,742.505 1623.12,740.521 1629.82,800.556 1636.51,795.29 1643.2,847.516 1649.9,788.83 1656.59,716.64 1663.28,691.873 1669.98,748.81 1676.67,922.793 1683.37,735.809 1690.06,789.103 1696.75,857.871 1703.45,889.503 1710.14,907.815 1716.84,867.353 1723.53,825.679 1730.22,893.07 1736.92,889.787 1743.61,840.154 1750.31,1009.71 1757,948.88 1763.69,896.985 1770.39,928.101 1777.08,987.677 1783.77,827.174 1790.47,930.121 1797.16,908.85 1803.86,901.617 1810.55,832.982 1817.24,899.769 1823.94,912.34 1830.63,786.72 1837.33,768.991 1844.02,670.391 1850.71,608.784 1857.41,647.28 1864.1,611.34 1870.8,604.198 1877.49,740.746 1884.18,683.44 1890.88,720.561 1897.57,772.461 1904.27,813.626 1910.96,637.632 1917.65,709.274 1924.35,849.797 1931.04,916.157 1937.73,855.939 1944.43,808.362 1951.12,812.677 1957.82,771.682 1964.51,865.884 1971.2,752.637 1977.9,887.732 1984.59,823.041 1991.29,825.477 1997.98,761.553 2004.67,695.307 2011.37,654.5 2018.06,545.512 2024.76,584.208 2031.45,474.764 2038.14,412.095 2044.84,417.456 2051.53,479.979 2058.22,479.039 2064.92,598.645 2071.61,628.246 2078.31,648.797 2085,595.016 2091.69,337.576 2098.39,319.137 2105.08,344.35 2111.78,345.354 2118.47,373.313 2125.16,347.021 2131.86,279.076 2138.55,156.325 2145.25,86.1857 2151.94,125.274 2158.63,125.397 2165.33,185.63 2172.02,143.351 2178.71,132.138 2185.41,201.954 2192.1,206.413 2198.8,161.745 2205.49,117.589 2212.18,253.274 2218.88,361.89 2225.57,410.562 2232.27,590.358 2238.96,586.549 2245.65,487.206 2252.35,407.325 2259.04,441.037 2265.74,520.351 2272.43,538.788 2279.12,583.001 2285.82,514.124 2292.51,600.766 "/>
<path clip-path="url(#clip100)" d="M295.053 1377.32 L733.496 1377.32 L733.496 1221.8 L295.053 1221.8  Z" fill="#ffffff" fill-rule="evenodd" fill-opacity="1"/>
<polyline clip-path="url(#clip100)" style="stroke:#000000; stroke-linecap:round; stroke-linejoin:round; stroke-width:4; stroke-opacity:1; fill:none" points="295.053,1377.32 733.496,1377.32 733.496,1221.8 295.053,1221.8 295.053,1377.32 "/>
<polyline clip-path="url(#clip100)" style="stroke:#009af9; stroke-linecap:round; stroke-linejoin:round; stroke-width:4; stroke-opacity:1; fill:none" points="318.705,1273.64 460.615,1273.64 "/>
<path clip-path="url(#clip100)" d="M498.11 1293.32 Q496.304 1297.95 494.591 1299.36 Q492.878 1300.78 490.008 1300.78 L486.605 1300.78 L486.605 1297.21 L489.105 1297.21 Q490.864 1297.21 491.837 1296.38 Q492.809 1295.54 493.989 1292.44 L494.753 1290.5 L484.267 1264.99 L488.781 1264.99 L496.883 1285.27 L504.985 1264.99 L509.499 1264.99 L498.11 1293.32 Z" fill="#000000" fill-rule="nonzero" fill-opacity="1" /><path clip-path="url(#clip100)" d="M534.568 1287.03 L534.568 1300.78 L530.285 1300.78 L530.285 1264.99 L534.568 1264.99 L534.568 1268.92 Q535.91 1266.61 537.947 1265.5 Q540.008 1264.36 542.855 1264.36 Q547.577 1264.36 550.517 1268.11 Q553.48 1271.86 553.48 1277.98 Q553.48 1284.09 550.517 1287.84 Q547.577 1291.59 542.855 1291.59 Q540.008 1291.59 537.947 1290.48 Q535.91 1289.34 534.568 1287.03 M549.059 1277.98 Q549.059 1273.28 547.114 1270.61 Q545.193 1267.93 541.813 1267.93 Q538.434 1267.93 536.489 1270.61 Q534.568 1273.28 534.568 1277.98 Q534.568 1282.67 536.489 1285.36 Q538.434 1288.02 541.813 1288.02 Q545.193 1288.02 547.114 1285.36 Q549.059 1282.67 549.059 1277.98 Z" fill="#000000" fill-rule="nonzero" fill-opacity="1" /><path clip-path="url(#clip100)" d="M570.586 1267.98 Q567.16 1267.98 565.17 1270.66 Q563.179 1273.32 563.179 1277.98 Q563.179 1282.63 565.146 1285.31 Q567.137 1287.98 570.586 1287.98 Q573.989 1287.98 575.98 1285.29 Q577.97 1282.61 577.97 1277.98 Q577.97 1273.37 575.98 1270.68 Q573.989 1267.98 570.586 1267.98 M570.586 1264.36 Q576.142 1264.36 579.313 1267.98 Q582.484 1271.59 582.484 1277.98 Q582.484 1284.34 579.313 1287.98 Q576.142 1291.59 570.586 1291.59 Q565.007 1291.59 561.836 1287.98 Q558.688 1284.34 558.688 1277.98 Q558.688 1271.59 561.836 1267.98 Q565.007 1264.36 570.586 1264.36 Z" fill="#000000" fill-rule="nonzero" fill-opacity="1" /><path clip-path="url(#clip100)" d="M606.072 1265.75 L606.072 1269.78 Q604.267 1268.86 602.322 1268.39 Q600.378 1267.93 598.294 1267.93 Q595.123 1267.93 593.526 1268.9 Q591.952 1269.87 591.952 1271.82 Q591.952 1273.3 593.086 1274.16 Q594.22 1274.99 597.646 1275.75 L599.105 1276.08 Q603.642 1277.05 605.54 1278.83 Q607.461 1280.59 607.461 1283.76 Q607.461 1287.37 604.591 1289.48 Q601.743 1291.59 596.743 1291.59 Q594.66 1291.59 592.392 1291.17 Q590.146 1290.78 587.646 1289.97 L587.646 1285.57 Q590.007 1286.79 592.299 1287.42 Q594.591 1288.02 596.836 1288.02 Q599.845 1288.02 601.466 1287 Q603.086 1285.96 603.086 1284.09 Q603.086 1282.35 601.905 1281.42 Q600.748 1280.5 596.79 1279.64 L595.308 1279.3 Q591.35 1278.46 589.591 1276.75 Q587.831 1275.01 587.831 1272 Q587.831 1268.35 590.424 1266.36 Q593.017 1264.36 597.785 1264.36 Q600.146 1264.36 602.23 1264.71 Q604.313 1265.06 606.072 1265.75 Z" fill="#000000" fill-rule="nonzero" fill-opacity="1" /><path clip-path="url(#clip100)" d="M614.243 1264.99 L618.503 1264.99 L618.503 1290.92 L614.243 1290.92 L614.243 1264.99 M614.243 1254.9 L618.503 1254.9 L618.503 1260.29 L614.243 1260.29 L614.243 1254.9 Z" fill="#000000" fill-rule="nonzero" fill-opacity="1" /><path clip-path="url(#clip100)" d="M631.628 1257.63 L631.628 1264.99 L640.401 1264.99 L640.401 1268.3 L631.628 1268.3 L631.628 1282.37 Q631.628 1285.54 632.484 1286.45 Q633.364 1287.35 636.026 1287.35 L640.401 1287.35 L640.401 1290.92 L636.026 1290.92 Q631.095 1290.92 629.22 1289.09 Q627.345 1287.23 627.345 1282.37 L627.345 1268.3 L624.22 1268.3 L624.22 1264.99 L627.345 1264.99 L627.345 1257.63 L631.628 1257.63 Z" fill="#000000" fill-rule="nonzero" fill-opacity="1" /><path clip-path="url(#clip100)" d="M646.002 1264.99 L650.262 1264.99 L650.262 1290.92 L646.002 1290.92 L646.002 1264.99 M646.002 1254.9 L650.262 1254.9 L650.262 1260.29 L646.002 1260.29 L646.002 1254.9 Z" fill="#000000" fill-rule="nonzero" fill-opacity="1" /><path clip-path="url(#clip100)" d="M669.22 1267.98 Q665.794 1267.98 663.803 1270.66 Q661.813 1273.32 661.813 1277.98 Q661.813 1282.63 663.78 1285.31 Q665.771 1287.98 669.22 1287.98 Q672.623 1287.98 674.613 1285.29 Q676.604 1282.61 676.604 1277.98 Q676.604 1273.37 674.613 1270.68 Q672.623 1267.98 669.22 1267.98 M669.22 1264.36 Q674.775 1264.36 677.947 1267.98 Q681.118 1271.59 681.118 1277.98 Q681.118 1284.34 677.947 1287.98 Q674.775 1291.59 669.22 1291.59 Q663.641 1291.59 660.47 1287.98 Q657.322 1284.34 657.322 1277.98 Q657.322 1271.59 660.47 1267.98 Q663.641 1264.36 669.22 1264.36 Z" fill="#000000" fill-rule="nonzero" fill-opacity="1" /><path clip-path="url(#clip100)" d="M709.729 1275.27 L709.729 1290.92 L705.47 1290.92 L705.47 1275.41 Q705.47 1271.73 704.035 1269.9 Q702.599 1268.07 699.729 1268.07 Q696.28 1268.07 694.289 1270.27 Q692.298 1272.47 692.298 1276.26 L692.298 1290.92 L688.016 1290.92 L688.016 1264.99 L692.298 1264.99 L692.298 1269.02 Q693.826 1266.68 695.886 1265.52 Q697.97 1264.36 700.678 1264.36 Q705.146 1264.36 707.437 1267.14 Q709.729 1269.9 709.729 1275.27 Z" fill="#000000" fill-rule="nonzero" fill-opacity="1" /><polyline clip-path="url(#clip100)" style="stroke:#e26f46; stroke-linecap:round; stroke-linejoin:round; stroke-width:4; stroke-opacity:1; fill:none" points="318.705,1325.48 460.615,1325.48 "/>
<path clip-path="url(#clip100)" d="M498.11 1345.16 Q496.304 1349.79 494.591 1351.2 Q492.878 1352.62 490.008 1352.62 L486.605 1352.62 L486.605 1349.05 L489.105 1349.05 Q490.864 1349.05 491.837 1348.22 Q492.809 1347.38 493.989 1344.28 L494.753 1342.34 L484.267 1316.83 L488.781 1316.83 L496.883 1337.11 L504.985 1316.83 L509.499 1316.83 L498.11 1345.16 Z" fill="#000000" fill-rule="nonzero" fill-opacity="1" /><path clip-path="url(#clip100)" d="M527.392 1316.83 L531.906 1316.83 L540.008 1338.59 L548.109 1316.83 L552.623 1316.83 L542.901 1342.76 L537.114 1342.76 L527.392 1316.83 Z" fill="#000000" fill-rule="nonzero" fill-opacity="1" /><path clip-path="url(#clip100)" d="M580.679 1328.73 L580.679 1330.81 L561.095 1330.81 Q561.373 1335.21 563.734 1337.52 Q566.119 1339.82 570.355 1339.82 Q572.808 1339.82 575.1 1339.21 Q577.415 1338.61 579.683 1337.41 L579.683 1341.44 Q577.392 1342.41 574.984 1342.92 Q572.577 1343.43 570.1 1343.43 Q563.896 1343.43 560.262 1339.82 Q556.651 1336.2 556.651 1330.05 Q556.651 1323.68 560.077 1319.95 Q563.526 1316.2 569.359 1316.2 Q574.591 1316.2 577.623 1319.58 Q580.679 1322.94 580.679 1328.73 M576.419 1327.48 Q576.373 1323.98 574.452 1321.9 Q572.554 1319.82 569.406 1319.82 Q565.841 1319.82 563.688 1321.83 Q561.558 1323.84 561.234 1327.5 L576.419 1327.48 Z" fill="#000000" fill-rule="nonzero" fill-opacity="1" /><path clip-path="url(#clip100)" d="M587.669 1306.74 L591.929 1306.74 L591.929 1342.76 L587.669 1342.76 L587.669 1306.74 Z" fill="#000000" fill-rule="nonzero" fill-opacity="1" /><path clip-path="url(#clip100)" d="M610.887 1319.82 Q607.461 1319.82 605.47 1322.5 Q603.48 1325.16 603.48 1329.82 Q603.48 1334.47 605.447 1337.15 Q607.438 1339.82 610.887 1339.82 Q614.29 1339.82 616.28 1337.13 Q618.271 1334.45 618.271 1329.82 Q618.271 1325.21 616.28 1322.52 Q614.29 1319.82 610.887 1319.82 M610.887 1316.2 Q616.442 1316.2 619.614 1319.82 Q622.785 1323.43 622.785 1329.82 Q622.785 1336.18 619.614 1339.82 Q616.442 1343.43 610.887 1343.43 Q605.308 1343.43 602.137 1339.82 Q598.989 1336.18 598.989 1329.82 Q598.989 1323.43 602.137 1319.82 Q605.308 1316.2 610.887 1316.2 Z" fill="#000000" fill-rule="nonzero" fill-opacity="1" /><path clip-path="url(#clip100)" d="M648.502 1317.82 L648.502 1321.81 Q646.697 1320.81 644.868 1320.32 Q643.063 1319.82 641.211 1319.82 Q637.067 1319.82 634.776 1322.45 Q632.484 1325.07 632.484 1329.82 Q632.484 1334.56 634.776 1337.2 Q637.067 1339.82 641.211 1339.82 Q643.063 1339.82 644.868 1339.33 Q646.697 1338.82 648.502 1337.82 L648.502 1341.76 Q646.72 1342.59 644.799 1343.01 Q642.901 1343.43 640.748 1343.43 Q634.891 1343.43 631.442 1339.75 Q627.993 1336.07 627.993 1329.82 Q627.993 1323.47 631.465 1319.84 Q634.961 1316.2 641.026 1316.2 Q642.993 1316.2 644.868 1316.62 Q646.743 1317.01 648.502 1317.82 Z" fill="#000000" fill-rule="nonzero" fill-opacity="1" /><path clip-path="url(#clip100)" d="M655.91 1316.83 L660.169 1316.83 L660.169 1342.76 L655.91 1342.76 L655.91 1316.83 M655.91 1306.74 L660.169 1306.74 L660.169 1312.13 L655.91 1312.13 L655.91 1306.74 Z" fill="#000000" fill-rule="nonzero" fill-opacity="1" /><path clip-path="url(#clip100)" d="M673.294 1309.47 L673.294 1316.83 L682.067 1316.83 L682.067 1320.14 L673.294 1320.14 L673.294 1334.21 Q673.294 1337.38 674.15 1338.29 Q675.03 1339.19 677.692 1339.19 L682.067 1339.19 L682.067 1342.76 L677.692 1342.76 Q672.762 1342.76 670.887 1340.93 Q669.012 1339.07 669.012 1334.21 L669.012 1320.14 L665.887 1320.14 L665.887 1316.83 L669.012 1316.83 L669.012 1309.47 L673.294 1309.47 Z" fill="#000000" fill-rule="nonzero" fill-opacity="1" /><path clip-path="url(#clip100)" d="M698.456 1345.16 Q696.65 1349.79 694.937 1351.2 Q693.224 1352.62 690.354 1352.62 L686.951 1352.62 L686.951 1349.05 L689.451 1349.05 Q691.211 1349.05 692.183 1348.22 Q693.155 1347.38 694.336 1344.28 L695.099 1342.34 L684.613 1316.83 L689.127 1316.83 L697.229 1337.11 L705.331 1316.83 L709.845 1316.83 L698.456 1345.16 Z" fill="#000000" fill-rule="nonzero" fill-opacity="1" /></svg>
