<?xml version="1.0" encoding="utf-8"?>
<svg xmlns="http://www.w3.org/2000/svg" xmlns:xlink="http://www.w3.org/1999/xlink" width="600" height="400" viewBox="0 0 2400 1600">
<defs>
  <clipPath id="clip390">
    <rect x="0" y="0" width="2400" height="1600"/>
  </clipPath>
</defs>
<path clip-path="url(#clip390)" d="M0 1600 L2400 1600 L2400 0 L0 0  Z" fill="#ffffff" fill-rule="evenodd" fill-opacity="1"/>
<defs>
  <clipPath id="clip391">
    <rect x="480" y="0" width="1681" height="1600"/>
  </clipPath>
</defs>
<path clip-path="url(#clip390)" d="M156.598 1423.18 L2352.76 1423.18 L2352.76 47.2441 L156.598 47.2441  Z" fill="#ffffff" fill-rule="evenodd" fill-opacity="1"/>
<defs>
  <clipPath id="clip392">
    <rect x="156" y="47" width="2197" height="1377"/>
  </clipPath>
</defs>
<polyline clip-path="url(#clip392)" style="stroke:#000000; stroke-linecap:round; stroke-linejoin:round; stroke-width:2; stroke-opacity:0.1; fill:none" points="218.754,1423.18 218.754,47.2441 "/>
<polyline clip-path="url(#clip392)" style="stroke:#000000; stroke-linecap:round; stroke-linejoin:round; stroke-width:2; stroke-opacity:0.1; fill:none" points="909.369,1423.18 909.369,47.2441 "/>
<polyline clip-path="url(#clip392)" style="stroke:#000000; stroke-linecap:round; stroke-linejoin:round; stroke-width:2; stroke-opacity:0.1; fill:none" points="1599.98,1423.18 1599.98,47.2441 "/>
<polyline clip-path="url(#clip392)" style="stroke:#000000; stroke-linecap:round; stroke-linejoin:round; stroke-width:2; stroke-opacity:0.1; fill:none" points="2290.6,1423.18 2290.6,47.2441 "/>
<polyline clip-path="url(#clip392)" style="stroke:#000000; stroke-linecap:round; stroke-linejoin:round; stroke-width:2; stroke-opacity:0.1; fill:none" points="156.598,1346.63 2352.76,1346.63 "/>
<polyline clip-path="url(#clip392)" style="stroke:#000000; stroke-linecap:round; stroke-linejoin:round; stroke-width:2; stroke-opacity:0.1; fill:none" points="156.598,1026.05 2352.76,1026.05 "/>
<polyline clip-path="url(#clip392)" style="stroke:#000000; stroke-linecap:round; stroke-linejoin:round; stroke-width:2; stroke-opacity:0.1; fill:none" points="156.598,705.476 2352.76,705.476 "/>
<polyline clip-path="url(#clip392)" style="stroke:#000000; stroke-linecap:round; stroke-linejoin:round; stroke-width:2; stroke-opacity:0.1; fill:none" points="156.598,384.899 2352.76,384.899 "/>
<polyline clip-path="url(#clip392)" style="stroke:#000000; stroke-linecap:round; stroke-linejoin:round; stroke-width:2; stroke-opacity:0.1; fill:none" points="156.598,64.3234 2352.76,64.3234 "/>
<polyline clip-path="url(#clip390)" style="stroke:#000000; stroke-linecap:round; stroke-linejoin:round; stroke-width:4; stroke-opacity:1; fill:none" points="156.598,1423.18 2352.76,1423.18 "/>
<polyline clip-path="url(#clip390)" style="stroke:#000000; stroke-linecap:round; stroke-linejoin:round; stroke-width:4; stroke-opacity:1; fill:none" points="218.754,1423.18 218.754,1404.28 "/>
<polyline clip-path="url(#clip390)" style="stroke:#000000; stroke-linecap:round; stroke-linejoin:round; stroke-width:4; stroke-opacity:1; fill:none" points="909.369,1423.18 909.369,1404.28 "/>
<polyline clip-path="url(#clip390)" style="stroke:#000000; stroke-linecap:round; stroke-linejoin:round; stroke-width:4; stroke-opacity:1; fill:none" points="1599.98,1423.18 1599.98,1404.28 "/>
<polyline clip-path="url(#clip390)" style="stroke:#000000; stroke-linecap:round; stroke-linejoin:round; stroke-width:4; stroke-opacity:1; fill:none" points="2290.6,1423.18 2290.6,1404.28 "/>
<path clip-path="url(#clip390)" d="M218.754 1454.1 Q215.143 1454.1 213.314 1457.66 Q211.508 1461.2 211.508 1468.33 Q211.508 1475.44 213.314 1479.01 Q215.143 1482.55 218.754 1482.55 Q222.388 1482.55 224.193 1479.01 Q226.022 1475.44 226.022 1468.33 Q226.022 1461.2 224.193 1457.66 Q222.388 1454.1 218.754 1454.1 M218.754 1450.39 Q224.564 1450.39 227.619 1455 Q230.698 1459.58 230.698 1468.33 Q230.698 1477.06 227.619 1481.67 Q224.564 1486.25 218.754 1486.25 Q212.943 1486.25 209.865 1481.67 Q206.809 1477.06 206.809 1468.33 Q206.809 1459.58 209.865 1455 Q212.943 1450.39 218.754 1450.39 Z" fill="#000000" fill-rule="nonzero" fill-opacity="1" /><path clip-path="url(#clip390)" d="M899.751 1481.64 L907.39 1481.64 L907.39 1455.28 L899.08 1456.95 L899.08 1452.69 L907.344 1451.02 L912.02 1451.02 L912.02 1481.64 L919.659 1481.64 L919.659 1485.58 L899.751 1485.58 L899.751 1481.64 Z" fill="#000000" fill-rule="nonzero" fill-opacity="1" /><path clip-path="url(#clip390)" d="M1594.64 1481.64 L1610.96 1481.64 L1610.96 1485.58 L1589.01 1485.58 L1589.01 1481.64 Q1591.67 1478.89 1596.26 1474.26 Q1600.86 1469.61 1602.05 1468.27 Q1604.29 1465.74 1605.17 1464.01 Q1606.07 1462.25 1606.07 1460.56 Q1606.07 1457.8 1604.13 1456.07 Q1602.21 1454.33 1599.11 1454.33 Q1596.91 1454.33 1594.45 1455.09 Q1592.02 1455.86 1589.24 1457.41 L1589.24 1452.69 Q1592.07 1451.55 1594.52 1450.97 Q1596.98 1450.39 1599.01 1450.39 Q1604.38 1450.39 1607.58 1453.08 Q1610.77 1455.77 1610.77 1460.26 Q1610.77 1462.39 1609.96 1464.31 Q1609.17 1466.2 1607.07 1468.8 Q1606.49 1469.47 1603.39 1472.69 Q1600.29 1475.88 1594.64 1481.64 Z" fill="#000000" fill-rule="nonzero" fill-opacity="1" /><path clip-path="url(#clip390)" d="M2294.85 1466.95 Q2298.2 1467.66 2300.08 1469.93 Q2301.98 1472.2 2301.98 1475.53 Q2301.98 1480.65 2298.46 1483.45 Q2294.94 1486.25 2288.46 1486.25 Q2286.28 1486.25 2283.97 1485.81 Q2281.68 1485.39 2279.22 1484.54 L2279.22 1480.02 Q2281.17 1481.16 2283.48 1481.74 Q2285.8 1482.32 2288.32 1482.32 Q2292.72 1482.32 2295.01 1480.58 Q2297.33 1478.84 2297.33 1475.53 Q2297.33 1472.48 2295.17 1470.77 Q2293.04 1469.03 2289.22 1469.03 L2285.2 1469.03 L2285.2 1465.19 L2289.41 1465.19 Q2292.86 1465.19 2294.69 1463.82 Q2296.51 1462.43 2296.51 1459.84 Q2296.51 1457.18 2294.62 1455.77 Q2292.74 1454.33 2289.22 1454.33 Q2287.3 1454.33 2285.1 1454.75 Q2282.9 1455.16 2280.26 1456.04 L2280.26 1451.88 Q2282.93 1451.14 2285.24 1450.77 Q2287.58 1450.39 2289.64 1450.39 Q2294.96 1450.39 2298.07 1452.83 Q2301.17 1455.23 2301.17 1459.35 Q2301.17 1462.22 2299.52 1464.21 Q2297.88 1466.18 2294.85 1466.95 Z" fill="#000000" fill-rule="nonzero" fill-opacity="1" /><path clip-path="url(#clip390)" d="M1253.74 1522.27 L1253.74 1532.4 L1265.8 1532.4 L1265.8 1536.95 L1253.74 1536.95 L1253.74 1556.3 Q1253.74 1560.66 1254.92 1561.9 Q1256.13 1563.14 1259.79 1563.14 L1265.8 1563.14 L1265.8 1568.04 L1259.79 1568.04 Q1253.01 1568.04 1250.43 1565.53 Q1247.85 1562.98 1247.85 1556.3 L1247.85 1536.95 L1243.55 1536.95 L1243.55 1532.4 L1247.85 1532.4 L1247.85 1522.27 L1253.74 1522.27 Z" fill="#000000" fill-rule="nonzero" fill-opacity="1" /><polyline clip-path="url(#clip390)" style="stroke:#000000; stroke-linecap:round; stroke-linejoin:round; stroke-width:4; stroke-opacity:1; fill:none" points="156.598,1423.18 156.598,47.2441 "/>
<polyline clip-path="url(#clip390)" style="stroke:#000000; stroke-linecap:round; stroke-linejoin:round; stroke-width:4; stroke-opacity:1; fill:none" points="156.598,1346.63 175.496,1346.63 "/>
<polyline clip-path="url(#clip390)" style="stroke:#000000; stroke-linecap:round; stroke-linejoin:round; stroke-width:4; stroke-opacity:1; fill:none" points="156.598,1026.05 175.496,1026.05 "/>
<polyline clip-path="url(#clip390)" style="stroke:#000000; stroke-linecap:round; stroke-linejoin:round; stroke-width:4; stroke-opacity:1; fill:none" points="156.598,705.476 175.496,705.476 "/>
<polyline clip-path="url(#clip390)" style="stroke:#000000; stroke-linecap:round; stroke-linejoin:round; stroke-width:4; stroke-opacity:1; fill:none" points="156.598,384.899 175.496,384.899 "/>
<polyline clip-path="url(#clip390)" style="stroke:#000000; stroke-linecap:round; stroke-linejoin:round; stroke-width:4; stroke-opacity:1; fill:none" points="156.598,64.3234 175.496,64.3234 "/>
<path clip-path="url(#clip390)" d="M63.4226 1332.43 Q59.8115 1332.43 57.9828 1335.99 Q56.1773 1339.53 56.1773 1346.66 Q56.1773 1353.77 57.9828 1357.33 Q59.8115 1360.88 63.4226 1360.88 Q67.0569 1360.88 68.8624 1357.33 Q70.6911 1353.77 70.6911 1346.66 Q70.6911 1339.53 68.8624 1335.99 Q67.0569 1332.43 63.4226 1332.43 M63.4226 1328.72 Q69.2328 1328.72 72.2883 1333.33 Q75.367 1337.91 75.367 1346.66 Q75.367 1355.39 72.2883 1360 Q69.2328 1364.58 63.4226 1364.58 Q57.6125 1364.58 54.5338 1360 Q51.4782 1355.39 51.4782 1346.66 Q51.4782 1337.91 54.5338 1333.33 Q57.6125 1328.72 63.4226 1328.72 Z" fill="#000000" fill-rule="nonzero" fill-opacity="1" /><path clip-path="url(#clip390)" d="M83.5845 1358.03 L88.4688 1358.03 L88.4688 1363.91 L83.5845 1363.91 L83.5845 1358.03 Z" fill="#000000" fill-rule="nonzero" fill-opacity="1" /><path clip-path="url(#clip390)" d="M108.654 1332.43 Q105.043 1332.43 103.214 1335.99 Q101.409 1339.53 101.409 1346.66 Q101.409 1353.77 103.214 1357.33 Q105.043 1360.88 108.654 1360.88 Q112.288 1360.88 114.094 1357.33 Q115.922 1353.77 115.922 1346.66 Q115.922 1339.53 114.094 1335.99 Q112.288 1332.43 108.654 1332.43 M108.654 1328.72 Q114.464 1328.72 117.52 1333.33 Q120.598 1337.91 120.598 1346.66 Q120.598 1355.39 117.52 1360 Q114.464 1364.58 108.654 1364.58 Q102.844 1364.58 99.765 1360 Q96.7095 1355.39 96.7095 1346.66 Q96.7095 1337.91 99.765 1333.33 Q102.844 1328.72 108.654 1328.72 Z" fill="#000000" fill-rule="nonzero" fill-opacity="1" /><path clip-path="url(#clip390)" d="M65.0198 1011.85 Q61.4087 1011.85 59.58 1015.42 Q57.7745 1018.96 57.7745 1026.09 Q57.7745 1033.19 59.58 1036.76 Q61.4087 1040.3 65.0198 1040.3 Q68.6541 1040.3 70.4596 1036.76 Q72.2883 1033.19 72.2883 1026.09 Q72.2883 1018.96 70.4596 1015.42 Q68.6541 1011.85 65.0198 1011.85 M65.0198 1008.15 Q70.83 1008.15 73.8855 1012.75 Q76.9642 1017.34 76.9642 1026.09 Q76.9642 1034.81 73.8855 1039.42 Q70.83 1044 65.0198 1044 Q59.2097 1044 56.131 1039.42 Q53.0754 1034.81 53.0754 1026.09 Q53.0754 1017.34 56.131 1012.75 Q59.2097 1008.15 65.0198 1008.15 Z" fill="#000000" fill-rule="nonzero" fill-opacity="1" /><path clip-path="url(#clip390)" d="M85.1818 1037.45 L90.066 1037.45 L90.066 1043.33 L85.1818 1043.33 L85.1818 1037.45 Z" fill="#000000" fill-rule="nonzero" fill-opacity="1" /><path clip-path="url(#clip390)" d="M104.279 1039.4 L120.598 1039.4 L120.598 1043.33 L98.6539 1043.33 L98.6539 1039.4 Q101.316 1036.64 105.899 1032.01 Q110.506 1027.36 111.686 1026.02 Q113.932 1023.49 114.811 1021.76 Q115.714 1020 115.714 1018.31 Q115.714 1015.55 113.77 1013.82 Q111.848 1012.08 108.746 1012.08 Q106.547 1012.08 104.094 1012.85 Q101.663 1013.61 98.8854 1015.16 L98.8854 1010.44 Q101.709 1009.3 104.163 1008.73 Q106.617 1008.15 108.654 1008.15 Q114.024 1008.15 117.219 1010.83 Q120.413 1013.52 120.413 1018.01 Q120.413 1020.14 119.603 1022.06 Q118.816 1023.96 116.709 1026.55 Q116.131 1027.22 113.029 1030.44 Q109.927 1033.63 104.279 1039.4 Z" fill="#000000" fill-rule="nonzero" fill-opacity="1" /><path clip-path="url(#clip390)" d="M62.9365 691.274 Q59.3254 691.274 57.4967 694.839 Q55.6912 698.381 55.6912 705.51 Q55.6912 712.617 57.4967 716.181 Q59.3254 719.723 62.9365 719.723 Q66.5707 719.723 68.3763 716.181 Q70.205 712.617 70.205 705.51 Q70.205 698.381 68.3763 694.839 Q66.5707 691.274 62.9365 691.274 M62.9365 687.571 Q68.7467 687.571 71.8022 692.177 Q74.8809 696.76 74.8809 705.51 Q74.8809 714.237 71.8022 718.843 Q68.7467 723.427 62.9365 723.427 Q57.1264 723.427 54.0477 718.843 Q50.9921 714.237 50.9921 705.51 Q50.9921 696.76 54.0477 692.177 Q57.1264 687.571 62.9365 687.571 Z" fill="#000000" fill-rule="nonzero" fill-opacity="1" /><path clip-path="url(#clip390)" d="M83.0984 716.876 L87.9827 716.876 L87.9827 722.756 L83.0984 722.756 L83.0984 716.876 Z" fill="#000000" fill-rule="nonzero" fill-opacity="1" /><path clip-path="url(#clip390)" d="M111.015 692.27 L99.2095 710.719 L111.015 710.719 L111.015 692.27 M109.788 688.196 L115.668 688.196 L115.668 710.719 L120.598 710.719 L120.598 714.607 L115.668 714.607 L115.668 722.756 L111.015 722.756 L111.015 714.607 L95.4132 714.607 L95.4132 710.094 L109.788 688.196 Z" fill="#000000" fill-rule="nonzero" fill-opacity="1" /><path clip-path="url(#clip390)" d="M63.2606 370.698 Q59.6495 370.698 57.8208 374.263 Q56.0152 377.805 56.0152 384.934 Q56.0152 392.041 57.8208 395.605 Q59.6495 399.147 63.2606 399.147 Q66.8948 399.147 68.7004 395.605 Q70.5291 392.041 70.5291 384.934 Q70.5291 377.805 68.7004 374.263 Q66.8948 370.698 63.2606 370.698 M63.2606 366.994 Q69.0707 366.994 72.1263 371.601 Q75.205 376.184 75.205 384.934 Q75.205 393.661 72.1263 398.267 Q69.0707 402.851 63.2606 402.851 Q57.4504 402.851 54.3717 398.267 Q51.3162 393.661 51.3162 384.934 Q51.3162 376.184 54.3717 371.601 Q57.4504 366.994 63.2606 366.994 Z" fill="#000000" fill-rule="nonzero" fill-opacity="1" /><path clip-path="url(#clip390)" d="M83.4225 396.3 L88.3067 396.3 L88.3067 402.179 L83.4225 402.179 L83.4225 396.3 Z" fill="#000000" fill-rule="nonzero" fill-opacity="1" /><path clip-path="url(#clip390)" d="M109.071 383.036 Q105.922 383.036 104.071 385.189 Q102.242 387.342 102.242 391.092 Q102.242 394.818 104.071 396.994 Q105.922 399.147 109.071 399.147 Q112.219 399.147 114.047 396.994 Q115.899 394.818 115.899 391.092 Q115.899 387.342 114.047 385.189 Q112.219 383.036 109.071 383.036 M118.353 368.383 L118.353 372.643 Q116.594 371.809 114.788 371.369 Q113.006 370.93 111.246 370.93 Q106.617 370.93 104.163 374.055 Q101.733 377.18 101.385 383.499 Q102.751 381.485 104.811 380.42 Q106.871 379.332 109.348 379.332 Q114.557 379.332 117.566 382.504 Q120.598 385.652 120.598 391.092 Q120.598 396.416 117.45 399.633 Q114.302 402.851 109.071 402.851 Q103.075 402.851 99.9039 398.267 Q96.7326 393.661 96.7326 384.934 Q96.7326 376.74 100.621 371.879 Q104.51 366.994 111.061 366.994 Q112.82 366.994 114.603 367.342 Q116.408 367.689 118.353 368.383 Z" fill="#000000" fill-rule="nonzero" fill-opacity="1" /><path clip-path="url(#clip390)" d="M63.5152 50.122 Q59.9041 50.122 58.0754 53.6868 Q56.2699 57.2285 56.2699 64.3581 Q56.2699 71.4645 58.0754 75.0293 Q59.9041 78.571 63.5152 78.571 Q67.1494 78.571 68.955 75.0293 Q70.7837 71.4645 70.7837 64.3581 Q70.7837 57.2285 68.955 53.6868 Q67.1494 50.122 63.5152 50.122 M63.5152 46.4184 Q69.3254 46.4184 72.3809 51.0248 Q75.4596 55.6081 75.4596 64.3581 Q75.4596 73.0849 72.3809 77.6913 Q69.3254 82.2746 63.5152 82.2746 Q57.7051 82.2746 54.6264 77.6913 Q51.5708 73.0849 51.5708 64.3581 Q51.5708 55.6081 54.6264 51.0248 Q57.7051 46.4184 63.5152 46.4184 Z" fill="#000000" fill-rule="nonzero" fill-opacity="1" /><path clip-path="url(#clip390)" d="M83.6771 75.7238 L88.5614 75.7238 L88.5614 81.6034 L83.6771 81.6034 L83.6771 75.7238 Z" fill="#000000" fill-rule="nonzero" fill-opacity="1" /><path clip-path="url(#clip390)" d="M108.746 65.1914 Q105.413 65.1914 103.492 66.9738 Q101.594 68.7562 101.594 71.8812 Q101.594 75.0062 103.492 76.7886 Q105.413 78.571 108.746 78.571 Q112.08 78.571 114.001 76.7886 Q115.922 74.983 115.922 71.8812 Q115.922 68.7562 114.001 66.9738 Q112.103 65.1914 108.746 65.1914 M104.071 63.2007 Q101.061 62.4599 99.3715 60.3998 Q97.7048 58.3396 97.7048 55.3766 Q97.7048 51.2331 100.645 48.8257 Q103.608 46.4184 108.746 46.4184 Q113.908 46.4184 116.848 48.8257 Q119.788 51.2331 119.788 55.3766 Q119.788 58.3396 118.098 60.3998 Q116.432 62.4599 113.445 63.2007 Q116.825 63.9877 118.7 66.2794 Q120.598 68.571 120.598 71.8812 Q120.598 76.9043 117.52 79.5895 Q114.464 82.2746 108.746 82.2746 Q103.029 82.2746 99.9502 79.5895 Q96.8947 76.9043 96.8947 71.8812 Q96.8947 68.571 98.7928 66.2794 Q100.691 63.9877 104.071 63.2007 M102.358 55.8165 Q102.358 58.5016 104.024 60.0062 Q105.714 61.5109 108.746 61.5109 Q111.756 61.5109 113.445 60.0062 Q115.158 58.5016 115.158 55.8165 Q115.158 53.1313 113.445 51.6267 Q111.756 50.122 108.746 50.122 Q105.714 50.122 104.024 51.6267 Q102.358 53.1313 102.358 55.8165 Z" fill="#000000" fill-rule="nonzero" fill-opacity="1" /><polyline clip-path="url(#clip392)" style="stroke:#009af9; stroke-linecap:round; stroke-linejoin:round; stroke-width:4; stroke-opacity:1; fill:none" points="218.754,1346.63 225.66,1346.79 232.566,1347.12 239.472,1347.5 246.378,1347.74 253.284,1347.92 260.191,1347.88 267.097,1347.94 274.003,1347.88 280.909,1347.88 287.815,1348.02 294.721,1348.04 301.628,1348.13 308.534,1348.07 315.44,1347.99 322.346,1347.91 329.252,1347.89 336.158,1347.81 343.064,1347.76 349.971,1347.9 356.877,1347.96 363.783,1348.07 370.689,1348.16 377.595,1348.21 384.501,1348.2 391.408,1348.31 398.314,1348.16 405.22,1347.91 412.126,1347.44 419.032,1347.09 425.938,1346.7 432.844,1346.08 439.751,1345.42 446.657,1344.51 453.563,1343.72 460.469,1342.73 467.375,1341.71 474.281,1340.54 481.188,1339.47 488.094,1338.1 495,1336.74 501.906,1335.49 508.812,1334.21 515.718,1332.85 522.625,1331.43 529.531,1329.96 536.437,1328.79 543.343,1327.45 550.249,1325.97 557.155,1324.46 564.061,1323.14 570.968,1321.79 577.874,1320.28 584.78,1318.69 591.686,1317.02 598.592,1315.16 605.498,1313.24 612.405,1311.17 619.311,1309.26 626.217,1307.12 633.123,1304.8 640.029,1302.34 646.935,1299.91 653.841,1297.58 660.748,1295.36 667.654,1293.2 674.56,1291.14 681.466,1288.95 688.372,1286.65 695.278,1284.31 702.185,1281.75 709.091,1279.1 715.997,1276.49 722.903,1273.81 729.809,1271.06 736.715,1268.41 743.622,1265.74 750.528,1263.36 757.434,1260.91 764.34,1258.5 771.246,1256.08 778.152,1253.68 785.058,1251.3 791.965,1248.98 798.871,1246.59 805.777,1244.33 812.683,1241.77 819.589,1239.17 826.495,1236.72 833.402,1234.34 840.308,1232.04 847.214,1229.65 854.12,1227.25 861.026,1224.8 867.932,1222.2 874.838,1219.56 881.745,1217.23 888.651,1214.76 895.557,1211.96 902.463,1209.14 909.369,1206.23 916.275,1203.61 923.182,1200.81 930.088,1197.88 936.994,1194.85 943.9,1191.49 950.806,1188.5 957.712,1185.76 964.619,1183.1 971.525,1180.25 978.431,1177.4 985.337,1174.86 992.243,1172.37 999.149,1169.56 1006.06,1166.71 1012.96,1163.58 1019.87,1160.31 1026.77,1157.38 1033.68,1154.22 1040.59,1151.01 1047.49,1147.73 1054.4,1144.29 1061.3,1140.49 1068.21,1136.45 1075.12,1132.5 1082.02,1128.51 1088.93,1124.29 1095.84,1119.95 1102.74,1115.7 1109.65,1111.28 1116.55,1106.75 1123.46,1102.05 1130.37,1097.42 1137.27,1092.61 1144.18,1087.52 1151.08,1082.24 1157.99,1076.97 1164.9,1071.71 1171.8,1066.41 1178.71,1061.43 1185.62,1056.45 1192.52,1051.34 1199.43,1046.21 1206.33,1041.16 1213.24,1036.05 1220.15,1030.97 1227.05,1025.68 1233.96,1020.35 1240.86,1014.95 1247.77,1009.25 1254.68,1003.37 1261.58,997.617 1268.49,991.961 1275.4,986.294 1282.3,980.617 1289.21,974.842 1296.11,969.04 1303.02,963.243 1309.93,957.37 1316.83,951.66 1323.74,946.11 1330.64,940.157 1337.55,934.269 1344.46,928.021 1351.36,921.894 1358.27,915.881 1365.18,909.869 1372.08,903.998 1378.99,898.034 1385.89,892.133 1392.8,886.122 1399.71,880.075 1406.61,873.936 1413.52,867.691 1420.42,861.223 1427.33,854.821 1434.24,848.645 1441.14,842.739 1448.05,836.73 1454.96,830.639 1461.86,824.495 1468.77,818.179 1475.67,811.77 1482.58,805.298 1489.49,798.94 1496.39,792.731 1503.3,786.334 1510.2,779.965 1517.11,773.337 1524.02,766.834 1530.92,760.405 1537.83,754.074 1544.74,747.859 1551.64,741.677 1558.55,735.727 1565.45,729.895 1572.36,724.11 1579.27,718.453 1586.17,712.74 1593.08,707.169 1599.98,701.8 1606.89,696.727 1613.8,691.444 1620.7,686.141 1627.61,680.87 1634.52,675.468 1641.42,670.154 1648.33,664.716 1655.23,659.239 1662.14,653.971 1669.05,648.639 1675.95,643.343 1682.86,638.005 1689.76,632.559 1696.67,626.934 1703.58,621.186 1710.48,615.37 1717.39,609.704 1724.3,603.991 1731.2,598.21 1738.11,592.299 1745.01,586.463 1751.92,580.663 1758.83,574.829 1765.73,568.77 1772.64,562.683 1779.54,556.289 1786.45,549.869 1793.36,543.123 1800.26,536.492 1807.17,529.906 1814.08,523.335 1820.98,516.885 1827.89,510.067 1834.79,503.495 1841.7,496.974 1848.61,490.05 1855.51,483.24 1862.42,476.237 1869.32,469.058 1876.23,462.132 1883.14,455.462 1890.04,448.879 1896.95,442.126 1903.86,435.356 1910.76,428.556 1917.67,421.85 1924.57,414.988 1931.48,408.24 1938.39,401.399 1945.29,394.473 1952.2,387.608 1959.11,380.782 1966.01,374.345 1972.92,368.048 1979.82,361.635 1986.73,355.297 1993.64,349.082 2000.54,342.864 2007.45,336.469 2014.35,330.225 2021.26,323.998 2028.17,317.553 2035.07,311.04 2041.98,304.645 2048.89,298.452 2055.79,292.423 2062.7,286.4 2069.6,280.672 2076.51,274.762 2083.42,268.692 2090.32,262.75 2097.23,256.734 2104.13,250.728 2111.04,244.644 2117.95,238.451 2124.85,232.395 2131.76,226.443 2138.67,220.424 2145.57,214.273 2152.48,207.745 2159.38,201.292 2166.29,194.682 2173.2,188.107 2180.1,181.673 2187.01,175.284 2193.91,168.943 2200.82,162.772 2207.73,156.363 2214.63,149.983 2221.54,143.794 2228.45,137.542 2235.35,131.406 2242.26,125.425 2249.16,119.504 2256.07,113.759 2262.98,108.103 2269.88,102.663 2276.79,97.0071 2283.69,91.4944 2290.6,86.1857 "/>
<polyline clip-path="url(#clip392)" style="stroke:#e26f46; stroke-linecap:round; stroke-linejoin:round; stroke-width:4; stroke-opacity:1; fill:none" points="218.754,1362.39 225.66,1380 232.566,1384.24 239.472,1370.64 246.378,1365.05 253.284,1343.11 260.191,1352.07 267.097,1340.66 274.003,1346.36 280.909,1360.63 287.815,1349.33 294.721,1355.5 301.628,1340.38 308.534,1338.72 315.44,1338.31 322.346,1344.66 329.252,1338.81 336.158,1341.84 343.064,1360.07 349.971,1352.84 356.877,1357.45 363.783,1356.09 370.689,1351.22 377.595,1345.6 384.501,1357.78 391.408,1331.75 398.314,1321.93 405.22,1299.77 412.126,1311.07 419.032,1307.66 425.938,1284.94 432.844,1280.29 439.751,1255.82 446.657,1268.01 453.563,1247.6 460.469,1244.73 467.375,1228.82 474.281,1240.29 481.188,1209.24 488.094,1210.7 495,1221.32 501.906,1218.48 508.812,1211.06 515.718,1204.56 522.625,1199.62 529.531,1230.14 536.437,1212.59 543.343,1198.64 550.249,1195.58 557.155,1213.83 564.061,1211.99 570.968,1196.06 577.874,1187.36 584.78,1179.57 591.686,1160.12 598.592,1155.48 605.498,1139.56 612.405,1155.61 619.311,1131.92 626.217,1115.4 633.123,1100.21 640.029,1103.92 646.935,1113.47 653.841,1124.23 660.748,1130.81 667.654,1140.51 674.56,1127.54 681.466,1116.57 688.372,1113.14 695.278,1090.72 702.185,1081.07 709.091,1086.12 715.997,1078.4 722.903,1071.8 729.809,1081.48 736.715,1079.6 743.622,1108.38 750.528,1102.09 757.434,1105.1 764.34,1105.13 771.246,1106.06 778.152,1108.73 785.058,1115.44 791.965,1107.67 798.871,1119.86 805.777,1090.56 812.683,1086.56 819.589,1101.82 826.495,1108.51 833.402,1117.37 840.308,1107.7 847.214,1105.94 854.12,1102.2 861.026,1085.88 867.932,1083.3 874.838,1113.61 881.745,1099.67 888.651,1066.12 895.557,1064.41 902.463,1056.45 909.369,1084.65 916.275,1066.55 923.182,1053.3 930.088,1043.86 936.994,1010.72 943.9,1047.06 950.806,1072.46 957.712,1081.36 964.619,1061.66 971.525,1061.34 978.431,1092.35 985.337,1097.61 992.243,1065.4 999.149,1061.71 1006.06,1034.32 1012.96,1019.61 1019.87,1053.44 1026.77,1030.99 1033.68,1024.91 1040.59,1018.84 1047.49,1002.59 1054.4,966.348 1061.3,942.853 1068.21,952.16 1075.12,946.949 1082.02,924.838 1088.93,912.578 1095.84,922.137 1102.74,904.401 1109.65,892.984 1116.55,877.478 1123.46,883.609 1130.37,865.751 1137.27,837.437 1144.18,818.445 1151.08,819.523 1157.99,821.031 1164.9,815.817 1171.8,848.982 1178.71,848.531 1185.62,835.873 1192.52,833.906 1199.43,841.417 1206.33,835.566 1213.24,838.422 1220.15,818.01 1227.05,813.413 1233.96,806.607 1240.86,777.083 1247.77,758.604 1254.68,770.818 1261.58,781.055 1268.49,779.946 1275.4,778.957 1282.3,769.092 1289.21,766.409 1296.11,766.894 1303.02,759.338 1309.93,775.621 1316.83,791.644 1323.74,751.386 1330.64,757.756 1337.55,721.894 1344.46,733.864 1351.36,745.409 1358.27,745.414 1365.18,759.538 1372.08,750.217 1378.99,756.515 1385.89,745.551 1392.8,741.879 1399.71,732.727 1406.61,722.143 1413.52,699.837 1420.42,706.436 1427.33,729.035 1434.24,755.99 1441.14,745.694 1448.05,737.576 1454.96,732.203 1461.86,715.093 1468.77,705.708 1475.67,699.447 1482.58,710.824 1489.49,725.672 1496.39,706.91 1503.3,709.744 1510.2,683.834 1517.11,696.326 1524.02,703.707 1530.92,713.545 1537.83,725.096 1544.74,728.421 1551.64,751.677 1558.55,763.418 1565.45,768.134 1572.36,780.908 1579.27,775.312 1586.17,789.603 1593.08,809.642 1599.98,839.344 1606.89,818.396 1613.8,816.314 1620.7,819.506 1627.61,806.451 1634.52,815.239 1641.42,802.803 1648.33,798.877 1655.23,819.916 1662.14,813.34 1669.05,817.089 1675.95,812.824 1682.86,801.973 1689.76,784.184 1696.67,771.784 1703.58,765.089 1710.48,779.946 1717.39,775.374 1724.3,768.512 1731.2,755.54 1738.11,763.036 1745.01,766.593 1751.92,763.284 1758.83,740.674 1765.73,737.929 1772.64,707.235 1779.54,704.688 1786.45,671.939 1793.36,683.559 1800.26,687.994 1807.17,689.588 1814.08,701.604 1820.98,664.802 1827.89,689.478 1834.79,694.484 1841.7,654.273 1848.61,665.602 1855.51,646.385 1862.42,628.657 1869.32,654.079 1876.23,679.595 1883.14,688.379 1890.04,671.301 1896.95,669.604 1903.86,666.61 1910.76,676.08 1917.67,660.36 1924.57,671.856 1931.48,662.575 1938.39,653.987 1945.29,660.097 1952.2,664.083 1959.11,702.855 1966.01,716.951 1972.92,705.4 1979.82,712.778 1986.73,725.161 1993.64,724.814 2000.54,707.153 2007.45,722.189 2014.35,723.874 2021.26,702.186 2028.17,695.285 2035.07,707.144 2041.98,727.355 2048.89,743.672 2055.79,744.411 2062.7,773.754 2069.6,755.673 2076.51,739.589 2083.42,752.507 2090.32,745.021 2097.23,745.994 2104.13,738.169 2111.04,727.336 2117.95,741.065 2124.85,751.421 2131.76,744.788 2138.67,731.447 2145.57,693.848 2152.48,701.3 2159.38,685.68 2166.29,689.156 2173.2,703.205 2180.1,707.749 2187.01,712.527 2193.91,729.468 2200.82,705.758 2207.73,708.587 2214.63,727.8 2221.54,721.401 2228.45,733.032 2235.35,748.46 2242.26,754.587 2249.16,772.109 2256.07,781.071 2262.98,802.612 2269.88,781.014 2276.79,795.364 2283.69,815.753 2290.6,808.893 "/>
<path clip-path="url(#clip390)" d="M229.803 248.629 L674.997 248.629 L674.997 93.1086 L229.803 93.1086  Z" fill="#ffffff" fill-rule="evenodd" fill-opacity="1"/>
<polyline clip-path="url(#clip390)" style="stroke:#000000; stroke-linecap:round; stroke-linejoin:round; stroke-width:4; stroke-opacity:1; fill:none" points="229.803,248.629 674.997,248.629 674.997,93.1086 229.803,93.1086 229.803,248.629 "/>
<polyline clip-path="url(#clip390)" style="stroke:#009af9; stroke-linecap:round; stroke-linejoin:round; stroke-width:4; stroke-opacity:1; fill:none" points="254.205,144.949 400.616,144.949 "/>
<path clip-path="url(#clip390)" d="M438.86 164.636 Q437.054 169.266 435.342 170.678 Q433.629 172.09 430.758 172.09 L427.355 172.09 L427.355 168.525 L429.855 168.525 Q431.615 168.525 432.587 167.692 Q433.559 166.858 434.74 163.756 L435.504 161.812 L425.018 136.303 L429.531 136.303 L437.633 156.581 L445.735 136.303 L450.249 136.303 L438.86 164.636 Z" fill="#000000" fill-rule="nonzero" fill-opacity="1" /><path clip-path="url(#clip390)" d="M475.318 158.34 L475.318 172.09 L471.036 172.09 L471.036 136.303 L475.318 136.303 L475.318 140.238 Q476.661 137.923 478.698 136.812 Q480.758 135.678 483.605 135.678 Q488.327 135.678 491.267 139.428 Q494.23 143.178 494.23 149.289 Q494.23 155.4 491.267 159.15 Q488.327 162.9 483.605 162.9 Q480.758 162.9 478.698 161.789 Q476.661 160.655 475.318 158.34 M489.809 149.289 Q489.809 144.59 487.864 141.928 Q485.943 139.243 482.563 139.243 Q479.184 139.243 477.239 141.928 Q475.318 144.59 475.318 149.289 Q475.318 153.988 477.239 156.673 Q479.184 159.335 482.563 159.335 Q485.943 159.335 487.864 156.673 Q489.809 153.988 489.809 149.289 Z" fill="#000000" fill-rule="nonzero" fill-opacity="1" /><path clip-path="url(#clip390)" d="M511.336 139.289 Q507.911 139.289 505.92 141.974 Q503.929 144.636 503.929 149.289 Q503.929 153.942 505.897 156.627 Q507.887 159.289 511.336 159.289 Q514.739 159.289 516.73 156.604 Q518.721 153.918 518.721 149.289 Q518.721 144.682 516.73 141.997 Q514.739 139.289 511.336 139.289 M511.336 135.678 Q516.892 135.678 520.063 139.289 Q523.235 142.9 523.235 149.289 Q523.235 155.655 520.063 159.289 Q516.892 162.9 511.336 162.9 Q505.758 162.9 502.587 159.289 Q499.438 155.655 499.438 149.289 Q499.438 142.9 502.587 139.289 Q505.758 135.678 511.336 135.678 Z" fill="#000000" fill-rule="nonzero" fill-opacity="1" /><path clip-path="url(#clip390)" d="M546.822 137.067 L546.822 141.094 Q545.017 140.169 543.072 139.706 Q541.128 139.243 539.045 139.243 Q535.873 139.243 534.276 140.215 Q532.702 141.187 532.702 143.131 Q532.702 144.613 533.836 145.469 Q534.971 146.303 538.397 147.067 L539.855 147.391 Q544.392 148.363 546.29 150.145 Q548.211 151.905 548.211 155.076 Q548.211 158.687 545.341 160.793 Q542.494 162.9 537.494 162.9 Q535.41 162.9 533.142 162.483 Q530.897 162.09 528.397 161.28 L528.397 156.881 Q530.758 158.108 533.049 158.733 Q535.341 159.335 537.586 159.335 Q540.596 159.335 542.216 158.317 Q543.836 157.275 543.836 155.4 Q543.836 153.664 542.656 152.738 Q541.498 151.812 537.54 150.956 L536.059 150.608 Q532.1 149.775 530.341 148.062 Q528.582 146.326 528.582 143.317 Q528.582 139.659 531.174 137.669 Q533.767 135.678 538.535 135.678 Q540.897 135.678 542.98 136.025 Q545.063 136.372 546.822 137.067 Z" fill="#000000" fill-rule="nonzero" fill-opacity="1" /><path clip-path="url(#clip390)" d="M554.994 136.303 L559.253 136.303 L559.253 162.229 L554.994 162.229 L554.994 136.303 M554.994 126.21 L559.253 126.21 L559.253 131.604 L554.994 131.604 L554.994 126.21 Z" fill="#000000" fill-rule="nonzero" fill-opacity="1" /><path clip-path="url(#clip390)" d="M572.378 128.942 L572.378 136.303 L581.151 136.303 L581.151 139.613 L572.378 139.613 L572.378 153.687 Q572.378 156.858 573.234 157.761 Q574.114 158.664 576.776 158.664 L581.151 158.664 L581.151 162.229 L576.776 162.229 Q571.845 162.229 569.97 160.4 Q568.095 158.548 568.095 153.687 L568.095 139.613 L564.97 139.613 L564.97 136.303 L568.095 136.303 L568.095 128.942 L572.378 128.942 Z" fill="#000000" fill-rule="nonzero" fill-opacity="1" /><path clip-path="url(#clip390)" d="M586.753 136.303 L591.012 136.303 L591.012 162.229 L586.753 162.229 L586.753 136.303 M586.753 126.21 L591.012 126.21 L591.012 131.604 L586.753 131.604 L586.753 126.21 Z" fill="#000000" fill-rule="nonzero" fill-opacity="1" /><path clip-path="url(#clip390)" d="M609.97 139.289 Q606.544 139.289 604.554 141.974 Q602.563 144.636 602.563 149.289 Q602.563 153.942 604.53 156.627 Q606.521 159.289 609.97 159.289 Q613.373 159.289 615.364 156.604 Q617.354 153.918 617.354 149.289 Q617.354 144.682 615.364 141.997 Q613.373 139.289 609.97 139.289 M609.97 135.678 Q615.526 135.678 618.697 139.289 Q621.868 142.9 621.868 149.289 Q621.868 155.655 618.697 159.289 Q615.526 162.9 609.97 162.9 Q604.392 162.9 601.22 159.289 Q598.072 155.655 598.072 149.289 Q598.072 142.9 601.22 139.289 Q604.392 135.678 609.97 135.678 Z" fill="#000000" fill-rule="nonzero" fill-opacity="1" /><path clip-path="url(#clip390)" d="M650.479 146.581 L650.479 162.229 L646.22 162.229 L646.22 146.719 Q646.22 143.039 644.785 141.21 Q643.35 139.382 640.479 139.382 Q637.03 139.382 635.04 141.581 Q633.049 143.78 633.049 147.576 L633.049 162.229 L628.766 162.229 L628.766 136.303 L633.049 136.303 L633.049 140.331 Q634.577 137.993 636.637 136.835 Q638.72 135.678 641.428 135.678 Q645.896 135.678 648.188 138.456 Q650.479 141.21 650.479 146.581 Z" fill="#000000" fill-rule="nonzero" fill-opacity="1" /><polyline clip-path="url(#clip390)" style="stroke:#e26f46; stroke-linecap:round; stroke-linejoin:round; stroke-width:4; stroke-opacity:1; fill:none" points="254.205,196.789 400.616,196.789 "/>
<path clip-path="url(#clip390)" d="M438.86 216.476 Q437.054 221.106 435.342 222.518 Q433.629 223.93 430.758 223.93 L427.355 223.93 L427.355 220.365 L429.855 220.365 Q431.615 220.365 432.587 219.532 Q433.559 218.698 434.74 215.596 L435.504 213.652 L425.018 188.143 L429.531 188.143 L437.633 208.421 L445.735 188.143 L450.249 188.143 L438.86 216.476 Z" fill="#000000" fill-rule="nonzero" fill-opacity="1" /><path clip-path="url(#clip390)" d="M468.142 188.143 L472.656 188.143 L480.758 209.902 L488.86 188.143 L493.374 188.143 L483.651 214.069 L477.864 214.069 L468.142 188.143 Z" fill="#000000" fill-rule="nonzero" fill-opacity="1" /><path clip-path="url(#clip390)" d="M521.429 200.041 L521.429 202.124 L501.846 202.124 Q502.124 206.522 504.485 208.837 Q506.869 211.129 511.105 211.129 Q513.559 211.129 515.85 210.527 Q518.165 209.925 520.434 208.721 L520.434 212.749 Q518.142 213.721 515.735 214.231 Q513.327 214.74 510.85 214.74 Q504.647 214.74 501.012 211.129 Q497.401 207.518 497.401 201.36 Q497.401 194.995 500.827 191.268 Q504.276 187.518 510.11 187.518 Q515.341 187.518 518.373 190.897 Q521.429 194.254 521.429 200.041 M517.17 198.791 Q517.123 195.296 515.202 193.212 Q513.304 191.129 510.156 191.129 Q506.591 191.129 504.438 193.143 Q502.309 195.157 501.985 198.814 L517.17 198.791 Z" fill="#000000" fill-rule="nonzero" fill-opacity="1" /><path clip-path="url(#clip390)" d="M528.42 178.05 L532.679 178.05 L532.679 214.069 L528.42 214.069 L528.42 178.05 Z" fill="#000000" fill-rule="nonzero" fill-opacity="1" /><path clip-path="url(#clip390)" d="M551.637 191.129 Q548.211 191.129 546.221 193.814 Q544.23 196.476 544.23 201.129 Q544.23 205.782 546.197 208.467 Q548.188 211.129 551.637 211.129 Q555.04 211.129 557.031 208.444 Q559.021 205.758 559.021 201.129 Q559.021 196.522 557.031 193.837 Q555.04 191.129 551.637 191.129 M551.637 187.518 Q557.193 187.518 560.364 191.129 Q563.535 194.74 563.535 201.129 Q563.535 207.495 560.364 211.129 Q557.193 214.74 551.637 214.74 Q546.059 214.74 542.887 211.129 Q539.739 207.495 539.739 201.129 Q539.739 194.74 542.887 191.129 Q546.059 187.518 551.637 187.518 Z" fill="#000000" fill-rule="nonzero" fill-opacity="1" /><path clip-path="url(#clip390)" d="M589.253 189.138 L589.253 193.12 Q587.447 192.124 585.618 191.638 Q583.813 191.129 581.961 191.129 Q577.818 191.129 575.526 193.768 Q573.234 196.384 573.234 201.129 Q573.234 205.874 575.526 208.513 Q577.818 211.129 581.961 211.129 Q583.813 211.129 585.618 210.643 Q587.447 210.133 589.253 209.138 L589.253 213.073 Q587.47 213.907 585.549 214.323 Q583.651 214.74 581.498 214.74 Q575.642 214.74 572.193 211.059 Q568.744 207.379 568.744 201.129 Q568.744 194.786 572.216 191.152 Q575.711 187.518 581.776 187.518 Q583.744 187.518 585.618 187.935 Q587.493 188.328 589.253 189.138 Z" fill="#000000" fill-rule="nonzero" fill-opacity="1" /><path clip-path="url(#clip390)" d="M596.66 188.143 L600.919 188.143 L600.919 214.069 L596.66 214.069 L596.66 188.143 M596.66 178.05 L600.919 178.05 L600.919 183.444 L596.66 183.444 L596.66 178.05 Z" fill="#000000" fill-rule="nonzero" fill-opacity="1" /><path clip-path="url(#clip390)" d="M614.044 180.782 L614.044 188.143 L622.817 188.143 L622.817 191.453 L614.044 191.453 L614.044 205.527 Q614.044 208.698 614.901 209.601 Q615.78 210.504 618.442 210.504 L622.817 210.504 L622.817 214.069 L618.442 214.069 Q613.512 214.069 611.637 212.24 Q609.762 210.388 609.762 205.527 L609.762 191.453 L606.637 191.453 L606.637 188.143 L609.762 188.143 L609.762 180.782 L614.044 180.782 Z" fill="#000000" fill-rule="nonzero" fill-opacity="1" /><path clip-path="url(#clip390)" d="M639.206 216.476 Q637.401 221.106 635.688 222.518 Q633.975 223.93 631.104 223.93 L627.702 223.93 L627.702 220.365 L630.202 220.365 Q631.961 220.365 632.933 219.532 Q633.905 218.698 635.086 215.596 L635.85 213.652 L625.364 188.143 L629.878 188.143 L637.979 208.421 L646.081 188.143 L650.595 188.143 L639.206 216.476 Z" fill="#000000" fill-rule="nonzero" fill-opacity="1" /></svg>
