<?xml version="1.0" encoding="utf-8"?>
<svg xmlns="http://www.w3.org/2000/svg" xmlns:xlink="http://www.w3.org/1999/xlink" width="600" height="400" viewBox="0 0 2400 1600">
<defs>
  <clipPath id="clip970">
    <rect x="0" y="0" width="2400" height="1600"/>
  </clipPath>
</defs>
<path clip-path="url(#clip970)" d="M0 1600 L2400 1600 L2400 0 L0 0  Z" fill="#ffffff" fill-rule="evenodd" fill-opacity="1"/>
<defs>
  <clipPath id="clip971">
    <rect x="480" y="0" width="1681" height="1600"/>
  </clipPath>
</defs>
<path clip-path="url(#clip970)" d="M223.103 1423.18 L2352.76 1423.18 L2352.76 47.2441 L223.103 47.2441  Z" fill="#ffffff" fill-rule="evenodd" fill-opacity="1"/>
<defs>
  <clipPath id="clip972">
    <rect x="223" y="47" width="2131" height="1377"/>
  </clipPath>
</defs>
<polyline clip-path="url(#clip972)" style="stroke:#000000; stroke-linecap:round; stroke-linejoin:round; stroke-width:2; stroke-opacity:0.1; fill:none" points="283.376,1423.18 283.376,47.2441 "/>
<polyline clip-path="url(#clip972)" style="stroke:#000000; stroke-linecap:round; stroke-linejoin:round; stroke-width:2; stroke-opacity:0.1; fill:none" points="953.078,1423.18 953.078,47.2441 "/>
<polyline clip-path="url(#clip972)" style="stroke:#000000; stroke-linecap:round; stroke-linejoin:round; stroke-width:2; stroke-opacity:0.1; fill:none" points="1622.78,1423.18 1622.78,47.2441 "/>
<polyline clip-path="url(#clip972)" style="stroke:#000000; stroke-linecap:round; stroke-linejoin:round; stroke-width:2; stroke-opacity:0.1; fill:none" points="2292.48,1423.18 2292.48,47.2441 "/>
<polyline clip-path="url(#clip970)" style="stroke:#000000; stroke-linecap:round; stroke-linejoin:round; stroke-width:4; stroke-opacity:1; fill:none" points="223.103,1423.18 2352.76,1423.18 "/>
<polyline clip-path="url(#clip970)" style="stroke:#000000; stroke-linecap:round; stroke-linejoin:round; stroke-width:4; stroke-opacity:1; fill:none" points="283.376,1423.18 283.376,1404.28 "/>
<polyline clip-path="url(#clip970)" style="stroke:#000000; stroke-linecap:round; stroke-linejoin:round; stroke-width:4; stroke-opacity:1; fill:none" points="953.078,1423.18 953.078,1404.28 "/>
<polyline clip-path="url(#clip970)" style="stroke:#000000; stroke-linecap:round; stroke-linejoin:round; stroke-width:4; stroke-opacity:1; fill:none" points="1622.78,1423.18 1622.78,1404.28 "/>
<polyline clip-path="url(#clip970)" style="stroke:#000000; stroke-linecap:round; stroke-linejoin:round; stroke-width:4; stroke-opacity:1; fill:none" points="2292.48,1423.18 2292.48,1404.28 "/>
<path clip-path="url(#clip970)" d="M283.376 1454.1 Q279.765 1454.1 277.936 1457.66 Q276.13 1461.2 276.13 1468.33 Q276.13 1475.44 277.936 1479.01 Q279.765 1482.55 283.376 1482.55 Q287.01 1482.55 288.816 1479.01 Q290.644 1475.44 290.644 1468.33 Q290.644 1461.2 288.816 1457.66 Q287.01 1454.1 283.376 1454.1 M283.376 1450.39 Q289.186 1450.39 292.241 1455 Q295.32 1459.58 295.32 1468.33 Q295.32 1477.06 292.241 1481.67 Q289.186 1486.25 283.376 1486.25 Q277.566 1486.25 274.487 1481.67 Q271.431 1477.06 271.431 1468.33 Q271.431 1459.58 274.487 1455 Q277.566 1450.39 283.376 1450.39 Z" fill="#000000" fill-rule="nonzero" fill-opacity="1" /><path clip-path="url(#clip970)" d="M943.46 1481.64 L951.099 1481.64 L951.099 1455.28 L942.789 1456.95 L942.789 1452.69 L951.053 1451.02 L955.728 1451.02 L955.728 1481.64 L963.367 1481.64 L963.367 1485.58 L943.46 1485.58 L943.46 1481.64 Z" fill="#000000" fill-rule="nonzero" fill-opacity="1" /><path clip-path="url(#clip970)" d="M1617.43 1481.64 L1633.75 1481.64 L1633.75 1485.58 L1611.81 1485.58 L1611.81 1481.64 Q1614.47 1478.89 1619.05 1474.26 Q1623.66 1469.61 1624.84 1468.27 Q1627.09 1465.74 1627.97 1464.01 Q1628.87 1462.25 1628.87 1460.56 Q1628.87 1457.8 1626.92 1456.07 Q1625 1454.33 1621.9 1454.33 Q1619.7 1454.33 1617.25 1455.09 Q1614.82 1455.86 1612.04 1457.41 L1612.04 1452.69 Q1614.86 1451.55 1617.32 1450.97 Q1619.77 1450.39 1621.81 1450.39 Q1627.18 1450.39 1630.37 1453.08 Q1633.57 1455.77 1633.57 1460.26 Q1633.57 1462.39 1632.76 1464.31 Q1631.97 1466.2 1629.86 1468.8 Q1629.28 1469.47 1626.18 1472.69 Q1623.08 1475.88 1617.43 1481.64 Z" fill="#000000" fill-rule="nonzero" fill-opacity="1" /><path clip-path="url(#clip970)" d="M2296.73 1466.95 Q2300.09 1467.66 2301.96 1469.93 Q2303.86 1472.2 2303.86 1475.53 Q2303.86 1480.65 2300.34 1483.45 Q2296.82 1486.25 2290.34 1486.25 Q2288.17 1486.25 2285.85 1485.81 Q2283.56 1485.39 2281.11 1484.54 L2281.11 1480.02 Q2283.05 1481.16 2285.36 1481.74 Q2287.68 1482.32 2290.2 1482.32 Q2294.6 1482.32 2296.89 1480.58 Q2299.21 1478.84 2299.21 1475.53 Q2299.21 1472.48 2297.05 1470.77 Q2294.92 1469.03 2291.11 1469.03 L2287.08 1469.03 L2287.08 1465.19 L2291.29 1465.19 Q2294.74 1465.19 2296.57 1463.82 Q2298.4 1462.43 2298.4 1459.84 Q2298.4 1457.18 2296.5 1455.77 Q2294.62 1454.33 2291.11 1454.33 Q2289.18 1454.33 2286.99 1454.75 Q2284.79 1455.16 2282.15 1456.04 L2282.15 1451.88 Q2284.81 1451.14 2287.12 1450.77 Q2289.46 1450.39 2291.52 1450.39 Q2296.85 1450.39 2299.95 1452.83 Q2303.05 1455.23 2303.05 1459.35 Q2303.05 1462.22 2301.41 1464.21 Q2299.76 1466.18 2296.73 1466.95 Z" fill="#000000" fill-rule="nonzero" fill-opacity="1" /><path clip-path="url(#clip970)" d="M1286.99 1522.27 L1286.99 1532.4 L1299.05 1532.4 L1299.05 1536.95 L1286.99 1536.95 L1286.99 1556.3 Q1286.99 1560.66 1288.17 1561.9 Q1289.38 1563.14 1293.04 1563.14 L1299.05 1563.14 L1299.05 1568.04 L1293.04 1568.04 Q1286.26 1568.04 1283.68 1565.53 Q1281.1 1562.98 1281.1 1556.3 L1281.1 1536.95 L1276.81 1536.95 L1276.81 1532.4 L1281.1 1532.4 L1281.1 1522.27 L1286.99 1522.27 Z" fill="#000000" fill-rule="nonzero" fill-opacity="1" /><polyline clip-path="url(#clip972)" style="stroke:#000000; stroke-linecap:round; stroke-linejoin:round; stroke-width:2; stroke-opacity:0.1; fill:none" points="223.103,1206.08 2352.76,1206.08 "/>
<polyline clip-path="url(#clip972)" style="stroke:#000000; stroke-linecap:round; stroke-linejoin:round; stroke-width:2; stroke-opacity:0.1; fill:none" points="223.103,959.378 2352.76,959.378 "/>
<polyline clip-path="url(#clip972)" style="stroke:#000000; stroke-linecap:round; stroke-linejoin:round; stroke-width:2; stroke-opacity:0.1; fill:none" points="223.103,712.677 2352.76,712.677 "/>
<polyline clip-path="url(#clip972)" style="stroke:#000000; stroke-linecap:round; stroke-linejoin:round; stroke-width:2; stroke-opacity:0.1; fill:none" points="223.103,465.975 2352.76,465.975 "/>
<polyline clip-path="url(#clip972)" style="stroke:#000000; stroke-linecap:round; stroke-linejoin:round; stroke-width:2; stroke-opacity:0.1; fill:none" points="223.103,219.274 2352.76,219.274 "/>
<polyline clip-path="url(#clip970)" style="stroke:#000000; stroke-linecap:round; stroke-linejoin:round; stroke-width:4; stroke-opacity:1; fill:none" points="223.103,1423.18 223.103,47.2441 "/>
<polyline clip-path="url(#clip970)" style="stroke:#000000; stroke-linecap:round; stroke-linejoin:round; stroke-width:4; stroke-opacity:1; fill:none" points="223.103,1206.08 242,1206.08 "/>
<polyline clip-path="url(#clip970)" style="stroke:#000000; stroke-linecap:round; stroke-linejoin:round; stroke-width:4; stroke-opacity:1; fill:none" points="223.103,959.378 242,959.378 "/>
<polyline clip-path="url(#clip970)" style="stroke:#000000; stroke-linecap:round; stroke-linejoin:round; stroke-width:4; stroke-opacity:1; fill:none" points="223.103,712.677 242,712.677 "/>
<polyline clip-path="url(#clip970)" style="stroke:#000000; stroke-linecap:round; stroke-linejoin:round; stroke-width:4; stroke-opacity:1; fill:none" points="223.103,465.975 242,465.975 "/>
<polyline clip-path="url(#clip970)" style="stroke:#000000; stroke-linecap:round; stroke-linejoin:round; stroke-width:4; stroke-opacity:1; fill:none" points="223.103,219.274 242,219.274 "/>
<path clip-path="url(#clip970)" d="M50.9921 1206.53 L80.6679 1206.53 L80.6679 1210.47 L50.9921 1210.47 L50.9921 1206.53 Z" fill="#000000" fill-rule="nonzero" fill-opacity="1" /><path clip-path="url(#clip970)" d="M100.76 1191.88 Q97.1493 1191.88 95.3206 1195.44 Q93.515 1198.98 93.515 1206.11 Q93.515 1213.22 95.3206 1216.79 Q97.1493 1220.33 100.76 1220.33 Q104.395 1220.33 106.2 1216.79 Q108.029 1213.22 108.029 1206.11 Q108.029 1198.98 106.2 1195.44 Q104.395 1191.88 100.76 1191.88 M100.76 1188.17 Q106.571 1188.17 109.626 1192.78 Q112.705 1197.36 112.705 1206.11 Q112.705 1214.84 109.626 1219.45 Q106.571 1224.03 100.76 1224.03 Q94.9502 1224.03 91.8715 1219.45 Q88.816 1214.84 88.816 1206.11 Q88.816 1197.36 91.8715 1192.78 Q94.9502 1188.17 100.76 1188.17 Z" fill="#000000" fill-rule="nonzero" fill-opacity="1" /><path clip-path="url(#clip970)" d="M120.922 1217.48 L125.807 1217.48 L125.807 1223.36 L120.922 1223.36 L120.922 1217.48 Z" fill="#000000" fill-rule="nonzero" fill-opacity="1" /><path clip-path="url(#clip970)" d="M145.992 1191.88 Q142.381 1191.88 140.552 1195.44 Q138.746 1198.98 138.746 1206.11 Q138.746 1213.22 140.552 1216.79 Q142.381 1220.33 145.992 1220.33 Q149.626 1220.33 151.431 1216.79 Q153.26 1213.22 153.26 1206.11 Q153.26 1198.98 151.431 1195.44 Q149.626 1191.88 145.992 1191.88 M145.992 1188.17 Q151.802 1188.17 154.857 1192.78 Q157.936 1197.36 157.936 1206.11 Q157.936 1214.84 154.857 1219.45 Q151.802 1224.03 145.992 1224.03 Q140.181 1224.03 137.103 1219.45 Q134.047 1214.84 134.047 1206.11 Q134.047 1197.36 137.103 1192.78 Q140.181 1188.17 145.992 1188.17 Z" fill="#000000" fill-rule="nonzero" fill-opacity="1" /><path clip-path="url(#clip970)" d="M166.2 1188.8 L184.556 1188.8 L184.556 1192.74 L170.482 1192.74 L170.482 1201.21 Q171.501 1200.86 172.519 1200.7 Q173.538 1200.51 174.556 1200.51 Q180.343 1200.51 183.723 1203.68 Q187.103 1206.86 187.103 1212.27 Q187.103 1217.85 183.63 1220.95 Q180.158 1224.03 173.839 1224.03 Q171.663 1224.03 169.394 1223.66 Q167.149 1223.29 164.742 1222.55 L164.742 1217.85 Q166.825 1218.98 169.047 1219.54 Q171.269 1220.1 173.746 1220.1 Q177.751 1220.1 180.089 1217.99 Q182.427 1215.88 182.427 1212.27 Q182.427 1208.66 180.089 1206.55 Q177.751 1204.45 173.746 1204.45 Q171.871 1204.45 169.996 1204.86 Q168.144 1205.28 166.2 1206.16 L166.2 1188.8 Z" fill="#000000" fill-rule="nonzero" fill-opacity="1" /><path clip-path="url(#clip970)" d="M99.765 945.177 Q96.1539 945.177 94.3252 948.742 Q92.5197 952.283 92.5197 959.413 Q92.5197 966.519 94.3252 970.084 Q96.1539 973.626 99.765 973.626 Q103.399 973.626 105.205 970.084 Q107.033 966.519 107.033 959.413 Q107.033 952.283 105.205 948.742 Q103.399 945.177 99.765 945.177 M99.765 941.473 Q105.575 941.473 108.631 946.08 Q111.709 950.663 111.709 959.413 Q111.709 968.14 108.631 972.746 Q105.575 977.33 99.765 977.33 Q93.9549 977.33 90.8762 972.746 Q87.8206 968.14 87.8206 959.413 Q87.8206 950.663 90.8762 946.08 Q93.9549 941.473 99.765 941.473 Z" fill="#000000" fill-rule="nonzero" fill-opacity="1" /><path clip-path="url(#clip970)" d="M119.927 970.779 L124.811 970.779 L124.811 976.658 L119.927 976.658 L119.927 970.779 Z" fill="#000000" fill-rule="nonzero" fill-opacity="1" /><path clip-path="url(#clip970)" d="M144.996 945.177 Q141.385 945.177 139.556 948.742 Q137.751 952.283 137.751 959.413 Q137.751 966.519 139.556 970.084 Q141.385 973.626 144.996 973.626 Q148.63 973.626 150.436 970.084 Q152.265 966.519 152.265 959.413 Q152.265 952.283 150.436 948.742 Q148.63 945.177 144.996 945.177 M144.996 941.473 Q150.806 941.473 153.862 946.08 Q156.941 950.663 156.941 959.413 Q156.941 968.14 153.862 972.746 Q150.806 977.33 144.996 977.33 Q139.186 977.33 136.107 972.746 Q133.052 968.14 133.052 959.413 Q133.052 950.663 136.107 946.08 Q139.186 941.473 144.996 941.473 Z" fill="#000000" fill-rule="nonzero" fill-opacity="1" /><path clip-path="url(#clip970)" d="M175.158 945.177 Q171.547 945.177 169.718 948.742 Q167.913 952.283 167.913 959.413 Q167.913 966.519 169.718 970.084 Q171.547 973.626 175.158 973.626 Q178.792 973.626 180.598 970.084 Q182.427 966.519 182.427 959.413 Q182.427 952.283 180.598 948.742 Q178.792 945.177 175.158 945.177 M175.158 941.473 Q180.968 941.473 184.024 946.08 Q187.103 950.663 187.103 959.413 Q187.103 968.14 184.024 972.746 Q180.968 977.33 175.158 977.33 Q169.348 977.33 166.269 972.746 Q163.214 968.14 163.214 959.413 Q163.214 950.663 166.269 946.08 Q169.348 941.473 175.158 941.473 Z" fill="#000000" fill-rule="nonzero" fill-opacity="1" /><path clip-path="url(#clip970)" d="M100.76 698.476 Q97.1493 698.476 95.3206 702.04 Q93.515 705.582 93.515 712.712 Q93.515 719.818 95.3206 723.383 Q97.1493 726.924 100.76 726.924 Q104.395 726.924 106.2 723.383 Q108.029 719.818 108.029 712.712 Q108.029 705.582 106.2 702.04 Q104.395 698.476 100.76 698.476 M100.76 694.772 Q106.571 694.772 109.626 699.378 Q112.705 703.962 112.705 712.712 Q112.705 721.438 109.626 726.045 Q106.571 730.628 100.76 730.628 Q94.9502 730.628 91.8715 726.045 Q88.816 721.438 88.816 712.712 Q88.816 703.962 91.8715 699.378 Q94.9502 694.772 100.76 694.772 Z" fill="#000000" fill-rule="nonzero" fill-opacity="1" /><path clip-path="url(#clip970)" d="M120.922 724.077 L125.807 724.077 L125.807 729.957 L120.922 729.957 L120.922 724.077 Z" fill="#000000" fill-rule="nonzero" fill-opacity="1" /><path clip-path="url(#clip970)" d="M145.992 698.476 Q142.381 698.476 140.552 702.04 Q138.746 705.582 138.746 712.712 Q138.746 719.818 140.552 723.383 Q142.381 726.924 145.992 726.924 Q149.626 726.924 151.431 723.383 Q153.26 719.818 153.26 712.712 Q153.26 705.582 151.431 702.04 Q149.626 698.476 145.992 698.476 M145.992 694.772 Q151.802 694.772 154.857 699.378 Q157.936 703.962 157.936 712.712 Q157.936 721.438 154.857 726.045 Q151.802 730.628 145.992 730.628 Q140.181 730.628 137.103 726.045 Q134.047 721.438 134.047 712.712 Q134.047 703.962 137.103 699.378 Q140.181 694.772 145.992 694.772 Z" fill="#000000" fill-rule="nonzero" fill-opacity="1" /><path clip-path="url(#clip970)" d="M166.2 695.397 L184.556 695.397 L184.556 699.332 L170.482 699.332 L170.482 707.804 Q171.501 707.457 172.519 707.295 Q173.538 707.11 174.556 707.11 Q180.343 707.11 183.723 710.281 Q187.103 713.452 187.103 718.869 Q187.103 724.448 183.63 727.549 Q180.158 730.628 173.839 730.628 Q171.663 730.628 169.394 730.258 Q167.149 729.887 164.742 729.147 L164.742 724.448 Q166.825 725.582 169.047 726.137 Q171.269 726.693 173.746 726.693 Q177.751 726.693 180.089 724.586 Q182.427 722.48 182.427 718.869 Q182.427 715.258 180.089 713.151 Q177.751 711.045 173.746 711.045 Q171.871 711.045 169.996 711.462 Q168.144 711.878 166.2 712.758 L166.2 695.397 Z" fill="#000000" fill-rule="nonzero" fill-opacity="1" /><path clip-path="url(#clip970)" d="M99.765 451.774 Q96.1539 451.774 94.3252 455.339 Q92.5197 458.88 92.5197 466.01 Q92.5197 473.116 94.3252 476.681 Q96.1539 480.223 99.765 480.223 Q103.399 480.223 105.205 476.681 Q107.033 473.116 107.033 466.01 Q107.033 458.88 105.205 455.339 Q103.399 451.774 99.765 451.774 M99.765 448.07 Q105.575 448.07 108.631 452.677 Q111.709 457.26 111.709 466.01 Q111.709 474.737 108.631 479.343 Q105.575 483.927 99.765 483.927 Q93.9549 483.927 90.8762 479.343 Q87.8206 474.737 87.8206 466.01 Q87.8206 457.26 90.8762 452.677 Q93.9549 448.07 99.765 448.07 Z" fill="#000000" fill-rule="nonzero" fill-opacity="1" /><path clip-path="url(#clip970)" d="M119.927 477.376 L124.811 477.376 L124.811 483.255 L119.927 483.255 L119.927 477.376 Z" fill="#000000" fill-rule="nonzero" fill-opacity="1" /><path clip-path="url(#clip970)" d="M135.806 479.32 L143.445 479.32 L143.445 452.955 L135.135 454.621 L135.135 450.362 L143.399 448.695 L148.075 448.695 L148.075 479.32 L155.714 479.32 L155.714 483.255 L135.806 483.255 L135.806 479.32 Z" fill="#000000" fill-rule="nonzero" fill-opacity="1" /><path clip-path="url(#clip970)" d="M175.158 451.774 Q171.547 451.774 169.718 455.339 Q167.913 458.88 167.913 466.01 Q167.913 473.116 169.718 476.681 Q171.547 480.223 175.158 480.223 Q178.792 480.223 180.598 476.681 Q182.427 473.116 182.427 466.01 Q182.427 458.88 180.598 455.339 Q178.792 451.774 175.158 451.774 M175.158 448.07 Q180.968 448.07 184.024 452.677 Q187.103 457.26 187.103 466.01 Q187.103 474.737 184.024 479.343 Q180.968 483.927 175.158 483.927 Q169.348 483.927 166.269 479.343 Q163.214 474.737 163.214 466.01 Q163.214 457.26 166.269 452.677 Q169.348 448.07 175.158 448.07 Z" fill="#000000" fill-rule="nonzero" fill-opacity="1" /><path clip-path="url(#clip970)" d="M100.76 205.072 Q97.1493 205.072 95.3206 208.637 Q93.515 212.179 93.515 219.309 Q93.515 226.415 95.3206 229.98 Q97.1493 233.521 100.76 233.521 Q104.395 233.521 106.2 229.98 Q108.029 226.415 108.029 219.309 Q108.029 212.179 106.2 208.637 Q104.395 205.072 100.76 205.072 M100.76 201.369 Q106.571 201.369 109.626 205.975 Q112.705 210.559 112.705 219.309 Q112.705 228.035 109.626 232.642 Q106.571 237.225 100.76 237.225 Q94.9502 237.225 91.8715 232.642 Q88.816 228.035 88.816 219.309 Q88.816 210.559 91.8715 205.975 Q94.9502 201.369 100.76 201.369 Z" fill="#000000" fill-rule="nonzero" fill-opacity="1" /><path clip-path="url(#clip970)" d="M120.922 230.674 L125.807 230.674 L125.807 236.554 L120.922 236.554 L120.922 230.674 Z" fill="#000000" fill-rule="nonzero" fill-opacity="1" /><path clip-path="url(#clip970)" d="M136.802 232.619 L144.441 232.619 L144.441 206.253 L136.131 207.92 L136.131 203.66 L144.394 201.994 L149.07 201.994 L149.07 232.619 L156.709 232.619 L156.709 236.554 L136.802 236.554 L136.802 232.619 Z" fill="#000000" fill-rule="nonzero" fill-opacity="1" /><path clip-path="url(#clip970)" d="M166.2 201.994 L184.556 201.994 L184.556 205.929 L170.482 205.929 L170.482 214.401 Q171.501 214.054 172.519 213.892 Q173.538 213.707 174.556 213.707 Q180.343 213.707 183.723 216.878 Q187.103 220.049 187.103 225.466 Q187.103 231.045 183.63 234.146 Q180.158 237.225 173.839 237.225 Q171.663 237.225 169.394 236.855 Q167.149 236.484 164.742 235.744 L164.742 231.045 Q166.825 232.179 169.047 232.734 Q171.269 233.29 173.746 233.29 Q177.751 233.29 180.089 231.183 Q182.427 229.077 182.427 225.466 Q182.427 221.855 180.089 219.748 Q177.751 217.642 173.746 217.642 Q171.871 217.642 169.996 218.059 Q168.144 218.475 166.2 219.355 L166.2 201.994 Z" fill="#000000" fill-rule="nonzero" fill-opacity="1" /><polyline clip-path="url(#clip972)" style="stroke:#009af9; stroke-linecap:round; stroke-linejoin:round; stroke-width:4; stroke-opacity:1; fill:none" points="283.376,959.378 290.073,958.915 296.77,958.125 303.467,956.747 310.164,954.685 316.861,952.95 323.558,951.725 330.255,951.302 336.952,951.081 343.649,951.147 350.346,951.722 357.043,952.396 363.74,953.443 370.437,954.658 377.134,955.755 383.831,957.855 390.528,960.209 397.225,962.23 403.922,964.069 410.619,966.215 417.316,968.3 424.013,970.184 430.71,971.689 437.407,973.362 444.104,974.518 450.801,974.896 457.498,974.557 464.195,974.294 470.892,973.484 477.589,973.342 484.286,973.242 490.983,974.349 497.68,975.864 504.377,978.069 511.075,980.14 517.772,982.647 524.469,985.704 531.166,989.284 537.863,992.741 544.56,995.46 551.257,997.541 557.954,999.958 564.651,1001.96 571.348,1004.14 578.045,1006.91 584.742,1010.61 591.439,1013.59 598.136,1015.93 604.833,1018.44 611.53,1020.43 618.227,1022.61 624.924,1024.71 631.621,1026.3 638.318,1027.28 645.015,1028.82 651.712,1030.74 658.409,1034.15 665.106,1037.88 671.803,1041.2 678.5,1043.69 685.197,1045.67 691.894,1048.34 698.591,1051 705.288,1054.21 711.985,1058.46 718.682,1061.96 725.379,1065.23 732.076,1068.48 738.773,1071.61 745.47,1075.23 752.167,1078.85 758.864,1081.8 765.561,1084.64 772.258,1087.09 778.955,1089.57 785.652,1092.35 792.349,1095.73 799.047,1098.9 805.744,1102.56 812.441,1105.98 819.138,1109.29 825.835,1113.46 832.532,1116.73 839.229,1119.85 845.926,1122.34 852.623,1124.13 859.32,1125.3 866.017,1125.96 872.714,1126.66 879.411,1126.78 886.108,1126.55 892.805,1126.81 899.502,1126.52 906.199,1125.92 912.896,1125.21 919.593,1123.58 926.29,1121.42 932.987,1119.19 939.684,1116.28 946.381,1112.7 953.078,1108.61 959.775,1103.95 966.472,1099.86 973.169,1096.53 979.866,1092.66 986.563,1089.74 993.26,1087.03 999.957,1084.08 1006.65,1081.24 1013.35,1078.49 1020.05,1075.46 1026.75,1073.01 1033.44,1070.47 1040.14,1068.42 1046.84,1065.76 1053.53,1063.42 1060.23,1061.41 1066.93,1058.84 1073.62,1056.26 1080.32,1053.38 1087.02,1051.15 1093.72,1048.58 1100.41,1046.27 1107.11,1044.1 1113.81,1041.65 1120.5,1039.23 1127.2,1036.37 1133.9,1033.25 1140.59,1030.13 1147.29,1026.71 1153.99,1022.82 1160.69,1018.75 1167.38,1014.55 1174.08,1009.34 1180.78,1004.34 1187.47,999.414 1194.17,994.594 1200.87,990.264 1207.56,986.192 1214.26,982.273 1220.96,978.638 1227.66,974.241 1234.35,969.572 1241.05,965.543 1247.75,961.245 1254.44,956.525 1261.14,952.015 1267.84,947.6 1274.54,943.617 1281.23,938.955 1287.93,935.388 1294.63,932.064 1301.32,928.547 1308.02,925.196 1314.72,920.811 1321.41,916.304 1328.11,911.522 1334.81,906.313 1341.51,900.722 1348.2,894.461 1354.9,888.493 1361.6,882.4 1368.29,877.257 1374.99,871.135 1381.69,864.674 1388.38,858.871 1395.08,852.319 1401.78,845.883 1408.48,838.101 1415.17,830.309 1421.87,822.594 1428.57,814.059 1435.26,806.438 1441.96,798.229 1448.66,789.497 1455.35,781.427 1462.05,773.478 1468.75,765.263 1475.45,757.561 1482.14,750.306 1488.84,742.369 1495.54,735.331 1502.23,728.457 1508.93,721.403 1515.63,714.284 1522.33,707.556 1529.02,700.832 1535.72,695.166 1542.42,690.186 1549.11,685.287 1555.81,679.359 1562.51,673.19 1569.2,666.934 1575.9,660.809 1582.6,654.903 1589.3,649.369 1595.99,643.293 1602.69,636.601 1609.39,630.47 1616.08,624.831 1622.78,618.703 1629.48,612.464 1636.17,606.155 1642.87,599.867 1649.57,593.036 1656.27,586.178 1662.96,578.775 1669.66,571.714 1676.36,565.48 1683.05,559.446 1689.75,553.382 1696.45,547.693 1703.14,542.006 1709.84,536.76 1716.54,532.106 1723.24,527.214 1729.93,522.319 1736.63,517.832 1743.33,513.81 1750.02,509.481 1756.72,505.671 1763.42,502.563 1770.11,500.055 1776.81,497.477 1783.51,494.954 1790.21,491.667 1796.9,488.634 1803.6,486.47 1810.3,485.476 1816.99,484.415 1823.69,483.876 1830.39,483.084 1837.09,482.554 1843.78,481.505 1850.48,480.595 1857.18,479.054 1863.87,477.628 1870.57,476.574 1877.27,475.192 1883.96,473.733 1890.66,471.948 1897.36,471.004 1904.06,469.385 1910.75,468.035 1917.45,466.336 1924.15,465.008 1930.84,463.61 1937.54,463.133 1944.24,462.091 1950.93,460.837 1957.63,460.612 1964.33,460.606 1971.03,460.446 1977.72,460.967 1984.42,461.864 1991.12,462.755 1997.81,463.154 2004.51,464.39 2011.21,466.074 2017.9,468.085 2024.6,470.308 2031.3,472.032 2038,473.546 2044.69,476.185 2051.39,479.025 2058.09,482.181 2064.78,484.601 2071.48,486.771 2078.18,489.76 2084.87,493.091 2091.57,496.708 2098.27,499.941 2104.97,502.719 2111.66,505.307 2118.36,507.923 2125.06,511.042 2131.75,514.128 2138.45,516.981 2145.15,519.44 2151.85,522.487 2158.54,525.163 2165.24,528.497 2171.94,531.705 2178.63,535.109 2185.33,538.323 2192.03,541.428 2198.72,544.431 2205.42,547.418 2212.12,549.693 2218.82,550.78 2225.51,551.714 2232.21,553.056 2238.91,553.951 2245.6,555.296 2252.3,557.275 2259,558.342 2265.69,559.689 2272.39,561.168 2279.09,562.707 2285.79,564.219 2292.48,565.075 "/>
<polyline clip-path="url(#clip972)" style="stroke:#e26f46; stroke-linecap:round; stroke-linejoin:round; stroke-width:4; stroke-opacity:1; fill:none" points="283.376,912.998 290.073,880.422 296.77,821.557 303.467,753.163 310.164,785.963 316.861,836.844 323.558,917.11 330.255,937.278 336.952,965.927 343.649,1016.93 350.346,1026.73 357.043,1064.12 363.74,1080.88 370.437,1069.08 377.134,1169.3 383.831,1194.86 390.528,1161.41 397.225,1143.29 403.922,1173.95 410.619,1167.92 417.316,1147.8 424.013,1109.85 430.71,1126.71 437.407,1074.92 444.104,997.209 450.801,925.478 457.498,933.115 464.195,878.348 470.892,945.191 477.589,949.375 484.286,1070.09 490.983,1110.86 497.68,1179.9 504.377,1166.48 511.075,1210 517.772,1265.12 524.469,1317.4 531.166,1305.02 537.863,1231.3 544.56,1167.44 551.257,1201.08 557.954,1159.83 564.651,1176.91 571.348,1236.48 578.045,1329.89 584.742,1256.63 591.439,1194.25 598.136,1209.5 604.833,1158.99 611.53,1177.26 618.227,1169.65 624.924,1117.68 631.621,1057.24 638.318,1113.83 645.015,1151.23 651.712,1300.6 658.409,1332.22 665.106,1291.93 671.803,1207.53 678.5,1157.52 685.197,1226.37 691.894,1225.71 698.591,1280.05 705.288,1384.24 711.985,1309.51 718.682,1286.87 725.379,1283.94 732.076,1272.43 738.773,1321.74 745.47,1321.07 752.167,1254.77 758.864,1243.27 765.561,1204.23 772.258,1207.09 778.955,1237.35 785.652,1297.49 792.349,1277.03 799.047,1324.97 805.744,1300.91 812.441,1290.49 819.138,1376.83 825.835,1285.99 832.532,1271.74 839.229,1208.65 845.926,1138.48 852.623,1076.14 859.32,1025.08 866.017,1029.47 872.714,971.507 879.411,936.289 886.108,985.321 892.805,930.456 899.502,899.764 906.199,888.391 912.896,796.293 919.593,742.836 926.29,736.433 932.987,668.363 939.684,601.574 946.381,550.386 953.078,493.23 959.775,550.464 966.472,626.056 973.169,572.85 979.866,667.579 986.563,688.021 993.26,664.548 999.957,675.379 1006.65,684.339 1013.35,656.53 1020.05,713.668 1026.75,706.208 1033.44,754.1 1040.14,693.465 1046.84,724.91 1053.53,758.311 1060.23,702.351 1066.93,701.571 1073.62,671.894 1080.32,736.319 1087.02,701.883 1093.72,728.06 1100.41,742.83 1107.11,714.253 1113.81,717.845 1120.5,672.798 1127.2,647.989 1133.9,647.414 1140.59,617.458 1147.29,570.233 1153.99,551.579 1160.69,539.894 1167.38,438.36 1174.08,459.199 1180.78,466.969 1187.47,477.409 1194.17,526.286 1200.87,552.209 1207.56,567.481 1214.26,595.875 1220.96,519.729 1227.66,492.444 1234.35,556.491 1241.05,529.609 1247.75,487.286 1254.44,508.438 1261.14,517.915 1267.84,561.078 1274.54,493.126 1281.23,602.659 1287.93,627.024 1294.63,607.683 1301.32,624.222 1308.02,520.905 1314.72,508.662 1321.41,481.168 1328.11,438.541 1334.81,400.285 1341.51,333.221 1348.2,362.619 1354.9,350.048 1361.6,445.077 1368.29,347.159 1374.99,313.316 1381.69,379.039 1388.38,304.171 1395.08,315.831 1401.78,181.141 1408.48,180.182 1415.17,187.915 1421.87,105.857 1428.57,197.239 1435.26,138.481 1441.96,86.1857 1448.66,152.45 1455.35,164.436 1462.05,137.922 1468.75,189.129 1475.45,233.915 1482.14,165.696 1488.84,255.509 1495.54,271.958 1502.23,254.034 1508.93,247.418 1515.63,286.646 1522.33,287.006 1529.02,392.689 1535.72,461.434 1542.42,469.433 1549.11,366.596 1555.81,342.468 1562.51,333.8 1569.2,346.868 1575.9,368.798 1582.6,405.925 1589.3,351.858 1595.99,290.13 1602.69,346.326 1609.39,395.458 1616.08,346.589 1622.78,335.483 1629.48,328.485 1636.17,330.562 1642.87,276.224 1649.57,273.564 1656.27,219.124 1662.96,253.288 1669.66,335.968 1676.36,355.992 1683.05,352.984 1689.75,390.488 1696.45,390.628 1703.14,434.834 1709.84,493.91 1716.54,470.166 1723.24,469.907 1729.93,510.746 1736.63,557.131 1743.33,526.509 1750.02,578.387 1756.72,648.51 1763.42,708.616 1770.11,701.537 1776.81,707.122 1783.51,630.659 1790.21,656.069 1796.9,742.956 1803.6,860.02 1810.3,853.279 1816.99,905.517 1823.69,880.099 1830.39,906.429 1837.09,854.425 1843.78,868.443 1850.48,805.283 1857.18,816.797 1863.87,853.967 1870.57,821.159 1877.27,813.46 1883.96,780.831 1890.66,865.038 1897.36,797.43 1904.06,824.445 1910.75,789.463 1917.45,826.588 1924.15,819.528 1930.84,911.688 1937.54,855.238 1944.24,833.921 1950.93,936.923 1957.63,958.765 1964.33,943.396 1971.03,1011.41 1977.72,1049.13 1984.42,1048.48 1991.12,999.252 1997.81,1082.96 2004.51,1127.85 2011.21,1160.47 2017.9,1181.63 2024.6,1131.76 2031.3,1110.83 2038,1223.25 2044.69,1243.36 2051.39,1275.02 2058.09,1201.32 2064.78,1176.37 2071.48,1258.3 2078.18,1292.45 2084.87,1321.13 2091.57,1282.68 2098.27,1237.13 2104.97,1218.23 2111.66,1221 2118.36,1271.27 2125.06,1267.94 2131.75,1244.69 2138.45,1205.23 2145.15,1264.16 2151.85,1226.98 2158.54,1292.76 2165.24,1280.15 2171.94,1299.75 2178.63,1280.86 2185.33,1269.89 2192.03,1259.65 2198.72,1258.02 2205.42,1186.93 2212.12,1068.1 2218.82,1052.78 2225.51,1093.51 2232.21,1048.89 2238.91,1093.87 2245.6,1157.28 2252.3,1066.12 2259,1094.03 2265.69,1107.27 2272.39,1113.34 2279.09,1110.52 2285.79,1045.04 2292.48,1031.98 "/>
<path clip-path="url(#clip970)" d="M1843.22 248.629 L2281.77 248.629 L2281.77 93.1086 L1843.22 93.1086  Z" fill="#ffffff" fill-rule="evenodd" fill-opacity="1"/>
<polyline clip-path="url(#clip970)" style="stroke:#000000; stroke-linecap:round; stroke-linejoin:round; stroke-width:4; stroke-opacity:1; fill:none" points="1843.22,248.629 2281.77,248.629 2281.77,93.1086 1843.22,93.1086 1843.22,248.629 "/>
<polyline clip-path="url(#clip970)" style="stroke:#009af9; stroke-linecap:round; stroke-linejoin:round; stroke-width:4; stroke-opacity:1; fill:none" points="1866.89,144.949 2008.86,144.949 "/>
<path clip-path="url(#clip970)" d="M2046.37 164.636 Q2044.56 169.266 2042.85 170.678 Q2041.14 172.09 2038.27 172.09 L2034.87 172.09 L2034.87 168.525 L2037.37 168.525 Q2039.12 168.525 2040.1 167.692 Q2041.07 166.858 2042.25 163.756 L2043.01 161.812 L2032.53 136.303 L2037.04 136.303 L2045.14 156.581 L2053.24 136.303 L2057.76 136.303 L2046.37 164.636 Z" fill="#000000" fill-rule="nonzero" fill-opacity="1" /><path clip-path="url(#clip970)" d="M2082.83 158.34 L2082.83 172.09 L2078.55 172.09 L2078.55 136.303 L2082.83 136.303 L2082.83 140.238 Q2084.17 137.923 2086.21 136.812 Q2088.27 135.678 2091.11 135.678 Q2095.84 135.678 2098.78 139.428 Q2101.74 143.178 2101.74 149.289 Q2101.74 155.4 2098.78 159.15 Q2095.84 162.9 2091.11 162.9 Q2088.27 162.9 2086.21 161.789 Q2084.17 160.655 2082.83 158.34 M2097.32 149.289 Q2097.32 144.59 2095.37 141.928 Q2093.45 139.243 2090.07 139.243 Q2086.69 139.243 2084.75 141.928 Q2082.83 144.59 2082.83 149.289 Q2082.83 153.988 2084.75 156.673 Q2086.69 159.335 2090.07 159.335 Q2093.45 159.335 2095.37 156.673 Q2097.32 153.988 2097.32 149.289 Z" fill="#000000" fill-rule="nonzero" fill-opacity="1" /><path clip-path="url(#clip970)" d="M2118.85 139.289 Q2115.42 139.289 2113.43 141.974 Q2111.44 144.636 2111.44 149.289 Q2111.44 153.942 2113.41 156.627 Q2115.4 159.289 2118.85 159.289 Q2122.25 159.289 2124.24 156.604 Q2126.23 153.918 2126.23 149.289 Q2126.23 144.682 2124.24 141.997 Q2122.25 139.289 2118.85 139.289 M2118.85 135.678 Q2124.4 135.678 2127.57 139.289 Q2130.74 142.9 2130.74 149.289 Q2130.74 155.655 2127.57 159.289 Q2124.4 162.9 2118.85 162.9 Q2113.27 162.9 2110.1 159.289 Q2106.95 155.655 2106.95 149.289 Q2106.95 142.9 2110.1 139.289 Q2113.27 135.678 2118.85 135.678 Z" fill="#000000" fill-rule="nonzero" fill-opacity="1" /><path clip-path="url(#clip970)" d="M2154.33 137.067 L2154.33 141.094 Q2152.53 140.169 2150.58 139.706 Q2148.64 139.243 2146.55 139.243 Q2143.38 139.243 2141.79 140.215 Q2140.21 141.187 2140.21 143.131 Q2140.21 144.613 2141.35 145.469 Q2142.48 146.303 2145.91 147.067 L2147.36 147.391 Q2151.9 148.363 2153.8 150.145 Q2155.72 151.905 2155.72 155.076 Q2155.72 158.687 2152.85 160.793 Q2150 162.9 2145 162.9 Q2142.92 162.9 2140.65 162.483 Q2138.41 162.09 2135.91 161.28 L2135.91 156.881 Q2138.27 158.108 2140.56 158.733 Q2142.85 159.335 2145.1 159.335 Q2148.11 159.335 2149.73 158.317 Q2151.35 157.275 2151.35 155.4 Q2151.35 153.664 2150.17 152.738 Q2149.01 151.812 2145.05 150.956 L2143.57 150.608 Q2139.61 149.775 2137.85 148.062 Q2136.09 146.326 2136.09 143.317 Q2136.09 139.659 2138.68 137.669 Q2141.28 135.678 2146.05 135.678 Q2148.41 135.678 2150.49 136.025 Q2152.57 136.372 2154.33 137.067 Z" fill="#000000" fill-rule="nonzero" fill-opacity="1" /><path clip-path="url(#clip970)" d="M2162.5 136.303 L2166.76 136.303 L2166.76 162.229 L2162.5 162.229 L2162.5 136.303 M2162.5 126.21 L2166.76 126.21 L2166.76 131.604 L2162.5 131.604 L2162.5 126.21 Z" fill="#000000" fill-rule="nonzero" fill-opacity="1" /><path clip-path="url(#clip970)" d="M2179.89 128.942 L2179.89 136.303 L2188.66 136.303 L2188.66 139.613 L2179.89 139.613 L2179.89 153.687 Q2179.89 156.858 2180.74 157.761 Q2181.62 158.664 2184.29 158.664 L2188.66 158.664 L2188.66 162.229 L2184.29 162.229 Q2179.36 162.229 2177.48 160.4 Q2175.61 158.548 2175.61 153.687 L2175.61 139.613 L2172.48 139.613 L2172.48 136.303 L2175.61 136.303 L2175.61 128.942 L2179.89 128.942 Z" fill="#000000" fill-rule="nonzero" fill-opacity="1" /><path clip-path="url(#clip970)" d="M2194.26 136.303 L2198.52 136.303 L2198.52 162.229 L2194.26 162.229 L2194.26 136.303 M2194.26 126.21 L2198.52 126.21 L2198.52 131.604 L2194.26 131.604 L2194.26 126.21 Z" fill="#000000" fill-rule="nonzero" fill-opacity="1" /><path clip-path="url(#clip970)" d="M2217.48 139.289 Q2214.05 139.289 2212.06 141.974 Q2210.07 144.636 2210.07 149.289 Q2210.07 153.942 2212.04 156.627 Q2214.03 159.289 2217.48 159.289 Q2220.88 159.289 2222.87 156.604 Q2224.86 153.918 2224.86 149.289 Q2224.86 144.682 2222.87 141.997 Q2220.88 139.289 2217.48 139.289 M2217.48 135.678 Q2223.04 135.678 2226.21 139.289 Q2229.38 142.9 2229.38 149.289 Q2229.38 155.655 2226.21 159.289 Q2223.04 162.9 2217.48 162.9 Q2211.9 162.9 2208.73 159.289 Q2205.58 155.655 2205.58 149.289 Q2205.58 142.9 2208.73 139.289 Q2211.9 135.678 2217.48 135.678 Z" fill="#000000" fill-rule="nonzero" fill-opacity="1" /><path clip-path="url(#clip970)" d="M2257.99 146.581 L2257.99 162.229 L2253.73 162.229 L2253.73 146.719 Q2253.73 143.039 2252.29 141.21 Q2250.86 139.382 2247.99 139.382 Q2244.54 139.382 2242.55 141.581 Q2240.56 143.78 2240.56 147.576 L2240.56 162.229 L2236.28 162.229 L2236.28 136.303 L2240.56 136.303 L2240.56 140.331 Q2242.09 137.993 2244.15 136.835 Q2246.23 135.678 2248.94 135.678 Q2253.41 135.678 2255.7 138.456 Q2257.99 141.21 2257.99 146.581 Z" fill="#000000" fill-rule="nonzero" fill-opacity="1" /><polyline clip-path="url(#clip970)" style="stroke:#e26f46; stroke-linecap:round; stroke-linejoin:round; stroke-width:4; stroke-opacity:1; fill:none" points="1866.89,196.789 2008.86,196.789 "/>
<path clip-path="url(#clip970)" d="M2046.37 216.476 Q2044.56 221.106 2042.85 222.518 Q2041.14 223.93 2038.27 223.93 L2034.87 223.93 L2034.87 220.365 L2037.37 220.365 Q2039.12 220.365 2040.1 219.532 Q2041.07 218.698 2042.25 215.596 L2043.01 213.652 L2032.53 188.143 L2037.04 188.143 L2045.14 208.421 L2053.24 188.143 L2057.76 188.143 L2046.37 216.476 Z" fill="#000000" fill-rule="nonzero" fill-opacity="1" /><path clip-path="url(#clip970)" d="M2075.65 188.143 L2080.17 188.143 L2088.27 209.902 L2096.37 188.143 L2100.88 188.143 L2091.16 214.069 L2085.37 214.069 L2075.65 188.143 Z" fill="#000000" fill-rule="nonzero" fill-opacity="1" /><path clip-path="url(#clip970)" d="M2128.94 200.041 L2128.94 202.124 L2109.36 202.124 Q2109.63 206.522 2111.99 208.837 Q2114.38 211.129 2118.61 211.129 Q2121.07 211.129 2123.36 210.527 Q2125.67 209.925 2127.94 208.721 L2127.94 212.749 Q2125.65 213.721 2123.24 214.231 Q2120.84 214.74 2118.36 214.74 Q2112.16 214.74 2108.52 211.129 Q2104.91 207.518 2104.91 201.36 Q2104.91 194.995 2108.34 191.268 Q2111.79 187.518 2117.62 187.518 Q2122.85 187.518 2125.88 190.897 Q2128.94 194.254 2128.94 200.041 M2124.68 198.791 Q2124.63 195.296 2122.71 193.212 Q2120.81 191.129 2117.67 191.129 Q2114.1 191.129 2111.95 193.143 Q2109.82 195.157 2109.49 198.814 L2124.68 198.791 Z" fill="#000000" fill-rule="nonzero" fill-opacity="1" /><path clip-path="url(#clip970)" d="M2135.93 178.05 L2140.19 178.05 L2140.19 214.069 L2135.93 214.069 L2135.93 178.05 Z" fill="#000000" fill-rule="nonzero" fill-opacity="1" /><path clip-path="url(#clip970)" d="M2159.15 191.129 Q2155.72 191.129 2153.73 193.814 Q2151.74 196.476 2151.74 201.129 Q2151.74 205.782 2153.71 208.467 Q2155.7 211.129 2159.15 211.129 Q2162.55 211.129 2164.54 208.444 Q2166.53 205.758 2166.53 201.129 Q2166.53 196.522 2164.54 193.837 Q2162.55 191.129 2159.15 191.129 M2159.15 187.518 Q2164.7 187.518 2167.87 191.129 Q2171.04 194.74 2171.04 201.129 Q2171.04 207.495 2167.87 211.129 Q2164.7 214.74 2159.15 214.74 Q2153.57 214.74 2150.4 211.129 Q2147.25 207.495 2147.25 201.129 Q2147.25 194.74 2150.4 191.129 Q2153.57 187.518 2159.15 187.518 Z" fill="#000000" fill-rule="nonzero" fill-opacity="1" /><path clip-path="url(#clip970)" d="M2196.76 189.138 L2196.76 193.12 Q2194.96 192.124 2193.13 191.638 Q2191.32 191.129 2189.47 191.129 Q2185.33 191.129 2183.04 193.768 Q2180.74 196.384 2180.74 201.129 Q2180.74 205.874 2183.04 208.513 Q2185.33 211.129 2189.47 211.129 Q2191.32 211.129 2193.13 210.643 Q2194.96 210.133 2196.76 209.138 L2196.76 213.073 Q2194.98 213.907 2193.06 214.323 Q2191.16 214.74 2189.01 214.74 Q2183.15 214.74 2179.7 211.059 Q2176.25 207.379 2176.25 201.129 Q2176.25 194.786 2179.73 191.152 Q2183.22 187.518 2189.29 187.518 Q2191.25 187.518 2193.13 187.935 Q2195 188.328 2196.76 189.138 Z" fill="#000000" fill-rule="nonzero" fill-opacity="1" /><path clip-path="url(#clip970)" d="M2204.17 188.143 L2208.43 188.143 L2208.43 214.069 L2204.17 214.069 L2204.17 188.143 M2204.17 178.05 L2208.43 178.05 L2208.43 183.444 L2204.17 183.444 L2204.17 178.05 Z" fill="#000000" fill-rule="nonzero" fill-opacity="1" /><path clip-path="url(#clip970)" d="M2221.55 180.782 L2221.55 188.143 L2230.33 188.143 L2230.33 191.453 L2221.55 191.453 L2221.55 205.527 Q2221.55 208.698 2222.41 209.601 Q2223.29 210.504 2225.95 210.504 L2230.33 210.504 L2230.33 214.069 L2225.95 214.069 Q2221.02 214.069 2219.15 212.24 Q2217.27 210.388 2217.27 205.527 L2217.27 191.453 L2214.15 191.453 L2214.15 188.143 L2217.27 188.143 L2217.27 180.782 L2221.55 180.782 Z" fill="#000000" fill-rule="nonzero" fill-opacity="1" /><path clip-path="url(#clip970)" d="M2246.72 216.476 Q2244.91 221.106 2243.2 222.518 Q2241.48 223.93 2238.61 223.93 L2235.21 223.93 L2235.21 220.365 L2237.71 220.365 Q2239.47 220.365 2240.44 219.532 Q2241.41 218.698 2242.6 215.596 L2243.36 213.652 L2232.87 188.143 L2237.39 188.143 L2245.49 208.421 L2253.59 188.143 L2258.1 188.143 L2246.72 216.476 Z" fill="#000000" fill-rule="nonzero" fill-opacity="1" /></svg>
