<?xml version="1.0" encoding="utf-8"?>
<svg xmlns="http://www.w3.org/2000/svg" xmlns:xlink="http://www.w3.org/1999/xlink" width="600" height="400" viewBox="0 0 2400 1600">
<defs>
  <clipPath id="clip810">
    <rect x="0" y="0" width="2400" height="1600"/>
  </clipPath>
</defs>
<path clip-path="url(#clip810)" d="M0 1600 L2400 1600 L2400 0 L0 0  Z" fill="#ffffff" fill-rule="evenodd" fill-opacity="1"/>
<defs>
  <clipPath id="clip811">
    <rect x="480" y="0" width="1681" height="1600"/>
  </clipPath>
</defs>
<path clip-path="url(#clip810)" d="M186.274 1486.45 L2352.76 1486.45 L2352.76 47.2441 L186.274 47.2441  Z" fill="#ffffff" fill-rule="evenodd" fill-opacity="1"/>
<defs>
  <clipPath id="clip812">
    <rect x="186" y="47" width="2167" height="1440"/>
  </clipPath>
</defs>
<polyline clip-path="url(#clip812)" style="stroke:#000000; stroke-linecap:round; stroke-linejoin:round; stroke-width:2; stroke-opacity:0.1; fill:none" points="186.274,1486.45 186.274,47.2441 "/>
<polyline clip-path="url(#clip812)" style="stroke:#000000; stroke-linecap:round; stroke-linejoin:round; stroke-width:2; stroke-opacity:0.1; fill:none" points="908.435,1486.45 908.435,47.2441 "/>
<polyline clip-path="url(#clip812)" style="stroke:#000000; stroke-linecap:round; stroke-linejoin:round; stroke-width:2; stroke-opacity:0.1; fill:none" points="1630.6,1486.45 1630.6,47.2441 "/>
<polyline clip-path="url(#clip812)" style="stroke:#000000; stroke-linecap:round; stroke-linejoin:round; stroke-width:2; stroke-opacity:0.1; fill:none" points="2352.76,1486.45 2352.76,47.2441 "/>
<polyline clip-path="url(#clip812)" style="stroke:#000000; stroke-linecap:round; stroke-linejoin:round; stroke-width:2; stroke-opacity:0.1; fill:none" points="186.274,1445.72 2352.76,1445.72 "/>
<polyline clip-path="url(#clip812)" style="stroke:#000000; stroke-linecap:round; stroke-linejoin:round; stroke-width:2; stroke-opacity:0.1; fill:none" points="186.274,1106.28 2352.76,1106.28 "/>
<polyline clip-path="url(#clip812)" style="stroke:#000000; stroke-linecap:round; stroke-linejoin:round; stroke-width:2; stroke-opacity:0.1; fill:none" points="186.274,766.846 2352.76,766.846 "/>
<polyline clip-path="url(#clip812)" style="stroke:#000000; stroke-linecap:round; stroke-linejoin:round; stroke-width:2; stroke-opacity:0.1; fill:none" points="186.274,427.411 2352.76,427.411 "/>
<polyline clip-path="url(#clip812)" style="stroke:#000000; stroke-linecap:round; stroke-linejoin:round; stroke-width:2; stroke-opacity:0.1; fill:none" points="186.274,87.9763 2352.76,87.9763 "/>
<polyline clip-path="url(#clip810)" style="stroke:#000000; stroke-linecap:round; stroke-linejoin:round; stroke-width:4; stroke-opacity:1; fill:none" points="186.274,1486.45 2352.76,1486.45 "/>
<polyline clip-path="url(#clip810)" style="stroke:#000000; stroke-linecap:round; stroke-linejoin:round; stroke-width:4; stroke-opacity:1; fill:none" points="186.274,1486.45 186.274,1467.55 "/>
<polyline clip-path="url(#clip810)" style="stroke:#000000; stroke-linecap:round; stroke-linejoin:round; stroke-width:4; stroke-opacity:1; fill:none" points="908.435,1486.45 908.435,1467.55 "/>
<polyline clip-path="url(#clip810)" style="stroke:#000000; stroke-linecap:round; stroke-linejoin:round; stroke-width:4; stroke-opacity:1; fill:none" points="1630.6,1486.45 1630.6,1467.55 "/>
<polyline clip-path="url(#clip810)" style="stroke:#000000; stroke-linecap:round; stroke-linejoin:round; stroke-width:4; stroke-opacity:1; fill:none" points="2352.76,1486.45 2352.76,1467.55 "/>
<path clip-path="url(#clip810)" d="M186.274 1517.37 Q182.663 1517.37 180.834 1520.93 Q179.029 1524.47 179.029 1531.6 Q179.029 1538.71 180.834 1542.27 Q182.663 1545.82 186.274 1545.82 Q189.908 1545.82 191.714 1542.27 Q193.542 1538.71 193.542 1531.6 Q193.542 1524.47 191.714 1520.93 Q189.908 1517.37 186.274 1517.37 M186.274 1513.66 Q192.084 1513.66 195.14 1518.27 Q198.218 1522.85 198.218 1531.6 Q198.218 1540.33 195.14 1544.94 Q192.084 1549.52 186.274 1549.52 Q180.464 1549.52 177.385 1544.94 Q174.33 1540.33 174.33 1531.6 Q174.33 1522.85 177.385 1518.27 Q180.464 1513.66 186.274 1513.66 Z" fill="#000000" fill-rule="nonzero" fill-opacity="1" /><path clip-path="url(#clip810)" d="M898.817 1544.91 L906.455 1544.91 L906.455 1518.55 L898.145 1520.21 L898.145 1515.95 L906.409 1514.29 L911.085 1514.29 L911.085 1544.91 L918.724 1544.91 L918.724 1548.85 L898.817 1548.85 L898.817 1544.91 Z" fill="#000000" fill-rule="nonzero" fill-opacity="1" /><path clip-path="url(#clip810)" d="M1625.25 1544.91 L1641.57 1544.91 L1641.57 1548.85 L1619.62 1548.85 L1619.62 1544.91 Q1622.29 1542.16 1626.87 1537.53 Q1631.47 1532.88 1632.66 1531.53 Q1634.9 1529.01 1635.78 1527.27 Q1636.68 1525.51 1636.68 1523.82 Q1636.68 1521.07 1634.74 1519.33 Q1632.82 1517.6 1629.72 1517.6 Q1627.52 1517.6 1625.06 1518.36 Q1622.63 1519.13 1619.85 1520.68 L1619.85 1515.95 Q1622.68 1514.82 1625.13 1514.24 Q1627.59 1513.66 1629.62 1513.66 Q1634.99 1513.66 1638.19 1516.35 Q1641.38 1519.03 1641.38 1523.52 Q1641.38 1525.65 1640.57 1527.57 Q1639.79 1529.47 1637.68 1532.07 Q1637.1 1532.74 1634 1535.95 Q1630.9 1539.15 1625.25 1544.91 Z" fill="#000000" fill-rule="nonzero" fill-opacity="1" /><path clip-path="url(#clip810)" d="M2357 1530.21 Q2360.36 1530.93 2362.24 1533.2 Q2364.13 1535.47 2364.13 1538.8 Q2364.13 1543.92 2360.61 1546.72 Q2357.1 1549.52 2350.61 1549.52 Q2348.44 1549.52 2346.12 1549.08 Q2343.83 1548.66 2341.38 1547.81 L2341.38 1543.29 Q2343.32 1544.43 2345.64 1545.01 Q2347.95 1545.58 2350.48 1545.58 Q2354.87 1545.58 2357.17 1543.85 Q2359.48 1542.11 2359.48 1538.8 Q2359.48 1535.75 2357.33 1534.03 Q2355.2 1532.3 2351.38 1532.3 L2347.35 1532.3 L2347.35 1528.45 L2351.56 1528.45 Q2355.01 1528.45 2356.84 1527.09 Q2358.67 1525.7 2358.67 1523.11 Q2358.67 1520.45 2356.77 1519.03 Q2354.9 1517.6 2351.38 1517.6 Q2349.46 1517.6 2347.26 1518.01 Q2345.06 1518.43 2342.42 1519.31 L2342.42 1515.14 Q2345.08 1514.4 2347.4 1514.03 Q2349.74 1513.66 2351.8 1513.66 Q2357.12 1513.66 2360.22 1516.09 Q2363.32 1518.5 2363.32 1522.62 Q2363.32 1525.49 2361.68 1527.48 Q2360.04 1529.45 2357 1530.21 Z" fill="#000000" fill-rule="nonzero" fill-opacity="1" /><polyline clip-path="url(#clip810)" style="stroke:#000000; stroke-linecap:round; stroke-linejoin:round; stroke-width:4; stroke-opacity:1; fill:none" points="186.274,1486.45 186.274,47.2441 "/>
<polyline clip-path="url(#clip810)" style="stroke:#000000; stroke-linecap:round; stroke-linejoin:round; stroke-width:4; stroke-opacity:1; fill:none" points="186.274,1445.72 205.172,1445.72 "/>
<polyline clip-path="url(#clip810)" style="stroke:#000000; stroke-linecap:round; stroke-linejoin:round; stroke-width:4; stroke-opacity:1; fill:none" points="186.274,1106.28 205.172,1106.28 "/>
<polyline clip-path="url(#clip810)" style="stroke:#000000; stroke-linecap:round; stroke-linejoin:round; stroke-width:4; stroke-opacity:1; fill:none" points="186.274,766.846 205.172,766.846 "/>
<polyline clip-path="url(#clip810)" style="stroke:#000000; stroke-linecap:round; stroke-linejoin:round; stroke-width:4; stroke-opacity:1; fill:none" points="186.274,427.411 205.172,427.411 "/>
<polyline clip-path="url(#clip810)" style="stroke:#000000; stroke-linecap:round; stroke-linejoin:round; stroke-width:4; stroke-opacity:1; fill:none" points="186.274,87.9763 205.172,87.9763 "/>
<path clip-path="url(#clip810)" d="M62.9365 1431.51 Q59.3254 1431.51 57.4967 1435.08 Q55.6912 1438.62 55.6912 1445.75 Q55.6912 1452.86 57.4967 1456.42 Q59.3254 1459.96 62.9365 1459.96 Q66.5707 1459.96 68.3763 1456.42 Q70.205 1452.86 70.205 1445.75 Q70.205 1438.62 68.3763 1435.08 Q66.5707 1431.51 62.9365 1431.51 M62.9365 1427.81 Q68.7467 1427.81 71.8022 1432.42 Q74.8809 1437 74.8809 1445.75 Q74.8809 1454.48 71.8022 1459.08 Q68.7467 1463.67 62.9365 1463.67 Q57.1264 1463.67 54.0477 1459.08 Q50.9921 1454.48 50.9921 1445.75 Q50.9921 1437 54.0477 1432.42 Q57.1264 1427.81 62.9365 1427.81 Z" fill="#000000" fill-rule="nonzero" fill-opacity="1" /><path clip-path="url(#clip810)" d="M83.0984 1457.12 L87.9827 1457.12 L87.9827 1463 L83.0984 1463 L83.0984 1457.12 Z" fill="#000000" fill-rule="nonzero" fill-opacity="1" /><path clip-path="url(#clip810)" d="M108.168 1431.51 Q104.557 1431.51 102.728 1435.08 Q100.922 1438.62 100.922 1445.75 Q100.922 1452.86 102.728 1456.42 Q104.557 1459.96 108.168 1459.96 Q111.802 1459.96 113.608 1456.42 Q115.436 1452.86 115.436 1445.75 Q115.436 1438.62 113.608 1435.08 Q111.802 1431.51 108.168 1431.51 M108.168 1427.81 Q113.978 1427.81 117.033 1432.42 Q120.112 1437 120.112 1445.75 Q120.112 1454.48 117.033 1459.08 Q113.978 1463.67 108.168 1463.67 Q102.358 1463.67 99.2789 1459.08 Q96.2234 1454.48 96.2234 1445.75 Q96.2234 1437 99.2789 1432.42 Q102.358 1427.81 108.168 1427.81 Z" fill="#000000" fill-rule="nonzero" fill-opacity="1" /><path clip-path="url(#clip810)" d="M138.33 1431.51 Q134.719 1431.51 132.89 1435.08 Q131.084 1438.62 131.084 1445.75 Q131.084 1452.86 132.89 1456.42 Q134.719 1459.96 138.33 1459.96 Q141.964 1459.96 143.769 1456.42 Q145.598 1452.86 145.598 1445.75 Q145.598 1438.62 143.769 1435.08 Q141.964 1431.51 138.33 1431.51 M138.33 1427.81 Q144.14 1427.81 147.195 1432.42 Q150.274 1437 150.274 1445.75 Q150.274 1454.48 147.195 1459.08 Q144.14 1463.67 138.33 1463.67 Q132.519 1463.67 129.441 1459.08 Q126.385 1454.48 126.385 1445.75 Q126.385 1437 129.441 1432.42 Q132.519 1427.81 138.33 1427.81 Z" fill="#000000" fill-rule="nonzero" fill-opacity="1" /><path clip-path="url(#clip810)" d="M63.9319 1092.08 Q60.3208 1092.08 58.4921 1095.64 Q56.6865 1099.19 56.6865 1106.32 Q56.6865 1113.42 58.4921 1116.99 Q60.3208 1120.53 63.9319 1120.53 Q67.5661 1120.53 69.3717 1116.99 Q71.2004 1113.42 71.2004 1106.32 Q71.2004 1099.19 69.3717 1095.64 Q67.5661 1092.08 63.9319 1092.08 M63.9319 1088.38 Q69.742 1088.38 72.7976 1092.98 Q75.8763 1097.57 75.8763 1106.32 Q75.8763 1115.04 72.7976 1119.65 Q69.742 1124.23 63.9319 1124.23 Q58.1217 1124.23 55.043 1119.65 Q51.9875 1115.04 51.9875 1106.32 Q51.9875 1097.57 55.043 1092.98 Q58.1217 1088.38 63.9319 1088.38 Z" fill="#000000" fill-rule="nonzero" fill-opacity="1" /><path clip-path="url(#clip810)" d="M84.0938 1117.68 L88.978 1117.68 L88.978 1123.56 L84.0938 1123.56 L84.0938 1117.68 Z" fill="#000000" fill-rule="nonzero" fill-opacity="1" /><path clip-path="url(#clip810)" d="M103.191 1119.63 L119.51 1119.63 L119.51 1123.56 L97.566 1123.56 L97.566 1119.63 Q100.228 1116.87 104.811 1112.24 Q109.418 1107.59 110.598 1106.25 Q112.844 1103.72 113.723 1101.99 Q114.626 1100.23 114.626 1098.54 Q114.626 1095.78 112.682 1094.05 Q110.76 1092.31 107.658 1092.31 Q105.459 1092.31 103.006 1093.07 Q100.575 1093.84 97.7974 1095.39 L97.7974 1090.67 Q100.621 1089.53 103.075 1088.95 Q105.529 1088.38 107.566 1088.38 Q112.936 1088.38 116.131 1091.06 Q119.325 1093.75 119.325 1098.24 Q119.325 1100.37 118.515 1102.29 Q117.728 1104.19 115.621 1106.78 Q115.043 1107.45 111.941 1110.67 Q108.839 1113.86 103.191 1119.63 Z" fill="#000000" fill-rule="nonzero" fill-opacity="1" /><path clip-path="url(#clip810)" d="M129.371 1089 L147.728 1089 L147.728 1092.94 L133.654 1092.94 L133.654 1101.41 Q134.672 1101.06 135.691 1100.9 Q136.709 1100.71 137.728 1100.71 Q143.515 1100.71 146.894 1103.89 Q150.274 1107.06 150.274 1112.47 Q150.274 1118.05 146.802 1121.15 Q143.33 1124.23 137.01 1124.23 Q134.834 1124.23 132.566 1123.86 Q130.32 1123.49 127.913 1122.75 L127.913 1118.05 Q129.996 1119.19 132.219 1119.74 Q134.441 1120.3 136.918 1120.3 Q140.922 1120.3 143.26 1118.19 Q145.598 1116.08 145.598 1112.47 Q145.598 1108.86 143.26 1106.76 Q140.922 1104.65 136.918 1104.65 Q135.043 1104.65 133.168 1105.07 Q131.316 1105.48 129.371 1106.36 L129.371 1089 Z" fill="#000000" fill-rule="nonzero" fill-opacity="1" /><path clip-path="url(#clip810)" d="M62.9365 752.645 Q59.3254 752.645 57.4967 756.209 Q55.6912 759.751 55.6912 766.881 Q55.6912 773.987 57.4967 777.552 Q59.3254 781.094 62.9365 781.094 Q66.5707 781.094 68.3763 777.552 Q70.205 773.987 70.205 766.881 Q70.205 759.751 68.3763 756.209 Q66.5707 752.645 62.9365 752.645 M62.9365 748.941 Q68.7467 748.941 71.8022 753.547 Q74.8809 758.131 74.8809 766.881 Q74.8809 775.608 71.8022 780.214 Q68.7467 784.797 62.9365 784.797 Q57.1264 784.797 54.0477 780.214 Q50.9921 775.608 50.9921 766.881 Q50.9921 758.131 54.0477 753.547 Q57.1264 748.941 62.9365 748.941 Z" fill="#000000" fill-rule="nonzero" fill-opacity="1" /><path clip-path="url(#clip810)" d="M83.0984 778.246 L87.9827 778.246 L87.9827 784.126 L83.0984 784.126 L83.0984 778.246 Z" fill="#000000" fill-rule="nonzero" fill-opacity="1" /><path clip-path="url(#clip810)" d="M98.2141 749.566 L116.57 749.566 L116.57 753.501 L102.496 753.501 L102.496 761.973 Q103.515 761.626 104.534 761.464 Q105.552 761.279 106.571 761.279 Q112.358 761.279 115.737 764.45 Q119.117 767.621 119.117 773.038 Q119.117 778.617 115.645 781.719 Q112.172 784.797 105.853 784.797 Q103.677 784.797 101.409 784.427 Q99.1632 784.057 96.7558 783.316 L96.7558 778.617 Q98.8391 779.751 101.061 780.307 Q103.284 780.862 105.76 780.862 Q109.765 780.862 112.103 778.756 Q114.441 776.649 114.441 773.038 Q114.441 769.427 112.103 767.321 Q109.765 765.214 105.76 765.214 Q103.885 765.214 102.01 765.631 Q100.159 766.047 98.2141 766.927 L98.2141 749.566 Z" fill="#000000" fill-rule="nonzero" fill-opacity="1" /><path clip-path="url(#clip810)" d="M138.33 752.645 Q134.719 752.645 132.89 756.209 Q131.084 759.751 131.084 766.881 Q131.084 773.987 132.89 777.552 Q134.719 781.094 138.33 781.094 Q141.964 781.094 143.769 777.552 Q145.598 773.987 145.598 766.881 Q145.598 759.751 143.769 756.209 Q141.964 752.645 138.33 752.645 M138.33 748.941 Q144.14 748.941 147.195 753.547 Q150.274 758.131 150.274 766.881 Q150.274 775.608 147.195 780.214 Q144.14 784.797 138.33 784.797 Q132.519 784.797 129.441 780.214 Q126.385 775.608 126.385 766.881 Q126.385 758.131 129.441 753.547 Q132.519 748.941 138.33 748.941 Z" fill="#000000" fill-rule="nonzero" fill-opacity="1" /><path clip-path="url(#clip810)" d="M63.9319 413.21 Q60.3208 413.21 58.4921 416.775 Q56.6865 420.316 56.6865 427.446 Q56.6865 434.552 58.4921 438.117 Q60.3208 441.659 63.9319 441.659 Q67.5661 441.659 69.3717 438.117 Q71.2004 434.552 71.2004 427.446 Q71.2004 420.316 69.3717 416.775 Q67.5661 413.21 63.9319 413.21 M63.9319 409.506 Q69.742 409.506 72.7976 414.113 Q75.8763 418.696 75.8763 427.446 Q75.8763 436.173 72.7976 440.779 Q69.742 445.362 63.9319 445.362 Q58.1217 445.362 55.043 440.779 Q51.9875 436.173 51.9875 427.446 Q51.9875 418.696 55.043 414.113 Q58.1217 409.506 63.9319 409.506 Z" fill="#000000" fill-rule="nonzero" fill-opacity="1" /><path clip-path="url(#clip810)" d="M84.0938 438.812 L88.978 438.812 L88.978 444.691 L84.0938 444.691 L84.0938 438.812 Z" fill="#000000" fill-rule="nonzero" fill-opacity="1" /><path clip-path="url(#clip810)" d="M97.9826 410.131 L120.205 410.131 L120.205 412.122 L107.658 444.691 L102.774 444.691 L114.58 414.066 L97.9826 414.066 L97.9826 410.131 Z" fill="#000000" fill-rule="nonzero" fill-opacity="1" /><path clip-path="url(#clip810)" d="M129.371 410.131 L147.728 410.131 L147.728 414.066 L133.654 414.066 L133.654 422.538 Q134.672 422.191 135.691 422.029 Q136.709 421.844 137.728 421.844 Q143.515 421.844 146.894 425.015 Q150.274 428.187 150.274 433.603 Q150.274 439.182 146.802 442.284 Q143.33 445.362 137.01 445.362 Q134.834 445.362 132.566 444.992 Q130.32 444.622 127.913 443.881 L127.913 439.182 Q129.996 440.316 132.219 440.872 Q134.441 441.427 136.918 441.427 Q140.922 441.427 143.26 439.321 Q145.598 437.214 145.598 433.603 Q145.598 429.992 143.26 427.886 Q140.922 425.779 136.918 425.779 Q135.043 425.779 133.168 426.196 Q131.316 426.613 129.371 427.492 L129.371 410.131 Z" fill="#000000" fill-rule="nonzero" fill-opacity="1" /><path clip-path="url(#clip810)" d="M53.7467 101.321 L61.3856 101.321 L61.3856 74.9555 L53.0754 76.6222 L53.0754 72.3629 L61.3393 70.6963 L66.0152 70.6963 L66.0152 101.321 L73.654 101.321 L73.654 105.256 L53.7467 105.256 L53.7467 101.321 Z" fill="#000000" fill-rule="nonzero" fill-opacity="1" /><path clip-path="url(#clip810)" d="M83.0984 99.3767 L87.9827 99.3767 L87.9827 105.256 L83.0984 105.256 L83.0984 99.3767 Z" fill="#000000" fill-rule="nonzero" fill-opacity="1" /><path clip-path="url(#clip810)" d="M108.168 73.775 Q104.557 73.775 102.728 77.3398 Q100.922 80.8814 100.922 88.011 Q100.922 95.1174 102.728 98.6822 Q104.557 102.224 108.168 102.224 Q111.802 102.224 113.608 98.6822 Q115.436 95.1174 115.436 88.011 Q115.436 80.8814 113.608 77.3398 Q111.802 73.775 108.168 73.775 M108.168 70.0713 Q113.978 70.0713 117.033 74.6777 Q120.112 79.261 120.112 88.011 Q120.112 96.7378 117.033 101.344 Q113.978 105.928 108.168 105.928 Q102.358 105.928 99.2789 101.344 Q96.2234 96.7378 96.2234 88.011 Q96.2234 79.261 99.2789 74.6777 Q102.358 70.0713 108.168 70.0713 Z" fill="#000000" fill-rule="nonzero" fill-opacity="1" /><path clip-path="url(#clip810)" d="M138.33 73.775 Q134.719 73.775 132.89 77.3398 Q131.084 80.8814 131.084 88.011 Q131.084 95.1174 132.89 98.6822 Q134.719 102.224 138.33 102.224 Q141.964 102.224 143.769 98.6822 Q145.598 95.1174 145.598 88.011 Q145.598 80.8814 143.769 77.3398 Q141.964 73.775 138.33 73.775 M138.33 70.0713 Q144.14 70.0713 147.195 74.6777 Q150.274 79.261 150.274 88.011 Q150.274 96.7378 147.195 101.344 Q144.14 105.928 138.33 105.928 Q132.519 105.928 129.441 101.344 Q126.385 96.7378 126.385 88.011 Q126.385 79.261 129.441 74.6777 Q132.519 70.0713 138.33 70.0713 Z" fill="#000000" fill-rule="nonzero" fill-opacity="1" /><polyline clip-path="url(#clip812)" style="stroke:#009af9; stroke-linecap:round; stroke-linejoin:round; stroke-width:4; stroke-opacity:1; fill:none" points="186.274,1445.72 193.496,1445.72 200.717,1445.72 207.939,1445.72 215.16,1445.72 222.382,1445.72 229.604,1445.72 236.825,1445.72 244.047,1445.72 251.268,1445.72 258.49,1445.72 265.712,1445.72 272.933,1445.72 280.155,1445.72 287.376,1445.72 294.598,1445.72 301.82,1445.72 309.041,1445.72 316.263,1445.72 323.485,1445.72 330.706,1445.72 337.928,1445.72 345.149,1445.72 352.371,1445.72 359.593,1445.72 366.814,1445.72 374.036,1445.72 381.257,1445.72 388.479,1445.72 395.701,1445.72 402.922,1445.72 410.144,1445.72 417.365,1445.72 424.587,1445.72 431.809,1445.72 439.03,1445.72 446.252,1445.72 453.473,1445.72 460.695,1445.72 467.917,1445.72 475.138,1445.72 482.36,1445.72 489.581,1445.72 496.803,1445.72 504.025,1445.72 511.246,1445.72 518.468,1445.72 525.689,1445.72 532.911,1445.72 540.133,1445.71 547.354,1445.71 554.576,1445.71 561.798,1445.71 569.019,1445.71 576.241,1445.71 583.462,1445.71 590.684,1445.71 597.906,1445.71 605.127,1445.71 612.349,1445.71 619.57,1445.71 626.792,1445.7 634.014,1445.7 641.235,1445.7 648.457,1445.69 655.678,1445.69 662.9,1445.68 670.122,1445.67 677.343,1445.66 684.565,1445.65 691.786,1445.63 699.008,1445.61 706.23,1445.59 713.451,1445.55 720.673,1445.51 727.894,1445.46 735.116,1445.4 742.338,1445.33 749.559,1445.23 756.781,1445.11 764.003,1444.96 771.224,1444.78 778.446,1444.55 785.667,1444.27 792.889,1443.92 800.111,1443.48 807.332,1442.94 814.554,1442.28 821.775,1441.46 828.997,1440.46 836.219,1439.23 843.44,1437.73 850.662,1435.92 857.883,1433.73 865.105,1431.1 872.327,1427.98 879.548,1424.3 886.77,1420 893.991,1415.03 901.213,1409.35 908.435,1402.94 915.656,1395.78 922.878,1387.88 930.099,1379.27 937.321,1369.99 944.543,1360.1 951.764,1349.64 958.986,1338.69 966.207,1327.3 973.429,1315.54 980.651,1303.46 987.872,1291.11 995.094,1278.53 1002.32,1265.77 1009.54,1252.86 1016.76,1239.82 1023.98,1226.68 1031.2,1213.45 1038.42,1200.16 1045.65,1186.81 1052.87,1173.41 1060.09,1159.99 1067.31,1146.53 1074.53,1133.05 1081.75,1119.54 1088.97,1106.03 1096.2,1092.5 1103.42,1078.96 1110.64,1065.42 1117.86,1051.87 1125.08,1038.31 1132.3,1024.75 1139.53,1011.19 1146.75,997.618 1153.97,984.05 1161.19,970.479 1168.41,956.907 1175.63,943.334 1182.86,929.76 1190.08,916.186 1197.3,902.611 1204.52,889.035 1211.74,875.459 1218.96,861.883 1226.19,848.307 1233.41,834.73 1240.63,821.154 1247.85,807.577 1255.07,794 1262.29,780.423 1269.51,766.846 1276.74,753.269 1283.96,739.692 1291.18,726.115 1298.4,712.538 1305.62,698.962 1312.84,685.385 1320.07,671.809 1327.29,658.233 1334.51,644.657 1341.73,631.081 1348.95,617.506 1356.17,603.932 1363.4,590.358 1370.62,576.785 1377.84,563.213 1385.06,549.642 1392.28,536.074 1399.5,522.507 1406.73,508.943 1413.95,495.382 1421.17,481.825 1428.39,468.274 1435.61,454.728 1442.83,441.191 1450.06,427.663 1457.28,414.147 1464.5,400.647 1471.72,387.165 1478.94,373.707 1486.16,360.277 1493.38,346.884 1500.61,333.535 1507.83,320.241 1515.05,307.015 1522.27,293.872 1529.49,280.833 1536.71,267.919 1543.94,255.159 1551.16,242.585 1558.38,230.235 1565.6,218.155 1572.82,206.393 1580.04,195.005 1587.27,184.052 1594.49,173.596 1601.71,163.7 1608.93,154.421 1616.15,145.813 1623.37,137.915 1630.6,130.754 1637.82,124.338 1645.04,118.658 1652.26,113.689 1659.48,109.39 1666.7,105.709 1673.92,102.588 1681.15,99.9635 1688.37,97.7736 1695.59,95.9581 1702.81,94.4615 1710.03,93.2337 1717.25,92.2303 1724.48,91.4131 1731.7,90.7494 1738.92,90.2116 1746.14,89.7765 1753.36,89.4251 1760.58,89.1417 1767.81,88.9133 1775.03,88.7294 1782.25,88.5814 1789.47,88.4623 1796.69,88.3667 1803.91,88.2898 1811.14,88.228 1818.36,88.1784 1825.58,88.1385 1832.8,88.1065 1840.02,88.0808 1847.24,88.0602 1854.47,88.0436 1861.69,88.0303 1868.91,88.0197 1876.13,88.0111 1883.35,88.0042 1890.57,87.9987 1897.79,87.9943 1905.02,87.9907 1912.24,87.9879 1919.46,87.9856 1926.68,87.9837 1933.9,87.9823 1941.12,87.9811 1948.35,87.9801 1955.57,87.9794 1962.79,87.9788 1970.01,87.9783 1977.23,87.9779 1984.45,87.9776 1991.68,87.9773 1998.9,87.9771 2006.12,87.9769 2013.34,87.9768 2020.56,87.9767 2027.78,87.9766 2035.01,87.9766 2042.23,87.9765 2049.45,87.9765 2056.67,87.9764 2063.89,87.9764 2071.11,87.9764 2078.33,87.9764 2085.56,87.9763 2092.78,87.9763 2100,87.9763 2107.22,87.9763 2114.44,87.9763 2121.66,87.9763 2128.89,87.9763 2136.11,87.9763 2143.33,87.9763 2150.55,87.9763 2157.77,87.9763 2164.99,87.9763 2172.22,87.9763 2179.44,87.9763 2186.66,87.9763 2193.88,87.9763 2201.1,87.9763 2208.32,87.9763 2215.55,87.9763 2222.77,87.9763 2229.99,87.9763 2237.21,87.9763 2244.43,87.9763 2251.65,87.9763 2258.88,87.9763 2266.1,87.9763 2273.32,87.9763 2280.54,87.9763 2287.76,87.9763 2294.98,87.9763 2302.2,87.9763 2309.43,87.9763 2316.65,87.9763 2323.87,87.9763 2331.09,87.9763 2338.31,87.9763 2345.53,87.9763 2352.76,87.9763 "/>
<path clip-path="url(#clip810)" d="M258.49 198.898 L500.277 198.898 L500.277 95.2176 L258.49 95.2176  Z" fill="#ffffff" fill-rule="evenodd" fill-opacity="1"/>
<polyline clip-path="url(#clip810)" style="stroke:#000000; stroke-linecap:round; stroke-linejoin:round; stroke-width:4; stroke-opacity:1; fill:none" points="258.49,198.898 500.277,198.898 500.277,95.2176 258.49,95.2176 258.49,198.898 "/>
<polyline clip-path="url(#clip810)" style="stroke:#009af9; stroke-linecap:round; stroke-linejoin:round; stroke-width:4; stroke-opacity:1; fill:none" points="282.562,147.058 426.994,147.058 "/>
<path clip-path="url(#clip810)" d="M475.719 138.412 L466.344 151.027 L476.205 164.338 L471.182 164.338 L463.636 154.152 L456.089 164.338 L451.066 164.338 L461.136 150.773 L451.923 138.412 L456.946 138.412 L463.821 147.648 L470.696 138.412 L475.719 138.412 Z" fill="#000000" fill-rule="nonzero" fill-opacity="1" /></svg>
