<?xml version="1.0" encoding="utf-8"?>
<svg xmlns="http://www.w3.org/2000/svg" xmlns:xlink="http://www.w3.org/1999/xlink" width="600" height="400" viewBox="0 0 2400 1600">
<defs>
  <clipPath id="clip530">
    <rect x="0" y="0" width="2400" height="1600"/>
  </clipPath>
</defs>
<path clip-path="url(#clip530)" d="M0 1600 L2400 1600 L2400 0 L0 0  Z" fill="#ffffff" fill-rule="evenodd" fill-opacity="1"/>
<defs>
  <clipPath id="clip531">
    <rect x="480" y="0" width="1681" height="1600"/>
  </clipPath>
</defs>
<path clip-path="url(#clip530)" d="M186.274 1486.45 L2352.76 1486.45 L2352.76 47.2441 L186.274 47.2441  Z" fill="#ffffff" fill-rule="evenodd" fill-opacity="1"/>
<defs>
  <clipPath id="clip532">
    <rect x="186" y="47" width="2167" height="1440"/>
  </clipPath>
</defs>
<polyline clip-path="url(#clip532)" style="stroke:#000000; stroke-linecap:round; stroke-linejoin:round; stroke-width:2; stroke-opacity:0.1; fill:none" points="245.346,1486.45 245.346,47.2441 "/>
<polyline clip-path="url(#clip532)" style="stroke:#000000; stroke-linecap:round; stroke-linejoin:round; stroke-width:2; stroke-opacity:0.1; fill:none" points="694.051,1486.45 694.051,47.2441 "/>
<polyline clip-path="url(#clip532)" style="stroke:#000000; stroke-linecap:round; stroke-linejoin:round; stroke-width:2; stroke-opacity:0.1; fill:none" points="1142.76,1486.45 1142.76,47.2441 "/>
<polyline clip-path="url(#clip532)" style="stroke:#000000; stroke-linecap:round; stroke-linejoin:round; stroke-width:2; stroke-opacity:0.1; fill:none" points="1591.46,1486.45 1591.46,47.2441 "/>
<polyline clip-path="url(#clip532)" style="stroke:#000000; stroke-linecap:round; stroke-linejoin:round; stroke-width:2; stroke-opacity:0.1; fill:none" points="2040.17,1486.45 2040.17,47.2441 "/>
<polyline clip-path="url(#clip530)" style="stroke:#000000; stroke-linecap:round; stroke-linejoin:round; stroke-width:4; stroke-opacity:1; fill:none" points="186.274,1486.45 2352.76,1486.45 "/>
<polyline clip-path="url(#clip530)" style="stroke:#000000; stroke-linecap:round; stroke-linejoin:round; stroke-width:4; stroke-opacity:1; fill:none" points="245.346,1486.45 245.346,1467.55 "/>
<polyline clip-path="url(#clip530)" style="stroke:#000000; stroke-linecap:round; stroke-linejoin:round; stroke-width:4; stroke-opacity:1; fill:none" points="694.051,1486.45 694.051,1467.55 "/>
<polyline clip-path="url(#clip530)" style="stroke:#000000; stroke-linecap:round; stroke-linejoin:round; stroke-width:4; stroke-opacity:1; fill:none" points="1142.76,1486.45 1142.76,1467.55 "/>
<polyline clip-path="url(#clip530)" style="stroke:#000000; stroke-linecap:round; stroke-linejoin:round; stroke-width:4; stroke-opacity:1; fill:none" points="1591.46,1486.45 1591.46,1467.55 "/>
<polyline clip-path="url(#clip530)" style="stroke:#000000; stroke-linecap:round; stroke-linejoin:round; stroke-width:4; stroke-opacity:1; fill:none" points="2040.17,1486.45 2040.17,1467.55 "/>
<path clip-path="url(#clip530)" d="M245.346 1517.37 Q241.735 1517.37 239.906 1520.93 Q238.101 1524.47 238.101 1531.6 Q238.101 1538.71 239.906 1542.27 Q241.735 1545.82 245.346 1545.82 Q248.98 1545.82 250.786 1542.27 Q252.614 1538.71 252.614 1531.6 Q252.614 1524.47 250.786 1520.93 Q248.98 1517.37 245.346 1517.37 M245.346 1513.66 Q251.156 1513.66 254.212 1518.27 Q257.29 1522.85 257.29 1531.6 Q257.29 1540.33 254.212 1544.94 Q251.156 1549.52 245.346 1549.52 Q239.536 1549.52 236.457 1544.94 Q233.402 1540.33 233.402 1531.6 Q233.402 1522.85 236.457 1518.27 Q239.536 1513.66 245.346 1513.66 Z" fill="#000000" fill-rule="nonzero" fill-opacity="1" /><path clip-path="url(#clip530)" d="M657.743 1544.91 L674.063 1544.91 L674.063 1548.85 L652.118 1548.85 L652.118 1544.91 Q654.78 1542.16 659.364 1537.53 Q663.97 1532.88 665.151 1531.53 Q667.396 1529.01 668.276 1527.27 Q669.178 1525.51 669.178 1523.82 Q669.178 1521.07 667.234 1519.33 Q665.313 1517.6 662.211 1517.6 Q660.012 1517.6 657.558 1518.36 Q655.128 1519.13 652.35 1520.68 L652.35 1515.95 Q655.174 1514.82 657.627 1514.24 Q660.081 1513.66 662.118 1513.66 Q667.489 1513.66 670.683 1516.35 Q673.877 1519.03 673.877 1523.52 Q673.877 1525.65 673.067 1527.57 Q672.28 1529.47 670.174 1532.07 Q669.595 1532.74 666.493 1535.95 Q663.391 1539.15 657.743 1544.91 Z" fill="#000000" fill-rule="nonzero" fill-opacity="1" /><path clip-path="url(#clip530)" d="M693.877 1517.37 Q690.266 1517.37 688.438 1520.93 Q686.632 1524.47 686.632 1531.6 Q686.632 1538.71 688.438 1542.27 Q690.266 1545.82 693.877 1545.82 Q697.512 1545.82 699.317 1542.27 Q701.146 1538.71 701.146 1531.6 Q701.146 1524.47 699.317 1520.93 Q697.512 1517.37 693.877 1517.37 M693.877 1513.66 Q699.687 1513.66 702.743 1518.27 Q705.822 1522.85 705.822 1531.6 Q705.822 1540.33 702.743 1544.94 Q699.687 1549.52 693.877 1549.52 Q688.067 1549.52 684.988 1544.94 Q681.933 1540.33 681.933 1531.6 Q681.933 1522.85 684.988 1518.27 Q688.067 1513.66 693.877 1513.66 Z" fill="#000000" fill-rule="nonzero" fill-opacity="1" /><path clip-path="url(#clip530)" d="M724.039 1517.37 Q720.428 1517.37 718.599 1520.93 Q716.794 1524.47 716.794 1531.6 Q716.794 1538.71 718.599 1542.27 Q720.428 1545.82 724.039 1545.82 Q727.673 1545.82 729.479 1542.27 Q731.308 1538.71 731.308 1531.6 Q731.308 1524.47 729.479 1520.93 Q727.673 1517.37 724.039 1517.37 M724.039 1513.66 Q729.849 1513.66 732.905 1518.27 Q735.984 1522.85 735.984 1531.6 Q735.984 1540.33 732.905 1544.94 Q729.849 1549.52 724.039 1549.52 Q718.229 1549.52 715.15 1544.94 Q712.095 1540.33 712.095 1531.6 Q712.095 1522.85 715.15 1518.27 Q718.229 1513.66 724.039 1513.66 Z" fill="#000000" fill-rule="nonzero" fill-opacity="1" /><path clip-path="url(#clip530)" d="M1115.85 1518.36 L1104.04 1536.81 L1115.85 1536.81 L1115.85 1518.36 M1114.62 1514.29 L1120.5 1514.29 L1120.5 1536.81 L1125.43 1536.81 L1125.43 1540.7 L1120.5 1540.7 L1120.5 1548.85 L1115.85 1548.85 L1115.85 1540.7 L1100.24 1540.7 L1100.24 1536.19 L1114.62 1514.29 Z" fill="#000000" fill-rule="nonzero" fill-opacity="1" /><path clip-path="url(#clip530)" d="M1143.16 1517.37 Q1139.55 1517.37 1137.72 1520.93 Q1135.92 1524.47 1135.92 1531.6 Q1135.92 1538.71 1137.72 1542.27 Q1139.55 1545.82 1143.16 1545.82 Q1146.8 1545.82 1148.6 1542.27 Q1150.43 1538.71 1150.43 1531.6 Q1150.43 1524.47 1148.6 1520.93 Q1146.8 1517.37 1143.16 1517.37 M1143.16 1513.66 Q1148.97 1513.66 1152.03 1518.27 Q1155.11 1522.85 1155.11 1531.6 Q1155.11 1540.33 1152.03 1544.94 Q1148.97 1549.52 1143.16 1549.52 Q1137.35 1549.52 1134.27 1544.94 Q1131.22 1540.33 1131.22 1531.6 Q1131.22 1522.85 1134.27 1518.27 Q1137.35 1513.66 1143.16 1513.66 Z" fill="#000000" fill-rule="nonzero" fill-opacity="1" /><path clip-path="url(#clip530)" d="M1173.32 1517.37 Q1169.71 1517.37 1167.88 1520.93 Q1166.08 1524.47 1166.08 1531.6 Q1166.08 1538.71 1167.88 1542.27 Q1169.71 1545.82 1173.32 1545.82 Q1176.96 1545.82 1178.76 1542.27 Q1180.59 1538.71 1180.59 1531.6 Q1180.59 1524.47 1178.76 1520.93 Q1176.96 1517.37 1173.32 1517.37 M1173.32 1513.66 Q1179.13 1513.66 1182.19 1518.27 Q1185.27 1522.85 1185.27 1531.6 Q1185.27 1540.33 1182.19 1544.94 Q1179.13 1549.52 1173.32 1549.52 Q1167.51 1549.52 1164.43 1544.94 Q1161.38 1540.33 1161.38 1531.6 Q1161.38 1522.85 1164.43 1518.27 Q1167.51 1513.66 1173.32 1513.66 Z" fill="#000000" fill-rule="nonzero" fill-opacity="1" /><path clip-path="url(#clip530)" d="M1561.78 1529.7 Q1558.64 1529.7 1556.78 1531.86 Q1554.96 1534.01 1554.96 1537.76 Q1554.96 1541.49 1556.78 1543.66 Q1558.64 1545.82 1561.78 1545.82 Q1564.93 1545.82 1566.76 1543.66 Q1568.61 1541.49 1568.61 1537.76 Q1568.61 1534.01 1566.76 1531.86 Q1564.93 1529.7 1561.78 1529.7 M1571.07 1515.05 L1571.07 1519.31 Q1569.31 1518.48 1567.5 1518.04 Q1565.72 1517.6 1563.96 1517.6 Q1559.33 1517.6 1556.88 1520.72 Q1554.45 1523.85 1554.1 1530.17 Q1555.47 1528.15 1557.53 1527.09 Q1559.59 1526 1562.06 1526 Q1567.27 1526 1570.28 1529.17 Q1573.31 1532.32 1573.31 1537.76 Q1573.31 1543.08 1570.16 1546.3 Q1567.02 1549.52 1561.78 1549.52 Q1555.79 1549.52 1552.62 1544.94 Q1549.45 1540.33 1549.45 1531.6 Q1549.45 1523.41 1553.34 1518.55 Q1557.22 1513.66 1563.78 1513.66 Q1565.53 1513.66 1567.32 1514.01 Q1569.12 1514.36 1571.07 1515.05 Z" fill="#000000" fill-rule="nonzero" fill-opacity="1" /><path clip-path="url(#clip530)" d="M1591.37 1517.37 Q1587.76 1517.37 1585.93 1520.93 Q1584.12 1524.47 1584.12 1531.6 Q1584.12 1538.71 1585.93 1542.27 Q1587.76 1545.82 1591.37 1545.82 Q1595 1545.82 1596.81 1542.27 Q1598.64 1538.71 1598.64 1531.6 Q1598.64 1524.47 1596.81 1520.93 Q1595 1517.37 1591.37 1517.37 M1591.37 1513.66 Q1597.18 1513.66 1600.23 1518.27 Q1603.31 1522.85 1603.31 1531.6 Q1603.31 1540.33 1600.23 1544.94 Q1597.18 1549.52 1591.37 1549.52 Q1585.56 1549.52 1582.48 1544.94 Q1579.42 1540.33 1579.42 1531.6 Q1579.42 1522.85 1582.48 1518.27 Q1585.56 1513.66 1591.37 1513.66 Z" fill="#000000" fill-rule="nonzero" fill-opacity="1" /><path clip-path="url(#clip530)" d="M1621.53 1517.37 Q1617.92 1517.37 1616.09 1520.93 Q1614.28 1524.47 1614.28 1531.6 Q1614.28 1538.71 1616.09 1542.27 Q1617.92 1545.82 1621.53 1545.82 Q1625.16 1545.82 1626.97 1542.27 Q1628.8 1538.71 1628.8 1531.6 Q1628.8 1524.47 1626.97 1520.93 Q1625.16 1517.37 1621.53 1517.37 M1621.53 1513.66 Q1627.34 1513.66 1630.4 1518.27 Q1633.47 1522.85 1633.47 1531.6 Q1633.47 1540.33 1630.4 1544.94 Q1627.34 1549.52 1621.53 1549.52 Q1615.72 1549.52 1612.64 1544.94 Q1609.59 1540.33 1609.59 1531.6 Q1609.59 1522.85 1612.64 1518.27 Q1615.72 1513.66 1621.53 1513.66 Z" fill="#000000" fill-rule="nonzero" fill-opacity="1" /><path clip-path="url(#clip530)" d="M2009.96 1532.44 Q2006.62 1532.44 2004.7 1534.22 Q2002.8 1536 2002.8 1539.13 Q2002.8 1542.25 2004.7 1544.03 Q2006.62 1545.82 2009.96 1545.82 Q2013.29 1545.82 2015.21 1544.03 Q2017.13 1542.23 2017.13 1539.13 Q2017.13 1536 2015.21 1534.22 Q2013.31 1532.44 2009.96 1532.44 M2005.28 1530.45 Q2002.27 1529.7 2000.58 1527.64 Q1998.92 1525.58 1998.92 1522.62 Q1998.92 1518.48 2001.86 1516.07 Q2004.82 1513.66 2009.96 1513.66 Q2015.12 1513.66 2018.06 1516.07 Q2021 1518.48 2021 1522.62 Q2021 1525.58 2019.31 1527.64 Q2017.64 1529.7 2014.66 1530.45 Q2018.04 1531.23 2019.91 1533.52 Q2021.81 1535.82 2021.81 1539.13 Q2021.81 1544.15 2018.73 1546.83 Q2015.68 1549.52 2009.96 1549.52 Q2004.24 1549.52 2001.16 1546.83 Q1998.11 1544.15 1998.11 1539.13 Q1998.11 1535.82 2000 1533.52 Q2001.9 1531.23 2005.28 1530.45 M2003.57 1523.06 Q2003.57 1525.75 2005.24 1527.25 Q2006.93 1528.76 2009.96 1528.76 Q2012.97 1528.76 2014.66 1527.25 Q2016.37 1525.75 2016.37 1523.06 Q2016.37 1520.38 2014.66 1518.87 Q2012.97 1517.37 2009.96 1517.37 Q2006.93 1517.37 2005.24 1518.87 Q2003.57 1520.38 2003.57 1523.06 Z" fill="#000000" fill-rule="nonzero" fill-opacity="1" /><path clip-path="url(#clip530)" d="M2040.12 1517.37 Q2036.51 1517.37 2034.68 1520.93 Q2032.87 1524.47 2032.87 1531.6 Q2032.87 1538.71 2034.68 1542.27 Q2036.51 1545.82 2040.12 1545.82 Q2043.75 1545.82 2045.56 1542.27 Q2047.39 1538.71 2047.39 1531.6 Q2047.39 1524.47 2045.56 1520.93 Q2043.75 1517.37 2040.12 1517.37 M2040.12 1513.66 Q2045.93 1513.66 2048.99 1518.27 Q2052.06 1522.85 2052.06 1531.6 Q2052.06 1540.33 2048.99 1544.94 Q2045.93 1549.52 2040.12 1549.52 Q2034.31 1549.52 2031.23 1544.94 Q2028.17 1540.33 2028.17 1531.6 Q2028.17 1522.85 2031.23 1518.27 Q2034.31 1513.66 2040.12 1513.66 Z" fill="#000000" fill-rule="nonzero" fill-opacity="1" /><path clip-path="url(#clip530)" d="M2070.28 1517.37 Q2066.67 1517.37 2064.84 1520.93 Q2063.04 1524.47 2063.04 1531.6 Q2063.04 1538.71 2064.84 1542.27 Q2066.67 1545.82 2070.28 1545.82 Q2073.92 1545.82 2075.72 1542.27 Q2077.55 1538.71 2077.55 1531.6 Q2077.55 1524.47 2075.72 1520.93 Q2073.92 1517.37 2070.28 1517.37 M2070.28 1513.66 Q2076.09 1513.66 2079.15 1518.27 Q2082.23 1522.85 2082.23 1531.6 Q2082.23 1540.33 2079.15 1544.94 Q2076.09 1549.52 2070.28 1549.52 Q2064.47 1549.52 2061.39 1544.94 Q2058.34 1540.33 2058.34 1531.6 Q2058.34 1522.85 2061.39 1518.27 Q2064.47 1513.66 2070.28 1513.66 Z" fill="#000000" fill-rule="nonzero" fill-opacity="1" /><polyline clip-path="url(#clip532)" style="stroke:#000000; stroke-linecap:round; stroke-linejoin:round; stroke-width:2; stroke-opacity:0.1; fill:none" points="186.274,1445.72 2352.76,1445.72 "/>
<polyline clip-path="url(#clip532)" style="stroke:#000000; stroke-linecap:round; stroke-linejoin:round; stroke-width:2; stroke-opacity:0.1; fill:none" points="186.274,1106.28 2352.76,1106.28 "/>
<polyline clip-path="url(#clip532)" style="stroke:#000000; stroke-linecap:round; stroke-linejoin:round; stroke-width:2; stroke-opacity:0.1; fill:none" points="186.274,766.846 2352.76,766.846 "/>
<polyline clip-path="url(#clip532)" style="stroke:#000000; stroke-linecap:round; stroke-linejoin:round; stroke-width:2; stroke-opacity:0.1; fill:none" points="186.274,427.411 2352.76,427.411 "/>
<polyline clip-path="url(#clip532)" style="stroke:#000000; stroke-linecap:round; stroke-linejoin:round; stroke-width:2; stroke-opacity:0.1; fill:none" points="186.274,87.9763 2352.76,87.9763 "/>
<polyline clip-path="url(#clip530)" style="stroke:#000000; stroke-linecap:round; stroke-linejoin:round; stroke-width:4; stroke-opacity:1; fill:none" points="186.274,1486.45 186.274,47.2441 "/>
<polyline clip-path="url(#clip530)" style="stroke:#000000; stroke-linecap:round; stroke-linejoin:round; stroke-width:4; stroke-opacity:1; fill:none" points="186.274,1445.72 205.172,1445.72 "/>
<polyline clip-path="url(#clip530)" style="stroke:#000000; stroke-linecap:round; stroke-linejoin:round; stroke-width:4; stroke-opacity:1; fill:none" points="186.274,1106.28 205.172,1106.28 "/>
<polyline clip-path="url(#clip530)" style="stroke:#000000; stroke-linecap:round; stroke-linejoin:round; stroke-width:4; stroke-opacity:1; fill:none" points="186.274,766.846 205.172,766.846 "/>
<polyline clip-path="url(#clip530)" style="stroke:#000000; stroke-linecap:round; stroke-linejoin:round; stroke-width:4; stroke-opacity:1; fill:none" points="186.274,427.411 205.172,427.411 "/>
<polyline clip-path="url(#clip530)" style="stroke:#000000; stroke-linecap:round; stroke-linejoin:round; stroke-width:4; stroke-opacity:1; fill:none" points="186.274,87.9763 205.172,87.9763 "/>
<path clip-path="url(#clip530)" d="M62.9365 1431.51 Q59.3254 1431.51 57.4967 1435.08 Q55.6912 1438.62 55.6912 1445.75 Q55.6912 1452.86 57.4967 1456.42 Q59.3254 1459.96 62.9365 1459.96 Q66.5707 1459.96 68.3763 1456.42 Q70.205 1452.86 70.205 1445.75 Q70.205 1438.62 68.3763 1435.08 Q66.5707 1431.51 62.9365 1431.51 M62.9365 1427.81 Q68.7467 1427.81 71.8022 1432.42 Q74.8809 1437 74.8809 1445.75 Q74.8809 1454.48 71.8022 1459.08 Q68.7467 1463.67 62.9365 1463.67 Q57.1264 1463.67 54.0477 1459.08 Q50.9921 1454.48 50.9921 1445.75 Q50.9921 1437 54.0477 1432.42 Q57.1264 1427.81 62.9365 1427.81 Z" fill="#000000" fill-rule="nonzero" fill-opacity="1" /><path clip-path="url(#clip530)" d="M83.0984 1457.12 L87.9827 1457.12 L87.9827 1463 L83.0984 1463 L83.0984 1457.12 Z" fill="#000000" fill-rule="nonzero" fill-opacity="1" /><path clip-path="url(#clip530)" d="M108.168 1431.51 Q104.557 1431.51 102.728 1435.08 Q100.922 1438.62 100.922 1445.75 Q100.922 1452.86 102.728 1456.42 Q104.557 1459.96 108.168 1459.96 Q111.802 1459.96 113.608 1456.42 Q115.436 1452.86 115.436 1445.75 Q115.436 1438.62 113.608 1435.08 Q111.802 1431.51 108.168 1431.51 M108.168 1427.81 Q113.978 1427.81 117.033 1432.42 Q120.112 1437 120.112 1445.75 Q120.112 1454.48 117.033 1459.08 Q113.978 1463.67 108.168 1463.67 Q102.358 1463.67 99.2789 1459.08 Q96.2234 1454.48 96.2234 1445.75 Q96.2234 1437 99.2789 1432.42 Q102.358 1427.81 108.168 1427.81 Z" fill="#000000" fill-rule="nonzero" fill-opacity="1" /><path clip-path="url(#clip530)" d="M138.33 1431.51 Q134.719 1431.51 132.89 1435.08 Q131.084 1438.62 131.084 1445.75 Q131.084 1452.86 132.89 1456.42 Q134.719 1459.96 138.33 1459.96 Q141.964 1459.96 143.769 1456.42 Q145.598 1452.86 145.598 1445.75 Q145.598 1438.62 143.769 1435.08 Q141.964 1431.51 138.33 1431.51 M138.33 1427.81 Q144.14 1427.81 147.195 1432.42 Q150.274 1437 150.274 1445.75 Q150.274 1454.48 147.195 1459.08 Q144.14 1463.67 138.33 1463.67 Q132.519 1463.67 129.441 1459.08 Q126.385 1454.48 126.385 1445.75 Q126.385 1437 129.441 1432.42 Q132.519 1427.81 138.33 1427.81 Z" fill="#000000" fill-rule="nonzero" fill-opacity="1" /><path clip-path="url(#clip530)" d="M63.9319 1092.08 Q60.3208 1092.08 58.4921 1095.64 Q56.6865 1099.19 56.6865 1106.32 Q56.6865 1113.42 58.4921 1116.99 Q60.3208 1120.53 63.9319 1120.53 Q67.5661 1120.53 69.3717 1116.99 Q71.2004 1113.42 71.2004 1106.32 Q71.2004 1099.19 69.3717 1095.64 Q67.5661 1092.08 63.9319 1092.08 M63.9319 1088.38 Q69.742 1088.38 72.7976 1092.98 Q75.8763 1097.57 75.8763 1106.32 Q75.8763 1115.04 72.7976 1119.65 Q69.742 1124.23 63.9319 1124.23 Q58.1217 1124.23 55.043 1119.65 Q51.9875 1115.04 51.9875 1106.32 Q51.9875 1097.57 55.043 1092.98 Q58.1217 1088.38 63.9319 1088.38 Z" fill="#000000" fill-rule="nonzero" fill-opacity="1" /><path clip-path="url(#clip530)" d="M84.0938 1117.68 L88.978 1117.68 L88.978 1123.56 L84.0938 1123.56 L84.0938 1117.68 Z" fill="#000000" fill-rule="nonzero" fill-opacity="1" /><path clip-path="url(#clip530)" d="M103.191 1119.63 L119.51 1119.63 L119.51 1123.56 L97.566 1123.56 L97.566 1119.63 Q100.228 1116.87 104.811 1112.24 Q109.418 1107.59 110.598 1106.25 Q112.844 1103.72 113.723 1101.99 Q114.626 1100.23 114.626 1098.54 Q114.626 1095.78 112.682 1094.05 Q110.76 1092.31 107.658 1092.31 Q105.459 1092.31 103.006 1093.07 Q100.575 1093.84 97.7974 1095.39 L97.7974 1090.67 Q100.621 1089.53 103.075 1088.95 Q105.529 1088.38 107.566 1088.38 Q112.936 1088.38 116.131 1091.06 Q119.325 1093.75 119.325 1098.24 Q119.325 1100.37 118.515 1102.29 Q117.728 1104.19 115.621 1106.78 Q115.043 1107.45 111.941 1110.67 Q108.839 1113.86 103.191 1119.63 Z" fill="#000000" fill-rule="nonzero" fill-opacity="1" /><path clip-path="url(#clip530)" d="M129.371 1089 L147.728 1089 L147.728 1092.94 L133.654 1092.94 L133.654 1101.41 Q134.672 1101.06 135.691 1100.9 Q136.709 1100.71 137.728 1100.71 Q143.515 1100.71 146.894 1103.89 Q150.274 1107.06 150.274 1112.47 Q150.274 1118.05 146.802 1121.15 Q143.33 1124.23 137.01 1124.23 Q134.834 1124.23 132.566 1123.86 Q130.32 1123.49 127.913 1122.75 L127.913 1118.05 Q129.996 1119.19 132.219 1119.74 Q134.441 1120.3 136.918 1120.3 Q140.922 1120.3 143.26 1118.19 Q145.598 1116.08 145.598 1112.47 Q145.598 1108.86 143.26 1106.76 Q140.922 1104.65 136.918 1104.65 Q135.043 1104.65 133.168 1105.07 Q131.316 1105.48 129.371 1106.36 L129.371 1089 Z" fill="#000000" fill-rule="nonzero" fill-opacity="1" /><path clip-path="url(#clip530)" d="M62.9365 752.645 Q59.3254 752.645 57.4967 756.209 Q55.6912 759.751 55.6912 766.881 Q55.6912 773.987 57.4967 777.552 Q59.3254 781.094 62.9365 781.094 Q66.5707 781.094 68.3763 777.552 Q70.205 773.987 70.205 766.881 Q70.205 759.751 68.3763 756.209 Q66.5707 752.645 62.9365 752.645 M62.9365 748.941 Q68.7467 748.941 71.8022 753.547 Q74.8809 758.131 74.8809 766.881 Q74.8809 775.608 71.8022 780.214 Q68.7467 784.797 62.9365 784.797 Q57.1264 784.797 54.0477 780.214 Q50.9921 775.608 50.9921 766.881 Q50.9921 758.131 54.0477 753.547 Q57.1264 748.941 62.9365 748.941 Z" fill="#000000" fill-rule="nonzero" fill-opacity="1" /><path clip-path="url(#clip530)" d="M83.0984 778.246 L87.9827 778.246 L87.9827 784.126 L83.0984 784.126 L83.0984 778.246 Z" fill="#000000" fill-rule="nonzero" fill-opacity="1" /><path clip-path="url(#clip530)" d="M98.2141 749.566 L116.57 749.566 L116.57 753.501 L102.496 753.501 L102.496 761.973 Q103.515 761.626 104.534 761.464 Q105.552 761.279 106.571 761.279 Q112.358 761.279 115.737 764.45 Q119.117 767.621 119.117 773.038 Q119.117 778.617 115.645 781.719 Q112.172 784.797 105.853 784.797 Q103.677 784.797 101.409 784.427 Q99.1632 784.057 96.7558 783.316 L96.7558 778.617 Q98.8391 779.751 101.061 780.307 Q103.284 780.862 105.76 780.862 Q109.765 780.862 112.103 778.756 Q114.441 776.649 114.441 773.038 Q114.441 769.427 112.103 767.321 Q109.765 765.214 105.76 765.214 Q103.885 765.214 102.01 765.631 Q100.159 766.047 98.2141 766.927 L98.2141 749.566 Z" fill="#000000" fill-rule="nonzero" fill-opacity="1" /><path clip-path="url(#clip530)" d="M138.33 752.645 Q134.719 752.645 132.89 756.209 Q131.084 759.751 131.084 766.881 Q131.084 773.987 132.89 777.552 Q134.719 781.094 138.33 781.094 Q141.964 781.094 143.769 777.552 Q145.598 773.987 145.598 766.881 Q145.598 759.751 143.769 756.209 Q141.964 752.645 138.33 752.645 M138.33 748.941 Q144.14 748.941 147.195 753.547 Q150.274 758.131 150.274 766.881 Q150.274 775.608 147.195 780.214 Q144.14 784.797 138.33 784.797 Q132.519 784.797 129.441 780.214 Q126.385 775.608 126.385 766.881 Q126.385 758.131 129.441 753.547 Q132.519 748.941 138.33 748.941 Z" fill="#000000" fill-rule="nonzero" fill-opacity="1" /><path clip-path="url(#clip530)" d="M63.9319 413.21 Q60.3208 413.21 58.4921 416.775 Q56.6865 420.316 56.6865 427.446 Q56.6865 434.552 58.4921 438.117 Q60.3208 441.659 63.9319 441.659 Q67.5661 441.659 69.3717 438.117 Q71.2004 434.552 71.2004 427.446 Q71.2004 420.316 69.3717 416.775 Q67.5661 413.21 63.9319 413.21 M63.9319 409.506 Q69.742 409.506 72.7976 414.113 Q75.8763 418.696 75.8763 427.446 Q75.8763 436.173 72.7976 440.779 Q69.742 445.362 63.9319 445.362 Q58.1217 445.362 55.043 440.779 Q51.9875 436.173 51.9875 427.446 Q51.9875 418.696 55.043 414.113 Q58.1217 409.506 63.9319 409.506 Z" fill="#000000" fill-rule="nonzero" fill-opacity="1" /><path clip-path="url(#clip530)" d="M84.0938 438.812 L88.978 438.812 L88.978 444.691 L84.0938 444.691 L84.0938 438.812 Z" fill="#000000" fill-rule="nonzero" fill-opacity="1" /><path clip-path="url(#clip530)" d="M97.9826 410.131 L120.205 410.131 L120.205 412.122 L107.658 444.691 L102.774 444.691 L114.58 414.066 L97.9826 414.066 L97.9826 410.131 Z" fill="#000000" fill-rule="nonzero" fill-opacity="1" /><path clip-path="url(#clip530)" d="M129.371 410.131 L147.728 410.131 L147.728 414.066 L133.654 414.066 L133.654 422.538 Q134.672 422.191 135.691 422.029 Q136.709 421.844 137.728 421.844 Q143.515 421.844 146.894 425.015 Q150.274 428.187 150.274 433.603 Q150.274 439.182 146.802 442.284 Q143.33 445.362 137.01 445.362 Q134.834 445.362 132.566 444.992 Q130.32 444.622 127.913 443.881 L127.913 439.182 Q129.996 440.316 132.219 440.872 Q134.441 441.427 136.918 441.427 Q140.922 441.427 143.26 439.321 Q145.598 437.214 145.598 433.603 Q145.598 429.992 143.26 427.886 Q140.922 425.779 136.918 425.779 Q135.043 425.779 133.168 426.196 Q131.316 426.613 129.371 427.492 L129.371 410.131 Z" fill="#000000" fill-rule="nonzero" fill-opacity="1" /><path clip-path="url(#clip530)" d="M53.7467 101.321 L61.3856 101.321 L61.3856 74.9555 L53.0754 76.6222 L53.0754 72.3629 L61.3393 70.6963 L66.0152 70.6963 L66.0152 101.321 L73.654 101.321 L73.654 105.256 L53.7467 105.256 L53.7467 101.321 Z" fill="#000000" fill-rule="nonzero" fill-opacity="1" /><path clip-path="url(#clip530)" d="M83.0984 99.3767 L87.9827 99.3767 L87.9827 105.256 L83.0984 105.256 L83.0984 99.3767 Z" fill="#000000" fill-rule="nonzero" fill-opacity="1" /><path clip-path="url(#clip530)" d="M108.168 73.775 Q104.557 73.775 102.728 77.3398 Q100.922 80.8814 100.922 88.011 Q100.922 95.1174 102.728 98.6822 Q104.557 102.224 108.168 102.224 Q111.802 102.224 113.608 98.6822 Q115.436 95.1174 115.436 88.011 Q115.436 80.8814 113.608 77.3398 Q111.802 73.775 108.168 73.775 M108.168 70.0713 Q113.978 70.0713 117.033 74.6777 Q120.112 79.261 120.112 88.011 Q120.112 96.7378 117.033 101.344 Q113.978 105.928 108.168 105.928 Q102.358 105.928 99.2789 101.344 Q96.2234 96.7378 96.2234 88.011 Q96.2234 79.261 99.2789 74.6777 Q102.358 70.0713 108.168 70.0713 Z" fill="#000000" fill-rule="nonzero" fill-opacity="1" /><path clip-path="url(#clip530)" d="M138.33 73.775 Q134.719 73.775 132.89 77.3398 Q131.084 80.8814 131.084 88.011 Q131.084 95.1174 132.89 98.6822 Q134.719 102.224 138.33 102.224 Q141.964 102.224 143.769 98.6822 Q145.598 95.1174 145.598 88.011 Q145.598 80.8814 143.769 77.3398 Q141.964 73.775 138.33 73.775 M138.33 70.0713 Q144.14 70.0713 147.195 74.6777 Q150.274 79.261 150.274 88.011 Q150.274 96.7378 147.195 101.344 Q144.14 105.928 138.33 105.928 Q132.519 105.928 129.441 101.344 Q126.385 96.7378 126.385 88.011 Q126.385 79.261 129.441 74.6777 Q132.519 70.0713 138.33 70.0713 Z" fill="#000000" fill-rule="nonzero" fill-opacity="1" /><polyline clip-path="url(#clip532)" style="stroke:#009af9; stroke-linecap:round; stroke-linejoin:round; stroke-width:4; stroke-opacity:1; fill:none" points="247.59,87.9763 249.833,87.9763 252.077,87.9763 254.32,87.9763 256.564,87.9763 258.807,87.9763 261.051,87.9763 263.294,87.9763 265.538,87.9763 267.781,87.9763 270.025,87.9763 272.268,87.9763 274.512,87.9763 276.755,87.9763 278.999,87.9763 281.242,87.9763 283.486,87.9763 285.729,87.9763 287.973,87.9763 290.216,87.9763 292.46,87.9763 294.704,87.9763 296.947,87.9763 299.191,87.9763 301.434,87.9763 303.678,87.9763 305.921,87.9763 308.165,87.9763 310.408,87.9763 312.652,87.9763 314.895,87.9763 317.139,87.9763 319.382,87.9763 321.626,87.9763 323.869,87.9763 326.113,87.9763 328.356,87.9763 330.6,87.9763 332.843,87.9763 335.087,87.9763 337.331,87.9763 339.574,87.9763 341.818,87.9763 344.061,87.9763 346.305,87.9763 348.548,87.9763 350.792,87.9763 353.035,87.9763 355.279,87.9763 357.522,87.9763 359.766,87.9763 362.009,87.9763 364.253,87.9763 366.496,87.9763 368.74,87.9763 370.983,87.9763 373.227,87.9763 375.47,87.9763 377.714,87.9763 379.957,87.9763 382.201,87.9763 384.445,87.9763 386.688,87.9763 388.932,87.9763 391.175,87.9763 393.419,87.9763 395.662,87.9763 397.906,87.9763 400.149,87.9763 402.393,87.9763 404.636,87.9763 406.88,87.9763 409.123,87.9763 411.367,87.9763 413.61,87.9763 415.854,87.9763 418.097,87.9763 420.341,87.9763 422.584,87.9763 424.828,87.9763 427.071,87.9763 429.315,87.9763 431.559,87.9763 433.802,87.9763 436.046,87.9763 438.289,87.9763 440.533,87.9763 442.776,87.9763 445.02,87.9763 447.263,87.9763 449.507,87.9763 451.75,87.9763 453.994,87.9763 456.237,87.9763 458.481,87.9763 460.724,87.9763 462.968,87.9763 465.211,87.9763 467.455,87.9763 469.698,87.9763 471.942,87.9763 474.186,87.9763 476.429,87.9763 478.673,87.9763 480.916,87.9763 483.16,87.9763 485.403,87.9763 487.647,87.9763 489.89,87.9763 492.134,87.9763 494.377,87.9763 496.621,87.9763 498.864,87.9763 501.108,87.9763 503.351,87.9763 505.595,87.9763 507.838,87.9763 510.082,87.9763 512.325,87.9763 514.569,87.9763 516.812,87.9763 519.056,87.9763 521.3,87.9763 523.543,87.9763 525.787,87.9763 528.03,87.9763 530.274,87.9763 532.517,87.9763 534.761,87.9763 537.004,87.9763 539.248,87.9763 541.491,87.9763 543.735,87.9763 545.978,87.9763 548.222,87.9763 550.465,87.9763 552.709,87.9763 554.952,87.9763 557.196,87.9763 559.439,87.9763 561.683,87.9763 563.926,87.9763 566.17,87.9763 568.414,87.9763 570.657,87.9763 572.901,87.9763 575.144,87.9763 577.388,87.9763 579.631,87.9763 581.875,87.9763 584.118,87.9763 586.362,87.9763 588.605,87.9763 590.849,87.9763 593.092,87.9763 595.336,87.9763 597.579,87.9763 599.823,87.9763 602.066,87.9763 604.31,87.9763 606.553,87.9763 608.797,87.9763 611.041,87.9763 613.284,87.9763 615.528,87.9763 617.771,87.9763 620.015,87.9763 622.258,87.9763 624.502,87.9763 626.745,87.9763 628.989,87.9763 631.232,87.9763 633.476,87.9763 635.719,87.9763 637.963,87.9763 640.206,87.9763 642.45,87.9763 644.693,87.9763 646.937,87.9763 649.18,87.9763 651.424,87.9763 653.667,87.9763 655.911,87.9763 658.155,87.9763 660.398,87.9763 662.642,87.9763 664.885,87.9763 667.129,87.9763 669.372,87.9763 671.616,87.9763 673.859,87.9763 676.103,87.9763 678.346,87.9763 680.59,87.9763 682.833,87.9763 685.077,87.9763 687.32,87.9763 689.564,87.9763 691.807,87.9763 694.051,87.9763 696.294,87.9763 698.538,87.9763 700.781,87.9763 703.025,87.9763 705.269,87.9763 707.512,87.9763 709.756,87.9763 711.999,87.9763 714.243,87.9763 716.486,87.9763 718.73,87.9763 720.973,87.9763 723.217,87.9763 725.46,87.9763 727.704,87.9763 729.947,87.9763 732.191,87.9763 734.434,87.9763 736.678,87.9763 738.921,87.9763 741.165,87.9763 743.408,87.9763 745.652,87.9763 747.895,87.9763 750.139,87.9763 752.383,87.9763 754.626,87.9763 756.87,87.9763 759.113,87.9763 761.357,87.9763 763.6,87.9763 765.844,87.9763 768.087,87.9763 770.331,87.9763 772.574,87.9763 774.818,87.9763 777.061,87.9763 779.305,87.9763 781.548,87.9763 783.792,87.9763 786.035,87.9763 788.279,87.9763 790.522,87.9763 792.766,87.9763 795.01,87.9763 797.253,87.9763 799.497,87.9763 801.74,87.9763 803.984,87.9763 806.227,87.9763 808.471,87.9763 810.714,87.9763 812.958,87.9763 815.201,87.9763 817.445,87.9763 819.688,87.9763 821.932,87.9763 824.175,87.9763 826.419,87.9763 828.662,87.9763 830.906,87.9763 833.149,87.9763 835.393,87.9763 837.636,87.9763 839.88,87.9763 842.124,87.9763 844.367,87.9763 846.611,87.9763 848.854,87.9763 851.098,87.9763 853.341,87.9763 855.585,87.9763 857.828,87.9763 860.072,87.9763 862.315,87.9763 864.559,87.9763 866.802,87.9763 869.046,87.9763 871.289,87.9763 873.533,87.9763 875.776,87.9763 878.02,87.9763 880.263,87.9763 882.507,87.9763 884.75,87.9763 886.994,87.9763 889.238,87.9763 891.481,87.9763 893.725,87.9763 895.968,87.9763 898.212,87.9763 900.455,87.9763 902.699,87.9763 904.942,87.9763 907.186,87.9763 909.429,87.9763 911.673,87.9763 913.916,87.9763 916.16,87.9763 918.403,87.9763 920.647,87.9763 922.89,87.9763 925.134,87.9763 927.377,87.9763 929.621,87.9763 931.865,87.9763 934.108,87.9763 936.352,87.9763 938.595,87.9763 940.839,87.9763 943.082,87.9763 945.326,87.9763 947.569,1445.72 949.813,1445.72 952.056,1445.72 954.3,1445.72 956.543,1445.72 958.787,1445.72 961.03,1445.72 963.274,1445.72 965.517,1445.72 967.761,1445.72 970.004,1445.72 972.248,1445.72 974.491,1445.72 976.735,1445.72 978.979,1445.72 981.222,1445.72 983.466,1445.72 985.709,1445.72 987.953,1445.72 990.196,1445.72 992.44,1445.72 994.683,1445.72 996.927,1445.72 999.17,1445.72 1001.41,1445.72 1003.66,1445.72 1005.9,1445.72 1008.14,1445.72 1010.39,1445.72 1012.63,1445.72 1014.87,1445.72 1017.12,1445.72 1019.36,1445.72 1021.61,1445.72 1023.85,1445.72 1026.09,1445.72 1028.34,1445.72 1030.58,1445.72 1032.82,1445.72 1035.07,1445.72 1037.31,1445.72 1039.55,1445.72 1041.8,1445.72 1044.04,1445.72 1046.28,1445.72 1048.53,1445.72 1050.77,1445.72 1053.01,1445.72 1055.26,1445.72 1057.5,1445.72 1059.75,1445.72 1061.99,1445.72 1064.23,1445.72 1066.48,1445.72 1068.72,1445.72 1070.96,1445.72 1073.21,1445.72 1075.45,1445.72 1077.69,1445.72 1079.94,1445.72 1082.18,1445.72 1084.42,1445.72 1086.67,1445.72 1088.91,1445.72 1091.15,1445.72 1093.4,1445.72 1095.64,1445.72 1097.89,1445.72 1100.13,1445.72 1102.37,1445.72 1104.62,1445.72 1106.86,1445.72 1109.1,1445.72 1111.35,1445.72 1113.59,1445.72 1115.83,1445.72 1118.08,1445.72 1120.32,1445.72 1122.56,1445.72 1124.81,1445.72 1127.05,1445.72 1129.29,1445.72 1131.54,1445.72 1133.78,1445.72 1136.03,1445.72 1138.27,1445.72 1140.51,1445.72 1142.76,1445.72 1145,1445.72 1147.24,1445.72 1149.49,1445.72 1151.73,1445.72 1153.97,1445.72 1156.22,1445.72 1158.46,1445.72 1160.7,1445.72 1162.95,1445.72 1165.19,1445.72 1167.43,1445.72 1169.68,1445.72 1171.92,1445.72 1174.17,1445.72 1176.41,1445.72 1178.65,1445.72 1180.9,1445.72 1183.14,1445.72 1185.38,1445.72 1187.63,1445.72 1189.87,1445.72 1192.11,1445.72 1194.36,1445.72 1196.6,1445.72 1198.84,1445.72 1201.09,1445.72 1203.33,1445.72 1205.57,1445.72 1207.82,1445.72 1210.06,1445.72 1212.31,1445.72 1214.55,1445.72 1216.79,1445.72 1219.04,1445.72 1221.28,1445.72 1223.52,1445.72 1225.77,1445.72 1228.01,1445.72 1230.25,1445.72 1232.5,1445.72 1234.74,1445.72 1236.98,1445.72 1239.23,1445.72 1241.47,1445.72 1243.71,1445.72 1245.96,1445.72 1248.2,1445.72 1250.44,1445.72 1252.69,1445.72 1254.93,1445.72 1257.18,1445.72 1259.42,1445.72 1261.66,1445.72 1263.91,1445.72 1266.15,1445.72 1268.39,1445.72 1270.64,1445.72 1272.88,1445.72 1275.12,1445.72 1277.37,1445.72 1279.61,1445.72 1281.85,1445.72 1284.1,1445.72 1286.34,1445.72 1288.58,1445.72 1290.83,1445.72 1293.07,1445.72 1295.32,1445.72 1297.56,1445.72 1299.8,1445.72 1302.05,1445.72 1304.29,1445.72 1306.53,1445.72 1308.78,1445.72 1311.02,1445.72 1313.26,1445.72 1315.51,1445.72 1317.75,1445.72 1319.99,1445.72 1322.24,1445.72 1324.48,1445.72 1326.72,1445.72 1328.97,1445.72 1331.21,1445.72 1333.46,1445.72 1335.7,1445.72 1337.94,1445.72 1340.19,1445.72 1342.43,1445.72 1344.67,1445.72 1346.92,1445.72 1349.16,1445.72 1351.4,1445.72 1353.65,1445.72 1355.89,1445.72 1358.13,1445.72 1360.38,1445.72 1362.62,1445.72 1364.86,1445.72 1367.11,1445.72 1369.35,1445.72 1371.6,1445.72 1373.84,1445.72 1376.08,1445.72 1378.33,1445.72 1380.57,1445.72 1382.81,1445.72 1385.06,1445.72 1387.3,1445.72 1389.54,1445.72 1391.79,1445.72 1394.03,1445.72 1396.27,1445.72 1398.52,1445.72 1400.76,1445.72 1403,1445.72 1405.25,1445.72 1407.49,1445.72 1409.74,1445.72 1411.98,1445.72 1414.22,1445.72 1416.47,1445.72 1418.71,1445.72 1420.95,1445.72 1423.2,1445.72 1425.44,1445.72 1427.68,1445.72 1429.93,1445.72 1432.17,1445.72 1434.41,1445.72 1436.66,1445.72 1438.9,1445.72 1441.14,1445.72 1443.39,1445.72 1445.63,1445.72 1447.88,1445.72 1450.12,1445.72 1452.36,1445.72 1454.61,1445.72 1456.85,1445.72 1459.09,1445.72 1461.34,1445.72 1463.58,1445.72 1465.82,1445.72 1468.07,1445.72 1470.31,1445.72 1472.55,1445.72 1474.8,1445.72 1477.04,1445.72 1479.28,1445.72 1481.53,1445.72 1483.77,1445.72 1486.02,1445.72 1488.26,1445.72 1490.5,1445.72 1492.75,1445.72 1494.99,1445.72 1497.23,1445.72 1499.48,1445.72 1501.72,1445.72 1503.96,1445.72 1506.21,1445.72 1508.45,1445.72 1510.69,1445.72 1512.94,1445.72 1515.18,1445.72 1517.42,1445.72 1519.67,1445.72 1521.91,1445.72 1524.15,1445.72 1526.4,1445.72 1528.64,1445.72 1530.89,1445.72 1533.13,1445.72 1535.37,1445.72 1537.62,1445.72 1539.86,1445.72 1542.1,1445.72 1544.35,1445.72 1546.59,1445.72 1548.83,1445.72 1551.08,1445.72 1553.32,1445.72 1555.56,1445.72 1557.81,1445.72 1560.05,1445.72 1562.29,1445.72 1564.54,1445.72 1566.78,1445.72 1569.03,1445.72 1571.27,1445.72 1573.51,1445.72 1575.76,1445.72 1578,1445.72 1580.24,1445.72 1582.49,1445.72 1584.73,1445.72 1586.97,1445.72 1589.22,1445.72 1591.46,1445.72 1593.7,1445.72 1595.95,1445.72 1598.19,1445.72 1600.43,1445.72 1602.68,1445.72 1604.92,1445.72 1607.17,1445.72 1609.41,1445.72 1611.65,1445.72 1613.9,1445.72 1616.14,1445.72 1618.38,1445.72 1620.63,1445.72 1622.87,1445.72 1625.11,1445.72 1627.36,1445.72 1629.6,1445.72 1631.84,1445.72 1634.09,1445.72 1636.33,1445.72 1638.57,1445.72 1640.82,1445.72 1643.06,1445.72 1645.31,1445.72 1647.55,1445.72 1649.79,1445.72 1652.04,1445.72 1654.28,1445.72 1656.52,1445.72 1658.77,1445.72 1661.01,1445.72 1663.25,1445.72 1665.5,1445.72 1667.74,1445.72 1669.98,1445.72 1672.23,1445.72 1674.47,1445.72 1676.71,1445.72 1678.96,1445.72 1681.2,1445.72 1683.45,1445.72 1685.69,1445.72 1687.93,1445.72 1690.18,1445.72 1692.42,1445.72 1694.66,1445.72 1696.91,1445.72 1699.15,1445.72 1701.39,1445.72 1703.64,1445.72 1705.88,1445.72 1708.12,1445.72 1710.37,1445.72 1712.61,1445.72 1714.85,1445.72 1717.1,1445.72 1719.34,1445.72 1721.59,1445.72 1723.83,1445.72 1726.07,1445.72 1728.32,1445.72 1730.56,1445.72 1732.8,1445.72 1735.05,1445.72 1737.29,1445.72 1739.53,1445.72 1741.78,1445.72 1744.02,1445.72 1746.26,1445.72 1748.51,1445.72 1750.75,1445.72 1752.99,1445.72 1755.24,1445.72 1757.48,1445.72 1759.73,1445.72 1761.97,1445.72 1764.21,1445.72 1766.46,1445.72 1768.7,1445.72 1770.94,1445.72 1773.19,1445.72 1775.43,1445.72 1777.67,1445.72 1779.92,1445.72 1782.16,1445.72 1784.4,1445.72 1786.65,1445.72 1788.89,1445.72 1791.13,1445.72 1793.38,1445.72 1795.62,1445.72 1797.86,1445.72 1800.11,1445.72 1802.35,1445.72 1804.6,1445.72 1806.84,1445.72 1809.08,1445.72 1811.33,1445.72 1813.57,1445.72 1815.81,1445.72 1818.06,1445.72 1820.3,1445.72 1822.54,1445.72 1824.79,1445.72 1827.03,1445.72 1829.27,1445.72 1831.52,1445.72 1833.76,1445.72 1836,1445.72 1838.25,1445.72 1840.49,1445.72 1842.74,1445.72 1844.98,1445.72 1847.22,1445.72 1849.47,1445.72 1851.71,1445.72 1853.95,1445.72 1856.2,1445.72 1858.44,1445.72 1860.68,1445.72 1862.93,1445.72 1865.17,1445.72 1867.41,1445.72 1869.66,1445.72 1871.9,1445.72 1874.14,1445.72 1876.39,1445.72 1878.63,1445.72 1880.88,1445.72 1883.12,1445.72 1885.36,1445.72 1887.61,1445.72 1889.85,1445.72 1892.09,1445.72 1894.34,1445.72 1896.58,1445.72 1898.82,1445.72 1901.07,1445.72 1903.31,1445.72 1905.55,1445.72 1907.8,1445.72 1910.04,1445.72 1912.28,1445.72 1914.53,1445.72 1916.77,1445.72 1919.02,1445.72 1921.26,1445.72 1923.5,1445.72 1925.75,1445.72 1927.99,1445.72 1930.23,1445.72 1932.48,1445.72 1934.72,1445.72 1936.96,1445.72 1939.21,1445.72 1941.45,1445.72 1943.69,1445.72 1945.94,1445.72 1948.18,1445.72 1950.42,1445.72 1952.67,1445.72 1954.91,1445.72 1957.16,1445.72 1959.4,1445.72 1961.64,1445.72 1963.89,1445.72 1966.13,1445.72 1968.37,1445.72 1970.62,1445.72 1972.86,1445.72 1975.1,1445.72 1977.35,1445.72 1979.59,1445.72 1981.83,1445.72 1984.08,1445.72 1986.32,1445.72 1988.56,1445.72 1990.81,1445.72 1993.05,1445.72 1995.3,1445.72 1997.54,1445.72 1999.78,1445.72 2002.03,1445.72 2004.27,1445.72 2006.51,1445.72 2008.76,1445.72 2011,1445.72 2013.24,1445.72 2015.49,1445.72 2017.73,1445.72 2019.97,1445.72 2022.22,1445.72 2024.46,1445.72 2026.7,1445.72 2028.95,1445.72 2031.19,1445.72 2033.44,1445.72 2035.68,1445.72 2037.92,1445.72 2040.17,1445.72 2042.41,1445.72 2044.65,1445.72 2046.9,1445.72 2049.14,1445.72 2051.38,1445.72 2053.63,1445.72 2055.87,1445.72 2058.11,1445.72 2060.36,1445.72 2062.6,1445.72 2064.84,1445.72 2067.09,1445.72 2069.33,1445.72 2071.57,1445.72 2073.82,1445.72 2076.06,1445.72 2078.31,1445.72 2080.55,1445.72 2082.79,1445.72 2085.04,1445.72 2087.28,1445.72 2089.52,1445.72 2091.77,1445.72 2094.01,1445.72 2096.25,1445.72 2098.5,1445.72 2100.74,1445.72 2102.98,1445.72 2105.23,1445.72 2107.47,1445.72 2109.71,1445.72 2111.96,1445.72 2114.2,1445.72 2116.45,1445.72 2118.69,1445.72 2120.93,1445.72 2123.18,1445.72 2125.42,1445.72 2127.66,1445.72 2129.91,1445.72 2132.15,1445.72 2134.39,1445.72 2136.64,1445.72 2138.88,1445.72 2141.12,1445.72 2143.37,1445.72 2145.61,1445.72 2147.85,1445.72 2150.1,1445.72 2152.34,1445.72 2154.59,1445.72 2156.83,1445.72 2159.07,1445.72 2161.32,1445.72 2163.56,1445.72 2165.8,1445.72 2168.05,1445.72 2170.29,1445.72 2172.53,1445.72 2174.78,1445.72 2177.02,1445.72 2179.26,1445.72 2181.51,1445.72 2183.75,1445.72 2185.99,1445.72 2188.24,1445.72 2190.48,1445.72 2192.73,1445.72 2194.97,1445.72 2197.21,1445.72 2199.46,1445.72 2201.7,1445.72 2203.94,1445.72 2206.19,1445.72 2208.43,1445.72 2210.67,1445.72 2212.92,1445.72 2215.16,1445.72 2217.4,1445.72 2219.65,1445.72 2221.89,1445.72 2224.13,1445.72 2226.38,1445.72 2228.62,1445.72 2230.87,1445.72 2233.11,1445.72 2235.35,1445.72 2237.6,1445.72 2239.84,1445.72 2242.08,1445.72 2244.33,1445.72 2246.57,1445.72 2248.81,1445.72 2251.06,1445.72 2253.3,1445.72 2255.54,1445.72 2257.79,1445.72 2260.03,1445.72 2262.27,1445.72 2264.52,1445.72 2266.76,1445.72 2269.01,1445.72 2271.25,1445.72 2273.49,1445.72 2275.74,1445.72 2277.98,1445.72 2280.22,1445.72 2282.47,1445.72 2284.71,1445.72 2286.95,1445.72 2289.2,1445.72 2291.44,1445.72 "/>
<path clip-path="url(#clip530)" d="M2011.46 198.898 L2280.54 198.898 L2280.54 95.2176 L2011.46 95.2176  Z" fill="#ffffff" fill-rule="evenodd" fill-opacity="1"/>
<polyline clip-path="url(#clip530)" style="stroke:#000000; stroke-linecap:round; stroke-linejoin:round; stroke-width:4; stroke-opacity:1; fill:none" points="2011.46,198.898 2280.54,198.898 2280.54,95.2176 2011.46,95.2176 2011.46,198.898 "/>
<polyline clip-path="url(#clip530)" style="stroke:#009af9; stroke-linecap:round; stroke-linejoin:round; stroke-width:4; stroke-opacity:1; fill:none" points="2035.53,147.058 2179.97,147.058 "/>
<path clip-path="url(#clip530)" d="M2217.88 166.745 Q2216.07 171.375 2214.36 172.787 Q2212.65 174.199 2209.78 174.199 L2206.38 174.199 L2206.38 170.634 L2208.88 170.634 Q2210.63 170.634 2211.61 169.8 Q2212.58 168.967 2213.76 165.865 L2214.52 163.921 L2204.04 138.412 L2208.55 138.412 L2216.65 158.689 L2224.76 138.412 L2229.27 138.412 L2217.88 166.745 Z" fill="#000000" fill-rule="nonzero" fill-opacity="1" /><path clip-path="url(#clip530)" d="M2236.56 160.402 L2244.2 160.402 L2244.2 134.037 L2235.89 135.703 L2235.89 131.444 L2244.15 129.778 L2248.83 129.778 L2248.83 160.402 L2256.47 160.402 L2256.47 164.338 L2236.56 164.338 L2236.56 160.402 Z" fill="#000000" fill-rule="nonzero" fill-opacity="1" /></svg>
