<?xml version="1.0" encoding="UTF-8"?>
<svg width="291.519864px" height="247.5013px" viewBox="0 0 291.519864 247.5013" version="1.1" xmlns="http://www.w3.org/2000/svg" xmlns:xlink="http://www.w3.org/1999/xlink">
    <title>CoordinateSystems</title>
    <g id="Page-1" stroke="none" stroke-width="1" fill="none" fill-rule="evenodd">
        <g id="CoordinateSystems" transform="translate(1, 1.5199)">
            <g id="Body" transform="translate(130, 9.6274)" fill="#487729">
                <path id="Path" d="M16.9313883,-1.37746497 L17.6537628,-0.859489552 L25.113094,4.48919057 L24.5303716,5.30186188 L18.621,1.065 L21.1723788,6.53426765 L60.2886909,90.4194696 L59.3823831,90.8420878 L20.266071,6.95688591 L17.716,1.488 L17.1635172,8.7370825 L16.1664082,8.66109866 L16.8638471,-0.491145814 L16.9313883,-1.37746497 Z" fill-rule="nonzero"></path>
                <path id="Path-2" d="M141.805217,46.9616499 L150.957461,47.6590889 L151.843781,47.7266301 L151.325805,48.4490046 L145.977125,55.9083357 L145.164454,55.3256134 L149.4,49.417 L143.932048,51.9676205 L60.0468461,91.0839326 L59.6242278,90.1776248 L143.50943,51.0613127 L148.978,48.51 L141.729233,47.958759 L141.805217,46.9616499 Z" fill-rule="nonzero"></path>
                <text id="B" font-family="MyriadPro-It, Myriad Pro" font-size="20" font-style="italic" font-weight="normal">
                    <tspan x="0" y="25.3726235">B</tspan>
                </text>
            </g>
            <g id="Inertial-copy" transform="translate(188.5, 0)" fill="#7DAFEA" fill-rule="nonzero">
                <path id="Path" d="M1,96 L1,100 L0,100 L0,96 L1,96 Z M1,88 L1,92 L0,92 L0,88 L1,88 Z M1,80 L1,84 L0,84 L0,80 L1,80 Z M1,72 L1,76 L0,76 L0,72 L1,72 Z M1,64 L1,68 L0,68 L0,64 L1,64 Z M1,56 L1,60 L0,60 L0,56 L1,56 Z M1,48 L1,52 L0,52 L0,48 L1,48 Z M1,40 L1,44 L0,44 L0,40 L1,40 Z M1,32 L1,36 L0,36 L0,32 L1,32 Z M1,24 L1,28 L0,28 L0,24 L1,24 Z M1,16 L1,20 L0,20 L0,16 L1,16 Z M1,8 L1,12 L0,12 L0,8 L1,8 Z M0.5,-1.51986443 L0.935787769,-0.74513062 L5.43578777,7.25486938 L4.56421223,7.74513062 L1,1.409 L1,4 L0,4 L0,1.409 L-3.56421223,7.74513062 L-4.43578777,7.25486938 L0.0642122314,-0.74513062 L0.5,-1.51986443 Z"></path>
                <path id="Path-2" d="M93.2451306,95.0642122 L101.245131,99.5642122 L102.019864,100 L101.245131,100.435788 L93.2451306,104.935788 L92.7548694,104.064212 L99.091,100.5 L96.5,100.5 L96.5,99.5 L99.091,99.5 L92.7548694,95.9357878 L93.2451306,95.0642122 Z M4.5,99.5 L4.5,100.5 L0.5,100.5 L0.5,99.5 L4.5,99.5 Z M12.5,99.5 L12.5,100.5 L8.5,100.5 L8.5,99.5 L12.5,99.5 Z M20.5,99.5 L20.5,100.5 L16.5,100.5 L16.5,99.5 L20.5,99.5 Z M28.5,99.5 L28.5,100.5 L24.5,100.5 L24.5,99.5 L28.5,99.5 Z M36.5,99.5 L36.5,100.5 L32.5,100.5 L32.5,99.5 L36.5,99.5 Z M44.5,99.5 L44.5,100.5 L40.5,100.5 L40.5,99.5 L44.5,99.5 Z M52.5,99.5 L52.5,100.5 L48.5,100.5 L48.5,99.5 L52.5,99.5 Z M60.5,99.5 L60.5,100.5 L56.5,100.5 L56.5,99.5 L60.5,99.5 Z M68.5,99.5 L68.5,100.5 L64.5,100.5 L64.5,99.5 L68.5,99.5 Z M76.5,99.5 L76.5,100.5 L72.5,100.5 L72.5,99.5 L76.5,99.5 Z M84.5,99.5 L84.5,100.5 L80.5,100.5 L80.5,99.5 L84.5,99.5 Z M92.5,99.5 L92.5,100.5 L88.5,100.5 L88.5,99.5 L92.5,99.5 Z"></path>
            </g>
            <g id="Inertial" transform="translate(14, 130)" fill="#7DAFEA">
                <path id="Path" d="M26,-1.51986443 L26.4357878,-0.74513062 L30.9357878,7.25486938 L30.0642122,7.74513062 L26.5,1.409 L26.5,100 L25.5,100 L25.5,1.409 L21.9357878,7.74513062 L21.0642122,7.25486938 L25.5642122,-0.74513062 L26,-1.51986443 Z" fill-rule="nonzero"></path>
                <path id="Path-2" d="M118.745131,95.0642122 L126.745131,99.5642122 L127.519864,100 L126.745131,100.435788 L118.745131,104.935788 L118.254869,104.064212 L124.591,100.5 L26,100.5 L26,99.5 L124.591,99.5 L118.254869,95.9357878 L118.745131,95.0642122 Z" fill-rule="nonzero"></path>
                <text id="A" font-family="MyriadPro-It, Myriad Pro" font-size="20" font-style="italic" font-weight="normal">
                    <tspan x="0" y="28">A</tspan>
                </text>
            </g>
            <path id="Path-3" d="M190.212902,99.9301375 L186.372491,109.230742 L183.748,106.211 L40.3280178,230.877365 L39.6719822,230.122635 L183.092,105.456 L180.468172,102.438172 L190.212902,99.9301375 Z" fill="#979797" fill-rule="nonzero"></path>
            <path d="M235,101 C235,94.045928 233.456892,87.4522682 230.694412,81.5427568" id="Path" stroke="#979797"></path>
            <text id="r" font-family="MyriadPro-It, Myriad Pro" font-size="20" font-style="italic" font-weight="normal" fill="#231F20">
                <tspan x="129" y="169">r</tspan>
            </text>
            <text id="θ" font-family="MyriadPro-It, Myriad Pro" font-size="20" font-style="italic" font-weight="normal" fill="#231F20">
                <tspan x="248" y="90">θ</tspan>
            </text>
            <path id="Path-4" d="M86.8709525,90.9152822 L87.2152203,92.6594076 L89.8814355,106.166954 L87.9192944,106.554255 L85.992,96.791 L83.4579508,104.504046 L41.7855535,231.3122 L39.8855205,230.6878 L81.5579178,103.879647 L84.091,96.167 L76.7500939,102.88377 L75.4001904,101.408047 L85.559198,92.1151964 L86.8709525,90.9152822 Z" fill="#D75858" fill-rule="nonzero"></path>
            <path id="Path" d="M41,209 C53.1502645,209 63,218.849736 63,231 C63,236.634637 60.871769,241.938751 57.1108775,245.981436 L55.6465501,244.619178 C59.0664668,240.943017 61,236.124141 61,231 C61,219.954305 52.045695,211 41,211 C37.7000292,211 34.5173934,211.799256 31.6653622,213.307254 C28.5856459,214.935639 25.9768422,217.347856 24.1098603,220.28413 L23.928,220.575 L21.783,228.311 L28.8024896,221.25804 L30.2201501,222.668798 L20.5083709,232.428093 L19.2543636,233.688236 L18.8286371,231.962185 L15.531558,218.594621 L17.473365,218.115679 L19.856,227.777 L22.0399196,219.90409 L22.076503,219.772197 L22.1471822,219.654984 C24.2154554,216.225026 27.1892744,213.411601 30.7305073,211.539191 C33.8688975,209.879782 37.3721884,209 41,209 Z" fill="#D75858" fill-rule="nonzero"></path>
            <text id="U" font-family="MyriadPro-It, Myriad Pro" font-size="20" font-style="italic" font-weight="normal" fill="#D75858">
                <tspan x="97" y="96.5655707">U</tspan>
            </text>
            <text id="Ω" font-family="MyriadPro-It, Myriad Pro" font-size="20" font-style="italic" font-weight="normal" fill="#D75858">
                <tspan x="0" y="220.565571">Ω</tspan>
            </text>
            <text id="A" font-family="MyriadPro-It, Myriad Pro" font-size="20" font-style="italic" font-weight="normal" fill="#D75858">
                <tspan x="105" y="110">A</tspan>
            </text>
        </g>
    </g>
</svg>