<?xml version="1.0" encoding="utf-8"?>
<svg xmlns="http://www.w3.org/2000/svg" xmlns:xlink="http://www.w3.org/1999/xlink" width="600" height="400" viewBox="0 0 2400 1600">
<defs>
  <clipPath id="clip120">
    <rect x="0" y="0" width="2400" height="1600"/>
  </clipPath>
</defs>
<path clip-path="url(#clip120)" d="M0 1600 L2400 1600 L2400 0 L0 0  Z" fill="#ffffff" fill-rule="evenodd" fill-opacity="1"/>
<defs>
  <clipPath id="clip121">
    <rect x="480" y="0" width="1681" height="1600"/>
  </clipPath>
</defs>
<path clip-path="url(#clip120)" d="M178.867 1486.45 L2352.76 1486.45 L2352.76 47.2441 L178.867 47.2441  Z" fill="#ffffff" fill-rule="evenodd" fill-opacity="1"/>
<defs>
  <clipPath id="clip122">
    <rect x="178" y="47" width="2175" height="1440"/>
  </clipPath>
</defs>
<polyline clip-path="url(#clip122)" style="stroke:#000000; stroke-linecap:round; stroke-linejoin:round; stroke-width:2; stroke-opacity:0.1; fill:none" points="230.086,1486.45 230.086,47.2441 "/>
<polyline clip-path="url(#clip122)" style="stroke:#000000; stroke-linecap:round; stroke-linejoin:round; stroke-width:2; stroke-opacity:0.1; fill:none" points="745.372,1486.45 745.372,47.2441 "/>
<polyline clip-path="url(#clip122)" style="stroke:#000000; stroke-linecap:round; stroke-linejoin:round; stroke-width:2; stroke-opacity:0.1; fill:none" points="1260.66,1486.45 1260.66,47.2441 "/>
<polyline clip-path="url(#clip122)" style="stroke:#000000; stroke-linecap:round; stroke-linejoin:round; stroke-width:2; stroke-opacity:0.1; fill:none" points="1775.94,1486.45 1775.94,47.2441 "/>
<polyline clip-path="url(#clip122)" style="stroke:#000000; stroke-linecap:round; stroke-linejoin:round; stroke-width:2; stroke-opacity:0.1; fill:none" points="2291.23,1486.45 2291.23,47.2441 "/>
<polyline clip-path="url(#clip120)" style="stroke:#000000; stroke-linecap:round; stroke-linejoin:round; stroke-width:4; stroke-opacity:1; fill:none" points="178.867,1486.45 2352.76,1486.45 "/>
<polyline clip-path="url(#clip120)" style="stroke:#000000; stroke-linecap:round; stroke-linejoin:round; stroke-width:4; stroke-opacity:1; fill:none" points="230.086,1486.45 230.086,1467.55 "/>
<polyline clip-path="url(#clip120)" style="stroke:#000000; stroke-linecap:round; stroke-linejoin:round; stroke-width:4; stroke-opacity:1; fill:none" points="745.372,1486.45 745.372,1467.55 "/>
<polyline clip-path="url(#clip120)" style="stroke:#000000; stroke-linecap:round; stroke-linejoin:round; stroke-width:4; stroke-opacity:1; fill:none" points="1260.66,1486.45 1260.66,1467.55 "/>
<polyline clip-path="url(#clip120)" style="stroke:#000000; stroke-linecap:round; stroke-linejoin:round; stroke-width:4; stroke-opacity:1; fill:none" points="1775.94,1486.45 1775.94,1467.55 "/>
<polyline clip-path="url(#clip120)" style="stroke:#000000; stroke-linecap:round; stroke-linejoin:round; stroke-width:4; stroke-opacity:1; fill:none" points="2291.23,1486.45 2291.23,1467.55 "/>
<path clip-path="url(#clip120)" d="M192.39 1517.37 Q188.778 1517.37 186.95 1520.93 Q185.144 1524.47 185.144 1531.6 Q185.144 1538.71 186.95 1542.27 Q188.778 1545.82 192.39 1545.82 Q196.024 1545.82 197.829 1542.27 Q199.658 1538.71 199.658 1531.6 Q199.658 1524.47 197.829 1520.93 Q196.024 1517.37 192.39 1517.37 M192.39 1513.66 Q198.2 1513.66 201.255 1518.27 Q204.334 1522.85 204.334 1531.6 Q204.334 1540.33 201.255 1544.94 Q198.2 1549.52 192.39 1549.52 Q186.579 1549.52 183.501 1544.94 Q180.445 1540.33 180.445 1531.6 Q180.445 1522.85 183.501 1518.27 Q186.579 1513.66 192.39 1513.66 Z" fill="#000000" fill-rule="nonzero" fill-opacity="1" /><path clip-path="url(#clip120)" d="M212.551 1542.97 L217.436 1542.97 L217.436 1548.85 L212.551 1548.85 L212.551 1542.97 Z" fill="#000000" fill-rule="nonzero" fill-opacity="1" /><path clip-path="url(#clip120)" d="M237.621 1517.37 Q234.01 1517.37 232.181 1520.93 Q230.375 1524.47 230.375 1531.6 Q230.375 1538.71 232.181 1542.27 Q234.01 1545.82 237.621 1545.82 Q241.255 1545.82 243.061 1542.27 Q244.889 1538.71 244.889 1531.6 Q244.889 1524.47 243.061 1520.93 Q241.255 1517.37 237.621 1517.37 M237.621 1513.66 Q243.431 1513.66 246.486 1518.27 Q249.565 1522.85 249.565 1531.6 Q249.565 1540.33 246.486 1544.94 Q243.431 1549.52 237.621 1549.52 Q231.811 1549.52 228.732 1544.94 Q225.676 1540.33 225.676 1531.6 Q225.676 1522.85 228.732 1518.27 Q231.811 1513.66 237.621 1513.66 Z" fill="#000000" fill-rule="nonzero" fill-opacity="1" /><path clip-path="url(#clip120)" d="M267.783 1517.37 Q264.172 1517.37 262.343 1520.93 Q260.537 1524.47 260.537 1531.6 Q260.537 1538.71 262.343 1542.27 Q264.172 1545.82 267.783 1545.82 Q271.417 1545.82 273.222 1542.27 Q275.051 1538.71 275.051 1531.6 Q275.051 1524.47 273.222 1520.93 Q271.417 1517.37 267.783 1517.37 M267.783 1513.66 Q273.593 1513.66 276.648 1518.27 Q279.727 1522.85 279.727 1531.6 Q279.727 1540.33 276.648 1544.94 Q273.593 1549.52 267.783 1549.52 Q261.972 1549.52 258.894 1544.94 Q255.838 1540.33 255.838 1531.6 Q255.838 1522.85 258.894 1518.27 Q261.972 1513.66 267.783 1513.66 Z" fill="#000000" fill-rule="nonzero" fill-opacity="1" /><path clip-path="url(#clip120)" d="M708.173 1517.37 Q704.562 1517.37 702.734 1520.93 Q700.928 1524.47 700.928 1531.6 Q700.928 1538.71 702.734 1542.27 Q704.562 1545.82 708.173 1545.82 Q711.808 1545.82 713.613 1542.27 Q715.442 1538.71 715.442 1531.6 Q715.442 1524.47 713.613 1520.93 Q711.808 1517.37 708.173 1517.37 M708.173 1513.66 Q713.984 1513.66 717.039 1518.27 Q720.118 1522.85 720.118 1531.6 Q720.118 1540.33 717.039 1544.94 Q713.984 1549.52 708.173 1549.52 Q702.363 1549.52 699.285 1544.94 Q696.229 1540.33 696.229 1531.6 Q696.229 1522.85 699.285 1518.27 Q702.363 1513.66 708.173 1513.66 Z" fill="#000000" fill-rule="nonzero" fill-opacity="1" /><path clip-path="url(#clip120)" d="M728.335 1542.97 L733.22 1542.97 L733.22 1548.85 L728.335 1548.85 L728.335 1542.97 Z" fill="#000000" fill-rule="nonzero" fill-opacity="1" /><path clip-path="url(#clip120)" d="M747.432 1544.91 L763.752 1544.91 L763.752 1548.85 L741.807 1548.85 L741.807 1544.91 Q744.469 1542.16 749.053 1537.53 Q753.659 1532.88 754.84 1531.53 Q757.085 1529.01 757.965 1527.27 Q758.868 1525.51 758.868 1523.82 Q758.868 1521.07 756.923 1519.33 Q755.002 1517.6 751.9 1517.6 Q749.701 1517.6 747.247 1518.36 Q744.817 1519.13 742.039 1520.68 L742.039 1515.95 Q744.863 1514.82 747.317 1514.24 Q749.77 1513.66 751.807 1513.66 Q757.178 1513.66 760.372 1516.35 Q763.567 1519.03 763.567 1523.52 Q763.567 1525.65 762.756 1527.57 Q761.969 1529.47 759.863 1532.07 Q759.284 1532.74 756.182 1535.95 Q753.081 1539.15 747.432 1544.91 Z" fill="#000000" fill-rule="nonzero" fill-opacity="1" /><path clip-path="url(#clip120)" d="M773.613 1514.29 L791.969 1514.29 L791.969 1518.22 L777.895 1518.22 L777.895 1526.7 Q778.914 1526.35 779.932 1526.19 Q780.951 1526 781.969 1526 Q787.756 1526 791.136 1529.17 Q794.515 1532.34 794.515 1537.76 Q794.515 1543.34 791.043 1546.44 Q787.571 1549.52 781.252 1549.52 Q779.076 1549.52 776.807 1549.15 Q774.562 1548.78 772.155 1548.04 L772.155 1543.34 Q774.238 1544.47 776.46 1545.03 Q778.682 1545.58 781.159 1545.58 Q785.164 1545.58 787.502 1543.48 Q789.84 1541.37 789.84 1537.76 Q789.84 1534.15 787.502 1532.04 Q785.164 1529.94 781.159 1529.94 Q779.284 1529.94 777.409 1530.35 Q775.557 1530.77 773.613 1531.65 L773.613 1514.29 Z" fill="#000000" fill-rule="nonzero" fill-opacity="1" /><path clip-path="url(#clip120)" d="M1222.96 1517.37 Q1219.35 1517.37 1217.52 1520.93 Q1215.72 1524.47 1215.72 1531.6 Q1215.72 1538.71 1217.52 1542.27 Q1219.35 1545.82 1222.96 1545.82 Q1226.6 1545.82 1228.4 1542.27 Q1230.23 1538.71 1230.23 1531.6 Q1230.23 1524.47 1228.4 1520.93 Q1226.6 1517.37 1222.96 1517.37 M1222.96 1513.66 Q1228.77 1513.66 1231.83 1518.27 Q1234.91 1522.85 1234.91 1531.6 Q1234.91 1540.33 1231.83 1544.94 Q1228.77 1549.52 1222.96 1549.52 Q1217.15 1549.52 1214.07 1544.94 Q1211.02 1540.33 1211.02 1531.6 Q1211.02 1522.85 1214.07 1518.27 Q1217.15 1513.66 1222.96 1513.66 Z" fill="#000000" fill-rule="nonzero" fill-opacity="1" /><path clip-path="url(#clip120)" d="M1243.12 1542.97 L1248.01 1542.97 L1248.01 1548.85 L1243.12 1548.85 L1243.12 1542.97 Z" fill="#000000" fill-rule="nonzero" fill-opacity="1" /><path clip-path="url(#clip120)" d="M1258.24 1514.29 L1276.6 1514.29 L1276.6 1518.22 L1262.52 1518.22 L1262.52 1526.7 Q1263.54 1526.35 1264.56 1526.19 Q1265.58 1526 1266.6 1526 Q1272.38 1526 1275.76 1529.17 Q1279.14 1532.34 1279.14 1537.76 Q1279.14 1543.34 1275.67 1546.44 Q1272.2 1549.52 1265.88 1549.52 Q1263.7 1549.52 1261.43 1549.15 Q1259.19 1548.78 1256.78 1548.04 L1256.78 1543.34 Q1258.86 1544.47 1261.09 1545.03 Q1263.31 1545.58 1265.79 1545.58 Q1269.79 1545.58 1272.13 1543.48 Q1274.47 1541.37 1274.47 1537.76 Q1274.47 1534.15 1272.13 1532.04 Q1269.79 1529.94 1265.79 1529.94 Q1263.91 1529.94 1262.04 1530.35 Q1260.18 1530.77 1258.24 1531.65 L1258.24 1514.29 Z" fill="#000000" fill-rule="nonzero" fill-opacity="1" /><path clip-path="url(#clip120)" d="M1298.35 1517.37 Q1294.74 1517.37 1292.92 1520.93 Q1291.11 1524.47 1291.11 1531.6 Q1291.11 1538.71 1292.92 1542.27 Q1294.74 1545.82 1298.35 1545.82 Q1301.99 1545.82 1303.79 1542.27 Q1305.62 1538.71 1305.62 1531.6 Q1305.62 1524.47 1303.79 1520.93 Q1301.99 1517.37 1298.35 1517.37 M1298.35 1513.66 Q1304.17 1513.66 1307.22 1518.27 Q1310.3 1522.85 1310.3 1531.6 Q1310.3 1540.33 1307.22 1544.94 Q1304.17 1549.52 1298.35 1549.52 Q1292.54 1549.52 1289.47 1544.94 Q1286.41 1540.33 1286.41 1531.6 Q1286.41 1522.85 1289.47 1518.27 Q1292.54 1513.66 1298.35 1513.66 Z" fill="#000000" fill-rule="nonzero" fill-opacity="1" /><path clip-path="url(#clip120)" d="M1738.75 1517.37 Q1735.13 1517.37 1733.31 1520.93 Q1731.5 1524.47 1731.5 1531.6 Q1731.5 1538.71 1733.31 1542.27 Q1735.13 1545.82 1738.75 1545.82 Q1742.38 1545.82 1744.19 1542.27 Q1746.01 1538.71 1746.01 1531.6 Q1746.01 1524.47 1744.19 1520.93 Q1742.38 1517.37 1738.75 1517.37 M1738.75 1513.66 Q1744.56 1513.66 1747.61 1518.27 Q1750.69 1522.85 1750.69 1531.6 Q1750.69 1540.33 1747.61 1544.94 Q1744.56 1549.52 1738.75 1549.52 Q1732.94 1549.52 1729.86 1544.94 Q1726.8 1540.33 1726.8 1531.6 Q1726.8 1522.85 1729.86 1518.27 Q1732.94 1513.66 1738.75 1513.66 Z" fill="#000000" fill-rule="nonzero" fill-opacity="1" /><path clip-path="url(#clip120)" d="M1758.91 1542.97 L1763.79 1542.97 L1763.79 1548.85 L1758.91 1548.85 L1758.91 1542.97 Z" fill="#000000" fill-rule="nonzero" fill-opacity="1" /><path clip-path="url(#clip120)" d="M1772.8 1514.29 L1795.02 1514.29 L1795.02 1516.28 L1782.47 1548.85 L1777.59 1548.85 L1789.39 1518.22 L1772.8 1518.22 L1772.8 1514.29 Z" fill="#000000" fill-rule="nonzero" fill-opacity="1" /><path clip-path="url(#clip120)" d="M1804.19 1514.29 L1822.54 1514.29 L1822.54 1518.22 L1808.47 1518.22 L1808.47 1526.7 Q1809.49 1526.35 1810.5 1526.19 Q1811.52 1526 1812.54 1526 Q1818.33 1526 1821.71 1529.17 Q1825.09 1532.34 1825.09 1537.76 Q1825.09 1543.34 1821.62 1546.44 Q1818.14 1549.52 1811.82 1549.52 Q1809.65 1549.52 1807.38 1549.15 Q1805.13 1548.78 1802.73 1548.04 L1802.73 1543.34 Q1804.81 1544.47 1807.03 1545.03 Q1809.25 1545.58 1811.73 1545.58 Q1815.74 1545.58 1818.07 1543.48 Q1820.41 1541.37 1820.41 1537.76 Q1820.41 1534.15 1818.07 1532.04 Q1815.74 1529.94 1811.73 1529.94 Q1809.86 1529.94 1807.98 1530.35 Q1806.13 1530.77 1804.19 1531.65 L1804.19 1514.29 Z" fill="#000000" fill-rule="nonzero" fill-opacity="1" /><path clip-path="url(#clip120)" d="M2243.3 1544.91 L2250.94 1544.91 L2250.94 1518.55 L2242.63 1520.21 L2242.63 1515.95 L2250.9 1514.29 L2255.57 1514.29 L2255.57 1544.91 L2263.21 1544.91 L2263.21 1548.85 L2243.3 1548.85 L2243.3 1544.91 Z" fill="#000000" fill-rule="nonzero" fill-opacity="1" /><path clip-path="url(#clip120)" d="M2272.65 1542.97 L2277.54 1542.97 L2277.54 1548.85 L2272.65 1548.85 L2272.65 1542.97 Z" fill="#000000" fill-rule="nonzero" fill-opacity="1" /><path clip-path="url(#clip120)" d="M2297.72 1517.37 Q2294.11 1517.37 2292.28 1520.93 Q2290.48 1524.47 2290.48 1531.6 Q2290.48 1538.71 2292.28 1542.27 Q2294.11 1545.82 2297.72 1545.82 Q2301.36 1545.82 2303.16 1542.27 Q2304.99 1538.71 2304.99 1531.6 Q2304.99 1524.47 2303.16 1520.93 Q2301.36 1517.37 2297.72 1517.37 M2297.72 1513.66 Q2303.53 1513.66 2306.59 1518.27 Q2309.67 1522.85 2309.67 1531.6 Q2309.67 1540.33 2306.59 1544.94 Q2303.53 1549.52 2297.72 1549.52 Q2291.91 1549.52 2288.83 1544.94 Q2285.78 1540.33 2285.78 1531.6 Q2285.78 1522.85 2288.83 1518.27 Q2291.91 1513.66 2297.72 1513.66 Z" fill="#000000" fill-rule="nonzero" fill-opacity="1" /><path clip-path="url(#clip120)" d="M2327.89 1517.37 Q2324.27 1517.37 2322.45 1520.93 Q2320.64 1524.47 2320.64 1531.6 Q2320.64 1538.71 2322.45 1542.27 Q2324.27 1545.82 2327.89 1545.82 Q2331.52 1545.82 2333.33 1542.27 Q2335.15 1538.71 2335.15 1531.6 Q2335.15 1524.47 2333.33 1520.93 Q2331.52 1517.37 2327.89 1517.37 M2327.89 1513.66 Q2333.7 1513.66 2336.75 1518.27 Q2339.83 1522.85 2339.83 1531.6 Q2339.83 1540.33 2336.75 1544.94 Q2333.7 1549.52 2327.89 1549.52 Q2322.08 1549.52 2319 1544.94 Q2315.94 1540.33 2315.94 1531.6 Q2315.94 1522.85 2319 1518.27 Q2322.08 1513.66 2327.89 1513.66 Z" fill="#000000" fill-rule="nonzero" fill-opacity="1" /><polyline clip-path="url(#clip122)" style="stroke:#000000; stroke-linecap:round; stroke-linejoin:round; stroke-width:2; stroke-opacity:0.1; fill:none" points="178.867,1486.45 2352.76,1486.45 "/>
<polyline clip-path="url(#clip122)" style="stroke:#000000; stroke-linecap:round; stroke-linejoin:round; stroke-width:2; stroke-opacity:0.1; fill:none" points="178.867,1126.65 2352.76,1126.65 "/>
<polyline clip-path="url(#clip122)" style="stroke:#000000; stroke-linecap:round; stroke-linejoin:round; stroke-width:2; stroke-opacity:0.1; fill:none" points="178.867,766.846 2352.76,766.846 "/>
<polyline clip-path="url(#clip122)" style="stroke:#000000; stroke-linecap:round; stroke-linejoin:round; stroke-width:2; stroke-opacity:0.1; fill:none" points="178.867,407.045 2352.76,407.045 "/>
<polyline clip-path="url(#clip122)" style="stroke:#000000; stroke-linecap:round; stroke-linejoin:round; stroke-width:2; stroke-opacity:0.1; fill:none" points="178.867,47.2441 2352.76,47.2441 "/>
<polyline clip-path="url(#clip120)" style="stroke:#000000; stroke-linecap:round; stroke-linejoin:round; stroke-width:4; stroke-opacity:1; fill:none" points="178.867,1486.45 178.867,47.2441 "/>
<polyline clip-path="url(#clip120)" style="stroke:#000000; stroke-linecap:round; stroke-linejoin:round; stroke-width:4; stroke-opacity:1; fill:none" points="178.867,1486.45 197.764,1486.45 "/>
<polyline clip-path="url(#clip120)" style="stroke:#000000; stroke-linecap:round; stroke-linejoin:round; stroke-width:4; stroke-opacity:1; fill:none" points="178.867,1126.65 197.764,1126.65 "/>
<polyline clip-path="url(#clip120)" style="stroke:#000000; stroke-linecap:round; stroke-linejoin:round; stroke-width:4; stroke-opacity:1; fill:none" points="178.867,766.846 197.764,766.846 "/>
<polyline clip-path="url(#clip120)" style="stroke:#000000; stroke-linecap:round; stroke-linejoin:round; stroke-width:4; stroke-opacity:1; fill:none" points="178.867,407.045 197.764,407.045 "/>
<polyline clip-path="url(#clip120)" style="stroke:#000000; stroke-linecap:round; stroke-linejoin:round; stroke-width:4; stroke-opacity:1; fill:none" points="178.867,47.2441 197.764,47.2441 "/>
<path clip-path="url(#clip120)" d="M50.9921 1486.9 L80.6679 1486.9 L80.6679 1490.83 L50.9921 1490.83 L50.9921 1486.9 Z" fill="#000000" fill-rule="nonzero" fill-opacity="1" /><path clip-path="url(#clip120)" d="M94.7882 1499.79 L111.108 1499.79 L111.108 1503.73 L89.1632 1503.73 L89.1632 1499.79 Q91.8252 1497.04 96.4085 1492.41 Q101.015 1487.76 102.196 1486.41 Q104.441 1483.89 105.321 1482.15 Q106.223 1480.39 106.223 1478.7 Q106.223 1475.95 104.279 1474.21 Q102.358 1472.48 99.2558 1472.48 Q97.0567 1472.48 94.603 1473.24 Q92.1725 1474.01 89.3947 1475.56 L89.3947 1470.83 Q92.2188 1469.7 94.6724 1469.12 Q97.1261 1468.54 99.1632 1468.54 Q104.534 1468.54 107.728 1471.23 Q110.922 1473.91 110.922 1478.4 Q110.922 1480.53 110.112 1482.45 Q109.325 1484.35 107.219 1486.95 Q106.64 1487.62 103.538 1490.83 Q100.436 1494.03 94.7882 1499.79 Z" fill="#000000" fill-rule="nonzero" fill-opacity="1" /><path clip-path="url(#clip120)" d="M130.922 1472.25 Q127.311 1472.25 125.482 1475.81 Q123.677 1479.35 123.677 1486.48 Q123.677 1493.59 125.482 1497.15 Q127.311 1500.7 130.922 1500.7 Q134.556 1500.7 136.362 1497.15 Q138.191 1493.59 138.191 1486.48 Q138.191 1479.35 136.362 1475.81 Q134.556 1472.25 130.922 1472.25 M130.922 1468.54 Q136.732 1468.54 139.788 1473.15 Q142.867 1477.73 142.867 1486.48 Q142.867 1495.21 139.788 1499.82 Q136.732 1504.4 130.922 1504.4 Q125.112 1504.4 122.033 1499.82 Q118.978 1495.21 118.978 1486.48 Q118.978 1477.73 122.033 1473.15 Q125.112 1468.54 130.922 1468.54 Z" fill="#000000" fill-rule="nonzero" fill-opacity="1" /><path clip-path="url(#clip120)" d="M50.9921 1127.1 L80.6679 1127.1 L80.6679 1131.03 L50.9921 1131.03 L50.9921 1127.1 Z" fill="#000000" fill-rule="nonzero" fill-opacity="1" /><path clip-path="url(#clip120)" d="M91.5706 1139.99 L99.2095 1139.99 L99.2095 1113.63 L90.8993 1115.29 L90.8993 1111.03 L99.1632 1109.37 L103.839 1109.37 L103.839 1139.99 L111.478 1139.99 L111.478 1143.93 L91.5706 1143.93 L91.5706 1139.99 Z" fill="#000000" fill-rule="nonzero" fill-opacity="1" /><path clip-path="url(#clip120)" d="M130.922 1112.45 Q127.311 1112.45 125.482 1116.01 Q123.677 1119.55 123.677 1126.68 Q123.677 1133.79 125.482 1137.35 Q127.311 1140.89 130.922 1140.89 Q134.556 1140.89 136.362 1137.35 Q138.191 1133.79 138.191 1126.68 Q138.191 1119.55 136.362 1116.01 Q134.556 1112.45 130.922 1112.45 M130.922 1108.74 Q136.732 1108.74 139.788 1113.35 Q142.867 1117.93 142.867 1126.68 Q142.867 1135.41 139.788 1140.01 Q136.732 1144.6 130.922 1144.6 Q125.112 1144.6 122.033 1140.01 Q118.978 1135.41 118.978 1126.68 Q118.978 1117.93 122.033 1113.35 Q125.112 1108.74 130.922 1108.74 Z" fill="#000000" fill-rule="nonzero" fill-opacity="1" /><path clip-path="url(#clip120)" d="M130.922 752.645 Q127.311 752.645 125.482 756.209 Q123.677 759.751 123.677 766.881 Q123.677 773.987 125.482 777.552 Q127.311 781.094 130.922 781.094 Q134.556 781.094 136.362 777.552 Q138.191 773.987 138.191 766.881 Q138.191 759.751 136.362 756.209 Q134.556 752.645 130.922 752.645 M130.922 748.941 Q136.732 748.941 139.788 753.547 Q142.867 758.131 142.867 766.881 Q142.867 775.608 139.788 780.214 Q136.732 784.797 130.922 784.797 Q125.112 784.797 122.033 780.214 Q118.978 775.608 118.978 766.881 Q118.978 758.131 122.033 753.547 Q125.112 748.941 130.922 748.941 Z" fill="#000000" fill-rule="nonzero" fill-opacity="1" /><path clip-path="url(#clip120)" d="M91.5706 420.39 L99.2095 420.39 L99.2095 394.024 L90.8993 395.691 L90.8993 391.432 L99.1632 389.765 L103.839 389.765 L103.839 420.39 L111.478 420.39 L111.478 424.325 L91.5706 424.325 L91.5706 420.39 Z" fill="#000000" fill-rule="nonzero" fill-opacity="1" /><path clip-path="url(#clip120)" d="M130.922 392.844 Q127.311 392.844 125.482 396.409 Q123.677 399.95 123.677 407.08 Q123.677 414.186 125.482 417.751 Q127.311 421.293 130.922 421.293 Q134.556 421.293 136.362 417.751 Q138.191 414.186 138.191 407.08 Q138.191 399.95 136.362 396.409 Q134.556 392.844 130.922 392.844 M130.922 389.14 Q136.732 389.14 139.788 393.746 Q142.867 398.33 142.867 407.08 Q142.867 415.807 139.788 420.413 Q136.732 424.996 130.922 424.996 Q125.112 424.996 122.033 420.413 Q118.978 415.807 118.978 407.08 Q118.978 398.33 122.033 393.746 Q125.112 389.14 130.922 389.14 Z" fill="#000000" fill-rule="nonzero" fill-opacity="1" /><path clip-path="url(#clip120)" d="M94.7882 60.5889 L111.108 60.5889 L111.108 64.5241 L89.1632 64.5241 L89.1632 60.5889 Q91.8252 57.8343 96.4085 53.2047 Q101.015 48.552 102.196 47.2094 Q104.441 44.6862 105.321 42.9501 Q106.223 41.1909 106.223 39.5011 Q106.223 36.7465 104.279 35.0104 Q102.358 33.2743 99.2558 33.2743 Q97.0567 33.2743 94.603 34.0381 Q92.1725 34.802 89.3947 36.3529 L89.3947 31.6308 Q92.2188 30.4965 94.6724 29.9178 Q97.1261 29.3391 99.1632 29.3391 Q104.534 29.3391 107.728 32.0243 Q110.922 34.7094 110.922 39.2002 Q110.922 41.3298 110.112 43.2511 Q109.325 45.1492 107.219 47.7418 Q106.64 48.4131 103.538 51.6306 Q100.436 54.8251 94.7882 60.5889 Z" fill="#000000" fill-rule="nonzero" fill-opacity="1" /><path clip-path="url(#clip120)" d="M130.922 33.0428 Q127.311 33.0428 125.482 36.6076 Q123.677 40.1492 123.677 47.2788 Q123.677 54.3853 125.482 57.9501 Q127.311 61.4917 130.922 61.4917 Q134.556 61.4917 136.362 57.9501 Q138.191 54.3853 138.191 47.2788 Q138.191 40.1492 136.362 36.6076 Q134.556 33.0428 130.922 33.0428 M130.922 29.3391 Q136.732 29.3391 139.788 33.9456 Q142.867 38.5289 142.867 47.2788 Q142.867 56.0056 139.788 60.6121 Q136.732 65.1954 130.922 65.1954 Q125.112 65.1954 122.033 60.6121 Q118.978 56.0056 118.978 47.2788 Q118.978 38.5289 122.033 33.9456 Q125.112 29.3391 130.922 29.3391 Z" fill="#000000" fill-rule="nonzero" fill-opacity="1" /><polyline clip-path="url(#clip122)" style="stroke:#009af9; stroke-linecap:round; stroke-linejoin:round; stroke-width:4; stroke-opacity:1; fill:none" points="240.392,767.011 250.698,767.342 261.003,767.673 271.309,768.004 281.615,768.335 291.92,768.666 302.226,768.997 312.532,769.328 322.838,769.659 333.143,769.99 343.449,770.321 353.755,770.652 364.06,770.983 374.366,771.314 384.672,771.645 394.978,771.976 405.283,772.307 415.589,772.638 425.895,772.969 436.201,773.3 446.506,773.631 456.812,773.962 467.118,774.293 477.423,774.624 487.729,774.955 498.035,775.286 508.341,775.617 518.646,775.948 528.952,776.279 539.258,776.61 549.564,776.941 559.869,777.272 570.175,777.603 580.481,777.934 590.786,778.265 601.092,778.596 611.398,778.927 621.704,779.258 632.009,779.589 642.315,779.92 652.621,780.251 662.926,780.582 673.232,780.913 683.538,781.244 693.844,781.575 704.149,781.906 714.455,782.237 724.761,782.568 735.067,782.899 745.372,783.23 755.678,783.561 765.984,783.892 776.289,784.222 786.595,784.553 796.901,784.884 807.207,785.215 817.512,785.546 827.818,785.877 838.124,786.208 848.429,786.539 858.735,786.87 869.041,787.201 879.347,787.532 889.652,787.863 899.958,788.194 910.264,788.525 920.57,788.856 930.875,789.187 941.181,789.518 951.487,789.849 961.792,790.18 972.098,790.511 982.404,790.842 992.71,791.173 1003.02,791.504 1013.32,791.835 1023.63,792.166 1033.93,792.497 1044.24,792.828 1054.54,793.159 1064.85,793.49 1075.16,793.821 1085.46,794.152 1095.77,794.483 1106.07,794.814 1116.38,795.145 1126.68,795.476 1136.99,795.807 1147.3,796.138 1157.6,796.469 1167.91,796.8 1178.21,797.131 1188.52,797.462 1198.82,797.793 1209.13,798.124 1219.44,798.455 1229.74,798.786 1240.05,799.117 1250.35,799.448 1260.66,799.779 1270.96,800.11 1281.27,800.441 1291.58,800.772 1301.88,801.103 1312.19,801.434 1322.49,801.764 1332.8,802.095 1343.1,802.426 1353.41,802.757 1363.72,803.088 1374.02,803.419 1384.33,803.75 1394.63,804.081 1404.94,804.412 1415.24,804.743 1425.55,805.074 1435.86,805.405 1446.16,805.736 1456.47,806.067 1466.77,806.398 1477.08,806.729 1487.38,807.06 1497.69,807.391 1508,807.722 1518.3,808.053 1528.61,808.384 1538.91,808.715 1549.22,809.046 1559.52,809.377 1569.83,809.708 1580.14,810.039 1590.44,810.37 1600.75,810.701 1611.05,811.032 1621.36,811.363 1631.66,811.694 1641.97,812.025 1652.28,812.356 1662.58,812.687 1672.89,813.018 1683.19,813.349 1693.5,813.68 1703.8,814.011 1714.11,814.342 1724.42,814.673 1734.72,815.004 1745.03,815.335 1755.33,815.666 1765.64,815.997 1775.94,816.328 1786.25,816.659 1796.56,816.99 1806.86,817.321 1817.17,817.652 1827.47,817.983 1837.78,818.314 1848.08,818.645 1858.39,818.976 1868.7,819.306 1879,819.637 1889.31,819.968 1899.61,820.299 1909.92,820.63 1920.22,820.961 1930.53,821.292 1940.84,821.623 1951.14,821.954 1961.45,822.285 1971.75,822.616 1982.06,822.947 1992.36,823.278 2002.67,823.609 2012.98,823.94 2023.28,824.271 2033.59,824.602 2043.89,824.933 2054.2,825.264 2064.5,825.595 2074.81,825.926 2085.12,826.257 2095.42,826.588 2105.73,826.919 2116.03,827.25 2126.34,827.581 2136.64,827.912 2146.95,828.243 2157.26,828.574 2167.56,828.905 2177.87,829.236 2188.17,829.567 2198.48,829.898 2208.78,830.229 2219.09,830.56 2229.4,830.891 2239.7,831.222 2250.01,831.553 2260.31,831.884 2270.62,832.215 2280.93,832.546 2291.23,832.877 "/>
<polyline clip-path="url(#clip122)" style="stroke:#e26f46; stroke-linecap:round; stroke-linejoin:round; stroke-width:4; stroke-opacity:1; fill:none" points="240.392,766.579 250.698,766.046 261.003,765.512 271.309,764.979 281.615,764.446 291.92,763.912 302.226,763.379 312.532,762.845 322.838,762.312 333.143,761.779 343.449,761.245 353.755,760.712 364.06,760.178 374.366,759.645 384.672,759.112 394.978,758.578 405.283,758.045 415.589,757.511 425.895,756.978 436.201,756.445 446.506,755.911 456.812,755.378 467.118,754.844 477.423,754.311 487.729,753.778 498.035,753.244 508.341,752.711 518.646,752.177 528.952,751.644 539.258,751.111 549.564,750.577 559.869,750.044 570.175,749.51 580.481,748.977 590.786,748.443 601.092,747.91 611.398,747.377 621.704,746.843 632.009,746.31 642.315,745.776 652.621,745.243 662.926,744.71 673.232,744.176 683.538,743.643 693.844,743.109 704.149,742.576 714.455,742.043 724.761,741.509 735.067,740.976 745.372,740.442 755.678,739.909 765.984,739.376 776.289,738.842 786.595,738.309 796.901,737.775 807.207,737.242 817.512,736.709 827.818,736.175 838.124,735.642 848.429,735.108 858.735,734.575 869.041,734.042 879.347,733.508 889.652,732.975 899.958,732.441 910.264,731.908 920.57,731.374 930.875,730.841 941.181,730.308 951.487,729.774 961.792,729.241 972.098,728.707 982.404,728.174 992.71,727.641 1003.02,727.107 1013.32,726.574 1023.63,726.04 1033.93,725.507 1044.24,724.974 1054.54,724.44 1064.85,723.907 1075.16,723.373 1085.46,722.84 1095.77,722.307 1106.07,721.773 1116.38,721.24 1126.68,720.706 1136.99,720.173 1147.3,719.64 1157.6,719.106 1167.91,718.573 1178.21,718.039 1188.52,717.506 1198.82,716.973 1209.13,716.439 1219.44,715.906 1229.74,715.372 1240.05,714.839 1250.35,714.305 1260.66,713.772 1270.96,713.239 1281.27,712.705 1291.58,712.172 1301.88,711.638 1312.19,711.105 1322.49,710.572 1332.8,710.038 1343.1,709.505 1353.41,708.971 1363.72,708.438 1374.02,707.905 1384.33,707.371 1394.63,706.838 1404.94,706.304 1415.24,705.771 1425.55,705.238 1435.86,704.704 1446.16,704.171 1456.47,703.637 1466.77,703.104 1477.08,702.571 1487.38,702.037 1497.69,701.504 1508,700.97 1518.3,700.437 1528.61,699.904 1538.91,699.37 1549.22,698.837 1559.52,698.303 1569.83,697.77 1580.14,697.236 1590.44,696.703 1600.75,696.17 1611.05,695.636 1621.36,695.103 1631.66,694.569 1641.97,694.036 1652.28,693.503 1662.58,692.969 1672.89,692.436 1683.19,691.902 1693.5,691.369 1703.8,690.836 1714.11,690.302 1724.42,689.769 1734.72,689.235 1745.03,688.702 1755.33,688.169 1765.64,687.635 1775.94,687.102 1786.25,686.568 1796.56,686.035 1806.86,685.502 1817.17,684.968 1827.47,684.435 1837.78,683.901 1848.08,683.368 1858.39,682.835 1868.7,682.301 1879,681.768 1889.31,681.234 1899.61,680.701 1909.92,680.167 1920.22,679.634 1930.53,679.101 1940.84,678.567 1951.14,678.034 1961.45,677.5 1971.75,676.967 1982.06,676.434 1992.36,675.9 2002.67,675.367 2012.98,674.833 2023.28,674.3 2033.59,673.767 2043.89,673.233 2054.2,672.7 2064.5,672.166 2074.81,671.633 2085.12,671.1 2095.42,670.566 2105.73,670.033 2116.03,669.499 2126.34,668.966 2136.64,668.433 2146.95,667.899 2157.26,667.366 2167.56,666.832 2177.87,666.299 2188.17,665.766 2198.48,665.232 2208.78,664.699 2219.09,664.165 2229.4,663.632 2239.7,663.098 2250.01,662.565 2260.31,662.032 2270.62,661.498 2280.93,660.965 2291.23,660.431 "/>
<path clip-path="url(#clip120)" d="M2010.84 250.738 L2280.29 250.738 L2280.29 95.2176 L2010.84 95.2176  Z" fill="#ffffff" fill-rule="evenodd" fill-opacity="1"/>
<polyline clip-path="url(#clip120)" style="stroke:#000000; stroke-linecap:round; stroke-linejoin:round; stroke-width:4; stroke-opacity:1; fill:none" points="2010.84,250.738 2280.29,250.738 2280.29,95.2176 2010.84,95.2176 2010.84,250.738 "/>
<polyline clip-path="url(#clip120)" style="stroke:#009af9; stroke-linecap:round; stroke-linejoin:round; stroke-width:4; stroke-opacity:1; fill:none" points="2035,147.058 2179.92,147.058 "/>
<path clip-path="url(#clip120)" d="M2204.08 154.106 L2204.08 138.412 L2208.34 138.412 L2208.34 153.944 Q2208.34 157.625 2209.77 159.476 Q2211.21 161.305 2214.08 161.305 Q2217.53 161.305 2219.52 159.106 Q2221.53 156.907 2221.53 153.111 L2221.53 138.412 L2225.79 138.412 L2225.79 164.338 L2221.53 164.338 L2221.53 160.356 Q2219.98 162.717 2217.92 163.875 Q2215.88 165.009 2213.18 165.009 Q2208.71 165.009 2206.39 162.231 Q2204.08 159.453 2204.08 154.106 M2214.8 137.787 L2214.8 137.787 Z" fill="#000000" fill-rule="nonzero" fill-opacity="1" /><path clip-path="url(#clip120)" d="M2239.19 160.402 L2255.51 160.402 L2255.51 164.338 L2233.57 164.338 L2233.57 160.402 Q2236.23 157.648 2240.81 153.018 Q2245.42 148.365 2246.6 147.023 Q2248.85 144.5 2249.73 142.764 Q2250.63 141.004 2250.63 139.315 Q2250.63 136.56 2248.68 134.824 Q2246.76 133.088 2243.66 133.088 Q2241.46 133.088 2239.01 133.852 Q2236.58 134.615 2233.8 136.166 L2233.8 131.444 Q2236.62 130.31 2239.08 129.731 Q2241.53 129.153 2243.57 129.153 Q2248.94 129.153 2252.13 131.838 Q2255.33 134.523 2255.33 139.014 Q2255.33 141.143 2254.52 143.065 Q2253.73 144.963 2251.62 147.555 Q2251.05 148.227 2247.94 151.444 Q2244.84 154.639 2239.19 160.402 Z" fill="#000000" fill-rule="nonzero" fill-opacity="1" /><polyline clip-path="url(#clip120)" style="stroke:#e26f46; stroke-linecap:round; stroke-linejoin:round; stroke-width:4; stroke-opacity:1; fill:none" points="2035,198.898 2179.92,198.898 "/>
<path clip-path="url(#clip120)" d="M2204.08 190.252 L2208.59 190.252 L2216.69 212.011 L2224.8 190.252 L2229.31 190.252 L2219.59 216.178 L2213.8 216.178 L2204.08 190.252 Z" fill="#000000" fill-rule="nonzero" fill-opacity="1" /><path clip-path="url(#clip120)" d="M2239.82 212.242 L2256.14 212.242 L2256.14 216.178 L2234.19 216.178 L2234.19 212.242 Q2236.86 209.488 2241.44 204.858 Q2246.05 200.205 2247.23 198.863 Q2249.47 196.34 2250.35 194.604 Q2251.25 192.844 2251.25 191.155 Q2251.25 188.4 2249.31 186.664 Q2247.39 184.928 2244.29 184.928 Q2242.09 184.928 2239.63 185.692 Q2237.2 186.455 2234.43 188.006 L2234.43 183.284 Q2237.25 182.15 2239.7 181.571 Q2242.16 180.993 2244.19 180.993 Q2249.56 180.993 2252.76 183.678 Q2255.95 186.363 2255.95 190.854 Q2255.95 192.983 2255.14 194.905 Q2254.36 196.803 2252.25 199.395 Q2251.67 200.067 2248.57 203.284 Q2245.47 206.479 2239.82 212.242 Z" fill="#000000" fill-rule="nonzero" fill-opacity="1" /></svg>
