<?xml version="1.0" encoding="utf-8"?>
<svg xmlns="http://www.w3.org/2000/svg" xmlns:xlink="http://www.w3.org/1999/xlink" width="600" height="400" viewBox="0 0 2400 1600">
<defs>
  <clipPath id="clip090">
    <rect x="0" y="0" width="2400" height="1600"/>
  </clipPath>
</defs>
<path clip-path="url(#clip090)" d="M0 1600 L2400 1600 L2400 0 L0 0  Z" fill="#ffffff" fill-rule="evenodd" fill-opacity="1"/>
<defs>
  <clipPath id="clip091">
    <rect x="480" y="0" width="1681" height="1600"/>
  </clipPath>
</defs>
<path clip-path="url(#clip090)" d="M193.936 1486.45 L2352.76 1486.45 L2352.76 47.2441 L193.936 47.2441  Z" fill="#ffffff" fill-rule="evenodd" fill-opacity="1"/>
<defs>
  <clipPath id="clip092">
    <rect x="193" y="47" width="2160" height="1440"/>
  </clipPath>
</defs>
<polyline clip-path="url(#clip090)" style="stroke:#000000; stroke-linecap:round; stroke-linejoin:round; stroke-width:4; stroke-opacity:1; fill:none" points="193.936,1486.45 2352.76,1486.45 "/>
<polyline clip-path="url(#clip090)" style="stroke:#000000; stroke-linecap:round; stroke-linejoin:round; stroke-width:4; stroke-opacity:1; fill:none" points="255.041,1486.45 255.041,1467.55 "/>
<polyline clip-path="url(#clip090)" style="stroke:#000000; stroke-linecap:round; stroke-linejoin:round; stroke-width:4; stroke-opacity:1; fill:none" points="594.476,1486.45 594.476,1467.55 "/>
<polyline clip-path="url(#clip090)" style="stroke:#000000; stroke-linecap:round; stroke-linejoin:round; stroke-width:4; stroke-opacity:1; fill:none" points="933.911,1486.45 933.911,1467.55 "/>
<polyline clip-path="url(#clip090)" style="stroke:#000000; stroke-linecap:round; stroke-linejoin:round; stroke-width:4; stroke-opacity:1; fill:none" points="1273.35,1486.45 1273.35,1467.55 "/>
<polyline clip-path="url(#clip090)" style="stroke:#000000; stroke-linecap:round; stroke-linejoin:round; stroke-width:4; stroke-opacity:1; fill:none" points="1612.78,1486.45 1612.78,1467.55 "/>
<polyline clip-path="url(#clip090)" style="stroke:#000000; stroke-linecap:round; stroke-linejoin:round; stroke-width:4; stroke-opacity:1; fill:none" points="1952.22,1486.45 1952.22,1467.55 "/>
<polyline clip-path="url(#clip090)" style="stroke:#000000; stroke-linecap:round; stroke-linejoin:round; stroke-width:4; stroke-opacity:1; fill:none" points="2291.65,1486.45 2291.65,1467.55 "/>
<path clip-path="url(#clip090)" d="M202.067 1532.02 L231.743 1532.02 L231.743 1535.95 L202.067 1535.95 L202.067 1532.02 Z" fill="#000000" fill-rule="nonzero" fill-opacity="1" /><path clip-path="url(#clip090)" d="M242.646 1544.91 L250.284 1544.91 L250.284 1518.55 L241.974 1520.21 L241.974 1515.95 L250.238 1514.29 L254.914 1514.29 L254.914 1544.91 L262.553 1544.91 L262.553 1548.85 L242.646 1548.85 L242.646 1544.91 Z" fill="#000000" fill-rule="nonzero" fill-opacity="1" /><path clip-path="url(#clip090)" d="M271.997 1542.97 L276.882 1542.97 L276.882 1548.85 L271.997 1548.85 L271.997 1542.97 Z" fill="#000000" fill-rule="nonzero" fill-opacity="1" /><path clip-path="url(#clip090)" d="M287.113 1514.29 L305.469 1514.29 L305.469 1518.22 L291.395 1518.22 L291.395 1526.7 Q292.414 1526.35 293.432 1526.19 Q294.451 1526 295.469 1526 Q301.256 1526 304.636 1529.17 Q308.016 1532.34 308.016 1537.76 Q308.016 1543.34 304.543 1546.44 Q301.071 1549.52 294.752 1549.52 Q292.576 1549.52 290.307 1549.15 Q288.062 1548.78 285.655 1548.04 L285.655 1543.34 Q287.738 1544.47 289.96 1545.03 Q292.182 1545.58 294.659 1545.58 Q298.664 1545.58 301.002 1543.48 Q303.34 1541.37 303.34 1537.76 Q303.34 1534.15 301.002 1532.04 Q298.664 1529.94 294.659 1529.94 Q292.784 1529.94 290.909 1530.35 Q289.057 1530.77 287.113 1531.65 L287.113 1514.29 Z" fill="#000000" fill-rule="nonzero" fill-opacity="1" /><path clip-path="url(#clip090)" d="M541.004 1532.02 L570.68 1532.02 L570.68 1535.95 L541.004 1535.95 L541.004 1532.02 Z" fill="#000000" fill-rule="nonzero" fill-opacity="1" /><path clip-path="url(#clip090)" d="M581.583 1544.91 L589.222 1544.91 L589.222 1518.55 L580.912 1520.21 L580.912 1515.95 L589.175 1514.29 L593.851 1514.29 L593.851 1544.91 L601.49 1544.91 L601.49 1548.85 L581.583 1548.85 L581.583 1544.91 Z" fill="#000000" fill-rule="nonzero" fill-opacity="1" /><path clip-path="url(#clip090)" d="M610.934 1542.97 L615.819 1542.97 L615.819 1548.85 L610.934 1548.85 L610.934 1542.97 Z" fill="#000000" fill-rule="nonzero" fill-opacity="1" /><path clip-path="url(#clip090)" d="M636.004 1517.37 Q632.393 1517.37 630.564 1520.93 Q628.758 1524.47 628.758 1531.6 Q628.758 1538.71 630.564 1542.27 Q632.393 1545.82 636.004 1545.82 Q639.638 1545.82 641.444 1542.27 Q643.272 1538.71 643.272 1531.6 Q643.272 1524.47 641.444 1520.93 Q639.638 1517.37 636.004 1517.37 M636.004 1513.66 Q641.814 1513.66 644.869 1518.27 Q647.948 1522.85 647.948 1531.6 Q647.948 1540.33 644.869 1544.94 Q641.814 1549.52 636.004 1549.52 Q630.194 1549.52 627.115 1544.94 Q624.059 1540.33 624.059 1531.6 Q624.059 1522.85 627.115 1518.27 Q630.194 1513.66 636.004 1513.66 Z" fill="#000000" fill-rule="nonzero" fill-opacity="1" /><path clip-path="url(#clip090)" d="M880.937 1532.02 L910.613 1532.02 L910.613 1535.95 L880.937 1535.95 L880.937 1532.02 Z" fill="#000000" fill-rule="nonzero" fill-opacity="1" /><path clip-path="url(#clip090)" d="M930.705 1517.37 Q927.094 1517.37 925.265 1520.93 Q923.46 1524.47 923.46 1531.6 Q923.46 1538.71 925.265 1542.27 Q927.094 1545.82 930.705 1545.82 Q934.339 1545.82 936.145 1542.27 Q937.974 1538.71 937.974 1531.6 Q937.974 1524.47 936.145 1520.93 Q934.339 1517.37 930.705 1517.37 M930.705 1513.66 Q936.515 1513.66 939.571 1518.27 Q942.649 1522.85 942.649 1531.6 Q942.649 1540.33 939.571 1544.94 Q936.515 1549.52 930.705 1549.52 Q924.895 1549.52 921.816 1544.94 Q918.761 1540.33 918.761 1531.6 Q918.761 1522.85 921.816 1518.27 Q924.895 1513.66 930.705 1513.66 Z" fill="#000000" fill-rule="nonzero" fill-opacity="1" /><path clip-path="url(#clip090)" d="M950.867 1542.97 L955.751 1542.97 L955.751 1548.85 L950.867 1548.85 L950.867 1542.97 Z" fill="#000000" fill-rule="nonzero" fill-opacity="1" /><path clip-path="url(#clip090)" d="M965.983 1514.29 L984.339 1514.29 L984.339 1518.22 L970.265 1518.22 L970.265 1526.7 Q971.284 1526.35 972.302 1526.19 Q973.321 1526 974.339 1526 Q980.126 1526 983.506 1529.17 Q986.885 1532.34 986.885 1537.76 Q986.885 1543.34 983.413 1546.44 Q979.941 1549.52 973.622 1549.52 Q971.446 1549.52 969.177 1549.15 Q966.932 1548.78 964.524 1548.04 L964.524 1543.34 Q966.608 1544.47 968.83 1545.03 Q971.052 1545.58 973.529 1545.58 Q977.534 1545.58 979.871 1543.48 Q982.209 1541.37 982.209 1537.76 Q982.209 1534.15 979.871 1532.04 Q977.534 1529.94 973.529 1529.94 Q971.654 1529.94 969.779 1530.35 Q967.927 1530.77 965.983 1531.65 L965.983 1514.29 Z" fill="#000000" fill-rule="nonzero" fill-opacity="1" /><path clip-path="url(#clip090)" d="M1250.73 1517.37 Q1247.12 1517.37 1245.29 1520.93 Q1243.49 1524.47 1243.49 1531.6 Q1243.49 1538.71 1245.29 1542.27 Q1247.12 1545.82 1250.73 1545.82 Q1254.36 1545.82 1256.17 1542.27 Q1258 1538.71 1258 1531.6 Q1258 1524.47 1256.17 1520.93 Q1254.36 1517.37 1250.73 1517.37 M1250.73 1513.66 Q1256.54 1513.66 1259.6 1518.27 Q1262.67 1522.85 1262.67 1531.6 Q1262.67 1540.33 1259.6 1544.94 Q1256.54 1549.52 1250.73 1549.52 Q1244.92 1549.52 1241.84 1544.94 Q1238.79 1540.33 1238.79 1531.6 Q1238.79 1522.85 1241.84 1518.27 Q1244.92 1513.66 1250.73 1513.66 Z" fill="#000000" fill-rule="nonzero" fill-opacity="1" /><path clip-path="url(#clip090)" d="M1270.89 1542.97 L1275.78 1542.97 L1275.78 1548.85 L1270.89 1548.85 L1270.89 1542.97 Z" fill="#000000" fill-rule="nonzero" fill-opacity="1" /><path clip-path="url(#clip090)" d="M1295.96 1517.37 Q1292.35 1517.37 1290.52 1520.93 Q1288.72 1524.47 1288.72 1531.6 Q1288.72 1538.71 1290.52 1542.27 Q1292.35 1545.82 1295.96 1545.82 Q1299.6 1545.82 1301.4 1542.27 Q1303.23 1538.71 1303.23 1531.6 Q1303.23 1524.47 1301.4 1520.93 Q1299.6 1517.37 1295.96 1517.37 M1295.96 1513.66 Q1301.77 1513.66 1304.83 1518.27 Q1307.91 1522.85 1307.91 1531.6 Q1307.91 1540.33 1304.83 1544.94 Q1301.77 1549.52 1295.96 1549.52 Q1290.15 1549.52 1287.07 1544.94 Q1284.02 1540.33 1284.02 1531.6 Q1284.02 1522.85 1287.07 1518.27 Q1290.15 1513.66 1295.96 1513.66 Z" fill="#000000" fill-rule="nonzero" fill-opacity="1" /><path clip-path="url(#clip090)" d="M1590.66 1517.37 Q1587.05 1517.37 1585.22 1520.93 Q1583.42 1524.47 1583.42 1531.6 Q1583.42 1538.71 1585.22 1542.27 Q1587.05 1545.82 1590.66 1545.82 Q1594.3 1545.82 1596.1 1542.27 Q1597.93 1538.71 1597.93 1531.6 Q1597.93 1524.47 1596.1 1520.93 Q1594.3 1517.37 1590.66 1517.37 M1590.66 1513.66 Q1596.47 1513.66 1599.53 1518.27 Q1602.61 1522.85 1602.61 1531.6 Q1602.61 1540.33 1599.53 1544.94 Q1596.47 1549.52 1590.66 1549.52 Q1584.85 1549.52 1581.77 1544.94 Q1578.72 1540.33 1578.72 1531.6 Q1578.72 1522.85 1581.77 1518.27 Q1584.85 1513.66 1590.66 1513.66 Z" fill="#000000" fill-rule="nonzero" fill-opacity="1" /><path clip-path="url(#clip090)" d="M1610.82 1542.97 L1615.71 1542.97 L1615.71 1548.85 L1610.82 1548.85 L1610.82 1542.97 Z" fill="#000000" fill-rule="nonzero" fill-opacity="1" /><path clip-path="url(#clip090)" d="M1625.94 1514.29 L1644.3 1514.29 L1644.3 1518.22 L1630.22 1518.22 L1630.22 1526.7 Q1631.24 1526.35 1632.26 1526.19 Q1633.28 1526 1634.3 1526 Q1640.08 1526 1643.46 1529.17 Q1646.84 1532.34 1646.84 1537.76 Q1646.84 1543.34 1643.37 1546.44 Q1639.9 1549.52 1633.58 1549.52 Q1631.4 1549.52 1629.13 1549.15 Q1626.89 1548.78 1624.48 1548.04 L1624.48 1543.34 Q1626.57 1544.47 1628.79 1545.03 Q1631.01 1545.58 1633.49 1545.58 Q1637.49 1545.58 1639.83 1543.48 Q1642.17 1541.37 1642.17 1537.76 Q1642.17 1534.15 1639.83 1532.04 Q1637.49 1529.94 1633.49 1529.94 Q1631.61 1529.94 1629.74 1530.35 Q1627.88 1530.77 1625.94 1531.65 L1625.94 1514.29 Z" fill="#000000" fill-rule="nonzero" fill-opacity="1" /><path clip-path="url(#clip090)" d="M1919.37 1544.91 L1927.01 1544.91 L1927.01 1518.55 L1918.7 1520.21 L1918.7 1515.95 L1926.96 1514.29 L1931.64 1514.29 L1931.64 1544.91 L1939.28 1544.91 L1939.28 1548.85 L1919.37 1548.85 L1919.37 1544.91 Z" fill="#000000" fill-rule="nonzero" fill-opacity="1" /><path clip-path="url(#clip090)" d="M1948.72 1542.97 L1953.6 1542.97 L1953.6 1548.85 L1948.72 1548.85 L1948.72 1542.97 Z" fill="#000000" fill-rule="nonzero" fill-opacity="1" /><path clip-path="url(#clip090)" d="M1973.79 1517.37 Q1970.18 1517.37 1968.35 1520.93 Q1966.54 1524.47 1966.54 1531.6 Q1966.54 1538.71 1968.35 1542.27 Q1970.18 1545.82 1973.79 1545.82 Q1977.42 1545.82 1979.23 1542.27 Q1981.06 1538.71 1981.06 1531.6 Q1981.06 1524.47 1979.23 1520.93 Q1977.42 1517.37 1973.79 1517.37 M1973.79 1513.66 Q1979.6 1513.66 1982.66 1518.27 Q1985.73 1522.85 1985.73 1531.6 Q1985.73 1540.33 1982.66 1544.94 Q1979.6 1549.52 1973.79 1549.52 Q1967.98 1549.52 1964.9 1544.94 Q1961.85 1540.33 1961.85 1531.6 Q1961.85 1522.85 1964.9 1518.27 Q1967.98 1513.66 1973.79 1513.66 Z" fill="#000000" fill-rule="nonzero" fill-opacity="1" /><path clip-path="url(#clip090)" d="M2259.3 1544.91 L2266.94 1544.91 L2266.94 1518.55 L2258.63 1520.21 L2258.63 1515.95 L2266.89 1514.29 L2271.57 1514.29 L2271.57 1544.91 L2279.21 1544.91 L2279.21 1548.85 L2259.3 1548.85 L2259.3 1544.91 Z" fill="#000000" fill-rule="nonzero" fill-opacity="1" /><path clip-path="url(#clip090)" d="M2288.65 1542.97 L2293.54 1542.97 L2293.54 1548.85 L2288.65 1548.85 L2288.65 1542.97 Z" fill="#000000" fill-rule="nonzero" fill-opacity="1" /><path clip-path="url(#clip090)" d="M2303.77 1514.29 L2322.12 1514.29 L2322.12 1518.22 L2308.05 1518.22 L2308.05 1526.7 Q2309.07 1526.35 2310.09 1526.19 Q2311.11 1526 2312.12 1526 Q2317.91 1526 2321.29 1529.17 Q2324.67 1532.34 2324.67 1537.76 Q2324.67 1543.34 2321.2 1546.44 Q2317.73 1549.52 2311.41 1549.52 Q2309.23 1549.52 2306.96 1549.15 Q2304.72 1548.78 2302.31 1548.04 L2302.31 1543.34 Q2304.39 1544.47 2306.62 1545.03 Q2308.84 1545.58 2311.31 1545.58 Q2315.32 1545.58 2317.66 1543.48 Q2320 1541.37 2320 1537.76 Q2320 1534.15 2317.66 1532.04 Q2315.32 1529.94 2311.31 1529.94 Q2309.44 1529.94 2307.56 1530.35 Q2305.71 1530.77 2303.77 1531.65 L2303.77 1514.29 Z" fill="#000000" fill-rule="nonzero" fill-opacity="1" /><polyline clip-path="url(#clip090)" style="stroke:#000000; stroke-linecap:round; stroke-linejoin:round; stroke-width:4; stroke-opacity:1; fill:none" points="193.936,1486.45 193.936,47.2441 "/>
<polyline clip-path="url(#clip090)" style="stroke:#000000; stroke-linecap:round; stroke-linejoin:round; stroke-width:4; stroke-opacity:1; fill:none" points="193.936,1445.72 212.834,1445.72 "/>
<polyline clip-path="url(#clip090)" style="stroke:#000000; stroke-linecap:round; stroke-linejoin:round; stroke-width:4; stroke-opacity:1; fill:none" points="193.936,1106.28 212.834,1106.28 "/>
<polyline clip-path="url(#clip090)" style="stroke:#000000; stroke-linecap:round; stroke-linejoin:round; stroke-width:4; stroke-opacity:1; fill:none" points="193.936,766.846 212.834,766.846 "/>
<polyline clip-path="url(#clip090)" style="stroke:#000000; stroke-linecap:round; stroke-linejoin:round; stroke-width:4; stroke-opacity:1; fill:none" points="193.936,427.411 212.834,427.411 "/>
<polyline clip-path="url(#clip090)" style="stroke:#000000; stroke-linecap:round; stroke-linejoin:round; stroke-width:4; stroke-opacity:1; fill:none" points="193.936,87.9763 212.834,87.9763 "/>
<path clip-path="url(#clip090)" d="M50.9921 1446.17 L80.6679 1446.17 L80.6679 1450.1 L50.9921 1450.1 L50.9921 1446.17 Z" fill="#000000" fill-rule="nonzero" fill-opacity="1" /><path clip-path="url(#clip090)" d="M91.5706 1459.06 L99.2095 1459.06 L99.2095 1432.69 L90.8993 1434.36 L90.8993 1430.1 L99.1632 1428.44 L103.839 1428.44 L103.839 1459.06 L111.478 1459.06 L111.478 1463 L91.5706 1463 L91.5706 1459.06 Z" fill="#000000" fill-rule="nonzero" fill-opacity="1" /><path clip-path="url(#clip090)" d="M120.922 1457.12 L125.807 1457.12 L125.807 1463 L120.922 1463 L120.922 1457.12 Z" fill="#000000" fill-rule="nonzero" fill-opacity="1" /><path clip-path="url(#clip090)" d="M145.992 1431.51 Q142.381 1431.51 140.552 1435.08 Q138.746 1438.62 138.746 1445.75 Q138.746 1452.86 140.552 1456.42 Q142.381 1459.96 145.992 1459.96 Q149.626 1459.96 151.431 1456.42 Q153.26 1452.86 153.26 1445.75 Q153.26 1438.62 151.431 1435.08 Q149.626 1431.51 145.992 1431.51 M145.992 1427.81 Q151.802 1427.81 154.857 1432.42 Q157.936 1437 157.936 1445.75 Q157.936 1454.48 154.857 1459.08 Q151.802 1463.67 145.992 1463.67 Q140.181 1463.67 137.103 1459.08 Q134.047 1454.48 134.047 1445.75 Q134.047 1437 137.103 1432.42 Q140.181 1427.81 145.992 1427.81 Z" fill="#000000" fill-rule="nonzero" fill-opacity="1" /><path clip-path="url(#clip090)" d="M51.9875 1106.73 L81.6633 1106.73 L81.6633 1110.67 L51.9875 1110.67 L51.9875 1106.73 Z" fill="#000000" fill-rule="nonzero" fill-opacity="1" /><path clip-path="url(#clip090)" d="M101.756 1092.08 Q98.1447 1092.08 96.316 1095.64 Q94.5104 1099.19 94.5104 1106.32 Q94.5104 1113.42 96.316 1116.99 Q98.1447 1120.53 101.756 1120.53 Q105.39 1120.53 107.196 1116.99 Q109.024 1113.42 109.024 1106.32 Q109.024 1099.19 107.196 1095.64 Q105.39 1092.08 101.756 1092.08 M101.756 1088.38 Q107.566 1088.38 110.621 1092.98 Q113.7 1097.57 113.7 1106.32 Q113.7 1115.04 110.621 1119.65 Q107.566 1124.23 101.756 1124.23 Q95.9456 1124.23 92.8669 1119.65 Q89.8114 1115.04 89.8114 1106.32 Q89.8114 1097.57 92.8669 1092.98 Q95.9456 1088.38 101.756 1088.38 Z" fill="#000000" fill-rule="nonzero" fill-opacity="1" /><path clip-path="url(#clip090)" d="M121.918 1117.68 L126.802 1117.68 L126.802 1123.56 L121.918 1123.56 L121.918 1117.68 Z" fill="#000000" fill-rule="nonzero" fill-opacity="1" /><path clip-path="url(#clip090)" d="M137.033 1089 L155.39 1089 L155.39 1092.94 L141.316 1092.94 L141.316 1101.41 Q142.334 1101.06 143.353 1100.9 Q144.371 1100.71 145.39 1100.71 Q151.177 1100.71 154.556 1103.89 Q157.936 1107.06 157.936 1112.47 Q157.936 1118.05 154.464 1121.15 Q150.992 1124.23 144.672 1124.23 Q142.496 1124.23 140.228 1123.86 Q137.982 1123.49 135.575 1122.75 L135.575 1118.05 Q137.658 1119.19 139.881 1119.74 Q142.103 1120.3 144.58 1120.3 Q148.584 1120.3 150.922 1118.19 Q153.26 1116.08 153.26 1112.47 Q153.26 1108.86 150.922 1106.76 Q148.584 1104.65 144.58 1104.65 Q142.705 1104.65 140.83 1105.07 Q138.978 1105.48 137.033 1106.36 L137.033 1089 Z" fill="#000000" fill-rule="nonzero" fill-opacity="1" /><path clip-path="url(#clip090)" d="M100.76 752.645 Q97.1493 752.645 95.3206 756.209 Q93.515 759.751 93.515 766.881 Q93.515 773.987 95.3206 777.552 Q97.1493 781.094 100.76 781.094 Q104.395 781.094 106.2 777.552 Q108.029 773.987 108.029 766.881 Q108.029 759.751 106.2 756.209 Q104.395 752.645 100.76 752.645 M100.76 748.941 Q106.571 748.941 109.626 753.547 Q112.705 758.131 112.705 766.881 Q112.705 775.608 109.626 780.214 Q106.571 784.797 100.76 784.797 Q94.9502 784.797 91.8715 780.214 Q88.816 775.608 88.816 766.881 Q88.816 758.131 91.8715 753.547 Q94.9502 748.941 100.76 748.941 Z" fill="#000000" fill-rule="nonzero" fill-opacity="1" /><path clip-path="url(#clip090)" d="M120.922 778.246 L125.807 778.246 L125.807 784.126 L120.922 784.126 L120.922 778.246 Z" fill="#000000" fill-rule="nonzero" fill-opacity="1" /><path clip-path="url(#clip090)" d="M145.992 752.645 Q142.381 752.645 140.552 756.209 Q138.746 759.751 138.746 766.881 Q138.746 773.987 140.552 777.552 Q142.381 781.094 145.992 781.094 Q149.626 781.094 151.431 777.552 Q153.26 773.987 153.26 766.881 Q153.26 759.751 151.431 756.209 Q149.626 752.645 145.992 752.645 M145.992 748.941 Q151.802 748.941 154.857 753.547 Q157.936 758.131 157.936 766.881 Q157.936 775.608 154.857 780.214 Q151.802 784.797 145.992 784.797 Q140.181 784.797 137.103 780.214 Q134.047 775.608 134.047 766.881 Q134.047 758.131 137.103 753.547 Q140.181 748.941 145.992 748.941 Z" fill="#000000" fill-rule="nonzero" fill-opacity="1" /><path clip-path="url(#clip090)" d="M101.756 413.21 Q98.1447 413.21 96.316 416.775 Q94.5104 420.316 94.5104 427.446 Q94.5104 434.552 96.316 438.117 Q98.1447 441.659 101.756 441.659 Q105.39 441.659 107.196 438.117 Q109.024 434.552 109.024 427.446 Q109.024 420.316 107.196 416.775 Q105.39 413.21 101.756 413.21 M101.756 409.506 Q107.566 409.506 110.621 414.113 Q113.7 418.696 113.7 427.446 Q113.7 436.173 110.621 440.779 Q107.566 445.362 101.756 445.362 Q95.9456 445.362 92.8669 440.779 Q89.8114 436.173 89.8114 427.446 Q89.8114 418.696 92.8669 414.113 Q95.9456 409.506 101.756 409.506 Z" fill="#000000" fill-rule="nonzero" fill-opacity="1" /><path clip-path="url(#clip090)" d="M121.918 438.812 L126.802 438.812 L126.802 444.691 L121.918 444.691 L121.918 438.812 Z" fill="#000000" fill-rule="nonzero" fill-opacity="1" /><path clip-path="url(#clip090)" d="M137.033 410.131 L155.39 410.131 L155.39 414.066 L141.316 414.066 L141.316 422.538 Q142.334 422.191 143.353 422.029 Q144.371 421.844 145.39 421.844 Q151.177 421.844 154.556 425.015 Q157.936 428.187 157.936 433.603 Q157.936 439.182 154.464 442.284 Q150.992 445.362 144.672 445.362 Q142.496 445.362 140.228 444.992 Q137.982 444.622 135.575 443.881 L135.575 439.182 Q137.658 440.316 139.881 440.872 Q142.103 441.427 144.58 441.427 Q148.584 441.427 150.922 439.321 Q153.26 437.214 153.26 433.603 Q153.26 429.992 150.922 427.886 Q148.584 425.779 144.58 425.779 Q142.705 425.779 140.83 426.196 Q138.978 426.613 137.033 427.492 L137.033 410.131 Z" fill="#000000" fill-rule="nonzero" fill-opacity="1" /><path clip-path="url(#clip090)" d="M91.5706 101.321 L99.2095 101.321 L99.2095 74.9555 L90.8993 76.6222 L90.8993 72.3629 L99.1632 70.6963 L103.839 70.6963 L103.839 101.321 L111.478 101.321 L111.478 105.256 L91.5706 105.256 L91.5706 101.321 Z" fill="#000000" fill-rule="nonzero" fill-opacity="1" /><path clip-path="url(#clip090)" d="M120.922 99.3767 L125.807 99.3767 L125.807 105.256 L120.922 105.256 L120.922 99.3767 Z" fill="#000000" fill-rule="nonzero" fill-opacity="1" /><path clip-path="url(#clip090)" d="M145.992 73.775 Q142.381 73.775 140.552 77.3398 Q138.746 80.8814 138.746 88.011 Q138.746 95.1174 140.552 98.6822 Q142.381 102.224 145.992 102.224 Q149.626 102.224 151.431 98.6822 Q153.26 95.1174 153.26 88.011 Q153.26 80.8814 151.431 77.3398 Q149.626 73.775 145.992 73.775 M145.992 70.0713 Q151.802 70.0713 154.857 74.6777 Q157.936 79.261 157.936 88.011 Q157.936 96.7378 154.857 101.344 Q151.802 105.928 145.992 105.928 Q140.181 105.928 137.103 101.344 Q134.047 96.7378 134.047 88.011 Q134.047 79.261 137.103 74.6777 Q140.181 70.0713 145.992 70.0713 Z" fill="#000000" fill-rule="nonzero" fill-opacity="1" /><path clip-path="url(#clip092)" d="M1952.22 766.846 L1952.08 753.176 L1951.67 739.511 L1950.98 725.857 L1950.01 712.22 L1948.78 698.605 L1947.27 685.017 L1945.48 671.463 L1943.42 657.948 L1941.1 644.476 L1938.5 631.055 L1935.63 617.688 L1932.49 604.382 L1929.08 591.142 L1925.41 577.973 L1921.48 564.88 L1917.28 551.87 L1912.82 538.946 L1908.1 526.115 L1903.12 513.382 L1897.89 500.752 L1892.41 488.229 L1886.67 475.82 L1880.69 463.528 L1874.46 451.36 L1867.98 439.319 L1861.26 427.411 L1854.31 415.641 L1847.12 404.013 L1839.7 392.533 L1832.04 381.204 L1824.17 370.032 L1816.06 359.02 L1807.74 348.174 L1799.2 337.498 L1790.45 326.996 L1781.49 316.672 L1772.32 306.531 L1762.95 296.576 L1753.38 286.813 L1743.62 277.243 L1733.66 267.873 L1723.52 258.705 L1713.2 249.743 L1702.69 240.99 L1692.02 232.451 L1681.17 224.129 L1670.16 216.026 L1658.99 208.147 L1647.66 200.495 L1636.18 193.072 L1624.55 185.882 L1612.78 178.928 L1600.87 172.212 L1588.83 165.737 L1576.66 159.506 L1564.37 153.521 L1551.96 147.785 L1539.44 142.3 L1526.81 137.068 L1514.08 132.092 L1501.25 127.373 L1488.32 122.913 L1475.31 118.715 L1462.22 114.779 L1449.05 111.108 L1435.81 107.703 L1422.5 104.565 L1409.14 101.696 L1395.72 99.0962 L1382.24 96.7675 L1368.73 94.7104 L1355.17 92.926 L1341.59 91.4149 L1327.97 90.1776 L1314.34 89.2148 L1300.68 88.5268 L1287.02 88.1139 L1273.35 87.9763 L1259.68 88.1139 L1246.01 88.5268 L1232.36 89.2148 L1218.72 90.1776 L1205.1 91.4149 L1191.52 92.926 L1177.96 94.7104 L1164.45 96.7675 L1150.98 99.0962 L1137.55 101.696 L1124.19 104.565 L1110.88 107.703 L1097.64 111.108 L1084.47 114.779 L1071.38 118.715 L1058.37 122.913 L1045.45 127.373 L1032.62 132.092 L1019.88 137.068 L1007.25 142.3 L994.729 147.785 L982.32 153.521 L970.028 159.506 L957.859 165.737 L945.819 172.212 L933.911 178.928 L922.141 185.882 L910.513 193.072 L899.033 200.495 L887.704 208.147 L876.532 216.026 L865.52 224.129 L854.674 232.451 L843.998 240.99 L833.496 249.743 L823.172 258.705 L813.031 267.873 L803.076 277.243 L793.313 286.813 L783.743 296.576 L774.373 306.531 L765.205 316.672 L756.243 326.996 L747.49 337.498 L738.951 348.174 L730.628 359.02 L722.526 370.032 L714.647 381.204 L706.995 392.533 L699.572 404.013 L692.382 415.641 L685.428 427.411 L678.712 439.319 L672.237 451.36 L666.006 463.528 L660.021 475.82 L654.285 488.229 L648.8 500.752 L643.568 513.382 L638.592 526.115 L633.873 538.946 L629.413 551.87 L625.215 564.88 L621.279 577.973 L617.608 591.142 L614.203 604.382 L611.065 617.688 L608.196 631.055 L605.596 644.476 L603.267 657.948 L601.21 671.463 L599.426 685.017 L597.915 698.605 L596.678 712.22 L595.715 725.857 L595.027 739.511 L594.614 753.176 L594.476 766.846 L594.614 780.516 L595.027 794.181 L595.715 807.835 L596.678 821.472 L597.915 835.087 L599.426 848.675 L601.21 862.229 L603.267 875.744 L605.596 889.216 L608.196 902.637 L611.065 916.004 L614.203 929.31 L617.608 942.55 L621.279 955.719 L625.215 968.812 L629.413 981.822 L633.873 994.746 L638.592 1007.58 L643.568 1020.31 L648.8 1032.94 L654.285 1045.46 L660.021 1057.87 L666.006 1070.16 L672.237 1082.33 L678.712 1094.37 L685.428 1106.28 L692.382 1118.05 L699.572 1129.68 L706.995 1141.16 L714.647 1152.49 L722.526 1163.66 L730.628 1174.67 L738.951 1185.52 L747.49 1196.19 L756.243 1206.7 L765.205 1217.02 L774.373 1227.16 L783.743 1237.12 L793.313 1246.88 L803.076 1256.45 L813.031 1265.82 L823.172 1274.99 L833.496 1283.95 L843.998 1292.7 L854.674 1301.24 L865.52 1309.56 L876.532 1317.67 L887.704 1325.54 L899.033 1333.2 L910.513 1340.62 L922.141 1347.81 L933.911 1354.76 L945.819 1361.48 L957.859 1367.96 L970.028 1374.19 L982.32 1380.17 L994.729 1385.91 L1007.25 1391.39 L1019.88 1396.62 L1032.62 1401.6 L1045.45 1406.32 L1058.37 1410.78 L1071.38 1414.98 L1084.47 1418.91 L1097.64 1422.58 L1110.88 1425.99 L1124.19 1429.13 L1137.55 1432 L1150.98 1434.6 L1164.45 1436.92 L1177.96 1438.98 L1191.52 1440.77 L1205.1 1442.28 L1218.72 1443.51 L1232.36 1444.48 L1246.01 1445.17 L1259.68 1445.58 L1273.35 1445.72 L1287.02 1445.58 L1300.68 1445.17 L1314.34 1444.48 L1327.97 1443.51 L1341.59 1442.28 L1355.17 1440.77 L1368.73 1438.98 L1382.24 1436.92 L1395.72 1434.6 L1409.14 1432 L1422.5 1429.13 L1435.81 1425.99 L1449.05 1422.58 L1462.22 1418.91 L1475.31 1414.98 L1488.32 1410.78 L1501.25 1406.32 L1514.08 1401.6 L1526.81 1396.62 L1539.44 1391.39 L1551.96 1385.91 L1564.37 1380.17 L1576.66 1374.19 L1588.83 1367.96 L1600.87 1361.48 L1612.78 1354.76 L1624.55 1347.81 L1636.18 1340.62 L1647.66 1333.2 L1658.99 1325.54 L1670.16 1317.67 L1681.17 1309.56 L1692.02 1301.24 L1702.69 1292.7 L1713.2 1283.95 L1723.52 1274.99 L1733.66 1265.82 L1743.62 1256.45 L1753.38 1246.88 L1762.95 1237.12 L1772.32 1227.16 L1781.49 1217.02 L1790.45 1206.7 L1799.2 1196.19 L1807.74 1185.52 L1816.06 1174.67 L1824.17 1163.66 L1832.04 1152.49 L1839.7 1141.16 L1847.12 1129.68 L1854.31 1118.05 L1861.26 1106.28 L1867.98 1094.37 L1874.46 1082.33 L1880.69 1070.16 L1886.67 1057.87 L1892.41 1045.46 L1897.89 1032.94 L1903.12 1020.31 L1908.1 1007.58 L1912.82 994.746 L1917.28 981.822 L1921.48 968.812 L1925.41 955.719 L1929.08 942.55 L1932.49 929.31 L1935.63 916.004 L1938.5 902.637 L1941.1 889.216 L1943.42 875.744 L1945.48 862.229 L1947.27 848.675 L1948.78 835.087 L1950.01 821.472 L1950.98 807.835 L1951.67 794.181 L1952.08 780.516 L1952.22 766.846 L1952.22 766.846 L1952.08 766.846 L1951.67 766.846 L1950.98 766.846 L1950.01 766.846 L1948.78 766.846 L1947.27 766.846 L1945.48 766.846 L1943.42 766.846 L1941.1 766.846 L1938.5 766.846 L1935.63 766.846 L1932.49 766.846 L1929.08 766.846 L1925.41 766.846 L1921.48 766.846 L1917.28 766.846 L1912.82 766.846 L1908.1 766.846 L1903.12 766.846 L1897.89 766.846 L1892.41 766.846 L1886.67 766.846 L1880.69 766.846 L1874.46 766.846 L1867.98 766.846 L1861.26 766.846 L1854.31 766.846 L1847.12 766.846 L1839.7 766.846 L1832.04 766.846 L1824.17 766.846 L1816.06 766.846 L1807.74 766.846 L1799.2 766.846 L1790.45 766.846 L1781.49 766.846 L1772.32 766.846 L1762.95 766.846 L1753.38 766.846 L1743.62 766.846 L1733.66 766.846 L1723.52 766.846 L1713.2 766.846 L1702.69 766.846 L1692.02 766.846 L1681.17 766.846 L1670.16 766.846 L1658.99 766.846 L1647.66 766.846 L1636.18 766.846 L1624.55 766.846 L1612.78 766.846 L1600.87 766.846 L1588.83 766.846 L1576.66 766.846 L1564.37 766.846 L1551.96 766.846 L1539.44 766.846 L1526.81 766.846 L1514.08 766.846 L1501.25 766.846 L1488.32 766.846 L1475.31 766.846 L1462.22 766.846 L1449.05 766.846 L1435.81 766.846 L1422.5 766.846 L1409.14 766.846 L1395.72 766.846 L1382.24 766.846 L1368.73 766.846 L1355.17 766.846 L1341.59 766.846 L1327.97 766.846 L1314.34 766.846 L1300.68 766.846 L1287.02 766.846 L1273.35 766.846 L1259.68 766.846 L1246.01 766.846 L1232.36 766.846 L1218.72 766.846 L1205.1 766.846 L1191.52 766.846 L1177.96 766.846 L1164.45 766.846 L1150.98 766.846 L1137.55 766.846 L1124.19 766.846 L1110.88 766.846 L1097.64 766.846 L1084.47 766.846 L1071.38 766.846 L1058.37 766.846 L1045.45 766.846 L1032.62 766.846 L1019.88 766.846 L1007.25 766.846 L994.729 766.846 L982.32 766.846 L970.028 766.846 L957.859 766.846 L945.819 766.846 L933.911 766.846 L922.141 766.846 L910.513 766.846 L899.033 766.846 L887.704 766.846 L876.532 766.846 L865.52 766.846 L854.674 766.846 L843.998 766.846 L833.496 766.846 L823.172 766.846 L813.031 766.846 L803.076 766.846 L793.313 766.846 L783.743 766.846 L774.373 766.846 L765.205 766.846 L756.243 766.846 L747.49 766.846 L738.951 766.846 L730.628 766.846 L722.526 766.846 L714.647 766.846 L706.995 766.846 L699.572 766.846 L692.382 766.846 L685.428 766.846 L678.712 766.846 L672.237 766.846 L666.006 766.846 L660.021 766.846 L654.285 766.846 L648.8 766.846 L643.568 766.846 L638.592 766.846 L633.873 766.846 L629.413 766.846 L625.215 766.846 L621.279 766.846 L617.608 766.846 L614.203 766.846 L611.065 766.846 L608.196 766.846 L605.596 766.846 L603.267 766.846 L601.21 766.846 L599.426 766.846 L597.915 766.846 L596.678 766.846 L595.715 766.846 L595.027 766.846 L594.614 766.846 L594.476 766.846 L594.614 766.846 L595.027 766.846 L595.715 766.846 L596.678 766.846 L597.915 766.846 L599.426 766.846 L601.21 766.846 L603.267 766.846 L605.596 766.846 L608.196 766.846 L611.065 766.846 L614.203 766.846 L617.608 766.846 L621.279 766.846 L625.215 766.846 L629.413 766.846 L633.873 766.846 L638.592 766.846 L643.568 766.846 L648.8 766.846 L654.285 766.846 L660.021 766.846 L666.006 766.846 L672.237 766.846 L678.712 766.846 L685.428 766.846 L692.382 766.846 L699.572 766.846 L706.995 766.846 L714.647 766.846 L722.526 766.846 L730.628 766.846 L738.951 766.846 L747.49 766.846 L756.243 766.846 L765.205 766.846 L774.373 766.846 L783.743 766.846 L793.313 766.846 L803.076 766.846 L813.031 766.846 L823.172 766.846 L833.496 766.846 L843.998 766.846 L854.674 766.846 L865.52 766.846 L876.532 766.846 L887.704 766.846 L899.033 766.846 L910.513 766.846 L922.141 766.846 L933.911 766.846 L945.819 766.846 L957.859 766.846 L970.028 766.846 L982.32 766.846 L994.729 766.846 L1007.25 766.846 L1019.88 766.846 L1032.62 766.846 L1045.45 766.846 L1058.37 766.846 L1071.38 766.846 L1084.47 766.846 L1097.64 766.846 L1110.88 766.846 L1124.19 766.846 L1137.55 766.846 L1150.98 766.846 L1164.45 766.846 L1177.96 766.846 L1191.52 766.846 L1205.1 766.846 L1218.72 766.846 L1232.36 766.846 L1246.01 766.846 L1259.68 766.846 L1273.35 766.846 L1287.02 766.846 L1300.68 766.846 L1314.34 766.846 L1327.97 766.846 L1341.59 766.846 L1355.17 766.846 L1368.73 766.846 L1382.24 766.846 L1395.72 766.846 L1409.14 766.846 L1422.5 766.846 L1435.81 766.846 L1449.05 766.846 L1462.22 766.846 L1475.31 766.846 L1488.32 766.846 L1501.25 766.846 L1514.08 766.846 L1526.81 766.846 L1539.44 766.846 L1551.96 766.846 L1564.37 766.846 L1576.66 766.846 L1588.83 766.846 L1600.87 766.846 L1612.78 766.846 L1624.55 766.846 L1636.18 766.846 L1647.66 766.846 L1658.99 766.846 L1670.16 766.846 L1681.17 766.846 L1692.02 766.846 L1702.69 766.846 L1713.2 766.846 L1723.52 766.846 L1733.66 766.846 L1743.62 766.846 L1753.38 766.846 L1762.95 766.846 L1772.32 766.846 L1781.49 766.846 L1790.45 766.846 L1799.2 766.846 L1807.74 766.846 L1816.06 766.846 L1824.17 766.846 L1832.04 766.846 L1839.7 766.846 L1847.12 766.846 L1854.31 766.846 L1861.26 766.846 L1867.98 766.846 L1874.46 766.846 L1880.69 766.846 L1886.67 766.846 L1892.41 766.846 L1897.89 766.846 L1903.12 766.846 L1908.1 766.846 L1912.82 766.846 L1917.28 766.846 L1921.48 766.846 L1925.41 766.846 L1929.08 766.846 L1932.49 766.846 L1935.63 766.846 L1938.5 766.846 L1941.1 766.846 L1943.42 766.846 L1945.48 766.846 L1947.27 766.846 L1948.78 766.846 L1950.01 766.846 L1950.98 766.846 L1951.67 766.846 L1952.08 766.846 L1952.22 766.846  Z" fill="#97b476" fill-rule="evenodd" fill-opacity="1"/>
<polyline clip-path="url(#clip092)" style="stroke:#97b476; stroke-linecap:round; stroke-linejoin:round; stroke-width:4; stroke-opacity:1; fill:none" points="1952.22,766.846 1952.08,753.176 1951.67,739.511 1950.98,725.857 1950.01,712.22 1948.78,698.605 1947.27,685.017 1945.48,671.463 1943.42,657.948 1941.1,644.476 1938.5,631.055 1935.63,617.688 1932.49,604.382 1929.08,591.142 1925.41,577.973 1921.48,564.88 1917.28,551.87 1912.82,538.946 1908.1,526.115 1903.12,513.382 1897.89,500.752 1892.41,488.229 1886.67,475.82 1880.69,463.528 1874.46,451.36 1867.98,439.319 1861.26,427.411 1854.31,415.641 1847.12,404.013 1839.7,392.533 1832.04,381.204 1824.17,370.032 1816.06,359.02 1807.74,348.174 1799.2,337.498 1790.45,326.996 1781.49,316.672 1772.32,306.531 1762.95,296.576 1753.38,286.813 1743.62,277.243 1733.66,267.873 1723.52,258.705 1713.2,249.743 1702.69,240.99 1692.02,232.451 1681.17,224.129 1670.16,216.026 1658.99,208.147 1647.66,200.495 1636.18,193.072 1624.55,185.882 1612.78,178.928 1600.87,172.212 1588.83,165.737 1576.66,159.506 1564.37,153.521 1551.96,147.785 1539.44,142.3 1526.81,137.068 1514.08,132.092 1501.25,127.373 1488.32,122.913 1475.31,118.715 1462.22,114.779 1449.05,111.108 1435.81,107.703 1422.5,104.565 1409.14,101.696 1395.72,99.0962 1382.24,96.7675 1368.73,94.7104 1355.17,92.926 1341.59,91.4149 1327.97,90.1776 1314.34,89.2148 1300.68,88.5268 1287.02,88.1139 1273.35,87.9763 1259.68,88.1139 1246.01,88.5268 1232.36,89.2148 1218.72,90.1776 1205.1,91.4149 1191.52,92.926 1177.96,94.7104 1164.45,96.7675 1150.98,99.0962 1137.55,101.696 1124.19,104.565 1110.88,107.703 1097.64,111.108 1084.47,114.779 1071.38,118.715 1058.37,122.913 1045.45,127.373 1032.62,132.092 1019.88,137.068 1007.25,142.3 994.729,147.785 982.32,153.521 970.028,159.506 957.859,165.737 945.819,172.212 933.911,178.928 922.141,185.882 910.513,193.072 899.033,200.495 887.704,208.147 876.532,216.026 865.52,224.129 854.674,232.451 843.998,240.99 833.496,249.743 823.172,258.705 813.031,267.873 803.076,277.243 793.313,286.813 783.743,296.576 774.373,306.531 765.205,316.672 756.243,326.996 747.49,337.498 738.951,348.174 730.628,359.02 722.526,370.032 714.647,381.204 706.995,392.533 699.572,404.013 692.382,415.641 685.428,427.411 678.712,439.319 672.237,451.36 666.006,463.528 660.021,475.82 654.285,488.229 648.8,500.752 643.568,513.382 638.592,526.115 633.873,538.946 629.413,551.87 625.215,564.88 621.279,577.973 617.608,591.142 614.203,604.382 611.065,617.688 608.196,631.055 605.596,644.476 603.267,657.948 601.21,671.463 599.426,685.017 597.915,698.605 596.678,712.22 595.715,725.857 595.027,739.511 594.614,753.176 594.476,766.846 594.614,780.516 595.027,794.181 595.715,807.835 596.678,821.472 597.915,835.087 599.426,848.675 601.21,862.229 603.267,875.744 605.596,889.216 608.196,902.637 611.065,916.004 614.203,929.31 617.608,942.55 621.279,955.719 625.215,968.812 629.413,981.822 633.873,994.746 638.592,1007.58 643.568,1020.31 648.8,1032.94 654.285,1045.46 660.021,1057.87 666.006,1070.16 672.237,1082.33 678.712,1094.37 685.428,1106.28 692.382,1118.05 699.572,1129.68 706.995,1141.16 714.647,1152.49 722.526,1163.66 730.628,1174.67 738.951,1185.52 747.49,1196.19 756.243,1206.7 765.205,1217.02 774.373,1227.16 783.743,1237.12 793.313,1246.88 803.076,1256.45 813.031,1265.82 823.172,1274.99 833.496,1283.95 843.998,1292.7 854.674,1301.24 865.52,1309.56 876.532,1317.67 887.704,1325.54 899.033,1333.2 910.513,1340.62 922.141,1347.81 933.911,1354.76 945.819,1361.48 957.859,1367.96 970.028,1374.19 982.32,1380.17 994.729,1385.91 1007.25,1391.39 1019.88,1396.62 1032.62,1401.6 1045.45,1406.32 1058.37,1410.78 1071.38,1414.98 1084.47,1418.91 1097.64,1422.58 1110.88,1425.99 1124.19,1429.13 1137.55,1432 1150.98,1434.6 1164.45,1436.92 1177.96,1438.98 1191.52,1440.77 1205.1,1442.28 1218.72,1443.51 1232.36,1444.48 1246.01,1445.17 1259.68,1445.58 1273.35,1445.72 1287.02,1445.58 1300.68,1445.17 1314.34,1444.48 1327.97,1443.51 1341.59,1442.28 1355.17,1440.77 1368.73,1438.98 1382.24,1436.92 1395.72,1434.6 1409.14,1432 1422.5,1429.13 1435.81,1425.99 1449.05,1422.58 1462.22,1418.91 1475.31,1414.98 1488.32,1410.78 1501.25,1406.32 1514.08,1401.6 1526.81,1396.62 1539.44,1391.39 1551.96,1385.91 1564.37,1380.17 1576.66,1374.19 1588.83,1367.96 1600.87,1361.48 1612.78,1354.76 1624.55,1347.81 1636.18,1340.62 1647.66,1333.2 1658.99,1325.54 1670.16,1317.67 1681.17,1309.56 1692.02,1301.24 1702.69,1292.7 1713.2,1283.95 1723.52,1274.99 1733.66,1265.82 1743.62,1256.45 1753.38,1246.88 1762.95,1237.12 1772.32,1227.16 1781.49,1217.02 1790.45,1206.7 1799.2,1196.19 1807.74,1185.52 1816.06,1174.67 1824.17,1163.66 1832.04,1152.49 1839.7,1141.16 1847.12,1129.68 1854.31,1118.05 1861.26,1106.28 1867.98,1094.37 1874.46,1082.33 1880.69,1070.16 1886.67,1057.87 1892.41,1045.46 1897.89,1032.94 1903.12,1020.31 1908.1,1007.58 1912.82,994.746 1917.28,981.822 1921.48,968.812 1925.41,955.719 1929.08,942.55 1932.49,929.31 1935.63,916.004 1938.5,902.637 1941.1,889.216 1943.42,875.744 1945.48,862.229 1947.27,848.675 1948.78,835.087 1950.01,821.472 1950.98,807.835 1951.67,794.181 1952.08,780.516 1952.22,766.846 "/>
</svg>
