<?xml version="1.0" encoding="utf-8"?>
<svg xmlns="http://www.w3.org/2000/svg" xmlns:xlink="http://www.w3.org/1999/xlink" width="600" height="400" viewBox="0 0 2400 1600">
<defs>
  <clipPath id="clip300">
    <rect x="0" y="0" width="2400" height="1600"/>
  </clipPath>
</defs>
<path clip-path="url(#clip300)" d="M0 1600 L2400 1600 L2400 0 L0 0  Z" fill="#ffffff" fill-rule="evenodd" fill-opacity="1"/>
<defs>
  <clipPath id="clip301">
    <rect x="480" y="0" width="1681" height="1600"/>
  </clipPath>
</defs>
<path clip-path="url(#clip300)" d="M186.274 1423.18 L2352.76 1423.18 L2352.76 47.2441 L186.274 47.2441  Z" fill="#ffffff" fill-rule="evenodd" fill-opacity="1"/>
<defs>
  <clipPath id="clip302">
    <rect x="186" y="47" width="2167" height="1377"/>
  </clipPath>
</defs>
<polyline clip-path="url(#clip302)" style="stroke:#000000; stroke-linecap:round; stroke-linejoin:round; stroke-width:2; stroke-opacity:0.1; fill:none" points="247.59,1423.18 247.59,47.2441 "/>
<polyline clip-path="url(#clip302)" style="stroke:#000000; stroke-linecap:round; stroke-linejoin:round; stroke-width:2; stroke-opacity:0.1; fill:none" points="928.873,1423.18 928.873,47.2441 "/>
<polyline clip-path="url(#clip302)" style="stroke:#000000; stroke-linecap:round; stroke-linejoin:round; stroke-width:2; stroke-opacity:0.1; fill:none" points="1610.16,1423.18 1610.16,47.2441 "/>
<polyline clip-path="url(#clip302)" style="stroke:#000000; stroke-linecap:round; stroke-linejoin:round; stroke-width:2; stroke-opacity:0.1; fill:none" points="2291.44,1423.18 2291.44,47.2441 "/>
<polyline clip-path="url(#clip300)" style="stroke:#000000; stroke-linecap:round; stroke-linejoin:round; stroke-width:4; stroke-opacity:1; fill:none" points="186.274,1423.18 2352.76,1423.18 "/>
<polyline clip-path="url(#clip300)" style="stroke:#000000; stroke-linecap:round; stroke-linejoin:round; stroke-width:4; stroke-opacity:1; fill:none" points="247.59,1423.18 247.59,1404.28 "/>
<polyline clip-path="url(#clip300)" style="stroke:#000000; stroke-linecap:round; stroke-linejoin:round; stroke-width:4; stroke-opacity:1; fill:none" points="928.873,1423.18 928.873,1404.28 "/>
<polyline clip-path="url(#clip300)" style="stroke:#000000; stroke-linecap:round; stroke-linejoin:round; stroke-width:4; stroke-opacity:1; fill:none" points="1610.16,1423.18 1610.16,1404.28 "/>
<polyline clip-path="url(#clip300)" style="stroke:#000000; stroke-linecap:round; stroke-linejoin:round; stroke-width:4; stroke-opacity:1; fill:none" points="2291.44,1423.18 2291.44,1404.28 "/>
<path clip-path="url(#clip300)" d="M247.59 1454.1 Q243.978 1454.1 242.15 1457.66 Q240.344 1461.2 240.344 1468.33 Q240.344 1475.44 242.15 1479.01 Q243.978 1482.55 247.59 1482.55 Q251.224 1482.55 253.029 1479.01 Q254.858 1475.44 254.858 1468.33 Q254.858 1461.2 253.029 1457.66 Q251.224 1454.1 247.59 1454.1 M247.59 1450.39 Q253.4 1450.39 256.455 1455 Q259.534 1459.58 259.534 1468.33 Q259.534 1477.06 256.455 1481.67 Q253.4 1486.25 247.59 1486.25 Q241.779 1486.25 238.701 1481.67 Q235.645 1477.06 235.645 1468.33 Q235.645 1459.58 238.701 1455 Q241.779 1450.39 247.59 1450.39 Z" fill="#000000" fill-rule="nonzero" fill-opacity="1" /><path clip-path="url(#clip300)" d="M919.255 1481.64 L926.894 1481.64 L926.894 1455.28 L918.584 1456.95 L918.584 1452.69 L926.848 1451.02 L931.524 1451.02 L931.524 1481.64 L939.162 1481.64 L939.162 1485.58 L919.255 1485.58 L919.255 1481.64 Z" fill="#000000" fill-rule="nonzero" fill-opacity="1" /><path clip-path="url(#clip300)" d="M1604.81 1481.64 L1621.13 1481.64 L1621.13 1485.58 L1599.18 1485.58 L1599.18 1481.64 Q1601.85 1478.89 1606.43 1474.26 Q1611.04 1469.61 1612.22 1468.27 Q1614.46 1465.74 1615.34 1464.01 Q1616.24 1462.25 1616.24 1460.56 Q1616.24 1457.8 1614.3 1456.07 Q1612.38 1454.33 1609.28 1454.33 Q1607.08 1454.33 1604.62 1455.09 Q1602.19 1455.86 1599.42 1457.41 L1599.42 1452.69 Q1602.24 1451.55 1604.69 1450.97 Q1607.15 1450.39 1609.18 1450.39 Q1614.55 1450.39 1617.75 1453.08 Q1620.94 1455.77 1620.94 1460.26 Q1620.94 1462.39 1620.13 1464.31 Q1619.35 1466.2 1617.24 1468.8 Q1616.66 1469.47 1613.56 1472.69 Q1610.46 1475.88 1604.81 1481.64 Z" fill="#000000" fill-rule="nonzero" fill-opacity="1" /><path clip-path="url(#clip300)" d="M2295.69 1466.95 Q2299.04 1467.66 2300.92 1469.93 Q2302.82 1472.2 2302.82 1475.53 Q2302.82 1480.65 2299.3 1483.45 Q2295.78 1486.25 2289.3 1486.25 Q2287.12 1486.25 2284.81 1485.81 Q2282.52 1485.39 2280.06 1484.54 L2280.06 1480.02 Q2282.01 1481.16 2284.32 1481.74 Q2286.64 1482.32 2289.16 1482.32 Q2293.56 1482.32 2295.85 1480.58 Q2298.16 1478.84 2298.16 1475.53 Q2298.16 1472.48 2296.01 1470.77 Q2293.88 1469.03 2290.06 1469.03 L2286.04 1469.03 L2286.04 1465.19 L2290.25 1465.19 Q2293.7 1465.19 2295.53 1463.82 Q2297.35 1462.43 2297.35 1459.84 Q2297.35 1457.18 2295.46 1455.77 Q2293.58 1454.33 2290.06 1454.33 Q2288.14 1454.33 2285.94 1454.75 Q2283.74 1455.16 2281.1 1456.04 L2281.1 1451.88 Q2283.77 1451.14 2286.08 1450.77 Q2288.42 1450.39 2290.48 1450.39 Q2295.8 1450.39 2298.91 1452.83 Q2302.01 1455.23 2302.01 1459.35 Q2302.01 1462.22 2300.36 1464.21 Q2298.72 1466.18 2295.69 1466.95 Z" fill="#000000" fill-rule="nonzero" fill-opacity="1" /><path clip-path="url(#clip300)" d="M1268.58 1522.27 L1268.58 1532.4 L1280.64 1532.4 L1280.64 1536.95 L1268.58 1536.95 L1268.58 1556.3 Q1268.58 1560.66 1269.75 1561.9 Q1270.96 1563.14 1274.62 1563.14 L1280.64 1563.14 L1280.64 1568.04 L1274.62 1568.04 Q1267.84 1568.04 1265.27 1565.53 Q1262.69 1562.98 1262.69 1556.3 L1262.69 1536.95 L1258.39 1536.95 L1258.39 1532.4 L1262.69 1532.4 L1262.69 1522.27 L1268.58 1522.27 Z" fill="#000000" fill-rule="nonzero" fill-opacity="1" /><polyline clip-path="url(#clip302)" style="stroke:#000000; stroke-linecap:round; stroke-linejoin:round; stroke-width:2; stroke-opacity:0.1; fill:none" points="186.274,1176.55 2352.76,1176.55 "/>
<polyline clip-path="url(#clip302)" style="stroke:#000000; stroke-linecap:round; stroke-linejoin:round; stroke-width:2; stroke-opacity:0.1; fill:none" points="186.274,913.604 2352.76,913.604 "/>
<polyline clip-path="url(#clip302)" style="stroke:#000000; stroke-linecap:round; stroke-linejoin:round; stroke-width:2; stroke-opacity:0.1; fill:none" points="186.274,650.66 2352.76,650.66 "/>
<polyline clip-path="url(#clip302)" style="stroke:#000000; stroke-linecap:round; stroke-linejoin:round; stroke-width:2; stroke-opacity:0.1; fill:none" points="186.274,387.716 2352.76,387.716 "/>
<polyline clip-path="url(#clip302)" style="stroke:#000000; stroke-linecap:round; stroke-linejoin:round; stroke-width:2; stroke-opacity:0.1; fill:none" points="186.274,124.771 2352.76,124.771 "/>
<polyline clip-path="url(#clip300)" style="stroke:#000000; stroke-linecap:round; stroke-linejoin:round; stroke-width:4; stroke-opacity:1; fill:none" points="186.274,1423.18 186.274,47.2441 "/>
<polyline clip-path="url(#clip300)" style="stroke:#000000; stroke-linecap:round; stroke-linejoin:round; stroke-width:4; stroke-opacity:1; fill:none" points="186.274,1176.55 205.172,1176.55 "/>
<polyline clip-path="url(#clip300)" style="stroke:#000000; stroke-linecap:round; stroke-linejoin:round; stroke-width:4; stroke-opacity:1; fill:none" points="186.274,913.604 205.172,913.604 "/>
<polyline clip-path="url(#clip300)" style="stroke:#000000; stroke-linecap:round; stroke-linejoin:round; stroke-width:4; stroke-opacity:1; fill:none" points="186.274,650.66 205.172,650.66 "/>
<polyline clip-path="url(#clip300)" style="stroke:#000000; stroke-linecap:round; stroke-linejoin:round; stroke-width:4; stroke-opacity:1; fill:none" points="186.274,387.716 205.172,387.716 "/>
<polyline clip-path="url(#clip300)" style="stroke:#000000; stroke-linecap:round; stroke-linejoin:round; stroke-width:4; stroke-opacity:1; fill:none" points="186.274,124.771 205.172,124.771 "/>
<path clip-path="url(#clip300)" d="M62.9365 1162.35 Q59.3254 1162.35 57.4967 1165.91 Q55.6912 1169.45 55.6912 1176.58 Q55.6912 1183.69 57.4967 1187.25 Q59.3254 1190.8 62.9365 1190.8 Q66.5707 1190.8 68.3763 1187.25 Q70.205 1183.69 70.205 1176.58 Q70.205 1169.45 68.3763 1165.91 Q66.5707 1162.35 62.9365 1162.35 M62.9365 1158.64 Q68.7467 1158.64 71.8022 1163.25 Q74.8809 1167.83 74.8809 1176.58 Q74.8809 1185.31 71.8022 1189.92 Q68.7467 1194.5 62.9365 1194.5 Q57.1264 1194.5 54.0477 1189.92 Q50.9921 1185.31 50.9921 1176.58 Q50.9921 1167.83 54.0477 1163.25 Q57.1264 1158.64 62.9365 1158.64 Z" fill="#000000" fill-rule="nonzero" fill-opacity="1" /><path clip-path="url(#clip300)" d="M83.0984 1187.95 L87.9827 1187.95 L87.9827 1193.83 L83.0984 1193.83 L83.0984 1187.95 Z" fill="#000000" fill-rule="nonzero" fill-opacity="1" /><path clip-path="url(#clip300)" d="M108.168 1162.35 Q104.557 1162.35 102.728 1165.91 Q100.922 1169.45 100.922 1176.58 Q100.922 1183.69 102.728 1187.25 Q104.557 1190.8 108.168 1190.8 Q111.802 1190.8 113.608 1187.25 Q115.436 1183.69 115.436 1176.58 Q115.436 1169.45 113.608 1165.91 Q111.802 1162.35 108.168 1162.35 M108.168 1158.64 Q113.978 1158.64 117.033 1163.25 Q120.112 1167.83 120.112 1176.58 Q120.112 1185.31 117.033 1189.92 Q113.978 1194.5 108.168 1194.5 Q102.358 1194.5 99.2789 1189.92 Q96.2234 1185.31 96.2234 1176.58 Q96.2234 1167.83 99.2789 1163.25 Q102.358 1158.64 108.168 1158.64 Z" fill="#000000" fill-rule="nonzero" fill-opacity="1" /><path clip-path="url(#clip300)" d="M138.33 1162.35 Q134.719 1162.35 132.89 1165.91 Q131.084 1169.45 131.084 1176.58 Q131.084 1183.69 132.89 1187.25 Q134.719 1190.8 138.33 1190.8 Q141.964 1190.8 143.769 1187.25 Q145.598 1183.69 145.598 1176.58 Q145.598 1169.45 143.769 1165.91 Q141.964 1162.35 138.33 1162.35 M138.33 1158.64 Q144.14 1158.64 147.195 1163.25 Q150.274 1167.83 150.274 1176.58 Q150.274 1185.31 147.195 1189.92 Q144.14 1194.5 138.33 1194.5 Q132.519 1194.5 129.441 1189.92 Q126.385 1185.31 126.385 1176.58 Q126.385 1167.83 129.441 1163.25 Q132.519 1158.64 138.33 1158.64 Z" fill="#000000" fill-rule="nonzero" fill-opacity="1" /><path clip-path="url(#clip300)" d="M63.9319 899.403 Q60.3208 899.403 58.4921 902.968 Q56.6865 906.51 56.6865 913.639 Q56.6865 920.746 58.4921 924.31 Q60.3208 927.852 63.9319 927.852 Q67.5661 927.852 69.3717 924.31 Q71.2004 920.746 71.2004 913.639 Q71.2004 906.51 69.3717 902.968 Q67.5661 899.403 63.9319 899.403 M63.9319 895.699 Q69.742 895.699 72.7976 900.306 Q75.8763 904.889 75.8763 913.639 Q75.8763 922.366 72.7976 926.972 Q69.742 931.556 63.9319 931.556 Q58.1217 931.556 55.043 926.972 Q51.9875 922.366 51.9875 913.639 Q51.9875 904.889 55.043 900.306 Q58.1217 895.699 63.9319 895.699 Z" fill="#000000" fill-rule="nonzero" fill-opacity="1" /><path clip-path="url(#clip300)" d="M84.0938 925.005 L88.978 925.005 L88.978 930.884 L84.0938 930.884 L84.0938 925.005 Z" fill="#000000" fill-rule="nonzero" fill-opacity="1" /><path clip-path="url(#clip300)" d="M109.163 899.403 Q105.552 899.403 103.723 902.968 Q101.918 906.51 101.918 913.639 Q101.918 920.746 103.723 924.31 Q105.552 927.852 109.163 927.852 Q112.797 927.852 114.603 924.31 Q116.432 920.746 116.432 913.639 Q116.432 906.51 114.603 902.968 Q112.797 899.403 109.163 899.403 M109.163 895.699 Q114.973 895.699 118.029 900.306 Q121.107 904.889 121.107 913.639 Q121.107 922.366 118.029 926.972 Q114.973 931.556 109.163 931.556 Q103.353 931.556 100.274 926.972 Q97.2187 922.366 97.2187 913.639 Q97.2187 904.889 100.274 900.306 Q103.353 895.699 109.163 895.699 Z" fill="#000000" fill-rule="nonzero" fill-opacity="1" /><path clip-path="url(#clip300)" d="M129.371 896.324 L147.728 896.324 L147.728 900.26 L133.654 900.26 L133.654 908.732 Q134.672 908.385 135.691 908.223 Q136.709 908.037 137.728 908.037 Q143.515 908.037 146.894 911.209 Q150.274 914.38 150.274 919.797 Q150.274 925.375 146.802 928.477 Q143.33 931.556 137.01 931.556 Q134.834 931.556 132.566 931.185 Q130.32 930.815 127.913 930.074 L127.913 925.375 Q129.996 926.509 132.219 927.065 Q134.441 927.621 136.918 927.621 Q140.922 927.621 143.26 925.514 Q145.598 923.408 145.598 919.797 Q145.598 916.185 143.26 914.079 Q140.922 911.973 136.918 911.973 Q135.043 911.973 133.168 912.389 Q131.316 912.806 129.371 913.685 L129.371 896.324 Z" fill="#000000" fill-rule="nonzero" fill-opacity="1" /><path clip-path="url(#clip300)" d="M62.9365 636.459 Q59.3254 636.459 57.4967 640.024 Q55.6912 643.565 55.6912 650.695 Q55.6912 657.801 57.4967 661.366 Q59.3254 664.908 62.9365 664.908 Q66.5707 664.908 68.3763 661.366 Q70.205 657.801 70.205 650.695 Q70.205 643.565 68.3763 640.024 Q66.5707 636.459 62.9365 636.459 M62.9365 632.755 Q68.7467 632.755 71.8022 637.361 Q74.8809 641.945 74.8809 650.695 Q74.8809 659.422 71.8022 664.028 Q68.7467 668.611 62.9365 668.611 Q57.1264 668.611 54.0477 664.028 Q50.9921 659.422 50.9921 650.695 Q50.9921 641.945 54.0477 637.361 Q57.1264 632.755 62.9365 632.755 Z" fill="#000000" fill-rule="nonzero" fill-opacity="1" /><path clip-path="url(#clip300)" d="M83.0984 662.06 L87.9827 662.06 L87.9827 667.94 L83.0984 667.94 L83.0984 662.06 Z" fill="#000000" fill-rule="nonzero" fill-opacity="1" /><path clip-path="url(#clip300)" d="M98.978 664.005 L106.617 664.005 L106.617 637.639 L98.3067 639.306 L98.3067 635.047 L106.571 633.38 L111.246 633.38 L111.246 664.005 L118.885 664.005 L118.885 667.94 L98.978 667.94 L98.978 664.005 Z" fill="#000000" fill-rule="nonzero" fill-opacity="1" /><path clip-path="url(#clip300)" d="M138.33 636.459 Q134.719 636.459 132.89 640.024 Q131.084 643.565 131.084 650.695 Q131.084 657.801 132.89 661.366 Q134.719 664.908 138.33 664.908 Q141.964 664.908 143.769 661.366 Q145.598 657.801 145.598 650.695 Q145.598 643.565 143.769 640.024 Q141.964 636.459 138.33 636.459 M138.33 632.755 Q144.14 632.755 147.195 637.361 Q150.274 641.945 150.274 650.695 Q150.274 659.422 147.195 664.028 Q144.14 668.611 138.33 668.611 Q132.519 668.611 129.441 664.028 Q126.385 659.422 126.385 650.695 Q126.385 641.945 129.441 637.361 Q132.519 632.755 138.33 632.755 Z" fill="#000000" fill-rule="nonzero" fill-opacity="1" /><path clip-path="url(#clip300)" d="M63.9319 373.514 Q60.3208 373.514 58.4921 377.079 Q56.6865 380.621 56.6865 387.75 Q56.6865 394.857 58.4921 398.422 Q60.3208 401.963 63.9319 401.963 Q67.5661 401.963 69.3717 398.422 Q71.2004 394.857 71.2004 387.75 Q71.2004 380.621 69.3717 377.079 Q67.5661 373.514 63.9319 373.514 M63.9319 369.811 Q69.742 369.811 72.7976 374.417 Q75.8763 379 75.8763 387.75 Q75.8763 396.477 72.7976 401.084 Q69.742 405.667 63.9319 405.667 Q58.1217 405.667 55.043 401.084 Q51.9875 396.477 51.9875 387.75 Q51.9875 379 55.043 374.417 Q58.1217 369.811 63.9319 369.811 Z" fill="#000000" fill-rule="nonzero" fill-opacity="1" /><path clip-path="url(#clip300)" d="M84.0938 399.116 L88.978 399.116 L88.978 404.996 L84.0938 404.996 L84.0938 399.116 Z" fill="#000000" fill-rule="nonzero" fill-opacity="1" /><path clip-path="url(#clip300)" d="M99.9733 401.06 L107.612 401.06 L107.612 374.695 L99.3021 376.361 L99.3021 372.102 L107.566 370.436 L112.242 370.436 L112.242 401.06 L119.881 401.06 L119.881 404.996 L99.9733 404.996 L99.9733 401.06 Z" fill="#000000" fill-rule="nonzero" fill-opacity="1" /><path clip-path="url(#clip300)" d="M129.371 370.436 L147.728 370.436 L147.728 374.371 L133.654 374.371 L133.654 382.843 Q134.672 382.496 135.691 382.334 Q136.709 382.148 137.728 382.148 Q143.515 382.148 146.894 385.32 Q150.274 388.491 150.274 393.908 Q150.274 399.486 146.802 402.588 Q143.33 405.667 137.01 405.667 Q134.834 405.667 132.566 405.297 Q130.32 404.926 127.913 404.185 L127.913 399.486 Q129.996 400.621 132.219 401.176 Q134.441 401.732 136.918 401.732 Q140.922 401.732 143.26 399.625 Q145.598 397.519 145.598 393.908 Q145.598 390.297 143.26 388.19 Q140.922 386.084 136.918 386.084 Q135.043 386.084 133.168 386.5 Q131.316 386.917 129.371 387.797 L129.371 370.436 Z" fill="#000000" fill-rule="nonzero" fill-opacity="1" /><path clip-path="url(#clip300)" d="M62.9365 110.57 Q59.3254 110.57 57.4967 114.135 Q55.6912 117.676 55.6912 124.806 Q55.6912 131.912 57.4967 135.477 Q59.3254 139.019 62.9365 139.019 Q66.5707 139.019 68.3763 135.477 Q70.205 131.912 70.205 124.806 Q70.205 117.676 68.3763 114.135 Q66.5707 110.57 62.9365 110.57 M62.9365 106.866 Q68.7467 106.866 71.8022 111.473 Q74.8809 116.056 74.8809 124.806 Q74.8809 133.533 71.8022 138.139 Q68.7467 142.722 62.9365 142.722 Q57.1264 142.722 54.0477 138.139 Q50.9921 133.533 50.9921 124.806 Q50.9921 116.056 54.0477 111.473 Q57.1264 106.866 62.9365 106.866 Z" fill="#000000" fill-rule="nonzero" fill-opacity="1" /><path clip-path="url(#clip300)" d="M83.0984 136.172 L87.9827 136.172 L87.9827 142.051 L83.0984 142.051 L83.0984 136.172 Z" fill="#000000" fill-rule="nonzero" fill-opacity="1" /><path clip-path="url(#clip300)" d="M102.196 138.116 L118.515 138.116 L118.515 142.051 L96.5706 142.051 L96.5706 138.116 Q99.2326 135.361 103.816 130.732 Q108.422 126.079 109.603 124.736 Q111.848 122.213 112.728 120.477 Q113.631 118.718 113.631 117.028 Q113.631 114.274 111.686 112.537 Q109.765 110.801 106.663 110.801 Q104.464 110.801 102.01 111.565 Q99.5798 112.329 96.8021 113.88 L96.8021 109.158 Q99.6261 108.024 102.08 107.445 Q104.534 106.866 106.571 106.866 Q111.941 106.866 115.135 109.551 Q118.33 112.236 118.33 116.727 Q118.33 118.857 117.52 120.778 Q116.733 122.676 114.626 125.269 Q114.047 125.94 110.946 129.158 Q107.844 132.352 102.196 138.116 Z" fill="#000000" fill-rule="nonzero" fill-opacity="1" /><path clip-path="url(#clip300)" d="M138.33 110.57 Q134.719 110.57 132.89 114.135 Q131.084 117.676 131.084 124.806 Q131.084 131.912 132.89 135.477 Q134.719 139.019 138.33 139.019 Q141.964 139.019 143.769 135.477 Q145.598 131.912 145.598 124.806 Q145.598 117.676 143.769 114.135 Q141.964 110.57 138.33 110.57 M138.33 106.866 Q144.14 106.866 147.195 111.473 Q150.274 116.056 150.274 124.806 Q150.274 133.533 147.195 138.139 Q144.14 142.722 138.33 142.722 Q132.519 142.722 129.441 138.139 Q126.385 133.533 126.385 124.806 Q126.385 116.056 129.441 111.473 Q132.519 106.866 138.33 106.866 Z" fill="#000000" fill-rule="nonzero" fill-opacity="1" /><polyline clip-path="url(#clip302)" style="stroke:#009af9; stroke-linecap:round; stroke-linejoin:round; stroke-width:4; stroke-opacity:1; fill:none" points="247.59,1176.55 254.402,1176.48 261.215,1176.76 268.028,1177.09 274.841,1176.43 281.654,1177.73 288.467,1178.75 295.279,1179.39 302.092,1179.76 308.905,1179.6 315.718,1179.42 322.531,1179.44 329.344,1180.69 336.156,1182.76 342.969,1184.41 349.782,1185.6 356.595,1186.46 363.408,1187.48 370.221,1187.93 377.033,1188.67 383.846,1188.97 390.659,1188.98 397.472,1188.92 404.285,1188.66 411.098,1188.84 417.91,1189.29 424.723,1190.44 431.536,1191.45 438.349,1192.85 445.162,1194.41 451.975,1195.44 458.787,1195.75 465.6,1196.66 472.413,1197.59 479.226,1198.04 486.039,1198.68 492.852,1199.64 499.664,1200.09 506.477,1199.5 513.29,1199.4 520.103,1198.41 526.916,1197.86 533.729,1197.07 540.541,1196.3 547.354,1195.71 554.167,1195.47 560.98,1195.86 567.793,1195.53 574.606,1194.96 581.418,1194.34 588.231,1193.13 595.044,1191.36 601.857,1189.74 608.67,1187.92 615.483,1186.81 622.296,1185.57 629.108,1183.07 635.921,1180.24 642.734,1177.53 649.547,1175.7 656.36,1174.42 663.173,1173.88 669.985,1173.22 676.798,1172.27 683.611,1170.86 690.424,1169.39 697.237,1168.08 704.05,1166.99 710.862,1165.68 717.675,1164.88 724.488,1164.55 731.301,1163.61 738.114,1162.11 744.927,1160.64 751.739,1159.29 758.552,1157.39 765.365,1155.73 772.178,1153.37 778.991,1150.69 785.804,1146.97 792.616,1143.91 799.429,1141.01 806.242,1138.47 813.055,1134.89 819.868,1131.37 826.681,1127.15 833.493,1122.85 840.306,1118.76 847.119,1115.12 853.932,1112.13 860.745,1109.59 867.558,1107.06 874.37,1103.28 881.183,1100.42 887.996,1097.82 894.809,1096.26 901.622,1095.11 908.435,1094.76 915.247,1094.21 922.06,1093.86 928.873,1092.69 935.686,1091.22 942.499,1090.14 949.312,1090.53 956.124,1090.2 962.937,1089.8 969.75,1089.75 976.563,1089.73 983.376,1090.21 990.189,1090.57 997.002,1091.17 1003.81,1092.32 1010.63,1092.76 1017.44,1092.62 1024.25,1092.04 1031.07,1091.47 1037.88,1090.64 1044.69,1089.24 1051.5,1087.93 1058.32,1086.8 1065.13,1085.52 1071.94,1084.93 1078.76,1084.32 1085.57,1083.2 1092.38,1081.9 1099.19,1080.3 1106.01,1078.68 1112.82,1077.14 1119.63,1075.7 1126.45,1073.77 1133.26,1071.25 1140.07,1068.33 1146.88,1065.52 1153.7,1062.51 1160.51,1059.89 1167.32,1058 1174.14,1056.16 1180.95,1054.93 1187.76,1054.48 1194.57,1053.89 1201.39,1053.4 1208.2,1052.77 1215.01,1051.88 1221.83,1051.06 1228.64,1050.13 1235.45,1049.01 1242.26,1047.67 1249.08,1046.63 1255.89,1045.8 1262.7,1044.79 1269.51,1044.15 1276.33,1042.85 1283.14,1040.78 1289.95,1038.26 1296.77,1035.19 1303.58,1032.22 1310.39,1028.96 1317.2,1025.25 1324.02,1021.25 1330.83,1016.83 1337.64,1013.18 1344.46,1009.29 1351.27,1005.59 1358.08,1002.69 1364.89,1000.1 1371.71,997.154 1378.52,994.939 1385.33,992.155 1392.15,989.444 1398.96,986.649 1405.77,982.874 1412.58,979.478 1419.4,976.085 1426.21,972.714 1433.02,969.327 1439.84,965.904 1446.65,962.416 1453.46,958.784 1460.27,955.127 1467.09,950.713 1473.9,946.786 1480.71,942.591 1487.53,938.676 1494.34,934.305 1501.15,929.519 1507.96,924.885 1514.78,919.932 1521.59,915.098 1528.4,910.715 1535.22,906.172 1542.03,901.19 1548.84,896.058 1555.65,891.148 1562.47,886.629 1569.28,882.491 1576.09,878.498 1582.91,874.059 1589.72,869.534 1596.53,865.486 1603.34,861.635 1610.16,858.055 1616.97,854.225 1623.78,850.54 1630.6,846.662 1637.41,842.06 1644.22,837.433 1651.03,833.537 1657.85,828.876 1664.66,823.654 1671.47,818.503 1678.29,812.285 1685.1,805.363 1691.91,798.488 1698.72,791.579 1705.54,785.504 1712.35,780.035 1719.16,774.446 1725.97,769.22 1732.79,764.172 1739.6,759.53 1746.41,755.87 1753.23,751.601 1760.04,747.815 1766.85,744.396 1773.66,741.136 1780.48,737.038 1787.29,732.985 1794.1,729.927 1800.92,727.047 1807.73,724.142 1814.54,721.077 1821.35,718.095 1828.17,715.423 1834.98,712.312 1841.79,709.11 1848.61,706.138 1855.42,702.375 1862.23,698.315 1869.04,694.457 1875.86,689.574 1882.67,683.687 1889.48,677.221 1896.3,670.448 1903.11,663.364 1909.92,655.748 1916.73,646.982 1923.55,637.674 1930.36,628.025 1937.17,618.342 1943.99,607.438 1950.8,596.771 1957.61,586.015 1964.42,575.474 1971.24,564.715 1978.05,554.314 1984.86,544.22 1991.68,534.186 1998.49,524.842 2005.3,515.672 2012.11,506.337 2018.93,497.176 2025.74,488.305 2032.55,479.692 2039.37,471.849 2046.18,464.203 2052.99,456.519 2059.8,449.404 2066.62,443.491 2073.43,437.797 2080.24,432.487 2087.06,426.582 2093.87,420.379 2100.68,414.336 2107.49,408.304 2114.31,402.049 2121.12,396.018 2127.93,390.588 2134.75,384.268 2141.56,378.782 2148.37,373.765 2155.18,368.865 2162,363.703 2168.81,358.519 2175.62,353.03 2182.44,347.961 2189.25,343.664 2196.06,337.951 2202.87,332.011 2209.69,326.134 2216.5,320.474 2223.31,315.165 2230.12,309.647 2236.94,303.936 2243.75,298.025 2250.56,292.229 2257.38,286.901 2264.19,282.222 2271,276.815 2277.81,271.738 2284.63,266.07 2291.44,259.727 "/>
<polyline clip-path="url(#clip302)" style="stroke:#e26f46; stroke-linecap:round; stroke-linejoin:round; stroke-width:4; stroke-opacity:1; fill:none" points="247.59,1169.26 254.402,1205.35 261.215,1209.15 268.028,1110.54 274.841,1306.27 281.654,1278.69 288.467,1241.18 295.279,1213.19 302.092,1160.76 308.905,1158.66 315.718,1178.3 322.531,1301.11 329.344,1384.24 336.156,1340.71 342.969,1295.88 349.782,1262.16 356.595,1278.74 363.408,1221.48 370.221,1250.4 377.033,1207.16 383.846,1177.57 390.659,1170.33 397.472,1150.92 404.285,1194 411.098,1221.57 417.91,1291.73 424.723,1277.09 431.536,1317.2 438.349,1332.68 445.162,1279.1 451.975,1208.09 458.787,1266.88 465.6,1270.02 472.413,1221.06 479.226,1240.49 486.039,1272.4 492.852,1222.38 499.664,1117.62 506.477,1165.68 513.29,1077.66 520.103,1121.92 526.916,1097.81 533.729,1099.15 540.541,1117.55 547.354,1153.02 554.167,1214.72 560.98,1143.58 567.793,1119.84 574.606,1114.85 581.418,1055.04 588.231,999.544 595.044,1014.93 601.857,994.342 608.67,1065.86 615.483,1052.36 622.296,926.871 629.108,893.528 635.921,905.057 642.734,994.128 649.547,1048.43 656.36,1122.04 663.173,1111.27 669.985,1081.11 676.798,1035.79 683.611,1029.32 690.424,1045.93 697.237,1067.64 704.05,1044.77 710.862,1096.74 717.675,1143.19 724.488,1082.99 731.301,1026.62 738.114,1029.06 744.927,1041.8 751.739,986.845 758.552,1010.56 765.365,940.297 772.178,908.863 778.991,804.672 785.804,870.029 792.616,886.794 799.429,922.964 806.242,818.102 813.055,824.846 819.868,754.48 826.681,746.376 833.493,767.977 840.306,812.37 847.119,876.796 853.932,923.222 860.745,923.274 867.558,798.975 874.37,890.531 881.183,916.026 887.996,1020.45 894.809,1061.94 901.622,1141.69 908.435,1120.84 915.247,1141.84 922.06,1059.7 928.873,1029.98 935.686,1067.81 942.499,1215.49 949.312,1143.43 956.124,1136.86 962.937,1171.52 969.75,1175.02 976.563,1223.8 983.376,1212.76 990.189,1236.34 997.002,1291.68 1003.81,1221.12 1010.63,1162.57 1017.44,1118.23 1024.25,1119.48 1031.07,1093.28 1037.88,1036.87 1044.69,1045.37 1051.5,1064.08 1058.32,1048.37 1065.13,1117.76 1071.94,1115.06 1078.76,1064.38 1085.57,1047.04 1092.38,1015.96 1099.19,1015.2 1106.01,1022.6 1112.82,1031.87 1119.63,984.238 1126.45,924.714 1133.26,884.412 1140.07,894.749 1146.88,875.835 1153.7,915.11 1160.51,987.086 1167.32,992.995 1174.14,1053.24 1180.95,1131.81 1187.76,1117.72 1194.57,1127.16 1201.39,1113.49 1208.2,1087.69 1215.01,1094.83 1221.83,1083.37 1228.64,1064.33 1235.45,1042.8 1242.26,1072.21 1249.08,1093.91 1255.89,1075.31 1262.7,1111.95 1269.51,1047.18 1276.33,969.755 1283.14,924.699 1289.95,868.582 1296.77,879.747 1303.58,850.389 1310.39,805.908 1317.2,777.084 1324.02,734.149 1330.83,811.765 1337.64,787.587 1344.46,806.616 1351.27,886.252 1358.08,917.514 1364.89,881.902 1371.71,955.088 1378.52,898.11 1385.33,905.461 1392.15,897.047 1398.96,799.038 1405.77,836.957 1412.58,837.294 1419.4,839.448 1426.21,837.763 1433.02,834.277 1439.84,827.742 1446.65,813.366 1453.46,810.841 1460.27,735.13 1467.09,783.83 1473.9,757.107 1480.71,785.058 1487.53,739.438 1494.34,697.913 1501.15,713.158 1507.96,681.314 1514.78,693.087 1521.59,738.224 1528.4,722.254 1535.22,678.367 1542.03,663.402 1548.84,685.558 1555.65,724.586 1562.47,762.751 1569.28,777.239 1576.09,732.718 1582.91,724.01 1589.72,771.773 1596.53,791.372 1603.34,818.603 1610.16,793.542 1616.97,808.044 1623.78,788.739 1630.6,716.393 1637.41,713.817 1644.22,786.967 1651.03,710.388 1657.85,654.358 1664.66,661.493 1671.47,554.746 1678.29,484.377 1685.1,489.023 1691.91,485.598 1698.72,569.086 1705.54,629.665 1712.35,617.61 1719.16,654.015 1725.97,671.725 1732.79,712.31 1739.6,810.525 1746.41,749.679 1753.23,797.946 1760.04,834.654 1766.85,850.568 1773.66,766.767 1780.48,771.202 1787.29,870.785 1794.1,888.572 1800.92,886.021 1807.73,870.045 1814.54,878.311 1821.35,909.345 1828.17,865.457 1834.98,856.349 1841.79,879.378 1848.61,800.287 1855.42,770.508 1862.23,790.709 1869.04,688.277 1875.86,587.888 1882.67,529.926 1889.48,499.222 1896.3,468.155 1903.11,414.986 1909.92,299.912 1916.73,245.82 1923.55,211.585 1930.36,208.248 1937.17,86.1857 1943.99,109.833 1950.8,100.899 1957.61,122.474 1964.42,100.685 1971.24,136.467 1978.05,167.11 1984.86,173.114 1991.68,242.227 1998.49,259.495 2005.3,243.035 2012.11,260.489 2018.93,289.484 2025.74,315.235 2032.55,392.181 2039.37,412.022 2046.18,408.065 2052.99,465.046 2059.8,585.288 2066.62,607.176 2073.43,645.495 2080.24,586.069 2087.06,556.25 2093.87,572.267 2100.68,573.374 2107.49,551.048 2114.31,573.394 2121.12,633.59 2127.93,544.577 2134.75,627.907 2141.56,674.812 2148.37,686.55 2155.18,660.429 2162,658.087 2168.81,627.683 2175.62,669.682 2182.44,746.761 2189.25,605.277 2196.06,582.565 2202.87,588.852 2209.69,610.49 2216.5,645.74 2223.31,624.695 2230.12,605.453 2236.94,585.491 2243.75,596.943 2250.56,643.695 2257.38,708.69 2264.19,635.841 2271,668.832 2277.81,609.735 2284.63,542.304 2291.44,465.416 "/>
<path clip-path="url(#clip300)" d="M258.49 248.629 L700.716 248.629 L700.716 93.1086 L258.49 93.1086  Z" fill="#ffffff" fill-rule="evenodd" fill-opacity="1"/>
<polyline clip-path="url(#clip300)" style="stroke:#000000; stroke-linecap:round; stroke-linejoin:round; stroke-width:4; stroke-opacity:1; fill:none" points="258.49,248.629 700.716,248.629 700.716,93.1086 258.49,93.1086 258.49,248.629 "/>
<polyline clip-path="url(#clip300)" style="stroke:#009af9; stroke-linecap:round; stroke-linejoin:round; stroke-width:4; stroke-opacity:1; fill:none" points="282.562,144.949 426.994,144.949 "/>
<path clip-path="url(#clip300)" d="M464.909 164.636 Q463.103 169.266 461.39 170.678 Q459.677 172.09 456.807 172.09 L453.404 172.09 L453.404 168.525 L455.904 168.525 Q457.663 168.525 458.636 167.692 Q459.608 166.858 460.788 163.756 L461.552 161.812 L451.066 136.303 L455.58 136.303 L463.682 156.581 L471.784 136.303 L476.298 136.303 L464.909 164.636 Z" fill="#000000" fill-rule="nonzero" fill-opacity="1" /><path clip-path="url(#clip300)" d="M501.367 158.34 L501.367 172.09 L497.085 172.09 L497.085 136.303 L501.367 136.303 L501.367 140.238 Q502.709 137.923 504.747 136.812 Q506.807 135.678 509.654 135.678 Q514.376 135.678 517.316 139.428 Q520.279 143.178 520.279 149.289 Q520.279 155.4 517.316 159.15 Q514.376 162.9 509.654 162.9 Q506.807 162.9 504.747 161.789 Q502.709 160.655 501.367 158.34 M515.858 149.289 Q515.858 144.59 513.913 141.928 Q511.992 139.243 508.612 139.243 Q505.233 139.243 503.288 141.928 Q501.367 144.59 501.367 149.289 Q501.367 153.988 503.288 156.673 Q505.233 159.335 508.612 159.335 Q511.992 159.335 513.913 156.673 Q515.858 153.988 515.858 149.289 Z" fill="#000000" fill-rule="nonzero" fill-opacity="1" /><path clip-path="url(#clip300)" d="M537.385 139.289 Q533.959 139.289 531.969 141.974 Q529.978 144.636 529.978 149.289 Q529.978 153.942 531.945 156.627 Q533.936 159.289 537.385 159.289 Q540.788 159.289 542.779 156.604 Q544.769 153.918 544.769 149.289 Q544.769 144.682 542.779 141.997 Q540.788 139.289 537.385 139.289 M537.385 135.678 Q542.941 135.678 546.112 139.289 Q549.283 142.9 549.283 149.289 Q549.283 155.655 546.112 159.289 Q542.941 162.9 537.385 162.9 Q531.807 162.9 528.635 159.289 Q525.487 155.655 525.487 149.289 Q525.487 142.9 528.635 139.289 Q531.807 135.678 537.385 135.678 Z" fill="#000000" fill-rule="nonzero" fill-opacity="1" /><path clip-path="url(#clip300)" d="M572.871 137.067 L572.871 141.094 Q571.066 140.169 569.121 139.706 Q567.177 139.243 565.093 139.243 Q561.922 139.243 560.325 140.215 Q558.751 141.187 558.751 143.131 Q558.751 144.613 559.885 145.469 Q561.019 146.303 564.445 147.067 L565.904 147.391 Q570.441 148.363 572.339 150.145 Q574.26 151.905 574.26 155.076 Q574.26 158.687 571.39 160.793 Q568.542 162.9 563.542 162.9 Q561.459 162.9 559.191 162.483 Q556.945 162.09 554.445 161.28 L554.445 156.881 Q556.806 158.108 559.098 158.733 Q561.39 159.335 563.635 159.335 Q566.644 159.335 568.265 158.317 Q569.885 157.275 569.885 155.4 Q569.885 153.664 568.704 152.738 Q567.547 151.812 563.589 150.956 L562.107 150.608 Q558.149 149.775 556.39 148.062 Q554.63 146.326 554.63 143.317 Q554.63 139.659 557.223 137.669 Q559.816 135.678 564.584 135.678 Q566.945 135.678 569.029 136.025 Q571.112 136.372 572.871 137.067 Z" fill="#000000" fill-rule="nonzero" fill-opacity="1" /><path clip-path="url(#clip300)" d="M581.042 136.303 L585.302 136.303 L585.302 162.229 L581.042 162.229 L581.042 136.303 M581.042 126.21 L585.302 126.21 L585.302 131.604 L581.042 131.604 L581.042 126.21 Z" fill="#000000" fill-rule="nonzero" fill-opacity="1" /><path clip-path="url(#clip300)" d="M598.427 128.942 L598.427 136.303 L607.2 136.303 L607.2 139.613 L598.427 139.613 L598.427 153.687 Q598.427 156.858 599.283 157.761 Q600.163 158.664 602.825 158.664 L607.2 158.664 L607.2 162.229 L602.825 162.229 Q597.894 162.229 596.019 160.4 Q594.144 158.548 594.144 153.687 L594.144 139.613 L591.019 139.613 L591.019 136.303 L594.144 136.303 L594.144 128.942 L598.427 128.942 Z" fill="#000000" fill-rule="nonzero" fill-opacity="1" /><path clip-path="url(#clip300)" d="M612.801 136.303 L617.061 136.303 L617.061 162.229 L612.801 162.229 L612.801 136.303 M612.801 126.21 L617.061 126.21 L617.061 131.604 L612.801 131.604 L612.801 126.21 Z" fill="#000000" fill-rule="nonzero" fill-opacity="1" /><path clip-path="url(#clip300)" d="M636.019 139.289 Q632.593 139.289 630.602 141.974 Q628.612 144.636 628.612 149.289 Q628.612 153.942 630.579 156.627 Q632.57 159.289 636.019 159.289 Q639.422 159.289 641.412 156.604 Q643.403 153.918 643.403 149.289 Q643.403 144.682 641.412 141.997 Q639.422 139.289 636.019 139.289 M636.019 135.678 Q641.574 135.678 644.746 139.289 Q647.917 142.9 647.917 149.289 Q647.917 155.655 644.746 159.289 Q641.574 162.9 636.019 162.9 Q630.44 162.9 627.269 159.289 Q624.121 155.655 624.121 149.289 Q624.121 142.9 627.269 139.289 Q630.44 135.678 636.019 135.678 Z" fill="#000000" fill-rule="nonzero" fill-opacity="1" /><path clip-path="url(#clip300)" d="M676.528 146.581 L676.528 162.229 L672.269 162.229 L672.269 146.719 Q672.269 143.039 670.834 141.21 Q669.398 139.382 666.528 139.382 Q663.079 139.382 661.088 141.581 Q659.098 143.78 659.098 147.576 L659.098 162.229 L654.815 162.229 L654.815 136.303 L659.098 136.303 L659.098 140.331 Q660.625 137.993 662.685 136.835 Q664.769 135.678 667.477 135.678 Q671.945 135.678 674.236 138.456 Q676.528 141.21 676.528 146.581 Z" fill="#000000" fill-rule="nonzero" fill-opacity="1" /><polyline clip-path="url(#clip300)" style="stroke:#e26f46; stroke-linecap:round; stroke-linejoin:round; stroke-width:4; stroke-opacity:1; fill:none" points="282.562,196.789 426.994,196.789 "/>
<path clip-path="url(#clip300)" d="M464.909 216.476 Q463.103 221.106 461.39 222.518 Q459.677 223.93 456.807 223.93 L453.404 223.93 L453.404 220.365 L455.904 220.365 Q457.663 220.365 458.636 219.532 Q459.608 218.698 460.788 215.596 L461.552 213.652 L451.066 188.143 L455.58 188.143 L463.682 208.421 L471.784 188.143 L476.298 188.143 L464.909 216.476 Z" fill="#000000" fill-rule="nonzero" fill-opacity="1" /><path clip-path="url(#clip300)" d="M494.191 188.143 L498.705 188.143 L506.807 209.902 L514.908 188.143 L519.422 188.143 L509.7 214.069 L503.913 214.069 L494.191 188.143 Z" fill="#000000" fill-rule="nonzero" fill-opacity="1" /><path clip-path="url(#clip300)" d="M547.478 200.041 L547.478 202.124 L527.895 202.124 Q528.172 206.522 530.533 208.837 Q532.918 211.129 537.154 211.129 Q539.607 211.129 541.899 210.527 Q544.214 209.925 546.482 208.721 L546.482 212.749 Q544.191 213.721 541.783 214.231 Q539.376 214.74 536.899 214.74 Q530.695 214.74 527.061 211.129 Q523.45 207.518 523.45 201.36 Q523.45 194.995 526.876 191.268 Q530.325 187.518 536.158 187.518 Q541.39 187.518 544.422 190.897 Q547.478 194.254 547.478 200.041 M543.219 198.791 Q543.172 195.296 541.251 193.212 Q539.353 191.129 536.205 191.129 Q532.64 191.129 530.487 193.143 Q528.357 195.157 528.033 198.814 L543.219 198.791 Z" fill="#000000" fill-rule="nonzero" fill-opacity="1" /><path clip-path="url(#clip300)" d="M554.468 178.05 L558.728 178.05 L558.728 214.069 L554.468 214.069 L554.468 178.05 Z" fill="#000000" fill-rule="nonzero" fill-opacity="1" /><path clip-path="url(#clip300)" d="M577.686 191.129 Q574.26 191.129 572.269 193.814 Q570.279 196.476 570.279 201.129 Q570.279 205.782 572.246 208.467 Q574.237 211.129 577.686 211.129 Q581.089 211.129 583.079 208.444 Q585.07 205.758 585.07 201.129 Q585.07 196.522 583.079 193.837 Q581.089 191.129 577.686 191.129 M577.686 187.518 Q583.241 187.518 586.413 191.129 Q589.584 194.74 589.584 201.129 Q589.584 207.495 586.413 211.129 Q583.241 214.74 577.686 214.74 Q572.107 214.74 568.936 211.129 Q565.788 207.495 565.788 201.129 Q565.788 194.74 568.936 191.129 Q572.107 187.518 577.686 187.518 Z" fill="#000000" fill-rule="nonzero" fill-opacity="1" /><path clip-path="url(#clip300)" d="M615.301 189.138 L615.301 193.12 Q613.496 192.124 611.667 191.638 Q609.862 191.129 608.01 191.129 Q603.866 191.129 601.575 193.768 Q599.283 196.384 599.283 201.129 Q599.283 205.874 601.575 208.513 Q603.866 211.129 608.01 211.129 Q609.862 211.129 611.667 210.643 Q613.496 210.133 615.301 209.138 L615.301 213.073 Q613.519 213.907 611.598 214.323 Q609.7 214.74 607.547 214.74 Q601.69 214.74 598.241 211.059 Q594.792 207.379 594.792 201.129 Q594.792 194.786 598.265 191.152 Q601.76 187.518 607.825 187.518 Q609.792 187.518 611.667 187.935 Q613.542 188.328 615.301 189.138 Z" fill="#000000" fill-rule="nonzero" fill-opacity="1" /><path clip-path="url(#clip300)" d="M622.709 188.143 L626.968 188.143 L626.968 214.069 L622.709 214.069 L622.709 188.143 M622.709 178.05 L626.968 178.05 L626.968 183.444 L622.709 183.444 L622.709 178.05 Z" fill="#000000" fill-rule="nonzero" fill-opacity="1" /><path clip-path="url(#clip300)" d="M640.093 180.782 L640.093 188.143 L648.866 188.143 L648.866 191.453 L640.093 191.453 L640.093 205.527 Q640.093 208.698 640.949 209.601 Q641.829 210.504 644.491 210.504 L648.866 210.504 L648.866 214.069 L644.491 214.069 Q639.561 214.069 637.686 212.24 Q635.811 210.388 635.811 205.527 L635.811 191.453 L632.686 191.453 L632.686 188.143 L635.811 188.143 L635.811 180.782 L640.093 180.782 Z" fill="#000000" fill-rule="nonzero" fill-opacity="1" /><path clip-path="url(#clip300)" d="M665.255 216.476 Q663.449 221.106 661.736 222.518 Q660.023 223.93 657.153 223.93 L653.75 223.93 L653.75 220.365 L656.25 220.365 Q658.01 220.365 658.982 219.532 Q659.954 218.698 661.135 215.596 L661.898 213.652 L651.412 188.143 L655.926 188.143 L664.028 208.421 L672.13 188.143 L676.644 188.143 L665.255 216.476 Z" fill="#000000" fill-rule="nonzero" fill-opacity="1" /></svg>
