<?xml version="1.0" encoding="utf-8"?>
<svg xmlns="http://www.w3.org/2000/svg" xmlns:xlink="http://www.w3.org/1999/xlink" width="600" height="400" viewBox="0 0 2400 1600">
<defs>
  <clipPath id="clip160">
    <rect x="0" y="0" width="2400" height="1600"/>
  </clipPath>
</defs>
<path clip-path="url(#clip160)" d="M0 1600 L2400 1600 L2400 0 L0 0  Z" fill="#ffffff" fill-rule="evenodd" fill-opacity="1"/>
<defs>
  <clipPath id="clip161">
    <rect x="480" y="0" width="1681" height="1600"/>
  </clipPath>
</defs>
<path clip-path="url(#clip160)" d="M224.098 1423.18 L2352.76 1423.18 L2352.76 47.2441 L224.098 47.2441  Z" fill="#ffffff" fill-rule="evenodd" fill-opacity="1"/>
<defs>
  <clipPath id="clip162">
    <rect x="224" y="47" width="2130" height="1377"/>
  </clipPath>
</defs>
<polyline clip-path="url(#clip162)" style="stroke:#000000; stroke-linecap:round; stroke-linejoin:round; stroke-width:2; stroke-opacity:0.1; fill:none" points="284.343,1423.18 284.343,47.2441 "/>
<polyline clip-path="url(#clip162)" style="stroke:#000000; stroke-linecap:round; stroke-linejoin:round; stroke-width:2; stroke-opacity:0.1; fill:none" points="953.732,1423.18 953.732,47.2441 "/>
<polyline clip-path="url(#clip162)" style="stroke:#000000; stroke-linecap:round; stroke-linejoin:round; stroke-width:2; stroke-opacity:0.1; fill:none" points="1623.12,1423.18 1623.12,47.2441 "/>
<polyline clip-path="url(#clip162)" style="stroke:#000000; stroke-linecap:round; stroke-linejoin:round; stroke-width:2; stroke-opacity:0.1; fill:none" points="2292.51,1423.18 2292.51,47.2441 "/>
<polyline clip-path="url(#clip160)" style="stroke:#000000; stroke-linecap:round; stroke-linejoin:round; stroke-width:4; stroke-opacity:1; fill:none" points="224.098,1423.18 2352.76,1423.18 "/>
<polyline clip-path="url(#clip160)" style="stroke:#000000; stroke-linecap:round; stroke-linejoin:round; stroke-width:4; stroke-opacity:1; fill:none" points="284.343,1423.18 284.343,1404.28 "/>
<polyline clip-path="url(#clip160)" style="stroke:#000000; stroke-linecap:round; stroke-linejoin:round; stroke-width:4; stroke-opacity:1; fill:none" points="953.732,1423.18 953.732,1404.28 "/>
<polyline clip-path="url(#clip160)" style="stroke:#000000; stroke-linecap:round; stroke-linejoin:round; stroke-width:4; stroke-opacity:1; fill:none" points="1623.12,1423.18 1623.12,1404.28 "/>
<polyline clip-path="url(#clip160)" style="stroke:#000000; stroke-linecap:round; stroke-linejoin:round; stroke-width:4; stroke-opacity:1; fill:none" points="2292.51,1423.18 2292.51,1404.28 "/>
<path clip-path="url(#clip160)" d="M284.343 1454.1 Q280.732 1454.1 278.903 1457.66 Q277.098 1461.2 277.098 1468.33 Q277.098 1475.44 278.903 1479.01 Q280.732 1482.55 284.343 1482.55 Q287.977 1482.55 289.783 1479.01 Q291.611 1475.44 291.611 1468.33 Q291.611 1461.2 289.783 1457.66 Q287.977 1454.1 284.343 1454.1 M284.343 1450.39 Q290.153 1450.39 293.209 1455 Q296.287 1459.58 296.287 1468.33 Q296.287 1477.06 293.209 1481.67 Q290.153 1486.25 284.343 1486.25 Q278.533 1486.25 275.454 1481.67 Q272.399 1477.06 272.399 1468.33 Q272.399 1459.58 275.454 1455 Q278.533 1450.39 284.343 1450.39 Z" fill="#000000" fill-rule="nonzero" fill-opacity="1" /><path clip-path="url(#clip160)" d="M944.114 1481.64 L951.753 1481.64 L951.753 1455.28 L943.443 1456.95 L943.443 1452.69 L951.707 1451.02 L956.383 1451.02 L956.383 1481.64 L964.022 1481.64 L964.022 1485.58 L944.114 1485.58 L944.114 1481.64 Z" fill="#000000" fill-rule="nonzero" fill-opacity="1" /><path clip-path="url(#clip160)" d="M1617.77 1481.64 L1634.09 1481.64 L1634.09 1485.58 L1612.15 1485.58 L1612.15 1481.64 Q1614.81 1478.89 1619.39 1474.26 Q1624 1469.61 1625.18 1468.27 Q1627.43 1465.74 1628.31 1464.01 Q1629.21 1462.25 1629.21 1460.56 Q1629.21 1457.8 1627.27 1456.07 Q1625.34 1454.33 1622.24 1454.33 Q1620.04 1454.33 1617.59 1455.09 Q1615.16 1455.86 1612.38 1457.41 L1612.38 1452.69 Q1615.2 1451.55 1617.66 1450.97 Q1620.11 1450.39 1622.15 1450.39 Q1627.52 1450.39 1630.71 1453.08 Q1633.91 1455.77 1633.91 1460.26 Q1633.91 1462.39 1633.1 1464.31 Q1632.31 1466.2 1630.2 1468.8 Q1629.63 1469.47 1626.52 1472.69 Q1623.42 1475.88 1617.77 1481.64 Z" fill="#000000" fill-rule="nonzero" fill-opacity="1" /><path clip-path="url(#clip160)" d="M2296.76 1466.95 Q2300.11 1467.66 2301.99 1469.93 Q2303.89 1472.2 2303.89 1475.53 Q2303.89 1480.65 2300.37 1483.45 Q2296.85 1486.25 2290.37 1486.25 Q2288.19 1486.25 2285.88 1485.81 Q2283.59 1485.39 2281.13 1484.54 L2281.13 1480.02 Q2283.08 1481.16 2285.39 1481.74 Q2287.71 1482.32 2290.23 1482.32 Q2294.63 1482.32 2296.92 1480.58 Q2299.24 1478.84 2299.24 1475.53 Q2299.24 1472.48 2297.08 1470.77 Q2294.95 1469.03 2291.13 1469.03 L2287.11 1469.03 L2287.11 1465.19 L2291.32 1465.19 Q2294.77 1465.19 2296.6 1463.82 Q2298.43 1462.43 2298.43 1459.84 Q2298.43 1457.18 2296.53 1455.77 Q2294.65 1454.33 2291.13 1454.33 Q2289.21 1454.33 2287.01 1454.75 Q2284.81 1455.16 2282.18 1456.04 L2282.18 1451.88 Q2284.84 1451.14 2287.15 1450.77 Q2289.49 1450.39 2291.55 1450.39 Q2296.87 1450.39 2299.98 1452.83 Q2303.08 1455.23 2303.08 1459.35 Q2303.08 1462.22 2301.43 1464.21 Q2299.79 1466.18 2296.76 1466.95 Z" fill="#000000" fill-rule="nonzero" fill-opacity="1" /><path clip-path="url(#clip160)" d="M1287.49 1522.27 L1287.49 1532.4 L1299.55 1532.4 L1299.55 1536.95 L1287.49 1536.95 L1287.49 1556.3 Q1287.49 1560.66 1288.67 1561.9 Q1289.88 1563.14 1293.54 1563.14 L1299.55 1563.14 L1299.55 1568.04 L1293.54 1568.04 Q1286.76 1568.04 1284.18 1565.53 Q1281.6 1562.98 1281.6 1556.3 L1281.6 1536.95 L1277.3 1536.95 L1277.3 1532.4 L1281.6 1532.4 L1281.6 1522.27 L1287.49 1522.27 Z" fill="#000000" fill-rule="nonzero" fill-opacity="1" /><polyline clip-path="url(#clip162)" style="stroke:#000000; stroke-linecap:round; stroke-linejoin:round; stroke-width:2; stroke-opacity:0.1; fill:none" points="224.098,1299.44 2352.76,1299.44 "/>
<polyline clip-path="url(#clip162)" style="stroke:#000000; stroke-linecap:round; stroke-linejoin:round; stroke-width:2; stroke-opacity:0.1; fill:none" points="224.098,1065.17 2352.76,1065.17 "/>
<polyline clip-path="url(#clip162)" style="stroke:#000000; stroke-linecap:round; stroke-linejoin:round; stroke-width:2; stroke-opacity:0.1; fill:none" points="224.098,830.905 2352.76,830.905 "/>
<polyline clip-path="url(#clip162)" style="stroke:#000000; stroke-linecap:round; stroke-linejoin:round; stroke-width:2; stroke-opacity:0.1; fill:none" points="224.098,596.636 2352.76,596.636 "/>
<polyline clip-path="url(#clip162)" style="stroke:#000000; stroke-linecap:round; stroke-linejoin:round; stroke-width:2; stroke-opacity:0.1; fill:none" points="224.098,362.368 2352.76,362.368 "/>
<polyline clip-path="url(#clip162)" style="stroke:#000000; stroke-linecap:round; stroke-linejoin:round; stroke-width:2; stroke-opacity:0.1; fill:none" points="224.098,128.1 2352.76,128.1 "/>
<polyline clip-path="url(#clip160)" style="stroke:#000000; stroke-linecap:round; stroke-linejoin:round; stroke-width:4; stroke-opacity:1; fill:none" points="224.098,1423.18 224.098,47.2441 "/>
<polyline clip-path="url(#clip160)" style="stroke:#000000; stroke-linecap:round; stroke-linejoin:round; stroke-width:4; stroke-opacity:1; fill:none" points="224.098,1299.44 242.996,1299.44 "/>
<polyline clip-path="url(#clip160)" style="stroke:#000000; stroke-linecap:round; stroke-linejoin:round; stroke-width:4; stroke-opacity:1; fill:none" points="224.098,1065.17 242.996,1065.17 "/>
<polyline clip-path="url(#clip160)" style="stroke:#000000; stroke-linecap:round; stroke-linejoin:round; stroke-width:4; stroke-opacity:1; fill:none" points="224.098,830.905 242.996,830.905 "/>
<polyline clip-path="url(#clip160)" style="stroke:#000000; stroke-linecap:round; stroke-linejoin:round; stroke-width:4; stroke-opacity:1; fill:none" points="224.098,596.636 242.996,596.636 "/>
<polyline clip-path="url(#clip160)" style="stroke:#000000; stroke-linecap:round; stroke-linejoin:round; stroke-width:4; stroke-opacity:1; fill:none" points="224.098,362.368 242.996,362.368 "/>
<polyline clip-path="url(#clip160)" style="stroke:#000000; stroke-linecap:round; stroke-linejoin:round; stroke-width:4; stroke-opacity:1; fill:none" points="224.098,128.1 242.996,128.1 "/>
<path clip-path="url(#clip160)" d="M51.9875 1299.89 L81.6633 1299.89 L81.6633 1303.83 L51.9875 1303.83 L51.9875 1299.89 Z" fill="#000000" fill-rule="nonzero" fill-opacity="1" /><path clip-path="url(#clip160)" d="M101.756 1285.24 Q98.1447 1285.24 96.316 1288.8 Q94.5104 1292.35 94.5104 1299.48 Q94.5104 1306.58 96.316 1310.15 Q98.1447 1313.69 101.756 1313.69 Q105.39 1313.69 107.196 1310.15 Q109.024 1306.58 109.024 1299.48 Q109.024 1292.35 107.196 1288.8 Q105.39 1285.24 101.756 1285.24 M101.756 1281.54 Q107.566 1281.54 110.621 1286.14 Q113.7 1290.73 113.7 1299.48 Q113.7 1308.2 110.621 1312.81 Q107.566 1317.39 101.756 1317.39 Q95.9456 1317.39 92.8669 1312.81 Q89.8114 1308.2 89.8114 1299.48 Q89.8114 1290.73 92.8669 1286.14 Q95.9456 1281.54 101.756 1281.54 Z" fill="#000000" fill-rule="nonzero" fill-opacity="1" /><path clip-path="url(#clip160)" d="M121.918 1310.84 L126.802 1310.84 L126.802 1316.72 L121.918 1316.72 L121.918 1310.84 Z" fill="#000000" fill-rule="nonzero" fill-opacity="1" /><path clip-path="url(#clip160)" d="M137.797 1312.79 L145.436 1312.79 L145.436 1286.42 L137.126 1288.09 L137.126 1283.83 L145.39 1282.16 L150.066 1282.16 L150.066 1312.79 L157.705 1312.79 L157.705 1316.72 L137.797 1316.72 L137.797 1312.79 Z" fill="#000000" fill-rule="nonzero" fill-opacity="1" /><path clip-path="url(#clip160)" d="M167.195 1282.16 L185.552 1282.16 L185.552 1286.1 L171.478 1286.1 L171.478 1294.57 Q172.496 1294.22 173.515 1294.06 Q174.533 1293.87 175.552 1293.87 Q181.339 1293.87 184.718 1297.05 Q188.098 1300.22 188.098 1305.63 Q188.098 1311.21 184.626 1314.31 Q181.153 1317.39 174.834 1317.39 Q172.658 1317.39 170.39 1317.02 Q168.144 1316.65 165.737 1315.91 L165.737 1311.21 Q167.82 1312.35 170.042 1312.9 Q172.265 1313.46 174.741 1313.46 Q178.746 1313.46 181.084 1311.35 Q183.422 1309.24 183.422 1305.63 Q183.422 1302.02 181.084 1299.92 Q178.746 1297.81 174.741 1297.81 Q172.866 1297.81 170.991 1298.23 Q169.14 1298.64 167.195 1299.52 L167.195 1282.16 Z" fill="#000000" fill-rule="nonzero" fill-opacity="1" /><path clip-path="url(#clip160)" d="M50.9921 1065.62 L80.6679 1065.62 L80.6679 1069.56 L50.9921 1069.56 L50.9921 1065.62 Z" fill="#000000" fill-rule="nonzero" fill-opacity="1" /><path clip-path="url(#clip160)" d="M100.76 1050.97 Q97.1493 1050.97 95.3206 1054.54 Q93.515 1058.08 93.515 1065.21 Q93.515 1072.31 95.3206 1075.88 Q97.1493 1079.42 100.76 1079.42 Q104.395 1079.42 106.2 1075.88 Q108.029 1072.31 108.029 1065.21 Q108.029 1058.08 106.2 1054.54 Q104.395 1050.97 100.76 1050.97 M100.76 1047.27 Q106.571 1047.27 109.626 1051.87 Q112.705 1056.46 112.705 1065.21 Q112.705 1073.93 109.626 1078.54 Q106.571 1083.12 100.76 1083.12 Q94.9502 1083.12 91.8715 1078.54 Q88.816 1073.93 88.816 1065.21 Q88.816 1056.46 91.8715 1051.87 Q94.9502 1047.27 100.76 1047.27 Z" fill="#000000" fill-rule="nonzero" fill-opacity="1" /><path clip-path="url(#clip160)" d="M120.922 1076.57 L125.807 1076.57 L125.807 1082.45 L120.922 1082.45 L120.922 1076.57 Z" fill="#000000" fill-rule="nonzero" fill-opacity="1" /><path clip-path="url(#clip160)" d="M136.802 1078.52 L144.441 1078.52 L144.441 1052.15 L136.131 1053.82 L136.131 1049.56 L144.394 1047.89 L149.07 1047.89 L149.07 1078.52 L156.709 1078.52 L156.709 1082.45 L136.802 1082.45 L136.802 1078.52 Z" fill="#000000" fill-rule="nonzero" fill-opacity="1" /><path clip-path="url(#clip160)" d="M176.153 1050.97 Q172.542 1050.97 170.714 1054.54 Q168.908 1058.08 168.908 1065.21 Q168.908 1072.31 170.714 1075.88 Q172.542 1079.42 176.153 1079.42 Q179.788 1079.42 181.593 1075.88 Q183.422 1072.31 183.422 1065.21 Q183.422 1058.08 181.593 1054.54 Q179.788 1050.97 176.153 1050.97 M176.153 1047.27 Q181.964 1047.27 185.019 1051.87 Q188.098 1056.46 188.098 1065.21 Q188.098 1073.93 185.019 1078.54 Q181.964 1083.12 176.153 1083.12 Q170.343 1083.12 167.265 1078.54 Q164.209 1073.93 164.209 1065.21 Q164.209 1056.46 167.265 1051.87 Q170.343 1047.27 176.153 1047.27 Z" fill="#000000" fill-rule="nonzero" fill-opacity="1" /><path clip-path="url(#clip160)" d="M51.9875 831.356 L81.6633 831.356 L81.6633 835.291 L51.9875 835.291 L51.9875 831.356 Z" fill="#000000" fill-rule="nonzero" fill-opacity="1" /><path clip-path="url(#clip160)" d="M101.756 816.703 Q98.1447 816.703 96.316 820.268 Q94.5104 823.81 94.5104 830.939 Q94.5104 838.046 96.316 841.611 Q98.1447 845.152 101.756 845.152 Q105.39 845.152 107.196 841.611 Q109.024 838.046 109.024 830.939 Q109.024 823.81 107.196 820.268 Q105.39 816.703 101.756 816.703 M101.756 813 Q107.566 813 110.621 817.606 Q113.7 822.189 113.7 830.939 Q113.7 839.666 110.621 844.273 Q107.566 848.856 101.756 848.856 Q95.9456 848.856 92.8669 844.273 Q89.8114 839.666 89.8114 830.939 Q89.8114 822.189 92.8669 817.606 Q95.9456 813 101.756 813 Z" fill="#000000" fill-rule="nonzero" fill-opacity="1" /><path clip-path="url(#clip160)" d="M121.918 842.305 L126.802 842.305 L126.802 848.185 L121.918 848.185 L121.918 842.305 Z" fill="#000000" fill-rule="nonzero" fill-opacity="1" /><path clip-path="url(#clip160)" d="M146.987 816.703 Q143.376 816.703 141.547 820.268 Q139.742 823.81 139.742 830.939 Q139.742 838.046 141.547 841.611 Q143.376 845.152 146.987 845.152 Q150.621 845.152 152.427 841.611 Q154.255 838.046 154.255 830.939 Q154.255 823.81 152.427 820.268 Q150.621 816.703 146.987 816.703 M146.987 813 Q152.797 813 155.853 817.606 Q158.931 822.189 158.931 830.939 Q158.931 839.666 155.853 844.273 Q152.797 848.856 146.987 848.856 Q141.177 848.856 138.098 844.273 Q135.043 839.666 135.043 830.939 Q135.043 822.189 138.098 817.606 Q141.177 813 146.987 813 Z" fill="#000000" fill-rule="nonzero" fill-opacity="1" /><path clip-path="url(#clip160)" d="M167.195 813.625 L185.552 813.625 L185.552 817.56 L171.478 817.56 L171.478 826.032 Q172.496 825.685 173.515 825.523 Q174.533 825.338 175.552 825.338 Q181.339 825.338 184.718 828.509 Q188.098 831.68 188.098 837.097 Q188.098 842.675 184.626 845.777 Q181.153 848.856 174.834 848.856 Q172.658 848.856 170.39 848.486 Q168.144 848.115 165.737 847.374 L165.737 842.675 Q167.82 843.81 170.042 844.365 Q172.265 844.921 174.741 844.921 Q178.746 844.921 181.084 842.814 Q183.422 840.708 183.422 837.097 Q183.422 833.486 181.084 831.379 Q178.746 829.273 174.741 829.273 Q172.866 829.273 170.991 829.689 Q169.14 830.106 167.195 830.986 L167.195 813.625 Z" fill="#000000" fill-rule="nonzero" fill-opacity="1" /><path clip-path="url(#clip160)" d="M100.76 582.435 Q97.1493 582.435 95.3206 586 Q93.515 589.542 93.515 596.671 Q93.515 603.778 95.3206 607.342 Q97.1493 610.884 100.76 610.884 Q104.395 610.884 106.2 607.342 Q108.029 603.778 108.029 596.671 Q108.029 589.542 106.2 586 Q104.395 582.435 100.76 582.435 M100.76 578.731 Q106.571 578.731 109.626 583.338 Q112.705 587.921 112.705 596.671 Q112.705 605.398 109.626 610.004 Q106.571 614.588 100.76 614.588 Q94.9502 614.588 91.8715 610.004 Q88.816 605.398 88.816 596.671 Q88.816 587.921 91.8715 583.338 Q94.9502 578.731 100.76 578.731 Z" fill="#000000" fill-rule="nonzero" fill-opacity="1" /><path clip-path="url(#clip160)" d="M120.922 608.037 L125.807 608.037 L125.807 613.916 L120.922 613.916 L120.922 608.037 Z" fill="#000000" fill-rule="nonzero" fill-opacity="1" /><path clip-path="url(#clip160)" d="M145.992 582.435 Q142.381 582.435 140.552 586 Q138.746 589.542 138.746 596.671 Q138.746 603.778 140.552 607.342 Q142.381 610.884 145.992 610.884 Q149.626 610.884 151.431 607.342 Q153.26 603.778 153.26 596.671 Q153.26 589.542 151.431 586 Q149.626 582.435 145.992 582.435 M145.992 578.731 Q151.802 578.731 154.857 583.338 Q157.936 587.921 157.936 596.671 Q157.936 605.398 154.857 610.004 Q151.802 614.588 145.992 614.588 Q140.181 614.588 137.103 610.004 Q134.047 605.398 134.047 596.671 Q134.047 587.921 137.103 583.338 Q140.181 578.731 145.992 578.731 Z" fill="#000000" fill-rule="nonzero" fill-opacity="1" /><path clip-path="url(#clip160)" d="M176.153 582.435 Q172.542 582.435 170.714 586 Q168.908 589.542 168.908 596.671 Q168.908 603.778 170.714 607.342 Q172.542 610.884 176.153 610.884 Q179.788 610.884 181.593 607.342 Q183.422 603.778 183.422 596.671 Q183.422 589.542 181.593 586 Q179.788 582.435 176.153 582.435 M176.153 578.731 Q181.964 578.731 185.019 583.338 Q188.098 587.921 188.098 596.671 Q188.098 605.398 185.019 610.004 Q181.964 614.588 176.153 614.588 Q170.343 614.588 167.265 610.004 Q164.209 605.398 164.209 596.671 Q164.209 587.921 167.265 583.338 Q170.343 578.731 176.153 578.731 Z" fill="#000000" fill-rule="nonzero" fill-opacity="1" /><path clip-path="url(#clip160)" d="M101.756 348.167 Q98.1447 348.167 96.316 351.732 Q94.5104 355.273 94.5104 362.403 Q94.5104 369.509 96.316 373.074 Q98.1447 376.616 101.756 376.616 Q105.39 376.616 107.196 373.074 Q109.024 369.509 109.024 362.403 Q109.024 355.273 107.196 351.732 Q105.39 348.167 101.756 348.167 M101.756 344.463 Q107.566 344.463 110.621 349.07 Q113.7 353.653 113.7 362.403 Q113.7 371.13 110.621 375.736 Q107.566 380.319 101.756 380.319 Q95.9456 380.319 92.8669 375.736 Q89.8114 371.13 89.8114 362.403 Q89.8114 353.653 92.8669 349.07 Q95.9456 344.463 101.756 344.463 Z" fill="#000000" fill-rule="nonzero" fill-opacity="1" /><path clip-path="url(#clip160)" d="M121.918 373.768 L126.802 373.768 L126.802 379.648 L121.918 379.648 L121.918 373.768 Z" fill="#000000" fill-rule="nonzero" fill-opacity="1" /><path clip-path="url(#clip160)" d="M146.987 348.167 Q143.376 348.167 141.547 351.732 Q139.742 355.273 139.742 362.403 Q139.742 369.509 141.547 373.074 Q143.376 376.616 146.987 376.616 Q150.621 376.616 152.427 373.074 Q154.255 369.509 154.255 362.403 Q154.255 355.273 152.427 351.732 Q150.621 348.167 146.987 348.167 M146.987 344.463 Q152.797 344.463 155.853 349.07 Q158.931 353.653 158.931 362.403 Q158.931 371.13 155.853 375.736 Q152.797 380.319 146.987 380.319 Q141.177 380.319 138.098 375.736 Q135.043 371.13 135.043 362.403 Q135.043 353.653 138.098 349.07 Q141.177 344.463 146.987 344.463 Z" fill="#000000" fill-rule="nonzero" fill-opacity="1" /><path clip-path="url(#clip160)" d="M167.195 345.088 L185.552 345.088 L185.552 349.023 L171.478 349.023 L171.478 357.495 Q172.496 357.148 173.515 356.986 Q174.533 356.801 175.552 356.801 Q181.339 356.801 184.718 359.972 Q188.098 363.144 188.098 368.56 Q188.098 374.139 184.626 377.241 Q181.153 380.319 174.834 380.319 Q172.658 380.319 170.39 379.949 Q168.144 379.579 165.737 378.838 L165.737 374.139 Q167.82 375.273 170.042 375.829 Q172.265 376.384 174.741 376.384 Q178.746 376.384 181.084 374.278 Q183.422 372.171 183.422 368.56 Q183.422 364.949 181.084 362.843 Q178.746 360.736 174.741 360.736 Q172.866 360.736 170.991 361.153 Q169.14 361.569 167.195 362.449 L167.195 345.088 Z" fill="#000000" fill-rule="nonzero" fill-opacity="1" /><path clip-path="url(#clip160)" d="M100.76 113.898 Q97.1493 113.898 95.3206 117.463 Q93.515 121.005 93.515 128.135 Q93.515 135.241 95.3206 138.806 Q97.1493 142.347 100.76 142.347 Q104.395 142.347 106.2 138.806 Q108.029 135.241 108.029 128.135 Q108.029 121.005 106.2 117.463 Q104.395 113.898 100.76 113.898 M100.76 110.195 Q106.571 110.195 109.626 114.801 Q112.705 119.385 112.705 128.135 Q112.705 136.861 109.626 141.468 Q106.571 146.051 100.76 146.051 Q94.9502 146.051 91.8715 141.468 Q88.816 136.861 88.816 128.135 Q88.816 119.385 91.8715 114.801 Q94.9502 110.195 100.76 110.195 Z" fill="#000000" fill-rule="nonzero" fill-opacity="1" /><path clip-path="url(#clip160)" d="M120.922 139.5 L125.807 139.5 L125.807 145.38 L120.922 145.38 L120.922 139.5 Z" fill="#000000" fill-rule="nonzero" fill-opacity="1" /><path clip-path="url(#clip160)" d="M136.802 141.445 L144.441 141.445 L144.441 115.079 L136.131 116.746 L136.131 112.486 L144.394 110.82 L149.07 110.82 L149.07 141.445 L156.709 141.445 L156.709 145.38 L136.802 145.38 L136.802 141.445 Z" fill="#000000" fill-rule="nonzero" fill-opacity="1" /><path clip-path="url(#clip160)" d="M176.153 113.898 Q172.542 113.898 170.714 117.463 Q168.908 121.005 168.908 128.135 Q168.908 135.241 170.714 138.806 Q172.542 142.347 176.153 142.347 Q179.788 142.347 181.593 138.806 Q183.422 135.241 183.422 128.135 Q183.422 121.005 181.593 117.463 Q179.788 113.898 176.153 113.898 M176.153 110.195 Q181.964 110.195 185.019 114.801 Q188.098 119.385 188.098 128.135 Q188.098 136.861 185.019 141.468 Q181.964 146.051 176.153 146.051 Q170.343 146.051 167.265 141.468 Q164.209 136.861 164.209 128.135 Q164.209 119.385 167.265 114.801 Q170.343 110.195 176.153 110.195 Z" fill="#000000" fill-rule="nonzero" fill-opacity="1" /><polyline clip-path="url(#clip162)" style="stroke:#009af9; stroke-linecap:round; stroke-linejoin:round; stroke-width:4; stroke-opacity:1; fill:none" points="284.343,596.636 291.037,596.774 297.731,596.362 304.425,596.089 311.118,596.141 317.812,596.247 324.506,595.981 331.2,595.804 337.894,594.882 344.588,593.824 351.282,593.1 357.976,591.688 364.67,590.604 371.364,590.038 378.057,589.927 384.751,590.198 391.445,590.631 398.139,590.882 404.833,591.216 411.527,592.159 418.221,592.821 424.915,594.352 431.609,595.02 438.302,595.584 444.996,596.2 451.69,597.095 458.384,597.533 465.078,598.041 471.772,598.943 478.466,600.545 485.16,601.66 491.854,602.587 498.547,602.547 505.241,602.201 511.935,602.304 518.629,602.204 525.323,601.762 532.017,601.137 538.711,600.535 545.405,599.542 552.099,600.017 558.793,600.663 565.486,600.86 572.18,600.993 578.874,601.662 585.568,602.415 592.262,602.903 598.956,604.228 605.65,605.712 612.344,606.805 619.038,607.837 625.731,608.28 632.425,609.493 639.119,610.953 645.813,612.357 652.507,613.754 659.201,615.355 665.895,616.217 672.589,617.273 679.283,618.544 685.977,619.78 692.67,621.076 699.364,622.639 706.058,623.088 712.752,622.517 719.446,621.944 726.14,621.809 732.834,621.027 739.528,620.108 746.222,618.936 752.915,617.697 759.609,617.014 766.303,616.755 772.997,616.551 779.691,616.842 786.385,616.764 793.079,616.022 799.773,615.261 806.467,614.06 813.16,612.829 819.854,611.289 826.548,609.262 833.242,606.197 839.936,603.525 846.63,600.505 853.324,597.581 860.018,594.718 866.712,591.424 873.406,587.633 880.099,583.51 886.793,578.947 893.487,573.843 900.181,570.158 906.875,566.439 913.569,562.294 920.263,559.04 926.957,555.985 933.651,553.014 940.344,550.726 947.038,548.543 953.732,546.513 960.426,544.373 967.12,542.699 973.814,541.394 980.508,539.48 987.202,537.234 993.896,534.134 1000.59,531.851 1007.28,530.228 1013.98,528.237 1020.67,526.395 1027.37,524.41 1034.06,522.716 1040.75,520.344 1047.45,518.058 1054.14,515.998 1060.83,514.589 1067.53,512.6 1074.22,509.86 1080.92,507.841 1087.61,505.718 1094.3,504.188 1101,503.342 1107.69,502.479 1114.39,501.354 1121.08,499.953 1127.77,498.466 1134.47,497.757 1141.16,496.693 1147.86,495.406 1154.55,493.887 1161.24,492.037 1167.94,489.781 1174.63,487.6 1181.32,486.522 1188.02,485.816 1194.71,484.598 1201.41,484.366 1208.1,484.484 1214.79,484.436 1221.49,484.084 1228.18,483.643 1234.88,483.152 1241.57,482.748 1248.26,482.944 1254.96,483.455 1261.65,483.973 1268.35,484.436 1275.04,485.049 1281.73,486.229 1288.43,487.807 1295.12,489.702 1301.81,491.253 1308.51,493.088 1315.2,494.698 1321.9,496.167 1328.59,497.632 1335.28,499.324 1341.98,500.924 1348.67,502.634 1355.37,504.6 1362.06,507.676 1368.75,510.925 1375.45,513.463 1382.14,516.088 1388.84,518.589 1395.53,521.287 1402.22,524.082 1408.92,526.75 1415.61,529.099 1422.3,531.586 1429,534.088 1435.69,537.491 1442.39,540.155 1449.08,543.407 1455.77,546.652 1462.47,550.069 1469.16,553.373 1475.86,557.332 1482.55,561.579 1489.24,565.723 1495.94,570.048 1502.63,575.35 1509.33,580.782 1516.02,586.137 1522.71,591.463 1529.41,596.615 1536.1,601.701 1542.79,606.205 1549.49,611.156 1556.18,616.516 1562.88,621.397 1569.57,625.75 1576.26,630.093 1582.96,634.51 1589.65,638.664 1596.35,642.917 1603.04,647.84 1609.73,652.523 1616.43,657.172 1623.12,662.002 1629.82,667.245 1636.51,672.633 1643.2,678.501 1649.9,683.877 1656.59,689.834 1663.28,695.99 1669.98,702.87 1676.67,709.31 1683.37,714.969 1690.06,720.104 1696.75,725.7 1703.45,730.933 1710.14,735.981 1716.84,740.836 1723.53,744.553 1730.22,748.245 1736.92,752.637 1743.61,756.307 1750.31,760.009 1757,763.919 1763.69,768.066 1770.39,771.459 1777.08,774.642 1783.77,777.804 1790.47,780.505 1797.16,783.321 1803.86,786.569 1810.55,790.345 1817.24,793.906 1823.94,798.238 1830.63,802.322 1837.33,805.801 1844.02,809.341 1850.71,813.085 1857.41,816.475 1864.1,820.243 1870.8,824.628 1877.49,828.944 1884.18,832.797 1890.88,836.956 1897.57,840.492 1904.27,844.08 1910.96,847.88 1917.65,851.749 1924.35,855.292 1931.04,859.012 1937.73,862.134 1944.43,865.645 1951.12,870.239 1957.82,874.972 1964.51,880.212 1971.2,886.111 1977.9,890.942 1984.59,895.913 1991.29,900.631 1997.98,905.742 2004.67,911.365 2011.37,917.374 2018.06,923.368 2024.76,929.113 2031.45,934.178 2038.14,939.993 2044.84,946.137 2051.53,951.701 2058.22,957.31 2064.92,962.432 2071.61,967.107 2078.31,972.375 2085,977.562 2091.69,982.794 2098.39,988.473 2105.08,994.201 2111.78,999.917 2118.47,1005.66 2125.16,1011.85 2131.86,1018.04 2138.55,1024.77 2145.25,1031.37 2151.94,1038.71 2158.63,1046.09 2165.33,1053.39 2172.02,1060.75 2178.71,1068.62 2185.41,1076.39 2192.1,1083.04 2198.8,1089.18 2205.49,1095.39 2212.18,1101.73 2218.88,1109.17 2225.57,1116.41 2232.27,1123.06 2238.96,1128.9 2245.65,1134.52 2252.35,1140.17 2259.04,1145.81 2265.74,1151.73 2272.43,1156.88 2279.12,1161.47 2285.82,1165.42 2292.51,1169.12 "/>
<polyline clip-path="url(#clip162)" style="stroke:#e26f46; stroke-linecap:round; stroke-linejoin:round; stroke-width:4; stroke-opacity:1; fill:none" points="284.343,610.369 291.037,555.49 297.731,569.326 304.425,601.776 311.118,607.244 317.812,570.067 324.506,578.911 331.2,504.453 337.894,490.87 344.588,524.244 351.282,455.445 357.976,488.181 364.67,540.07 371.364,585.572 378.057,623.648 384.751,639.988 391.445,621.703 398.139,630.032 404.833,690.997 411.527,662.82 418.221,749.754 424.915,663.412 431.609,653.061 438.302,658.245 444.996,686.047 451.69,640.502 458.384,647.413 465.078,686.859 471.772,756.8 478.466,708.119 485.16,689.388 491.854,592.611 498.547,562.089 505.241,606.85 511.935,586.634 518.629,552.469 525.323,534.125 532.017,536.425 538.711,497.417 545.405,644.042 552.099,661.255 558.793,616.391 565.486,609.877 572.18,663.603 578.874,671.901 585.568,645.424 592.262,729.128 598.956,745.02 605.65,706.024 612.344,699.769 619.038,640.993 625.731,717.92 632.425,742.642 639.119,737.048 645.813,736.335 652.507,756.74 659.201,682.782 665.895,702.208 672.589,723.823 679.283,720.147 685.977,726.312 692.67,752.87 699.364,641.618 706.058,539.495 712.752,539.318 719.446,583.138 726.14,518.5 732.834,504.719 739.528,479.429 746.222,472.754 752.915,528.255 759.609,570.77 766.303,576.237 772.997,625.79 779.691,588.766 786.385,522.497 793.079,520.452 799.773,476.561 806.467,473.537 813.16,442.651 819.854,393.908 826.548,290.156 833.242,329.449 839.936,294.658 846.63,304.176 853.324,310.379 860.018,267.255 866.712,217.547 873.406,184.301 880.099,140.351 886.793,86.1857 893.487,228.139 900.181,224.791 906.875,182.097 913.569,271.226 920.263,291.21 926.957,299.533 933.651,367.822 940.344,378.273 947.038,393.64 953.732,382.628 960.426,429.232 967.12,466.157 973.814,405.223 980.508,372.064 987.202,286.631 993.896,368.325 1000.59,434.322 1007.28,397.594 1013.98,412.464 1020.67,398.058 1027.37,427.304 1034.06,359.374 1040.75,368.043 1047.45,390.693 1054.14,455.713 1060.83,397.779 1067.53,322.584 1074.22,394.713 1080.92,384.33 1087.61,443.687 1094.3,511.975 1101,510.376 1107.69,484.117 1114.39,456.589 1121.08,447.912 1127.77,525.749 1134.47,490.174 1141.16,467.937 1147.86,444.745 1154.55,411.711 1161.24,371.012 1167.94,378.543 1174.63,488.809 1181.32,526.008 1188.02,474.87 1194.71,573.409 1201.41,608.433 1208.1,591.866 1214.79,561.462 1221.49,552.476 1228.18,547.606 1234.88,556.166 1241.57,616.245 1248.26,647.747 1254.96,648.419 1261.65,642.933 1268.35,657.969 1275.04,714.688 1281.73,754.41 1288.43,786.155 1295.12,751.681 1301.81,780.191 1308.51,757.616 1315.2,743.488 1321.9,743.141 1328.59,765.85 1335.28,756.619 1341.98,767.67 1348.67,793.22 1355.37,904.199 1362.06,921.631 1368.75,850.434 1375.45,859.05 1382.14,846.809 1388.84,866.409 1395.53,876.141 1402.22,863.416 1408.92,831.533 1415.61,845.357 1422.3,846.836 1429,936.961 1435.69,862.978 1442.39,921.884 1449.08,921.101 1455.77,938.401 1462.47,927.025 1469.16,992.5 1475.86,1021.33 1482.55,1011.05 1489.24,1029.13 1495.94,1126.83 1502.63,1139.81 1509.33,1132.19 1516.02,1129.21 1522.71,1111.84 1529.41,1105.25 1536.1,1046.98 1542.79,1091.81 1549.49,1132.6 1556.18,1084.73 1562.88,1031.95 1569.57,1030.97 1576.26,1038.3 1582.96,1012.03 1589.65,1021.93 1596.35,1088.95 1603.04,1064.97 1609.73,1061.44 1616.43,1079.71 1623.12,1120.87 1629.82,1135.49 1636.51,1183.42 1643.2,1134.27 1649.9,1192.27 1656.59,1212.21 1663.28,1284.72 1669.98,1240.56 1676.67,1162.54 1683.37,1110.22 1690.06,1156.22 1696.75,1119.88 1703.45,1101.45 1710.14,1082.11 1716.84,968.358 1723.53,965.882 1730.22,1035.79 1736.92,963.643 1743.61,966.852 1750.31,987.632 1757,1011.36 1763.69,935.915 1770.39,914.907 1777.08,912.897 1783.77,866.718 1790.47,878.233 1797.16,921.439 1803.86,974.199 1810.55,952.804 1817.24,1029.82 1823.94,1004.98 1830.63,944.579 1837.33,950.67 1844.02,970.956 1850.71,935.721 1857.41,973.346 1864.1,1035.16 1870.8,1028.22 1877.49,982.007 1884.18,1012.5 1890.88,950.218 1897.57,955.427 1904.27,976.648 1910.96,983.601 1917.65,950.891 1924.35,968.589 1931.04,908.855 1937.73,947.803 1944.43,1055.99 1951.12,1069.94 1957.82,1120.59 1964.51,1186.55 1971.2,1079.76 1977.9,1093.75 1984.59,1068.4 1991.29,1107.73 1997.98,1159.01 2004.67,1197.47 2011.37,1196.03 2018.06,1171.13 2024.76,1103.13 2031.45,1178.13 2038.14,1211.05 2044.84,1153.11 2051.53,1157.47 2058.22,1108.91 2064.92,1064.06 2071.61,1123.49 2078.31,1115.29 2085,1119.83 2091.69,1164.58 2098.39,1169.4 2105.08,1168.31 2111.78,1170.43 2118.47,1216.02 2125.16,1215.74 2131.86,1270.06 2138.55,1255.82 2145.25,1331.46 2151.94,1334.23 2158.63,1326.52 2165.33,1332.44 2172.02,1384.24 2178.71,1373.77 2185.41,1261.64 2192.1,1210.44 2198.8,1217.52 2205.49,1230.29 2212.18,1340.4 2218.88,1320.95 2225.57,1261.26 2232.27,1181.57 2238.96,1157.9 2245.65,1162.16 2252.35,1160.53 2259.04,1188.62 2265.74,1111.11 2272.43,1055.97 2279.12,991.78 2285.82,966.976 2292.51,979.355 "/>
<path clip-path="url(#clip160)" d="M1843.36 248.629 L2281.8 248.629 L2281.8 93.1086 L1843.36 93.1086  Z" fill="#ffffff" fill-rule="evenodd" fill-opacity="1"/>
<polyline clip-path="url(#clip160)" style="stroke:#000000; stroke-linecap:round; stroke-linejoin:round; stroke-width:4; stroke-opacity:1; fill:none" points="1843.36,248.629 2281.8,248.629 2281.8,93.1086 1843.36,93.1086 1843.36,248.629 "/>
<polyline clip-path="url(#clip160)" style="stroke:#009af9; stroke-linecap:round; stroke-linejoin:round; stroke-width:4; stroke-opacity:1; fill:none" points="1867.01,144.949 2008.92,144.949 "/>
<path clip-path="url(#clip160)" d="M2046.41 164.636 Q2044.61 169.266 2042.9 170.678 Q2041.18 172.09 2038.31 172.09 L2034.91 172.09 L2034.91 168.525 L2037.41 168.525 Q2039.17 168.525 2040.14 167.692 Q2041.11 166.858 2042.29 163.756 L2043.06 161.812 L2032.57 136.303 L2037.09 136.303 L2045.19 156.581 L2053.29 136.303 L2057.8 136.303 L2046.41 164.636 Z" fill="#000000" fill-rule="nonzero" fill-opacity="1" /><path clip-path="url(#clip160)" d="M2082.87 158.34 L2082.87 172.09 L2078.59 172.09 L2078.59 136.303 L2082.87 136.303 L2082.87 140.238 Q2084.21 137.923 2086.25 136.812 Q2088.31 135.678 2091.16 135.678 Q2095.88 135.678 2098.82 139.428 Q2101.78 143.178 2101.78 149.289 Q2101.78 155.4 2098.82 159.15 Q2095.88 162.9 2091.16 162.9 Q2088.31 162.9 2086.25 161.789 Q2084.21 160.655 2082.87 158.34 M2097.36 149.289 Q2097.36 144.59 2095.42 141.928 Q2093.5 139.243 2090.12 139.243 Q2086.74 139.243 2084.79 141.928 Q2082.87 144.59 2082.87 149.289 Q2082.87 153.988 2084.79 156.673 Q2086.74 159.335 2090.12 159.335 Q2093.5 159.335 2095.42 156.673 Q2097.36 153.988 2097.36 149.289 Z" fill="#000000" fill-rule="nonzero" fill-opacity="1" /><path clip-path="url(#clip160)" d="M2118.89 139.289 Q2115.46 139.289 2113.47 141.974 Q2111.48 144.636 2111.48 149.289 Q2111.48 153.942 2113.45 156.627 Q2115.44 159.289 2118.89 159.289 Q2122.29 159.289 2124.28 156.604 Q2126.27 153.918 2126.27 149.289 Q2126.27 144.682 2124.28 141.997 Q2122.29 139.289 2118.89 139.289 M2118.89 135.678 Q2124.45 135.678 2127.62 139.289 Q2130.79 142.9 2130.79 149.289 Q2130.79 155.655 2127.62 159.289 Q2124.45 162.9 2118.89 162.9 Q2113.31 162.9 2110.14 159.289 Q2106.99 155.655 2106.99 149.289 Q2106.99 142.9 2110.14 139.289 Q2113.31 135.678 2118.89 135.678 Z" fill="#000000" fill-rule="nonzero" fill-opacity="1" /><path clip-path="url(#clip160)" d="M2154.38 137.067 L2154.38 141.094 Q2152.57 140.169 2150.63 139.706 Q2148.68 139.243 2146.6 139.243 Q2143.43 139.243 2141.83 140.215 Q2140.26 141.187 2140.26 143.131 Q2140.26 144.613 2141.39 145.469 Q2142.52 146.303 2145.95 147.067 L2147.41 147.391 Q2151.95 148.363 2153.84 150.145 Q2155.77 151.905 2155.77 155.076 Q2155.77 158.687 2152.89 160.793 Q2150.05 162.9 2145.05 162.9 Q2142.96 162.9 2140.7 162.483 Q2138.45 162.09 2135.95 161.28 L2135.95 156.881 Q2138.31 158.108 2140.6 158.733 Q2142.89 159.335 2145.14 159.335 Q2148.15 159.335 2149.77 158.317 Q2151.39 157.275 2151.39 155.4 Q2151.39 153.664 2150.21 152.738 Q2149.05 151.812 2145.09 150.956 L2143.61 150.608 Q2139.65 149.775 2137.89 148.062 Q2136.14 146.326 2136.14 143.317 Q2136.14 139.659 2138.73 137.669 Q2141.32 135.678 2146.09 135.678 Q2148.45 135.678 2150.53 136.025 Q2152.62 136.372 2154.38 137.067 Z" fill="#000000" fill-rule="nonzero" fill-opacity="1" /><path clip-path="url(#clip160)" d="M2162.55 136.303 L2166.81 136.303 L2166.81 162.229 L2162.55 162.229 L2162.55 136.303 M2162.55 126.21 L2166.81 126.21 L2166.81 131.604 L2162.55 131.604 L2162.55 126.21 Z" fill="#000000" fill-rule="nonzero" fill-opacity="1" /><path clip-path="url(#clip160)" d="M2179.93 128.942 L2179.93 136.303 L2188.7 136.303 L2188.7 139.613 L2179.93 139.613 L2179.93 153.687 Q2179.93 156.858 2180.79 157.761 Q2181.67 158.664 2184.33 158.664 L2188.7 158.664 L2188.7 162.229 L2184.33 162.229 Q2179.4 162.229 2177.52 160.4 Q2175.65 158.548 2175.65 153.687 L2175.65 139.613 L2172.52 139.613 L2172.52 136.303 L2175.65 136.303 L2175.65 128.942 L2179.93 128.942 Z" fill="#000000" fill-rule="nonzero" fill-opacity="1" /><path clip-path="url(#clip160)" d="M2194.31 136.303 L2198.57 136.303 L2198.57 162.229 L2194.31 162.229 L2194.31 136.303 M2194.31 126.21 L2198.57 126.21 L2198.57 131.604 L2194.31 131.604 L2194.31 126.21 Z" fill="#000000" fill-rule="nonzero" fill-opacity="1" /><path clip-path="url(#clip160)" d="M2217.52 139.289 Q2214.1 139.289 2212.11 141.974 Q2210.12 144.636 2210.12 149.289 Q2210.12 153.942 2212.08 156.627 Q2214.08 159.289 2217.52 159.289 Q2220.93 159.289 2222.92 156.604 Q2224.91 153.918 2224.91 149.289 Q2224.91 144.682 2222.92 141.997 Q2220.93 139.289 2217.52 139.289 M2217.52 135.678 Q2223.08 135.678 2226.25 139.289 Q2229.42 142.9 2229.42 149.289 Q2229.42 155.655 2226.25 159.289 Q2223.08 162.9 2217.52 162.9 Q2211.95 162.9 2208.77 159.289 Q2205.63 155.655 2205.63 149.289 Q2205.63 142.9 2208.77 139.289 Q2211.95 135.678 2217.52 135.678 Z" fill="#000000" fill-rule="nonzero" fill-opacity="1" /><path clip-path="url(#clip160)" d="M2258.03 146.581 L2258.03 162.229 L2253.77 162.229 L2253.77 146.719 Q2253.77 143.039 2252.34 141.21 Q2250.9 139.382 2248.03 139.382 Q2244.58 139.382 2242.59 141.581 Q2240.6 143.78 2240.6 147.576 L2240.6 162.229 L2236.32 162.229 L2236.32 136.303 L2240.6 136.303 L2240.6 140.331 Q2242.13 137.993 2244.19 136.835 Q2246.27 135.678 2248.98 135.678 Q2253.45 135.678 2255.74 138.456 Q2258.03 141.21 2258.03 146.581 Z" fill="#000000" fill-rule="nonzero" fill-opacity="1" /><polyline clip-path="url(#clip160)" style="stroke:#e26f46; stroke-linecap:round; stroke-linejoin:round; stroke-width:4; stroke-opacity:1; fill:none" points="1867.01,196.789 2008.92,196.789 "/>
<path clip-path="url(#clip160)" d="M2046.41 216.476 Q2044.61 221.106 2042.9 222.518 Q2041.18 223.93 2038.31 223.93 L2034.91 223.93 L2034.91 220.365 L2037.41 220.365 Q2039.17 220.365 2040.14 219.532 Q2041.11 218.698 2042.29 215.596 L2043.06 213.652 L2032.57 188.143 L2037.09 188.143 L2045.19 208.421 L2053.29 188.143 L2057.8 188.143 L2046.41 216.476 Z" fill="#000000" fill-rule="nonzero" fill-opacity="1" /><path clip-path="url(#clip160)" d="M2075.7 188.143 L2080.21 188.143 L2088.31 209.902 L2096.41 188.143 L2100.93 188.143 L2091.21 214.069 L2085.42 214.069 L2075.7 188.143 Z" fill="#000000" fill-rule="nonzero" fill-opacity="1" /><path clip-path="url(#clip160)" d="M2128.98 200.041 L2128.98 202.124 L2109.4 202.124 Q2109.68 206.522 2112.04 208.837 Q2114.42 211.129 2118.66 211.129 Q2121.11 211.129 2123.4 210.527 Q2125.72 209.925 2127.99 208.721 L2127.99 212.749 Q2125.7 213.721 2123.29 214.231 Q2120.88 214.74 2118.4 214.74 Q2112.2 214.74 2108.57 211.129 Q2104.96 207.518 2104.96 201.36 Q2104.96 194.995 2108.38 191.268 Q2111.83 187.518 2117.66 187.518 Q2122.89 187.518 2125.93 190.897 Q2128.98 194.254 2128.98 200.041 M2124.72 198.791 Q2124.68 195.296 2122.76 193.212 Q2120.86 191.129 2117.71 191.129 Q2114.15 191.129 2111.99 193.143 Q2109.86 195.157 2109.54 198.814 L2124.72 198.791 Z" fill="#000000" fill-rule="nonzero" fill-opacity="1" /><path clip-path="url(#clip160)" d="M2135.97 178.05 L2140.23 178.05 L2140.23 214.069 L2135.97 214.069 L2135.97 178.05 Z" fill="#000000" fill-rule="nonzero" fill-opacity="1" /><path clip-path="url(#clip160)" d="M2159.19 191.129 Q2155.77 191.129 2153.77 193.814 Q2151.78 196.476 2151.78 201.129 Q2151.78 205.782 2153.75 208.467 Q2155.74 211.129 2159.19 211.129 Q2162.59 211.129 2164.58 208.444 Q2166.58 205.758 2166.58 201.129 Q2166.58 196.522 2164.58 193.837 Q2162.59 191.129 2159.19 191.129 M2159.19 187.518 Q2164.75 187.518 2167.92 191.129 Q2171.09 194.74 2171.09 201.129 Q2171.09 207.495 2167.92 211.129 Q2164.75 214.74 2159.19 214.74 Q2153.61 214.74 2150.44 211.129 Q2147.29 207.495 2147.29 201.129 Q2147.29 194.74 2150.44 191.129 Q2153.61 187.518 2159.19 187.518 Z" fill="#000000" fill-rule="nonzero" fill-opacity="1" /><path clip-path="url(#clip160)" d="M2196.81 189.138 L2196.81 193.12 Q2195 192.124 2193.17 191.638 Q2191.37 191.129 2189.51 191.129 Q2185.37 191.129 2183.08 193.768 Q2180.79 196.384 2180.79 201.129 Q2180.79 205.874 2183.08 208.513 Q2185.37 211.129 2189.51 211.129 Q2191.37 211.129 2193.17 210.643 Q2195 210.133 2196.81 209.138 L2196.81 213.073 Q2195.02 213.907 2193.1 214.323 Q2191.2 214.74 2189.05 214.74 Q2183.2 214.74 2179.75 211.059 Q2176.3 207.379 2176.3 201.129 Q2176.3 194.786 2179.77 191.152 Q2183.27 187.518 2189.33 187.518 Q2191.3 187.518 2193.17 187.935 Q2195.05 188.328 2196.81 189.138 Z" fill="#000000" fill-rule="nonzero" fill-opacity="1" /><path clip-path="url(#clip160)" d="M2204.21 188.143 L2208.47 188.143 L2208.47 214.069 L2204.21 214.069 L2204.21 188.143 M2204.21 178.05 L2208.47 178.05 L2208.47 183.444 L2204.21 183.444 L2204.21 178.05 Z" fill="#000000" fill-rule="nonzero" fill-opacity="1" /><path clip-path="url(#clip160)" d="M2221.6 180.782 L2221.6 188.143 L2230.37 188.143 L2230.37 191.453 L2221.6 191.453 L2221.6 205.527 Q2221.6 208.698 2222.45 209.601 Q2223.33 210.504 2226 210.504 L2230.37 210.504 L2230.37 214.069 L2226 214.069 Q2221.07 214.069 2219.19 212.24 Q2217.32 210.388 2217.32 205.527 L2217.32 191.453 L2214.19 191.453 L2214.19 188.143 L2217.32 188.143 L2217.32 180.782 L2221.6 180.782 Z" fill="#000000" fill-rule="nonzero" fill-opacity="1" /><path clip-path="url(#clip160)" d="M2246.76 216.476 Q2244.95 221.106 2243.24 222.518 Q2241.53 223.93 2238.66 223.93 L2235.26 223.93 L2235.26 220.365 L2237.76 220.365 Q2239.51 220.365 2240.49 219.532 Q2241.46 218.698 2242.64 215.596 L2243.4 213.652 L2232.92 188.143 L2237.43 188.143 L2245.53 208.421 L2253.64 188.143 L2258.15 188.143 L2246.76 216.476 Z" fill="#000000" fill-rule="nonzero" fill-opacity="1" /></svg>
