<?xml version="1.0" encoding="utf-8"?>
<svg xmlns="http://www.w3.org/2000/svg" xmlns:xlink="http://www.w3.org/1999/xlink" width="600" height="400" viewBox="0 0 2400 1600">
<defs>
  <clipPath id="clip460">
    <rect x="0" y="0" width="2400" height="1600"/>
  </clipPath>
</defs>
<path clip-path="url(#clip460)" d="M0 1600 L2400 1600 L2400 0 L0 0  Z" fill="#ffffff" fill-rule="evenodd" fill-opacity="1"/>
<defs>
  <clipPath id="clip461">
    <rect x="480" y="0" width="1681" height="1600"/>
  </clipPath>
</defs>
<path clip-path="url(#clip460)" d="M193.288 1486.45 L2352.76 1486.45 L2352.76 47.2441 L193.288 47.2441  Z" fill="#ffffff" fill-rule="evenodd" fill-opacity="1"/>
<defs>
  <clipPath id="clip462">
    <rect x="193" y="47" width="2160" height="1440"/>
  </clipPath>
</defs>
<polyline clip-path="url(#clip460)" style="stroke:#000000; stroke-linecap:round; stroke-linejoin:round; stroke-width:4; stroke-opacity:1; fill:none" points="193.288,1486.45 2352.76,1486.45 "/>
<polyline clip-path="url(#clip460)" style="stroke:#000000; stroke-linecap:round; stroke-linejoin:round; stroke-width:4; stroke-opacity:1; fill:none" points="323.905,1486.45 323.905,1467.55 "/>
<polyline clip-path="url(#clip460)" style="stroke:#000000; stroke-linecap:round; stroke-linejoin:round; stroke-width:4; stroke-opacity:1; fill:none" points="732.109,1486.45 732.109,1467.55 "/>
<polyline clip-path="url(#clip460)" style="stroke:#000000; stroke-linecap:round; stroke-linejoin:round; stroke-width:4; stroke-opacity:1; fill:none" points="1140.31,1486.45 1140.31,1467.55 "/>
<polyline clip-path="url(#clip460)" style="stroke:#000000; stroke-linecap:round; stroke-linejoin:round; stroke-width:4; stroke-opacity:1; fill:none" points="1548.52,1486.45 1548.52,1467.55 "/>
<polyline clip-path="url(#clip460)" style="stroke:#000000; stroke-linecap:round; stroke-linejoin:round; stroke-width:4; stroke-opacity:1; fill:none" points="1956.72,1486.45 1956.72,1467.55 "/>
<path clip-path="url(#clip460)" d="M270.19 1532.02 L299.865 1532.02 L299.865 1535.95 L270.19 1535.95 L270.19 1532.02 Z" fill="#000000" fill-rule="nonzero" fill-opacity="1" /><path clip-path="url(#clip460)" d="M319.958 1517.37 Q316.347 1517.37 314.518 1520.93 Q312.713 1524.47 312.713 1531.6 Q312.713 1538.71 314.518 1542.27 Q316.347 1545.82 319.958 1545.82 Q323.592 1545.82 325.398 1542.27 Q327.226 1538.71 327.226 1531.6 Q327.226 1524.47 325.398 1520.93 Q323.592 1517.37 319.958 1517.37 M319.958 1513.66 Q325.768 1513.66 328.824 1518.27 Q331.902 1522.85 331.902 1531.6 Q331.902 1540.33 328.824 1544.94 Q325.768 1549.52 319.958 1549.52 Q314.148 1549.52 311.069 1544.94 Q308.014 1540.33 308.014 1531.6 Q308.014 1522.85 311.069 1518.27 Q314.148 1513.66 319.958 1513.66 Z" fill="#000000" fill-rule="nonzero" fill-opacity="1" /><path clip-path="url(#clip460)" d="M340.12 1542.97 L345.004 1542.97 L345.004 1548.85 L340.12 1548.85 L340.12 1542.97 Z" fill="#000000" fill-rule="nonzero" fill-opacity="1" /><path clip-path="url(#clip460)" d="M368.036 1518.36 L356.231 1536.81 L368.036 1536.81 L368.036 1518.36 M366.81 1514.29 L372.689 1514.29 L372.689 1536.81 L377.62 1536.81 L377.62 1540.7 L372.689 1540.7 L372.689 1548.85 L368.036 1548.85 L368.036 1540.7 L352.435 1540.7 L352.435 1536.19 L366.81 1514.29 Z" fill="#000000" fill-rule="nonzero" fill-opacity="1" /><path clip-path="url(#clip460)" d="M679.435 1532.02 L709.111 1532.02 L709.111 1535.95 L679.435 1535.95 L679.435 1532.02 Z" fill="#000000" fill-rule="nonzero" fill-opacity="1" /><path clip-path="url(#clip460)" d="M729.203 1517.37 Q725.592 1517.37 723.764 1520.93 Q721.958 1524.47 721.958 1531.6 Q721.958 1538.71 723.764 1542.27 Q725.592 1545.82 729.203 1545.82 Q732.838 1545.82 734.643 1542.27 Q736.472 1538.71 736.472 1531.6 Q736.472 1524.47 734.643 1520.93 Q732.838 1517.37 729.203 1517.37 M729.203 1513.66 Q735.014 1513.66 738.069 1518.27 Q741.148 1522.85 741.148 1531.6 Q741.148 1540.33 738.069 1544.94 Q735.014 1549.52 729.203 1549.52 Q723.393 1549.52 720.315 1544.94 Q717.259 1540.33 717.259 1531.6 Q717.259 1522.85 720.315 1518.27 Q723.393 1513.66 729.203 1513.66 Z" fill="#000000" fill-rule="nonzero" fill-opacity="1" /><path clip-path="url(#clip460)" d="M749.365 1542.97 L754.25 1542.97 L754.25 1548.85 L749.365 1548.85 L749.365 1542.97 Z" fill="#000000" fill-rule="nonzero" fill-opacity="1" /><path clip-path="url(#clip460)" d="M768.463 1544.91 L784.782 1544.91 L784.782 1548.85 L762.838 1548.85 L762.838 1544.91 Q765.5 1542.16 770.083 1537.53 Q774.689 1532.88 775.87 1531.53 Q778.115 1529.01 778.995 1527.27 Q779.898 1525.51 779.898 1523.82 Q779.898 1521.07 777.953 1519.33 Q776.032 1517.6 772.93 1517.6 Q770.731 1517.6 768.277 1518.36 Q765.847 1519.13 763.069 1520.68 L763.069 1515.95 Q765.893 1514.82 768.347 1514.24 Q770.8 1513.66 772.838 1513.66 Q778.208 1513.66 781.402 1516.35 Q784.597 1519.03 784.597 1523.52 Q784.597 1525.65 783.787 1527.57 Q782.999 1529.47 780.893 1532.07 Q780.314 1532.74 777.212 1535.95 Q774.111 1539.15 768.463 1544.91 Z" fill="#000000" fill-rule="nonzero" fill-opacity="1" /><path clip-path="url(#clip460)" d="M1117.7 1517.37 Q1114.09 1517.37 1112.26 1520.93 Q1110.45 1524.47 1110.45 1531.6 Q1110.45 1538.71 1112.26 1542.27 Q1114.09 1545.82 1117.7 1545.82 Q1121.33 1545.82 1123.14 1542.27 Q1124.97 1538.71 1124.97 1531.6 Q1124.97 1524.47 1123.14 1520.93 Q1121.33 1517.37 1117.7 1517.37 M1117.7 1513.66 Q1123.51 1513.66 1126.56 1518.27 Q1129.64 1522.85 1129.64 1531.6 Q1129.64 1540.33 1126.56 1544.94 Q1123.51 1549.52 1117.7 1549.52 Q1111.89 1549.52 1108.81 1544.94 Q1105.75 1540.33 1105.75 1531.6 Q1105.75 1522.85 1108.81 1518.27 Q1111.89 1513.66 1117.7 1513.66 Z" fill="#000000" fill-rule="nonzero" fill-opacity="1" /><path clip-path="url(#clip460)" d="M1137.86 1542.97 L1142.74 1542.97 L1142.74 1548.85 L1137.86 1548.85 L1137.86 1542.97 Z" fill="#000000" fill-rule="nonzero" fill-opacity="1" /><path clip-path="url(#clip460)" d="M1162.93 1517.37 Q1159.32 1517.37 1157.49 1520.93 Q1155.68 1524.47 1155.68 1531.6 Q1155.68 1538.71 1157.49 1542.27 Q1159.32 1545.82 1162.93 1545.82 Q1166.56 1545.82 1168.37 1542.27 Q1170.2 1538.71 1170.2 1531.6 Q1170.2 1524.47 1168.37 1520.93 Q1166.56 1517.37 1162.93 1517.37 M1162.93 1513.66 Q1168.74 1513.66 1171.79 1518.27 Q1174.87 1522.85 1174.87 1531.6 Q1174.87 1540.33 1171.79 1544.94 Q1168.74 1549.52 1162.93 1549.52 Q1157.12 1549.52 1154.04 1544.94 Q1150.98 1540.33 1150.98 1531.6 Q1150.98 1522.85 1154.04 1518.27 Q1157.12 1513.66 1162.93 1513.66 Z" fill="#000000" fill-rule="nonzero" fill-opacity="1" /><path clip-path="url(#clip460)" d="M1526.7 1517.37 Q1523.09 1517.37 1521.26 1520.93 Q1519.45 1524.47 1519.45 1531.6 Q1519.45 1538.71 1521.26 1542.27 Q1523.09 1545.82 1526.7 1545.82 Q1530.33 1545.82 1532.14 1542.27 Q1533.97 1538.71 1533.97 1531.6 Q1533.97 1524.47 1532.14 1520.93 Q1530.33 1517.37 1526.7 1517.37 M1526.7 1513.66 Q1532.51 1513.66 1535.57 1518.27 Q1538.64 1522.85 1538.64 1531.6 Q1538.64 1540.33 1535.57 1544.94 Q1532.51 1549.52 1526.7 1549.52 Q1520.89 1549.52 1517.81 1544.94 Q1514.75 1540.33 1514.75 1531.6 Q1514.75 1522.85 1517.81 1518.27 Q1520.89 1513.66 1526.7 1513.66 Z" fill="#000000" fill-rule="nonzero" fill-opacity="1" /><path clip-path="url(#clip460)" d="M1546.86 1542.97 L1551.75 1542.97 L1551.75 1548.85 L1546.86 1548.85 L1546.86 1542.97 Z" fill="#000000" fill-rule="nonzero" fill-opacity="1" /><path clip-path="url(#clip460)" d="M1565.96 1544.91 L1582.28 1544.91 L1582.28 1548.85 L1560.33 1548.85 L1560.33 1544.91 Q1563 1542.16 1567.58 1537.53 Q1572.19 1532.88 1573.37 1531.53 Q1575.61 1529.01 1576.49 1527.27 Q1577.39 1525.51 1577.39 1523.82 Q1577.39 1521.07 1575.45 1519.33 Q1573.53 1517.6 1570.43 1517.6 Q1568.23 1517.6 1565.77 1518.36 Q1563.34 1519.13 1560.56 1520.68 L1560.56 1515.95 Q1563.39 1514.82 1565.84 1514.24 Q1568.3 1513.66 1570.33 1513.66 Q1575.7 1513.66 1578.9 1516.35 Q1582.09 1519.03 1582.09 1523.52 Q1582.09 1525.65 1581.28 1527.57 Q1580.5 1529.47 1578.39 1532.07 Q1577.81 1532.74 1574.71 1535.95 Q1571.61 1539.15 1565.96 1544.91 Z" fill="#000000" fill-rule="nonzero" fill-opacity="1" /><path clip-path="url(#clip460)" d="M1933.86 1517.37 Q1930.25 1517.37 1928.42 1520.93 Q1926.62 1524.47 1926.62 1531.6 Q1926.62 1538.71 1928.42 1542.27 Q1930.25 1545.82 1933.86 1545.82 Q1937.5 1545.82 1939.3 1542.27 Q1941.13 1538.71 1941.13 1531.6 Q1941.13 1524.47 1939.3 1520.93 Q1937.5 1517.37 1933.86 1517.37 M1933.86 1513.66 Q1939.67 1513.66 1942.73 1518.27 Q1945.81 1522.85 1945.81 1531.6 Q1945.81 1540.33 1942.73 1544.94 Q1939.67 1549.52 1933.86 1549.52 Q1928.05 1549.52 1924.97 1544.94 Q1921.92 1540.33 1921.92 1531.6 Q1921.92 1522.85 1924.97 1518.27 Q1928.05 1513.66 1933.86 1513.66 Z" fill="#000000" fill-rule="nonzero" fill-opacity="1" /><path clip-path="url(#clip460)" d="M1954.02 1542.97 L1958.91 1542.97 L1958.91 1548.85 L1954.02 1548.85 L1954.02 1542.97 Z" fill="#000000" fill-rule="nonzero" fill-opacity="1" /><path clip-path="url(#clip460)" d="M1981.94 1518.36 L1970.13 1536.81 L1981.94 1536.81 L1981.94 1518.36 M1980.71 1514.29 L1986.59 1514.29 L1986.59 1536.81 L1991.52 1536.81 L1991.52 1540.7 L1986.59 1540.7 L1986.59 1548.85 L1981.94 1548.85 L1981.94 1540.7 L1966.34 1540.7 L1966.34 1536.19 L1980.71 1514.29 Z" fill="#000000" fill-rule="nonzero" fill-opacity="1" /><polyline clip-path="url(#clip460)" style="stroke:#000000; stroke-linecap:round; stroke-linejoin:round; stroke-width:4; stroke-opacity:1; fill:none" points="193.288,1486.45 193.288,47.2441 "/>
<polyline clip-path="url(#clip460)" style="stroke:#000000; stroke-linecap:round; stroke-linejoin:round; stroke-width:4; stroke-opacity:1; fill:none" points="193.288,1406.37 212.185,1406.37 "/>
<polyline clip-path="url(#clip460)" style="stroke:#000000; stroke-linecap:round; stroke-linejoin:round; stroke-width:4; stroke-opacity:1; fill:none" points="193.288,1202.27 212.185,1202.27 "/>
<polyline clip-path="url(#clip460)" style="stroke:#000000; stroke-linecap:round; stroke-linejoin:round; stroke-width:4; stroke-opacity:1; fill:none" points="193.288,998.17 212.185,998.17 "/>
<polyline clip-path="url(#clip460)" style="stroke:#000000; stroke-linecap:round; stroke-linejoin:round; stroke-width:4; stroke-opacity:1; fill:none" points="193.288,794.068 212.185,794.068 "/>
<polyline clip-path="url(#clip460)" style="stroke:#000000; stroke-linecap:round; stroke-linejoin:round; stroke-width:4; stroke-opacity:1; fill:none" points="193.288,589.966 212.185,589.966 "/>
<polyline clip-path="url(#clip460)" style="stroke:#000000; stroke-linecap:round; stroke-linejoin:round; stroke-width:4; stroke-opacity:1; fill:none" points="193.288,385.864 212.185,385.864 "/>
<polyline clip-path="url(#clip460)" style="stroke:#000000; stroke-linecap:round; stroke-linejoin:round; stroke-width:4; stroke-opacity:1; fill:none" points="193.288,181.762 212.185,181.762 "/>
<path clip-path="url(#clip460)" d="M50.9921 1406.83 L80.6679 1406.83 L80.6679 1410.76 L50.9921 1410.76 L50.9921 1406.83 Z" fill="#000000" fill-rule="nonzero" fill-opacity="1" /><path clip-path="url(#clip460)" d="M100.76 1392.17 Q97.1493 1392.17 95.3206 1395.74 Q93.515 1399.28 93.515 1406.41 Q93.515 1413.52 95.3206 1417.08 Q97.1493 1420.62 100.76 1420.62 Q104.395 1420.62 106.2 1417.08 Q108.029 1413.52 108.029 1406.41 Q108.029 1399.28 106.2 1395.74 Q104.395 1392.17 100.76 1392.17 M100.76 1388.47 Q106.571 1388.47 109.626 1393.08 Q112.705 1397.66 112.705 1406.41 Q112.705 1415.14 109.626 1419.74 Q106.571 1424.33 100.76 1424.33 Q94.9502 1424.33 91.8715 1419.74 Q88.816 1415.14 88.816 1406.41 Q88.816 1397.66 91.8715 1393.08 Q94.9502 1388.47 100.76 1388.47 Z" fill="#000000" fill-rule="nonzero" fill-opacity="1" /><path clip-path="url(#clip460)" d="M120.922 1417.77 L125.807 1417.77 L125.807 1423.65 L120.922 1423.65 L120.922 1417.77 Z" fill="#000000" fill-rule="nonzero" fill-opacity="1" /><path clip-path="url(#clip460)" d="M150.158 1405.02 Q153.515 1405.74 155.39 1408.01 Q157.288 1410.27 157.288 1413.61 Q157.288 1418.72 153.769 1421.52 Q150.251 1424.33 143.769 1424.33 Q141.593 1424.33 139.279 1423.89 Q136.987 1423.47 134.533 1422.61 L134.533 1418.1 Q136.478 1419.23 138.793 1419.81 Q141.107 1420.39 143.631 1420.39 Q148.029 1420.39 150.32 1418.65 Q152.635 1416.92 152.635 1413.61 Q152.635 1410.55 150.482 1408.84 Q148.353 1407.1 144.533 1407.1 L140.506 1407.1 L140.506 1403.26 L144.718 1403.26 Q148.168 1403.26 149.996 1401.9 Q151.825 1400.51 151.825 1397.91 Q151.825 1395.25 149.927 1393.84 Q148.052 1392.4 144.533 1392.4 Q142.612 1392.4 140.413 1392.82 Q138.214 1393.24 135.575 1394.12 L135.575 1389.95 Q138.237 1389.21 140.552 1388.84 Q142.89 1388.47 144.95 1388.47 Q150.274 1388.47 153.376 1390.9 Q156.478 1393.31 156.478 1397.43 Q156.478 1400.3 154.834 1402.29 Q153.191 1404.26 150.158 1405.02 Z" fill="#000000" fill-rule="nonzero" fill-opacity="1" /><path clip-path="url(#clip460)" d="M51.9412 1202.72 L81.617 1202.72 L81.617 1206.66 L51.9412 1206.66 L51.9412 1202.72 Z" fill="#000000" fill-rule="nonzero" fill-opacity="1" /><path clip-path="url(#clip460)" d="M101.709 1188.07 Q98.0984 1188.07 96.2697 1191.64 Q94.4641 1195.18 94.4641 1202.31 Q94.4641 1209.41 96.2697 1212.98 Q98.0984 1216.52 101.709 1216.52 Q105.344 1216.52 107.149 1212.98 Q108.978 1209.41 108.978 1202.31 Q108.978 1195.18 107.149 1191.64 Q105.344 1188.07 101.709 1188.07 M101.709 1184.37 Q107.52 1184.37 110.575 1188.97 Q113.654 1193.56 113.654 1202.31 Q113.654 1211.03 110.575 1215.64 Q107.52 1220.22 101.709 1220.22 Q95.8993 1220.22 92.8206 1215.64 Q89.7651 1211.03 89.7651 1202.31 Q89.7651 1193.56 92.8206 1188.97 Q95.8993 1184.37 101.709 1184.37 Z" fill="#000000" fill-rule="nonzero" fill-opacity="1" /><path clip-path="url(#clip460)" d="M121.871 1213.67 L126.756 1213.67 L126.756 1219.55 L121.871 1219.55 L121.871 1213.67 Z" fill="#000000" fill-rule="nonzero" fill-opacity="1" /><path clip-path="url(#clip460)" d="M140.968 1215.62 L157.288 1215.62 L157.288 1219.55 L135.344 1219.55 L135.344 1215.62 Q138.006 1212.86 142.589 1208.23 Q147.195 1203.58 148.376 1202.24 Q150.621 1199.71 151.501 1197.98 Q152.404 1196.22 152.404 1194.53 Q152.404 1191.77 150.459 1190.04 Q148.538 1188.3 145.436 1188.3 Q143.237 1188.3 140.783 1189.07 Q138.353 1189.83 135.575 1191.38 L135.575 1186.66 Q138.399 1185.52 140.853 1184.95 Q143.306 1184.37 145.343 1184.37 Q150.714 1184.37 153.908 1187.05 Q157.103 1189.74 157.103 1194.23 Q157.103 1196.36 156.292 1198.28 Q155.505 1200.18 153.399 1202.77 Q152.82 1203.44 149.718 1206.66 Q146.617 1209.85 140.968 1215.62 Z" fill="#000000" fill-rule="nonzero" fill-opacity="1" /><path clip-path="url(#clip460)" d="M51.5708 998.622 L81.2466 998.622 L81.2466 1002.56 L51.5708 1002.56 L51.5708 998.622 Z" fill="#000000" fill-rule="nonzero" fill-opacity="1" /><path clip-path="url(#clip460)" d="M101.339 983.969 Q97.728 983.969 95.8993 987.534 Q94.0937 991.075 94.0937 998.205 Q94.0937 1005.31 95.8993 1008.88 Q97.728 1012.42 101.339 1012.42 Q104.973 1012.42 106.779 1008.88 Q108.608 1005.31 108.608 998.205 Q108.608 991.075 106.779 987.534 Q104.973 983.969 101.339 983.969 M101.339 980.265 Q107.149 980.265 110.205 984.872 Q113.283 989.455 113.283 998.205 Q113.283 1006.93 110.205 1011.54 Q107.149 1016.12 101.339 1016.12 Q95.5289 1016.12 92.4502 1011.54 Q89.3947 1006.93 89.3947 998.205 Q89.3947 989.455 92.4502 984.872 Q95.5289 980.265 101.339 980.265 Z" fill="#000000" fill-rule="nonzero" fill-opacity="1" /><path clip-path="url(#clip460)" d="M121.501 1009.57 L126.385 1009.57 L126.385 1015.45 L121.501 1015.45 L121.501 1009.57 Z" fill="#000000" fill-rule="nonzero" fill-opacity="1" /><path clip-path="url(#clip460)" d="M137.381 1011.52 L145.019 1011.52 L145.019 985.149 L136.709 986.816 L136.709 982.557 L144.973 980.89 L149.649 980.89 L149.649 1011.52 L157.288 1011.52 L157.288 1015.45 L137.381 1015.45 L137.381 1011.52 Z" fill="#000000" fill-rule="nonzero" fill-opacity="1" /><path clip-path="url(#clip460)" d="M100.112 779.867 Q96.5011 779.867 94.6724 783.432 Q92.8669 786.973 92.8669 794.103 Q92.8669 801.209 94.6724 804.774 Q96.5011 808.316 100.112 808.316 Q103.746 808.316 105.552 804.774 Q107.381 801.209 107.381 794.103 Q107.381 786.973 105.552 783.432 Q103.746 779.867 100.112 779.867 M100.112 776.163 Q105.922 776.163 108.978 780.77 Q112.057 785.353 112.057 794.103 Q112.057 802.83 108.978 807.436 Q105.922 812.02 100.112 812.02 Q94.3021 812.02 91.2234 807.436 Q88.1679 802.83 88.1679 794.103 Q88.1679 785.353 91.2234 780.77 Q94.3021 776.163 100.112 776.163 Z" fill="#000000" fill-rule="nonzero" fill-opacity="1" /><path clip-path="url(#clip460)" d="M120.274 805.469 L125.158 805.469 L125.158 811.348 L120.274 811.348 L120.274 805.469 Z" fill="#000000" fill-rule="nonzero" fill-opacity="1" /><path clip-path="url(#clip460)" d="M145.343 779.867 Q141.732 779.867 139.904 783.432 Q138.098 786.973 138.098 794.103 Q138.098 801.209 139.904 804.774 Q141.732 808.316 145.343 808.316 Q148.978 808.316 150.783 804.774 Q152.612 801.209 152.612 794.103 Q152.612 786.973 150.783 783.432 Q148.978 779.867 145.343 779.867 M145.343 776.163 Q151.154 776.163 154.209 780.77 Q157.288 785.353 157.288 794.103 Q157.288 802.83 154.209 807.436 Q151.154 812.02 145.343 812.02 Q139.533 812.02 136.455 807.436 Q133.399 802.83 133.399 794.103 Q133.399 785.353 136.455 780.77 Q139.533 776.163 145.343 776.163 Z" fill="#000000" fill-rule="nonzero" fill-opacity="1" /><path clip-path="url(#clip460)" d="M101.339 575.765 Q97.728 575.765 95.8993 579.33 Q94.0937 582.871 94.0937 590.001 Q94.0937 597.107 95.8993 600.672 Q97.728 604.214 101.339 604.214 Q104.973 604.214 106.779 600.672 Q108.608 597.107 108.608 590.001 Q108.608 582.871 106.779 579.33 Q104.973 575.765 101.339 575.765 M101.339 572.061 Q107.149 572.061 110.205 576.668 Q113.283 581.251 113.283 590.001 Q113.283 598.728 110.205 603.334 Q107.149 607.918 101.339 607.918 Q95.5289 607.918 92.4502 603.334 Q89.3947 598.728 89.3947 590.001 Q89.3947 581.251 92.4502 576.668 Q95.5289 572.061 101.339 572.061 Z" fill="#000000" fill-rule="nonzero" fill-opacity="1" /><path clip-path="url(#clip460)" d="M121.501 601.367 L126.385 601.367 L126.385 607.246 L121.501 607.246 L121.501 601.367 Z" fill="#000000" fill-rule="nonzero" fill-opacity="1" /><path clip-path="url(#clip460)" d="M137.381 603.311 L145.019 603.311 L145.019 576.946 L136.709 578.612 L136.709 574.353 L144.973 572.686 L149.649 572.686 L149.649 603.311 L157.288 603.311 L157.288 607.246 L137.381 607.246 L137.381 603.311 Z" fill="#000000" fill-rule="nonzero" fill-opacity="1" /><path clip-path="url(#clip460)" d="M101.709 371.663 Q98.0984 371.663 96.2697 375.228 Q94.4641 378.769 94.4641 385.899 Q94.4641 393.006 96.2697 396.57 Q98.0984 400.112 101.709 400.112 Q105.344 400.112 107.149 396.57 Q108.978 393.006 108.978 385.899 Q108.978 378.769 107.149 375.228 Q105.344 371.663 101.709 371.663 M101.709 367.959 Q107.52 367.959 110.575 372.566 Q113.654 377.149 113.654 385.899 Q113.654 394.626 110.575 399.232 Q107.52 403.816 101.709 403.816 Q95.8993 403.816 92.8206 399.232 Q89.7651 394.626 89.7651 385.899 Q89.7651 377.149 92.8206 372.566 Q95.8993 367.959 101.709 367.959 Z" fill="#000000" fill-rule="nonzero" fill-opacity="1" /><path clip-path="url(#clip460)" d="M121.871 397.265 L126.756 397.265 L126.756 403.144 L121.871 403.144 L121.871 397.265 Z" fill="#000000" fill-rule="nonzero" fill-opacity="1" /><path clip-path="url(#clip460)" d="M140.968 399.209 L157.288 399.209 L157.288 403.144 L135.344 403.144 L135.344 399.209 Q138.006 396.455 142.589 391.825 Q147.195 387.172 148.376 385.83 Q150.621 383.307 151.501 381.57 Q152.404 379.811 152.404 378.121 Q152.404 375.367 150.459 373.631 Q148.538 371.895 145.436 371.895 Q143.237 371.895 140.783 372.658 Q138.353 373.422 135.575 374.973 L135.575 370.251 Q138.399 369.117 140.853 368.538 Q143.306 367.959 145.343 367.959 Q150.714 367.959 153.908 370.645 Q157.103 373.33 157.103 377.82 Q157.103 379.95 156.292 381.871 Q155.505 383.769 153.399 386.362 Q152.82 387.033 149.718 390.251 Q146.617 393.445 140.968 399.209 Z" fill="#000000" fill-rule="nonzero" fill-opacity="1" /><path clip-path="url(#clip460)" d="M100.76 167.561 Q97.1493 167.561 95.3206 171.126 Q93.515 174.668 93.515 181.797 Q93.515 188.904 95.3206 192.468 Q97.1493 196.01 100.76 196.01 Q104.395 196.01 106.2 192.468 Q108.029 188.904 108.029 181.797 Q108.029 174.668 106.2 171.126 Q104.395 167.561 100.76 167.561 M100.76 163.857 Q106.571 163.857 109.626 168.464 Q112.705 173.047 112.705 181.797 Q112.705 190.524 109.626 195.13 Q106.571 199.714 100.76 199.714 Q94.9502 199.714 91.8715 195.13 Q88.816 190.524 88.816 181.797 Q88.816 173.047 91.8715 168.464 Q94.9502 163.857 100.76 163.857 Z" fill="#000000" fill-rule="nonzero" fill-opacity="1" /><path clip-path="url(#clip460)" d="M120.922 193.163 L125.807 193.163 L125.807 199.042 L120.922 199.042 L120.922 193.163 Z" fill="#000000" fill-rule="nonzero" fill-opacity="1" /><path clip-path="url(#clip460)" d="M150.158 180.408 Q153.515 181.126 155.39 183.394 Q157.288 185.663 157.288 188.996 Q157.288 194.112 153.769 196.913 Q150.251 199.714 143.769 199.714 Q141.593 199.714 139.279 199.274 Q136.987 198.857 134.533 198.001 L134.533 193.487 Q136.478 194.621 138.793 195.2 Q141.107 195.779 143.631 195.779 Q148.029 195.779 150.32 194.042 Q152.635 192.306 152.635 188.996 Q152.635 185.941 150.482 184.228 Q148.353 182.492 144.533 182.492 L140.506 182.492 L140.506 178.649 L144.718 178.649 Q148.168 178.649 149.996 177.283 Q151.825 175.894 151.825 173.302 Q151.825 170.64 149.927 169.228 Q148.052 167.793 144.533 167.793 Q142.612 167.793 140.413 168.209 Q138.214 168.626 135.575 169.506 L135.575 165.339 Q138.237 164.598 140.552 164.228 Q142.89 163.857 144.95 163.857 Q150.274 163.857 153.376 166.288 Q156.478 168.695 156.478 172.816 Q156.478 175.686 154.834 177.677 Q153.191 179.644 150.158 180.408 Z" fill="#000000" fill-rule="nonzero" fill-opacity="1" /><path clip-path="url(#clip462)" d="M2291.64 836.458 L2278.52 831.541 L2254.55 824.392 L2223.03 816.029 L2186.21 806.504 L2145.18 796.201 L2100.68 785.39 L2053.28 774.284 L2003.41 763.052 L1951.47 751.837 L1897.78 740.757 L1842.63 729.914 L1786.27 719.396 L1728.95 709.28 L1670.87 699.631 L1612.23 690.508 L1553.22 681.964 L1494.03 674.043 L1434.81 666.785 L1375.72 660.226 L1316.91 654.397 L1258.53 649.323 L1200.72 645.027 L1143.61 641.526 L1087.18 638.858 L1031.32 637.156 L976.254 636.592 L922.328 637.224 L869.735 639.024 L818.6 641.947 L769.043 645.944 L721.181 650.959 L675.125 656.929 L630.982 663.785 L588.856 671.452 L548.843 679.853 L511.037 688.906 L475.525 698.526 L442.392 708.627 L411.716 719.12 L383.57 729.92 L358.024 740.94 L335.144 752.097 L314.992 763.311 L297.626 774.507 L283.1 785.615 L271.466 796.574 L262.775 807.329 L257.073 817.837 L254.405 828.062 L254.795 837.91 L258.206 847.156 L264.548 855.593 L273.728 863.167 L285.666 869.902 L300.279 875.82 L317.485 880.947 L337.201 885.309 L359.347 888.932 L383.842 891.848 L410.607 894.087 L439.562 895.684 L470.631 896.675 L503.737 897.1 L538.806 897.001 L575.764 896.424 L614.54 895.416 L655.061 894.031 L697.258 892.321 L741.061 890.346 L786.4 888.164 L833.204 885.838 L881.403 883.433 L930.924 881.013 L981.693 878.644 L1033.7 876.388 L1087.07 874.23 L1141.81 872.056 L1197.59 869.795 L1254.14 867.461 L1311.34 865.094 L1369.09 862.729 L1427.23 860.401 L1485.65 858.139 L1544.2 855.972 L1602.71 853.921 L1661.02 852.007 L1718.95 850.243 L1776.31 848.639 L1832.87 847.202 L1888.4 845.932 L1942.63 844.826 L1995.27 843.88 L2045.97 843.082 L2094.33 842.421 L2139.88 841.885 L2182 841.459 L2219.91 841.129 L2252.44 840.883 L2277.41 840.08 L2291.34 838.72 L2291.64 836.458 L2291.64 794.068 L2291.34 794.068 L2277.41 794.068 L2252.44 794.068 L2219.91 794.068 L2182 794.068 L2139.88 794.068 L2094.33 794.068 L2045.97 794.068 L1995.27 794.068 L1942.63 794.068 L1888.4 794.068 L1832.87 794.068 L1776.31 794.068 L1718.95 794.068 L1661.02 794.068 L1602.71 794.068 L1544.2 794.068 L1485.65 794.068 L1427.23 794.068 L1369.09 794.068 L1311.34 794.068 L1254.14 794.068 L1197.59 794.068 L1141.81 794.068 L1087.07 794.068 L1033.7 794.068 L981.693 794.068 L930.924 794.068 L881.403 794.068 L833.204 794.068 L786.4 794.068 L741.061 794.068 L697.258 794.068 L655.061 794.068 L614.54 794.068 L575.764 794.068 L538.806 794.068 L503.737 794.068 L470.631 794.068 L439.562 794.068 L410.607 794.068 L383.842 794.068 L359.347 794.068 L337.201 794.068 L317.485 794.068 L300.279 794.068 L285.666 794.068 L273.728 794.068 L264.548 794.068 L258.206 794.068 L254.795 794.068 L254.405 794.068 L257.073 794.068 L262.775 794.068 L271.466 794.068 L283.1 794.068 L297.626 794.068 L314.992 794.068 L335.144 794.068 L358.024 794.068 L383.57 794.068 L411.716 794.068 L442.392 794.068 L475.525 794.068 L511.037 794.068 L548.843 794.068 L588.856 794.068 L630.982 794.068 L675.125 794.068 L721.181 794.068 L769.043 794.068 L818.6 794.068 L869.735 794.068 L922.328 794.068 L976.254 794.068 L1031.32 794.068 L1087.18 794.068 L1143.61 794.068 L1200.72 794.068 L1258.53 794.068 L1316.91 794.068 L1375.72 794.068 L1434.81 794.068 L1494.03 794.068 L1553.22 794.068 L1612.23 794.068 L1670.87 794.068 L1728.95 794.068 L1786.27 794.068 L1842.63 794.068 L1897.78 794.068 L1951.47 794.068 L2003.41 794.068 L2053.28 794.068 L2100.68 794.068 L2145.18 794.068 L2186.21 794.068 L2223.03 794.068 L2254.55 794.068 L2278.52 794.068 L2291.64 794.068  Z" fill="#97b476" fill-rule="evenodd" fill-opacity="1"/>
<polyline clip-path="url(#clip462)" style="stroke:#97b476; stroke-linecap:round; stroke-linejoin:round; stroke-width:4; stroke-opacity:1; fill:none" points="2291.64,836.458 2278.52,831.541 2254.55,824.392 2223.03,816.029 2186.21,806.504 2145.18,796.201 2100.68,785.39 2053.28,774.284 2003.41,763.052 1951.47,751.837 1897.78,740.757 1842.63,729.914 1786.27,719.396 1728.95,709.28 1670.87,699.631 1612.23,690.508 1553.22,681.964 1494.03,674.043 1434.81,666.785 1375.72,660.226 1316.91,654.397 1258.53,649.323 1200.72,645.027 1143.61,641.526 1087.18,638.858 1031.32,637.156 976.254,636.592 922.328,637.224 869.735,639.024 818.6,641.947 769.043,645.944 721.181,650.959 675.125,656.929 630.982,663.785 588.856,671.452 548.843,679.853 511.037,688.906 475.525,698.526 442.392,708.627 411.716,719.12 383.57,729.92 358.024,740.94 335.144,752.097 314.992,763.311 297.626,774.507 283.1,785.615 271.466,796.574 262.775,807.329 257.073,817.837 254.405,828.062 254.795,837.91 258.206,847.156 264.548,855.593 273.728,863.167 285.666,869.902 300.279,875.82 317.485,880.947 337.201,885.309 359.347,888.932 383.842,891.848 410.607,894.087 439.562,895.684 470.631,896.675 503.737,897.1 538.806,897.001 575.764,896.424 614.54,895.416 655.061,894.031 697.258,892.321 741.061,890.346 786.4,888.164 833.204,885.838 881.403,883.433 930.924,881.013 981.693,878.644 1033.7,876.388 1087.07,874.23 1141.81,872.056 1197.59,869.795 1254.14,867.461 1311.34,865.094 1369.09,862.729 1427.23,860.401 1485.65,858.139 1544.2,855.972 1602.71,853.921 1661.02,852.007 1718.95,850.243 1776.31,848.639 1832.87,847.202 1888.4,845.932 1942.63,844.826 1995.27,843.88 2045.97,843.082 2094.33,842.421 2139.88,841.885 2182,841.459 2219.91,841.129 2252.44,840.883 2277.41,840.08 2291.34,838.72 2291.64,836.458 "/>
</svg>
