<?xml version="1.0" encoding="utf-8"?>
<svg xmlns="http://www.w3.org/2000/svg" xmlns:xlink="http://www.w3.org/1999/xlink" width="600" height="400" viewBox="0 0 2400 1600">
<defs>
  <clipPath id="clip700">
    <rect x="0" y="0" width="2400" height="1600"/>
  </clipPath>
</defs>
<path clip-path="url(#clip700)" d="M0 1600 L2400 1600 L2400 0 L0 0  Z" fill="#ffffff" fill-rule="evenodd" fill-opacity="1"/>
<defs>
  <clipPath id="clip701">
    <rect x="480" y="0" width="1681" height="1600"/>
  </clipPath>
</defs>
<path clip-path="url(#clip700)" d="M186.274 1486.45 L2352.76 1486.45 L2352.76 47.2441 L186.274 47.2441  Z" fill="#ffffff" fill-rule="evenodd" fill-opacity="1"/>
<defs>
  <clipPath id="clip702">
    <rect x="186" y="47" width="2167" height="1440"/>
  </clipPath>
</defs>
<polyline clip-path="url(#clip700)" style="stroke:#000000; stroke-linecap:round; stroke-linejoin:round; stroke-width:4; stroke-opacity:1; fill:none" points="186.274,1486.45 2352.76,1486.45 "/>
<polyline clip-path="url(#clip700)" style="stroke:#000000; stroke-linecap:round; stroke-linejoin:round; stroke-width:4; stroke-opacity:1; fill:none" points="643.491,1486.45 643.491,1467.55 "/>
<polyline clip-path="url(#clip700)" style="stroke:#000000; stroke-linecap:round; stroke-linejoin:round; stroke-width:4; stroke-opacity:1; fill:none" points="1212.6,1486.45 1212.6,1467.55 "/>
<polyline clip-path="url(#clip700)" style="stroke:#000000; stroke-linecap:round; stroke-linejoin:round; stroke-width:4; stroke-opacity:1; fill:none" points="1781.72,1486.45 1781.72,1467.55 "/>
<polyline clip-path="url(#clip700)" style="stroke:#000000; stroke-linecap:round; stroke-linejoin:round; stroke-width:4; stroke-opacity:1; fill:none" points="2350.83,1486.45 2350.83,1467.55 "/>
<path clip-path="url(#clip700)" d="M620.876 1517.37 Q617.265 1517.37 615.436 1520.93 Q613.63 1524.47 613.63 1531.6 Q613.63 1538.71 615.436 1542.27 Q617.265 1545.82 620.876 1545.82 Q624.51 1545.82 626.316 1542.27 Q628.144 1538.71 628.144 1531.6 Q628.144 1524.47 626.316 1520.93 Q624.51 1517.37 620.876 1517.37 M620.876 1513.66 Q626.686 1513.66 629.741 1518.27 Q632.82 1522.85 632.82 1531.6 Q632.82 1540.33 629.741 1544.94 Q626.686 1549.52 620.876 1549.52 Q615.066 1549.52 611.987 1544.94 Q608.931 1540.33 608.931 1531.6 Q608.931 1522.85 611.987 1518.27 Q615.066 1513.66 620.876 1513.66 Z" fill="#000000" fill-rule="nonzero" fill-opacity="1" /><path clip-path="url(#clip700)" d="M641.038 1542.97 L645.922 1542.97 L645.922 1548.85 L641.038 1548.85 L641.038 1542.97 Z" fill="#000000" fill-rule="nonzero" fill-opacity="1" /><path clip-path="url(#clip700)" d="M666.107 1517.37 Q662.496 1517.37 660.667 1520.93 Q658.862 1524.47 658.862 1531.6 Q658.862 1538.71 660.667 1542.27 Q662.496 1545.82 666.107 1545.82 Q669.741 1545.82 671.547 1542.27 Q673.375 1538.71 673.375 1531.6 Q673.375 1524.47 671.547 1520.93 Q669.741 1517.37 666.107 1517.37 M666.107 1513.66 Q671.917 1513.66 674.973 1518.27 Q678.051 1522.85 678.051 1531.6 Q678.051 1540.33 674.973 1544.94 Q671.917 1549.52 666.107 1549.52 Q660.297 1549.52 657.218 1544.94 Q654.163 1540.33 654.163 1531.6 Q654.163 1522.85 657.218 1518.27 Q660.297 1513.66 666.107 1513.66 Z" fill="#000000" fill-rule="nonzero" fill-opacity="1" /><path clip-path="url(#clip700)" d="M1190.49 1517.37 Q1186.87 1517.37 1185.05 1520.93 Q1183.24 1524.47 1183.24 1531.6 Q1183.24 1538.71 1185.05 1542.27 Q1186.87 1545.82 1190.49 1545.82 Q1194.12 1545.82 1195.93 1542.27 Q1197.75 1538.71 1197.75 1531.6 Q1197.75 1524.47 1195.93 1520.93 Q1194.12 1517.37 1190.49 1517.37 M1190.49 1513.66 Q1196.3 1513.66 1199.35 1518.27 Q1202.43 1522.85 1202.43 1531.6 Q1202.43 1540.33 1199.35 1544.94 Q1196.3 1549.52 1190.49 1549.52 Q1184.68 1549.52 1181.6 1544.94 Q1178.54 1540.33 1178.54 1531.6 Q1178.54 1522.85 1181.6 1518.27 Q1184.68 1513.66 1190.49 1513.66 Z" fill="#000000" fill-rule="nonzero" fill-opacity="1" /><path clip-path="url(#clip700)" d="M1210.65 1542.97 L1215.53 1542.97 L1215.53 1548.85 L1210.65 1548.85 L1210.65 1542.97 Z" fill="#000000" fill-rule="nonzero" fill-opacity="1" /><path clip-path="url(#clip700)" d="M1225.76 1514.29 L1244.12 1514.29 L1244.12 1518.22 L1230.05 1518.22 L1230.05 1526.7 Q1231.06 1526.35 1232.08 1526.19 Q1233.1 1526 1234.12 1526 Q1239.91 1526 1243.29 1529.17 Q1246.67 1532.34 1246.67 1537.76 Q1246.67 1543.34 1243.19 1546.44 Q1239.72 1549.52 1233.4 1549.52 Q1231.23 1549.52 1228.96 1549.15 Q1226.71 1548.78 1224.31 1548.04 L1224.31 1543.34 Q1226.39 1544.47 1228.61 1545.03 Q1230.83 1545.58 1233.31 1545.58 Q1237.31 1545.58 1239.65 1543.48 Q1241.99 1541.37 1241.99 1537.76 Q1241.99 1534.15 1239.65 1532.04 Q1237.31 1529.94 1233.31 1529.94 Q1231.43 1529.94 1229.56 1530.35 Q1227.71 1530.77 1225.76 1531.65 L1225.76 1514.29 Z" fill="#000000" fill-rule="nonzero" fill-opacity="1" /><path clip-path="url(#clip700)" d="M1748.87 1544.91 L1756.51 1544.91 L1756.51 1518.55 L1748.2 1520.21 L1748.2 1515.95 L1756.46 1514.29 L1761.14 1514.29 L1761.14 1544.91 L1768.78 1544.91 L1768.78 1548.85 L1748.87 1548.85 L1748.87 1544.91 Z" fill="#000000" fill-rule="nonzero" fill-opacity="1" /><path clip-path="url(#clip700)" d="M1778.22 1542.97 L1783.1 1542.97 L1783.1 1548.85 L1778.22 1548.85 L1778.22 1542.97 Z" fill="#000000" fill-rule="nonzero" fill-opacity="1" /><path clip-path="url(#clip700)" d="M1803.29 1517.37 Q1799.68 1517.37 1797.85 1520.93 Q1796.04 1524.47 1796.04 1531.6 Q1796.04 1538.71 1797.85 1542.27 Q1799.68 1545.82 1803.29 1545.82 Q1806.92 1545.82 1808.73 1542.27 Q1810.56 1538.71 1810.56 1531.6 Q1810.56 1524.47 1808.73 1520.93 Q1806.92 1517.37 1803.29 1517.37 M1803.29 1513.66 Q1809.1 1513.66 1812.16 1518.27 Q1815.23 1522.85 1815.23 1531.6 Q1815.23 1540.33 1812.16 1544.94 Q1809.1 1549.52 1803.29 1549.52 Q1797.48 1549.52 1794.4 1544.94 Q1791.35 1540.33 1791.35 1531.6 Q1791.35 1522.85 1794.4 1518.27 Q1797.48 1513.66 1803.29 1513.66 Z" fill="#000000" fill-rule="nonzero" fill-opacity="1" /><path clip-path="url(#clip700)" d="M2318.48 1544.91 L2326.12 1544.91 L2326.12 1518.55 L2317.81 1520.21 L2317.81 1515.95 L2326.07 1514.29 L2330.75 1514.29 L2330.75 1544.91 L2338.39 1544.91 L2338.39 1548.85 L2318.48 1548.85 L2318.48 1544.91 Z" fill="#000000" fill-rule="nonzero" fill-opacity="1" /><path clip-path="url(#clip700)" d="M2347.83 1542.97 L2352.71 1542.97 L2352.71 1548.85 L2347.83 1548.85 L2347.83 1542.97 Z" fill="#000000" fill-rule="nonzero" fill-opacity="1" /><path clip-path="url(#clip700)" d="M2362.95 1514.29 L2381.3 1514.29 L2381.3 1518.22 L2367.23 1518.22 L2367.23 1526.7 Q2368.25 1526.35 2369.27 1526.19 Q2370.28 1526 2371.3 1526 Q2377.09 1526 2380.47 1529.17 Q2383.85 1532.34 2383.85 1537.76 Q2383.85 1543.34 2380.38 1546.44 Q2376.9 1549.52 2370.59 1549.52 Q2368.41 1549.52 2366.14 1549.15 Q2363.9 1548.78 2361.49 1548.04 L2361.49 1543.34 Q2363.57 1544.47 2365.79 1545.03 Q2368.02 1545.58 2370.49 1545.58 Q2374.5 1545.58 2376.84 1543.48 Q2379.17 1541.37 2379.17 1537.76 Q2379.17 1534.15 2376.84 1532.04 Q2374.5 1529.94 2370.49 1529.94 Q2368.62 1529.94 2366.74 1530.35 Q2364.89 1530.77 2362.95 1531.65 L2362.95 1514.29 Z" fill="#000000" fill-rule="nonzero" fill-opacity="1" /><polyline clip-path="url(#clip700)" style="stroke:#000000; stroke-linecap:round; stroke-linejoin:round; stroke-width:4; stroke-opacity:1; fill:none" points="186.274,1486.45 186.274,47.2441 "/>
<polyline clip-path="url(#clip700)" style="stroke:#000000; stroke-linecap:round; stroke-linejoin:round; stroke-width:4; stroke-opacity:1; fill:none" points="186.274,1445.72 205.172,1445.72 "/>
<polyline clip-path="url(#clip700)" style="stroke:#000000; stroke-linecap:round; stroke-linejoin:round; stroke-width:4; stroke-opacity:1; fill:none" points="186.274,1161.16 205.172,1161.16 "/>
<polyline clip-path="url(#clip700)" style="stroke:#000000; stroke-linecap:round; stroke-linejoin:round; stroke-width:4; stroke-opacity:1; fill:none" points="186.274,876.603 205.172,876.603 "/>
<polyline clip-path="url(#clip700)" style="stroke:#000000; stroke-linecap:round; stroke-linejoin:round; stroke-width:4; stroke-opacity:1; fill:none" points="186.274,592.047 205.172,592.047 "/>
<polyline clip-path="url(#clip700)" style="stroke:#000000; stroke-linecap:round; stroke-linejoin:round; stroke-width:4; stroke-opacity:1; fill:none" points="186.274,307.491 205.172,307.491 "/>
<path clip-path="url(#clip700)" d="M62.9365 1431.51 Q59.3254 1431.51 57.4967 1435.08 Q55.6912 1438.62 55.6912 1445.75 Q55.6912 1452.86 57.4967 1456.42 Q59.3254 1459.96 62.9365 1459.96 Q66.5707 1459.96 68.3763 1456.42 Q70.205 1452.86 70.205 1445.75 Q70.205 1438.62 68.3763 1435.08 Q66.5707 1431.51 62.9365 1431.51 M62.9365 1427.81 Q68.7467 1427.81 71.8022 1432.42 Q74.8809 1437 74.8809 1445.75 Q74.8809 1454.48 71.8022 1459.08 Q68.7467 1463.67 62.9365 1463.67 Q57.1264 1463.67 54.0477 1459.08 Q50.9921 1454.48 50.9921 1445.75 Q50.9921 1437 54.0477 1432.42 Q57.1264 1427.81 62.9365 1427.81 Z" fill="#000000" fill-rule="nonzero" fill-opacity="1" /><path clip-path="url(#clip700)" d="M83.0984 1457.12 L87.9827 1457.12 L87.9827 1463 L83.0984 1463 L83.0984 1457.12 Z" fill="#000000" fill-rule="nonzero" fill-opacity="1" /><path clip-path="url(#clip700)" d="M108.168 1431.51 Q104.557 1431.51 102.728 1435.08 Q100.922 1438.62 100.922 1445.75 Q100.922 1452.86 102.728 1456.42 Q104.557 1459.96 108.168 1459.96 Q111.802 1459.96 113.608 1456.42 Q115.436 1452.86 115.436 1445.75 Q115.436 1438.62 113.608 1435.08 Q111.802 1431.51 108.168 1431.51 M108.168 1427.81 Q113.978 1427.81 117.033 1432.42 Q120.112 1437 120.112 1445.75 Q120.112 1454.48 117.033 1459.08 Q113.978 1463.67 108.168 1463.67 Q102.358 1463.67 99.2789 1459.08 Q96.2234 1454.48 96.2234 1445.75 Q96.2234 1437 99.2789 1432.42 Q102.358 1427.81 108.168 1427.81 Z" fill="#000000" fill-rule="nonzero" fill-opacity="1" /><path clip-path="url(#clip700)" d="M138.33 1431.51 Q134.719 1431.51 132.89 1435.08 Q131.084 1438.62 131.084 1445.75 Q131.084 1452.86 132.89 1456.42 Q134.719 1459.96 138.33 1459.96 Q141.964 1459.96 143.769 1456.42 Q145.598 1452.86 145.598 1445.75 Q145.598 1438.62 143.769 1435.08 Q141.964 1431.51 138.33 1431.51 M138.33 1427.81 Q144.14 1427.81 147.195 1432.42 Q150.274 1437 150.274 1445.75 Q150.274 1454.48 147.195 1459.08 Q144.14 1463.67 138.33 1463.67 Q132.519 1463.67 129.441 1459.08 Q126.385 1454.48 126.385 1445.75 Q126.385 1437 129.441 1432.42 Q132.519 1427.81 138.33 1427.81 Z" fill="#000000" fill-rule="nonzero" fill-opacity="1" /><path clip-path="url(#clip700)" d="M63.9319 1146.96 Q60.3208 1146.96 58.4921 1150.52 Q56.6865 1154.06 56.6865 1161.19 Q56.6865 1168.3 58.4921 1171.87 Q60.3208 1175.41 63.9319 1175.41 Q67.5661 1175.41 69.3717 1171.87 Q71.2004 1168.3 71.2004 1161.19 Q71.2004 1154.06 69.3717 1150.52 Q67.5661 1146.96 63.9319 1146.96 M63.9319 1143.25 Q69.742 1143.25 72.7976 1147.86 Q75.8763 1152.44 75.8763 1161.19 Q75.8763 1169.92 72.7976 1174.53 Q69.742 1179.11 63.9319 1179.11 Q58.1217 1179.11 55.043 1174.53 Q51.9875 1169.92 51.9875 1161.19 Q51.9875 1152.44 55.043 1147.86 Q58.1217 1143.25 63.9319 1143.25 Z" fill="#000000" fill-rule="nonzero" fill-opacity="1" /><path clip-path="url(#clip700)" d="M84.0938 1172.56 L88.978 1172.56 L88.978 1178.44 L84.0938 1178.44 L84.0938 1172.56 Z" fill="#000000" fill-rule="nonzero" fill-opacity="1" /><path clip-path="url(#clip700)" d="M103.191 1174.5 L119.51 1174.5 L119.51 1178.44 L97.566 1178.44 L97.566 1174.5 Q100.228 1171.75 104.811 1167.12 Q109.418 1162.47 110.598 1161.12 Q112.844 1158.6 113.723 1156.87 Q114.626 1155.11 114.626 1153.42 Q114.626 1150.66 112.682 1148.93 Q110.76 1147.19 107.658 1147.19 Q105.459 1147.19 103.006 1147.95 Q100.575 1148.72 97.7974 1150.27 L97.7974 1145.55 Q100.621 1144.41 103.075 1143.83 Q105.529 1143.25 107.566 1143.25 Q112.936 1143.25 116.131 1145.94 Q119.325 1148.62 119.325 1153.12 Q119.325 1155.25 118.515 1157.17 Q117.728 1159.06 115.621 1161.66 Q115.043 1162.33 111.941 1165.55 Q108.839 1168.74 103.191 1174.5 Z" fill="#000000" fill-rule="nonzero" fill-opacity="1" /><path clip-path="url(#clip700)" d="M129.371 1143.88 L147.728 1143.88 L147.728 1147.81 L133.654 1147.81 L133.654 1156.29 Q134.672 1155.94 135.691 1155.78 Q136.709 1155.59 137.728 1155.59 Q143.515 1155.59 146.894 1158.76 Q150.274 1161.93 150.274 1167.35 Q150.274 1172.93 146.802 1176.03 Q143.33 1179.11 137.01 1179.11 Q134.834 1179.11 132.566 1178.74 Q130.32 1178.37 127.913 1177.63 L127.913 1172.93 Q129.996 1174.06 132.219 1174.62 Q134.441 1175.18 136.918 1175.18 Q140.922 1175.18 143.26 1173.07 Q145.598 1170.96 145.598 1167.35 Q145.598 1163.74 143.26 1161.63 Q140.922 1159.53 136.918 1159.53 Q135.043 1159.53 133.168 1159.94 Q131.316 1160.36 129.371 1161.24 L129.371 1143.88 Z" fill="#000000" fill-rule="nonzero" fill-opacity="1" /><path clip-path="url(#clip700)" d="M62.9365 862.402 Q59.3254 862.402 57.4967 865.967 Q55.6912 869.508 55.6912 876.638 Q55.6912 883.745 57.4967 887.309 Q59.3254 890.851 62.9365 890.851 Q66.5707 890.851 68.3763 887.309 Q70.205 883.745 70.205 876.638 Q70.205 869.508 68.3763 865.967 Q66.5707 862.402 62.9365 862.402 M62.9365 858.698 Q68.7467 858.698 71.8022 863.305 Q74.8809 867.888 74.8809 876.638 Q74.8809 885.365 71.8022 889.971 Q68.7467 894.555 62.9365 894.555 Q57.1264 894.555 54.0477 889.971 Q50.9921 885.365 50.9921 876.638 Q50.9921 867.888 54.0477 863.305 Q57.1264 858.698 62.9365 858.698 Z" fill="#000000" fill-rule="nonzero" fill-opacity="1" /><path clip-path="url(#clip700)" d="M83.0984 888.004 L87.9827 888.004 L87.9827 893.883 L83.0984 893.883 L83.0984 888.004 Z" fill="#000000" fill-rule="nonzero" fill-opacity="1" /><path clip-path="url(#clip700)" d="M98.2141 859.323 L116.57 859.323 L116.57 863.259 L102.496 863.259 L102.496 871.731 Q103.515 871.383 104.534 871.221 Q105.552 871.036 106.571 871.036 Q112.358 871.036 115.737 874.208 Q119.117 877.379 119.117 882.795 Q119.117 888.374 115.645 891.476 Q112.172 894.555 105.853 894.555 Q103.677 894.555 101.409 894.184 Q99.1632 893.814 96.7558 893.073 L96.7558 888.374 Q98.8391 889.508 101.061 890.064 Q103.284 890.619 105.76 890.619 Q109.765 890.619 112.103 888.513 Q114.441 886.407 114.441 882.795 Q114.441 879.184 112.103 877.078 Q109.765 874.971 105.76 874.971 Q103.885 874.971 102.01 875.388 Q100.159 875.805 98.2141 876.684 L98.2141 859.323 Z" fill="#000000" fill-rule="nonzero" fill-opacity="1" /><path clip-path="url(#clip700)" d="M138.33 862.402 Q134.719 862.402 132.89 865.967 Q131.084 869.508 131.084 876.638 Q131.084 883.745 132.89 887.309 Q134.719 890.851 138.33 890.851 Q141.964 890.851 143.769 887.309 Q145.598 883.745 145.598 876.638 Q145.598 869.508 143.769 865.967 Q141.964 862.402 138.33 862.402 M138.33 858.698 Q144.14 858.698 147.195 863.305 Q150.274 867.888 150.274 876.638 Q150.274 885.365 147.195 889.971 Q144.14 894.555 138.33 894.555 Q132.519 894.555 129.441 889.971 Q126.385 885.365 126.385 876.638 Q126.385 867.888 129.441 863.305 Q132.519 858.698 138.33 858.698 Z" fill="#000000" fill-rule="nonzero" fill-opacity="1" /><path clip-path="url(#clip700)" d="M63.9319 577.846 Q60.3208 577.846 58.4921 581.411 Q56.6865 584.952 56.6865 592.082 Q56.6865 599.188 58.4921 602.753 Q60.3208 606.295 63.9319 606.295 Q67.5661 606.295 69.3717 602.753 Q71.2004 599.188 71.2004 592.082 Q71.2004 584.952 69.3717 581.411 Q67.5661 577.846 63.9319 577.846 M63.9319 574.142 Q69.742 574.142 72.7976 578.749 Q75.8763 583.332 75.8763 592.082 Q75.8763 600.809 72.7976 605.415 Q69.742 609.998 63.9319 609.998 Q58.1217 609.998 55.043 605.415 Q51.9875 600.809 51.9875 592.082 Q51.9875 583.332 55.043 578.749 Q58.1217 574.142 63.9319 574.142 Z" fill="#000000" fill-rule="nonzero" fill-opacity="1" /><path clip-path="url(#clip700)" d="M84.0938 603.448 L88.978 603.448 L88.978 609.327 L84.0938 609.327 L84.0938 603.448 Z" fill="#000000" fill-rule="nonzero" fill-opacity="1" /><path clip-path="url(#clip700)" d="M97.9826 574.767 L120.205 574.767 L120.205 576.758 L107.658 609.327 L102.774 609.327 L114.58 578.702 L97.9826 578.702 L97.9826 574.767 Z" fill="#000000" fill-rule="nonzero" fill-opacity="1" /><path clip-path="url(#clip700)" d="M129.371 574.767 L147.728 574.767 L147.728 578.702 L133.654 578.702 L133.654 587.175 Q134.672 586.827 135.691 586.665 Q136.709 586.48 137.728 586.48 Q143.515 586.48 146.894 589.651 Q150.274 592.823 150.274 598.239 Q150.274 603.818 146.802 606.92 Q143.33 609.998 137.01 609.998 Q134.834 609.998 132.566 609.628 Q130.32 609.258 127.913 608.517 L127.913 603.818 Q129.996 604.952 132.219 605.508 Q134.441 606.063 136.918 606.063 Q140.922 606.063 143.26 603.957 Q145.598 601.85 145.598 598.239 Q145.598 594.628 143.26 592.522 Q140.922 590.415 136.918 590.415 Q135.043 590.415 133.168 590.832 Q131.316 591.249 129.371 592.128 L129.371 574.767 Z" fill="#000000" fill-rule="nonzero" fill-opacity="1" /><path clip-path="url(#clip700)" d="M53.7467 320.836 L61.3856 320.836 L61.3856 294.47 L53.0754 296.137 L53.0754 291.878 L61.3393 290.211 L66.0152 290.211 L66.0152 320.836 L73.654 320.836 L73.654 324.771 L53.7467 324.771 L53.7467 320.836 Z" fill="#000000" fill-rule="nonzero" fill-opacity="1" /><path clip-path="url(#clip700)" d="M83.0984 318.891 L87.9827 318.891 L87.9827 324.771 L83.0984 324.771 L83.0984 318.891 Z" fill="#000000" fill-rule="nonzero" fill-opacity="1" /><path clip-path="url(#clip700)" d="M108.168 293.29 Q104.557 293.29 102.728 296.855 Q100.922 300.396 100.922 307.526 Q100.922 314.632 102.728 318.197 Q104.557 321.739 108.168 321.739 Q111.802 321.739 113.608 318.197 Q115.436 314.632 115.436 307.526 Q115.436 300.396 113.608 296.855 Q111.802 293.29 108.168 293.29 M108.168 289.586 Q113.978 289.586 117.033 294.192 Q120.112 298.776 120.112 307.526 Q120.112 316.253 117.033 320.859 Q113.978 325.442 108.168 325.442 Q102.358 325.442 99.2789 320.859 Q96.2234 316.253 96.2234 307.526 Q96.2234 298.776 99.2789 294.192 Q102.358 289.586 108.168 289.586 Z" fill="#000000" fill-rule="nonzero" fill-opacity="1" /><path clip-path="url(#clip700)" d="M138.33 293.29 Q134.719 293.29 132.89 296.855 Q131.084 300.396 131.084 307.526 Q131.084 314.632 132.89 318.197 Q134.719 321.739 138.33 321.739 Q141.964 321.739 143.769 318.197 Q145.598 314.632 145.598 307.526 Q145.598 300.396 143.769 296.855 Q141.964 293.29 138.33 293.29 M138.33 289.586 Q144.14 289.586 147.195 294.192 Q150.274 298.776 150.274 307.526 Q150.274 316.253 147.195 320.859 Q144.14 325.442 138.33 325.442 Q132.519 325.442 129.441 320.859 Q126.385 316.253 126.385 307.526 Q126.385 298.776 129.441 294.192 Q132.519 289.586 138.33 289.586 Z" fill="#000000" fill-rule="nonzero" fill-opacity="1" /><path clip-path="url(#clip702)" d="M1786.89 1321.55 L1797.24 1300.85 L1807.58 1280.16 L1817.93 1259.46 L1828.28 1238.77 L1838.63 1218.07 L1848.97 1197.38 L1859.32 1176.68 L1869.67 1155.99 L1880.02 1135.29 L1890.36 1114.6 L1900.71 1093.9 L1911.06 1073.21 L1921.41 1052.51 L1931.75 1031.82 L1942.1 1011.12 L1952.45 990.426 L1962.8 969.731 L1973.14 949.036 L1983.49 928.341 L1993.84 907.646 L2004.19 886.951 L1999.55 870.716 L1979.92 858.941 L1960.3 847.167 L1940.68 835.392 L1921.05 823.617 L1901.43 811.842 L1881.8 800.068 L1862.18 788.293 L1842.55 776.518 L1822.93 764.743 L1803.3 752.969 L1783.68 741.194 L1764.05 729.419 L1744.43 717.644 L1724.8 705.87 L1705.18 694.095 L1685.56 682.32 L1665.93 670.545 L1646.31 658.771 L1626.68 646.996 L1607.06 635.221 L1587.43 623.446 L1567.81 611.672 L1548.18 599.897 L1528.56 588.122 L1508.93 576.348 L1489.31 564.573 L1469.69 552.798 L1450.06 541.023 L1437.54 524.296 L1432.12 502.615 L1426.7 480.935 L1421.28 459.254 L1415.86 437.574 L1410.44 415.893 L1405.02 394.213 L1399.6 372.532 L1394.18 350.852 L1388.76 329.172 L1383.34 307.491 L1377.92 285.811 L1372.5 264.13 L1367.08 242.45 L1361.66 220.769 L1356.24 199.089 L1350.82 177.408 L1345.4 155.728 L1339.98 134.047 L1334.56 112.367 L1329.14 90.6863 L1318.3 87.9763 L1302.04 104.237 L1285.78 120.497 L1269.51 136.757 L1253.25 153.018 L1236.99 169.278 L1220.73 185.538 L1204.47 201.799 L1188.21 218.059 L1171.95 234.319 L1155.69 250.58 L1139.43 266.84 L1123.17 283.101 L1106.91 299.361 L1090.65 315.621 L1074.39 331.882 L1058.13 348.142 L1041.87 364.402 L1025.61 380.663 L1009.35 396.923 L993.089 413.183 L976.829 429.444 L960.568 445.704 L944.308 461.964 L928.048 478.225 L911.787 494.485 L895.527 510.745 L879.266 527.006 L861.651 541.459 L842.681 554.106 L823.71 566.753 L804.74 579.4 L785.769 592.047 L766.799 604.694 L747.829 617.341 L728.858 629.988 L709.888 642.635 L690.917 655.282 L671.947 667.929 L652.977 680.576 L634.006 693.223 L615.036 705.87 L596.065 718.517 L577.095 731.164 L558.125 743.81 L539.154 756.457 L534.843 773.128 L545.19 793.823 L555.538 814.518 L565.885 835.213 L576.233 855.908 L586.58 876.603 L596.928 897.298 L607.275 917.993 L617.623 938.688 L627.97 959.383 L638.318 980.078 L648.665 1000.77 L659.013 1021.47 L669.36 1042.16 L679.708 1062.86 L690.055 1083.55 L700.403 1104.25 L710.75 1124.94 L721.098 1145.64 L731.445 1166.33 L741.793 1187.03 L752.14 1207.72 L767.985 1214.51 L789.326 1207.4 L810.668 1200.29 L832.01 1193.17 L853.352 1186.06 L874.693 1178.94 L896.035 1171.83 L917.377 1164.72 L938.718 1157.6 L960.06 1150.49 L981.402 1143.37 L1002.74 1136.26 L1024.09 1129.15 L1045.43 1122.03 L1066.77 1114.92 L1088.11 1107.81 L1109.45 1107.81 L1130.79 1114.92 L1152.14 1122.03 L1173.48 1129.15 L1194.82 1136.26 L1216.16 1143.37 L1237.5 1150.49 L1258.84 1157.6 L1280.19 1164.72 L1301.53 1171.83 L1322.87 1178.94 L1344.21 1186.06 L1365.55 1193.17 L1386.89 1200.29 L1408.24 1207.4 L1429.58 1214.51 L1450.92 1221.63 L1472.26 1228.74 L1493.6 1235.86 L1514.94 1242.97 L1536.29 1250.08 L1557.63 1257.2 L1578.97 1264.31 L1600.31 1271.43 L1621.65 1278.54 L1642.99 1285.65 L1664.34 1292.77 L1685.68 1299.88 L1707.02 1306.99 L1728.36 1314.11 L1749.7 1321.22 L1771.05 1328.34 L1786.89 1321.55 L1786.89 1445.72 L1771.05 1445.72 L1749.7 1445.72 L1728.36 1445.72 L1707.02 1445.72 L1685.68 1445.72 L1664.34 1445.72 L1642.99 1445.72 L1621.65 1445.72 L1600.31 1445.72 L1578.97 1445.72 L1557.63 1445.72 L1536.29 1445.72 L1514.94 1445.72 L1493.6 1445.72 L1472.26 1445.72 L1450.92 1445.72 L1429.58 1445.72 L1408.24 1445.72 L1386.89 1445.72 L1365.55 1445.72 L1344.21 1445.72 L1322.87 1445.72 L1301.53 1445.72 L1280.19 1445.72 L1258.84 1445.72 L1237.5 1445.72 L1216.16 1445.72 L1194.82 1445.72 L1173.48 1445.72 L1152.14 1445.72 L1130.79 1445.72 L1109.45 1445.72 L1088.11 1445.72 L1066.77 1445.72 L1045.43 1445.72 L1024.09 1445.72 L1002.74 1445.72 L981.402 1445.72 L960.06 1445.72 L938.718 1445.72 L917.377 1445.72 L896.035 1445.72 L874.693 1445.72 L853.352 1445.72 L832.01 1445.72 L810.668 1445.72 L789.326 1445.72 L767.985 1445.72 L752.14 1445.72 L741.793 1445.72 L731.445 1445.72 L721.098 1445.72 L710.75 1445.72 L700.403 1445.72 L690.055 1445.72 L679.708 1445.72 L669.36 1445.72 L659.013 1445.72 L648.665 1445.72 L638.318 1445.72 L627.97 1445.72 L617.623 1445.72 L607.275 1445.72 L596.928 1445.72 L586.58 1445.72 L576.233 1445.72 L565.885 1445.72 L555.538 1445.72 L545.19 1445.72 L534.843 1445.72 L539.154 1445.72 L558.125 1445.72 L577.095 1445.72 L596.065 1445.72 L615.036 1445.72 L634.006 1445.72 L652.977 1445.72 L671.947 1445.72 L690.917 1445.72 L709.888 1445.72 L728.858 1445.72 L747.829 1445.72 L766.799 1445.72 L785.769 1445.72 L804.74 1445.72 L823.71 1445.72 L842.681 1445.72 L861.651 1445.72 L879.266 1445.72 L895.527 1445.72 L911.787 1445.72 L928.048 1445.72 L944.308 1445.72 L960.568 1445.72 L976.829 1445.72 L993.089 1445.72 L1009.35 1445.72 L1025.61 1445.72 L1041.87 1445.72 L1058.13 1445.72 L1074.39 1445.72 L1090.65 1445.72 L1106.91 1445.72 L1123.17 1445.72 L1139.43 1445.72 L1155.69 1445.72 L1171.95 1445.72 L1188.21 1445.72 L1204.47 1445.72 L1220.73 1445.72 L1236.99 1445.72 L1253.25 1445.72 L1269.51 1445.72 L1285.78 1445.72 L1302.04 1445.72 L1318.3 1445.72 L1329.14 1445.72 L1334.56 1445.72 L1339.98 1445.72 L1345.4 1445.72 L1350.82 1445.72 L1356.24 1445.72 L1361.66 1445.72 L1367.08 1445.72 L1372.5 1445.72 L1377.92 1445.72 L1383.34 1445.72 L1388.76 1445.72 L1394.18 1445.72 L1399.6 1445.72 L1405.02 1445.72 L1410.44 1445.72 L1415.86 1445.72 L1421.28 1445.72 L1426.7 1445.72 L1432.12 1445.72 L1437.54 1445.72 L1450.06 1445.72 L1469.69 1445.72 L1489.31 1445.72 L1508.93 1445.72 L1528.56 1445.72 L1548.18 1445.72 L1567.81 1445.72 L1587.43 1445.72 L1607.06 1445.72 L1626.68 1445.72 L1646.31 1445.72 L1665.93 1445.72 L1685.56 1445.72 L1705.18 1445.72 L1724.8 1445.72 L1744.43 1445.72 L1764.05 1445.72 L1783.68 1445.72 L1803.3 1445.72 L1822.93 1445.72 L1842.55 1445.72 L1862.18 1445.72 L1881.8 1445.72 L1901.43 1445.72 L1921.05 1445.72 L1940.68 1445.72 L1960.3 1445.72 L1979.92 1445.72 L1999.55 1445.72 L2004.19 1445.72 L1993.84 1445.72 L1983.49 1445.72 L1973.14 1445.72 L1962.8 1445.72 L1952.45 1445.72 L1942.1 1445.72 L1931.75 1445.72 L1921.41 1445.72 L1911.06 1445.72 L1900.71 1445.72 L1890.36 1445.72 L1880.02 1445.72 L1869.67 1445.72 L1859.32 1445.72 L1848.97 1445.72 L1838.63 1445.72 L1828.28 1445.72 L1817.93 1445.72 L1807.58 1445.72 L1797.24 1445.72 L1786.89 1445.72  Z" fill="#97b476" fill-rule="evenodd" fill-opacity="1"/>
<polyline clip-path="url(#clip702)" style="stroke:#97b476; stroke-linecap:round; stroke-linejoin:round; stroke-width:4; stroke-opacity:1; fill:none" points="1786.89,1321.55 1797.24,1300.85 1807.58,1280.16 1817.93,1259.46 1828.28,1238.77 1838.63,1218.07 1848.97,1197.38 1859.32,1176.68 1869.67,1155.99 1880.02,1135.29 1890.36,1114.6 1900.71,1093.9 1911.06,1073.21 1921.41,1052.51 1931.75,1031.82 1942.1,1011.12 1952.45,990.426 1962.8,969.731 1973.14,949.036 1983.49,928.341 1993.84,907.646 2004.19,886.951 1999.55,870.716 1979.92,858.941 1960.3,847.167 1940.68,835.392 1921.05,823.617 1901.43,811.842 1881.8,800.068 1862.18,788.293 1842.55,776.518 1822.93,764.743 1803.3,752.969 1783.68,741.194 1764.05,729.419 1744.43,717.644 1724.8,705.87 1705.18,694.095 1685.56,682.32 1665.93,670.545 1646.31,658.771 1626.68,646.996 1607.06,635.221 1587.43,623.446 1567.81,611.672 1548.18,599.897 1528.56,588.122 1508.93,576.348 1489.31,564.573 1469.69,552.798 1450.06,541.023 1437.54,524.296 1432.12,502.615 1426.7,480.935 1421.28,459.254 1415.86,437.574 1410.44,415.893 1405.02,394.213 1399.6,372.532 1394.18,350.852 1388.76,329.172 1383.34,307.491 1377.92,285.811 1372.5,264.13 1367.08,242.45 1361.66,220.769 1356.24,199.089 1350.82,177.408 1345.4,155.728 1339.98,134.047 1334.56,112.367 1329.14,90.6863 1318.3,87.9763 1302.04,104.237 1285.78,120.497 1269.51,136.757 1253.25,153.018 1236.99,169.278 1220.73,185.538 1204.47,201.799 1188.21,218.059 1171.95,234.319 1155.69,250.58 1139.43,266.84 1123.17,283.101 1106.91,299.361 1090.65,315.621 1074.39,331.882 1058.13,348.142 1041.87,364.402 1025.61,380.663 1009.35,396.923 993.089,413.183 976.829,429.444 960.568,445.704 944.308,461.964 928.048,478.225 911.787,494.485 895.527,510.745 879.266,527.006 861.651,541.459 842.681,554.106 823.71,566.753 804.74,579.4 785.769,592.047 766.799,604.694 747.829,617.341 728.858,629.988 709.888,642.635 690.917,655.282 671.947,667.929 652.977,680.576 634.006,693.223 615.036,705.87 596.065,718.517 577.095,731.164 558.125,743.81 539.154,756.457 534.843,773.128 545.19,793.823 555.538,814.518 565.885,835.213 576.233,855.908 586.58,876.603 596.928,897.298 607.275,917.993 617.623,938.688 627.97,959.383 638.318,980.078 648.665,1000.77 659.013,1021.47 669.36,1042.16 679.708,1062.86 690.055,1083.55 700.403,1104.25 710.75,1124.94 721.098,1145.64 731.445,1166.33 741.793,1187.03 752.14,1207.72 767.985,1214.51 789.326,1207.4 810.668,1200.29 832.01,1193.17 853.352,1186.06 874.693,1178.94 896.035,1171.83 917.377,1164.72 938.718,1157.6 960.06,1150.49 981.402,1143.37 1002.74,1136.26 1024.09,1129.15 1045.43,1122.03 1066.77,1114.92 1088.11,1107.81 1109.45,1107.81 1130.79,1114.92 1152.14,1122.03 1173.48,1129.15 1194.82,1136.26 1216.16,1143.37 1237.5,1150.49 1258.84,1157.6 1280.19,1164.72 1301.53,1171.83 1322.87,1178.94 1344.21,1186.06 1365.55,1193.17 1386.89,1200.29 1408.24,1207.4 1429.58,1214.51 1450.92,1221.63 1472.26,1228.74 1493.6,1235.86 1514.94,1242.97 1536.29,1250.08 1557.63,1257.2 1578.97,1264.31 1600.31,1271.43 1621.65,1278.54 1642.99,1285.65 1664.34,1292.77 1685.68,1299.88 1707.02,1306.99 1728.36,1314.11 1749.7,1321.22 1771.05,1328.34 1786.89,1321.55 "/>
<circle clip-path="url(#clip702)" cx="1786.89" cy="1321.55" r="10.8" fill="#000000" fill-rule="evenodd" fill-opacity="1" stroke="none"/>
<circle clip-path="url(#clip702)" cx="1797.24" cy="1300.85" r="10.8" fill="#000000" fill-rule="evenodd" fill-opacity="1" stroke="none"/>
<circle clip-path="url(#clip702)" cx="1807.58" cy="1280.16" r="10.8" fill="#000000" fill-rule="evenodd" fill-opacity="1" stroke="none"/>
<circle clip-path="url(#clip702)" cx="1817.93" cy="1259.46" r="10.8" fill="#000000" fill-rule="evenodd" fill-opacity="1" stroke="none"/>
<circle clip-path="url(#clip702)" cx="1828.28" cy="1238.77" r="10.8" fill="#000000" fill-rule="evenodd" fill-opacity="1" stroke="none"/>
<circle clip-path="url(#clip702)" cx="1838.63" cy="1218.07" r="10.8" fill="#000000" fill-rule="evenodd" fill-opacity="1" stroke="none"/>
<circle clip-path="url(#clip702)" cx="1848.97" cy="1197.38" r="10.8" fill="#000000" fill-rule="evenodd" fill-opacity="1" stroke="none"/>
<circle clip-path="url(#clip702)" cx="1859.32" cy="1176.68" r="10.8" fill="#000000" fill-rule="evenodd" fill-opacity="1" stroke="none"/>
<circle clip-path="url(#clip702)" cx="1869.67" cy="1155.99" r="10.8" fill="#000000" fill-rule="evenodd" fill-opacity="1" stroke="none"/>
<circle clip-path="url(#clip702)" cx="1880.02" cy="1135.29" r="10.8" fill="#000000" fill-rule="evenodd" fill-opacity="1" stroke="none"/>
<circle clip-path="url(#clip702)" cx="1890.36" cy="1114.6" r="10.8" fill="#000000" fill-rule="evenodd" fill-opacity="1" stroke="none"/>
<circle clip-path="url(#clip702)" cx="1900.71" cy="1093.9" r="10.8" fill="#000000" fill-rule="evenodd" fill-opacity="1" stroke="none"/>
<circle clip-path="url(#clip702)" cx="1911.06" cy="1073.21" r="10.8" fill="#000000" fill-rule="evenodd" fill-opacity="1" stroke="none"/>
<circle clip-path="url(#clip702)" cx="1921.41" cy="1052.51" r="10.8" fill="#000000" fill-rule="evenodd" fill-opacity="1" stroke="none"/>
<circle clip-path="url(#clip702)" cx="1931.75" cy="1031.82" r="10.8" fill="#000000" fill-rule="evenodd" fill-opacity="1" stroke="none"/>
<circle clip-path="url(#clip702)" cx="1942.1" cy="1011.12" r="10.8" fill="#000000" fill-rule="evenodd" fill-opacity="1" stroke="none"/>
<circle clip-path="url(#clip702)" cx="1952.45" cy="990.426" r="10.8" fill="#000000" fill-rule="evenodd" fill-opacity="1" stroke="none"/>
<circle clip-path="url(#clip702)" cx="1962.8" cy="969.731" r="10.8" fill="#000000" fill-rule="evenodd" fill-opacity="1" stroke="none"/>
<circle clip-path="url(#clip702)" cx="1973.14" cy="949.036" r="10.8" fill="#000000" fill-rule="evenodd" fill-opacity="1" stroke="none"/>
<circle clip-path="url(#clip702)" cx="1983.49" cy="928.341" r="10.8" fill="#000000" fill-rule="evenodd" fill-opacity="1" stroke="none"/>
<circle clip-path="url(#clip702)" cx="1993.84" cy="907.646" r="10.8" fill="#000000" fill-rule="evenodd" fill-opacity="1" stroke="none"/>
<circle clip-path="url(#clip702)" cx="2004.19" cy="886.951" r="10.8" fill="#000000" fill-rule="evenodd" fill-opacity="1" stroke="none"/>
<circle clip-path="url(#clip702)" cx="1999.55" cy="870.716" r="10.8" fill="#000000" fill-rule="evenodd" fill-opacity="1" stroke="none"/>
<circle clip-path="url(#clip702)" cx="1979.92" cy="858.941" r="10.8" fill="#000000" fill-rule="evenodd" fill-opacity="1" stroke="none"/>
<circle clip-path="url(#clip702)" cx="1960.3" cy="847.167" r="10.8" fill="#000000" fill-rule="evenodd" fill-opacity="1" stroke="none"/>
<circle clip-path="url(#clip702)" cx="1940.68" cy="835.392" r="10.8" fill="#000000" fill-rule="evenodd" fill-opacity="1" stroke="none"/>
<circle clip-path="url(#clip702)" cx="1921.05" cy="823.617" r="10.8" fill="#000000" fill-rule="evenodd" fill-opacity="1" stroke="none"/>
<circle clip-path="url(#clip702)" cx="1901.43" cy="811.842" r="10.8" fill="#000000" fill-rule="evenodd" fill-opacity="1" stroke="none"/>
<circle clip-path="url(#clip702)" cx="1881.8" cy="800.068" r="10.8" fill="#000000" fill-rule="evenodd" fill-opacity="1" stroke="none"/>
<circle clip-path="url(#clip702)" cx="1862.18" cy="788.293" r="10.8" fill="#000000" fill-rule="evenodd" fill-opacity="1" stroke="none"/>
<circle clip-path="url(#clip702)" cx="1842.55" cy="776.518" r="10.8" fill="#000000" fill-rule="evenodd" fill-opacity="1" stroke="none"/>
<circle clip-path="url(#clip702)" cx="1822.93" cy="764.743" r="10.8" fill="#000000" fill-rule="evenodd" fill-opacity="1" stroke="none"/>
<circle clip-path="url(#clip702)" cx="1803.3" cy="752.969" r="10.8" fill="#000000" fill-rule="evenodd" fill-opacity="1" stroke="none"/>
<circle clip-path="url(#clip702)" cx="1783.68" cy="741.194" r="10.8" fill="#000000" fill-rule="evenodd" fill-opacity="1" stroke="none"/>
<circle clip-path="url(#clip702)" cx="1764.05" cy="729.419" r="10.8" fill="#000000" fill-rule="evenodd" fill-opacity="1" stroke="none"/>
<circle clip-path="url(#clip702)" cx="1744.43" cy="717.644" r="10.8" fill="#000000" fill-rule="evenodd" fill-opacity="1" stroke="none"/>
<circle clip-path="url(#clip702)" cx="1724.8" cy="705.87" r="10.8" fill="#000000" fill-rule="evenodd" fill-opacity="1" stroke="none"/>
<circle clip-path="url(#clip702)" cx="1705.18" cy="694.095" r="10.8" fill="#000000" fill-rule="evenodd" fill-opacity="1" stroke="none"/>
<circle clip-path="url(#clip702)" cx="1685.56" cy="682.32" r="10.8" fill="#000000" fill-rule="evenodd" fill-opacity="1" stroke="none"/>
<circle clip-path="url(#clip702)" cx="1665.93" cy="670.545" r="10.8" fill="#000000" fill-rule="evenodd" fill-opacity="1" stroke="none"/>
<circle clip-path="url(#clip702)" cx="1646.31" cy="658.771" r="10.8" fill="#000000" fill-rule="evenodd" fill-opacity="1" stroke="none"/>
<circle clip-path="url(#clip702)" cx="1626.68" cy="646.996" r="10.8" fill="#000000" fill-rule="evenodd" fill-opacity="1" stroke="none"/>
<circle clip-path="url(#clip702)" cx="1607.06" cy="635.221" r="10.8" fill="#000000" fill-rule="evenodd" fill-opacity="1" stroke="none"/>
<circle clip-path="url(#clip702)" cx="1587.43" cy="623.446" r="10.8" fill="#000000" fill-rule="evenodd" fill-opacity="1" stroke="none"/>
<circle clip-path="url(#clip702)" cx="1567.81" cy="611.672" r="10.8" fill="#000000" fill-rule="evenodd" fill-opacity="1" stroke="none"/>
<circle clip-path="url(#clip702)" cx="1548.18" cy="599.897" r="10.8" fill="#000000" fill-rule="evenodd" fill-opacity="1" stroke="none"/>
<circle clip-path="url(#clip702)" cx="1528.56" cy="588.122" r="10.8" fill="#000000" fill-rule="evenodd" fill-opacity="1" stroke="none"/>
<circle clip-path="url(#clip702)" cx="1508.93" cy="576.348" r="10.8" fill="#000000" fill-rule="evenodd" fill-opacity="1" stroke="none"/>
<circle clip-path="url(#clip702)" cx="1489.31" cy="564.573" r="10.8" fill="#000000" fill-rule="evenodd" fill-opacity="1" stroke="none"/>
<circle clip-path="url(#clip702)" cx="1469.69" cy="552.798" r="10.8" fill="#000000" fill-rule="evenodd" fill-opacity="1" stroke="none"/>
<circle clip-path="url(#clip702)" cx="1450.06" cy="541.023" r="10.8" fill="#000000" fill-rule="evenodd" fill-opacity="1" stroke="none"/>
<circle clip-path="url(#clip702)" cx="1437.54" cy="524.296" r="10.8" fill="#000000" fill-rule="evenodd" fill-opacity="1" stroke="none"/>
<circle clip-path="url(#clip702)" cx="1432.12" cy="502.615" r="10.8" fill="#000000" fill-rule="evenodd" fill-opacity="1" stroke="none"/>
<circle clip-path="url(#clip702)" cx="1426.7" cy="480.935" r="10.8" fill="#000000" fill-rule="evenodd" fill-opacity="1" stroke="none"/>
<circle clip-path="url(#clip702)" cx="1421.28" cy="459.254" r="10.8" fill="#000000" fill-rule="evenodd" fill-opacity="1" stroke="none"/>
<circle clip-path="url(#clip702)" cx="1415.86" cy="437.574" r="10.8" fill="#000000" fill-rule="evenodd" fill-opacity="1" stroke="none"/>
<circle clip-path="url(#clip702)" cx="1410.44" cy="415.893" r="10.8" fill="#000000" fill-rule="evenodd" fill-opacity="1" stroke="none"/>
<circle clip-path="url(#clip702)" cx="1405.02" cy="394.213" r="10.8" fill="#000000" fill-rule="evenodd" fill-opacity="1" stroke="none"/>
<circle clip-path="url(#clip702)" cx="1399.6" cy="372.532" r="10.8" fill="#000000" fill-rule="evenodd" fill-opacity="1" stroke="none"/>
<circle clip-path="url(#clip702)" cx="1394.18" cy="350.852" r="10.8" fill="#000000" fill-rule="evenodd" fill-opacity="1" stroke="none"/>
<circle clip-path="url(#clip702)" cx="1388.76" cy="329.172" r="10.8" fill="#000000" fill-rule="evenodd" fill-opacity="1" stroke="none"/>
<circle clip-path="url(#clip702)" cx="1383.34" cy="307.491" r="10.8" fill="#000000" fill-rule="evenodd" fill-opacity="1" stroke="none"/>
<circle clip-path="url(#clip702)" cx="1377.92" cy="285.811" r="10.8" fill="#000000" fill-rule="evenodd" fill-opacity="1" stroke="none"/>
<circle clip-path="url(#clip702)" cx="1372.5" cy="264.13" r="10.8" fill="#000000" fill-rule="evenodd" fill-opacity="1" stroke="none"/>
<circle clip-path="url(#clip702)" cx="1367.08" cy="242.45" r="10.8" fill="#000000" fill-rule="evenodd" fill-opacity="1" stroke="none"/>
<circle clip-path="url(#clip702)" cx="1361.66" cy="220.769" r="10.8" fill="#000000" fill-rule="evenodd" fill-opacity="1" stroke="none"/>
<circle clip-path="url(#clip702)" cx="1356.24" cy="199.089" r="10.8" fill="#000000" fill-rule="evenodd" fill-opacity="1" stroke="none"/>
<circle clip-path="url(#clip702)" cx="1350.82" cy="177.408" r="10.8" fill="#000000" fill-rule="evenodd" fill-opacity="1" stroke="none"/>
<circle clip-path="url(#clip702)" cx="1345.4" cy="155.728" r="10.8" fill="#000000" fill-rule="evenodd" fill-opacity="1" stroke="none"/>
<circle clip-path="url(#clip702)" cx="1339.98" cy="134.047" r="10.8" fill="#000000" fill-rule="evenodd" fill-opacity="1" stroke="none"/>
<circle clip-path="url(#clip702)" cx="1334.56" cy="112.367" r="10.8" fill="#000000" fill-rule="evenodd" fill-opacity="1" stroke="none"/>
<circle clip-path="url(#clip702)" cx="1329.14" cy="90.6863" r="10.8" fill="#000000" fill-rule="evenodd" fill-opacity="1" stroke="none"/>
<circle clip-path="url(#clip702)" cx="1318.3" cy="87.9763" r="10.8" fill="#000000" fill-rule="evenodd" fill-opacity="1" stroke="none"/>
<circle clip-path="url(#clip702)" cx="1302.04" cy="104.237" r="10.8" fill="#000000" fill-rule="evenodd" fill-opacity="1" stroke="none"/>
<circle clip-path="url(#clip702)" cx="1285.78" cy="120.497" r="10.8" fill="#000000" fill-rule="evenodd" fill-opacity="1" stroke="none"/>
<circle clip-path="url(#clip702)" cx="1269.51" cy="136.757" r="10.8" fill="#000000" fill-rule="evenodd" fill-opacity="1" stroke="none"/>
<circle clip-path="url(#clip702)" cx="1253.25" cy="153.018" r="10.8" fill="#000000" fill-rule="evenodd" fill-opacity="1" stroke="none"/>
<circle clip-path="url(#clip702)" cx="1236.99" cy="169.278" r="10.8" fill="#000000" fill-rule="evenodd" fill-opacity="1" stroke="none"/>
<circle clip-path="url(#clip702)" cx="1220.73" cy="185.538" r="10.8" fill="#000000" fill-rule="evenodd" fill-opacity="1" stroke="none"/>
<circle clip-path="url(#clip702)" cx="1204.47" cy="201.799" r="10.8" fill="#000000" fill-rule="evenodd" fill-opacity="1" stroke="none"/>
<circle clip-path="url(#clip702)" cx="1188.21" cy="218.059" r="10.8" fill="#000000" fill-rule="evenodd" fill-opacity="1" stroke="none"/>
<circle clip-path="url(#clip702)" cx="1171.95" cy="234.319" r="10.8" fill="#000000" fill-rule="evenodd" fill-opacity="1" stroke="none"/>
<circle clip-path="url(#clip702)" cx="1155.69" cy="250.58" r="10.8" fill="#000000" fill-rule="evenodd" fill-opacity="1" stroke="none"/>
<circle clip-path="url(#clip702)" cx="1139.43" cy="266.84" r="10.8" fill="#000000" fill-rule="evenodd" fill-opacity="1" stroke="none"/>
<circle clip-path="url(#clip702)" cx="1123.17" cy="283.101" r="10.8" fill="#000000" fill-rule="evenodd" fill-opacity="1" stroke="none"/>
<circle clip-path="url(#clip702)" cx="1106.91" cy="299.361" r="10.8" fill="#000000" fill-rule="evenodd" fill-opacity="1" stroke="none"/>
<circle clip-path="url(#clip702)" cx="1090.65" cy="315.621" r="10.8" fill="#000000" fill-rule="evenodd" fill-opacity="1" stroke="none"/>
<circle clip-path="url(#clip702)" cx="1074.39" cy="331.882" r="10.8" fill="#000000" fill-rule="evenodd" fill-opacity="1" stroke="none"/>
<circle clip-path="url(#clip702)" cx="1058.13" cy="348.142" r="10.8" fill="#000000" fill-rule="evenodd" fill-opacity="1" stroke="none"/>
<circle clip-path="url(#clip702)" cx="1041.87" cy="364.402" r="10.8" fill="#000000" fill-rule="evenodd" fill-opacity="1" stroke="none"/>
<circle clip-path="url(#clip702)" cx="1025.61" cy="380.663" r="10.8" fill="#000000" fill-rule="evenodd" fill-opacity="1" stroke="none"/>
<circle clip-path="url(#clip702)" cx="1009.35" cy="396.923" r="10.8" fill="#000000" fill-rule="evenodd" fill-opacity="1" stroke="none"/>
<circle clip-path="url(#clip702)" cx="993.089" cy="413.183" r="10.8" fill="#000000" fill-rule="evenodd" fill-opacity="1" stroke="none"/>
<circle clip-path="url(#clip702)" cx="976.829" cy="429.444" r="10.8" fill="#000000" fill-rule="evenodd" fill-opacity="1" stroke="none"/>
<circle clip-path="url(#clip702)" cx="960.568" cy="445.704" r="10.8" fill="#000000" fill-rule="evenodd" fill-opacity="1" stroke="none"/>
<circle clip-path="url(#clip702)" cx="944.308" cy="461.964" r="10.8" fill="#000000" fill-rule="evenodd" fill-opacity="1" stroke="none"/>
<circle clip-path="url(#clip702)" cx="928.048" cy="478.225" r="10.8" fill="#000000" fill-rule="evenodd" fill-opacity="1" stroke="none"/>
<circle clip-path="url(#clip702)" cx="911.787" cy="494.485" r="10.8" fill="#000000" fill-rule="evenodd" fill-opacity="1" stroke="none"/>
<circle clip-path="url(#clip702)" cx="895.527" cy="510.745" r="10.8" fill="#000000" fill-rule="evenodd" fill-opacity="1" stroke="none"/>
<circle clip-path="url(#clip702)" cx="879.266" cy="527.006" r="10.8" fill="#000000" fill-rule="evenodd" fill-opacity="1" stroke="none"/>
<circle clip-path="url(#clip702)" cx="861.651" cy="541.459" r="10.8" fill="#000000" fill-rule="evenodd" fill-opacity="1" stroke="none"/>
<circle clip-path="url(#clip702)" cx="842.681" cy="554.106" r="10.8" fill="#000000" fill-rule="evenodd" fill-opacity="1" stroke="none"/>
<circle clip-path="url(#clip702)" cx="823.71" cy="566.753" r="10.8" fill="#000000" fill-rule="evenodd" fill-opacity="1" stroke="none"/>
<circle clip-path="url(#clip702)" cx="804.74" cy="579.4" r="10.8" fill="#000000" fill-rule="evenodd" fill-opacity="1" stroke="none"/>
<circle clip-path="url(#clip702)" cx="785.769" cy="592.047" r="10.8" fill="#000000" fill-rule="evenodd" fill-opacity="1" stroke="none"/>
<circle clip-path="url(#clip702)" cx="766.799" cy="604.694" r="10.8" fill="#000000" fill-rule="evenodd" fill-opacity="1" stroke="none"/>
<circle clip-path="url(#clip702)" cx="747.829" cy="617.341" r="10.8" fill="#000000" fill-rule="evenodd" fill-opacity="1" stroke="none"/>
<circle clip-path="url(#clip702)" cx="728.858" cy="629.988" r="10.8" fill="#000000" fill-rule="evenodd" fill-opacity="1" stroke="none"/>
<circle clip-path="url(#clip702)" cx="709.888" cy="642.635" r="10.8" fill="#000000" fill-rule="evenodd" fill-opacity="1" stroke="none"/>
<circle clip-path="url(#clip702)" cx="690.917" cy="655.282" r="10.8" fill="#000000" fill-rule="evenodd" fill-opacity="1" stroke="none"/>
<circle clip-path="url(#clip702)" cx="671.947" cy="667.929" r="10.8" fill="#000000" fill-rule="evenodd" fill-opacity="1" stroke="none"/>
<circle clip-path="url(#clip702)" cx="652.977" cy="680.576" r="10.8" fill="#000000" fill-rule="evenodd" fill-opacity="1" stroke="none"/>
<circle clip-path="url(#clip702)" cx="634.006" cy="693.223" r="10.8" fill="#000000" fill-rule="evenodd" fill-opacity="1" stroke="none"/>
<circle clip-path="url(#clip702)" cx="615.036" cy="705.87" r="10.8" fill="#000000" fill-rule="evenodd" fill-opacity="1" stroke="none"/>
<circle clip-path="url(#clip702)" cx="596.065" cy="718.517" r="10.8" fill="#000000" fill-rule="evenodd" fill-opacity="1" stroke="none"/>
<circle clip-path="url(#clip702)" cx="577.095" cy="731.164" r="10.8" fill="#000000" fill-rule="evenodd" fill-opacity="1" stroke="none"/>
<circle clip-path="url(#clip702)" cx="558.125" cy="743.81" r="10.8" fill="#000000" fill-rule="evenodd" fill-opacity="1" stroke="none"/>
<circle clip-path="url(#clip702)" cx="539.154" cy="756.457" r="10.8" fill="#000000" fill-rule="evenodd" fill-opacity="1" stroke="none"/>
<circle clip-path="url(#clip702)" cx="534.843" cy="773.128" r="10.8" fill="#000000" fill-rule="evenodd" fill-opacity="1" stroke="none"/>
<circle clip-path="url(#clip702)" cx="545.19" cy="793.823" r="10.8" fill="#000000" fill-rule="evenodd" fill-opacity="1" stroke="none"/>
<circle clip-path="url(#clip702)" cx="555.538" cy="814.518" r="10.8" fill="#000000" fill-rule="evenodd" fill-opacity="1" stroke="none"/>
<circle clip-path="url(#clip702)" cx="565.885" cy="835.213" r="10.8" fill="#000000" fill-rule="evenodd" fill-opacity="1" stroke="none"/>
<circle clip-path="url(#clip702)" cx="576.233" cy="855.908" r="10.8" fill="#000000" fill-rule="evenodd" fill-opacity="1" stroke="none"/>
<circle clip-path="url(#clip702)" cx="586.58" cy="876.603" r="10.8" fill="#000000" fill-rule="evenodd" fill-opacity="1" stroke="none"/>
<circle clip-path="url(#clip702)" cx="596.928" cy="897.298" r="10.8" fill="#000000" fill-rule="evenodd" fill-opacity="1" stroke="none"/>
<circle clip-path="url(#clip702)" cx="607.275" cy="917.993" r="10.8" fill="#000000" fill-rule="evenodd" fill-opacity="1" stroke="none"/>
<circle clip-path="url(#clip702)" cx="617.623" cy="938.688" r="10.8" fill="#000000" fill-rule="evenodd" fill-opacity="1" stroke="none"/>
<circle clip-path="url(#clip702)" cx="627.97" cy="959.383" r="10.8" fill="#000000" fill-rule="evenodd" fill-opacity="1" stroke="none"/>
<circle clip-path="url(#clip702)" cx="638.318" cy="980.078" r="10.8" fill="#000000" fill-rule="evenodd" fill-opacity="1" stroke="none"/>
<circle clip-path="url(#clip702)" cx="648.665" cy="1000.77" r="10.8" fill="#000000" fill-rule="evenodd" fill-opacity="1" stroke="none"/>
<circle clip-path="url(#clip702)" cx="659.013" cy="1021.47" r="10.8" fill="#000000" fill-rule="evenodd" fill-opacity="1" stroke="none"/>
<circle clip-path="url(#clip702)" cx="669.36" cy="1042.16" r="10.8" fill="#000000" fill-rule="evenodd" fill-opacity="1" stroke="none"/>
<circle clip-path="url(#clip702)" cx="679.708" cy="1062.86" r="10.8" fill="#000000" fill-rule="evenodd" fill-opacity="1" stroke="none"/>
<circle clip-path="url(#clip702)" cx="690.055" cy="1083.55" r="10.8" fill="#000000" fill-rule="evenodd" fill-opacity="1" stroke="none"/>
<circle clip-path="url(#clip702)" cx="700.403" cy="1104.25" r="10.8" fill="#000000" fill-rule="evenodd" fill-opacity="1" stroke="none"/>
<circle clip-path="url(#clip702)" cx="710.75" cy="1124.94" r="10.8" fill="#000000" fill-rule="evenodd" fill-opacity="1" stroke="none"/>
<circle clip-path="url(#clip702)" cx="721.098" cy="1145.64" r="10.8" fill="#000000" fill-rule="evenodd" fill-opacity="1" stroke="none"/>
<circle clip-path="url(#clip702)" cx="731.445" cy="1166.33" r="10.8" fill="#000000" fill-rule="evenodd" fill-opacity="1" stroke="none"/>
<circle clip-path="url(#clip702)" cx="741.793" cy="1187.03" r="10.8" fill="#000000" fill-rule="evenodd" fill-opacity="1" stroke="none"/>
<circle clip-path="url(#clip702)" cx="752.14" cy="1207.72" r="10.8" fill="#000000" fill-rule="evenodd" fill-opacity="1" stroke="none"/>
<circle clip-path="url(#clip702)" cx="767.985" cy="1214.51" r="10.8" fill="#000000" fill-rule="evenodd" fill-opacity="1" stroke="none"/>
<circle clip-path="url(#clip702)" cx="789.326" cy="1207.4" r="10.8" fill="#000000" fill-rule="evenodd" fill-opacity="1" stroke="none"/>
<circle clip-path="url(#clip702)" cx="810.668" cy="1200.29" r="10.8" fill="#000000" fill-rule="evenodd" fill-opacity="1" stroke="none"/>
<circle clip-path="url(#clip702)" cx="832.01" cy="1193.17" r="10.8" fill="#000000" fill-rule="evenodd" fill-opacity="1" stroke="none"/>
<circle clip-path="url(#clip702)" cx="853.352" cy="1186.06" r="10.8" fill="#000000" fill-rule="evenodd" fill-opacity="1" stroke="none"/>
<circle clip-path="url(#clip702)" cx="874.693" cy="1178.94" r="10.8" fill="#000000" fill-rule="evenodd" fill-opacity="1" stroke="none"/>
<circle clip-path="url(#clip702)" cx="896.035" cy="1171.83" r="10.8" fill="#000000" fill-rule="evenodd" fill-opacity="1" stroke="none"/>
<circle clip-path="url(#clip702)" cx="917.377" cy="1164.72" r="10.8" fill="#000000" fill-rule="evenodd" fill-opacity="1" stroke="none"/>
<circle clip-path="url(#clip702)" cx="938.718" cy="1157.6" r="10.8" fill="#000000" fill-rule="evenodd" fill-opacity="1" stroke="none"/>
<circle clip-path="url(#clip702)" cx="960.06" cy="1150.49" r="10.8" fill="#000000" fill-rule="evenodd" fill-opacity="1" stroke="none"/>
<circle clip-path="url(#clip702)" cx="981.402" cy="1143.37" r="10.8" fill="#000000" fill-rule="evenodd" fill-opacity="1" stroke="none"/>
<circle clip-path="url(#clip702)" cx="1002.74" cy="1136.26" r="10.8" fill="#000000" fill-rule="evenodd" fill-opacity="1" stroke="none"/>
<circle clip-path="url(#clip702)" cx="1024.09" cy="1129.15" r="10.8" fill="#000000" fill-rule="evenodd" fill-opacity="1" stroke="none"/>
<circle clip-path="url(#clip702)" cx="1045.43" cy="1122.03" r="10.8" fill="#000000" fill-rule="evenodd" fill-opacity="1" stroke="none"/>
<circle clip-path="url(#clip702)" cx="1066.77" cy="1114.92" r="10.8" fill="#000000" fill-rule="evenodd" fill-opacity="1" stroke="none"/>
<circle clip-path="url(#clip702)" cx="1088.11" cy="1107.81" r="10.8" fill="#000000" fill-rule="evenodd" fill-opacity="1" stroke="none"/>
<circle clip-path="url(#clip702)" cx="1109.45" cy="1107.81" r="10.8" fill="#000000" fill-rule="evenodd" fill-opacity="1" stroke="none"/>
<circle clip-path="url(#clip702)" cx="1130.79" cy="1114.92" r="10.8" fill="#000000" fill-rule="evenodd" fill-opacity="1" stroke="none"/>
<circle clip-path="url(#clip702)" cx="1152.14" cy="1122.03" r="10.8" fill="#000000" fill-rule="evenodd" fill-opacity="1" stroke="none"/>
<circle clip-path="url(#clip702)" cx="1173.48" cy="1129.15" r="10.8" fill="#000000" fill-rule="evenodd" fill-opacity="1" stroke="none"/>
<circle clip-path="url(#clip702)" cx="1194.82" cy="1136.26" r="10.8" fill="#000000" fill-rule="evenodd" fill-opacity="1" stroke="none"/>
<circle clip-path="url(#clip702)" cx="1216.16" cy="1143.37" r="10.8" fill="#000000" fill-rule="evenodd" fill-opacity="1" stroke="none"/>
<circle clip-path="url(#clip702)" cx="1237.5" cy="1150.49" r="10.8" fill="#000000" fill-rule="evenodd" fill-opacity="1" stroke="none"/>
<circle clip-path="url(#clip702)" cx="1258.84" cy="1157.6" r="10.8" fill="#000000" fill-rule="evenodd" fill-opacity="1" stroke="none"/>
<circle clip-path="url(#clip702)" cx="1280.19" cy="1164.72" r="10.8" fill="#000000" fill-rule="evenodd" fill-opacity="1" stroke="none"/>
<circle clip-path="url(#clip702)" cx="1301.53" cy="1171.83" r="10.8" fill="#000000" fill-rule="evenodd" fill-opacity="1" stroke="none"/>
<circle clip-path="url(#clip702)" cx="1322.87" cy="1178.94" r="10.8" fill="#000000" fill-rule="evenodd" fill-opacity="1" stroke="none"/>
<circle clip-path="url(#clip702)" cx="1344.21" cy="1186.06" r="10.8" fill="#000000" fill-rule="evenodd" fill-opacity="1" stroke="none"/>
<circle clip-path="url(#clip702)" cx="1365.55" cy="1193.17" r="10.8" fill="#000000" fill-rule="evenodd" fill-opacity="1" stroke="none"/>
<circle clip-path="url(#clip702)" cx="1386.89" cy="1200.29" r="10.8" fill="#000000" fill-rule="evenodd" fill-opacity="1" stroke="none"/>
<circle clip-path="url(#clip702)" cx="1408.24" cy="1207.4" r="10.8" fill="#000000" fill-rule="evenodd" fill-opacity="1" stroke="none"/>
<circle clip-path="url(#clip702)" cx="1429.58" cy="1214.51" r="10.8" fill="#000000" fill-rule="evenodd" fill-opacity="1" stroke="none"/>
<circle clip-path="url(#clip702)" cx="1450.92" cy="1221.63" r="10.8" fill="#000000" fill-rule="evenodd" fill-opacity="1" stroke="none"/>
<circle clip-path="url(#clip702)" cx="1472.26" cy="1228.74" r="10.8" fill="#000000" fill-rule="evenodd" fill-opacity="1" stroke="none"/>
<circle clip-path="url(#clip702)" cx="1493.6" cy="1235.86" r="10.8" fill="#000000" fill-rule="evenodd" fill-opacity="1" stroke="none"/>
<circle clip-path="url(#clip702)" cx="1514.94" cy="1242.97" r="10.8" fill="#000000" fill-rule="evenodd" fill-opacity="1" stroke="none"/>
<circle clip-path="url(#clip702)" cx="1536.29" cy="1250.08" r="10.8" fill="#000000" fill-rule="evenodd" fill-opacity="1" stroke="none"/>
<circle clip-path="url(#clip702)" cx="1557.63" cy="1257.2" r="10.8" fill="#000000" fill-rule="evenodd" fill-opacity="1" stroke="none"/>
<circle clip-path="url(#clip702)" cx="1578.97" cy="1264.31" r="10.8" fill="#000000" fill-rule="evenodd" fill-opacity="1" stroke="none"/>
<circle clip-path="url(#clip702)" cx="1600.31" cy="1271.43" r="10.8" fill="#000000" fill-rule="evenodd" fill-opacity="1" stroke="none"/>
<circle clip-path="url(#clip702)" cx="1621.65" cy="1278.54" r="10.8" fill="#000000" fill-rule="evenodd" fill-opacity="1" stroke="none"/>
<circle clip-path="url(#clip702)" cx="1642.99" cy="1285.65" r="10.8" fill="#000000" fill-rule="evenodd" fill-opacity="1" stroke="none"/>
<circle clip-path="url(#clip702)" cx="1664.34" cy="1292.77" r="10.8" fill="#000000" fill-rule="evenodd" fill-opacity="1" stroke="none"/>
<circle clip-path="url(#clip702)" cx="1685.68" cy="1299.88" r="10.8" fill="#000000" fill-rule="evenodd" fill-opacity="1" stroke="none"/>
<circle clip-path="url(#clip702)" cx="1707.02" cy="1306.99" r="10.8" fill="#000000" fill-rule="evenodd" fill-opacity="1" stroke="none"/>
<circle clip-path="url(#clip702)" cx="1728.36" cy="1314.11" r="10.8" fill="#000000" fill-rule="evenodd" fill-opacity="1" stroke="none"/>
<circle clip-path="url(#clip702)" cx="1749.7" cy="1321.22" r="10.8" fill="#000000" fill-rule="evenodd" fill-opacity="1" stroke="none"/>
<circle clip-path="url(#clip702)" cx="1771.05" cy="1328.34" r="10.8" fill="#000000" fill-rule="evenodd" fill-opacity="1" stroke="none"/>
<circle clip-path="url(#clip702)" cx="1786.89" cy="1321.55" r="10.8" fill="#000000" fill-rule="evenodd" fill-opacity="1" stroke="none"/>
</svg>
